%TF.GenerationSoftware,KiCad,Pcbnew,7.0.7*%
%TF.CreationDate,2023-10-06T14:48:46-06:00*%
%TF.ProjectId,USB_2_Module,5553425f-325f-44d6-9f64-756c652e6b69,rev?*%
%TF.SameCoordinates,Original*%
%TF.FileFunction,Copper,L1,Top*%
%TF.FilePolarity,Positive*%
%FSLAX46Y46*%
G04 Gerber Fmt 4.6, Leading zero omitted, Abs format (unit mm)*
G04 Created by KiCad (PCBNEW 7.0.7) date 2023-10-06 14:48:46*
%MOMM*%
%LPD*%
G01*
G04 APERTURE LIST*
%TA.AperFunction,ComponentPad*%
%ADD10O,1.350000X1.350000*%
%TD*%
%TA.AperFunction,ComponentPad*%
%ADD11R,1.350000X1.350000*%
%TD*%
%TA.AperFunction,ComponentPad*%
%ADD12C,3.000000*%
%TD*%
%TA.AperFunction,ComponentPad*%
%ADD13C,1.600000*%
%TD*%
%TA.AperFunction,ComponentPad*%
%ADD14R,1.600000X1.600000*%
%TD*%
%TA.AperFunction,Conductor*%
%ADD15C,0.250000*%
%TD*%
G04 APERTURE END LIST*
D10*
%TO.P,J3,10,Pin_10*%
%TO.N,unconnected-(J3-Pin_10-Pad10)*%
X155561200Y-98031400D03*
%TO.P,J3,9,Pin_9*%
%TO.N,unconnected-(J3-Pin_9-Pad9)*%
X155561200Y-96031400D03*
%TO.P,J3,8,Pin_8*%
%TO.N,unconnected-(J3-Pin_8-Pad8)*%
X155561200Y-94031400D03*
%TO.P,J3,7,Pin_7*%
%TO.N,unconnected-(J3-Pin_7-Pad7)*%
X155561200Y-92031400D03*
%TO.P,J3,6,Pin_6*%
%TO.N,unconnected-(J3-Pin_6-Pad6)*%
X155561200Y-90031400D03*
%TO.P,J3,5,Pin_5*%
%TO.N,unconnected-(J3-Pin_5-Pad5)*%
X155561200Y-88031400D03*
%TO.P,J3,4,Pin_4*%
%TO.N,unconnected-(J3-Pin_4-Pad4)*%
X155561200Y-86031400D03*
%TO.P,J3,3,Pin_3*%
%TO.N,unconnected-(J3-Pin_3-Pad3)*%
X155561200Y-84031400D03*
%TO.P,J3,2,Pin_2*%
%TO.N,Net-(J3-Pin_2)*%
X155561200Y-82031400D03*
D11*
%TO.P,J3,1,Pin_1*%
%TO.N,Net-(J3-Pin_1)*%
X155561200Y-80031400D03*
%TD*%
D10*
%TO.P,J2,10,Pin_10*%
%TO.N,Net-(J1-GND)*%
X133573800Y-98021000D03*
%TO.P,J2,9,Pin_9*%
%TO.N,unconnected-(J2-Pin_9-Pad9)*%
X133573800Y-96021000D03*
%TO.P,J2,8,Pin_8*%
%TO.N,unconnected-(J2-Pin_8-Pad8)*%
X133573800Y-94021000D03*
%TO.P,J2,7,Pin_7*%
%TO.N,unconnected-(J2-Pin_7-Pad7)*%
X133573800Y-92021000D03*
%TO.P,J2,6,Pin_6*%
%TO.N,unconnected-(J2-Pin_6-Pad6)*%
X133573800Y-90021000D03*
%TO.P,J2,5,Pin_5*%
%TO.N,unconnected-(J2-Pin_5-Pad5)*%
X133573800Y-88021000D03*
%TO.P,J2,4,Pin_4*%
%TO.N,unconnected-(J2-Pin_4-Pad4)*%
X133573800Y-86021000D03*
%TO.P,J2,3,Pin_3*%
%TO.N,Net-(J1-D-)*%
X133573800Y-84021000D03*
%TO.P,J2,2,Pin_2*%
%TO.N,Net-(J1-D+)*%
X133573800Y-82021000D03*
D11*
%TO.P,J2,1,Pin_1*%
%TO.N,Net-(J1-VBUS)*%
X133573800Y-80021000D03*
%TD*%
D12*
%TO.P,J1,5,Shield*%
%TO.N,Net-(J1-GND)*%
X138070000Y-84609200D03*
X151210000Y-84609200D03*
D13*
%TO.P,J1,4,GND*%
X141140000Y-87319200D03*
%TO.P,J1,3,D+*%
%TO.N,Net-(J1-D+)*%
X143640000Y-87319200D03*
%TO.P,J1,2,D-*%
%TO.N,Net-(J1-D-)*%
X145640000Y-87319200D03*
D14*
%TO.P,J1,1,VBUS*%
%TO.N,Net-(J1-VBUS)*%
X148140000Y-87319200D03*
%TD*%
D12*
%TO.P,J4,5,Shield*%
%TO.N,Net-(J1-GND)*%
X151210000Y-93410000D03*
X138070000Y-93410000D03*
D13*
%TO.P,J4,4,GND*%
X148140000Y-90700000D03*
%TO.P,J4,3,D+*%
%TO.N,Net-(J3-Pin_2)*%
X145640000Y-90700000D03*
%TO.P,J4,2,D-*%
%TO.N,Net-(J3-Pin_1)*%
X143640000Y-90700000D03*
D14*
%TO.P,J4,1,VBUS*%
%TO.N,Net-(J1-VBUS)*%
X141140000Y-90700000D03*
%TD*%
D15*
%TO.N,Net-(J1-GND)*%
X138070000Y-93410000D02*
X133573800Y-97906200D01*
X153154544Y-84609200D02*
X151210000Y-84609200D01*
X153650000Y-84113744D02*
X153154544Y-84609200D01*
X154561200Y-79031400D02*
X153650000Y-79942600D01*
X155975414Y-85031400D02*
X156561200Y-84445614D01*
X154939970Y-85031400D02*
X155975414Y-85031400D01*
X153650000Y-79942600D02*
X153650000Y-84113744D01*
X149271370Y-90700000D02*
X154939970Y-85031400D01*
X148140000Y-90700000D02*
X149271370Y-90700000D01*
X156561200Y-84445614D02*
X156561200Y-79031400D01*
X156561200Y-79031400D02*
X154561200Y-79031400D01*
%TO.N,Net-(J3-Pin_1)*%
X145440000Y-88900000D02*
X143640000Y-90700000D01*
X149500140Y-88900000D02*
X145440000Y-88900000D01*
X154100000Y-84300140D02*
X149500140Y-88900000D01*
X155561200Y-80031400D02*
X154100000Y-81492600D01*
X154100000Y-81492600D02*
X154100000Y-84300140D01*
%TO.N,Net-(J3-Pin_2)*%
X154550000Y-83042600D02*
X155561200Y-82031400D01*
X154550000Y-84720000D02*
X154550000Y-83042600D01*
X149695000Y-89575000D02*
X154550000Y-84720000D01*
X146765000Y-89575000D02*
X149695000Y-89575000D01*
X145640000Y-90700000D02*
X146765000Y-89575000D01*
%TO.N,Net-(J1-VBUS)*%
X141850191Y-90700000D02*
X144105991Y-88444200D01*
X147015000Y-88444200D02*
X148140000Y-87319200D01*
X141140000Y-90700000D02*
X141850191Y-90700000D01*
X144105991Y-88444200D02*
X147015000Y-88444200D01*
%TO.N,Net-(J1-GND)*%
X133573800Y-97906200D02*
X133573800Y-98021000D01*
X148500000Y-90700000D02*
X148140000Y-90700000D01*
X151210000Y-93410000D02*
X148500000Y-90700000D01*
X138070000Y-93410000D02*
X151210000Y-93410000D01*
X138070000Y-90389200D02*
X141140000Y-87319200D01*
X138070000Y-93410000D02*
X138070000Y-90389200D01*
%TO.N,Net-(J1-VBUS)*%
X140841800Y-80021000D02*
X133573800Y-80021000D01*
X148140000Y-87319200D02*
X140841800Y-80021000D01*
%TO.N,Net-(J1-D-)*%
X132560000Y-81620586D02*
X132560000Y-83007200D01*
X133159586Y-81021000D02*
X132560000Y-81620586D01*
X132560000Y-83007200D02*
X133573800Y-84021000D01*
X139341800Y-81021000D02*
X133159586Y-81021000D01*
X145640000Y-87319200D02*
X139341800Y-81021000D01*
%TO.N,Net-(J1-D+)*%
X138341800Y-82021000D02*
X133573800Y-82021000D01*
X143640000Y-87319200D02*
X138341800Y-82021000D01*
%TO.N,Net-(J1-GND)*%
X138430000Y-84609200D02*
X138070000Y-84609200D01*
X141140000Y-87319200D02*
X138430000Y-84609200D01*
%TD*%
M02*
