%TF.GenerationSoftware,KiCad,Pcbnew,7.0.7*%
%TF.CreationDate,2023-10-06T14:48:46-06:00*%
%TF.ProjectId,USB_2_Module,5553425f-325f-44d6-9f64-756c652e6b69,rev?*%
%TF.SameCoordinates,Original*%
%TF.FileFunction,Profile,NP*%
%FSLAX46Y46*%
G04 Gerber Fmt 4.6, Leading zero omitted, Abs format (unit mm)*
G04 Created by KiCad (PCBNEW 7.0.7) date 2023-10-06 14:48:46*
%MOMM*%
%LPD*%
G01*
G04 APERTURE LIST*
%TA.AperFunction,Profile*%
%ADD10C,0.150000*%
%TD*%
%TA.AperFunction,Profile*%
%ADD11C,0.200000*%
%TD*%
G04 APERTURE END LIST*
D10*
X160825373Y-87800763D02*
X160892957Y-87874449D01*
X158242983Y-86410967D02*
X158287026Y-86500724D01*
X159769565Y-87281416D02*
X159868533Y-87295651D01*
X158393059Y-86670117D02*
X158454550Y-86748951D01*
X131670000Y-99720000D02*
X133570000Y-101620000D01*
X130852974Y-86500724D02*
X130802870Y-86587244D01*
X158287026Y-86500724D02*
X158337130Y-86587244D01*
X128625401Y-90493172D02*
X128711078Y-90544715D01*
X130490012Y-91102517D02*
X130564822Y-91168846D01*
X161117082Y-89837948D02*
X161067842Y-89924970D01*
X130861353Y-91568348D02*
X130903179Y-91659159D01*
X127854664Y-88673413D02*
X127837669Y-88771944D01*
X161067842Y-89924970D02*
X161013713Y-90009037D01*
X130546972Y-86893038D02*
X130470639Y-86957609D01*
X128126287Y-90009037D02*
X128185129Y-90089876D01*
X130699863Y-91316157D02*
X130759453Y-91396438D01*
X129372633Y-90758835D02*
X129472263Y-90767269D01*
X128461854Y-87665557D02*
X128386309Y-87731056D01*
X127820746Y-89071099D02*
X127826519Y-89170918D01*
X158278647Y-91568348D02*
X158236821Y-91659159D01*
X159964372Y-90724985D02*
X159866353Y-90744725D01*
X127826519Y-89170918D02*
X127837984Y-89270245D01*
X161013713Y-90009037D02*
X160954871Y-90089876D01*
X130759453Y-91396438D02*
X130813368Y-91480636D01*
X128387939Y-90310439D02*
X128463567Y-90375842D01*
X158669361Y-86957609D02*
X158749949Y-87016783D01*
X158205211Y-86318396D02*
X158220000Y-79070000D01*
X129937204Y-87222884D02*
X129839652Y-87244785D01*
X158812411Y-90986089D02*
X158729191Y-91041502D01*
X158440137Y-91316157D02*
X158380547Y-91396438D01*
X161200266Y-89656188D02*
X161161271Y-89748256D01*
X128541018Y-87604480D02*
X128461854Y-87665557D01*
X160061102Y-90699678D02*
X159964372Y-90724985D01*
X130470639Y-86957609D02*
X130390051Y-87016783D01*
X128022918Y-89837948D02*
X128072158Y-89924970D01*
X159572170Y-90769999D02*
X159472254Y-90773570D01*
X128711078Y-90544715D02*
X128799560Y-90591281D01*
X127837984Y-89270245D02*
X127855103Y-89368755D01*
X158749949Y-87016783D02*
X158834412Y-87070281D01*
X160956222Y-87951876D02*
X161014962Y-88032789D01*
X159570000Y-87270000D02*
X159669946Y-87272856D01*
X160251482Y-87408143D02*
X160342426Y-87449694D01*
X129865656Y-90801292D02*
X129962708Y-90825312D01*
X130685450Y-86748951D02*
X130618688Y-86823376D01*
X161285336Y-88673413D02*
X161302331Y-88771944D01*
X127978729Y-89748256D02*
X128022918Y-89837948D01*
X127826330Y-88871285D02*
X127820683Y-88971112D01*
X158505116Y-91240172D02*
X158440137Y-91316157D01*
X129271467Y-87295651D02*
X129173474Y-87315515D01*
X158205211Y-86318396D02*
X158242983Y-86410967D01*
X159082126Y-90855963D02*
X158989299Y-90893098D01*
X128072158Y-89924970D02*
X128126287Y-90009037D01*
X129078898Y-90699678D02*
X129175628Y-90724985D01*
D11*
X160920000Y-89020000D02*
G75*
G03*
X160920000Y-89020000I-1350000J0D01*
G01*
D10*
X130634884Y-91240172D02*
X130699863Y-91316157D01*
X130410809Y-91041502D02*
X130490012Y-91102517D01*
X130903179Y-91659159D02*
X130920000Y-98970000D01*
X160249444Y-90632717D02*
X160156230Y-90668889D01*
X159372821Y-90784017D02*
X159274344Y-90801292D01*
X158220000Y-98970000D02*
X157470000Y-99720000D01*
X158337130Y-86587244D02*
X158393059Y-86670117D01*
X130746941Y-86670117D02*
X130685450Y-86748951D01*
X159767367Y-90758835D02*
X159667737Y-90767269D01*
X130033021Y-87194333D02*
X129937204Y-87222884D01*
X160676433Y-90375842D02*
X160597192Y-90436819D01*
X160823831Y-90240823D02*
X160752061Y-90310439D01*
X127820683Y-88971112D02*
X127820746Y-89071099D01*
X159498807Y-87268256D02*
X159570000Y-87270000D01*
X129173474Y-87315515D02*
X129076775Y-87340944D01*
X129567830Y-90769999D02*
X129667746Y-90773570D01*
X158899251Y-90936543D02*
X158812411Y-90986089D01*
X161319254Y-89071099D02*
X161313481Y-89170918D01*
X160954871Y-90089876D02*
X160891508Y-90167222D01*
X160597192Y-90436819D02*
X160514599Y-90493172D01*
X127939734Y-89656188D02*
X127978729Y-89748256D01*
X161162190Y-88293755D02*
X161201069Y-88385873D01*
X158521312Y-86823376D02*
X158593028Y-86893038D01*
X130305588Y-87070281D02*
X130217649Y-87117851D01*
X159472254Y-90773570D02*
X159372821Y-90784017D01*
X158729191Y-91041502D02*
X158649988Y-91102517D01*
X159868533Y-87295651D02*
X159966526Y-87315515D01*
X158220000Y-79070000D02*
X157470000Y-78320000D01*
X131670000Y-78320000D02*
X133570000Y-76420000D01*
X128316169Y-90240823D02*
X128387939Y-90310439D01*
X130564822Y-91168846D02*
X130634884Y-91240172D01*
X160516460Y-87548023D02*
X160598982Y-87604480D01*
X160063225Y-87340944D02*
X160158314Y-87371853D01*
X130897017Y-86410967D02*
X130852974Y-86500724D01*
X127906061Y-89562042D02*
X127939734Y-89656188D01*
X158649988Y-91102517D02*
X158575178Y-91168846D01*
X128888518Y-87408143D02*
X128797574Y-87449694D01*
X130802870Y-86587244D02*
X130746941Y-86670117D01*
X127855103Y-89368755D02*
X127877820Y-89466127D01*
X161313481Y-89170918D02*
X161302016Y-89270245D01*
X159013350Y-87159266D02*
X159106979Y-87194333D01*
X128185129Y-90089876D02*
X128248492Y-90167222D01*
X160340440Y-90591281D02*
X160249444Y-90632717D01*
X128071015Y-88116924D02*
X128021886Y-88204008D01*
X130934789Y-86318396D02*
X130897017Y-86410967D01*
X159399174Y-87259933D02*
X159498807Y-87268256D01*
X157470000Y-78320000D02*
X155570000Y-76420000D01*
D11*
X130920000Y-89020000D02*
G75*
G03*
X130920000Y-89020000I-1350000J0D01*
G01*
D10*
X127877258Y-88576012D02*
X127854664Y-88673413D01*
X129470054Y-87272856D02*
X129370435Y-87281416D01*
X160892957Y-87874449D02*
X160956222Y-87951876D01*
X159300348Y-87244785D02*
X159399174Y-87259933D01*
X159669946Y-87272856D02*
X159769565Y-87281416D01*
X155570000Y-101620000D02*
X133570000Y-101620000D01*
X127905378Y-88480062D02*
X127877258Y-88576012D01*
X159202796Y-87222884D02*
X159300348Y-87244785D01*
X160678146Y-87665557D02*
X160753691Y-87731056D01*
X161284897Y-89368755D02*
X161262180Y-89466127D01*
X128125038Y-88032789D02*
X128071015Y-88116924D01*
X161262180Y-89466127D02*
X161233939Y-89562042D01*
X130390051Y-87016783D02*
X130305588Y-87070281D01*
X161319317Y-88971112D02*
X161319254Y-89071099D01*
X157470000Y-99720000D02*
X155570000Y-101620000D01*
X130240749Y-90936543D02*
X130327589Y-90986089D01*
X158326632Y-91480636D02*
X158278647Y-91568348D01*
X128248492Y-90167222D02*
X128316169Y-90240823D01*
X160752061Y-90310439D02*
X160676433Y-90375842D01*
X158380547Y-91396438D02*
X158326632Y-91480636D01*
X159572170Y-90769999D02*
X159572170Y-90769999D01*
X128981686Y-87371853D02*
X128888518Y-87408143D01*
X129273647Y-90744725D02*
X129372633Y-90758835D01*
X129175628Y-90724985D02*
X129273647Y-90744725D01*
X158922351Y-87117851D02*
X159013350Y-87159266D01*
X160430848Y-87496372D02*
X160516460Y-87548023D01*
X159274344Y-90801292D02*
X159177292Y-90825312D01*
X160156230Y-90668889D02*
X160061102Y-90699678D01*
X161201069Y-88385873D02*
X161234622Y-88480062D01*
X128386309Y-87731056D02*
X128314627Y-87800763D01*
X161302331Y-88771944D02*
X161313670Y-88871285D01*
X128247043Y-87874449D02*
X128183778Y-87951876D01*
X128799560Y-90591281D02*
X128890556Y-90632717D01*
X158593028Y-86893038D02*
X158669361Y-86957609D01*
X161068985Y-88116924D02*
X161118114Y-88204008D01*
X130150701Y-90893098D02*
X130240749Y-90936543D01*
X129962708Y-90825312D02*
X130057874Y-90855963D01*
X129740826Y-87259933D02*
X129641193Y-87268256D01*
X159966526Y-87315515D02*
X160063225Y-87340944D01*
X130813368Y-91480636D02*
X130861353Y-91568348D01*
X129839652Y-87244785D02*
X129740826Y-87259933D01*
X128183778Y-87951876D02*
X128125038Y-88032789D01*
X128709152Y-87496372D02*
X128623540Y-87548023D01*
X160753691Y-87731056D02*
X160825373Y-87800763D01*
X158989299Y-90893098D02*
X158899251Y-90936543D01*
X127938931Y-88385873D02*
X127905378Y-88480062D01*
X159866353Y-90744725D02*
X159767367Y-90758835D01*
X130618688Y-86823376D02*
X130546972Y-86893038D01*
X158834412Y-87070281D02*
X158922351Y-87117851D01*
X129767179Y-90784017D02*
X129865656Y-90801292D01*
X161118114Y-88204008D02*
X161162190Y-88293755D01*
X161262742Y-88576012D02*
X161285336Y-88673413D01*
X161161271Y-89748256D02*
X161117082Y-89837948D01*
X161313670Y-88871285D02*
X161319317Y-88971112D01*
X155570000Y-76420000D02*
X153770000Y-76420000D01*
X159177292Y-90825312D02*
X159082126Y-90855963D01*
X158236821Y-91659159D02*
X158220000Y-98970000D01*
X127977810Y-88293755D02*
X127938931Y-88385873D01*
X127877820Y-89466127D02*
X127906061Y-89562042D01*
X160158314Y-87371853D02*
X160251482Y-87408143D01*
X159667737Y-90767269D02*
X159572170Y-90769999D01*
X129667746Y-90773570D02*
X129767179Y-90784017D01*
X130920000Y-98970000D02*
X131670000Y-99720000D01*
X130920000Y-79070000D02*
X131670000Y-78320000D01*
X128890556Y-90632717D02*
X128983770Y-90668889D01*
X160514599Y-90493172D02*
X160428922Y-90544715D01*
X129641193Y-87268256D02*
X129570000Y-87270000D01*
X130057874Y-90855963D02*
X130150701Y-90893098D01*
X158454550Y-86748951D02*
X158521312Y-86823376D01*
X128983770Y-90668889D02*
X129078898Y-90699678D01*
X129370435Y-87281416D02*
X129271467Y-87295651D01*
X161234622Y-88480062D02*
X161262742Y-88576012D01*
X130934789Y-86318396D02*
X130920000Y-79070000D01*
X158575178Y-91168846D02*
X158505116Y-91240172D01*
X127837669Y-88771944D02*
X127826330Y-88871285D01*
X161302016Y-89270245D02*
X161284897Y-89368755D01*
X128797574Y-87449694D02*
X128709152Y-87496372D01*
X161233939Y-89562042D02*
X161200266Y-89656188D01*
X128463567Y-90375842D02*
X128542808Y-90436819D01*
X160598982Y-87604480D02*
X160678146Y-87665557D01*
X130327589Y-90986089D02*
X130410809Y-91041502D01*
X128542808Y-90436819D02*
X128625401Y-90493172D01*
X130126650Y-87159266D02*
X130033021Y-87194333D01*
X160342426Y-87449694D02*
X160430848Y-87496372D01*
X160891508Y-90167222D02*
X160823831Y-90240823D01*
X128623540Y-87548023D02*
X128541018Y-87604480D01*
X129472263Y-90767269D02*
X129567830Y-90769999D01*
X129076775Y-87340944D02*
X128981686Y-87371853D01*
X161014962Y-88032789D02*
X161068985Y-88116924D01*
X128314627Y-87800763D02*
X128247043Y-87874449D01*
X160428922Y-90544715D02*
X160340440Y-90591281D01*
X130217649Y-87117851D02*
X130126650Y-87159266D01*
X129570000Y-87270000D02*
X129470054Y-87272856D01*
X128021886Y-88204008D02*
X127977810Y-88293755D01*
X159106979Y-87194333D02*
X159202796Y-87222884D01*
X133570000Y-76420000D02*
X153770000Y-76420000D01*
M02*
