M48
; DRILL file {KiCad 7.0.7} date Fri Oct  6 14:48:46 2023
; FORMAT={-:-/ absolute / inch / decimal}
; #@! TF.CreationDate,2023-10-06T14:48:46-06:00
; #@! TF.GenerationSoftware,Kicad,Pcbnew,7.0.7
; #@! TF.FileFunction,Plated,1,2,PTH
FMAT,2
INCH
; #@! TA.AperFunction,Plated,PTH,ComponentDrill
T1C0.0315
; #@! TA.AperFunction,Plated,PTH,ComponentDrill
T2C0.0362
; #@! TA.AperFunction,Plated,PTH,ComponentDrill
T3C0.0906
%
G90
G05
T1
X5.2588Y-3.1504
X5.2588Y-3.2292
X5.2588Y-3.3079
X5.2588Y-3.3867
X5.2588Y-3.4654
X5.2588Y-3.5441
X5.2588Y-3.6229
X5.2588Y-3.7016
X5.2588Y-3.7804
X5.2588Y-3.8591
X6.1245Y-3.1508
X6.1245Y-3.2296
X6.1245Y-3.3083
X6.1245Y-3.3871
X6.1245Y-3.4658
X6.1245Y-3.5445
X6.1245Y-3.6233
X6.1245Y-3.702
X6.1245Y-3.7808
X6.1245Y-3.8595
T2
X5.5567Y-3.4378
X5.5567Y-3.5709
X5.6551Y-3.4378
X5.6551Y-3.5709
X5.7339Y-3.4378
X5.7339Y-3.5709
X5.8323Y-3.4378
X5.8323Y-3.5709
T3
X5.4358Y-3.3311
X5.4358Y-3.6776
X5.9531Y-3.3311
X5.9531Y-3.6776
T0
M30
