%TF.GenerationSoftware,KiCad,Pcbnew,7.0.7*%
%TF.CreationDate,2023-10-06T18:16:36-06:00*%
%TF.ProjectId,Modular_Interfaces,4d6f6475-6c61-4725-9f49-6e7465726661,rev?*%
%TF.SameCoordinates,Original*%
%TF.FileFunction,Paste,Bot*%
%TF.FilePolarity,Positive*%
%FSLAX46Y46*%
G04 Gerber Fmt 4.6, Leading zero omitted, Abs format (unit mm)*
G04 Created by KiCad (PCBNEW 7.0.7) date 2023-10-06 18:16:36*
%MOMM*%
%LPD*%
G01*
G04 APERTURE LIST*
G04 Aperture macros list*
%AMRoundRect*
0 Rectangle with rounded corners*
0 $1 Rounding radius*
0 $2 $3 $4 $5 $6 $7 $8 $9 X,Y pos of 4 corners*
0 Add a 4 corners polygon primitive as box body*
4,1,4,$2,$3,$4,$5,$6,$7,$8,$9,$2,$3,0*
0 Add four circle primitives for the rounded corners*
1,1,$1+$1,$2,$3*
1,1,$1+$1,$4,$5*
1,1,$1+$1,$6,$7*
1,1,$1+$1,$8,$9*
0 Add four rect primitives between the rounded corners*
20,1,$1+$1,$2,$3,$4,$5,0*
20,1,$1+$1,$4,$5,$6,$7,0*
20,1,$1+$1,$6,$7,$8,$9,0*
20,1,$1+$1,$8,$9,$2,$3,0*%
G04 Aperture macros list end*
%ADD10RoundRect,0.225000X-0.250000X0.225000X-0.250000X-0.225000X0.250000X-0.225000X0.250000X0.225000X0*%
%ADD11RoundRect,0.200000X0.200000X0.275000X-0.200000X0.275000X-0.200000X-0.275000X0.200000X-0.275000X0*%
%ADD12RoundRect,0.090000X0.139000X0.090000X-0.139000X0.090000X-0.139000X-0.090000X0.139000X-0.090000X0*%
%ADD13R,1.500000X0.800000*%
%ADD14RoundRect,0.200000X-0.200000X-0.275000X0.200000X-0.275000X0.200000X0.275000X-0.200000X0.275000X0*%
%ADD15RoundRect,0.225000X-0.225000X-0.250000X0.225000X-0.250000X0.225000X0.250000X-0.225000X0.250000X0*%
%ADD16RoundRect,0.225000X0.225000X0.250000X-0.225000X0.250000X-0.225000X-0.250000X0.225000X-0.250000X0*%
%ADD17RoundRect,0.225000X0.250000X-0.225000X0.250000X0.225000X-0.250000X0.225000X-0.250000X-0.225000X0*%
%ADD18R,1.750000X0.450000*%
G04 APERTURE END LIST*
D10*
%TO.C,C5*%
X110977285Y-76955000D03*
X110977285Y-78505000D03*
%TD*%
D11*
%TO.C,R5*%
X121122285Y-71850000D03*
X119472285Y-71850000D03*
%TD*%
%TO.C,R1*%
X121129285Y-62970000D03*
X119479285Y-62970000D03*
%TD*%
D12*
%TO.C,L1*%
X108919785Y-72230000D03*
X108054785Y-72230000D03*
%TD*%
D11*
%TO.C,R2*%
X121129285Y-64495000D03*
X119479285Y-64495000D03*
%TD*%
D13*
%TO.C,Y1*%
X107367285Y-60130000D03*
X107367285Y-58630000D03*
%TD*%
D14*
%TO.C,R3*%
X119479285Y-66145000D03*
X121129285Y-66145000D03*
%TD*%
%TO.C,R4*%
X119482285Y-70200000D03*
X121132285Y-70200000D03*
%TD*%
D10*
%TO.C,C8*%
X116677285Y-76955000D03*
X116677285Y-78505000D03*
%TD*%
%TO.C,C6*%
X112877285Y-76955000D03*
X112877285Y-78505000D03*
%TD*%
D15*
%TO.C,C4*%
X106616785Y-64880000D03*
X108166785Y-64880000D03*
%TD*%
D16*
%TO.C,C9*%
X108177285Y-70200000D03*
X106627285Y-70200000D03*
%TD*%
D17*
%TO.C,C3*%
X105140249Y-60170000D03*
X105140249Y-58620000D03*
%TD*%
D10*
%TO.C,C7*%
X114777285Y-76955000D03*
X114777285Y-78505000D03*
%TD*%
D18*
%TO.C,U1*%
X117430249Y-57870000D03*
X117430249Y-58520000D03*
X117430249Y-59170000D03*
X117430249Y-59820000D03*
X117430249Y-60470000D03*
X117430249Y-61120000D03*
X117430249Y-61770000D03*
X117430249Y-62420000D03*
X117430249Y-63070000D03*
X117430249Y-63720000D03*
X117430249Y-64370000D03*
X117430249Y-65020000D03*
X117430249Y-65670000D03*
X117430249Y-66320000D03*
X110230249Y-66320000D03*
X110230249Y-65670000D03*
X110230249Y-65020000D03*
X110230249Y-64370000D03*
X110230249Y-63720000D03*
X110230249Y-63070000D03*
X110230249Y-62420000D03*
X110230249Y-61770000D03*
X110230249Y-61120000D03*
X110230249Y-60470000D03*
X110230249Y-59820000D03*
X110230249Y-59170000D03*
X110230249Y-58520000D03*
X110230249Y-57870000D03*
%TD*%
D10*
%TO.C,C2*%
X105137285Y-61817500D03*
X105137285Y-63367500D03*
%TD*%
M02*
