%TF.GenerationSoftware,KiCad,Pcbnew,7.0.7*%
%TF.CreationDate,2023-10-06T18:16:36-06:00*%
%TF.ProjectId,Modular_Interfaces,4d6f6475-6c61-4725-9f49-6e7465726661,rev?*%
%TF.SameCoordinates,Original*%
%TF.FileFunction,Profile,NP*%
%FSLAX46Y46*%
G04 Gerber Fmt 4.6, Leading zero omitted, Abs format (unit mm)*
G04 Created by KiCad (PCBNEW 7.0.7) date 2023-10-06 18:16:36*
%MOMM*%
%LPD*%
G01*
G04 APERTURE LIST*
%TA.AperFunction,Profile*%
%ADD10C,0.150000*%
%TD*%
%TA.AperFunction,Profile*%
%ADD11C,0.200000*%
%TD*%
G04 APERTURE END LIST*
D10*
X129118533Y-40705651D02*
X129216526Y-40725515D01*
X97875401Y-43903172D02*
X97961078Y-43954715D01*
X97070683Y-42381112D02*
X97070746Y-42481099D01*
X97711854Y-41075557D02*
X97636309Y-41141056D01*
X100920000Y-31730000D02*
X102820000Y-29830000D01*
X99740012Y-44512517D02*
X99814822Y-44578846D01*
X127486821Y-45069159D02*
X127470000Y-52380000D01*
X130264962Y-41442789D02*
X130318985Y-41526924D01*
X124820000Y-29830000D02*
X123020000Y-29830000D01*
X129764599Y-43903172D02*
X129678922Y-43954715D01*
X97228729Y-43158256D02*
X97272918Y-43247948D01*
X130002061Y-43720439D02*
X129926433Y-43785842D01*
X97087984Y-42680245D02*
X97105103Y-42778755D01*
X97189734Y-43066188D02*
X97228729Y-43158256D01*
X98328898Y-44109678D02*
X98425628Y-44134985D01*
X128427292Y-44235312D02*
X128332126Y-44265963D01*
X99868688Y-40233376D02*
X99796972Y-40303038D01*
X128149251Y-44346543D02*
X128062411Y-44396089D01*
X127999949Y-40426783D02*
X128084412Y-40480281D01*
X98722263Y-44177269D02*
X98817830Y-44179999D01*
X129216526Y-40725515D02*
X129313225Y-40750944D01*
X128239299Y-44303098D02*
X128149251Y-44346543D01*
X98917746Y-44183570D02*
X99017179Y-44194017D01*
X98622633Y-44168835D02*
X98722263Y-44177269D01*
X128524344Y-44211292D02*
X128427292Y-44235312D01*
X100170000Y-32480000D02*
X100920000Y-31730000D01*
X97156061Y-42972042D02*
X97189734Y-43066188D01*
X127755116Y-44650172D02*
X127690137Y-44726157D01*
X130451069Y-41795873D02*
X130484622Y-41890062D01*
X98521467Y-40705651D02*
X98423474Y-40725515D01*
X98523647Y-44154725D02*
X98622633Y-44168835D01*
X129406230Y-44078889D02*
X129311102Y-44109678D01*
X97792808Y-43846819D02*
X97875401Y-43903172D01*
X130075373Y-41210763D02*
X130142957Y-41284449D01*
X128332126Y-44265963D02*
X128239299Y-44303098D01*
X127455211Y-39728396D02*
X127470000Y-32480000D01*
X129116353Y-44154725D02*
X129017367Y-44168835D01*
X130317842Y-43334970D02*
X130263713Y-43419037D01*
X128084412Y-40480281D02*
X128172351Y-40527851D01*
X130483939Y-42972042D02*
X130450266Y-43066188D01*
X97104664Y-42083413D02*
X97087669Y-42181944D01*
X97272918Y-43247948D02*
X97322158Y-43334970D01*
X97435129Y-43499876D02*
X97498492Y-43577222D01*
X99949863Y-44726157D02*
X100009453Y-44806438D01*
X100184789Y-39728396D02*
X100170000Y-32480000D01*
X128919946Y-40682856D02*
X129019565Y-40691416D01*
X130412190Y-41703755D02*
X130451069Y-41795873D01*
X126720000Y-53130000D02*
X124820000Y-55030000D01*
X97636309Y-41141056D02*
X97564627Y-41210763D01*
X124820000Y-55030000D02*
X102820000Y-55030000D01*
X130318985Y-41526924D02*
X130368114Y-41614008D01*
X100111353Y-44978348D02*
X100153179Y-45069159D01*
X99796972Y-40303038D02*
X99720639Y-40367609D01*
X99400701Y-44303098D02*
X99490749Y-44346543D01*
X128649174Y-40669933D02*
X128748807Y-40678256D01*
X128550348Y-40654785D02*
X128649174Y-40669933D01*
X97959152Y-40906372D02*
X97873540Y-40958023D01*
X99089652Y-40654785D02*
X98990826Y-40669933D01*
X97105103Y-42778755D02*
X97127820Y-42876127D01*
X97271886Y-41614008D02*
X97227810Y-41703755D01*
X98140556Y-44042717D02*
X98233770Y-44078889D01*
X97791018Y-41014480D02*
X97711854Y-41075557D01*
X130563670Y-42281285D02*
X130569317Y-42381112D01*
X98620435Y-40691416D02*
X98521467Y-40705651D01*
X130484622Y-41890062D02*
X130512742Y-41986012D01*
X97076330Y-42281285D02*
X97070683Y-42381112D01*
X130512742Y-41986012D02*
X130535336Y-42083413D01*
X129214372Y-44134985D02*
X129116353Y-44154725D01*
X127470000Y-32480000D02*
X126720000Y-31730000D01*
X130204871Y-43499876D02*
X130141508Y-43577222D01*
X129766460Y-40958023D02*
X129848982Y-41014480D01*
X98326775Y-40750944D02*
X98231686Y-40781853D01*
X129499444Y-44042717D02*
X129406230Y-44078889D01*
X100170000Y-52380000D02*
X100920000Y-53130000D01*
X129847192Y-43846819D02*
X129764599Y-43903172D01*
X97070746Y-42481099D02*
X97076519Y-42580918D01*
X98047574Y-40859694D02*
X97959152Y-40906372D01*
X128622821Y-44194017D02*
X128524344Y-44211292D01*
X129408314Y-40781853D02*
X129501482Y-40818143D01*
X98891193Y-40678256D02*
X98820000Y-40680000D01*
X127704550Y-40158951D02*
X127771312Y-40233376D01*
X127528647Y-44978348D02*
X127486821Y-45069159D01*
X99935450Y-40158951D02*
X99868688Y-40233376D01*
X99555588Y-40480281D02*
X99467649Y-40527851D01*
X98423474Y-40725515D02*
X98326775Y-40750944D01*
X97322158Y-43334970D02*
X97376287Y-43419037D01*
X127919361Y-40367609D02*
X127999949Y-40426783D01*
X97564627Y-41210763D02*
X97497043Y-41284449D01*
X98138518Y-40818143D02*
X98047574Y-40859694D01*
X130552331Y-42181944D02*
X130563670Y-42281285D01*
X97188931Y-41795873D02*
X97155378Y-41890062D01*
X99307874Y-44265963D02*
X99400701Y-44303098D01*
X129590440Y-44001281D02*
X129499444Y-44042717D01*
X129678922Y-43954715D02*
X129590440Y-44001281D01*
X129313225Y-40750944D02*
X129408314Y-40781853D01*
X127492983Y-39820967D02*
X127537026Y-39910724D01*
X99577589Y-44396089D02*
X99660809Y-44451502D01*
X127470000Y-52380000D02*
X126720000Y-53130000D01*
X99490749Y-44346543D02*
X99577589Y-44396089D01*
X98817830Y-44179999D02*
X98917746Y-44183570D01*
X99467649Y-40527851D02*
X99376650Y-40569266D01*
X130512180Y-42876127D02*
X130483939Y-42972042D01*
X127979191Y-44451502D02*
X127899988Y-44512517D01*
X129928146Y-41075557D02*
X130003691Y-41141056D01*
X99996941Y-40080117D02*
X99935450Y-40158951D01*
X99283021Y-40604333D02*
X99187204Y-40632884D01*
X130073831Y-43650823D02*
X130002061Y-43720439D01*
X97375038Y-41442789D02*
X97321015Y-41526924D01*
X130569254Y-42481099D02*
X130563481Y-42580918D01*
X102820000Y-29830000D02*
X123020000Y-29830000D01*
X129848982Y-41014480D02*
X129928146Y-41075557D01*
X97498492Y-43577222D02*
X97566169Y-43650823D01*
X97497043Y-41284449D02*
X97433778Y-41361876D01*
X100009453Y-44806438D02*
X100063368Y-44890636D01*
X97376287Y-43419037D02*
X97435129Y-43499876D01*
X130206222Y-41361876D02*
X130264962Y-41442789D01*
X130563481Y-42580918D02*
X130552016Y-42680245D01*
X127843028Y-40303038D02*
X127919361Y-40367609D01*
X98990826Y-40669933D02*
X98891193Y-40678256D01*
X129017367Y-44168835D02*
X128917737Y-44177269D01*
X128820000Y-40680000D02*
X128919946Y-40682856D01*
X100063368Y-44890636D02*
X100111353Y-44978348D01*
X97087669Y-42181944D02*
X97076330Y-42281285D01*
X128263350Y-40569266D02*
X128356979Y-40604333D01*
X128722254Y-44183570D02*
X128622821Y-44194017D01*
X130535336Y-42083413D02*
X130552331Y-42181944D01*
X130263713Y-43419037D02*
X130204871Y-43499876D01*
X100920000Y-53130000D02*
X102820000Y-55030000D01*
X127537026Y-39910724D02*
X127587130Y-39997244D01*
X100102974Y-39910724D02*
X100052870Y-39997244D01*
X128172351Y-40527851D02*
X128263350Y-40569266D01*
X127587130Y-39997244D02*
X127643059Y-40080117D01*
X129592426Y-40859694D02*
X129680848Y-40906372D01*
X128356979Y-40604333D02*
X128452796Y-40632884D01*
X100052870Y-39997244D02*
X99996941Y-40080117D01*
X98231686Y-40781853D02*
X98138518Y-40818143D01*
X127630547Y-44806438D02*
X127576632Y-44890636D01*
X127899988Y-44512517D02*
X127825178Y-44578846D01*
X97566169Y-43650823D02*
X97637939Y-43720439D01*
X128822170Y-44179999D02*
X128722254Y-44183570D01*
X130141508Y-43577222D02*
X130073831Y-43650823D01*
X100184789Y-39728396D02*
X100147017Y-39820967D01*
X99720639Y-40367609D02*
X99640051Y-40426783D01*
X97713567Y-43785842D02*
X97792808Y-43846819D01*
X127576632Y-44890636D02*
X127528647Y-44978348D01*
X128062411Y-44396089D02*
X127979191Y-44451502D01*
X127690137Y-44726157D02*
X127630547Y-44806438D01*
X99187204Y-40632884D02*
X99089652Y-40654785D01*
X99814822Y-44578846D02*
X99884884Y-44650172D01*
X130142957Y-41284449D02*
X130206222Y-41361876D01*
X99640051Y-40426783D02*
X99555588Y-40480281D01*
X127825178Y-44578846D02*
X127755116Y-44650172D01*
X130534897Y-42778755D02*
X130512180Y-42876127D01*
X129680848Y-40906372D02*
X129766460Y-40958023D01*
X129311102Y-44109678D02*
X129214372Y-44134985D01*
X97127258Y-41986012D02*
X97104664Y-42083413D01*
X130552016Y-42680245D02*
X130534897Y-42778755D01*
X97127820Y-42876127D02*
X97156061Y-42972042D01*
X98820000Y-40680000D02*
X98720054Y-40682856D01*
X127643059Y-40080117D02*
X127704550Y-40158951D01*
X128822170Y-44179999D02*
X128822170Y-44179999D01*
X129501482Y-40818143D02*
X129592426Y-40859694D01*
X97076519Y-42580918D02*
X97087984Y-42680245D01*
X128748807Y-40678256D02*
X128820000Y-40680000D01*
X98425628Y-44134985D02*
X98523647Y-44154725D01*
X98049560Y-44001281D02*
X98140556Y-44042717D01*
X99115656Y-44211292D02*
X99212708Y-44235312D01*
X99017179Y-44194017D02*
X99115656Y-44211292D01*
X127771312Y-40233376D02*
X127843028Y-40303038D01*
X97961078Y-43954715D02*
X98049560Y-44001281D01*
X130368114Y-41614008D02*
X130412190Y-41703755D01*
X98720054Y-40682856D02*
X98620435Y-40691416D01*
X130569317Y-42381112D02*
X130569254Y-42481099D01*
X97227810Y-41703755D02*
X97188931Y-41795873D01*
X129926433Y-43785842D02*
X129847192Y-43846819D01*
D11*
X100170000Y-42430000D02*
G75*
G03*
X100170000Y-42430000I-1350000J0D01*
G01*
D10*
X97433778Y-41361876D02*
X97375038Y-41442789D01*
X99884884Y-44650172D02*
X99949863Y-44726157D01*
D11*
X130170000Y-42430000D02*
G75*
G03*
X130170000Y-42430000I-1350000J0D01*
G01*
D10*
X97873540Y-40958023D02*
X97791018Y-41014480D01*
X128917737Y-44177269D02*
X128822170Y-44179999D01*
X97155378Y-41890062D02*
X97127258Y-41986012D01*
X100153179Y-45069159D02*
X100170000Y-52380000D01*
X99376650Y-40569266D02*
X99283021Y-40604333D01*
X130367082Y-43247948D02*
X130317842Y-43334970D01*
X98233770Y-44078889D02*
X98328898Y-44109678D01*
X130450266Y-43066188D02*
X130411271Y-43158256D01*
X97637939Y-43720439D02*
X97713567Y-43785842D01*
X129019565Y-40691416D02*
X129118533Y-40705651D01*
X128452796Y-40632884D02*
X128550348Y-40654785D01*
X130003691Y-41141056D02*
X130075373Y-41210763D01*
X99212708Y-44235312D02*
X99307874Y-44265963D01*
X130411271Y-43158256D02*
X130367082Y-43247948D01*
X97321015Y-41526924D02*
X97271886Y-41614008D01*
X99660809Y-44451502D02*
X99740012Y-44512517D01*
X127455211Y-39728396D02*
X127492983Y-39820967D01*
X126720000Y-31730000D02*
X124820000Y-29830000D01*
X100147017Y-39820967D02*
X100102974Y-39910724D01*
X98147803Y-66583143D02*
X98056859Y-66624694D01*
X97384323Y-67207789D02*
X97330300Y-67291924D01*
X63077258Y-67746012D02*
X63054664Y-67843413D01*
X96522331Y-42181944D02*
X96533670Y-42281285D01*
X94572821Y-69954017D02*
X94474344Y-69971292D01*
X98432759Y-66490515D02*
X98336060Y-66515944D01*
X131582662Y-69409624D02*
X131654432Y-69479240D01*
X95356230Y-69838889D02*
X95261102Y-69869678D01*
X130214156Y-69264876D02*
X130150793Y-69342222D01*
X95896433Y-43785842D02*
X95817192Y-43846819D01*
X133572081Y-66239082D02*
X133484142Y-66286652D01*
X96482180Y-42876127D02*
X96453939Y-42972042D01*
X129125638Y-69919725D02*
X129026652Y-69933835D01*
X95068533Y-66465651D02*
X95166526Y-66485515D01*
X132907686Y-66437057D02*
X132836493Y-66438801D01*
X98240971Y-66546853D02*
X98147803Y-66583143D01*
X133737132Y-66126410D02*
X133656544Y-66185584D01*
X98149841Y-69807717D02*
X98243055Y-69843889D01*
X132836493Y-66438801D02*
X132736547Y-66441657D01*
X98629720Y-66456416D02*
X98530752Y-66470651D01*
X131288379Y-67372809D02*
X131244303Y-67462556D01*
X127639832Y-70571438D02*
X127585917Y-70655636D01*
X96213713Y-69179037D02*
X96154871Y-69259876D01*
X163606933Y-69760082D02*
X163515937Y-69801518D01*
X164281455Y-67201590D02*
X164335478Y-67285725D01*
X95714599Y-69663172D02*
X95628922Y-69714715D01*
X131514985Y-69336023D02*
X131582662Y-69409624D01*
X131206227Y-68824989D02*
X131245222Y-68917057D01*
X130377399Y-67379008D02*
X130421475Y-67468755D01*
X164568509Y-68439046D02*
X164551390Y-68537556D01*
X130083116Y-69415823D02*
X130011346Y-69485439D01*
X98056859Y-66624694D02*
X97968437Y-66671372D01*
X63536169Y-43650823D02*
X63607939Y-43720439D01*
X164158001Y-69336023D02*
X164090324Y-69409624D01*
X64491467Y-40705651D02*
X64393474Y-40725515D01*
X130578539Y-68246099D02*
X130572766Y-68345918D01*
X129508729Y-69807717D02*
X129415515Y-69843889D01*
X64203770Y-44078889D02*
X64298898Y-44109678D01*
X97080031Y-68246099D02*
X97085804Y-68345918D01*
X132934239Y-69942371D02*
X133033672Y-69952818D01*
X93813028Y-40303038D02*
X93889361Y-40367609D01*
X163782953Y-66716824D02*
X163865475Y-66773281D01*
X131337508Y-67285725D02*
X131288379Y-67372809D01*
X128929231Y-66447856D02*
X129028850Y-66456416D01*
X64473647Y-69914725D02*
X64572633Y-69928835D01*
X65854884Y-44650172D02*
X65919863Y-44726157D01*
X95469444Y-44042717D02*
X95376230Y-44078889D01*
X164384607Y-67372809D02*
X164428683Y-67462556D01*
X65919863Y-44726157D02*
X65979453Y-44806438D01*
X63606309Y-41141056D02*
X63534627Y-41210763D01*
X65818688Y-65993376D02*
X65746972Y-66063038D01*
X63292158Y-43334970D02*
X63346287Y-43419037D01*
X132343268Y-66509745D02*
X132248179Y-66540654D01*
X66870000Y-78890000D02*
X68770000Y-80790000D01*
X162188844Y-66286652D02*
X162279843Y-66328067D01*
X65039652Y-66414785D02*
X64940826Y-66429933D01*
X64017574Y-40859694D02*
X63929152Y-40906372D01*
X127699422Y-70491157D02*
X127639832Y-70571438D01*
X128248584Y-70068098D02*
X128158536Y-70111543D01*
X132540140Y-69913526D02*
X132639126Y-69927636D01*
X99749297Y-70277517D02*
X99824107Y-70343846D01*
X164585747Y-68239900D02*
X164579974Y-68339719D01*
X95451482Y-66578143D02*
X95542426Y-66619694D01*
X162838663Y-69938800D02*
X162738747Y-69942371D01*
X63516169Y-69410823D02*
X63587939Y-69480439D01*
X63325038Y-67202789D02*
X63271015Y-67286924D01*
X96502331Y-67941944D02*
X96513670Y-68041285D01*
X64296775Y-40750944D02*
X64201686Y-40781853D01*
X164280206Y-69177838D02*
X164221364Y-69258677D01*
X96462742Y-67746012D02*
X96485336Y-67843413D01*
X164091866Y-66969564D02*
X164159450Y-67043250D01*
X95898146Y-41075557D02*
X95973691Y-41141056D01*
X64183770Y-69838889D02*
X64278898Y-69869678D01*
X133203697Y-66391685D02*
X133106145Y-66413586D01*
X93456821Y-45069159D02*
X93440000Y-52380000D01*
X99500034Y-70111543D02*
X99586874Y-70161089D01*
X129026652Y-69933835D02*
X128927022Y-69942269D01*
X96504897Y-42778755D02*
X96482180Y-42876127D01*
X127537932Y-70743348D02*
X127496106Y-70834159D01*
X97281171Y-67379008D02*
X97237095Y-67468755D01*
X63198729Y-43158256D02*
X63242918Y-43247948D01*
X94887737Y-44177269D02*
X94792170Y-44179999D01*
X64692263Y-44177269D02*
X64787830Y-44179999D01*
X66890000Y-53130000D02*
X68790000Y-55030000D01*
X162165744Y-70105344D02*
X162078904Y-70154890D01*
X95540440Y-69761281D02*
X95449444Y-69802717D01*
X94592821Y-44194017D02*
X94494344Y-44211292D01*
X96287842Y-43334970D02*
X96233713Y-43419037D01*
X94987367Y-44168835D02*
X94887737Y-44177269D01*
X130328270Y-67291924D02*
X130377399Y-67379008D01*
X131205424Y-67554674D02*
X131171871Y-67648863D01*
X96539254Y-42481099D02*
X96533481Y-42580918D01*
X131450271Y-67120677D02*
X131391531Y-67201590D01*
X95164372Y-69894985D02*
X95066353Y-69914725D01*
X129775745Y-66723023D02*
X129858267Y-66779480D01*
X132157049Y-69801518D02*
X132250263Y-69837690D01*
X98243055Y-69843889D02*
X98338183Y-69874678D01*
X94012411Y-70156089D02*
X93929191Y-70211502D01*
X65746972Y-66063038D02*
X65670639Y-66127609D01*
X134186493Y-58238801D02*
X134936493Y-57488801D01*
X100156302Y-65585967D02*
X100112259Y-65675724D01*
X65590051Y-66186783D02*
X65505588Y-66240281D01*
X66120000Y-58240000D02*
X66870000Y-57490000D01*
X64276775Y-66510944D02*
X64181686Y-66541853D01*
X131392780Y-69177838D02*
X131451622Y-69258677D01*
X94474344Y-69971292D02*
X94377292Y-69995312D01*
X66890000Y-31730000D02*
X68790000Y-29830000D01*
X163230865Y-69893786D02*
X163132846Y-69913526D01*
X63911078Y-69714715D02*
X63999560Y-69761281D01*
X128272635Y-66334266D02*
X128366264Y-66369333D01*
X63326287Y-69179037D02*
X63385129Y-69259876D01*
X161486493Y-58238801D02*
X160736493Y-57488801D01*
X63221886Y-67374008D02*
X63177810Y-67463755D01*
X97282203Y-69012948D02*
X97331443Y-69099970D01*
X94142351Y-40527851D02*
X94233350Y-40569266D01*
X66134789Y-65488396D02*
X66120000Y-58240000D01*
X65137204Y-66392884D02*
X65039652Y-66414785D01*
X96519317Y-68141112D02*
X96519254Y-68241099D01*
X63271015Y-67286924D02*
X63221886Y-67374008D01*
X129417599Y-66546853D02*
X129510767Y-66583143D01*
X63158931Y-41795873D02*
X63125378Y-41890062D01*
X63845401Y-43903172D02*
X63931078Y-43954715D01*
X96361271Y-68918256D02*
X96317082Y-69007948D01*
X93705116Y-70410172D02*
X93640137Y-70486157D01*
X93600547Y-44806438D02*
X93546632Y-44890636D01*
X95878146Y-66835557D02*
X95953691Y-66901056D01*
X93849988Y-70272517D02*
X93775178Y-70338846D01*
X100194074Y-65493396D02*
X100179285Y-58245000D01*
X94189299Y-70063098D02*
X94099251Y-70106543D01*
X66052974Y-65670724D02*
X66002870Y-65757244D01*
X64967179Y-69954017D02*
X65065656Y-69971292D01*
X64373474Y-66485515D02*
X64276775Y-66510944D01*
X97645594Y-66906056D02*
X97573912Y-66975763D01*
X99564873Y-66245281D02*
X99476934Y-66292851D01*
X131654432Y-69479240D02*
X131730060Y-69544643D01*
X100006226Y-65845117D02*
X99944735Y-65923951D01*
X66061353Y-70738348D02*
X66103179Y-70829159D01*
X95283225Y-40750944D02*
X95378314Y-40781853D01*
X100120638Y-70743348D02*
X100162464Y-70834159D01*
X65527589Y-70156089D02*
X65610809Y-70211502D01*
X95086353Y-44154725D02*
X94987367Y-44168835D01*
X99221993Y-70000312D02*
X99317159Y-70030963D01*
X129690133Y-66671372D02*
X129775745Y-66723023D01*
X164159450Y-67043250D02*
X164222715Y-67120677D01*
X94772170Y-69939999D02*
X94772170Y-69939999D01*
D11*
X100179285Y-68195000D02*
G75*
G03*
X100179285Y-68195000I-1350000J0D01*
G01*
D10*
X163036058Y-66450217D02*
X163135026Y-66464452D01*
X63607939Y-43720439D02*
X63683567Y-43785842D01*
X132736547Y-66441657D02*
X132636928Y-66450217D01*
X66117017Y-39820967D02*
X66072974Y-39910724D01*
X94500348Y-66414785D02*
X94599174Y-66429933D01*
X99026464Y-69959017D02*
X99124941Y-69976292D01*
X163424807Y-66540654D02*
X163517975Y-66576944D01*
X97137105Y-68641127D02*
X97165346Y-68737042D01*
X131338651Y-69093771D02*
X131392780Y-69177838D01*
X128009234Y-66191783D02*
X128093697Y-66245281D01*
X66072974Y-39910724D02*
X66022870Y-39997244D01*
X63999560Y-69761281D02*
X64090556Y-69802717D01*
X92690000Y-53130000D02*
X90790000Y-55030000D01*
X63843540Y-40958023D02*
X63761018Y-41014480D01*
X133132149Y-69970093D02*
X133229201Y-69994113D01*
X128831455Y-69944999D02*
X128731539Y-69948570D01*
X128093697Y-66245281D02*
X128181636Y-66292851D01*
X64110556Y-44042717D02*
X64203770Y-44078889D01*
X161603623Y-65756045D02*
X161659552Y-65838918D01*
X162078904Y-70154890D02*
X161995684Y-70210303D01*
X63385129Y-69259876D02*
X63448492Y-69337222D01*
X97113949Y-67848413D02*
X97096954Y-67946944D01*
X160736493Y-57488801D02*
X158836493Y-55588801D01*
X131171871Y-67648863D02*
X131143751Y-67744813D01*
X95281102Y-44109678D02*
X95184372Y-44134985D01*
X162836493Y-66438801D02*
X162936439Y-66441657D01*
X64767830Y-69939999D02*
X64867746Y-69943570D01*
X63057984Y-42680245D02*
X63075103Y-42778755D01*
X164529235Y-67744813D02*
X164551829Y-67842214D01*
X63026519Y-68340918D02*
X63037984Y-68440245D01*
X63741018Y-66774480D02*
X63661854Y-66835557D01*
X130274247Y-67207789D02*
X130328270Y-67291924D01*
X130578602Y-68146112D02*
X130578539Y-68246099D01*
X63037984Y-68440245D02*
X63055103Y-68538755D01*
X96092957Y-67044449D02*
X96156222Y-67121876D01*
X98827115Y-69944999D02*
X98927031Y-69948570D01*
X134025946Y-70565239D02*
X134079861Y-70649437D01*
X164501115Y-67648863D02*
X164529235Y-67744813D01*
X63587939Y-69480439D02*
X63663567Y-69545842D01*
X130521465Y-68641127D02*
X130493224Y-68737042D01*
X95736460Y-40958023D02*
X95818982Y-41014480D01*
X100112259Y-65675724D02*
X100062155Y-65762244D01*
X133393143Y-66328067D02*
X133299514Y-66363134D01*
X63661854Y-66835557D02*
X63586309Y-66901056D01*
X63139734Y-68826188D02*
X63178729Y-68918256D01*
X134169672Y-70827960D02*
X134186493Y-78138801D01*
X96154871Y-69259876D02*
X96091508Y-69337222D01*
X65277874Y-44265963D02*
X65370701Y-44303098D01*
X96111508Y-43577222D02*
X96043831Y-43650823D01*
X127496106Y-70834159D02*
X127479285Y-78145000D01*
X133299514Y-66363134D02*
X133203697Y-66391685D01*
X63054664Y-67843413D02*
X63037669Y-67941944D01*
X93405211Y-65488396D02*
X93442983Y-65580967D01*
X95648922Y-43954715D02*
X95560440Y-44001281D01*
X94377292Y-69995312D02*
X94282126Y-70025963D01*
X132639126Y-69927636D02*
X132738756Y-69936070D01*
X132738756Y-69936070D02*
X132834323Y-69938800D01*
X93654550Y-65918951D02*
X93721312Y-65993376D01*
X96156222Y-67121876D02*
X96214962Y-67202789D01*
X96045373Y-41210763D02*
X96112957Y-41284449D01*
X102829285Y-55595000D02*
X123029285Y-55595000D01*
X63534627Y-41210763D02*
X63467043Y-41284449D01*
X64841193Y-66438256D02*
X64770000Y-66440000D01*
X132345391Y-69868479D02*
X132442121Y-69893786D01*
X93557130Y-39997244D02*
X93613059Y-40080117D01*
X162443785Y-69994113D02*
X162348619Y-70024764D01*
X64987179Y-44194017D02*
X65085656Y-44211292D01*
X98900478Y-66443256D02*
X98829285Y-66445000D01*
X65905450Y-40158951D02*
X65838688Y-40233376D01*
X98532932Y-69919725D02*
X98631918Y-69933835D01*
X134936493Y-78888801D02*
X136836493Y-80788801D01*
X93487026Y-65670724D02*
X93537130Y-65757244D01*
X134013434Y-65838918D02*
X133951943Y-65917752D01*
X63468492Y-43577222D02*
X63536169Y-43650823D01*
X163608919Y-66618495D02*
X163697341Y-66665173D01*
X164467562Y-67554674D02*
X164501115Y-67648863D01*
X129510767Y-66583143D02*
X129601711Y-66624694D01*
X161503314Y-70827960D02*
X161486493Y-78138801D01*
X126729285Y-78895000D02*
X124829285Y-80795000D01*
X130522027Y-67751012D02*
X130544621Y-67848413D01*
X63448492Y-69337222D02*
X63516169Y-69410823D01*
X129601711Y-66624694D02*
X129690133Y-66671372D01*
X95716460Y-66718023D02*
X95798982Y-66774480D01*
X96362190Y-67463755D02*
X96401069Y-67555873D01*
X63762808Y-43846819D02*
X63845401Y-43903172D01*
X94520348Y-40654785D02*
X94619174Y-40669933D01*
X63663567Y-69545842D02*
X63742808Y-69606819D01*
X97164663Y-67655062D02*
X97136543Y-67751012D01*
X162838663Y-69938800D02*
X162838663Y-69938800D01*
X97330300Y-67291924D02*
X97281171Y-67379008D01*
X95797192Y-69606819D02*
X95714599Y-69663172D01*
X97114388Y-68543755D02*
X97137105Y-68641127D01*
X66154789Y-39728396D02*
X66140000Y-32480000D01*
X164018554Y-69479240D02*
X163942926Y-69544643D01*
X64867746Y-69943570D02*
X64967179Y-69954017D01*
X132155011Y-66576944D02*
X132064067Y-66618495D01*
X127852313Y-66068038D02*
X127928646Y-66132609D01*
X66870000Y-57490000D02*
X68770000Y-55590000D01*
X92670000Y-57490000D02*
X90770000Y-55590000D01*
X133007319Y-66428734D02*
X132907686Y-66437057D01*
X130572955Y-68046285D02*
X130578602Y-68146112D01*
X93721312Y-65993376D02*
X93793028Y-66063038D01*
X136836493Y-55588801D02*
X157036493Y-55588801D01*
X63040746Y-42481099D02*
X63046519Y-42580918D01*
X131289411Y-69006749D02*
X131338651Y-69093771D01*
X93869988Y-44512517D02*
X93795178Y-44578846D01*
X63997574Y-66619694D02*
X63909152Y-66666372D01*
X131581120Y-66969564D02*
X131513536Y-67043250D01*
X161486493Y-78138801D02*
X160736493Y-78888801D01*
X63020683Y-68141112D02*
X63020746Y-68241099D01*
X65440749Y-70106543D02*
X65527589Y-70156089D01*
X129858267Y-66779480D02*
X129937431Y-66840557D01*
X131728347Y-66834358D02*
X131652802Y-66899857D01*
X93478647Y-70738348D02*
X93436821Y-70829159D01*
X64088518Y-66578143D02*
X63997574Y-66619694D01*
X94494344Y-44211292D02*
X94397292Y-44235312D01*
X65710012Y-44512517D02*
X65784822Y-44578846D01*
X65966941Y-40080117D02*
X65905450Y-40158951D01*
X162540837Y-69970093D02*
X162443785Y-69994113D01*
X162566841Y-66413586D02*
X162665667Y-66428734D01*
X133417194Y-70061899D02*
X133507242Y-70105344D01*
X133106145Y-66413586D02*
X133007319Y-66428734D01*
X133229201Y-69994113D02*
X133324367Y-70024764D01*
X132442121Y-69893786D02*
X132540140Y-69913526D01*
X95184372Y-44134985D02*
X95086353Y-44154725D01*
X131977571Y-69713516D02*
X132066053Y-69760082D01*
X97331443Y-69099970D02*
X97385572Y-69184037D01*
X163233019Y-66484316D02*
X163329718Y-66509745D01*
X64672263Y-69937269D02*
X64767830Y-69939999D01*
X93420000Y-78140000D02*
X92670000Y-78890000D01*
X131891894Y-69661973D02*
X131977571Y-69713516D01*
X99124941Y-69976292D02*
X99221993Y-70000312D01*
X97722852Y-69550842D02*
X97802093Y-69611819D01*
X96513481Y-68340918D02*
X96502016Y-68440245D01*
X95186526Y-40725515D02*
X95283225Y-40750944D01*
X132537960Y-66464452D02*
X132439967Y-66484316D01*
X95542426Y-66619694D02*
X95630848Y-66666372D01*
X96454622Y-41890062D02*
X96482742Y-41986012D01*
X161545140Y-70737149D02*
X161503314Y-70827960D01*
X64395628Y-44134985D02*
X64493647Y-44154725D01*
X63345038Y-41442789D02*
X63291015Y-41526924D01*
X134079861Y-70649437D02*
X134127846Y-70737149D01*
X127596415Y-65762244D02*
X127652344Y-65845117D01*
X100179285Y-78145000D02*
X100929285Y-78895000D01*
X99806257Y-66068038D02*
X99729924Y-66132609D01*
X96338114Y-41614008D02*
X96382190Y-41703755D01*
X100062155Y-65762244D02*
X100006226Y-65845117D01*
X163515937Y-69801518D02*
X163422723Y-69837690D01*
X94326979Y-40604333D02*
X94422796Y-40632884D01*
X97884686Y-69668172D02*
X97970363Y-69719715D01*
X130493224Y-68737042D02*
X130459551Y-68831188D01*
X161471704Y-65487197D02*
X161486493Y-58238801D01*
X95261102Y-69869678D02*
X95164372Y-69894985D01*
X65326650Y-66329266D02*
X65233021Y-66364333D01*
X127479285Y-78145000D02*
X126729285Y-78895000D01*
X164090324Y-69409624D02*
X164018554Y-69479240D01*
X63074664Y-42083413D02*
X63057669Y-42181944D01*
X65157204Y-40632884D02*
X65059652Y-40654785D01*
X63931078Y-43954715D02*
X64019560Y-44001281D01*
X63447043Y-67044449D02*
X63383778Y-67121876D01*
X93405211Y-65488396D02*
X93420000Y-58240000D01*
X95973691Y-41141056D02*
X96045373Y-41210763D01*
X98729339Y-66447856D02*
X98629720Y-66456416D01*
X130421475Y-67468755D02*
X130460354Y-67560873D01*
X158836493Y-55588801D02*
X157036493Y-55588801D01*
X66013368Y-70650636D02*
X66061353Y-70738348D01*
X127988476Y-70216502D02*
X127909273Y-70277517D01*
X93969949Y-40426783D02*
X94054412Y-40480281D01*
X90790000Y-29830000D02*
X88990000Y-29830000D01*
X127479285Y-58245000D02*
X126729285Y-57495000D01*
X95876433Y-69545842D02*
X95797192Y-69606819D01*
X163865475Y-66773281D02*
X163944639Y-66834358D01*
X94889946Y-40682856D02*
X94989565Y-40691416D01*
X132439967Y-66484316D02*
X132343268Y-66509745D01*
X161995684Y-70210303D02*
X161916481Y-70271318D01*
X93889361Y-40367609D02*
X93969949Y-40426783D01*
X63823540Y-66718023D02*
X63741018Y-66774480D01*
X130150793Y-69342222D02*
X130083116Y-69415823D01*
X164585810Y-68139913D02*
X164585747Y-68239900D01*
X63825401Y-69663172D02*
X63911078Y-69714715D01*
X66033368Y-44890636D02*
X66081353Y-44978348D01*
X99385935Y-66334266D02*
X99292306Y-66369333D01*
X131244303Y-67462556D02*
X131205424Y-67554674D01*
X65182708Y-44235312D02*
X65277874Y-44265963D01*
X163329718Y-66509745D02*
X163424807Y-66540654D01*
X94306979Y-66364333D02*
X94402796Y-66392884D01*
X164428683Y-67462556D02*
X164467562Y-67554674D01*
X64181686Y-66541853D02*
X64088518Y-66578143D01*
X63929152Y-40906372D02*
X63843540Y-40958023D01*
X161935854Y-66126410D02*
X162016442Y-66185584D01*
X130376367Y-69012948D02*
X130327127Y-69099970D01*
X129223657Y-69899985D02*
X129125638Y-69919725D01*
X99649336Y-66191783D02*
X99564873Y-66245281D01*
X163697341Y-66665173D02*
X163782953Y-66716824D01*
X63761018Y-41014480D02*
X63681854Y-41075557D01*
D11*
X134186493Y-68188801D02*
G75*
G03*
X134186493Y-68188801I-1350000J0D01*
G01*
D10*
X161659552Y-65838918D02*
X161721043Y-65917752D01*
X164551829Y-67842214D02*
X164568824Y-67940745D01*
X133507242Y-70105344D02*
X133594082Y-70154890D01*
X96522016Y-42680245D02*
X96504897Y-42778755D01*
X163944639Y-66834358D02*
X164020184Y-66899857D01*
X94718807Y-40678256D02*
X94790000Y-40680000D01*
X94989565Y-40691416D02*
X95088533Y-40705651D01*
X96420266Y-43066188D02*
X96381271Y-43158256D01*
X94969565Y-66451416D02*
X95068533Y-66465651D01*
X161787805Y-65992177D02*
X161859521Y-66061839D01*
X129322510Y-66515944D02*
X129417599Y-66546853D01*
X94867737Y-69937269D02*
X94772170Y-69939999D01*
X100929285Y-78895000D02*
X102829285Y-80795000D01*
X134186493Y-78138801D02*
X134936493Y-78888801D01*
X129599725Y-69766281D02*
X129508729Y-69807717D01*
X64770000Y-66440000D02*
X64670054Y-66442856D01*
X99959148Y-70491157D02*
X100018738Y-70571438D01*
X134201282Y-65487197D02*
X134163510Y-65579768D01*
X131093012Y-68339719D02*
X131104477Y-68439046D01*
X131121157Y-67842214D02*
X131104162Y-67940745D01*
X129937431Y-66840557D02*
X130012976Y-66906056D01*
X93793028Y-66063038D02*
X93869361Y-66127609D01*
X97573912Y-66975763D02*
X97506328Y-67049449D01*
X94672254Y-69943570D02*
X94572821Y-69954017D01*
X63105378Y-67650062D02*
X63077258Y-67746012D01*
X96381271Y-43158256D02*
X96337082Y-43247948D01*
X65764822Y-70338846D02*
X65834884Y-70410172D01*
X97238014Y-68923256D02*
X97282203Y-69012948D01*
X63177810Y-67463755D02*
X63138931Y-67555873D01*
X96533481Y-42580918D02*
X96522016Y-42680245D01*
X65899863Y-70486157D02*
X65959453Y-70566438D01*
X65834884Y-70410172D02*
X65899863Y-70486157D01*
X94054412Y-40480281D02*
X94142351Y-40527851D01*
X93593059Y-65840117D02*
X93654550Y-65918951D01*
X99098937Y-66419785D02*
X99000111Y-66434933D01*
X164579974Y-68339719D02*
X164568509Y-68439046D01*
X95376230Y-44078889D02*
X95281102Y-44109678D01*
X90770000Y-80790000D02*
X68770000Y-80790000D01*
X163132846Y-69913526D02*
X163033860Y-69927636D01*
X63126061Y-42972042D02*
X63159734Y-43066188D01*
X95358314Y-66541853D02*
X95451482Y-66578143D01*
X93507026Y-39910724D02*
X93557130Y-39997244D01*
X65059652Y-40654785D02*
X64960826Y-40669933D01*
X96462180Y-68636127D02*
X96433939Y-68732042D01*
X64201686Y-40781853D02*
X64108518Y-40818143D01*
X95449444Y-69802717D02*
X95356230Y-69838889D01*
X95734599Y-43903172D02*
X95648922Y-43954715D01*
X93425211Y-39728396D02*
X93462983Y-39820967D01*
X98058845Y-69766281D02*
X98149841Y-69807717D01*
X131144313Y-68634928D02*
X131172554Y-68730843D01*
X132064067Y-66618495D02*
X131975645Y-66665173D01*
X94397292Y-44235312D02*
X94302126Y-44265963D01*
X64108518Y-40818143D02*
X64017574Y-40859694D01*
X100179285Y-58245000D02*
X100929285Y-57495000D01*
X163033860Y-69927636D02*
X162934230Y-69936070D01*
X124829285Y-80795000D02*
X102829285Y-80795000D01*
X131730060Y-69544643D02*
X131809301Y-69605620D01*
X94119251Y-44346543D02*
X94032411Y-44396089D01*
X95972061Y-43720439D02*
X95896433Y-43785842D01*
X93613059Y-40080117D02*
X93674550Y-40158951D01*
X97575454Y-69415823D02*
X97647224Y-69485439D01*
X164568824Y-67940745D02*
X164580163Y-68040086D01*
X64887746Y-44183570D02*
X64987179Y-44194017D01*
X128559633Y-66419785D02*
X128658459Y-66434933D01*
X161706630Y-70484958D02*
X161647040Y-70565239D01*
X97237095Y-67468755D02*
X97198216Y-67560873D01*
X93929191Y-70211502D02*
X93849988Y-70272517D01*
X95166526Y-66485515D02*
X95263225Y-66510944D01*
X96112957Y-41284449D02*
X96176222Y-41361876D01*
X63097820Y-42876127D02*
X63126061Y-42972042D01*
X99292306Y-66369333D02*
X99196489Y-66397884D01*
X96176222Y-41361876D02*
X96234962Y-41442789D01*
X100162464Y-70834159D02*
X100179285Y-78145000D01*
X127834463Y-70343846D02*
X127764401Y-70415172D01*
X133966356Y-70484958D02*
X134025946Y-70565239D01*
X66022870Y-39997244D02*
X65966941Y-40080117D01*
X128533629Y-69976292D02*
X128436577Y-70000312D01*
X63046330Y-42281285D02*
X63040683Y-42381112D01*
X95818982Y-41014480D02*
X95898146Y-41075557D01*
X128181636Y-66292851D02*
X128272635Y-66334266D01*
X99824107Y-70343846D02*
X99894169Y-70415172D01*
X130152242Y-67049449D02*
X130215507Y-67126876D01*
X133813465Y-66061839D02*
X133737132Y-66126410D01*
X94692254Y-44183570D02*
X94592821Y-44194017D01*
X65417649Y-66287851D02*
X65326650Y-66329266D01*
X65690639Y-40367609D02*
X65610051Y-40426783D01*
X128436577Y-70000312D02*
X128341411Y-70030963D01*
X98338183Y-69874678D02*
X98434913Y-69899985D01*
X131104477Y-68439046D02*
X131121596Y-68537556D01*
X130272998Y-69184037D02*
X130214156Y-69264876D01*
X96025373Y-66970763D02*
X96092957Y-67044449D01*
X65162708Y-69995312D02*
X65257874Y-70025963D01*
X130493907Y-67655062D02*
X130522027Y-67751012D01*
X162765300Y-66437057D02*
X162836493Y-66438801D01*
X96267842Y-69094970D02*
X96213713Y-69179037D01*
X164500432Y-68730843D02*
X164466759Y-68824989D01*
X133831315Y-70337647D02*
X133901377Y-70408973D01*
X127585917Y-70655636D02*
X127537932Y-70743348D01*
X127764401Y-70415172D02*
X127699422Y-70491157D01*
X97800303Y-66779480D02*
X97721139Y-66840557D01*
X63222918Y-69007948D02*
X63272158Y-69094970D01*
X96288985Y-41526924D02*
X96338114Y-41614008D01*
X63040683Y-42381112D02*
X63040746Y-42481099D01*
X163781092Y-69661973D02*
X163695415Y-69713516D01*
X65946941Y-65840117D02*
X65885450Y-65918951D01*
X129688207Y-69719715D02*
X129599725Y-69766281D01*
X100929285Y-57495000D02*
X102829285Y-55595000D01*
X63138931Y-67555873D02*
X63105378Y-67650062D01*
X96268985Y-67286924D02*
X96318114Y-67374008D01*
X130420556Y-68923256D02*
X130376367Y-69012948D01*
X97136543Y-67751012D02*
X97113949Y-67848413D01*
X133656544Y-66185584D02*
X133572081Y-66239082D01*
X134069363Y-65756045D02*
X134013434Y-65838918D01*
X96174871Y-43499876D02*
X96111508Y-43577222D01*
X63026330Y-68041285D02*
X63020683Y-68141112D01*
X93580547Y-70566438D02*
X93526632Y-70650636D01*
X162665667Y-66428734D02*
X162765300Y-66437057D01*
X162934230Y-69936070D02*
X162838663Y-69938800D01*
X131975645Y-66665173D02*
X131890033Y-66716824D01*
X163863685Y-69605620D02*
X163781092Y-69661973D01*
X161841671Y-70337647D02*
X161771609Y-70408973D01*
X96234962Y-41442789D02*
X96288985Y-41526924D01*
X65460749Y-44346543D02*
X65547589Y-44396089D01*
X133324367Y-70024764D02*
X133417194Y-70061899D01*
X63242918Y-43247948D02*
X63292158Y-43334970D01*
X162469289Y-66391685D02*
X162566841Y-66413586D01*
X94302126Y-44265963D02*
X94209299Y-44303098D01*
X162348619Y-70024764D02*
X162255792Y-70061899D01*
X64690054Y-40682856D02*
X64590435Y-40691416D01*
X124829285Y-55595000D02*
X123029285Y-55595000D01*
X64590435Y-40691416D02*
X64491467Y-40705651D01*
X133677302Y-70210303D02*
X133756505Y-70271318D01*
X93526632Y-70650636D02*
X93478647Y-70738348D01*
X129320387Y-69874678D02*
X129223657Y-69899985D01*
X97096954Y-67946944D02*
X97085615Y-68046285D01*
X93537130Y-65757244D02*
X93593059Y-65840117D01*
X97085615Y-68046285D02*
X97079968Y-68146112D01*
X93440000Y-52380000D02*
X92690000Y-53130000D01*
X90790000Y-55030000D02*
X68790000Y-55030000D01*
X97079968Y-68146112D02*
X97080031Y-68246099D01*
X96233713Y-43419037D02*
X96174871Y-43499876D01*
X130012976Y-66906056D02*
X130084658Y-66975763D01*
X63586309Y-66901056D02*
X63514627Y-66970763D01*
X98731548Y-69942269D02*
X98827115Y-69944999D01*
X65838688Y-40233376D02*
X65766972Y-40303038D01*
X66120000Y-78140000D02*
X66870000Y-78890000D01*
X94599174Y-66429933D02*
X94698807Y-66438256D01*
X94772170Y-69939999D02*
X94672254Y-69943570D01*
X134163510Y-65579768D02*
X134119467Y-65669525D01*
X97721139Y-66840557D02*
X97645594Y-66906056D01*
X96091508Y-69337222D02*
X96023831Y-69410823D01*
X94209299Y-44303098D02*
X94119251Y-44346543D01*
X164427764Y-68917057D02*
X164383575Y-69006749D01*
X92670000Y-78890000D02*
X90770000Y-80790000D01*
X65766972Y-40303038D02*
X65690639Y-40367609D01*
X129935718Y-69550842D02*
X129856477Y-69611819D01*
X99670094Y-70216502D02*
X99749297Y-70277517D01*
X97385572Y-69184037D02*
X97444414Y-69264876D01*
X93440000Y-32480000D02*
X92690000Y-31730000D01*
X95378314Y-40781853D02*
X95471482Y-40818143D01*
X97443063Y-67126876D02*
X97384323Y-67207789D01*
X97802093Y-69611819D02*
X97884686Y-69668172D01*
X100018738Y-70571438D02*
X100072653Y-70655636D01*
X164528673Y-68634928D02*
X164500432Y-68730843D01*
X65784822Y-44578846D02*
X65854884Y-44650172D01*
X99317159Y-70030963D02*
X99409986Y-70068098D01*
X63241886Y-41614008D02*
X63197810Y-41703755D01*
X97647224Y-69485439D02*
X97722852Y-69550842D01*
X63178729Y-68918256D02*
X63222918Y-69007948D01*
X65547589Y-44396089D02*
X65630809Y-44451502D01*
X128758092Y-66443256D02*
X128829285Y-66445000D01*
X95798982Y-66774480D02*
X95878146Y-66835557D01*
X93546632Y-44890636D02*
X93498647Y-44978348D01*
D11*
X66140000Y-42430000D02*
G75*
G03*
X66140000Y-42430000I-1350000J0D01*
G01*
D10*
X100072653Y-70655636D02*
X100120638Y-70743348D01*
X130215507Y-67126876D02*
X130274247Y-67207789D01*
X97198216Y-67560873D02*
X97164663Y-67655062D01*
X161553519Y-65669525D02*
X161603623Y-65756045D01*
X162373472Y-66363134D02*
X162469289Y-66391685D01*
X131245222Y-68917057D02*
X131289411Y-69006749D01*
X63467043Y-41284449D02*
X63403778Y-41361876D01*
X127546311Y-65675724D02*
X127596415Y-65762244D01*
X64670054Y-66442856D02*
X64570435Y-66451416D01*
X95560440Y-44001281D02*
X95469444Y-44042717D01*
X133885181Y-65992177D02*
X133813465Y-66061839D01*
X63742808Y-69606819D02*
X63825401Y-69663172D01*
X163517975Y-66576944D02*
X163608919Y-66618495D01*
X98530752Y-66470651D02*
X98432759Y-66490515D01*
X133951943Y-65917752D02*
X133885181Y-65992177D01*
X63106061Y-68732042D02*
X63139734Y-68826188D01*
X96519254Y-68241099D02*
X96513481Y-68340918D01*
X93462983Y-39820967D02*
X93507026Y-39910724D01*
X63125378Y-41890062D02*
X63097258Y-41986012D01*
X94698807Y-66438256D02*
X94770000Y-66440000D01*
X129225811Y-66490515D02*
X129322510Y-66515944D01*
X93949191Y-44451502D02*
X93869988Y-44512517D01*
X65670639Y-66127609D02*
X65590051Y-66186783D01*
X128632106Y-69959017D02*
X128533629Y-69976292D01*
X95471482Y-40818143D02*
X95562426Y-40859694D01*
X95817192Y-43846819D02*
X95734599Y-43903172D01*
X66103179Y-70829159D02*
X66120000Y-78140000D01*
X128158536Y-70111543D02*
X128071696Y-70161089D01*
X127652344Y-65845117D02*
X127713835Y-65923951D01*
X96485336Y-67843413D02*
X96502331Y-67941944D01*
D11*
X96140000Y-42430000D02*
G75*
G03*
X96140000Y-42430000I-1350000J0D01*
G01*
D10*
X127464496Y-65493396D02*
X127502268Y-65585967D01*
X161859521Y-66061839D02*
X161935854Y-66126410D01*
X63020746Y-68241099D02*
X63026519Y-68340918D01*
X97444414Y-69264876D02*
X97507777Y-69342222D01*
X94032411Y-44396089D02*
X93949191Y-44451502D01*
X93949949Y-66186783D02*
X94034412Y-66240281D01*
X96401069Y-67555873D02*
X96434622Y-67650062D01*
X94792170Y-44179999D02*
X94692254Y-44183570D01*
X65253021Y-40604333D02*
X65157204Y-40632884D01*
X63291015Y-41526924D02*
X63241886Y-41614008D01*
X161509476Y-65579768D02*
X161553519Y-65669525D01*
X99894169Y-70415172D02*
X99959148Y-70491157D01*
X130544621Y-67848413D02*
X130561616Y-67946944D01*
X162639314Y-69952818D02*
X162540837Y-69970093D01*
X65610809Y-70211502D02*
X65690012Y-70272517D01*
X98336060Y-66515944D02*
X98240971Y-66546853D01*
X66002870Y-65757244D02*
X65946941Y-65840117D01*
X130327127Y-69099970D02*
X130272998Y-69184037D01*
X96214962Y-67202789D02*
X96268985Y-67286924D01*
X64090556Y-69802717D02*
X64183770Y-69838889D01*
X65959453Y-70566438D02*
X66013368Y-70650636D01*
X64572633Y-69928835D02*
X64672263Y-69937269D01*
X63057669Y-42181944D02*
X63046330Y-42281285D01*
X162738747Y-69942371D02*
X162639314Y-69952818D01*
X92690000Y-31730000D02*
X90790000Y-29830000D01*
X96043831Y-43650823D02*
X95972061Y-43720439D01*
X96539317Y-42381112D02*
X96539254Y-42481099D01*
X63514627Y-66970763D02*
X63447043Y-67044449D01*
X63097258Y-41986012D02*
X63074664Y-42083413D01*
X131143751Y-67744813D02*
X131121157Y-67842214D01*
X134936493Y-57488801D02*
X136836493Y-55588801D01*
X65437649Y-40527851D02*
X65346650Y-40569266D01*
X131391531Y-67201590D02*
X131337508Y-67285725D01*
X131104162Y-67940745D02*
X131092823Y-68040086D01*
X127909273Y-70277517D02*
X127834463Y-70343846D01*
X90770000Y-55590000D02*
X88970000Y-55590000D01*
X64471467Y-66465651D02*
X64373474Y-66485515D01*
X66140000Y-32480000D02*
X66890000Y-31730000D01*
X94422796Y-40632884D02*
X94520348Y-40654785D01*
X94402796Y-66392884D02*
X94500348Y-66414785D01*
X99000111Y-66434933D02*
X98900478Y-66443256D01*
X65346650Y-40569266D02*
X65253021Y-40604333D01*
X63272158Y-69094970D02*
X63326287Y-69179037D01*
X163327595Y-69868479D02*
X163230865Y-69893786D01*
X96505336Y-42083413D02*
X96522331Y-42181944D01*
X94792170Y-44179999D02*
X94792170Y-44179999D01*
X94122351Y-66287851D02*
X94213350Y-66329266D01*
X129856477Y-69611819D02*
X129773884Y-69668172D01*
X64861193Y-40678256D02*
X64790000Y-40680000D01*
X63077820Y-68636127D02*
X63106061Y-68732042D01*
X132066053Y-69760082D02*
X132157049Y-69801518D01*
X95650848Y-40906372D02*
X95736460Y-40958023D01*
X97970363Y-69719715D02*
X98058845Y-69766281D01*
X131121596Y-68537556D02*
X131144313Y-68634928D01*
X65610051Y-40426783D02*
X65525588Y-40480281D01*
X132834323Y-69938800D02*
X132934239Y-69942371D01*
X160736493Y-78888801D02*
X158836493Y-80788801D01*
X131652802Y-66899857D02*
X131581120Y-66969564D01*
X128731539Y-69948570D02*
X128632106Y-69959017D01*
X129773884Y-69668172D02*
X129688207Y-69719715D01*
X99877973Y-65998376D02*
X99806257Y-66068038D01*
X95066353Y-69914725D02*
X94967367Y-69928835D01*
X63909152Y-66666372D02*
X63823540Y-66718023D01*
X99196489Y-66397884D02*
X99098937Y-66419785D01*
X98631918Y-69933835D02*
X98731548Y-69942269D01*
X94099251Y-70106543D02*
X94012411Y-70156089D01*
X93741312Y-40233376D02*
X93813028Y-40303038D01*
X63346287Y-43419037D02*
X63405129Y-43499876D01*
X63683567Y-43785842D02*
X63762808Y-43846819D01*
X127928646Y-66132609D02*
X128009234Y-66191783D01*
X63075103Y-42778755D02*
X63097820Y-42876127D01*
X131087176Y-68139913D02*
X131087239Y-68239900D01*
X94770000Y-66440000D02*
X94869946Y-66442856D01*
X128341411Y-70030963D02*
X128248584Y-70068098D01*
X158836493Y-80788801D02*
X136836493Y-80788801D01*
X96318114Y-67374008D02*
X96362190Y-67463755D01*
X64940826Y-66429933D02*
X64841193Y-66438256D01*
X63405129Y-43499876D02*
X63468492Y-43577222D01*
X164020184Y-66899857D02*
X164091866Y-66969564D01*
X131087239Y-68239900D02*
X131093012Y-68339719D01*
X66154789Y-39728396D02*
X66117017Y-39820967D01*
X99729924Y-66132609D02*
X99649336Y-66191783D01*
X130572766Y-68345918D02*
X130561301Y-68445245D01*
X133594082Y-70154890D02*
X133677302Y-70210303D01*
X99476934Y-66292851D02*
X99385935Y-66334266D01*
X99586874Y-70161089D02*
X99670094Y-70216502D01*
X64790000Y-40680000D02*
X64690054Y-40682856D01*
X95263225Y-66510944D02*
X95358314Y-66541853D01*
X129415515Y-69843889D02*
X129320387Y-69874678D01*
X97882825Y-66723023D02*
X97800303Y-66779480D01*
X96434622Y-67650062D02*
X96462742Y-67746012D01*
X97507777Y-69342222D02*
X97575454Y-69415823D01*
X164383575Y-69006749D02*
X164334335Y-69093771D01*
X64298898Y-44109678D02*
X64395628Y-44134985D01*
X65525588Y-40480281D02*
X65437649Y-40527851D01*
X63383778Y-67121876D02*
X63325038Y-67202789D01*
X164335478Y-67285725D02*
X164384607Y-67372809D01*
X94790000Y-40680000D02*
X94889946Y-40682856D01*
X93420000Y-58240000D02*
X92670000Y-57490000D01*
X131092823Y-68040086D02*
X131087176Y-68139913D01*
X161647040Y-70565239D02*
X161593125Y-70649437D01*
X96533670Y-42281285D02*
X96539317Y-42381112D01*
X99944735Y-65923951D02*
X99877973Y-65998376D01*
X96484897Y-68538755D02*
X96462180Y-68636127D01*
X63159734Y-43066188D02*
X63198729Y-43158256D01*
X133033672Y-69952818D02*
X133132149Y-69970093D01*
X64375628Y-69894985D02*
X64473647Y-69914725D01*
X96382190Y-41703755D02*
X96421069Y-41795873D01*
X131809301Y-69605620D02*
X131891894Y-69661973D01*
X130459551Y-68831188D02*
X130420556Y-68923256D01*
X127713835Y-65923951D02*
X127780597Y-65998376D01*
X96482742Y-41986012D02*
X96505336Y-42083413D01*
X94967367Y-69928835D02*
X94867737Y-69937269D01*
X93795178Y-44578846D02*
X93725116Y-44650172D01*
X93869361Y-66127609D02*
X93949949Y-66186783D01*
X64787830Y-44179999D02*
X64887746Y-44183570D01*
D11*
X130179285Y-68195000D02*
G75*
G03*
X130179285Y-68195000I-1350000J0D01*
G01*
D10*
X94213350Y-66329266D02*
X94306979Y-66364333D01*
X163135026Y-66464452D02*
X163233019Y-66484316D01*
X65065656Y-69971292D02*
X65162708Y-69995312D01*
X161916481Y-70271318D02*
X161841671Y-70337647D01*
X64570435Y-66451416D02*
X64471467Y-66465651D01*
X96023831Y-69410823D02*
X95952061Y-69480439D01*
X97097269Y-68445245D02*
X97114388Y-68543755D01*
X64278898Y-69869678D02*
X64375628Y-69894985D01*
X130084658Y-66975763D02*
X130152242Y-67049449D01*
X97968437Y-66671372D02*
X97882825Y-66723023D01*
X93425211Y-39728396D02*
X93440000Y-32480000D01*
X130544182Y-68543755D02*
X130521465Y-68641127D01*
X96421069Y-41795873D02*
X96454622Y-41890062D01*
X99409986Y-70068098D02*
X99500034Y-70111543D01*
X96317082Y-69007948D02*
X96267842Y-69094970D01*
X95628922Y-69714715D02*
X95540440Y-69761281D01*
X127464496Y-65493396D02*
X127479285Y-58245000D01*
X66081353Y-44978348D02*
X66123179Y-45069159D01*
X94869946Y-66442856D02*
X94969565Y-66451416D01*
X162936439Y-66441657D02*
X163036058Y-66450217D01*
X94619174Y-40669933D02*
X94718807Y-40678256D01*
X97085804Y-68345918D02*
X97097269Y-68445245D01*
X162255792Y-70061899D02*
X162165744Y-70105344D01*
X65350701Y-70063098D02*
X65440749Y-70106543D01*
X68770000Y-55590000D02*
X88970000Y-55590000D01*
X131807511Y-66773281D02*
X131728347Y-66834358D01*
D11*
X164186493Y-68188801D02*
G75*
G03*
X164186493Y-68188801I-1350000J0D01*
G01*
D10*
X128831455Y-69944999D02*
X128831455Y-69944999D01*
X133484142Y-66286652D02*
X133393143Y-66328067D01*
X130011346Y-69485439D02*
X129935718Y-69550842D01*
X163695415Y-69713516D02*
X163606933Y-69760082D01*
X94034412Y-66240281D02*
X94122351Y-66287851D01*
X93674550Y-40158951D02*
X93741312Y-40233376D01*
X94233350Y-40569266D02*
X94326979Y-40604333D01*
X97199019Y-68831188D02*
X97238014Y-68923256D01*
X126729285Y-57495000D02*
X124829285Y-55595000D01*
X96337082Y-43247948D02*
X96287842Y-43334970D01*
X65370701Y-44303098D02*
X65460749Y-44346543D01*
X127502268Y-65585967D02*
X127546311Y-65675724D01*
X65885450Y-65918951D02*
X65818688Y-65993376D01*
X66140000Y-52380000D02*
X66890000Y-53130000D01*
X131513536Y-67043250D02*
X131450271Y-67120677D01*
X93775178Y-70338846D02*
X93705116Y-70410172D01*
X98829285Y-66445000D02*
X98729339Y-66447856D01*
X134201282Y-65487197D02*
X134186493Y-58238801D01*
X128462081Y-66397884D02*
X128559633Y-66419785D01*
X63403778Y-41361876D02*
X63345038Y-41442789D01*
X132248179Y-66540654D02*
X132155011Y-66576944D01*
X100194074Y-65493396D02*
X100156302Y-65585967D01*
X93442983Y-65580967D02*
X93487026Y-65670724D01*
X96433939Y-68732042D02*
X96400266Y-68826188D01*
X65979453Y-44806438D02*
X66033368Y-44890636D01*
X63046519Y-42580918D02*
X63057984Y-42680245D01*
X131890033Y-66716824D02*
X131807511Y-66773281D01*
X130460354Y-67560873D02*
X130493907Y-67655062D01*
X65257874Y-70025963D02*
X65350701Y-70063098D01*
X161471704Y-65487197D02*
X161509476Y-65579768D01*
X97506328Y-67049449D02*
X97443063Y-67126876D01*
X64393474Y-40725515D02*
X64296775Y-40750944D01*
X64592633Y-44168835D02*
X64692263Y-44177269D01*
X98434913Y-69899985D02*
X98532932Y-69919725D01*
X93725116Y-44650172D02*
X93660137Y-44726157D01*
X164580163Y-68040086D02*
X164585810Y-68139913D01*
X161593125Y-70649437D02*
X161545140Y-70737149D01*
X130561301Y-68445245D02*
X130544182Y-68543755D01*
X129127818Y-66470651D02*
X129225811Y-66490515D01*
X132636928Y-66450217D02*
X132537960Y-66464452D01*
X131172554Y-68730843D02*
X131206227Y-68824989D01*
X163422723Y-69837690D02*
X163327595Y-69868479D01*
X95953691Y-66901056D02*
X96025373Y-66970763D01*
X133901377Y-70408973D02*
X133966356Y-70484958D01*
X127780597Y-65998376D02*
X127852313Y-66068038D01*
X164221364Y-69258677D02*
X164158001Y-69336023D01*
X162279843Y-66328067D02*
X162373472Y-66363134D01*
X161721043Y-65917752D02*
X161787805Y-65992177D01*
X93498647Y-44978348D02*
X93456821Y-45069159D01*
X95088533Y-40705651D02*
X95186526Y-40725515D01*
X95952061Y-69480439D02*
X95876433Y-69545842D01*
X63681854Y-41075557D02*
X63606309Y-41141056D01*
X132250263Y-69837690D02*
X132345391Y-69868479D01*
X164466759Y-68824989D02*
X164427764Y-68917057D01*
X65690012Y-70272517D02*
X65764822Y-70338846D01*
X128366264Y-66369333D02*
X128462081Y-66397884D01*
X65630809Y-44451502D02*
X65710012Y-44512517D01*
D11*
X96120000Y-68190000D02*
G75*
G03*
X96120000Y-68190000I-1350000J0D01*
G01*
D10*
X128927022Y-69942269D02*
X128831455Y-69944999D01*
D11*
X66120000Y-68190000D02*
G75*
G03*
X66120000Y-68190000I-1350000J0D01*
G01*
D10*
X128829285Y-66445000D02*
X128929231Y-66447856D01*
X131451622Y-69258677D02*
X131514985Y-69336023D01*
X96502016Y-68440245D02*
X96484897Y-68538755D01*
X98927031Y-69948570D02*
X99026464Y-69959017D01*
X93660137Y-44726157D02*
X93600547Y-44806438D01*
X97165346Y-68737042D02*
X97199019Y-68831188D01*
X64960826Y-40669933D02*
X64861193Y-40678256D01*
X128658459Y-66434933D02*
X128758092Y-66443256D01*
X68790000Y-29830000D02*
X88990000Y-29830000D01*
X134119467Y-65669525D02*
X134069363Y-65756045D01*
X66134789Y-65488396D02*
X66097017Y-65580967D01*
X93640137Y-70486157D02*
X93580547Y-70566438D01*
X64493647Y-44154725D02*
X64592633Y-44168835D01*
X65505588Y-66240281D02*
X65417649Y-66287851D01*
X63197810Y-41703755D02*
X63158931Y-41795873D01*
X66097017Y-65580967D02*
X66052974Y-65670724D01*
X163942926Y-69544643D02*
X163863685Y-69605620D01*
X96453939Y-42972042D02*
X96420266Y-43066188D01*
X129028850Y-66456416D02*
X129127818Y-66470651D01*
X95630848Y-66666372D02*
X95716460Y-66718023D01*
X130561616Y-67946944D02*
X130572955Y-68046285D01*
X63055103Y-68538755D02*
X63077820Y-68636127D01*
X162016442Y-66185584D02*
X162100905Y-66239082D01*
X164222715Y-67120677D02*
X164281455Y-67201590D01*
X65233021Y-66364333D02*
X65137204Y-66392884D01*
X128071696Y-70161089D02*
X127988476Y-70216502D01*
X65085656Y-44211292D02*
X65182708Y-44235312D01*
X96513670Y-68041285D02*
X96519317Y-68141112D01*
X133756505Y-70271318D02*
X133831315Y-70337647D01*
X63037669Y-67941944D02*
X63026330Y-68041285D01*
X93436821Y-70829159D02*
X93420000Y-78140000D01*
X161771609Y-70408973D02*
X161706630Y-70484958D01*
X94282126Y-70025963D02*
X94189299Y-70063098D01*
X95562426Y-40859694D02*
X95650848Y-40906372D01*
X66123179Y-45069159D02*
X66140000Y-52380000D01*
X64019560Y-44001281D02*
X64110556Y-44042717D01*
X164551390Y-68537556D02*
X164528673Y-68634928D01*
X164334335Y-69093771D02*
X164280206Y-69177838D01*
X162100905Y-66239082D02*
X162188844Y-66286652D01*
X134127846Y-70737149D02*
X134169672Y-70827960D01*
X96400266Y-68826188D02*
X96361271Y-68918256D01*
M02*
