%TF.GenerationSoftware,KiCad,Pcbnew,7.0.7*%
%TF.CreationDate,2023-10-06T18:16:36-06:00*%
%TF.ProjectId,Modular_Interfaces,4d6f6475-6c61-4725-9f49-6e7465726661,rev?*%
%TF.SameCoordinates,Original*%
%TF.FileFunction,Copper,L2,Bot*%
%TF.FilePolarity,Positive*%
%FSLAX46Y46*%
G04 Gerber Fmt 4.6, Leading zero omitted, Abs format (unit mm)*
G04 Created by KiCad (PCBNEW 7.0.7) date 2023-10-06 18:16:36*
%MOMM*%
%LPD*%
G01*
G04 APERTURE LIST*
G04 Aperture macros list*
%AMRoundRect*
0 Rectangle with rounded corners*
0 $1 Rounding radius*
0 $2 $3 $4 $5 $6 $7 $8 $9 X,Y pos of 4 corners*
0 Add a 4 corners polygon primitive as box body*
4,1,4,$2,$3,$4,$5,$6,$7,$8,$9,$2,$3,0*
0 Add four circle primitives for the rounded corners*
1,1,$1+$1,$2,$3*
1,1,$1+$1,$4,$5*
1,1,$1+$1,$6,$7*
1,1,$1+$1,$8,$9*
0 Add four rect primitives between the rounded corners*
20,1,$1+$1,$2,$3,$4,$5,0*
20,1,$1+$1,$4,$5,$6,$7,0*
20,1,$1+$1,$6,$7,$8,$9,0*
20,1,$1+$1,$8,$9,$2,$3,0*%
G04 Aperture macros list end*
%TA.AperFunction,ComponentPad*%
%ADD10R,1.350000X1.350000*%
%TD*%
%TA.AperFunction,ComponentPad*%
%ADD11O,1.350000X1.350000*%
%TD*%
%TA.AperFunction,ComponentPad*%
%ADD12RoundRect,0.250000X-0.600000X-0.725000X0.600000X-0.725000X0.600000X0.725000X-0.600000X0.725000X0*%
%TD*%
%TA.AperFunction,ComponentPad*%
%ADD13O,1.700000X1.950000*%
%TD*%
%TA.AperFunction,ComponentPad*%
%ADD14R,1.600000X1.600000*%
%TD*%
%TA.AperFunction,ComponentPad*%
%ADD15C,1.600000*%
%TD*%
%TA.AperFunction,ComponentPad*%
%ADD16C,3.000000*%
%TD*%
%TA.AperFunction,ComponentPad*%
%ADD17R,1.500000X1.500000*%
%TD*%
%TA.AperFunction,ComponentPad*%
%ADD18C,1.500000*%
%TD*%
%TA.AperFunction,ComponentPad*%
%ADD19C,2.300000*%
%TD*%
%TA.AperFunction,SMDPad,CuDef*%
%ADD20RoundRect,0.225000X-0.250000X0.225000X-0.250000X-0.225000X0.250000X-0.225000X0.250000X0.225000X0*%
%TD*%
%TA.AperFunction,SMDPad,CuDef*%
%ADD21RoundRect,0.200000X0.200000X0.275000X-0.200000X0.275000X-0.200000X-0.275000X0.200000X-0.275000X0*%
%TD*%
%TA.AperFunction,SMDPad,CuDef*%
%ADD22RoundRect,0.100000X0.217500X0.100000X-0.217500X0.100000X-0.217500X-0.100000X0.217500X-0.100000X0*%
%TD*%
%TA.AperFunction,SMDPad,CuDef*%
%ADD23R,1.500000X0.800000*%
%TD*%
%TA.AperFunction,SMDPad,CuDef*%
%ADD24RoundRect,0.200000X-0.200000X-0.275000X0.200000X-0.275000X0.200000X0.275000X-0.200000X0.275000X0*%
%TD*%
%TA.AperFunction,SMDPad,CuDef*%
%ADD25RoundRect,0.225000X-0.225000X-0.250000X0.225000X-0.250000X0.225000X0.250000X-0.225000X0.250000X0*%
%TD*%
%TA.AperFunction,SMDPad,CuDef*%
%ADD26RoundRect,0.225000X0.225000X0.250000X-0.225000X0.250000X-0.225000X-0.250000X0.225000X-0.250000X0*%
%TD*%
%TA.AperFunction,SMDPad,CuDef*%
%ADD27RoundRect,0.225000X0.250000X-0.225000X0.250000X0.225000X-0.250000X0.225000X-0.250000X-0.225000X0*%
%TD*%
%TA.AperFunction,SMDPad,CuDef*%
%ADD28R,1.750000X0.450000*%
%TD*%
%TA.AperFunction,ViaPad*%
%ADD29C,0.800000*%
%TD*%
%TA.AperFunction,Conductor*%
%ADD30C,0.250000*%
%TD*%
%TA.AperFunction,Conductor*%
%ADD31C,0.200000*%
%TD*%
G04 APERTURE END LIST*
D10*
%TO.P,J16,1,Pin_1*%
%TO.N,Net-(J14-Pin_3)*%
X124800000Y-33420000D03*
D11*
%TO.P,J16,2,Pin_2*%
%TO.N,Net-(J14-Pin_4)*%
X124800000Y-35420000D03*
%TO.P,J16,3,Pin_3*%
%TO.N,unconnected-(J16-Pin_3-Pad3)*%
X124800000Y-37420000D03*
%TO.P,J16,4,Pin_4*%
%TO.N,unconnected-(J16-Pin_4-Pad4)*%
X124800000Y-39420000D03*
%TO.P,J16,5,Pin_5*%
%TO.N,unconnected-(J16-Pin_5-Pad5)*%
X124800000Y-41420000D03*
%TO.P,J16,6,Pin_6*%
%TO.N,unconnected-(J16-Pin_6-Pad6)*%
X124800000Y-43420000D03*
%TO.P,J16,7,Pin_7*%
%TO.N,unconnected-(J16-Pin_7-Pad7)*%
X124800000Y-45420000D03*
%TO.P,J16,8,Pin_8*%
%TO.N,unconnected-(J16-Pin_8-Pad8)*%
X124800000Y-47420000D03*
%TO.P,J16,9,Pin_9*%
%TO.N,unconnected-(J16-Pin_9-Pad9)*%
X124800000Y-49420000D03*
%TO.P,J16,10,Pin_10*%
%TO.N,unconnected-(J16-Pin_10-Pad10)*%
X124800000Y-51420000D03*
%TD*%
D10*
%TO.P,J15,1,Pin_1*%
%TO.N,Net-(J14-Pin_1)*%
X102830000Y-33430000D03*
D11*
%TO.P,J15,2,Pin_2*%
%TO.N,unconnected-(J15-Pin_2-Pad2)*%
X102830000Y-35430000D03*
%TO.P,J15,3,Pin_3*%
%TO.N,unconnected-(J15-Pin_3-Pad3)*%
X102830000Y-37430000D03*
%TO.P,J15,4,Pin_4*%
%TO.N,unconnected-(J15-Pin_4-Pad4)*%
X102830000Y-39430000D03*
%TO.P,J15,5,Pin_5*%
%TO.N,unconnected-(J15-Pin_5-Pad5)*%
X102830000Y-41430000D03*
%TO.P,J15,6,Pin_6*%
%TO.N,unconnected-(J15-Pin_6-Pad6)*%
X102830000Y-43430000D03*
%TO.P,J15,7,Pin_7*%
%TO.N,unconnected-(J15-Pin_7-Pad7)*%
X102830000Y-45430000D03*
%TO.P,J15,8,Pin_8*%
%TO.N,unconnected-(J15-Pin_8-Pad8)*%
X102830000Y-47430000D03*
%TO.P,J15,9,Pin_9*%
%TO.N,unconnected-(J15-Pin_9-Pad9)*%
X102830000Y-49430000D03*
%TO.P,J15,10,Pin_10*%
%TO.N,Net-(J14-Pin_2)*%
X102830000Y-51430000D03*
%TD*%
D12*
%TO.P,J14,1,Pin_1*%
%TO.N,Net-(J14-Pin_1)*%
X110100000Y-45390000D03*
D13*
%TO.P,J14,2,Pin_2*%
%TO.N,Net-(J14-Pin_2)*%
X112600000Y-45390000D03*
%TO.P,J14,3,Pin_3*%
%TO.N,Net-(J14-Pin_3)*%
X115100000Y-45390000D03*
%TO.P,J14,4,Pin_4*%
%TO.N,Net-(J14-Pin_4)*%
X117600000Y-45390000D03*
%TD*%
D10*
%TO.P,J6,1,Pin_1*%
%TO.N,Net-(J4-D-)*%
X90760000Y-59200000D03*
D11*
%TO.P,J6,2,Pin_2*%
%TO.N,Net-(J4-D+)*%
X90760000Y-61200000D03*
%TO.P,J6,3,Pin_3*%
%TO.N,unconnected-(J6-Pin_3-Pad3)*%
X90760000Y-63200000D03*
%TO.P,J6,4,Pin_4*%
%TO.N,unconnected-(J6-Pin_4-Pad4)*%
X90760000Y-65200000D03*
%TO.P,J6,5,Pin_5*%
%TO.N,unconnected-(J6-Pin_5-Pad5)*%
X90760000Y-67200000D03*
%TO.P,J6,6,Pin_6*%
%TO.N,unconnected-(J6-Pin_6-Pad6)*%
X90760000Y-69200000D03*
%TO.P,J6,7,Pin_7*%
%TO.N,unconnected-(J6-Pin_7-Pad7)*%
X90760000Y-71200000D03*
%TO.P,J6,8,Pin_8*%
%TO.N,unconnected-(J6-Pin_8-Pad8)*%
X90760000Y-73200000D03*
%TO.P,J6,9,Pin_9*%
%TO.N,unconnected-(J6-Pin_9-Pad9)*%
X90760000Y-75200000D03*
%TO.P,J6,10,Pin_10*%
%TO.N,unconnected-(J6-Pin_10-Pad10)*%
X90760000Y-77200000D03*
%TD*%
D10*
%TO.P,J10,1,Pin_1*%
%TO.N,Net-(J10-Pin_1)*%
X158826493Y-59198801D03*
D11*
%TO.P,J10,2,Pin_2*%
%TO.N,Net-(J10-Pin_2)*%
X158826493Y-61198801D03*
%TO.P,J10,3,Pin_3*%
%TO.N,unconnected-(J10-Pin_3-Pad3)*%
X158826493Y-63198801D03*
%TO.P,J10,4,Pin_4*%
%TO.N,unconnected-(J10-Pin_4-Pad4)*%
X158826493Y-65198801D03*
%TO.P,J10,5,Pin_5*%
%TO.N,unconnected-(J10-Pin_5-Pad5)*%
X158826493Y-67198801D03*
%TO.P,J10,6,Pin_6*%
%TO.N,unconnected-(J10-Pin_6-Pad6)*%
X158826493Y-69198801D03*
%TO.P,J10,7,Pin_7*%
%TO.N,unconnected-(J10-Pin_7-Pad7)*%
X158826493Y-71198801D03*
%TO.P,J10,8,Pin_8*%
%TO.N,unconnected-(J10-Pin_8-Pad8)*%
X158826493Y-73198801D03*
%TO.P,J10,9,Pin_9*%
%TO.N,unconnected-(J10-Pin_9-Pad9)*%
X158826493Y-75198801D03*
%TO.P,J10,10,Pin_10*%
%TO.N,unconnected-(J10-Pin_10-Pad10)*%
X158826493Y-77198801D03*
%TD*%
D10*
%TO.P,J5,1,Pin_1*%
%TO.N,Net-(J4-VBUS)*%
X68780000Y-59190000D03*
D11*
%TO.P,J5,2,Pin_2*%
%TO.N,unconnected-(J5-Pin_2-Pad2)*%
X68780000Y-61190000D03*
%TO.P,J5,3,Pin_3*%
%TO.N,unconnected-(J5-Pin_3-Pad3)*%
X68780000Y-63190000D03*
%TO.P,J5,4,Pin_4*%
%TO.N,unconnected-(J5-Pin_4-Pad4)*%
X68780000Y-65190000D03*
%TO.P,J5,5,Pin_5*%
%TO.N,unconnected-(J5-Pin_5-Pad5)*%
X68780000Y-67190000D03*
%TO.P,J5,6,Pin_6*%
%TO.N,unconnected-(J5-Pin_6-Pad6)*%
X68780000Y-69190000D03*
%TO.P,J5,7,Pin_7*%
%TO.N,unconnected-(J5-Pin_7-Pad7)*%
X68780000Y-71190000D03*
%TO.P,J5,8,Pin_8*%
%TO.N,unconnected-(J5-Pin_8-Pad8)*%
X68780000Y-73190000D03*
%TO.P,J5,9,Pin_9*%
%TO.N,unconnected-(J5-Pin_9-Pad9)*%
X68780000Y-75190000D03*
%TO.P,J5,10,Pin_10*%
%TO.N,Net-(J4-GND)*%
X68780000Y-77190000D03*
%TD*%
D10*
%TO.P,J2,1,Pin_1*%
%TO.N,/VCC*%
X102829285Y-59195000D03*
D11*
%TO.P,J2,2,Pin_2*%
%TO.N,unconnected-(J2-Pin_2-Pad2)*%
X102829285Y-61195000D03*
%TO.P,J2,3,Pin_3*%
%TO.N,unconnected-(J2-Pin_3-Pad3)*%
X102829285Y-63195000D03*
%TO.P,J2,4,Pin_4*%
%TO.N,unconnected-(J2-Pin_4-Pad4)*%
X102829285Y-65195000D03*
%TO.P,J2,5,Pin_5*%
%TO.N,unconnected-(J2-Pin_5-Pad5)*%
X102829285Y-67195000D03*
%TO.P,J2,6,Pin_6*%
%TO.N,/CS*%
X102829285Y-69195000D03*
%TO.P,J2,7,Pin_7*%
%TO.N,/INT*%
X102829285Y-71195000D03*
%TO.P,J2,8,Pin_8*%
%TO.N,unconnected-(J2-Pin_8-Pad8)*%
X102829285Y-73195000D03*
%TO.P,J2,9,Pin_9*%
%TO.N,unconnected-(J2-Pin_9-Pad9)*%
X102829285Y-75195000D03*
%TO.P,J2,10,Pin_10*%
%TO.N,/GND*%
X102829285Y-77195000D03*
%TD*%
D10*
%TO.P,J9,1,Pin_1*%
%TO.N,Net-(J7-VBUS)*%
X136846493Y-59188801D03*
D11*
%TO.P,J9,2,Pin_2*%
%TO.N,Net-(J7-D+)*%
X136846493Y-61188801D03*
%TO.P,J9,3,Pin_3*%
%TO.N,Net-(J7-D-)*%
X136846493Y-63188801D03*
%TO.P,J9,4,Pin_4*%
%TO.N,unconnected-(J9-Pin_4-Pad4)*%
X136846493Y-65188801D03*
%TO.P,J9,5,Pin_5*%
%TO.N,unconnected-(J9-Pin_5-Pad5)*%
X136846493Y-67188801D03*
%TO.P,J9,6,Pin_6*%
%TO.N,unconnected-(J9-Pin_6-Pad6)*%
X136846493Y-69188801D03*
%TO.P,J9,7,Pin_7*%
%TO.N,unconnected-(J9-Pin_7-Pad7)*%
X136846493Y-71188801D03*
%TO.P,J9,8,Pin_8*%
%TO.N,unconnected-(J9-Pin_8-Pad8)*%
X136846493Y-73188801D03*
%TO.P,J9,9,Pin_9*%
%TO.N,unconnected-(J9-Pin_9-Pad9)*%
X136846493Y-75188801D03*
%TO.P,J9,10,Pin_10*%
%TO.N,Net-(J7-GND)*%
X136846493Y-77188801D03*
%TD*%
D10*
%TO.P,J3,1,Pin_1*%
%TO.N,unconnected-(J3-Pin_1-Pad1)*%
X124830249Y-59200000D03*
D11*
%TO.P,J3,2,Pin_2*%
%TO.N,unconnected-(J3-Pin_2-Pad2)*%
X124830249Y-61200000D03*
%TO.P,J3,3,Pin_3*%
%TO.N,/SCK*%
X124830249Y-63200000D03*
%TO.P,J3,4,Pin_4*%
%TO.N,/MISO*%
X124830249Y-65200000D03*
%TO.P,J3,5,Pin_5*%
%TO.N,/MOSI*%
X124830249Y-67200000D03*
%TO.P,J3,6,Pin_6*%
%TO.N,unconnected-(J3-Pin_6-Pad6)*%
X124830249Y-69200000D03*
%TO.P,J3,7,Pin_7*%
%TO.N,unconnected-(J3-Pin_7-Pad7)*%
X124830249Y-71200000D03*
%TO.P,J3,8,Pin_8*%
%TO.N,unconnected-(J3-Pin_8-Pad8)*%
X124830249Y-73200000D03*
%TO.P,J3,9,Pin_9*%
%TO.N,unconnected-(J3-Pin_9-Pad9)*%
X124830249Y-75200000D03*
%TO.P,J3,10,Pin_10*%
%TO.N,unconnected-(J3-Pin_10-Pad10)*%
X124830249Y-77200000D03*
%TD*%
D14*
%TO.P,J8,1,VBUS*%
%TO.N,Net-(J7-VBUS)*%
X144406493Y-69868801D03*
D15*
%TO.P,J8,2,D-*%
%TO.N,Net-(J10-Pin_1)*%
X146906493Y-69868801D03*
%TO.P,J8,3,D+*%
%TO.N,Net-(J10-Pin_2)*%
X148906493Y-69868801D03*
%TO.P,J8,4,GND*%
%TO.N,Net-(J7-GND)*%
X151406493Y-69868801D03*
D16*
%TO.P,J8,5,Shield*%
X141336493Y-72578801D03*
X154476493Y-72578801D03*
%TD*%
D14*
%TO.P,J4,1,VBUS*%
%TO.N,Net-(J4-VBUS)*%
X76310200Y-68610800D03*
D15*
%TO.P,J4,2,D-*%
%TO.N,Net-(J4-D-)*%
X78810200Y-68610800D03*
%TO.P,J4,3,D+*%
%TO.N,Net-(J4-D+)*%
X80810200Y-68610800D03*
%TO.P,J4,4,GND*%
%TO.N,Net-(J4-GND)*%
X83310200Y-68610800D03*
D16*
%TO.P,J4,5,Shield*%
X73240200Y-71320800D03*
X86380200Y-71320800D03*
%TD*%
D14*
%TO.P,J7,1,VBUS*%
%TO.N,Net-(J7-VBUS)*%
X151406493Y-66488001D03*
D15*
%TO.P,J7,2,D-*%
%TO.N,Net-(J7-D-)*%
X148906493Y-66488001D03*
%TO.P,J7,3,D+*%
%TO.N,Net-(J7-D+)*%
X146906493Y-66488001D03*
%TO.P,J7,4,GND*%
%TO.N,Net-(J7-GND)*%
X144406493Y-66488001D03*
D16*
%TO.P,J7,5,Shield*%
X154476493Y-63778001D03*
X141336493Y-63778001D03*
%TD*%
D12*
%TO.P,J11,1,Pin_1*%
%TO.N,Net-(J11-Pin_1)*%
X77270000Y-45470000D03*
D13*
%TO.P,J11,2,Pin_2*%
%TO.N,Net-(J11-Pin_2)*%
X79770000Y-45470000D03*
%TO.P,J11,3,Pin_3*%
%TO.N,Net-(J11-Pin_3)*%
X82270000Y-45470000D03*
%TD*%
D17*
%TO.P,J1,1*%
%TO.N,/TPOUT+*%
X117332249Y-74980000D03*
D18*
%TO.P,J1,2*%
%TO.N,/TPOUT-*%
X116316249Y-73200000D03*
%TO.P,J1,3*%
%TO.N,/TPIN+*%
X115300249Y-74980000D03*
%TO.P,J1,4*%
%TO.N,Net-(C9-Pad1)*%
X114284249Y-73200000D03*
%TO.P,J1,5*%
%TO.N,unconnected-(J1-Pad5)*%
X113268249Y-74980000D03*
%TO.P,J1,6*%
%TO.N,/TPIN-*%
X112252249Y-73200000D03*
%TO.P,J1,7*%
%TO.N,unconnected-(J1-Pad7)*%
X111236249Y-74980000D03*
%TO.P,J1,8*%
%TO.N,unconnected-(J1-Pad8)*%
X110220249Y-73200000D03*
%TO.P,J1,9*%
%TO.N,Net-(J1-Pad9)*%
X120632249Y-68380000D03*
%TO.P,J1,10*%
%TO.N,/LEDB*%
X118342249Y-68380000D03*
%TO.P,J1,11*%
%TO.N,Net-(J1-Pad11)*%
X109202249Y-68380000D03*
%TO.P,J1,12*%
%TO.N,/LEDA*%
X106912249Y-68380000D03*
D19*
%TO.P,J1,SH*%
%TO.N,N/C*%
X121902249Y-74090000D03*
X105642249Y-74090000D03*
%TD*%
D10*
%TO.P,J13,1,Pin_1*%
%TO.N,Net-(J11-Pin_3)*%
X90780000Y-33430000D03*
D11*
%TO.P,J13,2,Pin_2*%
%TO.N,unconnected-(J13-Pin_2-Pad2)*%
X90780000Y-35430000D03*
%TO.P,J13,3,Pin_3*%
%TO.N,unconnected-(J13-Pin_3-Pad3)*%
X90780000Y-37430000D03*
%TO.P,J13,4,Pin_4*%
%TO.N,unconnected-(J13-Pin_4-Pad4)*%
X90780000Y-39430000D03*
%TO.P,J13,5,Pin_5*%
%TO.N,unconnected-(J13-Pin_5-Pad5)*%
X90780000Y-41430000D03*
%TO.P,J13,6,Pin_6*%
%TO.N,unconnected-(J13-Pin_6-Pad6)*%
X90780000Y-43430000D03*
%TO.P,J13,7,Pin_7*%
%TO.N,unconnected-(J13-Pin_7-Pad7)*%
X90780000Y-45430000D03*
%TO.P,J13,8,Pin_8*%
%TO.N,unconnected-(J13-Pin_8-Pad8)*%
X90780000Y-47430000D03*
%TO.P,J13,9,Pin_9*%
%TO.N,unconnected-(J13-Pin_9-Pad9)*%
X90780000Y-49430000D03*
%TO.P,J13,10,Pin_10*%
%TO.N,unconnected-(J13-Pin_10-Pad10)*%
X90780000Y-51430000D03*
%TD*%
D10*
%TO.P,J12,1,Pin_1*%
%TO.N,Net-(J11-Pin_1)*%
X68790000Y-33430000D03*
D11*
%TO.P,J12,2,Pin_2*%
%TO.N,unconnected-(J12-Pin_2-Pad2)*%
X68790000Y-35430000D03*
%TO.P,J12,3,Pin_3*%
%TO.N,unconnected-(J12-Pin_3-Pad3)*%
X68790000Y-37430000D03*
%TO.P,J12,4,Pin_4*%
%TO.N,unconnected-(J12-Pin_4-Pad4)*%
X68790000Y-39430000D03*
%TO.P,J12,5,Pin_5*%
%TO.N,unconnected-(J12-Pin_5-Pad5)*%
X68790000Y-41430000D03*
%TO.P,J12,6,Pin_6*%
%TO.N,unconnected-(J12-Pin_6-Pad6)*%
X68790000Y-43430000D03*
%TO.P,J12,7,Pin_7*%
%TO.N,unconnected-(J12-Pin_7-Pad7)*%
X68790000Y-45430000D03*
%TO.P,J12,8,Pin_8*%
%TO.N,unconnected-(J12-Pin_8-Pad8)*%
X68790000Y-47430000D03*
%TO.P,J12,9,Pin_9*%
%TO.N,unconnected-(J12-Pin_9-Pad9)*%
X68790000Y-49430000D03*
%TO.P,J12,10,Pin_10*%
%TO.N,Net-(J11-Pin_2)*%
X68790000Y-51430000D03*
%TD*%
D20*
%TO.P,C5,1*%
%TO.N,/VCC*%
X110977285Y-76955000D03*
%TO.P,C5,2*%
%TO.N,/GND*%
X110977285Y-78505000D03*
%TD*%
D21*
%TO.P,R5,1*%
%TO.N,/TPOUT-*%
X121122285Y-71850000D03*
%TO.P,R5,2*%
%TO.N,Net-(C9-Pad1)*%
X119472285Y-71850000D03*
%TD*%
%TO.P,R1,1*%
%TO.N,/VCC*%
X121129285Y-62970000D03*
%TO.P,R1,2*%
%TO.N,/CS*%
X119479285Y-62970000D03*
%TD*%
D22*
%TO.P,L1,1,1*%
%TO.N,/VCC*%
X108894785Y-72230000D03*
%TO.P,L1,2,2*%
%TO.N,Net-(C9-Pad1)*%
X108079785Y-72230000D03*
%TD*%
D21*
%TO.P,R2,1*%
%TO.N,/VCC*%
X121129285Y-64495000D03*
%TO.P,R2,2*%
%TO.N,Net-(U1-~{RESET})*%
X119479285Y-64495000D03*
%TD*%
D23*
%TO.P,Y1,1,1*%
%TO.N,Net-(U1-OSC1)*%
X107367285Y-60130000D03*
%TO.P,Y1,2,2*%
%TO.N,Net-(U1-OSC2)*%
X107367285Y-58630000D03*
%TD*%
D24*
%TO.P,R3,1*%
%TO.N,Net-(U1-RBIAS)*%
X119479285Y-66145000D03*
%TO.P,R3,2*%
%TO.N,/GND*%
X121129285Y-66145000D03*
%TD*%
%TO.P,R4,1*%
%TO.N,Net-(C9-Pad1)*%
X119482285Y-70200000D03*
%TO.P,R4,2*%
%TO.N,/TPOUT+*%
X121132285Y-70200000D03*
%TD*%
D20*
%TO.P,C8,1*%
%TO.N,/VCC*%
X116677285Y-76955000D03*
%TO.P,C8,2*%
%TO.N,/GND*%
X116677285Y-78505000D03*
%TD*%
%TO.P,C6,1*%
%TO.N,/VCC*%
X112877285Y-76955000D03*
%TO.P,C6,2*%
%TO.N,/GND*%
X112877285Y-78505000D03*
%TD*%
D25*
%TO.P,C4,1*%
%TO.N,/VCC*%
X106616785Y-64880000D03*
%TO.P,C4,2*%
%TO.N,/GND*%
X108166785Y-64880000D03*
%TD*%
D26*
%TO.P,C9,1*%
%TO.N,Net-(C9-Pad1)*%
X108177285Y-70200000D03*
%TO.P,C9,2*%
%TO.N,/GND*%
X106627285Y-70200000D03*
%TD*%
D27*
%TO.P,C3,1*%
%TO.N,/GND*%
X105140249Y-60170000D03*
%TO.P,C3,2*%
%TO.N,Net-(U1-OSC2)*%
X105140249Y-58620000D03*
%TD*%
D20*
%TO.P,C7,1*%
%TO.N,/VCC*%
X114777285Y-76955000D03*
%TO.P,C7,2*%
%TO.N,/GND*%
X114777285Y-78505000D03*
%TD*%
D28*
%TO.P,U1,1,VCAP*%
%TO.N,Net-(U1-VCAP)*%
X117430249Y-57870000D03*
%TO.P,U1,2,VSS*%
%TO.N,/GND*%
X117430249Y-58520000D03*
%TO.P,U1,3,CLKOUT*%
%TO.N,unconnected-(U1-CLKOUT-Pad3)*%
X117430249Y-59170000D03*
%TO.P,U1,4,~{INT}*%
%TO.N,/INT*%
X117430249Y-59820000D03*
%TO.P,U1,5,~{WOL}*%
%TO.N,unconnected-(U1-~{WOL}-Pad5)*%
X117430249Y-60470000D03*
%TO.P,U1,6,SO*%
%TO.N,/MISO*%
X117430249Y-61120000D03*
%TO.P,U1,7,SI*%
%TO.N,/MOSI*%
X117430249Y-61770000D03*
%TO.P,U1,8,SCK*%
%TO.N,/SCK*%
X117430249Y-62420000D03*
%TO.P,U1,9,~{CS}*%
%TO.N,/CS*%
X117430249Y-63070000D03*
%TO.P,U1,10,~{RESET}*%
%TO.N,Net-(U1-~{RESET})*%
X117430249Y-63720000D03*
%TO.P,U1,11,VSSRX*%
%TO.N,/GND*%
X117430249Y-64370000D03*
%TO.P,U1,12,TPIN-*%
%TO.N,/TPIN-*%
X117430249Y-65020000D03*
%TO.P,U1,13,TPIN+*%
%TO.N,/TPIN+*%
X117430249Y-65670000D03*
%TO.P,U1,14,RBIAS*%
%TO.N,Net-(U1-RBIAS)*%
X117430249Y-66320000D03*
%TO.P,U1,15,VDDTX*%
%TO.N,/VCC*%
X110230249Y-66320000D03*
%TO.P,U1,16,TPOUT-*%
%TO.N,/TPOUT-*%
X110230249Y-65670000D03*
%TO.P,U1,17,TPOUT+*%
%TO.N,/TPOUT+*%
X110230249Y-65020000D03*
%TO.P,U1,18,VSSTX*%
%TO.N,/GND*%
X110230249Y-64370000D03*
%TO.P,U1,19,VDDRX*%
%TO.N,/VCC*%
X110230249Y-63720000D03*
%TO.P,U1,20,VDDPLL*%
X110230249Y-63070000D03*
%TO.P,U1,21,VSSPLL*%
%TO.N,/GND*%
X110230249Y-62420000D03*
%TO.P,U1,22,VSSOSC*%
X110230249Y-61770000D03*
%TO.P,U1,23,OSC1*%
%TO.N,Net-(U1-OSC1)*%
X110230249Y-61120000D03*
%TO.P,U1,24,OSC2*%
%TO.N,Net-(U1-OSC2)*%
X110230249Y-60470000D03*
%TO.P,U1,25,VDDOSC*%
%TO.N,/VCC*%
X110230249Y-59820000D03*
%TO.P,U1,26,LEDB*%
%TO.N,/LEDB*%
X110230249Y-59170000D03*
%TO.P,U1,27,LEDA*%
%TO.N,/LEDA*%
X110230249Y-58520000D03*
%TO.P,U1,28,VDD*%
%TO.N,/VCC*%
X110230249Y-57870000D03*
%TD*%
D20*
%TO.P,C2,1*%
%TO.N,/GND*%
X105137285Y-61817500D03*
%TO.P,C2,2*%
%TO.N,Net-(U1-OSC1)*%
X105137285Y-63367500D03*
%TD*%
D29*
%TO.N,*%
X113577285Y-58300000D03*
X111703787Y-63762642D03*
X115554785Y-68306911D03*
X118182003Y-71070000D03*
X122939285Y-67283891D03*
X111767285Y-61430000D03*
X105887285Y-66070000D03*
X116142569Y-71070000D03*
X106917285Y-61690000D03*
X113047285Y-60170000D03*
X114617285Y-66010000D03*
X114391788Y-64560500D03*
X112057285Y-57980000D03*
X113837285Y-62810000D03*
X115067285Y-58300000D03*
X113295206Y-66010000D03*
X108297285Y-73170000D03*
X104561785Y-66070000D03*
X117157285Y-71070000D03*
%TD*%
D30*
%TO.N,/VCC*%
X108894785Y-72230000D02*
X109022285Y-72357500D01*
X109029285Y-59720000D02*
X109029285Y-57945000D01*
X110977285Y-77017500D02*
X112877285Y-77017500D01*
X114777285Y-77017500D02*
X116677285Y-77017500D01*
X122939285Y-66305000D02*
X122939285Y-67283891D01*
X110229285Y-59820000D02*
X109129285Y-59820000D01*
X111354285Y-63070000D02*
X110229285Y-63070000D01*
X103837285Y-60203000D02*
X102829285Y-59195000D01*
X109129285Y-59820000D02*
X109029285Y-59720000D01*
X103837285Y-69099000D02*
X103837285Y-60203000D01*
X106679285Y-64880000D02*
X106679285Y-65278000D01*
X112492285Y-61932000D02*
X111354285Y-63070000D01*
X109022285Y-74505000D02*
X108757285Y-74770000D01*
X111354285Y-59820000D02*
X112492285Y-60958000D01*
X110179285Y-57820000D02*
X104204285Y-57820000D01*
X106592285Y-71854000D02*
X106592285Y-72632500D01*
X109022285Y-72357500D02*
X109022285Y-74505000D01*
X112492285Y-60958000D02*
X112492285Y-61932000D01*
X106592285Y-72632500D02*
X110977285Y-77017500D01*
X109104285Y-57870000D02*
X110229285Y-57870000D01*
X110229285Y-57870000D02*
X110179285Y-57820000D01*
X104204285Y-57820000D02*
X102829285Y-59195000D01*
X110229285Y-63070000D02*
X110229285Y-63720000D01*
X110229285Y-66320000D02*
X108119285Y-66320000D01*
X108119285Y-66320000D02*
X106679285Y-64880000D01*
X121129285Y-62970000D02*
X121129285Y-64495000D01*
X121129285Y-64495000D02*
X122939285Y-66305000D01*
X106592285Y-71854000D02*
X103837285Y-69099000D01*
X110229285Y-59820000D02*
X111354285Y-59820000D01*
X109029285Y-57945000D02*
X109104285Y-57870000D01*
X112877285Y-77017500D02*
X114777285Y-77017500D01*
X106679285Y-65278000D02*
X105887285Y-66070000D01*
%TO.N,/GND*%
X123372285Y-77093427D02*
X120945712Y-79520000D01*
X105154285Y-79520000D02*
X102829285Y-77195000D01*
X121129285Y-66145000D02*
X120279285Y-65295000D01*
X121702285Y-67934720D02*
X121702285Y-67945000D01*
X109029285Y-64295000D02*
X109029285Y-62495000D01*
X120945712Y-79520000D02*
X117754785Y-79520000D01*
X114391788Y-63364503D02*
X114391788Y-64560500D01*
X109104285Y-62420000D02*
X110229285Y-62420000D01*
X105337285Y-60110000D02*
X105137285Y-60110000D01*
X123372285Y-69615000D02*
X123372285Y-77093427D01*
X107274785Y-72555000D02*
X107889785Y-73170000D01*
X105137285Y-60110000D02*
X105137285Y-61880000D01*
X110229285Y-61770000D02*
X111427285Y-61770000D01*
X113047285Y-60170000D02*
X114682590Y-60170000D01*
X120279285Y-65295000D02*
X119052285Y-65295000D01*
X119052285Y-65295000D02*
X118629285Y-64872000D01*
X110229285Y-64370000D02*
X109104285Y-64370000D01*
X121129285Y-67361720D02*
X121702285Y-67934720D01*
X106917285Y-61690000D02*
X105337285Y-60110000D01*
X110229285Y-64370000D02*
X108614285Y-64370000D01*
X114682590Y-60170000D02*
X116332590Y-58520000D01*
X118554285Y-64370000D02*
X117429285Y-64370000D01*
X118629285Y-64872000D02*
X118629285Y-64445000D01*
X109029285Y-62495000D02*
X109104285Y-62420000D01*
X116677285Y-78442500D02*
X114777285Y-78442500D01*
X113837285Y-62810000D02*
X114391788Y-63364503D01*
X107889785Y-73170000D02*
X108297285Y-73170000D01*
X106997285Y-61770000D02*
X110229285Y-61770000D01*
X111427285Y-61770000D02*
X111767285Y-61430000D01*
X110977285Y-78442500D02*
X109899785Y-79520000D01*
X117429285Y-64370000D02*
X116257285Y-64370000D01*
X109899785Y-79520000D02*
X105154285Y-79520000D01*
X106689785Y-70200000D02*
X107274785Y-70785000D01*
X106917285Y-61690000D02*
X106997285Y-61770000D01*
X110229285Y-61770000D02*
X110229285Y-62420000D01*
X109104285Y-64370000D02*
X109029285Y-64295000D01*
X117754785Y-79520000D02*
X116677285Y-78442500D01*
X118629285Y-64445000D02*
X118554285Y-64370000D01*
X112877285Y-78442500D02*
X110977285Y-78442500D01*
X108614285Y-64370000D02*
X108104285Y-64880000D01*
X116332590Y-58520000D02*
X117429285Y-58520000D01*
X116257285Y-64370000D02*
X114617285Y-66010000D01*
X114777285Y-78442500D02*
X112877285Y-78442500D01*
X106689785Y-70200000D02*
X106689785Y-70512521D01*
X121129285Y-66145000D02*
X121129285Y-67361720D01*
X121702285Y-67945000D02*
X123372285Y-69615000D01*
X107274785Y-70785000D02*
X107274785Y-72555000D01*
%TO.N,Net-(U1-OSC1)*%
X108357285Y-61120000D02*
X110229285Y-61120000D01*
X104337285Y-59719683D02*
X104337285Y-62567500D01*
X107367285Y-60130000D02*
X106634785Y-59397500D01*
X106634785Y-59397500D02*
X104659468Y-59397500D01*
X104659468Y-59397500D02*
X104337285Y-59719683D01*
X104337285Y-62567500D02*
X105137285Y-63367500D01*
X107367285Y-60130000D02*
X108357285Y-61120000D01*
%TO.N,Net-(U1-OSC2)*%
X105144785Y-58630000D02*
X105137285Y-58622500D01*
X107717285Y-58630000D02*
X108497285Y-59410000D01*
X107367285Y-58630000D02*
X107717285Y-58630000D01*
X108497285Y-59410000D02*
X108497285Y-59863000D01*
X107367285Y-58630000D02*
X105144785Y-58630000D01*
X109104285Y-60470000D02*
X110229285Y-60470000D01*
X108497285Y-59863000D02*
X109104285Y-60470000D01*
%TO.N,Net-(C9-Pad1)*%
X115629285Y-71850000D02*
X114279285Y-73200000D01*
X119472285Y-71850000D02*
X115629285Y-71850000D01*
X108114785Y-70200000D02*
X111279285Y-70200000D01*
X111279285Y-70200000D02*
X114279285Y-73200000D01*
X107917285Y-70460000D02*
X108177285Y-70200000D01*
X108079785Y-72230000D02*
X108079785Y-70297500D01*
X107917285Y-70397500D02*
X108114785Y-70200000D01*
X119482285Y-70200000D02*
X119482285Y-71840000D01*
X119482285Y-71840000D02*
X119472285Y-71850000D01*
X108079785Y-70297500D02*
X108177285Y-70200000D01*
%TO.N,Net-(U1-VCAP)*%
X115067285Y-58300000D02*
X115497285Y-57870000D01*
X115497285Y-57870000D02*
X117429285Y-57870000D01*
D31*
%TO.N,/TPOUT+*%
X118557971Y-74980000D02*
X117327285Y-74980000D01*
X111804285Y-65629314D02*
X111804285Y-65917000D01*
X121822285Y-72335000D02*
X121517285Y-72640000D01*
X116457285Y-70370000D02*
X117157285Y-71070000D01*
X111194971Y-65020000D02*
X111804285Y-65629314D01*
X120897971Y-72640000D02*
X118557971Y-74980000D01*
X111804285Y-65917000D02*
X116257285Y-70370000D01*
X121822285Y-70890000D02*
X121822285Y-72335000D01*
X110229285Y-65020000D02*
X111194971Y-65020000D01*
X121517285Y-72640000D02*
X120897971Y-72640000D01*
X116257285Y-70370000D02*
X116457285Y-70370000D01*
X121132285Y-70200000D02*
X121822285Y-70890000D01*
%TO.N,/TPOUT-*%
X116127285Y-71070000D02*
X116142569Y-71070000D01*
X119772285Y-73200000D02*
X116311285Y-73200000D01*
X111404285Y-66347000D02*
X116127285Y-71070000D01*
X121122285Y-71850000D02*
X119772285Y-73200000D01*
X111404285Y-65795000D02*
X111404285Y-66347000D01*
X111279285Y-65670000D02*
X111404285Y-65795000D01*
X110229285Y-65670000D02*
X111279285Y-65670000D01*
%TO.N,/TPIN+*%
X116254285Y-69142282D02*
X118182003Y-71070000D01*
X116379285Y-65670000D02*
X116254285Y-65795000D01*
X116254285Y-65795000D02*
X116254285Y-69142282D01*
X117429285Y-65670000D02*
X116379285Y-65670000D01*
%TO.N,/TPIN-*%
X117429285Y-65020000D02*
X116354285Y-65020000D01*
X115554785Y-65819500D02*
X115554785Y-68306911D01*
X116354285Y-65020000D02*
X115554785Y-65819500D01*
D30*
%TO.N,/LEDB*%
X113082590Y-58280000D02*
X112392590Y-58970000D01*
X111429285Y-58970000D02*
X111229285Y-59170000D01*
X111229285Y-59170000D02*
X110229285Y-59170000D01*
X113577285Y-58280000D02*
X113082590Y-58280000D01*
X112392590Y-58970000D02*
X111429285Y-58970000D01*
%TO.N,/LEDA*%
X104561785Y-66070000D02*
X104597285Y-66070000D01*
X110229285Y-58520000D02*
X111817285Y-58520000D01*
X111817285Y-58520000D02*
X112057285Y-58280000D01*
X104597285Y-66070000D02*
X106907285Y-68380000D01*
%TO.N,/CS*%
X113327608Y-66046677D02*
X114089285Y-65285000D01*
X114705889Y-65285000D02*
X116229285Y-63761604D01*
X116329285Y-63070000D02*
X117429285Y-63070000D01*
X117429285Y-63070000D02*
X119379285Y-63070000D01*
X116229285Y-63170000D02*
X116329285Y-63070000D01*
X113295206Y-66046677D02*
X113327608Y-66046677D01*
X114089285Y-65285000D02*
X114705889Y-65285000D01*
X116229285Y-63761604D02*
X116229285Y-63170000D01*
X119379285Y-63070000D02*
X119479285Y-62970000D01*
%TO.N,/INT*%
X111703787Y-63762642D02*
X111764643Y-63762642D01*
X115707285Y-59820000D02*
X117429285Y-59820000D01*
X111764643Y-63762642D02*
X115707285Y-59820000D01*
%TO.N,/SCK*%
X117429285Y-62420000D02*
X118811823Y-62420000D01*
X118811823Y-62420000D02*
X119061823Y-62170000D01*
X123804285Y-62170000D02*
X124829285Y-63195000D01*
X119061823Y-62170000D02*
X123804285Y-62170000D01*
%TO.N,/MISO*%
X126279285Y-67159214D02*
X125243499Y-68195000D01*
X123829285Y-66195000D02*
X124829285Y-65195000D01*
X120904285Y-61120000D02*
X123829285Y-58195000D01*
X123829285Y-58195000D02*
X125829285Y-58195000D01*
X125829285Y-58195000D02*
X126279285Y-58645000D01*
X117429285Y-61120000D02*
X120904285Y-61120000D01*
X123829285Y-67609214D02*
X123829285Y-66195000D01*
X126279285Y-58645000D02*
X126279285Y-67159214D01*
X124415071Y-68195000D02*
X123829285Y-67609214D01*
X125243499Y-68195000D02*
X124415071Y-68195000D01*
%TO.N,/MOSI*%
X122890071Y-61720000D02*
X124415071Y-60195000D01*
X125829285Y-60780786D02*
X125829285Y-66195000D01*
X125829285Y-66195000D02*
X124829285Y-67195000D01*
X125243499Y-60195000D02*
X125829285Y-60780786D01*
X118825427Y-61770000D02*
X118875427Y-61720000D01*
X124415071Y-60195000D02*
X125243499Y-60195000D01*
X117429285Y-61770000D02*
X118825427Y-61770000D01*
X118875427Y-61720000D02*
X122890071Y-61720000D01*
%TO.N,Net-(U1-~{RESET})*%
X118704285Y-63720000D02*
X119479285Y-64495000D01*
X117429285Y-63720000D02*
X118704285Y-63720000D01*
%TO.N,Net-(U1-RBIAS)*%
X119304285Y-66320000D02*
X119479285Y-66145000D01*
X117429285Y-66320000D02*
X119304285Y-66320000D01*
%TD*%
M02*
