%TF.GenerationSoftware,KiCad,Pcbnew,7.0.7*%
%TF.CreationDate,2023-10-06T18:16:36-06:00*%
%TF.ProjectId,Modular_Interfaces,4d6f6475-6c61-4725-9f49-6e7465726661,rev?*%
%TF.SameCoordinates,Original*%
%TF.FileFunction,Copper,L1,Top*%
%TF.FilePolarity,Positive*%
%FSLAX46Y46*%
G04 Gerber Fmt 4.6, Leading zero omitted, Abs format (unit mm)*
G04 Created by KiCad (PCBNEW 7.0.7) date 2023-10-06 18:16:36*
%MOMM*%
%LPD*%
G01*
G04 APERTURE LIST*
G04 Aperture macros list*
%AMRoundRect*
0 Rectangle with rounded corners*
0 $1 Rounding radius*
0 $2 $3 $4 $5 $6 $7 $8 $9 X,Y pos of 4 corners*
0 Add a 4 corners polygon primitive as box body*
4,1,4,$2,$3,$4,$5,$6,$7,$8,$9,$2,$3,0*
0 Add four circle primitives for the rounded corners*
1,1,$1+$1,$2,$3*
1,1,$1+$1,$4,$5*
1,1,$1+$1,$6,$7*
1,1,$1+$1,$8,$9*
0 Add four rect primitives between the rounded corners*
20,1,$1+$1,$2,$3,$4,$5,0*
20,1,$1+$1,$4,$5,$6,$7,0*
20,1,$1+$1,$6,$7,$8,$9,0*
20,1,$1+$1,$8,$9,$2,$3,0*%
G04 Aperture macros list end*
%TA.AperFunction,ComponentPad*%
%ADD10R,1.350000X1.350000*%
%TD*%
%TA.AperFunction,ComponentPad*%
%ADD11O,1.350000X1.350000*%
%TD*%
%TA.AperFunction,ComponentPad*%
%ADD12RoundRect,0.250000X-0.600000X-0.725000X0.600000X-0.725000X0.600000X0.725000X-0.600000X0.725000X0*%
%TD*%
%TA.AperFunction,ComponentPad*%
%ADD13O,1.700000X1.950000*%
%TD*%
%TA.AperFunction,SMDPad,CuDef*%
%ADD14RoundRect,0.200000X-0.200000X-0.275000X0.200000X-0.275000X0.200000X0.275000X-0.200000X0.275000X0*%
%TD*%
%TA.AperFunction,SMDPad,CuDef*%
%ADD15RoundRect,0.250000X-0.550000X1.050000X-0.550000X-1.050000X0.550000X-1.050000X0.550000X1.050000X0*%
%TD*%
%TA.AperFunction,ComponentPad*%
%ADD16R,1.600000X1.600000*%
%TD*%
%TA.AperFunction,ComponentPad*%
%ADD17C,1.600000*%
%TD*%
%TA.AperFunction,ComponentPad*%
%ADD18C,3.000000*%
%TD*%
%TA.AperFunction,ComponentPad*%
%ADD19R,1.500000X1.500000*%
%TD*%
%TA.AperFunction,ComponentPad*%
%ADD20C,1.500000*%
%TD*%
%TA.AperFunction,ComponentPad*%
%ADD21C,2.300000*%
%TD*%
%TA.AperFunction,SMDPad,CuDef*%
%ADD22RoundRect,0.225000X-0.225000X-0.250000X0.225000X-0.250000X0.225000X0.250000X-0.225000X0.250000X0*%
%TD*%
%TA.AperFunction,ViaPad*%
%ADD23C,0.800000*%
%TD*%
%TA.AperFunction,Conductor*%
%ADD24C,0.250000*%
%TD*%
%TA.AperFunction,Conductor*%
%ADD25C,0.200000*%
%TD*%
G04 APERTURE END LIST*
D10*
%TO.P,J16,1,Pin_1*%
%TO.N,Net-(J14-Pin_3)*%
X124800000Y-33420000D03*
D11*
%TO.P,J16,2,Pin_2*%
%TO.N,Net-(J14-Pin_4)*%
X124800000Y-35420000D03*
%TO.P,J16,3,Pin_3*%
%TO.N,unconnected-(J16-Pin_3-Pad3)*%
X124800000Y-37420000D03*
%TO.P,J16,4,Pin_4*%
%TO.N,unconnected-(J16-Pin_4-Pad4)*%
X124800000Y-39420000D03*
%TO.P,J16,5,Pin_5*%
%TO.N,unconnected-(J16-Pin_5-Pad5)*%
X124800000Y-41420000D03*
%TO.P,J16,6,Pin_6*%
%TO.N,unconnected-(J16-Pin_6-Pad6)*%
X124800000Y-43420000D03*
%TO.P,J16,7,Pin_7*%
%TO.N,unconnected-(J16-Pin_7-Pad7)*%
X124800000Y-45420000D03*
%TO.P,J16,8,Pin_8*%
%TO.N,unconnected-(J16-Pin_8-Pad8)*%
X124800000Y-47420000D03*
%TO.P,J16,9,Pin_9*%
%TO.N,unconnected-(J16-Pin_9-Pad9)*%
X124800000Y-49420000D03*
%TO.P,J16,10,Pin_10*%
%TO.N,unconnected-(J16-Pin_10-Pad10)*%
X124800000Y-51420000D03*
%TD*%
D10*
%TO.P,J15,1,Pin_1*%
%TO.N,Net-(J14-Pin_1)*%
X102830000Y-33430000D03*
D11*
%TO.P,J15,2,Pin_2*%
%TO.N,unconnected-(J15-Pin_2-Pad2)*%
X102830000Y-35430000D03*
%TO.P,J15,3,Pin_3*%
%TO.N,unconnected-(J15-Pin_3-Pad3)*%
X102830000Y-37430000D03*
%TO.P,J15,4,Pin_4*%
%TO.N,unconnected-(J15-Pin_4-Pad4)*%
X102830000Y-39430000D03*
%TO.P,J15,5,Pin_5*%
%TO.N,unconnected-(J15-Pin_5-Pad5)*%
X102830000Y-41430000D03*
%TO.P,J15,6,Pin_6*%
%TO.N,unconnected-(J15-Pin_6-Pad6)*%
X102830000Y-43430000D03*
%TO.P,J15,7,Pin_7*%
%TO.N,unconnected-(J15-Pin_7-Pad7)*%
X102830000Y-45430000D03*
%TO.P,J15,8,Pin_8*%
%TO.N,unconnected-(J15-Pin_8-Pad8)*%
X102830000Y-47430000D03*
%TO.P,J15,9,Pin_9*%
%TO.N,unconnected-(J15-Pin_9-Pad9)*%
X102830000Y-49430000D03*
%TO.P,J15,10,Pin_10*%
%TO.N,Net-(J14-Pin_2)*%
X102830000Y-51430000D03*
%TD*%
D12*
%TO.P,J14,1,Pin_1*%
%TO.N,Net-(J14-Pin_1)*%
X110100000Y-45390000D03*
D13*
%TO.P,J14,2,Pin_2*%
%TO.N,Net-(J14-Pin_2)*%
X112600000Y-45390000D03*
%TO.P,J14,3,Pin_3*%
%TO.N,Net-(J14-Pin_3)*%
X115100000Y-45390000D03*
%TO.P,J14,4,Pin_4*%
%TO.N,Net-(J14-Pin_4)*%
X117600000Y-45390000D03*
%TD*%
D10*
%TO.P,J6,1,Pin_1*%
%TO.N,Net-(J4-D-)*%
X90760000Y-59200000D03*
D11*
%TO.P,J6,2,Pin_2*%
%TO.N,Net-(J4-D+)*%
X90760000Y-61200000D03*
%TO.P,J6,3,Pin_3*%
%TO.N,unconnected-(J6-Pin_3-Pad3)*%
X90760000Y-63200000D03*
%TO.P,J6,4,Pin_4*%
%TO.N,unconnected-(J6-Pin_4-Pad4)*%
X90760000Y-65200000D03*
%TO.P,J6,5,Pin_5*%
%TO.N,unconnected-(J6-Pin_5-Pad5)*%
X90760000Y-67200000D03*
%TO.P,J6,6,Pin_6*%
%TO.N,unconnected-(J6-Pin_6-Pad6)*%
X90760000Y-69200000D03*
%TO.P,J6,7,Pin_7*%
%TO.N,unconnected-(J6-Pin_7-Pad7)*%
X90760000Y-71200000D03*
%TO.P,J6,8,Pin_8*%
%TO.N,unconnected-(J6-Pin_8-Pad8)*%
X90760000Y-73200000D03*
%TO.P,J6,9,Pin_9*%
%TO.N,unconnected-(J6-Pin_9-Pad9)*%
X90760000Y-75200000D03*
%TO.P,J6,10,Pin_10*%
%TO.N,unconnected-(J6-Pin_10-Pad10)*%
X90760000Y-77200000D03*
%TD*%
D10*
%TO.P,J10,1,Pin_1*%
%TO.N,Net-(J10-Pin_1)*%
X158826493Y-59198801D03*
D11*
%TO.P,J10,2,Pin_2*%
%TO.N,Net-(J10-Pin_2)*%
X158826493Y-61198801D03*
%TO.P,J10,3,Pin_3*%
%TO.N,unconnected-(J10-Pin_3-Pad3)*%
X158826493Y-63198801D03*
%TO.P,J10,4,Pin_4*%
%TO.N,unconnected-(J10-Pin_4-Pad4)*%
X158826493Y-65198801D03*
%TO.P,J10,5,Pin_5*%
%TO.N,unconnected-(J10-Pin_5-Pad5)*%
X158826493Y-67198801D03*
%TO.P,J10,6,Pin_6*%
%TO.N,unconnected-(J10-Pin_6-Pad6)*%
X158826493Y-69198801D03*
%TO.P,J10,7,Pin_7*%
%TO.N,unconnected-(J10-Pin_7-Pad7)*%
X158826493Y-71198801D03*
%TO.P,J10,8,Pin_8*%
%TO.N,unconnected-(J10-Pin_8-Pad8)*%
X158826493Y-73198801D03*
%TO.P,J10,9,Pin_9*%
%TO.N,unconnected-(J10-Pin_9-Pad9)*%
X158826493Y-75198801D03*
%TO.P,J10,10,Pin_10*%
%TO.N,unconnected-(J10-Pin_10-Pad10)*%
X158826493Y-77198801D03*
%TD*%
D10*
%TO.P,J5,1,Pin_1*%
%TO.N,Net-(J4-VBUS)*%
X68780000Y-59190000D03*
D11*
%TO.P,J5,2,Pin_2*%
%TO.N,unconnected-(J5-Pin_2-Pad2)*%
X68780000Y-61190000D03*
%TO.P,J5,3,Pin_3*%
%TO.N,unconnected-(J5-Pin_3-Pad3)*%
X68780000Y-63190000D03*
%TO.P,J5,4,Pin_4*%
%TO.N,unconnected-(J5-Pin_4-Pad4)*%
X68780000Y-65190000D03*
%TO.P,J5,5,Pin_5*%
%TO.N,unconnected-(J5-Pin_5-Pad5)*%
X68780000Y-67190000D03*
%TO.P,J5,6,Pin_6*%
%TO.N,unconnected-(J5-Pin_6-Pad6)*%
X68780000Y-69190000D03*
%TO.P,J5,7,Pin_7*%
%TO.N,unconnected-(J5-Pin_7-Pad7)*%
X68780000Y-71190000D03*
%TO.P,J5,8,Pin_8*%
%TO.N,unconnected-(J5-Pin_8-Pad8)*%
X68780000Y-73190000D03*
%TO.P,J5,9,Pin_9*%
%TO.N,unconnected-(J5-Pin_9-Pad9)*%
X68780000Y-75190000D03*
%TO.P,J5,10,Pin_10*%
%TO.N,Net-(J4-GND)*%
X68780000Y-77190000D03*
%TD*%
D14*
%TO.P,R8,1*%
%TO.N,Net-(C10-Pad1)*%
X119340249Y-65330000D03*
%TO.P,R8,2*%
%TO.N,/TPIN+*%
X120990249Y-65330000D03*
%TD*%
D10*
%TO.P,J2,1,Pin_1*%
%TO.N,/VCC*%
X102829285Y-59195000D03*
D11*
%TO.P,J2,2,Pin_2*%
%TO.N,unconnected-(J2-Pin_2-Pad2)*%
X102829285Y-61195000D03*
%TO.P,J2,3,Pin_3*%
%TO.N,unconnected-(J2-Pin_3-Pad3)*%
X102829285Y-63195000D03*
%TO.P,J2,4,Pin_4*%
%TO.N,unconnected-(J2-Pin_4-Pad4)*%
X102829285Y-65195000D03*
%TO.P,J2,5,Pin_5*%
%TO.N,unconnected-(J2-Pin_5-Pad5)*%
X102829285Y-67195000D03*
%TO.P,J2,6,Pin_6*%
%TO.N,/CS*%
X102829285Y-69195000D03*
%TO.P,J2,7,Pin_7*%
%TO.N,/INT*%
X102829285Y-71195000D03*
%TO.P,J2,8,Pin_8*%
%TO.N,unconnected-(J2-Pin_8-Pad8)*%
X102829285Y-73195000D03*
%TO.P,J2,9,Pin_9*%
%TO.N,unconnected-(J2-Pin_9-Pad9)*%
X102829285Y-75195000D03*
%TO.P,J2,10,Pin_10*%
%TO.N,/GND*%
X102829285Y-77195000D03*
%TD*%
D15*
%TO.P,C1,1*%
%TO.N,Net-(U1-VCAP)*%
X108310249Y-59970000D03*
%TO.P,C1,2*%
%TO.N,/GND*%
X108310249Y-63570000D03*
%TD*%
D14*
%TO.P,R6,1*%
%TO.N,Net-(J1-Pad11)*%
X119350249Y-60100000D03*
%TO.P,R6,2*%
%TO.N,/GND*%
X121000249Y-60100000D03*
%TD*%
D10*
%TO.P,J9,1,Pin_1*%
%TO.N,Net-(J7-VBUS)*%
X136846493Y-59188801D03*
D11*
%TO.P,J9,2,Pin_2*%
%TO.N,Net-(J7-D+)*%
X136846493Y-61188801D03*
%TO.P,J9,3,Pin_3*%
%TO.N,Net-(J7-D-)*%
X136846493Y-63188801D03*
%TO.P,J9,4,Pin_4*%
%TO.N,unconnected-(J9-Pin_4-Pad4)*%
X136846493Y-65188801D03*
%TO.P,J9,5,Pin_5*%
%TO.N,unconnected-(J9-Pin_5-Pad5)*%
X136846493Y-67188801D03*
%TO.P,J9,6,Pin_6*%
%TO.N,unconnected-(J9-Pin_6-Pad6)*%
X136846493Y-69188801D03*
%TO.P,J9,7,Pin_7*%
%TO.N,unconnected-(J9-Pin_7-Pad7)*%
X136846493Y-71188801D03*
%TO.P,J9,8,Pin_8*%
%TO.N,unconnected-(J9-Pin_8-Pad8)*%
X136846493Y-73188801D03*
%TO.P,J9,9,Pin_9*%
%TO.N,unconnected-(J9-Pin_9-Pad9)*%
X136846493Y-75188801D03*
%TO.P,J9,10,Pin_10*%
%TO.N,Net-(J7-GND)*%
X136846493Y-77188801D03*
%TD*%
D10*
%TO.P,J3,1,Pin_1*%
%TO.N,unconnected-(J3-Pin_1-Pad1)*%
X124830249Y-59200000D03*
D11*
%TO.P,J3,2,Pin_2*%
%TO.N,unconnected-(J3-Pin_2-Pad2)*%
X124830249Y-61200000D03*
%TO.P,J3,3,Pin_3*%
%TO.N,/SCK*%
X124830249Y-63200000D03*
%TO.P,J3,4,Pin_4*%
%TO.N,/MISO*%
X124830249Y-65200000D03*
%TO.P,J3,5,Pin_5*%
%TO.N,/MOSI*%
X124830249Y-67200000D03*
%TO.P,J3,6,Pin_6*%
%TO.N,unconnected-(J3-Pin_6-Pad6)*%
X124830249Y-69200000D03*
%TO.P,J3,7,Pin_7*%
%TO.N,unconnected-(J3-Pin_7-Pad7)*%
X124830249Y-71200000D03*
%TO.P,J3,8,Pin_8*%
%TO.N,unconnected-(J3-Pin_8-Pad8)*%
X124830249Y-73200000D03*
%TO.P,J3,9,Pin_9*%
%TO.N,unconnected-(J3-Pin_9-Pad9)*%
X124830249Y-75200000D03*
%TO.P,J3,10,Pin_10*%
%TO.N,unconnected-(J3-Pin_10-Pad10)*%
X124830249Y-77200000D03*
%TD*%
D16*
%TO.P,J8,1,VBUS*%
%TO.N,Net-(J7-VBUS)*%
X144406493Y-69868801D03*
D17*
%TO.P,J8,2,D-*%
%TO.N,Net-(J10-Pin_1)*%
X146906493Y-69868801D03*
%TO.P,J8,3,D+*%
%TO.N,Net-(J10-Pin_2)*%
X148906493Y-69868801D03*
%TO.P,J8,4,GND*%
%TO.N,Net-(J7-GND)*%
X151406493Y-69868801D03*
D18*
%TO.P,J8,5,Shield*%
X141336493Y-72578801D03*
X154476493Y-72578801D03*
%TD*%
D14*
%TO.P,R9,1*%
%TO.N,/TPIN-*%
X119342285Y-63750000D03*
%TO.P,R9,2*%
%TO.N,Net-(C10-Pad1)*%
X120992285Y-63750000D03*
%TD*%
D16*
%TO.P,J4,1,VBUS*%
%TO.N,Net-(J4-VBUS)*%
X76310200Y-68610800D03*
D17*
%TO.P,J4,2,D-*%
%TO.N,Net-(J4-D-)*%
X78810200Y-68610800D03*
%TO.P,J4,3,D+*%
%TO.N,Net-(J4-D+)*%
X80810200Y-68610800D03*
%TO.P,J4,4,GND*%
%TO.N,Net-(J4-GND)*%
X83310200Y-68610800D03*
D18*
%TO.P,J4,5,Shield*%
X73240200Y-71320800D03*
X86380200Y-71320800D03*
%TD*%
D16*
%TO.P,J7,1,VBUS*%
%TO.N,Net-(J7-VBUS)*%
X151406493Y-66488001D03*
D17*
%TO.P,J7,2,D-*%
%TO.N,Net-(J7-D-)*%
X148906493Y-66488001D03*
%TO.P,J7,3,D+*%
%TO.N,Net-(J7-D+)*%
X146906493Y-66488001D03*
%TO.P,J7,4,GND*%
%TO.N,Net-(J7-GND)*%
X144406493Y-66488001D03*
D18*
%TO.P,J7,5,Shield*%
X154476493Y-63778001D03*
X141336493Y-63778001D03*
%TD*%
D12*
%TO.P,J11,1,Pin_1*%
%TO.N,Net-(J11-Pin_1)*%
X77270000Y-45470000D03*
D13*
%TO.P,J11,2,Pin_2*%
%TO.N,Net-(J11-Pin_2)*%
X79770000Y-45470000D03*
%TO.P,J11,3,Pin_3*%
%TO.N,Net-(J11-Pin_3)*%
X82270000Y-45470000D03*
%TD*%
D19*
%TO.P,J1,1*%
%TO.N,/TPOUT+*%
X117332249Y-74980000D03*
D20*
%TO.P,J1,2*%
%TO.N,/TPOUT-*%
X116316249Y-73200000D03*
%TO.P,J1,3*%
%TO.N,/TPIN+*%
X115300249Y-74980000D03*
%TO.P,J1,4*%
%TO.N,Net-(C9-Pad1)*%
X114284249Y-73200000D03*
%TO.P,J1,5*%
%TO.N,unconnected-(J1-Pad5)*%
X113268249Y-74980000D03*
%TO.P,J1,6*%
%TO.N,/TPIN-*%
X112252249Y-73200000D03*
%TO.P,J1,7*%
%TO.N,unconnected-(J1-Pad7)*%
X111236249Y-74980000D03*
%TO.P,J1,8*%
%TO.N,unconnected-(J1-Pad8)*%
X110220249Y-73200000D03*
%TO.P,J1,9*%
%TO.N,Net-(J1-Pad9)*%
X120632249Y-68380000D03*
%TO.P,J1,10*%
%TO.N,/LEDB*%
X118342249Y-68380000D03*
%TO.P,J1,11*%
%TO.N,Net-(J1-Pad11)*%
X109202249Y-68380000D03*
%TO.P,J1,12*%
%TO.N,/LEDA*%
X106912249Y-68380000D03*
D21*
%TO.P,J1,SH*%
%TO.N,N/C*%
X121902249Y-74090000D03*
X105642249Y-74090000D03*
%TD*%
D14*
%TO.P,R7,1*%
%TO.N,Net-(J1-Pad9)*%
X119350249Y-58500000D03*
%TO.P,R7,2*%
%TO.N,/GND*%
X121000249Y-58500000D03*
%TD*%
D10*
%TO.P,J13,1,Pin_1*%
%TO.N,Net-(J11-Pin_3)*%
X90780000Y-33430000D03*
D11*
%TO.P,J13,2,Pin_2*%
%TO.N,unconnected-(J13-Pin_2-Pad2)*%
X90780000Y-35430000D03*
%TO.P,J13,3,Pin_3*%
%TO.N,unconnected-(J13-Pin_3-Pad3)*%
X90780000Y-37430000D03*
%TO.P,J13,4,Pin_4*%
%TO.N,unconnected-(J13-Pin_4-Pad4)*%
X90780000Y-39430000D03*
%TO.P,J13,5,Pin_5*%
%TO.N,unconnected-(J13-Pin_5-Pad5)*%
X90780000Y-41430000D03*
%TO.P,J13,6,Pin_6*%
%TO.N,unconnected-(J13-Pin_6-Pad6)*%
X90780000Y-43430000D03*
%TO.P,J13,7,Pin_7*%
%TO.N,unconnected-(J13-Pin_7-Pad7)*%
X90780000Y-45430000D03*
%TO.P,J13,8,Pin_8*%
%TO.N,unconnected-(J13-Pin_8-Pad8)*%
X90780000Y-47430000D03*
%TO.P,J13,9,Pin_9*%
%TO.N,unconnected-(J13-Pin_9-Pad9)*%
X90780000Y-49430000D03*
%TO.P,J13,10,Pin_10*%
%TO.N,unconnected-(J13-Pin_10-Pad10)*%
X90780000Y-51430000D03*
%TD*%
D10*
%TO.P,J12,1,Pin_1*%
%TO.N,Net-(J11-Pin_1)*%
X68790000Y-33430000D03*
D11*
%TO.P,J12,2,Pin_2*%
%TO.N,unconnected-(J12-Pin_2-Pad2)*%
X68790000Y-35430000D03*
%TO.P,J12,3,Pin_3*%
%TO.N,unconnected-(J12-Pin_3-Pad3)*%
X68790000Y-37430000D03*
%TO.P,J12,4,Pin_4*%
%TO.N,unconnected-(J12-Pin_4-Pad4)*%
X68790000Y-39430000D03*
%TO.P,J12,5,Pin_5*%
%TO.N,unconnected-(J12-Pin_5-Pad5)*%
X68790000Y-41430000D03*
%TO.P,J12,6,Pin_6*%
%TO.N,unconnected-(J12-Pin_6-Pad6)*%
X68790000Y-43430000D03*
%TO.P,J12,7,Pin_7*%
%TO.N,unconnected-(J12-Pin_7-Pad7)*%
X68790000Y-45430000D03*
%TO.P,J12,8,Pin_8*%
%TO.N,unconnected-(J12-Pin_8-Pad8)*%
X68790000Y-47430000D03*
%TO.P,J12,9,Pin_9*%
%TO.N,unconnected-(J12-Pin_9-Pad9)*%
X68790000Y-49430000D03*
%TO.P,J12,10,Pin_10*%
%TO.N,Net-(J11-Pin_2)*%
X68790000Y-51430000D03*
%TD*%
D22*
%TO.P,C10,1*%
%TO.N,Net-(C10-Pad1)*%
X119414785Y-62070000D03*
%TO.P,C10,2*%
%TO.N,/GND*%
X120964785Y-62070000D03*
%TD*%
D23*
%TO.N,*%
X113577285Y-58300000D03*
X111703787Y-63762642D03*
X115554785Y-68306911D03*
X118182003Y-71070000D03*
X122939285Y-67283891D03*
X111767285Y-61430000D03*
X105887285Y-66070000D03*
X116142569Y-71070000D03*
X106917285Y-61690000D03*
X113047285Y-60170000D03*
X114617285Y-66010000D03*
X114391788Y-64560500D03*
X112057285Y-57980000D03*
X113837285Y-62810000D03*
X115067285Y-58300000D03*
X113295206Y-66010000D03*
X108297285Y-73170000D03*
X104561785Y-66070000D03*
X117157285Y-71070000D03*
%TD*%
D24*
%TO.N,Net-(J14-Pin_3)*%
X115100000Y-45395000D02*
X115100000Y-43120000D01*
%TO.N,Net-(J14-Pin_4)*%
X117600000Y-42620000D02*
X124800000Y-35420000D01*
%TO.N,Net-(J14-Pin_3)*%
X115100000Y-43120000D02*
X124800000Y-33420000D01*
%TO.N,Net-(J14-Pin_1)*%
X110100000Y-45395000D02*
X110100000Y-40700000D01*
%TO.N,Net-(J14-Pin_4)*%
X117600000Y-45395000D02*
X117600000Y-42620000D01*
%TO.N,Net-(J14-Pin_2)*%
X112600000Y-45395000D02*
X106565000Y-51430000D01*
%TO.N,Net-(J14-Pin_1)*%
X110100000Y-40700000D02*
X102830000Y-33430000D01*
%TO.N,Net-(J14-Pin_2)*%
X106565000Y-51430000D02*
X102830000Y-51430000D01*
%TO.N,/VCC*%
X105224285Y-56800000D02*
X102829285Y-59195000D01*
X103837285Y-66400000D02*
X103837285Y-60203000D01*
X122939285Y-67283891D02*
X122664785Y-67009391D01*
X122664785Y-67009391D02*
X122664785Y-57297500D01*
X105162285Y-66795000D02*
X104232285Y-66795000D01*
X105887285Y-66070000D02*
X105162285Y-66795000D01*
X122167285Y-56800000D02*
X105224285Y-56800000D01*
X122664785Y-57297500D02*
X122167285Y-56800000D01*
X103837285Y-60203000D02*
X102829285Y-59195000D01*
X104232285Y-66795000D02*
X103837285Y-66400000D01*
%TO.N,/GND*%
X120992285Y-61980000D02*
X120902285Y-62070000D01*
X114391788Y-65784503D02*
X114617285Y-66010000D01*
X113837285Y-62810000D02*
X113147285Y-62810000D01*
X120992285Y-58820000D02*
X120992285Y-60420000D01*
X108297285Y-73170000D02*
X108297285Y-73515966D01*
X120902285Y-62070000D02*
X120852958Y-62070000D01*
X104618251Y-77195000D02*
X102829285Y-77195000D01*
X113027285Y-60170000D02*
X111767285Y-61430000D01*
X111502285Y-61695000D02*
X111767285Y-61430000D01*
X118917285Y-61220000D02*
X114617285Y-65520000D01*
X120992285Y-60420000D02*
X120992285Y-61980000D01*
X108307285Y-63080000D02*
X106917285Y-61690000D01*
X120852958Y-62070000D02*
X120002958Y-61220000D01*
X108307285Y-63570000D02*
X108307285Y-63080000D01*
X113147285Y-62810000D02*
X111767285Y-61430000D01*
X114391788Y-64560500D02*
X114391788Y-65784503D01*
X114617285Y-65520000D02*
X114617285Y-66010000D01*
X113047285Y-60170000D02*
X113027285Y-60170000D01*
X106922285Y-61695000D02*
X111502285Y-61695000D01*
X120002958Y-61220000D02*
X118917285Y-61220000D01*
X106917285Y-61690000D02*
X106922285Y-61695000D01*
X108297285Y-73515966D02*
X104618251Y-77195000D01*
%TO.N,Net-(C10-Pad1)*%
X120992285Y-63750000D02*
X120922285Y-63750000D01*
X119477285Y-62070000D02*
X119477285Y-62235000D01*
X119477285Y-62235000D02*
X120992285Y-63750000D01*
X120922285Y-63750000D02*
X119342285Y-65330000D01*
%TO.N,Net-(U1-VCAP)*%
X113922285Y-59445000D02*
X108832285Y-59445000D01*
X108832285Y-59445000D02*
X108307285Y-59970000D01*
X115067285Y-58300000D02*
X113922285Y-59445000D01*
D25*
%TO.N,/TPOUT+*%
X117361285Y-74946000D02*
X117361285Y-71274000D01*
X117327285Y-74980000D02*
X117361285Y-74946000D01*
X117361285Y-71274000D02*
X117157285Y-71070000D01*
%TO.N,/TPOUT-*%
X116311285Y-73200000D02*
X116311285Y-71238716D01*
X116311285Y-71238716D02*
X116142569Y-71070000D01*
%TO.N,/TPIN+*%
X118297360Y-66935000D02*
X117287285Y-67945075D01*
X119387285Y-66935000D02*
X118297360Y-66935000D01*
X118182003Y-71070000D02*
X118377285Y-71265282D01*
X118207285Y-76030000D02*
X116345285Y-76030000D01*
X118377285Y-71265282D02*
X118377285Y-75860000D01*
X117287285Y-70175282D02*
X118182003Y-71070000D01*
X120992285Y-65330000D02*
X119387285Y-66935000D01*
X118377285Y-75860000D02*
X118207285Y-76030000D01*
X116345285Y-76030000D02*
X115295285Y-74980000D01*
X117287285Y-67945075D02*
X117287285Y-70175282D01*
%TO.N,/TPIN-*%
X115554785Y-67772500D02*
X119342285Y-63985000D01*
X115554785Y-68306911D02*
X115554785Y-67772500D01*
X112247285Y-71614411D02*
X112247285Y-73200000D01*
X115554785Y-68306911D02*
X112247285Y-71614411D01*
X119342285Y-63985000D02*
X119342285Y-63750000D01*
D24*
%TO.N,Net-(J1-Pad9)*%
X121419747Y-57700000D02*
X121764785Y-58045038D01*
X121764785Y-67242500D02*
X120627285Y-68380000D01*
X120462285Y-57700000D02*
X121419747Y-57700000D01*
X121764785Y-58045038D02*
X121764785Y-67242500D01*
X119342285Y-58820000D02*
X120462285Y-57700000D01*
%TO.N,/LEDB*%
X113577285Y-58280000D02*
X114607285Y-57250000D01*
X122214785Y-68312780D02*
X121072565Y-69455000D01*
X121980889Y-57250000D02*
X122214785Y-57483896D01*
X114607285Y-57250000D02*
X121980889Y-57250000D01*
X119412285Y-69455000D02*
X118337285Y-68380000D01*
X121072565Y-69455000D02*
X119412285Y-69455000D01*
X122214785Y-57483896D02*
X122214785Y-68312780D01*
%TO.N,Net-(J1-Pad11)*%
X117827285Y-60100000D02*
X109547285Y-68380000D01*
X109197285Y-68210000D02*
X109197285Y-68380000D01*
X109547285Y-68380000D02*
X109197285Y-68380000D01*
X119352285Y-60100000D02*
X117827285Y-60100000D01*
%TO.N,/LEDA*%
X105127285Y-59400000D02*
X106247285Y-58280000D01*
X105127285Y-65504500D02*
X105127285Y-59400000D01*
X104561785Y-66070000D02*
X105127285Y-65504500D01*
X111757285Y-58280000D02*
X112057285Y-57980000D01*
X106247285Y-58280000D02*
X111757285Y-58280000D01*
%TO.N,/CS*%
X103504285Y-69870000D02*
X102829285Y-69195000D01*
X114829785Y-68430871D02*
X113390656Y-69870000D01*
X114829785Y-67581256D02*
X114829785Y-68430871D01*
X113390656Y-69870000D02*
X103504285Y-69870000D01*
X113295206Y-66046677D02*
X114829785Y-67581256D01*
%TO.N,/INT*%
X101829285Y-68780786D02*
X101829285Y-70195000D01*
X111703787Y-63762642D02*
X109386429Y-66080000D01*
X107687005Y-66080000D02*
X105572005Y-68195000D01*
X105572005Y-68195000D02*
X102415071Y-68195000D01*
X109386429Y-66080000D02*
X107687005Y-66080000D01*
X102415071Y-68195000D02*
X101829285Y-68780786D01*
X101829285Y-70195000D02*
X102829285Y-71195000D01*
%TO.N,Net-(J4-VBUS)*%
X76310200Y-66727400D02*
X76310200Y-68610800D01*
X68773800Y-59191000D02*
X76310200Y-66727400D01*
X68773800Y-59191000D02*
X69165000Y-59191000D01*
%TO.N,Net-(J4-D-)*%
X78810200Y-68610800D02*
X88219600Y-59201400D01*
X88219600Y-59201400D02*
X90761200Y-59201400D01*
%TO.N,Net-(J4-D+)*%
X88219600Y-61201400D02*
X90761200Y-61201400D01*
X80810200Y-68610800D02*
X88219600Y-61201400D01*
%TO.N,Net-(J4-GND)*%
X68773800Y-77191000D02*
X73240200Y-72724600D01*
X73240200Y-71320800D02*
X86380200Y-71320800D01*
X73240200Y-72724600D02*
X73240200Y-71320800D01*
X83670200Y-68610800D02*
X83310200Y-68610800D01*
X86380200Y-71320800D02*
X83670200Y-68610800D01*
%TO.N,Net-(J7-VBUS)*%
X147372484Y-67613001D02*
X150281493Y-67613001D01*
X144406493Y-69868801D02*
X145116684Y-69868801D01*
X144108293Y-59189801D02*
X136840293Y-59189801D01*
X151406493Y-66488001D02*
X144108293Y-59189801D01*
X150281493Y-67613001D02*
X151406493Y-66488001D01*
X145116684Y-69868801D02*
X147372484Y-67613001D01*
%TO.N,Net-(J7-D-)*%
X135826493Y-62176001D02*
X136840293Y-63189801D01*
X142608293Y-60189801D02*
X136426079Y-60189801D01*
X148906493Y-66488001D02*
X142608293Y-60189801D01*
X136426079Y-60189801D02*
X135826493Y-60789387D01*
X135826493Y-60789387D02*
X135826493Y-62176001D01*
%TO.N,Net-(J7-D+)*%
X146906493Y-66488001D02*
X141608293Y-61189801D01*
X141608293Y-61189801D02*
X136840293Y-61189801D01*
%TO.N,Net-(J7-GND)*%
X141336493Y-72578801D02*
X154476493Y-72578801D01*
X159827693Y-58200201D02*
X157827693Y-58200201D01*
X136840293Y-77075001D02*
X136840293Y-77189801D01*
X154476493Y-72578801D02*
X151766493Y-69868801D01*
X159241907Y-64200201D02*
X159827693Y-63614415D01*
X151766493Y-69868801D02*
X151406493Y-69868801D01*
X144406493Y-66488001D02*
X141696493Y-63778001D01*
X156916493Y-63282545D02*
X156421037Y-63778001D01*
X141336493Y-69558001D02*
X144406493Y-66488001D01*
X156916493Y-59111401D02*
X156916493Y-63282545D01*
X157827693Y-58200201D02*
X156916493Y-59111401D01*
X141336493Y-72578801D02*
X136840293Y-77075001D01*
X141696493Y-63778001D02*
X141336493Y-63778001D01*
X141336493Y-72578801D02*
X141336493Y-69558001D01*
X158206463Y-64200201D02*
X159241907Y-64200201D01*
X159827693Y-63614415D02*
X159827693Y-58200201D01*
X151406493Y-69868801D02*
X152537863Y-69868801D01*
X156421037Y-63778001D02*
X154476493Y-63778001D01*
X152537863Y-69868801D02*
X158206463Y-64200201D01*
%TO.N,Net-(J10-Pin_1)*%
X157366493Y-60661401D02*
X157366493Y-63468941D01*
X158827693Y-59200201D02*
X157366493Y-60661401D01*
X152766633Y-68068801D02*
X148706493Y-68068801D01*
X157366493Y-63468941D02*
X152766633Y-68068801D01*
X148706493Y-68068801D02*
X146906493Y-69868801D01*
%TO.N,Net-(J10-Pin_2)*%
X148906493Y-69868801D02*
X150031493Y-68743801D01*
X157816493Y-62211401D02*
X158827693Y-61200201D01*
X152961493Y-68743801D02*
X157816493Y-63888801D01*
X157816493Y-63888801D02*
X157816493Y-62211401D01*
X150031493Y-68743801D02*
X152961493Y-68743801D01*
%TO.N,Net-(J11-Pin_1)*%
X77270000Y-45470000D02*
X77270000Y-41907200D01*
X77270000Y-41907200D02*
X68793800Y-33431000D01*
%TO.N,Net-(J11-Pin_2)*%
X79770000Y-45470000D02*
X73809000Y-51431000D01*
X73809000Y-51431000D02*
X68793800Y-51431000D01*
%TO.N,Net-(J11-Pin_3)*%
X82270000Y-45470000D02*
X82270000Y-41940000D01*
X82270000Y-41940000D02*
X90780000Y-33430000D01*
%TD*%
M02*
