M48
; DRILL file {KiCad 7.0.7} date Fri Oct  6 18:16:36 2023
; FORMAT={-:-/ absolute / inch / decimal}
; #@! TF.CreationDate,2023-10-06T18:16:36-06:00
; #@! TF.GenerationSoftware,Kicad,Pcbnew,7.0.7
; #@! TF.FileFunction,Plated,1,2,PTH
FMAT,2
INCH
; #@! TA.AperFunction,Plated,PTH,ViaDrill
T1C0.0157
; #@! TA.AperFunction,Plated,PTH,ComponentDrill
T2C0.0315
; #@! TA.AperFunction,Plated,PTH,ComponentDrill
T3C0.0350
; #@! TA.AperFunction,Plated,PTH,ComponentDrill
T4C0.0362
; #@! TA.AperFunction,Plated,PTH,ComponentDrill
T5C0.0374
; #@! TA.AperFunction,Plated,PTH,ComponentDrill
T6C0.0618
; #@! TA.AperFunction,Plated,PTH,ComponentDrill
T7C0.0906
%
G90
G05
T1
X4.1166Y-2.6012
X4.1688Y-2.6012
X4.2093Y-2.4287
X4.2637Y-2.8807
X4.3978Y-2.5103
X4.4003Y-2.4185
X4.4117Y-2.2827
X4.4507Y-2.3689
X4.4604Y-2.5988
X4.4715Y-2.2953
X4.4818Y-2.4728
X4.5036Y-2.5418
X4.5125Y-2.5988
X4.5302Y-2.2953
X4.5494Y-2.6892
X4.5725Y-2.798
X4.6125Y-2.798
X4.6528Y-2.798
X4.8401Y-2.649
T2
X2.7079Y-2.3303
X2.7079Y-2.4091
X2.7079Y-2.4878
X2.7079Y-2.5665
X2.7079Y-2.6453
X2.7079Y-2.724
X2.7079Y-2.8028
X2.7079Y-2.8815
X2.7079Y-2.9602
X2.7079Y-3.039
X2.7083Y-1.3161
X2.7083Y-1.3949
X2.7083Y-1.4736
X2.7083Y-1.5524
X2.7083Y-1.6311
X2.7083Y-1.7098
X2.7083Y-1.7886
X2.7083Y-1.8673
X2.7083Y-1.9461
X2.7083Y-2.0248
X3.5732Y-2.3307
X3.5732Y-2.4094
X3.5732Y-2.4882
X3.5732Y-2.5669
X3.5732Y-2.6457
X3.5732Y-2.7244
X3.5732Y-2.8031
X3.5732Y-2.8819
X3.5732Y-2.9606
X3.5732Y-3.0394
X3.574Y-1.3161
X3.574Y-1.3949
X3.574Y-1.4736
X3.574Y-1.5524
X3.574Y-1.6311
X3.574Y-1.7098
X3.574Y-1.7886
X3.574Y-1.8673
X3.574Y-1.9461
X3.574Y-2.0248
X4.0484Y-2.3305
X4.0484Y-2.4093
X4.0484Y-2.488
X4.0484Y-2.5667
X4.0484Y-2.6455
X4.0484Y-2.7242
X4.0484Y-2.803
X4.0484Y-2.8817
X4.0484Y-2.9604
X4.0484Y-3.0392
X4.0484Y-1.3161
X4.0484Y-1.3949
X4.0484Y-1.4736
X4.0484Y-1.5524
X4.0484Y-1.6311
X4.0484Y-1.7098
X4.0484Y-1.7886
X4.0484Y-1.8673
X4.0484Y-1.9461
X4.0484Y-2.0248
X4.9134Y-1.3157
X4.9134Y-1.3945
X4.9134Y-1.4732
X4.9134Y-1.552
X4.9134Y-1.6307
X4.9134Y-1.7094
X4.9134Y-1.7882
X4.9134Y-1.8669
X4.9134Y-1.9457
X4.9134Y-2.0244
X4.9146Y-2.3307
X4.9146Y-2.4094
X4.9146Y-2.4882
X4.9146Y-2.5669
X4.9146Y-2.6457
X4.9146Y-2.7244
X4.9146Y-2.8031
X4.9146Y-2.8819
X4.9146Y-2.9606
X4.9146Y-3.0394
X5.3877Y-2.3303
X5.3877Y-2.409
X5.3877Y-2.4877
X5.3877Y-2.5665
X5.3877Y-2.6452
X5.3877Y-2.724
X5.3877Y-2.8027
X5.3877Y-2.8814
X5.3877Y-2.9602
X5.3877Y-3.0389
X6.253Y-2.3307
X6.253Y-2.4094
X6.253Y-2.4881
X6.253Y-2.5669
X6.253Y-2.6456
X6.253Y-2.7244
X6.253Y-2.8031
X6.253Y-2.8818
X6.253Y-2.9606
X6.253Y-3.0393
T3
X4.2091Y-2.6921
X4.2993Y-2.6921
X4.3394Y-2.8819
X4.3794Y-2.952
X4.4194Y-2.8819
X4.4594Y-2.952
X4.4994Y-2.8819
X4.5394Y-2.952
X4.5794Y-2.8819
X4.6194Y-2.952
X4.6591Y-2.6921
X4.7493Y-2.6921
T4
X3.0043Y-2.7012
X3.1028Y-2.7012
X3.1815Y-2.7012
X3.2799Y-2.7012
X5.6853Y-2.6176
X5.6853Y-2.7507
X5.7837Y-2.6176
X5.7837Y-2.7507
X5.8625Y-2.6176
X5.8625Y-2.7507
X5.9609Y-2.6176
X5.9609Y-2.7507
T5
X3.0421Y-1.7902
X3.1406Y-1.7902
X3.239Y-1.7902
X4.3346Y-1.787
X4.4331Y-1.787
X4.5315Y-1.787
X4.6299Y-1.787
T6
X4.1591Y-2.9169
X4.7993Y-2.9169
T7
X2.8835Y-2.8079
X3.4008Y-2.8079
X5.5644Y-2.5109
X5.5644Y-2.8574
X6.0818Y-2.5109
X6.0818Y-2.8574
T0
M30
