%TF.GenerationSoftware,KiCad,Pcbnew,7.0.7*%
%TF.CreationDate,2023-10-04T17:00:30-06:00*%
%TF.ProjectId,FPV_3-Pin_Module,4650565f-332d-4506-996e-5f4d6f64756c,rev?*%
%TF.SameCoordinates,Original*%
%TF.FileFunction,Drillmap*%
%TF.FilePolarity,Positive*%
%FSLAX45Y45*%
G04 Gerber Fmt 4.5, Leading zero omitted, Abs format (unit mm)*
G04 Created by KiCad (PCBNEW 7.0.7) date 2023-10-04 17:00:30*
%MOMM*%
%LPD*%
G01*
G04 APERTURE LIST*
%ADD10C,0.150000*%
%ADD11C,0.200000*%
%ADD12C,0.075000*%
%ADD13C,0.080000*%
G04 APERTURE END LIST*
D10*
X15806898Y-9022692D02*
X15811811Y-9031401D01*
X12579956Y-9270128D02*
X12589056Y-9274272D01*
X15795622Y-9006188D02*
X15801496Y-9014279D01*
D11*
X12792000Y-9113000D02*
G75*
G03*
X12792000Y-9113000I-135000J0D01*
G01*
D10*
X12741081Y-9315150D02*
X12749001Y-9321252D01*
X15801496Y-9014279D02*
X15806898Y-9022692D01*
X15524298Y-8852097D02*
X15528703Y-8861072D01*
X12518513Y-9219988D02*
X12524849Y-9227722D01*
X15795487Y-9219988D02*
X15789151Y-9227722D01*
X12627147Y-8940565D02*
X12617347Y-8942552D01*
X12712665Y-8926927D02*
X12703302Y-8930433D01*
X12657000Y-8938000D02*
X12647005Y-8938286D01*
X15520521Y-8842840D02*
X15524298Y-8852097D01*
X12579757Y-8955969D02*
X12570915Y-8960637D01*
X15545455Y-8885895D02*
X15552131Y-8893338D01*
X15566936Y-8906761D02*
X15574995Y-8912678D01*
X12538794Y-9242044D02*
X12546357Y-9248584D01*
X12588852Y-8951814D02*
X12579757Y-8955969D01*
X12792000Y-8118000D02*
X12867000Y-8043000D01*
X15823394Y-9167204D02*
X15820027Y-9176619D01*
X15447000Y-8043000D02*
X15257000Y-7853000D01*
X12761869Y-8893338D02*
X12754697Y-8900304D01*
X12781337Y-9359064D02*
X12786135Y-9367835D01*
X15782537Y-8991076D02*
X15789296Y-8998445D01*
X12724075Y-9304654D02*
X12732759Y-9309609D01*
X12512629Y-9211904D02*
X12518513Y-9219988D01*
X12524849Y-9227722D02*
X12531617Y-9235082D01*
X15706322Y-8945094D02*
X15715831Y-8948185D01*
X15522000Y-10108000D02*
X15447000Y-10183000D01*
X15598930Y-9300310D02*
X15589925Y-9304654D01*
X15828534Y-9078341D02*
X15830233Y-9088194D01*
X15830202Y-9138025D02*
X15828490Y-9147876D01*
X12482633Y-9098129D02*
X12482068Y-9108111D01*
X15828490Y-9147876D02*
X15826218Y-9157613D01*
X15759719Y-9254682D02*
X15751460Y-9260317D01*
X12487726Y-9068601D02*
X12485466Y-9078341D01*
X12531463Y-8991076D02*
X12524704Y-8998445D01*
X15826218Y-9157613D02*
X15823394Y-9167204D01*
X12598377Y-9277889D02*
X12607890Y-9280968D01*
X15539306Y-8878012D02*
X15545455Y-8885895D01*
X15823462Y-9059006D02*
X15826274Y-9068601D01*
X12793479Y-8842840D02*
X12792000Y-8118000D01*
X12703302Y-8930433D02*
X12693720Y-8933288D01*
X15592235Y-8922785D02*
X15601335Y-8926927D01*
X12756482Y-9327885D02*
X12763488Y-9335017D01*
X12483798Y-9138025D02*
X12485510Y-9147876D01*
X15743085Y-8960637D02*
X15751646Y-8965802D01*
X12739005Y-8912678D02*
X12730559Y-8918028D01*
X15649881Y-8937826D02*
X15657000Y-8938000D01*
X15657217Y-9288000D02*
X15647225Y-9288357D01*
X12518378Y-9006188D02*
X12512504Y-9014279D01*
D11*
X15792000Y-9113000D02*
G75*
G03*
X15792000Y-9113000I-135000J0D01*
G01*
D10*
X12785297Y-8861072D02*
X12780287Y-8869724D01*
X15811811Y-9031401D02*
X15816219Y-9040376D01*
X12524704Y-8998445D02*
X12518378Y-9006188D01*
X12546185Y-8977556D02*
X12538631Y-8984106D01*
X15724944Y-9274272D02*
X15715623Y-9277889D01*
X15715623Y-9277889D02*
X15706110Y-9280968D01*
X12538631Y-8984106D02*
X12531463Y-8991076D01*
X12493973Y-9176619D02*
X12497873Y-9185826D01*
X12693720Y-8933288D02*
X12683965Y-8935479D01*
X15751646Y-8965802D02*
X15759898Y-8971448D01*
X15742892Y-9265472D02*
X15734044Y-9270128D01*
X12497873Y-9185826D02*
X12502292Y-9194795D01*
X12656783Y-9288000D02*
X12666775Y-9288357D01*
X12705787Y-9296596D02*
X12715070Y-9300310D01*
X15637282Y-9289402D02*
X15627434Y-9291129D01*
X15617729Y-9293531D02*
X15608213Y-9296596D01*
X15789296Y-8998445D02*
X15795622Y-9006188D01*
X15831367Y-9098129D02*
X15831932Y-9108111D01*
X12493893Y-9049587D02*
X12490538Y-9059006D01*
X12637043Y-8939142D02*
X12627147Y-8940565D01*
X12768545Y-8885895D02*
X12761869Y-8893338D01*
X15639917Y-8936993D02*
X15649881Y-8937826D01*
X15522000Y-8118000D02*
X15447000Y-8043000D01*
X12482652Y-9128092D02*
X12483798Y-9138025D01*
X15751460Y-9260317D02*
X15742892Y-9265472D01*
X15801371Y-9211904D02*
X15795487Y-9219988D01*
X15620280Y-8933288D02*
X15630035Y-8935479D01*
X15610698Y-8930433D02*
X15620280Y-8933288D01*
X15557518Y-9327885D02*
X15550512Y-9335017D01*
X12507216Y-9203497D02*
X12512629Y-9211904D01*
X12793479Y-8842840D02*
X12789702Y-8852097D01*
X15686635Y-9285473D02*
X15676737Y-9286884D01*
X12482068Y-9108111D02*
X12482075Y-9118110D01*
X15734243Y-8955969D02*
X15743085Y-8960637D01*
X12487782Y-9157613D02*
X12490606Y-9167204D01*
X12598169Y-8948185D02*
X12588852Y-8951814D01*
X12607677Y-8945094D02*
X12598169Y-8948185D01*
X12502189Y-9031401D02*
X12497781Y-9040376D01*
X15572919Y-9315150D02*
X15564999Y-9321252D01*
X12512504Y-9014279D02*
X12507101Y-9022692D01*
X12664119Y-8937826D02*
X12657000Y-8938000D01*
X15725148Y-8951814D02*
X15734243Y-8955969D01*
X15538055Y-9350644D02*
X15532663Y-9359064D01*
X12570915Y-8960637D02*
X12562354Y-8965802D01*
X12683965Y-8935479D02*
X12674083Y-8936993D01*
X13057000Y-7853000D02*
X15077000Y-7853000D01*
X15601335Y-8926927D02*
X15610698Y-8930433D01*
X12792000Y-10108000D02*
X12867000Y-10183000D01*
X15627434Y-9291129D02*
X15617729Y-9293531D01*
X15686853Y-8940565D02*
X15696653Y-8942552D01*
X12617563Y-9283499D02*
X12627365Y-9285473D01*
X15696653Y-8942552D02*
X15706322Y-8945094D01*
X15715831Y-8948185D02*
X15725148Y-8951814D01*
X12554281Y-9254682D02*
X12562540Y-9260317D01*
X15552131Y-8893338D02*
X15559303Y-8900304D01*
X15447000Y-10183000D02*
X15257000Y-10373000D01*
X12732759Y-9309609D02*
X12741081Y-9315150D01*
X12482075Y-9118110D02*
X12482652Y-9128092D01*
X15759898Y-8971448D02*
X15767815Y-8977556D01*
X12617347Y-8942552D02*
X12607677Y-8945094D01*
X12562540Y-9260317D02*
X12571108Y-9265472D01*
X12715070Y-9300310D02*
X12724075Y-9304654D01*
X12562354Y-8965802D02*
X12554102Y-8971448D01*
X15820107Y-9049587D02*
X15823462Y-9059006D01*
X12490538Y-9059006D02*
X12487726Y-9068601D01*
X12502292Y-9194795D02*
X12507216Y-9203497D01*
X12780287Y-8869724D02*
X12774694Y-8878012D01*
X15666774Y-9287727D02*
X15657217Y-9288000D01*
X15826274Y-9068601D02*
X15828534Y-9078341D01*
X12867000Y-8043000D02*
X13057000Y-7853000D01*
X15789151Y-9227722D02*
X15782383Y-9235082D01*
X15520521Y-8842840D02*
X15522000Y-8118000D01*
X12546357Y-9248584D02*
X12554281Y-9254682D01*
X12571108Y-9265472D02*
X12579956Y-9270128D01*
X12490606Y-9167204D02*
X12493973Y-9176619D01*
X15676956Y-8939142D02*
X15686853Y-8940565D01*
X12749001Y-9321252D02*
X12756482Y-9327885D01*
X12589056Y-9274272D02*
X12598377Y-9277889D01*
X12774694Y-8878012D02*
X12768545Y-8885895D01*
X15657000Y-8938000D02*
X15666995Y-8938286D01*
X12647005Y-8938286D02*
X12637043Y-8939142D01*
X15528703Y-8861072D02*
X15533713Y-8869724D01*
X15657217Y-9288000D02*
X15657217Y-9288000D01*
X15806784Y-9203497D02*
X15801371Y-9211904D01*
X15527865Y-9367835D02*
X15523682Y-9376916D01*
X12647226Y-9287727D02*
X12656783Y-9288000D01*
X15811708Y-9194795D02*
X15806784Y-9203497D01*
X12627365Y-9285473D02*
X12637263Y-9286884D01*
X12485466Y-9078341D02*
X12483767Y-9088194D01*
X15257000Y-7853000D02*
X15077000Y-7853000D01*
X12607890Y-9280968D02*
X12617563Y-9283499D01*
X12867000Y-10183000D02*
X13057000Y-10373000D01*
X12531617Y-9235082D02*
X12538794Y-9242044D01*
X15559303Y-8900304D02*
X15566936Y-8906761D01*
X15574995Y-8912678D02*
X15583441Y-8918028D01*
X12497781Y-9040376D02*
X12493893Y-9049587D01*
X15767815Y-8977556D02*
X15775369Y-8984106D01*
X15544014Y-9342616D02*
X15538055Y-9350644D01*
X15775369Y-8984106D02*
X15782537Y-8991076D01*
X15831932Y-9108111D02*
X15831925Y-9118110D01*
X15816127Y-9185826D02*
X15811708Y-9194795D01*
X15533713Y-8869724D02*
X15539306Y-8878012D01*
X12674083Y-8936993D02*
X12664119Y-8937826D01*
X12786135Y-9367835D02*
X12790318Y-9376916D01*
X12763488Y-9335017D02*
X12769986Y-9342616D01*
X12637263Y-9286884D02*
X12647226Y-9287727D01*
X15581241Y-9309609D02*
X15572919Y-9315150D01*
X15676737Y-9286884D02*
X15666774Y-9287727D01*
X15816219Y-9040376D02*
X15820107Y-9049587D01*
X12730559Y-8918028D02*
X12721765Y-8922785D01*
X12790318Y-9376916D02*
X12792000Y-10108000D01*
X15257000Y-10373000D02*
X13057000Y-10373000D01*
X15782383Y-9235082D02*
X15775206Y-9242044D01*
X12747064Y-8906761D02*
X12739005Y-8912678D01*
X12721765Y-8922785D02*
X12712665Y-8926927D01*
X12483767Y-9088194D02*
X12482633Y-9098129D01*
X12789702Y-8852097D02*
X12785297Y-8861072D01*
X12554102Y-8971448D02*
X12546185Y-8977556D01*
X15696437Y-9283499D02*
X15686635Y-9285473D01*
X15666995Y-8938286D02*
X15676956Y-8939142D01*
X15775206Y-9242044D02*
X15767643Y-9248584D01*
X15550512Y-9335017D02*
X15544014Y-9342616D01*
X12507101Y-9022692D02*
X12502189Y-9031401D01*
X12696271Y-9293531D02*
X12705787Y-9296596D01*
X15831348Y-9128092D02*
X15830202Y-9138025D01*
X12666775Y-9288357D02*
X12676718Y-9289402D01*
X12754697Y-8900304D02*
X12747064Y-8906761D01*
X12485510Y-9147876D02*
X12487782Y-9157613D01*
X15608213Y-9296596D02*
X15598930Y-9300310D01*
X15820027Y-9176619D02*
X15816127Y-9185826D01*
X15523682Y-9376916D02*
X15522000Y-10108000D01*
X15734044Y-9270128D02*
X15724944Y-9274272D01*
X15589925Y-9304654D02*
X15581241Y-9309609D01*
X12686566Y-9291129D02*
X12696271Y-9293531D01*
X15583441Y-8918028D02*
X15592235Y-8922785D01*
X15830233Y-9088194D02*
X15831367Y-9098129D01*
X12775945Y-9350644D02*
X12781337Y-9359064D01*
X15532663Y-9359064D02*
X15527865Y-9367835D01*
X15767643Y-9248584D02*
X15759719Y-9254682D01*
X15831925Y-9118110D02*
X15831348Y-9128092D01*
X15564999Y-9321252D02*
X15557518Y-9327885D01*
X12769986Y-9342616D02*
X12775945Y-9350644D01*
X15630035Y-8935479D02*
X15639917Y-8936993D01*
X12676718Y-9289402D02*
X12686566Y-9291129D01*
X15706110Y-9280968D02*
X15696437Y-9283499D01*
X15647225Y-9288357D02*
X15637282Y-9289402D01*
D11*
D12*
X13917500Y-9378500D02*
X13992500Y-9453500D01*
X13992500Y-9378500D02*
X13917500Y-9453500D01*
X14117500Y-9378500D02*
X14192500Y-9453500D01*
X14192500Y-9378500D02*
X14117500Y-9453500D01*
X14317500Y-9378500D02*
X14392500Y-9453500D01*
X14392500Y-9378500D02*
X14317500Y-9453500D01*
D13*
X13097380Y-8213100D02*
G75*
G03*
X13097380Y-8213100I-40000J0D01*
G01*
X13097380Y-8413100D02*
G75*
G03*
X13097380Y-8413100I-40000J0D01*
G01*
X13097380Y-8613100D02*
G75*
G03*
X13097380Y-8613100I-40000J0D01*
G01*
X13097380Y-8813100D02*
G75*
G03*
X13097380Y-8813100I-40000J0D01*
G01*
X13097380Y-9013100D02*
G75*
G03*
X13097380Y-9013100I-40000J0D01*
G01*
X13097380Y-9213100D02*
G75*
G03*
X13097380Y-9213100I-40000J0D01*
G01*
X13097380Y-9413100D02*
G75*
G03*
X13097380Y-9413100I-40000J0D01*
G01*
X13097380Y-9613100D02*
G75*
G03*
X13097380Y-9613100I-40000J0D01*
G01*
X13097380Y-9813100D02*
G75*
G03*
X13097380Y-9813100I-40000J0D01*
G01*
X13097380Y-10013100D02*
G75*
G03*
X13097380Y-10013100I-40000J0D01*
G01*
X15296000Y-8213000D02*
G75*
G03*
X15296000Y-8213000I-40000J0D01*
G01*
X15296000Y-8413000D02*
G75*
G03*
X15296000Y-8413000I-40000J0D01*
G01*
X15296000Y-8613000D02*
G75*
G03*
X15296000Y-8613000I-40000J0D01*
G01*
X15296000Y-8813000D02*
G75*
G03*
X15296000Y-8813000I-40000J0D01*
G01*
X15296000Y-9013000D02*
G75*
G03*
X15296000Y-9013000I-40000J0D01*
G01*
X15296000Y-9213000D02*
G75*
G03*
X15296000Y-9213000I-40000J0D01*
G01*
X15296000Y-9413000D02*
G75*
G03*
X15296000Y-9413000I-40000J0D01*
G01*
X15296000Y-9613000D02*
G75*
G03*
X15296000Y-9613000I-40000J0D01*
G01*
X15296000Y-9813000D02*
G75*
G03*
X15296000Y-9813000I-40000J0D01*
G01*
X15296000Y-10013000D02*
G75*
G03*
X15296000Y-10013000I-40000J0D01*
G01*
D11*
X12735345Y-10691984D02*
X12735345Y-10491984D01*
X12735345Y-10491984D02*
X12782964Y-10491984D01*
X12782964Y-10491984D02*
X12811536Y-10501508D01*
X12811536Y-10501508D02*
X12830583Y-10520555D01*
X12830583Y-10520555D02*
X12840107Y-10539603D01*
X12840107Y-10539603D02*
X12849631Y-10577698D01*
X12849631Y-10577698D02*
X12849631Y-10606270D01*
X12849631Y-10606270D02*
X12840107Y-10644365D01*
X12840107Y-10644365D02*
X12830583Y-10663412D01*
X12830583Y-10663412D02*
X12811536Y-10682460D01*
X12811536Y-10682460D02*
X12782964Y-10691984D01*
X12782964Y-10691984D02*
X12735345Y-10691984D01*
X12935345Y-10691984D02*
X12935345Y-10558650D01*
X12935345Y-10596746D02*
X12944869Y-10577698D01*
X12944869Y-10577698D02*
X12954393Y-10568174D01*
X12954393Y-10568174D02*
X12973440Y-10558650D01*
X12973440Y-10558650D02*
X12992488Y-10558650D01*
X13059155Y-10691984D02*
X13059155Y-10558650D01*
X13059155Y-10491984D02*
X13049631Y-10501508D01*
X13049631Y-10501508D02*
X13059155Y-10511031D01*
X13059155Y-10511031D02*
X13068678Y-10501508D01*
X13068678Y-10501508D02*
X13059155Y-10491984D01*
X13059155Y-10491984D02*
X13059155Y-10511031D01*
X13182964Y-10691984D02*
X13163916Y-10682460D01*
X13163916Y-10682460D02*
X13154393Y-10663412D01*
X13154393Y-10663412D02*
X13154393Y-10491984D01*
X13287726Y-10691984D02*
X13268678Y-10682460D01*
X13268678Y-10682460D02*
X13259155Y-10663412D01*
X13259155Y-10663412D02*
X13259155Y-10491984D01*
X13516297Y-10691984D02*
X13516297Y-10491984D01*
X13516297Y-10491984D02*
X13582964Y-10634841D01*
X13582964Y-10634841D02*
X13649631Y-10491984D01*
X13649631Y-10491984D02*
X13649631Y-10691984D01*
X13830583Y-10691984D02*
X13830583Y-10587222D01*
X13830583Y-10587222D02*
X13821059Y-10568174D01*
X13821059Y-10568174D02*
X13802012Y-10558650D01*
X13802012Y-10558650D02*
X13763916Y-10558650D01*
X13763916Y-10558650D02*
X13744869Y-10568174D01*
X13830583Y-10682460D02*
X13811536Y-10691984D01*
X13811536Y-10691984D02*
X13763916Y-10691984D01*
X13763916Y-10691984D02*
X13744869Y-10682460D01*
X13744869Y-10682460D02*
X13735345Y-10663412D01*
X13735345Y-10663412D02*
X13735345Y-10644365D01*
X13735345Y-10644365D02*
X13744869Y-10625317D01*
X13744869Y-10625317D02*
X13763916Y-10615793D01*
X13763916Y-10615793D02*
X13811536Y-10615793D01*
X13811536Y-10615793D02*
X13830583Y-10606270D01*
X13925821Y-10558650D02*
X13925821Y-10758650D01*
X13925821Y-10568174D02*
X13944869Y-10558650D01*
X13944869Y-10558650D02*
X13982964Y-10558650D01*
X13982964Y-10558650D02*
X14002012Y-10568174D01*
X14002012Y-10568174D02*
X14011536Y-10577698D01*
X14011536Y-10577698D02*
X14021059Y-10596746D01*
X14021059Y-10596746D02*
X14021059Y-10653889D01*
X14021059Y-10653889D02*
X14011536Y-10672936D01*
X14011536Y-10672936D02*
X14002012Y-10682460D01*
X14002012Y-10682460D02*
X13982964Y-10691984D01*
X13982964Y-10691984D02*
X13944869Y-10691984D01*
X13944869Y-10691984D02*
X13925821Y-10682460D01*
X14106774Y-10672936D02*
X14116297Y-10682460D01*
X14116297Y-10682460D02*
X14106774Y-10691984D01*
X14106774Y-10691984D02*
X14097250Y-10682460D01*
X14097250Y-10682460D02*
X14106774Y-10672936D01*
X14106774Y-10672936D02*
X14106774Y-10691984D01*
X14106774Y-10568174D02*
X14116297Y-10577698D01*
X14116297Y-10577698D02*
X14106774Y-10587222D01*
X14106774Y-10587222D02*
X14097250Y-10577698D01*
X14097250Y-10577698D02*
X14106774Y-10568174D01*
X14106774Y-10568174D02*
X14106774Y-10587222D01*
D12*
X12399568Y-10983000D02*
X12474568Y-11058000D01*
X12474568Y-10983000D02*
X12399568Y-11058000D01*
D11*
X12773440Y-10911984D02*
X12792488Y-10911984D01*
X12792488Y-10911984D02*
X12811536Y-10921508D01*
X12811536Y-10921508D02*
X12821059Y-10931031D01*
X12821059Y-10931031D02*
X12830583Y-10950079D01*
X12830583Y-10950079D02*
X12840107Y-10988174D01*
X12840107Y-10988174D02*
X12840107Y-11035793D01*
X12840107Y-11035793D02*
X12830583Y-11073889D01*
X12830583Y-11073889D02*
X12821059Y-11092936D01*
X12821059Y-11092936D02*
X12811536Y-11102460D01*
X12811536Y-11102460D02*
X12792488Y-11111984D01*
X12792488Y-11111984D02*
X12773440Y-11111984D01*
X12773440Y-11111984D02*
X12754393Y-11102460D01*
X12754393Y-11102460D02*
X12744869Y-11092936D01*
X12744869Y-11092936D02*
X12735345Y-11073889D01*
X12735345Y-11073889D02*
X12725821Y-11035793D01*
X12725821Y-11035793D02*
X12725821Y-10988174D01*
X12725821Y-10988174D02*
X12735345Y-10950079D01*
X12735345Y-10950079D02*
X12744869Y-10931031D01*
X12744869Y-10931031D02*
X12754393Y-10921508D01*
X12754393Y-10921508D02*
X12773440Y-10911984D01*
X12925821Y-11092936D02*
X12935345Y-11102460D01*
X12935345Y-11102460D02*
X12925821Y-11111984D01*
X12925821Y-11111984D02*
X12916297Y-11102460D01*
X12916297Y-11102460D02*
X12925821Y-11092936D01*
X12925821Y-11092936D02*
X12925821Y-11111984D01*
X13002012Y-10911984D02*
X13135345Y-10911984D01*
X13135345Y-10911984D02*
X13049631Y-11111984D01*
X13306774Y-10911984D02*
X13211536Y-10911984D01*
X13211536Y-10911984D02*
X13202012Y-11007222D01*
X13202012Y-11007222D02*
X13211536Y-10997698D01*
X13211536Y-10997698D02*
X13230583Y-10988174D01*
X13230583Y-10988174D02*
X13278202Y-10988174D01*
X13278202Y-10988174D02*
X13297250Y-10997698D01*
X13297250Y-10997698D02*
X13306774Y-11007222D01*
X13306774Y-11007222D02*
X13316297Y-11026270D01*
X13316297Y-11026270D02*
X13316297Y-11073889D01*
X13316297Y-11073889D02*
X13306774Y-11092936D01*
X13306774Y-11092936D02*
X13297250Y-11102460D01*
X13297250Y-11102460D02*
X13278202Y-11111984D01*
X13278202Y-11111984D02*
X13230583Y-11111984D01*
X13230583Y-11111984D02*
X13211536Y-11102460D01*
X13211536Y-11102460D02*
X13202012Y-11092936D01*
X13440107Y-10911984D02*
X13459155Y-10911984D01*
X13459155Y-10911984D02*
X13478202Y-10921508D01*
X13478202Y-10921508D02*
X13487726Y-10931031D01*
X13487726Y-10931031D02*
X13497250Y-10950079D01*
X13497250Y-10950079D02*
X13506774Y-10988174D01*
X13506774Y-10988174D02*
X13506774Y-11035793D01*
X13506774Y-11035793D02*
X13497250Y-11073889D01*
X13497250Y-11073889D02*
X13487726Y-11092936D01*
X13487726Y-11092936D02*
X13478202Y-11102460D01*
X13478202Y-11102460D02*
X13459155Y-11111984D01*
X13459155Y-11111984D02*
X13440107Y-11111984D01*
X13440107Y-11111984D02*
X13421059Y-11102460D01*
X13421059Y-11102460D02*
X13411536Y-11092936D01*
X13411536Y-11092936D02*
X13402012Y-11073889D01*
X13402012Y-11073889D02*
X13392488Y-11035793D01*
X13392488Y-11035793D02*
X13392488Y-10988174D01*
X13392488Y-10988174D02*
X13402012Y-10950079D01*
X13402012Y-10950079D02*
X13411536Y-10931031D01*
X13411536Y-10931031D02*
X13421059Y-10921508D01*
X13421059Y-10921508D02*
X13440107Y-10911984D01*
X13592488Y-11111984D02*
X13592488Y-10978650D01*
X13592488Y-10997698D02*
X13602012Y-10988174D01*
X13602012Y-10988174D02*
X13621059Y-10978650D01*
X13621059Y-10978650D02*
X13649631Y-10978650D01*
X13649631Y-10978650D02*
X13668678Y-10988174D01*
X13668678Y-10988174D02*
X13678202Y-11007222D01*
X13678202Y-11007222D02*
X13678202Y-11111984D01*
X13678202Y-11007222D02*
X13687726Y-10988174D01*
X13687726Y-10988174D02*
X13706774Y-10978650D01*
X13706774Y-10978650D02*
X13735345Y-10978650D01*
X13735345Y-10978650D02*
X13754393Y-10988174D01*
X13754393Y-10988174D02*
X13763917Y-11007222D01*
X13763917Y-11007222D02*
X13763917Y-11111984D01*
X13859155Y-11111984D02*
X13859155Y-10978650D01*
X13859155Y-10997698D02*
X13868678Y-10988174D01*
X13868678Y-10988174D02*
X13887726Y-10978650D01*
X13887726Y-10978650D02*
X13916298Y-10978650D01*
X13916298Y-10978650D02*
X13935345Y-10988174D01*
X13935345Y-10988174D02*
X13944869Y-11007222D01*
X13944869Y-11007222D02*
X13944869Y-11111984D01*
X13944869Y-11007222D02*
X13954393Y-10988174D01*
X13954393Y-10988174D02*
X13973440Y-10978650D01*
X13973440Y-10978650D02*
X14002012Y-10978650D01*
X14002012Y-10978650D02*
X14021059Y-10988174D01*
X14021059Y-10988174D02*
X14030583Y-11007222D01*
X14030583Y-11007222D02*
X14030583Y-11111984D01*
X14421059Y-10902460D02*
X14249631Y-11159603D01*
X14678202Y-10911984D02*
X14697250Y-10911984D01*
X14697250Y-10911984D02*
X14716298Y-10921508D01*
X14716298Y-10921508D02*
X14725821Y-10931031D01*
X14725821Y-10931031D02*
X14735345Y-10950079D01*
X14735345Y-10950079D02*
X14744869Y-10988174D01*
X14744869Y-10988174D02*
X14744869Y-11035793D01*
X14744869Y-11035793D02*
X14735345Y-11073889D01*
X14735345Y-11073889D02*
X14725821Y-11092936D01*
X14725821Y-11092936D02*
X14716298Y-11102460D01*
X14716298Y-11102460D02*
X14697250Y-11111984D01*
X14697250Y-11111984D02*
X14678202Y-11111984D01*
X14678202Y-11111984D02*
X14659155Y-11102460D01*
X14659155Y-11102460D02*
X14649631Y-11092936D01*
X14649631Y-11092936D02*
X14640107Y-11073889D01*
X14640107Y-11073889D02*
X14630583Y-11035793D01*
X14630583Y-11035793D02*
X14630583Y-10988174D01*
X14630583Y-10988174D02*
X14640107Y-10950079D01*
X14640107Y-10950079D02*
X14649631Y-10931031D01*
X14649631Y-10931031D02*
X14659155Y-10921508D01*
X14659155Y-10921508D02*
X14678202Y-10911984D01*
X14830583Y-11092936D02*
X14840107Y-11102460D01*
X14840107Y-11102460D02*
X14830583Y-11111984D01*
X14830583Y-11111984D02*
X14821060Y-11102460D01*
X14821060Y-11102460D02*
X14830583Y-11092936D01*
X14830583Y-11092936D02*
X14830583Y-11111984D01*
X14963917Y-10911984D02*
X14982964Y-10911984D01*
X14982964Y-10911984D02*
X15002012Y-10921508D01*
X15002012Y-10921508D02*
X15011536Y-10931031D01*
X15011536Y-10931031D02*
X15021060Y-10950079D01*
X15021060Y-10950079D02*
X15030583Y-10988174D01*
X15030583Y-10988174D02*
X15030583Y-11035793D01*
X15030583Y-11035793D02*
X15021060Y-11073889D01*
X15021060Y-11073889D02*
X15011536Y-11092936D01*
X15011536Y-11092936D02*
X15002012Y-11102460D01*
X15002012Y-11102460D02*
X14982964Y-11111984D01*
X14982964Y-11111984D02*
X14963917Y-11111984D01*
X14963917Y-11111984D02*
X14944869Y-11102460D01*
X14944869Y-11102460D02*
X14935345Y-11092936D01*
X14935345Y-11092936D02*
X14925821Y-11073889D01*
X14925821Y-11073889D02*
X14916298Y-11035793D01*
X14916298Y-11035793D02*
X14916298Y-10988174D01*
X14916298Y-10988174D02*
X14925821Y-10950079D01*
X14925821Y-10950079D02*
X14935345Y-10931031D01*
X14935345Y-10931031D02*
X14944869Y-10921508D01*
X14944869Y-10921508D02*
X14963917Y-10911984D01*
X15106774Y-10931031D02*
X15116298Y-10921508D01*
X15116298Y-10921508D02*
X15135345Y-10911984D01*
X15135345Y-10911984D02*
X15182964Y-10911984D01*
X15182964Y-10911984D02*
X15202012Y-10921508D01*
X15202012Y-10921508D02*
X15211536Y-10931031D01*
X15211536Y-10931031D02*
X15221060Y-10950079D01*
X15221060Y-10950079D02*
X15221060Y-10969127D01*
X15221060Y-10969127D02*
X15211536Y-10997698D01*
X15211536Y-10997698D02*
X15097250Y-11111984D01*
X15097250Y-11111984D02*
X15221060Y-11111984D01*
X15316298Y-11111984D02*
X15354393Y-11111984D01*
X15354393Y-11111984D02*
X15373441Y-11102460D01*
X15373441Y-11102460D02*
X15382964Y-11092936D01*
X15382964Y-11092936D02*
X15402012Y-11064365D01*
X15402012Y-11064365D02*
X15411536Y-11026270D01*
X15411536Y-11026270D02*
X15411536Y-10950079D01*
X15411536Y-10950079D02*
X15402012Y-10931031D01*
X15402012Y-10931031D02*
X15392488Y-10921508D01*
X15392488Y-10921508D02*
X15373441Y-10911984D01*
X15373441Y-10911984D02*
X15335345Y-10911984D01*
X15335345Y-10911984D02*
X15316298Y-10921508D01*
X15316298Y-10921508D02*
X15306774Y-10931031D01*
X15306774Y-10931031D02*
X15297250Y-10950079D01*
X15297250Y-10950079D02*
X15297250Y-10997698D01*
X15297250Y-10997698D02*
X15306774Y-11016746D01*
X15306774Y-11016746D02*
X15316298Y-11026270D01*
X15316298Y-11026270D02*
X15335345Y-11035793D01*
X15335345Y-11035793D02*
X15373441Y-11035793D01*
X15373441Y-11035793D02*
X15392488Y-11026270D01*
X15392488Y-11026270D02*
X15402012Y-11016746D01*
X15402012Y-11016746D02*
X15411536Y-10997698D01*
X15592488Y-10911984D02*
X15497250Y-10911984D01*
X15497250Y-10911984D02*
X15487726Y-11007222D01*
X15487726Y-11007222D02*
X15497250Y-10997698D01*
X15497250Y-10997698D02*
X15516298Y-10988174D01*
X15516298Y-10988174D02*
X15563917Y-10988174D01*
X15563917Y-10988174D02*
X15582964Y-10997698D01*
X15582964Y-10997698D02*
X15592488Y-11007222D01*
X15592488Y-11007222D02*
X15602012Y-11026270D01*
X15602012Y-11026270D02*
X15602012Y-11073889D01*
X15602012Y-11073889D02*
X15592488Y-11092936D01*
X15592488Y-11092936D02*
X15582964Y-11102460D01*
X15582964Y-11102460D02*
X15563917Y-11111984D01*
X15563917Y-11111984D02*
X15516298Y-11111984D01*
X15516298Y-11111984D02*
X15497250Y-11102460D01*
X15497250Y-11102460D02*
X15487726Y-11092936D01*
X15678202Y-10911984D02*
X15678202Y-10950079D01*
X15754393Y-10911984D02*
X15754393Y-10950079D01*
X16049631Y-11188174D02*
X16040107Y-11178650D01*
X16040107Y-11178650D02*
X16021060Y-11150079D01*
X16021060Y-11150079D02*
X16011536Y-11131031D01*
X16011536Y-11131031D02*
X16002012Y-11102460D01*
X16002012Y-11102460D02*
X15992488Y-11054841D01*
X15992488Y-11054841D02*
X15992488Y-11016746D01*
X15992488Y-11016746D02*
X16002012Y-10969127D01*
X16002012Y-10969127D02*
X16011536Y-10940555D01*
X16011536Y-10940555D02*
X16021060Y-10921508D01*
X16021060Y-10921508D02*
X16040107Y-10892936D01*
X16040107Y-10892936D02*
X16049631Y-10883412D01*
X16106774Y-10911984D02*
X16230583Y-10911984D01*
X16230583Y-10911984D02*
X16163917Y-10988174D01*
X16163917Y-10988174D02*
X16192488Y-10988174D01*
X16192488Y-10988174D02*
X16211536Y-10997698D01*
X16211536Y-10997698D02*
X16221060Y-11007222D01*
X16221060Y-11007222D02*
X16230583Y-11026270D01*
X16230583Y-11026270D02*
X16230583Y-11073889D01*
X16230583Y-11073889D02*
X16221060Y-11092936D01*
X16221060Y-11092936D02*
X16211536Y-11102460D01*
X16211536Y-11102460D02*
X16192488Y-11111984D01*
X16192488Y-11111984D02*
X16135345Y-11111984D01*
X16135345Y-11111984D02*
X16116298Y-11102460D01*
X16116298Y-11102460D02*
X16106774Y-11092936D01*
X16468679Y-11111984D02*
X16468679Y-10911984D01*
X16554393Y-11111984D02*
X16554393Y-11007222D01*
X16554393Y-11007222D02*
X16544869Y-10988174D01*
X16544869Y-10988174D02*
X16525822Y-10978650D01*
X16525822Y-10978650D02*
X16497250Y-10978650D01*
X16497250Y-10978650D02*
X16478203Y-10988174D01*
X16478203Y-10988174D02*
X16468679Y-10997698D01*
X16678203Y-11111984D02*
X16659155Y-11102460D01*
X16659155Y-11102460D02*
X16649631Y-11092936D01*
X16649631Y-11092936D02*
X16640107Y-11073889D01*
X16640107Y-11073889D02*
X16640107Y-11016746D01*
X16640107Y-11016746D02*
X16649631Y-10997698D01*
X16649631Y-10997698D02*
X16659155Y-10988174D01*
X16659155Y-10988174D02*
X16678203Y-10978650D01*
X16678203Y-10978650D02*
X16706774Y-10978650D01*
X16706774Y-10978650D02*
X16725822Y-10988174D01*
X16725822Y-10988174D02*
X16735345Y-10997698D01*
X16735345Y-10997698D02*
X16744869Y-11016746D01*
X16744869Y-11016746D02*
X16744869Y-11073889D01*
X16744869Y-11073889D02*
X16735345Y-11092936D01*
X16735345Y-11092936D02*
X16725822Y-11102460D01*
X16725822Y-11102460D02*
X16706774Y-11111984D01*
X16706774Y-11111984D02*
X16678203Y-11111984D01*
X16859155Y-11111984D02*
X16840107Y-11102460D01*
X16840107Y-11102460D02*
X16830584Y-11083412D01*
X16830584Y-11083412D02*
X16830584Y-10911984D01*
X17011536Y-11102460D02*
X16992488Y-11111984D01*
X16992488Y-11111984D02*
X16954393Y-11111984D01*
X16954393Y-11111984D02*
X16935346Y-11102460D01*
X16935346Y-11102460D02*
X16925822Y-11083412D01*
X16925822Y-11083412D02*
X16925822Y-11007222D01*
X16925822Y-11007222D02*
X16935346Y-10988174D01*
X16935346Y-10988174D02*
X16954393Y-10978650D01*
X16954393Y-10978650D02*
X16992488Y-10978650D01*
X16992488Y-10978650D02*
X17011536Y-10988174D01*
X17011536Y-10988174D02*
X17021060Y-11007222D01*
X17021060Y-11007222D02*
X17021060Y-11026270D01*
X17021060Y-11026270D02*
X16925822Y-11045317D01*
X17097250Y-11102460D02*
X17116298Y-11111984D01*
X17116298Y-11111984D02*
X17154393Y-11111984D01*
X17154393Y-11111984D02*
X17173441Y-11102460D01*
X17173441Y-11102460D02*
X17182965Y-11083412D01*
X17182965Y-11083412D02*
X17182965Y-11073889D01*
X17182965Y-11073889D02*
X17173441Y-11054841D01*
X17173441Y-11054841D02*
X17154393Y-11045317D01*
X17154393Y-11045317D02*
X17125822Y-11045317D01*
X17125822Y-11045317D02*
X17106774Y-11035793D01*
X17106774Y-11035793D02*
X17097250Y-11016746D01*
X17097250Y-11016746D02*
X17097250Y-11007222D01*
X17097250Y-11007222D02*
X17106774Y-10988174D01*
X17106774Y-10988174D02*
X17125822Y-10978650D01*
X17125822Y-10978650D02*
X17154393Y-10978650D01*
X17154393Y-10978650D02*
X17173441Y-10988174D01*
X17249631Y-11188174D02*
X17259155Y-11178650D01*
X17259155Y-11178650D02*
X17278203Y-11150079D01*
X17278203Y-11150079D02*
X17287727Y-11131031D01*
X17287727Y-11131031D02*
X17297250Y-11102460D01*
X17297250Y-11102460D02*
X17306774Y-11054841D01*
X17306774Y-11054841D02*
X17306774Y-11016746D01*
X17306774Y-11016746D02*
X17297250Y-10969127D01*
X17297250Y-10969127D02*
X17287727Y-10940555D01*
X17287727Y-10940555D02*
X17278203Y-10921508D01*
X17278203Y-10921508D02*
X17259155Y-10892936D01*
X17259155Y-10892936D02*
X17249631Y-10883412D01*
D13*
X12474568Y-11284500D02*
G75*
G03*
X12474568Y-11284500I-40000J0D01*
G01*
D11*
X12773440Y-11175984D02*
X12792488Y-11175984D01*
X12792488Y-11175984D02*
X12811536Y-11185508D01*
X12811536Y-11185508D02*
X12821059Y-11195031D01*
X12821059Y-11195031D02*
X12830583Y-11214079D01*
X12830583Y-11214079D02*
X12840107Y-11252174D01*
X12840107Y-11252174D02*
X12840107Y-11299793D01*
X12840107Y-11299793D02*
X12830583Y-11337888D01*
X12830583Y-11337888D02*
X12821059Y-11356936D01*
X12821059Y-11356936D02*
X12811536Y-11366460D01*
X12811536Y-11366460D02*
X12792488Y-11375984D01*
X12792488Y-11375984D02*
X12773440Y-11375984D01*
X12773440Y-11375984D02*
X12754393Y-11366460D01*
X12754393Y-11366460D02*
X12744869Y-11356936D01*
X12744869Y-11356936D02*
X12735345Y-11337888D01*
X12735345Y-11337888D02*
X12725821Y-11299793D01*
X12725821Y-11299793D02*
X12725821Y-11252174D01*
X12725821Y-11252174D02*
X12735345Y-11214079D01*
X12735345Y-11214079D02*
X12744869Y-11195031D01*
X12744869Y-11195031D02*
X12754393Y-11185508D01*
X12754393Y-11185508D02*
X12773440Y-11175984D01*
X12925821Y-11356936D02*
X12935345Y-11366460D01*
X12935345Y-11366460D02*
X12925821Y-11375984D01*
X12925821Y-11375984D02*
X12916297Y-11366460D01*
X12916297Y-11366460D02*
X12925821Y-11356936D01*
X12925821Y-11356936D02*
X12925821Y-11375984D01*
X13049631Y-11261698D02*
X13030583Y-11252174D01*
X13030583Y-11252174D02*
X13021059Y-11242650D01*
X13021059Y-11242650D02*
X13011536Y-11223603D01*
X13011536Y-11223603D02*
X13011536Y-11214079D01*
X13011536Y-11214079D02*
X13021059Y-11195031D01*
X13021059Y-11195031D02*
X13030583Y-11185508D01*
X13030583Y-11185508D02*
X13049631Y-11175984D01*
X13049631Y-11175984D02*
X13087726Y-11175984D01*
X13087726Y-11175984D02*
X13106774Y-11185508D01*
X13106774Y-11185508D02*
X13116297Y-11195031D01*
X13116297Y-11195031D02*
X13125821Y-11214079D01*
X13125821Y-11214079D02*
X13125821Y-11223603D01*
X13125821Y-11223603D02*
X13116297Y-11242650D01*
X13116297Y-11242650D02*
X13106774Y-11252174D01*
X13106774Y-11252174D02*
X13087726Y-11261698D01*
X13087726Y-11261698D02*
X13049631Y-11261698D01*
X13049631Y-11261698D02*
X13030583Y-11271222D01*
X13030583Y-11271222D02*
X13021059Y-11280746D01*
X13021059Y-11280746D02*
X13011536Y-11299793D01*
X13011536Y-11299793D02*
X13011536Y-11337888D01*
X13011536Y-11337888D02*
X13021059Y-11356936D01*
X13021059Y-11356936D02*
X13030583Y-11366460D01*
X13030583Y-11366460D02*
X13049631Y-11375984D01*
X13049631Y-11375984D02*
X13087726Y-11375984D01*
X13087726Y-11375984D02*
X13106774Y-11366460D01*
X13106774Y-11366460D02*
X13116297Y-11356936D01*
X13116297Y-11356936D02*
X13125821Y-11337888D01*
X13125821Y-11337888D02*
X13125821Y-11299793D01*
X13125821Y-11299793D02*
X13116297Y-11280746D01*
X13116297Y-11280746D02*
X13106774Y-11271222D01*
X13106774Y-11271222D02*
X13087726Y-11261698D01*
X13249631Y-11175984D02*
X13268678Y-11175984D01*
X13268678Y-11175984D02*
X13287726Y-11185508D01*
X13287726Y-11185508D02*
X13297250Y-11195031D01*
X13297250Y-11195031D02*
X13306774Y-11214079D01*
X13306774Y-11214079D02*
X13316297Y-11252174D01*
X13316297Y-11252174D02*
X13316297Y-11299793D01*
X13316297Y-11299793D02*
X13306774Y-11337888D01*
X13306774Y-11337888D02*
X13297250Y-11356936D01*
X13297250Y-11356936D02*
X13287726Y-11366460D01*
X13287726Y-11366460D02*
X13268678Y-11375984D01*
X13268678Y-11375984D02*
X13249631Y-11375984D01*
X13249631Y-11375984D02*
X13230583Y-11366460D01*
X13230583Y-11366460D02*
X13221059Y-11356936D01*
X13221059Y-11356936D02*
X13211536Y-11337888D01*
X13211536Y-11337888D02*
X13202012Y-11299793D01*
X13202012Y-11299793D02*
X13202012Y-11252174D01*
X13202012Y-11252174D02*
X13211536Y-11214079D01*
X13211536Y-11214079D02*
X13221059Y-11195031D01*
X13221059Y-11195031D02*
X13230583Y-11185508D01*
X13230583Y-11185508D02*
X13249631Y-11175984D01*
X13440107Y-11175984D02*
X13459155Y-11175984D01*
X13459155Y-11175984D02*
X13478202Y-11185508D01*
X13478202Y-11185508D02*
X13487726Y-11195031D01*
X13487726Y-11195031D02*
X13497250Y-11214079D01*
X13497250Y-11214079D02*
X13506774Y-11252174D01*
X13506774Y-11252174D02*
X13506774Y-11299793D01*
X13506774Y-11299793D02*
X13497250Y-11337888D01*
X13497250Y-11337888D02*
X13487726Y-11356936D01*
X13487726Y-11356936D02*
X13478202Y-11366460D01*
X13478202Y-11366460D02*
X13459155Y-11375984D01*
X13459155Y-11375984D02*
X13440107Y-11375984D01*
X13440107Y-11375984D02*
X13421059Y-11366460D01*
X13421059Y-11366460D02*
X13411536Y-11356936D01*
X13411536Y-11356936D02*
X13402012Y-11337888D01*
X13402012Y-11337888D02*
X13392488Y-11299793D01*
X13392488Y-11299793D02*
X13392488Y-11252174D01*
X13392488Y-11252174D02*
X13402012Y-11214079D01*
X13402012Y-11214079D02*
X13411536Y-11195031D01*
X13411536Y-11195031D02*
X13421059Y-11185508D01*
X13421059Y-11185508D02*
X13440107Y-11175984D01*
X13592488Y-11375984D02*
X13592488Y-11242650D01*
X13592488Y-11261698D02*
X13602012Y-11252174D01*
X13602012Y-11252174D02*
X13621059Y-11242650D01*
X13621059Y-11242650D02*
X13649631Y-11242650D01*
X13649631Y-11242650D02*
X13668678Y-11252174D01*
X13668678Y-11252174D02*
X13678202Y-11271222D01*
X13678202Y-11271222D02*
X13678202Y-11375984D01*
X13678202Y-11271222D02*
X13687726Y-11252174D01*
X13687726Y-11252174D02*
X13706774Y-11242650D01*
X13706774Y-11242650D02*
X13735345Y-11242650D01*
X13735345Y-11242650D02*
X13754393Y-11252174D01*
X13754393Y-11252174D02*
X13763917Y-11271222D01*
X13763917Y-11271222D02*
X13763917Y-11375984D01*
X13859155Y-11375984D02*
X13859155Y-11242650D01*
X13859155Y-11261698D02*
X13868678Y-11252174D01*
X13868678Y-11252174D02*
X13887726Y-11242650D01*
X13887726Y-11242650D02*
X13916298Y-11242650D01*
X13916298Y-11242650D02*
X13935345Y-11252174D01*
X13935345Y-11252174D02*
X13944869Y-11271222D01*
X13944869Y-11271222D02*
X13944869Y-11375984D01*
X13944869Y-11271222D02*
X13954393Y-11252174D01*
X13954393Y-11252174D02*
X13973440Y-11242650D01*
X13973440Y-11242650D02*
X14002012Y-11242650D01*
X14002012Y-11242650D02*
X14021059Y-11252174D01*
X14021059Y-11252174D02*
X14030583Y-11271222D01*
X14030583Y-11271222D02*
X14030583Y-11375984D01*
X14421059Y-11166460D02*
X14249631Y-11423603D01*
X14678202Y-11175984D02*
X14697250Y-11175984D01*
X14697250Y-11175984D02*
X14716298Y-11185508D01*
X14716298Y-11185508D02*
X14725821Y-11195031D01*
X14725821Y-11195031D02*
X14735345Y-11214079D01*
X14735345Y-11214079D02*
X14744869Y-11252174D01*
X14744869Y-11252174D02*
X14744869Y-11299793D01*
X14744869Y-11299793D02*
X14735345Y-11337888D01*
X14735345Y-11337888D02*
X14725821Y-11356936D01*
X14725821Y-11356936D02*
X14716298Y-11366460D01*
X14716298Y-11366460D02*
X14697250Y-11375984D01*
X14697250Y-11375984D02*
X14678202Y-11375984D01*
X14678202Y-11375984D02*
X14659155Y-11366460D01*
X14659155Y-11366460D02*
X14649631Y-11356936D01*
X14649631Y-11356936D02*
X14640107Y-11337888D01*
X14640107Y-11337888D02*
X14630583Y-11299793D01*
X14630583Y-11299793D02*
X14630583Y-11252174D01*
X14630583Y-11252174D02*
X14640107Y-11214079D01*
X14640107Y-11214079D02*
X14649631Y-11195031D01*
X14649631Y-11195031D02*
X14659155Y-11185508D01*
X14659155Y-11185508D02*
X14678202Y-11175984D01*
X14830583Y-11356936D02*
X14840107Y-11366460D01*
X14840107Y-11366460D02*
X14830583Y-11375984D01*
X14830583Y-11375984D02*
X14821060Y-11366460D01*
X14821060Y-11366460D02*
X14830583Y-11356936D01*
X14830583Y-11356936D02*
X14830583Y-11375984D01*
X14963917Y-11175984D02*
X14982964Y-11175984D01*
X14982964Y-11175984D02*
X15002012Y-11185508D01*
X15002012Y-11185508D02*
X15011536Y-11195031D01*
X15011536Y-11195031D02*
X15021060Y-11214079D01*
X15021060Y-11214079D02*
X15030583Y-11252174D01*
X15030583Y-11252174D02*
X15030583Y-11299793D01*
X15030583Y-11299793D02*
X15021060Y-11337888D01*
X15021060Y-11337888D02*
X15011536Y-11356936D01*
X15011536Y-11356936D02*
X15002012Y-11366460D01*
X15002012Y-11366460D02*
X14982964Y-11375984D01*
X14982964Y-11375984D02*
X14963917Y-11375984D01*
X14963917Y-11375984D02*
X14944869Y-11366460D01*
X14944869Y-11366460D02*
X14935345Y-11356936D01*
X14935345Y-11356936D02*
X14925821Y-11337888D01*
X14925821Y-11337888D02*
X14916298Y-11299793D01*
X14916298Y-11299793D02*
X14916298Y-11252174D01*
X14916298Y-11252174D02*
X14925821Y-11214079D01*
X14925821Y-11214079D02*
X14935345Y-11195031D01*
X14935345Y-11195031D02*
X14944869Y-11185508D01*
X14944869Y-11185508D02*
X14963917Y-11175984D01*
X15097250Y-11175984D02*
X15221060Y-11175984D01*
X15221060Y-11175984D02*
X15154393Y-11252174D01*
X15154393Y-11252174D02*
X15182964Y-11252174D01*
X15182964Y-11252174D02*
X15202012Y-11261698D01*
X15202012Y-11261698D02*
X15211536Y-11271222D01*
X15211536Y-11271222D02*
X15221060Y-11290269D01*
X15221060Y-11290269D02*
X15221060Y-11337888D01*
X15221060Y-11337888D02*
X15211536Y-11356936D01*
X15211536Y-11356936D02*
X15202012Y-11366460D01*
X15202012Y-11366460D02*
X15182964Y-11375984D01*
X15182964Y-11375984D02*
X15125821Y-11375984D01*
X15125821Y-11375984D02*
X15106774Y-11366460D01*
X15106774Y-11366460D02*
X15097250Y-11356936D01*
X15411536Y-11375984D02*
X15297250Y-11375984D01*
X15354393Y-11375984D02*
X15354393Y-11175984D01*
X15354393Y-11175984D02*
X15335345Y-11204555D01*
X15335345Y-11204555D02*
X15316298Y-11223603D01*
X15316298Y-11223603D02*
X15297250Y-11233127D01*
X15592488Y-11175984D02*
X15497250Y-11175984D01*
X15497250Y-11175984D02*
X15487726Y-11271222D01*
X15487726Y-11271222D02*
X15497250Y-11261698D01*
X15497250Y-11261698D02*
X15516298Y-11252174D01*
X15516298Y-11252174D02*
X15563917Y-11252174D01*
X15563917Y-11252174D02*
X15582964Y-11261698D01*
X15582964Y-11261698D02*
X15592488Y-11271222D01*
X15592488Y-11271222D02*
X15602012Y-11290269D01*
X15602012Y-11290269D02*
X15602012Y-11337888D01*
X15602012Y-11337888D02*
X15592488Y-11356936D01*
X15592488Y-11356936D02*
X15582964Y-11366460D01*
X15582964Y-11366460D02*
X15563917Y-11375984D01*
X15563917Y-11375984D02*
X15516298Y-11375984D01*
X15516298Y-11375984D02*
X15497250Y-11366460D01*
X15497250Y-11366460D02*
X15487726Y-11356936D01*
X15678202Y-11175984D02*
X15678202Y-11214079D01*
X15754393Y-11175984D02*
X15754393Y-11214079D01*
X16049631Y-11452174D02*
X16040107Y-11442650D01*
X16040107Y-11442650D02*
X16021060Y-11414079D01*
X16021060Y-11414079D02*
X16011536Y-11395031D01*
X16011536Y-11395031D02*
X16002012Y-11366460D01*
X16002012Y-11366460D02*
X15992488Y-11318841D01*
X15992488Y-11318841D02*
X15992488Y-11280746D01*
X15992488Y-11280746D02*
X16002012Y-11233127D01*
X16002012Y-11233127D02*
X16011536Y-11204555D01*
X16011536Y-11204555D02*
X16021060Y-11185508D01*
X16021060Y-11185508D02*
X16040107Y-11156936D01*
X16040107Y-11156936D02*
X16049631Y-11147412D01*
X16116298Y-11195031D02*
X16125822Y-11185508D01*
X16125822Y-11185508D02*
X16144869Y-11175984D01*
X16144869Y-11175984D02*
X16192488Y-11175984D01*
X16192488Y-11175984D02*
X16211536Y-11185508D01*
X16211536Y-11185508D02*
X16221060Y-11195031D01*
X16221060Y-11195031D02*
X16230583Y-11214079D01*
X16230583Y-11214079D02*
X16230583Y-11233127D01*
X16230583Y-11233127D02*
X16221060Y-11261698D01*
X16221060Y-11261698D02*
X16106774Y-11375984D01*
X16106774Y-11375984D02*
X16230583Y-11375984D01*
X16354393Y-11175984D02*
X16373441Y-11175984D01*
X16373441Y-11175984D02*
X16392488Y-11185508D01*
X16392488Y-11185508D02*
X16402012Y-11195031D01*
X16402012Y-11195031D02*
X16411536Y-11214079D01*
X16411536Y-11214079D02*
X16421060Y-11252174D01*
X16421060Y-11252174D02*
X16421060Y-11299793D01*
X16421060Y-11299793D02*
X16411536Y-11337888D01*
X16411536Y-11337888D02*
X16402012Y-11356936D01*
X16402012Y-11356936D02*
X16392488Y-11366460D01*
X16392488Y-11366460D02*
X16373441Y-11375984D01*
X16373441Y-11375984D02*
X16354393Y-11375984D01*
X16354393Y-11375984D02*
X16335345Y-11366460D01*
X16335345Y-11366460D02*
X16325822Y-11356936D01*
X16325822Y-11356936D02*
X16316298Y-11337888D01*
X16316298Y-11337888D02*
X16306774Y-11299793D01*
X16306774Y-11299793D02*
X16306774Y-11252174D01*
X16306774Y-11252174D02*
X16316298Y-11214079D01*
X16316298Y-11214079D02*
X16325822Y-11195031D01*
X16325822Y-11195031D02*
X16335345Y-11185508D01*
X16335345Y-11185508D02*
X16354393Y-11175984D01*
X16659155Y-11375984D02*
X16659155Y-11175984D01*
X16744869Y-11375984D02*
X16744869Y-11271222D01*
X16744869Y-11271222D02*
X16735345Y-11252174D01*
X16735345Y-11252174D02*
X16716298Y-11242650D01*
X16716298Y-11242650D02*
X16687726Y-11242650D01*
X16687726Y-11242650D02*
X16668679Y-11252174D01*
X16668679Y-11252174D02*
X16659155Y-11261698D01*
X16868679Y-11375984D02*
X16849631Y-11366460D01*
X16849631Y-11366460D02*
X16840107Y-11356936D01*
X16840107Y-11356936D02*
X16830584Y-11337888D01*
X16830584Y-11337888D02*
X16830584Y-11280746D01*
X16830584Y-11280746D02*
X16840107Y-11261698D01*
X16840107Y-11261698D02*
X16849631Y-11252174D01*
X16849631Y-11252174D02*
X16868679Y-11242650D01*
X16868679Y-11242650D02*
X16897250Y-11242650D01*
X16897250Y-11242650D02*
X16916298Y-11252174D01*
X16916298Y-11252174D02*
X16925822Y-11261698D01*
X16925822Y-11261698D02*
X16935346Y-11280746D01*
X16935346Y-11280746D02*
X16935346Y-11337888D01*
X16935346Y-11337888D02*
X16925822Y-11356936D01*
X16925822Y-11356936D02*
X16916298Y-11366460D01*
X16916298Y-11366460D02*
X16897250Y-11375984D01*
X16897250Y-11375984D02*
X16868679Y-11375984D01*
X17049631Y-11375984D02*
X17030584Y-11366460D01*
X17030584Y-11366460D02*
X17021060Y-11347412D01*
X17021060Y-11347412D02*
X17021060Y-11175984D01*
X17202012Y-11366460D02*
X17182965Y-11375984D01*
X17182965Y-11375984D02*
X17144869Y-11375984D01*
X17144869Y-11375984D02*
X17125822Y-11366460D01*
X17125822Y-11366460D02*
X17116298Y-11347412D01*
X17116298Y-11347412D02*
X17116298Y-11271222D01*
X17116298Y-11271222D02*
X17125822Y-11252174D01*
X17125822Y-11252174D02*
X17144869Y-11242650D01*
X17144869Y-11242650D02*
X17182965Y-11242650D01*
X17182965Y-11242650D02*
X17202012Y-11252174D01*
X17202012Y-11252174D02*
X17211536Y-11271222D01*
X17211536Y-11271222D02*
X17211536Y-11290269D01*
X17211536Y-11290269D02*
X17116298Y-11309317D01*
X17287727Y-11366460D02*
X17306774Y-11375984D01*
X17306774Y-11375984D02*
X17344869Y-11375984D01*
X17344869Y-11375984D02*
X17363917Y-11366460D01*
X17363917Y-11366460D02*
X17373441Y-11347412D01*
X17373441Y-11347412D02*
X17373441Y-11337888D01*
X17373441Y-11337888D02*
X17363917Y-11318841D01*
X17363917Y-11318841D02*
X17344869Y-11309317D01*
X17344869Y-11309317D02*
X17316298Y-11309317D01*
X17316298Y-11309317D02*
X17297250Y-11299793D01*
X17297250Y-11299793D02*
X17287727Y-11280746D01*
X17287727Y-11280746D02*
X17287727Y-11271222D01*
X17287727Y-11271222D02*
X17297250Y-11252174D01*
X17297250Y-11252174D02*
X17316298Y-11242650D01*
X17316298Y-11242650D02*
X17344869Y-11242650D01*
X17344869Y-11242650D02*
X17363917Y-11252174D01*
X17440108Y-11452174D02*
X17449631Y-11442650D01*
X17449631Y-11442650D02*
X17468679Y-11414079D01*
X17468679Y-11414079D02*
X17478203Y-11395031D01*
X17478203Y-11395031D02*
X17487727Y-11366460D01*
X17487727Y-11366460D02*
X17497250Y-11318841D01*
X17497250Y-11318841D02*
X17497250Y-11280746D01*
X17497250Y-11280746D02*
X17487727Y-11233127D01*
X17487727Y-11233127D02*
X17478203Y-11204555D01*
X17478203Y-11204555D02*
X17468679Y-11185508D01*
X17468679Y-11185508D02*
X17449631Y-11156936D01*
X17449631Y-11156936D02*
X17440108Y-11147412D01*
M02*
