%TF.GenerationSoftware,KiCad,Pcbnew,7.0.7*%
%TF.CreationDate,2023-10-04T17:00:30-06:00*%
%TF.ProjectId,FPV_3-Pin_Module,4650565f-332d-4506-996e-5f4d6f64756c,rev?*%
%TF.SameCoordinates,Original*%
%TF.FileFunction,Drillmap*%
%TF.FilePolarity,Positive*%
%FSLAX45Y45*%
G04 Gerber Fmt 4.5, Leading zero omitted, Abs format (unit mm)*
G04 Created by KiCad (PCBNEW 7.0.7) date 2023-10-04 17:00:30*
%MOMM*%
%LPD*%
G01*
G04 APERTURE LIST*
%ADD10C,0.150000*%
%ADD11C,0.200000*%
G04 APERTURE END LIST*
D10*
X15806898Y-9022692D02*
X15811811Y-9031401D01*
X12579956Y-9270128D02*
X12589056Y-9274272D01*
X15795622Y-9006188D02*
X15801496Y-9014279D01*
D11*
X12792000Y-9113000D02*
G75*
G03*
X12792000Y-9113000I-135000J0D01*
G01*
D10*
X12741081Y-9315150D02*
X12749001Y-9321252D01*
X15801496Y-9014279D02*
X15806898Y-9022692D01*
X15524298Y-8852097D02*
X15528703Y-8861072D01*
X12518513Y-9219988D02*
X12524849Y-9227722D01*
X15795487Y-9219988D02*
X15789151Y-9227722D01*
X12627147Y-8940565D02*
X12617347Y-8942552D01*
X12712665Y-8926927D02*
X12703302Y-8930433D01*
X12657000Y-8938000D02*
X12647005Y-8938286D01*
X15520521Y-8842840D02*
X15524298Y-8852097D01*
X12579757Y-8955969D02*
X12570915Y-8960637D01*
X15545455Y-8885895D02*
X15552131Y-8893338D01*
X15566936Y-8906761D02*
X15574995Y-8912678D01*
X12538794Y-9242044D02*
X12546357Y-9248584D01*
X12588852Y-8951814D02*
X12579757Y-8955969D01*
X12792000Y-8118000D02*
X12867000Y-8043000D01*
X15823394Y-9167204D02*
X15820027Y-9176619D01*
X15447000Y-8043000D02*
X15257000Y-7853000D01*
X12761869Y-8893338D02*
X12754697Y-8900304D01*
X12781337Y-9359064D02*
X12786135Y-9367835D01*
X15782537Y-8991076D02*
X15789296Y-8998445D01*
X12724075Y-9304654D02*
X12732759Y-9309609D01*
X12512629Y-9211904D02*
X12518513Y-9219988D01*
X12524849Y-9227722D02*
X12531617Y-9235082D01*
X15706322Y-8945094D02*
X15715831Y-8948185D01*
X15522000Y-10108000D02*
X15447000Y-10183000D01*
X15598930Y-9300310D02*
X15589925Y-9304654D01*
X15828534Y-9078341D02*
X15830233Y-9088194D01*
X15830202Y-9138025D02*
X15828490Y-9147876D01*
X12482633Y-9098129D02*
X12482068Y-9108111D01*
X15828490Y-9147876D02*
X15826218Y-9157613D01*
X15759719Y-9254682D02*
X15751460Y-9260317D01*
X12487726Y-9068601D02*
X12485466Y-9078341D01*
X12531463Y-8991076D02*
X12524704Y-8998445D01*
X15826218Y-9157613D02*
X15823394Y-9167204D01*
X12598377Y-9277889D02*
X12607890Y-9280968D01*
X15539306Y-8878012D02*
X15545455Y-8885895D01*
X15823462Y-9059006D02*
X15826274Y-9068601D01*
X12793479Y-8842840D02*
X12792000Y-8118000D01*
X12703302Y-8930433D02*
X12693720Y-8933288D01*
X15592235Y-8922785D02*
X15601335Y-8926927D01*
X12756482Y-9327885D02*
X12763488Y-9335017D01*
X12483798Y-9138025D02*
X12485510Y-9147876D01*
X15743085Y-8960637D02*
X15751646Y-8965802D01*
X12739005Y-8912678D02*
X12730559Y-8918028D01*
X15649881Y-8937826D02*
X15657000Y-8938000D01*
X15657217Y-9288000D02*
X15647225Y-9288357D01*
X12518378Y-9006188D02*
X12512504Y-9014279D01*
D11*
X15792000Y-9113000D02*
G75*
G03*
X15792000Y-9113000I-135000J0D01*
G01*
D10*
X12785297Y-8861072D02*
X12780287Y-8869724D01*
X15811811Y-9031401D02*
X15816219Y-9040376D01*
X12524704Y-8998445D02*
X12518378Y-9006188D01*
X12546185Y-8977556D02*
X12538631Y-8984106D01*
X15724944Y-9274272D02*
X15715623Y-9277889D01*
X15715623Y-9277889D02*
X15706110Y-9280968D01*
X12538631Y-8984106D02*
X12531463Y-8991076D01*
X12493973Y-9176619D02*
X12497873Y-9185826D01*
X12693720Y-8933288D02*
X12683965Y-8935479D01*
X15751646Y-8965802D02*
X15759898Y-8971448D01*
X15742892Y-9265472D02*
X15734044Y-9270128D01*
X12497873Y-9185826D02*
X12502292Y-9194795D01*
X12656783Y-9288000D02*
X12666775Y-9288357D01*
X12705787Y-9296596D02*
X12715070Y-9300310D01*
X15637282Y-9289402D02*
X15627434Y-9291129D01*
X15617729Y-9293531D02*
X15608213Y-9296596D01*
X15789296Y-8998445D02*
X15795622Y-9006188D01*
X15831367Y-9098129D02*
X15831932Y-9108111D01*
X12493893Y-9049587D02*
X12490538Y-9059006D01*
X12637043Y-8939142D02*
X12627147Y-8940565D01*
X12768545Y-8885895D02*
X12761869Y-8893338D01*
X15639917Y-8936993D02*
X15649881Y-8937826D01*
X15522000Y-8118000D02*
X15447000Y-8043000D01*
X12482652Y-9128092D02*
X12483798Y-9138025D01*
X15751460Y-9260317D02*
X15742892Y-9265472D01*
X15801371Y-9211904D02*
X15795487Y-9219988D01*
X15620280Y-8933288D02*
X15630035Y-8935479D01*
X15610698Y-8930433D02*
X15620280Y-8933288D01*
X15557518Y-9327885D02*
X15550512Y-9335017D01*
X12507216Y-9203497D02*
X12512629Y-9211904D01*
X12793479Y-8842840D02*
X12789702Y-8852097D01*
X15686635Y-9285473D02*
X15676737Y-9286884D01*
X12482068Y-9108111D02*
X12482075Y-9118110D01*
X15734243Y-8955969D02*
X15743085Y-8960637D01*
X12487782Y-9157613D02*
X12490606Y-9167204D01*
X12598169Y-8948185D02*
X12588852Y-8951814D01*
X12607677Y-8945094D02*
X12598169Y-8948185D01*
X12502189Y-9031401D02*
X12497781Y-9040376D01*
X15572919Y-9315150D02*
X15564999Y-9321252D01*
X12512504Y-9014279D02*
X12507101Y-9022692D01*
X12664119Y-8937826D02*
X12657000Y-8938000D01*
X15725148Y-8951814D02*
X15734243Y-8955969D01*
X15538055Y-9350644D02*
X15532663Y-9359064D01*
X12570915Y-8960637D02*
X12562354Y-8965802D01*
X12683965Y-8935479D02*
X12674083Y-8936993D01*
X13057000Y-7853000D02*
X15077000Y-7853000D01*
X15601335Y-8926927D02*
X15610698Y-8930433D01*
X12792000Y-10108000D02*
X12867000Y-10183000D01*
X15627434Y-9291129D02*
X15617729Y-9293531D01*
X15686853Y-8940565D02*
X15696653Y-8942552D01*
X12617563Y-9283499D02*
X12627365Y-9285473D01*
X15696653Y-8942552D02*
X15706322Y-8945094D01*
X15715831Y-8948185D02*
X15725148Y-8951814D01*
X12554281Y-9254682D02*
X12562540Y-9260317D01*
X15552131Y-8893338D02*
X15559303Y-8900304D01*
X15447000Y-10183000D02*
X15257000Y-10373000D01*
X12732759Y-9309609D02*
X12741081Y-9315150D01*
X12482075Y-9118110D02*
X12482652Y-9128092D01*
X15759898Y-8971448D02*
X15767815Y-8977556D01*
X12617347Y-8942552D02*
X12607677Y-8945094D01*
X12562540Y-9260317D02*
X12571108Y-9265472D01*
X12715070Y-9300310D02*
X12724075Y-9304654D01*
X12562354Y-8965802D02*
X12554102Y-8971448D01*
X15820107Y-9049587D02*
X15823462Y-9059006D01*
X12490538Y-9059006D02*
X12487726Y-9068601D01*
X12502292Y-9194795D02*
X12507216Y-9203497D01*
X12780287Y-8869724D02*
X12774694Y-8878012D01*
X15666774Y-9287727D02*
X15657217Y-9288000D01*
X15826274Y-9068601D02*
X15828534Y-9078341D01*
X12867000Y-8043000D02*
X13057000Y-7853000D01*
X15789151Y-9227722D02*
X15782383Y-9235082D01*
X15520521Y-8842840D02*
X15522000Y-8118000D01*
X12546357Y-9248584D02*
X12554281Y-9254682D01*
X12571108Y-9265472D02*
X12579956Y-9270128D01*
X12490606Y-9167204D02*
X12493973Y-9176619D01*
X15676956Y-8939142D02*
X15686853Y-8940565D01*
X12749001Y-9321252D02*
X12756482Y-9327885D01*
X12589056Y-9274272D02*
X12598377Y-9277889D01*
X12774694Y-8878012D02*
X12768545Y-8885895D01*
X15657000Y-8938000D02*
X15666995Y-8938286D01*
X12647005Y-8938286D02*
X12637043Y-8939142D01*
X15528703Y-8861072D02*
X15533713Y-8869724D01*
X15657217Y-9288000D02*
X15657217Y-9288000D01*
X15806784Y-9203497D02*
X15801371Y-9211904D01*
X15527865Y-9367835D02*
X15523682Y-9376916D01*
X12647226Y-9287727D02*
X12656783Y-9288000D01*
X15811708Y-9194795D02*
X15806784Y-9203497D01*
X12627365Y-9285473D02*
X12637263Y-9286884D01*
X12485466Y-9078341D02*
X12483767Y-9088194D01*
X15257000Y-7853000D02*
X15077000Y-7853000D01*
X12607890Y-9280968D02*
X12617563Y-9283499D01*
X12867000Y-10183000D02*
X13057000Y-10373000D01*
X12531617Y-9235082D02*
X12538794Y-9242044D01*
X15559303Y-8900304D02*
X15566936Y-8906761D01*
X15574995Y-8912678D02*
X15583441Y-8918028D01*
X12497781Y-9040376D02*
X12493893Y-9049587D01*
X15767815Y-8977556D02*
X15775369Y-8984106D01*
X15544014Y-9342616D02*
X15538055Y-9350644D01*
X15775369Y-8984106D02*
X15782537Y-8991076D01*
X15831932Y-9108111D02*
X15831925Y-9118110D01*
X15816127Y-9185826D02*
X15811708Y-9194795D01*
X15533713Y-8869724D02*
X15539306Y-8878012D01*
X12674083Y-8936993D02*
X12664119Y-8937826D01*
X12786135Y-9367835D02*
X12790318Y-9376916D01*
X12763488Y-9335017D02*
X12769986Y-9342616D01*
X12637263Y-9286884D02*
X12647226Y-9287727D01*
X15581241Y-9309609D02*
X15572919Y-9315150D01*
X15676737Y-9286884D02*
X15666774Y-9287727D01*
X15816219Y-9040376D02*
X15820107Y-9049587D01*
X12730559Y-8918028D02*
X12721765Y-8922785D01*
X12790318Y-9376916D02*
X12792000Y-10108000D01*
X15257000Y-10373000D02*
X13057000Y-10373000D01*
X15782383Y-9235082D02*
X15775206Y-9242044D01*
X12747064Y-8906761D02*
X12739005Y-8912678D01*
X12721765Y-8922785D02*
X12712665Y-8926927D01*
X12483767Y-9088194D02*
X12482633Y-9098129D01*
X12789702Y-8852097D02*
X12785297Y-8861072D01*
X12554102Y-8971448D02*
X12546185Y-8977556D01*
X15696437Y-9283499D02*
X15686635Y-9285473D01*
X15666995Y-8938286D02*
X15676956Y-8939142D01*
X15775206Y-9242044D02*
X15767643Y-9248584D01*
X15550512Y-9335017D02*
X15544014Y-9342616D01*
X12507101Y-9022692D02*
X12502189Y-9031401D01*
X12696271Y-9293531D02*
X12705787Y-9296596D01*
X15831348Y-9128092D02*
X15830202Y-9138025D01*
X12666775Y-9288357D02*
X12676718Y-9289402D01*
X12754697Y-8900304D02*
X12747064Y-8906761D01*
X12485510Y-9147876D02*
X12487782Y-9157613D01*
X15608213Y-9296596D02*
X15598930Y-9300310D01*
X15820027Y-9176619D02*
X15816127Y-9185826D01*
X15523682Y-9376916D02*
X15522000Y-10108000D01*
X15734044Y-9270128D02*
X15724944Y-9274272D01*
X15589925Y-9304654D02*
X15581241Y-9309609D01*
X12686566Y-9291129D02*
X12696271Y-9293531D01*
X15583441Y-8918028D02*
X15592235Y-8922785D01*
X15830233Y-9088194D02*
X15831367Y-9098129D01*
X12775945Y-9350644D02*
X12781337Y-9359064D01*
X15532663Y-9359064D02*
X15527865Y-9367835D01*
X15767643Y-9248584D02*
X15759719Y-9254682D01*
X15831925Y-9118110D02*
X15831348Y-9128092D01*
X15564999Y-9321252D02*
X15557518Y-9327885D01*
X12769986Y-9342616D02*
X12775945Y-9350644D01*
X15630035Y-8935479D02*
X15639917Y-8936993D01*
X12676718Y-9289402D02*
X12686566Y-9291129D01*
X15706110Y-9280968D02*
X15696437Y-9283499D01*
X15647225Y-9288357D02*
X15637282Y-9289402D01*
D11*
X12735345Y-10691984D02*
X12735345Y-10491984D01*
X12735345Y-10491984D02*
X12782964Y-10491984D01*
X12782964Y-10491984D02*
X12811536Y-10501508D01*
X12811536Y-10501508D02*
X12830583Y-10520555D01*
X12830583Y-10520555D02*
X12840107Y-10539603D01*
X12840107Y-10539603D02*
X12849631Y-10577698D01*
X12849631Y-10577698D02*
X12849631Y-10606270D01*
X12849631Y-10606270D02*
X12840107Y-10644365D01*
X12840107Y-10644365D02*
X12830583Y-10663412D01*
X12830583Y-10663412D02*
X12811536Y-10682460D01*
X12811536Y-10682460D02*
X12782964Y-10691984D01*
X12782964Y-10691984D02*
X12735345Y-10691984D01*
X12935345Y-10691984D02*
X12935345Y-10558650D01*
X12935345Y-10596746D02*
X12944869Y-10577698D01*
X12944869Y-10577698D02*
X12954393Y-10568174D01*
X12954393Y-10568174D02*
X12973440Y-10558650D01*
X12973440Y-10558650D02*
X12992488Y-10558650D01*
X13059155Y-10691984D02*
X13059155Y-10558650D01*
X13059155Y-10491984D02*
X13049631Y-10501508D01*
X13049631Y-10501508D02*
X13059155Y-10511031D01*
X13059155Y-10511031D02*
X13068678Y-10501508D01*
X13068678Y-10501508D02*
X13059155Y-10491984D01*
X13059155Y-10491984D02*
X13059155Y-10511031D01*
X13182964Y-10691984D02*
X13163916Y-10682460D01*
X13163916Y-10682460D02*
X13154393Y-10663412D01*
X13154393Y-10663412D02*
X13154393Y-10491984D01*
X13287726Y-10691984D02*
X13268678Y-10682460D01*
X13268678Y-10682460D02*
X13259155Y-10663412D01*
X13259155Y-10663412D02*
X13259155Y-10491984D01*
X13516297Y-10691984D02*
X13516297Y-10491984D01*
X13516297Y-10491984D02*
X13582964Y-10634841D01*
X13582964Y-10634841D02*
X13649631Y-10491984D01*
X13649631Y-10491984D02*
X13649631Y-10691984D01*
X13830583Y-10691984D02*
X13830583Y-10587222D01*
X13830583Y-10587222D02*
X13821059Y-10568174D01*
X13821059Y-10568174D02*
X13802012Y-10558650D01*
X13802012Y-10558650D02*
X13763916Y-10558650D01*
X13763916Y-10558650D02*
X13744869Y-10568174D01*
X13830583Y-10682460D02*
X13811536Y-10691984D01*
X13811536Y-10691984D02*
X13763916Y-10691984D01*
X13763916Y-10691984D02*
X13744869Y-10682460D01*
X13744869Y-10682460D02*
X13735345Y-10663412D01*
X13735345Y-10663412D02*
X13735345Y-10644365D01*
X13735345Y-10644365D02*
X13744869Y-10625317D01*
X13744869Y-10625317D02*
X13763916Y-10615793D01*
X13763916Y-10615793D02*
X13811536Y-10615793D01*
X13811536Y-10615793D02*
X13830583Y-10606270D01*
X13925821Y-10558650D02*
X13925821Y-10758650D01*
X13925821Y-10568174D02*
X13944869Y-10558650D01*
X13944869Y-10558650D02*
X13982964Y-10558650D01*
X13982964Y-10558650D02*
X14002012Y-10568174D01*
X14002012Y-10568174D02*
X14011536Y-10577698D01*
X14011536Y-10577698D02*
X14021059Y-10596746D01*
X14021059Y-10596746D02*
X14021059Y-10653889D01*
X14021059Y-10653889D02*
X14011536Y-10672936D01*
X14011536Y-10672936D02*
X14002012Y-10682460D01*
X14002012Y-10682460D02*
X13982964Y-10691984D01*
X13982964Y-10691984D02*
X13944869Y-10691984D01*
X13944869Y-10691984D02*
X13925821Y-10682460D01*
X14106774Y-10672936D02*
X14116297Y-10682460D01*
X14116297Y-10682460D02*
X14106774Y-10691984D01*
X14106774Y-10691984D02*
X14097250Y-10682460D01*
X14097250Y-10682460D02*
X14106774Y-10672936D01*
X14106774Y-10672936D02*
X14106774Y-10691984D01*
X14106774Y-10568174D02*
X14116297Y-10577698D01*
X14116297Y-10577698D02*
X14106774Y-10587222D01*
X14106774Y-10587222D02*
X14097250Y-10577698D01*
X14097250Y-10577698D02*
X14106774Y-10568174D01*
X14106774Y-10568174D02*
X14106774Y-10587222D01*
M02*
