M48
; DRILL file {KiCad 7.0.7} date Wed Oct  4 17:00:29 2023
; FORMAT={-:-/ absolute / metric / decimal}
; #@! TF.CreationDate,2023-10-04T17:00:29-06:00
; #@! TF.GenerationSoftware,Kicad,Pcbnew,7.0.7
; #@! TF.FileFunction,Plated,1,2,PTH
FMAT,2
METRIC
; #@! TA.AperFunction,Plated,PTH,ComponentDrill
T1C0.750
; #@! TA.AperFunction,Plated,PTH,ComponentDrill
T2C0.800
%
G90
G05
T1
X139.55Y-94.16
X141.55Y-94.16
X143.55Y-94.16
T2
X130.574Y-82.131
X130.574Y-84.131
X130.574Y-86.131
X130.574Y-88.131
X130.574Y-90.131
X130.574Y-92.131
X130.574Y-94.131
X130.574Y-96.131
X130.574Y-98.131
X130.574Y-100.131
X152.56Y-82.13
X152.56Y-84.13
X152.56Y-86.13
X152.56Y-88.13
X152.56Y-90.13
X152.56Y-92.13
X152.56Y-94.13
X152.56Y-96.13
X152.56Y-98.13
X152.56Y-100.13
T0
M30
