%TF.GenerationSoftware,KiCad,Pcbnew,7.0.7*%
%TF.CreationDate,2023-10-04T23:51:43-06:00*%
%TF.ProjectId,GigE_Module,47696745-5f4d-46f6-9475-6c652e6b6963,rev?*%
%TF.SameCoordinates,Original*%
%TF.FileFunction,Legend,Top*%
%TF.FilePolarity,Positive*%
%FSLAX46Y46*%
G04 Gerber Fmt 4.6, Leading zero omitted, Abs format (unit mm)*
G04 Created by KiCad (PCBNEW 7.0.7) date 2023-10-04 23:51:43*
%MOMM*%
%LPD*%
G01*
G04 APERTURE LIST*
G04 Aperture macros list*
%AMRoundRect*
0 Rectangle with rounded corners*
0 $1 Rounding radius*
0 $2 $3 $4 $5 $6 $7 $8 $9 X,Y pos of 4 corners*
0 Add a 4 corners polygon primitive as box body*
4,1,4,$2,$3,$4,$5,$6,$7,$8,$9,$2,$3,0*
0 Add four circle primitives for the rounded corners*
1,1,$1+$1,$2,$3*
1,1,$1+$1,$4,$5*
1,1,$1+$1,$6,$7*
1,1,$1+$1,$8,$9*
0 Add four rect primitives between the rounded corners*
20,1,$1+$1,$2,$3,$4,$5,0*
20,1,$1+$1,$4,$5,$6,$7,0*
20,1,$1+$1,$6,$7,$8,$9,0*
20,1,$1+$1,$8,$9,$2,$3,0*%
G04 Aperture macros list end*
%ADD10C,0.100000*%
%ADD11C,0.150000*%
%ADD12C,0.120000*%
%ADD13C,3.250000*%
%ADD14R,1.500000X1.500000*%
%ADD15C,1.500000*%
%ADD16C,2.300000*%
%ADD17RoundRect,0.200000X-0.200000X-0.275000X0.200000X-0.275000X0.200000X0.275000X-0.200000X0.275000X0*%
%ADD18R,1.350000X1.350000*%
%ADD19O,1.350000X1.350000*%
%ADD20RoundRect,0.250000X-0.287500X-0.275000X0.287500X-0.275000X0.287500X0.275000X-0.287500X0.275000X0*%
G04 APERTURE END LIST*
D10*
X131645237Y-103858895D02*
X131607142Y-103839847D01*
X131607142Y-103839847D02*
X131549999Y-103839847D01*
X131549999Y-103839847D02*
X131492856Y-103858895D01*
X131492856Y-103858895D02*
X131454761Y-103896990D01*
X131454761Y-103896990D02*
X131435714Y-103935085D01*
X131435714Y-103935085D02*
X131416666Y-104011276D01*
X131416666Y-104011276D02*
X131416666Y-104068419D01*
X131416666Y-104068419D02*
X131435714Y-104144609D01*
X131435714Y-104144609D02*
X131454761Y-104182704D01*
X131454761Y-104182704D02*
X131492856Y-104220800D01*
X131492856Y-104220800D02*
X131549999Y-104239847D01*
X131549999Y-104239847D02*
X131588095Y-104239847D01*
X131588095Y-104239847D02*
X131645237Y-104220800D01*
X131645237Y-104220800D02*
X131664285Y-104201752D01*
X131664285Y-104201752D02*
X131664285Y-104068419D01*
X131664285Y-104068419D02*
X131588095Y-104068419D01*
X131835714Y-104239847D02*
X131835714Y-103839847D01*
X131835714Y-103839847D02*
X132064285Y-104239847D01*
X132064285Y-104239847D02*
X132064285Y-103839847D01*
X132254762Y-104239847D02*
X132254762Y-103839847D01*
X132254762Y-103839847D02*
X132350000Y-103839847D01*
X132350000Y-103839847D02*
X132407143Y-103858895D01*
X132407143Y-103858895D02*
X132445238Y-103896990D01*
X132445238Y-103896990D02*
X132464285Y-103935085D01*
X132464285Y-103935085D02*
X132483333Y-104011276D01*
X132483333Y-104011276D02*
X132483333Y-104068419D01*
X132483333Y-104068419D02*
X132464285Y-104144609D01*
X132464285Y-104144609D02*
X132445238Y-104182704D01*
X132445238Y-104182704D02*
X132407143Y-104220800D01*
X132407143Y-104220800D02*
X132350000Y-104239847D01*
X132350000Y-104239847D02*
X132254762Y-104239847D01*
X131588095Y-98239847D02*
X131588095Y-97839847D01*
X131778571Y-98239847D02*
X131778571Y-97839847D01*
X131778571Y-97839847D02*
X132007142Y-98239847D01*
X132007142Y-98239847D02*
X132007142Y-97839847D01*
X132140476Y-97839847D02*
X132369047Y-97839847D01*
X132254761Y-98239847D02*
X132254761Y-97839847D01*
X157125714Y-90220800D02*
X157182857Y-90239847D01*
X157182857Y-90239847D02*
X157278095Y-90239847D01*
X157278095Y-90239847D02*
X157316190Y-90220800D01*
X157316190Y-90220800D02*
X157335238Y-90201752D01*
X157335238Y-90201752D02*
X157354285Y-90163657D01*
X157354285Y-90163657D02*
X157354285Y-90125561D01*
X157354285Y-90125561D02*
X157335238Y-90087466D01*
X157335238Y-90087466D02*
X157316190Y-90068419D01*
X157316190Y-90068419D02*
X157278095Y-90049371D01*
X157278095Y-90049371D02*
X157201904Y-90030323D01*
X157201904Y-90030323D02*
X157163809Y-90011276D01*
X157163809Y-90011276D02*
X157144762Y-89992228D01*
X157144762Y-89992228D02*
X157125714Y-89954133D01*
X157125714Y-89954133D02*
X157125714Y-89916038D01*
X157125714Y-89916038D02*
X157144762Y-89877942D01*
X157144762Y-89877942D02*
X157163809Y-89858895D01*
X157163809Y-89858895D02*
X157201904Y-89839847D01*
X157201904Y-89839847D02*
X157297143Y-89839847D01*
X157297143Y-89839847D02*
X157354285Y-89858895D01*
X157754285Y-90201752D02*
X157735237Y-90220800D01*
X157735237Y-90220800D02*
X157678095Y-90239847D01*
X157678095Y-90239847D02*
X157639999Y-90239847D01*
X157639999Y-90239847D02*
X157582856Y-90220800D01*
X157582856Y-90220800D02*
X157544761Y-90182704D01*
X157544761Y-90182704D02*
X157525714Y-90144609D01*
X157525714Y-90144609D02*
X157506666Y-90068419D01*
X157506666Y-90068419D02*
X157506666Y-90011276D01*
X157506666Y-90011276D02*
X157525714Y-89935085D01*
X157525714Y-89935085D02*
X157544761Y-89896990D01*
X157544761Y-89896990D02*
X157582856Y-89858895D01*
X157582856Y-89858895D02*
X157639999Y-89839847D01*
X157639999Y-89839847D02*
X157678095Y-89839847D01*
X157678095Y-89839847D02*
X157735237Y-89858895D01*
X157735237Y-89858895D02*
X157754285Y-89877942D01*
X157925714Y-90239847D02*
X157925714Y-89839847D01*
X158154285Y-90239847D02*
X157982856Y-90011276D01*
X158154285Y-89839847D02*
X157925714Y-90068419D01*
D11*
X138079047Y-88727438D02*
X137983809Y-88679819D01*
X137983809Y-88679819D02*
X137840952Y-88679819D01*
X137840952Y-88679819D02*
X137698095Y-88727438D01*
X137698095Y-88727438D02*
X137602857Y-88822676D01*
X137602857Y-88822676D02*
X137555238Y-88917914D01*
X137555238Y-88917914D02*
X137507619Y-89108390D01*
X137507619Y-89108390D02*
X137507619Y-89251247D01*
X137507619Y-89251247D02*
X137555238Y-89441723D01*
X137555238Y-89441723D02*
X137602857Y-89536961D01*
X137602857Y-89536961D02*
X137698095Y-89632200D01*
X137698095Y-89632200D02*
X137840952Y-89679819D01*
X137840952Y-89679819D02*
X137936190Y-89679819D01*
X137936190Y-89679819D02*
X138079047Y-89632200D01*
X138079047Y-89632200D02*
X138126666Y-89584580D01*
X138126666Y-89584580D02*
X138126666Y-89251247D01*
X138126666Y-89251247D02*
X137936190Y-89251247D01*
X138555238Y-89679819D02*
X138555238Y-89013152D01*
X138555238Y-88679819D02*
X138507619Y-88727438D01*
X138507619Y-88727438D02*
X138555238Y-88775057D01*
X138555238Y-88775057D02*
X138602857Y-88727438D01*
X138602857Y-88727438D02*
X138555238Y-88679819D01*
X138555238Y-88679819D02*
X138555238Y-88775057D01*
X139459999Y-89013152D02*
X139459999Y-89822676D01*
X139459999Y-89822676D02*
X139412380Y-89917914D01*
X139412380Y-89917914D02*
X139364761Y-89965533D01*
X139364761Y-89965533D02*
X139269523Y-90013152D01*
X139269523Y-90013152D02*
X139126666Y-90013152D01*
X139126666Y-90013152D02*
X139031428Y-89965533D01*
X139459999Y-89632200D02*
X139364761Y-89679819D01*
X139364761Y-89679819D02*
X139174285Y-89679819D01*
X139174285Y-89679819D02*
X139079047Y-89632200D01*
X139079047Y-89632200D02*
X139031428Y-89584580D01*
X139031428Y-89584580D02*
X138983809Y-89489342D01*
X138983809Y-89489342D02*
X138983809Y-89203628D01*
X138983809Y-89203628D02*
X139031428Y-89108390D01*
X139031428Y-89108390D02*
X139079047Y-89060771D01*
X139079047Y-89060771D02*
X139174285Y-89013152D01*
X139174285Y-89013152D02*
X139364761Y-89013152D01*
X139364761Y-89013152D02*
X139459999Y-89060771D01*
X139936190Y-89156009D02*
X140269523Y-89156009D01*
X140412380Y-89679819D02*
X139936190Y-89679819D01*
X139936190Y-89679819D02*
X139936190Y-88679819D01*
X139936190Y-88679819D02*
X140412380Y-88679819D01*
X136579047Y-91289819D02*
X136579047Y-90289819D01*
X136579047Y-90289819D02*
X136912380Y-91004104D01*
X136912380Y-91004104D02*
X137245713Y-90289819D01*
X137245713Y-90289819D02*
X137245713Y-91289819D01*
X137864761Y-91289819D02*
X137769523Y-91242200D01*
X137769523Y-91242200D02*
X137721904Y-91194580D01*
X137721904Y-91194580D02*
X137674285Y-91099342D01*
X137674285Y-91099342D02*
X137674285Y-90813628D01*
X137674285Y-90813628D02*
X137721904Y-90718390D01*
X137721904Y-90718390D02*
X137769523Y-90670771D01*
X137769523Y-90670771D02*
X137864761Y-90623152D01*
X137864761Y-90623152D02*
X138007618Y-90623152D01*
X138007618Y-90623152D02*
X138102856Y-90670771D01*
X138102856Y-90670771D02*
X138150475Y-90718390D01*
X138150475Y-90718390D02*
X138198094Y-90813628D01*
X138198094Y-90813628D02*
X138198094Y-91099342D01*
X138198094Y-91099342D02*
X138150475Y-91194580D01*
X138150475Y-91194580D02*
X138102856Y-91242200D01*
X138102856Y-91242200D02*
X138007618Y-91289819D01*
X138007618Y-91289819D02*
X137864761Y-91289819D01*
X139055237Y-91289819D02*
X139055237Y-90289819D01*
X139055237Y-91242200D02*
X138959999Y-91289819D01*
X138959999Y-91289819D02*
X138769523Y-91289819D01*
X138769523Y-91289819D02*
X138674285Y-91242200D01*
X138674285Y-91242200D02*
X138626666Y-91194580D01*
X138626666Y-91194580D02*
X138579047Y-91099342D01*
X138579047Y-91099342D02*
X138579047Y-90813628D01*
X138579047Y-90813628D02*
X138626666Y-90718390D01*
X138626666Y-90718390D02*
X138674285Y-90670771D01*
X138674285Y-90670771D02*
X138769523Y-90623152D01*
X138769523Y-90623152D02*
X138959999Y-90623152D01*
X138959999Y-90623152D02*
X139055237Y-90670771D01*
X139959999Y-90623152D02*
X139959999Y-91289819D01*
X139531428Y-90623152D02*
X139531428Y-91146961D01*
X139531428Y-91146961D02*
X139579047Y-91242200D01*
X139579047Y-91242200D02*
X139674285Y-91289819D01*
X139674285Y-91289819D02*
X139817142Y-91289819D01*
X139817142Y-91289819D02*
X139912380Y-91242200D01*
X139912380Y-91242200D02*
X139959999Y-91194580D01*
X140579047Y-91289819D02*
X140483809Y-91242200D01*
X140483809Y-91242200D02*
X140436190Y-91146961D01*
X140436190Y-91146961D02*
X140436190Y-90289819D01*
X141340952Y-91242200D02*
X141245714Y-91289819D01*
X141245714Y-91289819D02*
X141055238Y-91289819D01*
X141055238Y-91289819D02*
X140960000Y-91242200D01*
X140960000Y-91242200D02*
X140912381Y-91146961D01*
X140912381Y-91146961D02*
X140912381Y-90766009D01*
X140912381Y-90766009D02*
X140960000Y-90670771D01*
X140960000Y-90670771D02*
X141055238Y-90623152D01*
X141055238Y-90623152D02*
X141245714Y-90623152D01*
X141245714Y-90623152D02*
X141340952Y-90670771D01*
X141340952Y-90670771D02*
X141388571Y-90766009D01*
X141388571Y-90766009D02*
X141388571Y-90861247D01*
X141388571Y-90861247D02*
X140912381Y-90956485D01*
D10*
X131883333Y-96201752D02*
X131864285Y-96220800D01*
X131864285Y-96220800D02*
X131807143Y-96239847D01*
X131807143Y-96239847D02*
X131769047Y-96239847D01*
X131769047Y-96239847D02*
X131711904Y-96220800D01*
X131711904Y-96220800D02*
X131673809Y-96182704D01*
X131673809Y-96182704D02*
X131654762Y-96144609D01*
X131654762Y-96144609D02*
X131635714Y-96068419D01*
X131635714Y-96068419D02*
X131635714Y-96011276D01*
X131635714Y-96011276D02*
X131654762Y-95935085D01*
X131654762Y-95935085D02*
X131673809Y-95896990D01*
X131673809Y-95896990D02*
X131711904Y-95858895D01*
X131711904Y-95858895D02*
X131769047Y-95839847D01*
X131769047Y-95839847D02*
X131807143Y-95839847D01*
X131807143Y-95839847D02*
X131864285Y-95858895D01*
X131864285Y-95858895D02*
X131883333Y-95877942D01*
X132035714Y-96220800D02*
X132092857Y-96239847D01*
X132092857Y-96239847D02*
X132188095Y-96239847D01*
X132188095Y-96239847D02*
X132226190Y-96220800D01*
X132226190Y-96220800D02*
X132245238Y-96201752D01*
X132245238Y-96201752D02*
X132264285Y-96163657D01*
X132264285Y-96163657D02*
X132264285Y-96125561D01*
X132264285Y-96125561D02*
X132245238Y-96087466D01*
X132245238Y-96087466D02*
X132226190Y-96068419D01*
X132226190Y-96068419D02*
X132188095Y-96049371D01*
X132188095Y-96049371D02*
X132111904Y-96030323D01*
X132111904Y-96030323D02*
X132073809Y-96011276D01*
X132073809Y-96011276D02*
X132054762Y-95992228D01*
X132054762Y-95992228D02*
X132035714Y-95954133D01*
X132035714Y-95954133D02*
X132035714Y-95916038D01*
X132035714Y-95916038D02*
X132054762Y-95877942D01*
X132054762Y-95877942D02*
X132073809Y-95858895D01*
X132073809Y-95858895D02*
X132111904Y-95839847D01*
X132111904Y-95839847D02*
X132207143Y-95839847D01*
X132207143Y-95839847D02*
X132264285Y-95858895D01*
X131416667Y-85829847D02*
X131550000Y-86229847D01*
X131550000Y-86229847D02*
X131683333Y-85829847D01*
X132045238Y-86191752D02*
X132026190Y-86210800D01*
X132026190Y-86210800D02*
X131969048Y-86229847D01*
X131969048Y-86229847D02*
X131930952Y-86229847D01*
X131930952Y-86229847D02*
X131873809Y-86210800D01*
X131873809Y-86210800D02*
X131835714Y-86172704D01*
X131835714Y-86172704D02*
X131816667Y-86134609D01*
X131816667Y-86134609D02*
X131797619Y-86058419D01*
X131797619Y-86058419D02*
X131797619Y-86001276D01*
X131797619Y-86001276D02*
X131816667Y-85925085D01*
X131816667Y-85925085D02*
X131835714Y-85886990D01*
X131835714Y-85886990D02*
X131873809Y-85848895D01*
X131873809Y-85848895D02*
X131930952Y-85829847D01*
X131930952Y-85829847D02*
X131969048Y-85829847D01*
X131969048Y-85829847D02*
X132026190Y-85848895D01*
X132026190Y-85848895D02*
X132045238Y-85867942D01*
X132445238Y-86191752D02*
X132426190Y-86210800D01*
X132426190Y-86210800D02*
X132369048Y-86229847D01*
X132369048Y-86229847D02*
X132330952Y-86229847D01*
X132330952Y-86229847D02*
X132273809Y-86210800D01*
X132273809Y-86210800D02*
X132235714Y-86172704D01*
X132235714Y-86172704D02*
X132216667Y-86134609D01*
X132216667Y-86134609D02*
X132197619Y-86058419D01*
X132197619Y-86058419D02*
X132197619Y-86001276D01*
X132197619Y-86001276D02*
X132216667Y-85925085D01*
X132216667Y-85925085D02*
X132235714Y-85886990D01*
X132235714Y-85886990D02*
X132273809Y-85848895D01*
X132273809Y-85848895D02*
X132330952Y-85829847D01*
X132330952Y-85829847D02*
X132369048Y-85829847D01*
X132369048Y-85829847D02*
X132426190Y-85848895D01*
X132426190Y-85848895D02*
X132445238Y-85867942D01*
X157011429Y-92229847D02*
X157011429Y-91829847D01*
X157011429Y-91829847D02*
X157144762Y-92115561D01*
X157144762Y-92115561D02*
X157278095Y-91829847D01*
X157278095Y-91829847D02*
X157278095Y-92229847D01*
X157468572Y-92229847D02*
X157468572Y-91829847D01*
X157640000Y-92210800D02*
X157697143Y-92229847D01*
X157697143Y-92229847D02*
X157792381Y-92229847D01*
X157792381Y-92229847D02*
X157830476Y-92210800D01*
X157830476Y-92210800D02*
X157849524Y-92191752D01*
X157849524Y-92191752D02*
X157868571Y-92153657D01*
X157868571Y-92153657D02*
X157868571Y-92115561D01*
X157868571Y-92115561D02*
X157849524Y-92077466D01*
X157849524Y-92077466D02*
X157830476Y-92058419D01*
X157830476Y-92058419D02*
X157792381Y-92039371D01*
X157792381Y-92039371D02*
X157716190Y-92020323D01*
X157716190Y-92020323D02*
X157678095Y-92001276D01*
X157678095Y-92001276D02*
X157659048Y-91982228D01*
X157659048Y-91982228D02*
X157640000Y-91944133D01*
X157640000Y-91944133D02*
X157640000Y-91906038D01*
X157640000Y-91906038D02*
X157659048Y-91867942D01*
X157659048Y-91867942D02*
X157678095Y-91848895D01*
X157678095Y-91848895D02*
X157716190Y-91829847D01*
X157716190Y-91829847D02*
X157811429Y-91829847D01*
X157811429Y-91829847D02*
X157868571Y-91848895D01*
X158116190Y-91829847D02*
X158192381Y-91829847D01*
X158192381Y-91829847D02*
X158230476Y-91848895D01*
X158230476Y-91848895D02*
X158268571Y-91886990D01*
X158268571Y-91886990D02*
X158287619Y-91963180D01*
X158287619Y-91963180D02*
X158287619Y-92096514D01*
X158287619Y-92096514D02*
X158268571Y-92172704D01*
X158268571Y-92172704D02*
X158230476Y-92210800D01*
X158230476Y-92210800D02*
X158192381Y-92229847D01*
X158192381Y-92229847D02*
X158116190Y-92229847D01*
X158116190Y-92229847D02*
X158078095Y-92210800D01*
X158078095Y-92210800D02*
X158040000Y-92172704D01*
X158040000Y-92172704D02*
X158020952Y-92096514D01*
X158020952Y-92096514D02*
X158020952Y-91963180D01*
X158020952Y-91963180D02*
X158040000Y-91886990D01*
X158040000Y-91886990D02*
X158078095Y-91848895D01*
X158078095Y-91848895D02*
X158116190Y-91829847D01*
X157011429Y-94269847D02*
X157011429Y-93869847D01*
X157011429Y-93869847D02*
X157144762Y-94155561D01*
X157144762Y-94155561D02*
X157278095Y-93869847D01*
X157278095Y-93869847D02*
X157278095Y-94269847D01*
X157544762Y-93869847D02*
X157620953Y-93869847D01*
X157620953Y-93869847D02*
X157659048Y-93888895D01*
X157659048Y-93888895D02*
X157697143Y-93926990D01*
X157697143Y-93926990D02*
X157716191Y-94003180D01*
X157716191Y-94003180D02*
X157716191Y-94136514D01*
X157716191Y-94136514D02*
X157697143Y-94212704D01*
X157697143Y-94212704D02*
X157659048Y-94250800D01*
X157659048Y-94250800D02*
X157620953Y-94269847D01*
X157620953Y-94269847D02*
X157544762Y-94269847D01*
X157544762Y-94269847D02*
X157506667Y-94250800D01*
X157506667Y-94250800D02*
X157468572Y-94212704D01*
X157468572Y-94212704D02*
X157449524Y-94136514D01*
X157449524Y-94136514D02*
X157449524Y-94003180D01*
X157449524Y-94003180D02*
X157468572Y-93926990D01*
X157468572Y-93926990D02*
X157506667Y-93888895D01*
X157506667Y-93888895D02*
X157544762Y-93869847D01*
X157868572Y-94250800D02*
X157925715Y-94269847D01*
X157925715Y-94269847D02*
X158020953Y-94269847D01*
X158020953Y-94269847D02*
X158059048Y-94250800D01*
X158059048Y-94250800D02*
X158078096Y-94231752D01*
X158078096Y-94231752D02*
X158097143Y-94193657D01*
X158097143Y-94193657D02*
X158097143Y-94155561D01*
X158097143Y-94155561D02*
X158078096Y-94117466D01*
X158078096Y-94117466D02*
X158059048Y-94098419D01*
X158059048Y-94098419D02*
X158020953Y-94079371D01*
X158020953Y-94079371D02*
X157944762Y-94060323D01*
X157944762Y-94060323D02*
X157906667Y-94041276D01*
X157906667Y-94041276D02*
X157887620Y-94022228D01*
X157887620Y-94022228D02*
X157868572Y-93984133D01*
X157868572Y-93984133D02*
X157868572Y-93946038D01*
X157868572Y-93946038D02*
X157887620Y-93907942D01*
X157887620Y-93907942D02*
X157906667Y-93888895D01*
X157906667Y-93888895D02*
X157944762Y-93869847D01*
X157944762Y-93869847D02*
X158040001Y-93869847D01*
X158040001Y-93869847D02*
X158097143Y-93888895D01*
X158268572Y-94269847D02*
X158268572Y-93869847D01*
D11*
X153966666Y-106104819D02*
X153966666Y-106819104D01*
X153966666Y-106819104D02*
X153919047Y-106961961D01*
X153919047Y-106961961D02*
X153823809Y-107057200D01*
X153823809Y-107057200D02*
X153680952Y-107104819D01*
X153680952Y-107104819D02*
X153585714Y-107104819D01*
X154966666Y-107104819D02*
X154395238Y-107104819D01*
X154680952Y-107104819D02*
X154680952Y-106104819D01*
X154680952Y-106104819D02*
X154585714Y-106247676D01*
X154585714Y-106247676D02*
X154490476Y-106342914D01*
X154490476Y-106342914D02*
X154395238Y-106390533D01*
X148333333Y-85784819D02*
X148000000Y-85308628D01*
X147761905Y-85784819D02*
X147761905Y-84784819D01*
X147761905Y-84784819D02*
X148142857Y-84784819D01*
X148142857Y-84784819D02*
X148238095Y-84832438D01*
X148238095Y-84832438D02*
X148285714Y-84880057D01*
X148285714Y-84880057D02*
X148333333Y-84975295D01*
X148333333Y-84975295D02*
X148333333Y-85118152D01*
X148333333Y-85118152D02*
X148285714Y-85213390D01*
X148285714Y-85213390D02*
X148238095Y-85261009D01*
X148238095Y-85261009D02*
X148142857Y-85308628D01*
X148142857Y-85308628D02*
X147761905Y-85308628D01*
X148666667Y-84784819D02*
X149333333Y-84784819D01*
X149333333Y-84784819D02*
X148904762Y-85784819D01*
X148383333Y-87384819D02*
X148050000Y-86908628D01*
X147811905Y-87384819D02*
X147811905Y-86384819D01*
X147811905Y-86384819D02*
X148192857Y-86384819D01*
X148192857Y-86384819D02*
X148288095Y-86432438D01*
X148288095Y-86432438D02*
X148335714Y-86480057D01*
X148335714Y-86480057D02*
X148383333Y-86575295D01*
X148383333Y-86575295D02*
X148383333Y-86718152D01*
X148383333Y-86718152D02*
X148335714Y-86813390D01*
X148335714Y-86813390D02*
X148288095Y-86861009D01*
X148288095Y-86861009D02*
X148192857Y-86908628D01*
X148192857Y-86908628D02*
X147811905Y-86908628D01*
X149240476Y-86384819D02*
X149050000Y-86384819D01*
X149050000Y-86384819D02*
X148954762Y-86432438D01*
X148954762Y-86432438D02*
X148907143Y-86480057D01*
X148907143Y-86480057D02*
X148811905Y-86622914D01*
X148811905Y-86622914D02*
X148764286Y-86813390D01*
X148764286Y-86813390D02*
X148764286Y-87194342D01*
X148764286Y-87194342D02*
X148811905Y-87289580D01*
X148811905Y-87289580D02*
X148859524Y-87337200D01*
X148859524Y-87337200D02*
X148954762Y-87384819D01*
X148954762Y-87384819D02*
X149145238Y-87384819D01*
X149145238Y-87384819D02*
X149240476Y-87337200D01*
X149240476Y-87337200D02*
X149288095Y-87289580D01*
X149288095Y-87289580D02*
X149335714Y-87194342D01*
X149335714Y-87194342D02*
X149335714Y-86956247D01*
X149335714Y-86956247D02*
X149288095Y-86861009D01*
X149288095Y-86861009D02*
X149240476Y-86813390D01*
X149240476Y-86813390D02*
X149145238Y-86765771D01*
X149145238Y-86765771D02*
X148954762Y-86765771D01*
X148954762Y-86765771D02*
X148859524Y-86813390D01*
X148859524Y-86813390D02*
X148811905Y-86861009D01*
X148811905Y-86861009D02*
X148764286Y-86956247D01*
X148363333Y-91034819D02*
X148030000Y-90558628D01*
X147791905Y-91034819D02*
X147791905Y-90034819D01*
X147791905Y-90034819D02*
X148172857Y-90034819D01*
X148172857Y-90034819D02*
X148268095Y-90082438D01*
X148268095Y-90082438D02*
X148315714Y-90130057D01*
X148315714Y-90130057D02*
X148363333Y-90225295D01*
X148363333Y-90225295D02*
X148363333Y-90368152D01*
X148363333Y-90368152D02*
X148315714Y-90463390D01*
X148315714Y-90463390D02*
X148268095Y-90511009D01*
X148268095Y-90511009D02*
X148172857Y-90558628D01*
X148172857Y-90558628D02*
X147791905Y-90558628D01*
X148839524Y-91034819D02*
X149030000Y-91034819D01*
X149030000Y-91034819D02*
X149125238Y-90987200D01*
X149125238Y-90987200D02*
X149172857Y-90939580D01*
X149172857Y-90939580D02*
X149268095Y-90796723D01*
X149268095Y-90796723D02*
X149315714Y-90606247D01*
X149315714Y-90606247D02*
X149315714Y-90225295D01*
X149315714Y-90225295D02*
X149268095Y-90130057D01*
X149268095Y-90130057D02*
X149220476Y-90082438D01*
X149220476Y-90082438D02*
X149125238Y-90034819D01*
X149125238Y-90034819D02*
X148934762Y-90034819D01*
X148934762Y-90034819D02*
X148839524Y-90082438D01*
X148839524Y-90082438D02*
X148791905Y-90130057D01*
X148791905Y-90130057D02*
X148744286Y-90225295D01*
X148744286Y-90225295D02*
X148744286Y-90463390D01*
X148744286Y-90463390D02*
X148791905Y-90558628D01*
X148791905Y-90558628D02*
X148839524Y-90606247D01*
X148839524Y-90606247D02*
X148934762Y-90653866D01*
X148934762Y-90653866D02*
X149125238Y-90653866D01*
X149125238Y-90653866D02*
X149220476Y-90606247D01*
X149220476Y-90606247D02*
X149268095Y-90558628D01*
X149268095Y-90558628D02*
X149315714Y-90463390D01*
X155356666Y-83379819D02*
X155356666Y-84094104D01*
X155356666Y-84094104D02*
X155309047Y-84236961D01*
X155309047Y-84236961D02*
X155213809Y-84332200D01*
X155213809Y-84332200D02*
X155070952Y-84379819D01*
X155070952Y-84379819D02*
X154975714Y-84379819D01*
X155737619Y-83379819D02*
X156356666Y-83379819D01*
X156356666Y-83379819D02*
X156023333Y-83760771D01*
X156023333Y-83760771D02*
X156166190Y-83760771D01*
X156166190Y-83760771D02*
X156261428Y-83808390D01*
X156261428Y-83808390D02*
X156309047Y-83856009D01*
X156309047Y-83856009D02*
X156356666Y-83951247D01*
X156356666Y-83951247D02*
X156356666Y-84189342D01*
X156356666Y-84189342D02*
X156309047Y-84284580D01*
X156309047Y-84284580D02*
X156261428Y-84332200D01*
X156261428Y-84332200D02*
X156166190Y-84379819D01*
X156166190Y-84379819D02*
X155880476Y-84379819D01*
X155880476Y-84379819D02*
X155785238Y-84332200D01*
X155785238Y-84332200D02*
X155737619Y-84284580D01*
X133438666Y-83379819D02*
X133438666Y-84094104D01*
X133438666Y-84094104D02*
X133391047Y-84236961D01*
X133391047Y-84236961D02*
X133295809Y-84332200D01*
X133295809Y-84332200D02*
X133152952Y-84379819D01*
X133152952Y-84379819D02*
X133057714Y-84379819D01*
X133867238Y-83475057D02*
X133914857Y-83427438D01*
X133914857Y-83427438D02*
X134010095Y-83379819D01*
X134010095Y-83379819D02*
X134248190Y-83379819D01*
X134248190Y-83379819D02*
X134343428Y-83427438D01*
X134343428Y-83427438D02*
X134391047Y-83475057D01*
X134391047Y-83475057D02*
X134438666Y-83570295D01*
X134438666Y-83570295D02*
X134438666Y-83665533D01*
X134438666Y-83665533D02*
X134391047Y-83808390D01*
X134391047Y-83808390D02*
X133819619Y-84379819D01*
X133819619Y-84379819D02*
X134438666Y-84379819D01*
X147417142Y-89259580D02*
X147369523Y-89307200D01*
X147369523Y-89307200D02*
X147226666Y-89354819D01*
X147226666Y-89354819D02*
X147131428Y-89354819D01*
X147131428Y-89354819D02*
X146988571Y-89307200D01*
X146988571Y-89307200D02*
X146893333Y-89211961D01*
X146893333Y-89211961D02*
X146845714Y-89116723D01*
X146845714Y-89116723D02*
X146798095Y-88926247D01*
X146798095Y-88926247D02*
X146798095Y-88783390D01*
X146798095Y-88783390D02*
X146845714Y-88592914D01*
X146845714Y-88592914D02*
X146893333Y-88497676D01*
X146893333Y-88497676D02*
X146988571Y-88402438D01*
X146988571Y-88402438D02*
X147131428Y-88354819D01*
X147131428Y-88354819D02*
X147226666Y-88354819D01*
X147226666Y-88354819D02*
X147369523Y-88402438D01*
X147369523Y-88402438D02*
X147417142Y-88450057D01*
X148369523Y-89354819D02*
X147798095Y-89354819D01*
X148083809Y-89354819D02*
X148083809Y-88354819D01*
X148083809Y-88354819D02*
X147988571Y-88497676D01*
X147988571Y-88497676D02*
X147893333Y-88592914D01*
X147893333Y-88592914D02*
X147798095Y-88640533D01*
X148988571Y-88354819D02*
X149083809Y-88354819D01*
X149083809Y-88354819D02*
X149179047Y-88402438D01*
X149179047Y-88402438D02*
X149226666Y-88450057D01*
X149226666Y-88450057D02*
X149274285Y-88545295D01*
X149274285Y-88545295D02*
X149321904Y-88735771D01*
X149321904Y-88735771D02*
X149321904Y-88973866D01*
X149321904Y-88973866D02*
X149274285Y-89164342D01*
X149274285Y-89164342D02*
X149226666Y-89259580D01*
X149226666Y-89259580D02*
X149179047Y-89307200D01*
X149179047Y-89307200D02*
X149083809Y-89354819D01*
X149083809Y-89354819D02*
X148988571Y-89354819D01*
X148988571Y-89354819D02*
X148893333Y-89307200D01*
X148893333Y-89307200D02*
X148845714Y-89259580D01*
X148845714Y-89259580D02*
X148798095Y-89164342D01*
X148798095Y-89164342D02*
X148750476Y-88973866D01*
X148750476Y-88973866D02*
X148750476Y-88735771D01*
X148750476Y-88735771D02*
X148798095Y-88545295D01*
X148798095Y-88545295D02*
X148845714Y-88450057D01*
X148845714Y-88450057D02*
X148893333Y-88402438D01*
X148893333Y-88402438D02*
X148988571Y-88354819D01*
X148373333Y-92614819D02*
X148040000Y-92138628D01*
X147801905Y-92614819D02*
X147801905Y-91614819D01*
X147801905Y-91614819D02*
X148182857Y-91614819D01*
X148182857Y-91614819D02*
X148278095Y-91662438D01*
X148278095Y-91662438D02*
X148325714Y-91710057D01*
X148325714Y-91710057D02*
X148373333Y-91805295D01*
X148373333Y-91805295D02*
X148373333Y-91948152D01*
X148373333Y-91948152D02*
X148325714Y-92043390D01*
X148325714Y-92043390D02*
X148278095Y-92091009D01*
X148278095Y-92091009D02*
X148182857Y-92138628D01*
X148182857Y-92138628D02*
X147801905Y-92138628D01*
X148944762Y-92043390D02*
X148849524Y-91995771D01*
X148849524Y-91995771D02*
X148801905Y-91948152D01*
X148801905Y-91948152D02*
X148754286Y-91852914D01*
X148754286Y-91852914D02*
X148754286Y-91805295D01*
X148754286Y-91805295D02*
X148801905Y-91710057D01*
X148801905Y-91710057D02*
X148849524Y-91662438D01*
X148849524Y-91662438D02*
X148944762Y-91614819D01*
X148944762Y-91614819D02*
X149135238Y-91614819D01*
X149135238Y-91614819D02*
X149230476Y-91662438D01*
X149230476Y-91662438D02*
X149278095Y-91710057D01*
X149278095Y-91710057D02*
X149325714Y-91805295D01*
X149325714Y-91805295D02*
X149325714Y-91852914D01*
X149325714Y-91852914D02*
X149278095Y-91948152D01*
X149278095Y-91948152D02*
X149230476Y-91995771D01*
X149230476Y-91995771D02*
X149135238Y-92043390D01*
X149135238Y-92043390D02*
X148944762Y-92043390D01*
X148944762Y-92043390D02*
X148849524Y-92091009D01*
X148849524Y-92091009D02*
X148801905Y-92138628D01*
X148801905Y-92138628D02*
X148754286Y-92233866D01*
X148754286Y-92233866D02*
X148754286Y-92424342D01*
X148754286Y-92424342D02*
X148801905Y-92519580D01*
X148801905Y-92519580D02*
X148849524Y-92567200D01*
X148849524Y-92567200D02*
X148944762Y-92614819D01*
X148944762Y-92614819D02*
X149135238Y-92614819D01*
X149135238Y-92614819D02*
X149230476Y-92567200D01*
X149230476Y-92567200D02*
X149278095Y-92519580D01*
X149278095Y-92519580D02*
X149325714Y-92424342D01*
X149325714Y-92424342D02*
X149325714Y-92233866D01*
X149325714Y-92233866D02*
X149278095Y-92138628D01*
X149278095Y-92138628D02*
X149230476Y-92091009D01*
X149230476Y-92091009D02*
X149135238Y-92043390D01*
D12*
%TO.C,J1*%
X153770000Y-103010000D02*
X153270000Y-102510000D01*
X153770000Y-102010000D02*
X153770000Y-103010000D01*
X153270000Y-102510000D02*
X153770000Y-102010000D01*
X153075000Y-109920000D02*
X153075000Y-102310000D01*
X153075000Y-109920000D02*
X136345000Y-109920000D01*
X153075000Y-93950000D02*
X153075000Y-99510000D01*
X153075000Y-93950000D02*
X136345000Y-93950000D01*
X136345000Y-109920000D02*
X136345000Y-102310000D01*
X136345000Y-93950000D02*
X136345000Y-99510000D01*
%TO.C,R7*%
X150882742Y-84807500D02*
X151357258Y-84807500D01*
X150882742Y-85852500D02*
X151357258Y-85852500D01*
%TO.C,R6*%
X150882742Y-86407500D02*
X151357258Y-86407500D01*
X150882742Y-87452500D02*
X151357258Y-87452500D01*
%TO.C,R9*%
X150872742Y-90057500D02*
X151347258Y-90057500D01*
X150872742Y-91102500D02*
X151347258Y-91102500D01*
%TO.C,J3*%
X154712000Y-87025000D02*
X154712000Y-105085000D01*
X154712000Y-87025000D02*
X156832000Y-87025000D01*
X154712000Y-105085000D02*
X156832000Y-105085000D01*
X155772000Y-84965000D02*
X156832000Y-84965000D01*
X156832000Y-84965000D02*
X156832000Y-86025000D01*
X156832000Y-87025000D02*
X156832000Y-105085000D01*
%TO.C,J2*%
X132712000Y-87025000D02*
X132712000Y-105085000D01*
X132712000Y-87025000D02*
X134832000Y-87025000D01*
X132712000Y-105085000D02*
X134832000Y-105085000D01*
X133772000Y-84965000D02*
X134832000Y-84965000D01*
X134832000Y-84965000D02*
X134832000Y-86025000D01*
X134832000Y-87025000D02*
X134832000Y-105085000D01*
%TO.C,C10*%
X149622500Y-88115000D02*
X149622500Y-89685000D01*
X149622500Y-89685000D02*
X151932500Y-89685000D01*
X151932500Y-88115000D02*
X149622500Y-88115000D01*
%TO.C,R8*%
X150872742Y-91637500D02*
X151347258Y-91637500D01*
X150872742Y-92682500D02*
X151347258Y-92682500D01*
%TD*%
%LPC*%
D13*
%TO.C,J1*%
X151060000Y-104350000D03*
X138360000Y-104350000D03*
D14*
X148270000Y-101810000D03*
D15*
X147254000Y-100030000D03*
X146238000Y-101810000D03*
X145222000Y-100030000D03*
X144206000Y-101810000D03*
X143190000Y-100030000D03*
X142174000Y-101810000D03*
X141158000Y-100030000D03*
X151570000Y-95210000D03*
X149280000Y-95210000D03*
X140140000Y-95210000D03*
X137850000Y-95210000D03*
D16*
X152840000Y-100920000D03*
X136580000Y-100920000D03*
%TD*%
D17*
%TO.C,R7*%
X150295000Y-85330000D03*
X151945000Y-85330000D03*
%TD*%
%TO.C,R6*%
X150295000Y-86930000D03*
X151945000Y-86930000D03*
%TD*%
%TO.C,R9*%
X150285000Y-90580000D03*
X151935000Y-90580000D03*
%TD*%
D18*
%TO.C,J3*%
X155772000Y-86025000D03*
D19*
X155772000Y-88025000D03*
X155772000Y-90025000D03*
X155772000Y-92025000D03*
X155772000Y-94025000D03*
X155772000Y-96025000D03*
X155772000Y-98025000D03*
X155772000Y-100025000D03*
X155772000Y-102025000D03*
X155772000Y-104025000D03*
%TD*%
D18*
%TO.C,J2*%
X133772000Y-86025000D03*
D19*
X133772000Y-88025000D03*
X133772000Y-90025000D03*
X133772000Y-92025000D03*
X133772000Y-94025000D03*
X133772000Y-96025000D03*
X133772000Y-98025000D03*
X133772000Y-100025000D03*
X133772000Y-102025000D03*
X133772000Y-104025000D03*
%TD*%
D20*
%TO.C,C10*%
X150420000Y-88900000D03*
X151845000Y-88900000D03*
%TD*%
D17*
%TO.C,R8*%
X150285000Y-92160000D03*
X151935000Y-92160000D03*
%TD*%
%LPD*%
M02*
