%TF.GenerationSoftware,KiCad,Pcbnew,7.0.7*%
%TF.CreationDate,2023-10-04T23:51:43-06:00*%
%TF.ProjectId,GigE_Module,47696745-5f4d-46f6-9475-6c652e6b6963,rev?*%
%TF.SameCoordinates,Original*%
%TF.FileFunction,Copper,L1,Top*%
%TF.FilePolarity,Positive*%
%FSLAX46Y46*%
G04 Gerber Fmt 4.6, Leading zero omitted, Abs format (unit mm)*
G04 Created by KiCad (PCBNEW 7.0.7) date 2023-10-04 23:51:43*
%MOMM*%
%LPD*%
G01*
G04 APERTURE LIST*
G04 Aperture macros list*
%AMRoundRect*
0 Rectangle with rounded corners*
0 $1 Rounding radius*
0 $2 $3 $4 $5 $6 $7 $8 $9 X,Y pos of 4 corners*
0 Add a 4 corners polygon primitive as box body*
4,1,4,$2,$3,$4,$5,$6,$7,$8,$9,$2,$3,0*
0 Add four circle primitives for the rounded corners*
1,1,$1+$1,$2,$3*
1,1,$1+$1,$4,$5*
1,1,$1+$1,$6,$7*
1,1,$1+$1,$8,$9*
0 Add four rect primitives between the rounded corners*
20,1,$1+$1,$2,$3,$4,$5,0*
20,1,$1+$1,$4,$5,$6,$7,0*
20,1,$1+$1,$6,$7,$8,$9,0*
20,1,$1+$1,$8,$9,$2,$3,0*%
G04 Aperture macros list end*
%TA.AperFunction,ComponentPad*%
%ADD10R,1.500000X1.500000*%
%TD*%
%TA.AperFunction,ComponentPad*%
%ADD11C,1.500000*%
%TD*%
%TA.AperFunction,ComponentPad*%
%ADD12C,2.300000*%
%TD*%
%TA.AperFunction,SMDPad,CuDef*%
%ADD13RoundRect,0.200000X-0.200000X-0.275000X0.200000X-0.275000X0.200000X0.275000X-0.200000X0.275000X0*%
%TD*%
%TA.AperFunction,ComponentPad*%
%ADD14R,1.350000X1.350000*%
%TD*%
%TA.AperFunction,ComponentPad*%
%ADD15O,1.350000X1.350000*%
%TD*%
%TA.AperFunction,SMDPad,CuDef*%
%ADD16RoundRect,0.250000X-0.287500X-0.275000X0.287500X-0.275000X0.287500X0.275000X-0.287500X0.275000X0*%
%TD*%
%TA.AperFunction,ViaPad*%
%ADD17C,0.800000*%
%TD*%
%TA.AperFunction,Conductor*%
%ADD18C,0.250000*%
%TD*%
%TA.AperFunction,Conductor*%
%ADD19C,0.200000*%
%TD*%
G04 APERTURE END LIST*
D10*
%TO.P,J1,1*%
%TO.N,/TPOUT+*%
X148270000Y-101810000D03*
D11*
%TO.P,J1,2*%
%TO.N,/TPOUT-*%
X147254000Y-100030000D03*
%TO.P,J1,3*%
%TO.N,/TPIN+*%
X146238000Y-101810000D03*
%TO.P,J1,4*%
%TO.N,Net-(C9-Pad1)*%
X145222000Y-100030000D03*
%TO.P,J1,5*%
%TO.N,unconnected-(J1-Pad5)*%
X144206000Y-101810000D03*
%TO.P,J1,6*%
%TO.N,/TPIN-*%
X143190000Y-100030000D03*
%TO.P,J1,7*%
%TO.N,unconnected-(J1-Pad7)*%
X142174000Y-101810000D03*
%TO.P,J1,8*%
%TO.N,unconnected-(J1-Pad8)*%
X141158000Y-100030000D03*
%TO.P,J1,9*%
%TO.N,Net-(J1-Pad9)*%
X151570000Y-95210000D03*
%TO.P,J1,10*%
%TO.N,/LEDB*%
X149280000Y-95210000D03*
%TO.P,J1,11*%
%TO.N,Net-(J1-Pad11)*%
X140140000Y-95210000D03*
%TO.P,J1,12*%
%TO.N,/LEDA*%
X137850000Y-95210000D03*
D12*
%TO.P,J1,SH*%
%TO.N,N/C*%
X152840000Y-100920000D03*
X136580000Y-100920000D03*
%TD*%
D13*
%TO.P,R7,1*%
%TO.N,Net-(J1-Pad9)*%
X150295000Y-85330000D03*
%TO.P,R7,2*%
%TO.N,/GND*%
X151945000Y-85330000D03*
%TD*%
%TO.P,R6,1*%
%TO.N,Net-(J1-Pad11)*%
X150295000Y-86930000D03*
%TO.P,R6,2*%
%TO.N,/GND*%
X151945000Y-86930000D03*
%TD*%
%TO.P,R9,1*%
%TO.N,/TPIN-*%
X150285000Y-90580000D03*
%TO.P,R9,2*%
%TO.N,Net-(C10-Pad1)*%
X151935000Y-90580000D03*
%TD*%
D14*
%TO.P,J3,1,Pin_1*%
%TO.N,unconnected-(J3-Pin_1-Pad1)*%
X155772000Y-86025000D03*
D15*
%TO.P,J3,2,Pin_2*%
%TO.N,unconnected-(J3-Pin_2-Pad2)*%
X155772000Y-88025000D03*
%TO.P,J3,3,Pin_3*%
%TO.N,/SCK*%
X155772000Y-90025000D03*
%TO.P,J3,4,Pin_4*%
%TO.N,/MISO*%
X155772000Y-92025000D03*
%TO.P,J3,5,Pin_5*%
%TO.N,/MOSI*%
X155772000Y-94025000D03*
%TO.P,J3,6,Pin_6*%
%TO.N,unconnected-(J3-Pin_6-Pad6)*%
X155772000Y-96025000D03*
%TO.P,J3,7,Pin_7*%
%TO.N,unconnected-(J3-Pin_7-Pad7)*%
X155772000Y-98025000D03*
%TO.P,J3,8,Pin_8*%
%TO.N,unconnected-(J3-Pin_8-Pad8)*%
X155772000Y-100025000D03*
%TO.P,J3,9,Pin_9*%
%TO.N,unconnected-(J3-Pin_9-Pad9)*%
X155772000Y-102025000D03*
%TO.P,J3,10,Pin_10*%
%TO.N,unconnected-(J3-Pin_10-Pad10)*%
X155772000Y-104025000D03*
%TD*%
D14*
%TO.P,J2,1,Pin_1*%
%TO.N,/VCC*%
X133772000Y-86025000D03*
D15*
%TO.P,J2,2,Pin_2*%
%TO.N,unconnected-(J2-Pin_2-Pad2)*%
X133772000Y-88025000D03*
%TO.P,J2,3,Pin_3*%
%TO.N,unconnected-(J2-Pin_3-Pad3)*%
X133772000Y-90025000D03*
%TO.P,J2,4,Pin_4*%
%TO.N,unconnected-(J2-Pin_4-Pad4)*%
X133772000Y-92025000D03*
%TO.P,J2,5,Pin_5*%
%TO.N,unconnected-(J2-Pin_5-Pad5)*%
X133772000Y-94025000D03*
%TO.P,J2,6,Pin_6*%
%TO.N,/CS*%
X133772000Y-96025000D03*
%TO.P,J2,7,Pin_7*%
%TO.N,/INT*%
X133772000Y-98025000D03*
%TO.P,J2,8,Pin_8*%
%TO.N,unconnected-(J2-Pin_8-Pad8)*%
X133772000Y-100025000D03*
%TO.P,J2,9,Pin_9*%
%TO.N,unconnected-(J2-Pin_9-Pad9)*%
X133772000Y-102025000D03*
%TO.P,J2,10,Pin_10*%
%TO.N,/GND*%
X133772000Y-104025000D03*
%TD*%
D16*
%TO.P,C10,1*%
%TO.N,Net-(C10-Pad1)*%
X150420000Y-88900000D03*
%TO.P,C10,2*%
%TO.N,/GND*%
X151845000Y-88900000D03*
%TD*%
D13*
%TO.P,R8,1*%
%TO.N,Net-(C10-Pad1)*%
X150285000Y-92160000D03*
%TO.P,R8,2*%
%TO.N,/TPIN+*%
X151935000Y-92160000D03*
%TD*%
D17*
%TO.N,/GND*%
X145560000Y-92840000D03*
X138312000Y-87725000D03*
X142710000Y-88260000D03*
X139240000Y-100000000D03*
X145334503Y-91390500D03*
X143990000Y-87000000D03*
X144780000Y-89640000D03*
%TO.N,/VCC*%
X136830000Y-92900000D03*
X153882000Y-94113891D03*
%TO.N,/CS*%
X144237921Y-92840000D03*
%TO.N,/INT*%
X142646502Y-90592642D03*
%TO.N,/LEDA*%
X143000000Y-85110000D03*
X135504500Y-92900000D03*
%TO.N,/LEDB*%
X146490000Y-85110000D03*
%TO.N,/TPOUT+*%
X148100000Y-97900000D03*
%TO.N,/TPOUT-*%
X147085284Y-97900000D03*
%TO.N,/TPIN+*%
X149124718Y-97900000D03*
%TO.N,/TPIN-*%
X146497500Y-95136911D03*
%TD*%
D18*
%TO.N,/GND*%
X151795673Y-88900000D02*
X150945673Y-88050000D01*
X145334503Y-92614503D02*
X145560000Y-92840000D01*
X139240000Y-100000000D02*
X139240000Y-100345966D01*
X143970000Y-87000000D02*
X142710000Y-88260000D01*
X139240000Y-100345966D02*
X135560966Y-104025000D01*
X151845000Y-88900000D02*
X151795673Y-88900000D01*
X151935000Y-88810000D02*
X151845000Y-88900000D01*
X144780000Y-89640000D02*
X144090000Y-89640000D01*
X145334503Y-91390500D02*
X145334503Y-92614503D01*
X151935000Y-87250000D02*
X151935000Y-88810000D01*
X135560966Y-104025000D02*
X133772000Y-104025000D01*
X143990000Y-87000000D02*
X143970000Y-87000000D01*
X150945673Y-88050000D02*
X149860000Y-88050000D01*
X151935000Y-85650000D02*
X151935000Y-87250000D01*
X138312000Y-87725000D02*
X138847000Y-88260000D01*
X149860000Y-88050000D02*
X145560000Y-92350000D01*
X138847000Y-88260000D02*
X142710000Y-88260000D01*
X144090000Y-89640000D02*
X142710000Y-88260000D01*
X145560000Y-92350000D02*
X145560000Y-92840000D01*
%TO.N,/VCC*%
X136830000Y-92900000D02*
X136105000Y-93625000D01*
X136105000Y-93625000D02*
X135175000Y-93625000D01*
X134780000Y-93230000D02*
X134780000Y-87033000D01*
X136167000Y-83630000D02*
X133772000Y-86025000D01*
X153607500Y-93839391D02*
X153607500Y-84127500D01*
X134780000Y-87033000D02*
X133772000Y-86025000D01*
X135175000Y-93625000D02*
X134780000Y-93230000D01*
X153882000Y-94113891D02*
X153607500Y-93839391D01*
X153110000Y-83630000D02*
X136167000Y-83630000D01*
X153607500Y-84127500D02*
X153110000Y-83630000D01*
%TO.N,Net-(C10-Pad1)*%
X150420000Y-89065000D02*
X151935000Y-90580000D01*
X151865000Y-90580000D02*
X150285000Y-92160000D01*
X151935000Y-90580000D02*
X151865000Y-90580000D01*
X150420000Y-88900000D02*
X150420000Y-89065000D01*
%TO.N,Net-(J1-Pad9)*%
X152362462Y-84530000D02*
X152707500Y-84875038D01*
X152707500Y-94072500D02*
X151570000Y-95210000D01*
X151405000Y-84530000D02*
X152362462Y-84530000D01*
X150285000Y-85650000D02*
X151405000Y-84530000D01*
X152707500Y-84875038D02*
X152707500Y-94072500D01*
%TO.N,/CS*%
X144333371Y-96700000D02*
X134447000Y-96700000D01*
X145772500Y-95260871D02*
X144333371Y-96700000D01*
X134447000Y-96700000D02*
X133772000Y-96025000D01*
X145772500Y-94411256D02*
X145772500Y-95260871D01*
X144237921Y-92876677D02*
X145772500Y-94411256D01*
%TO.N,/INT*%
X142646502Y-90592642D02*
X141387065Y-91852079D01*
X141387065Y-91852079D02*
X139687641Y-91852079D01*
X133357786Y-95025000D02*
X132772000Y-95610786D01*
X136514720Y-95025000D02*
X133357786Y-95025000D01*
X139687641Y-91852079D02*
X136514720Y-95025000D01*
X132772000Y-95610786D02*
X132772000Y-97025000D01*
X132772000Y-97025000D02*
X133772000Y-98025000D01*
%TO.N,Net-(J1-Pad11)*%
X140490000Y-95210000D02*
X140140000Y-95210000D01*
X150295000Y-86930000D02*
X148770000Y-86930000D01*
X148770000Y-86930000D02*
X140490000Y-95210000D01*
X140140000Y-95040000D02*
X140140000Y-95210000D01*
%TO.N,/LEDA*%
X137190000Y-85110000D02*
X143000000Y-85110000D01*
X135504500Y-92900000D02*
X136070000Y-92334500D01*
X136070000Y-92334500D02*
X136070000Y-86230000D01*
X136070000Y-86230000D02*
X137190000Y-85110000D01*
%TO.N,/LEDB*%
X152015280Y-96285000D02*
X150355000Y-96285000D01*
X150355000Y-96285000D02*
X149280000Y-95210000D01*
X146490000Y-85110000D02*
X147520000Y-84080000D01*
X153157500Y-95142780D02*
X152015280Y-96285000D01*
X147520000Y-84080000D02*
X152923604Y-84080000D01*
X153157500Y-84313896D02*
X153157500Y-95142780D01*
X152923604Y-84080000D02*
X153157500Y-84313896D01*
D19*
%TO.N,/TPOUT+*%
X148270000Y-101810000D02*
X148304000Y-101776000D01*
X148304000Y-98104000D02*
X148100000Y-97900000D01*
X148304000Y-101776000D02*
X148304000Y-98104000D01*
%TO.N,/TPOUT-*%
X147254000Y-100030000D02*
X147254000Y-98068716D01*
X147254000Y-98068716D02*
X147085284Y-97900000D01*
%TO.N,/TPIN+*%
X149124718Y-97900000D02*
X149320000Y-98095282D01*
X148230000Y-94775075D02*
X148230000Y-97005282D01*
X147288000Y-102860000D02*
X146238000Y-101810000D01*
X150330000Y-93765000D02*
X149240075Y-93765000D01*
X148230000Y-97005282D02*
X149124718Y-97900000D01*
X149150000Y-102860000D02*
X147288000Y-102860000D01*
X149240075Y-93765000D02*
X148230000Y-94775075D01*
X149320000Y-98095282D02*
X149320000Y-102690000D01*
X151935000Y-92160000D02*
X150330000Y-93765000D01*
X149320000Y-102690000D02*
X149150000Y-102860000D01*
%TO.N,/TPIN-*%
X146497500Y-95136911D02*
X143190000Y-98444411D01*
X146497500Y-95136911D02*
X146497500Y-94602500D01*
X143190000Y-98444411D02*
X143190000Y-100030000D01*
X146497500Y-94602500D02*
X150285000Y-90815000D01*
X150285000Y-90815000D02*
X150285000Y-90580000D01*
%TD*%
M02*
