M48
; DRILL file {KiCad 7.0.7} date Wed Oct  4 23:51:43 2023
; FORMAT={-:-/ absolute / inch / decimal}
; #@! TF.CreationDate,2023-10-04T23:51:43-06:00
; #@! TF.GenerationSoftware,Kicad,Pcbnew,7.0.7
; #@! TF.FileFunction,Plated,1,2,PTH
FMAT,2
INCH
; #@! TA.AperFunction,Plated,PTH,ViaDrill
T1C0.0157
; #@! TA.AperFunction,Plated,PTH,ComponentDrill
T2C0.0315
; #@! TA.AperFunction,Plated,PTH,ComponentDrill
T3C0.0350
; #@! TA.AperFunction,Plated,PTH,ComponentDrill
T4C0.0618
%
G90
G05
T1
X5.3348Y-3.6575
X5.387Y-3.6575
X5.4454Y-3.4537
X5.4819Y-3.937
X5.616Y-3.5666
X5.6185Y-3.4748
X5.6299Y-3.3508
X5.6689Y-3.4252
X5.6787Y-3.6551
X5.7Y-3.5291
X5.7218Y-3.5981
X5.7307Y-3.6551
X5.7673Y-3.3508
X5.7676Y-3.7455
X5.7908Y-3.8543
X5.8307Y-3.8543
X5.8711Y-3.8543
X6.0583Y-3.7053
T2
X5.2666Y-3.3868
X5.2666Y-3.4656
X5.2666Y-3.5443
X5.2666Y-3.623
X5.2666Y-3.7018
X5.2666Y-3.7805
X5.2666Y-3.8593
X5.2666Y-3.938
X5.2666Y-4.0167
X5.2666Y-4.0955
X6.1328Y-3.3868
X6.1328Y-3.4656
X6.1328Y-3.5443
X6.1328Y-3.623
X6.1328Y-3.7018
X6.1328Y-3.7805
X6.1328Y-3.8593
X6.1328Y-3.938
X6.1328Y-4.0167
X6.1328Y-4.0955
T3
X5.4272Y-3.7484
X5.5173Y-3.7484
X5.5574Y-3.9382
X5.5974Y-4.0083
X5.6374Y-3.9382
X5.6774Y-4.0083
X5.7174Y-3.9382
X5.7574Y-4.0083
X5.7974Y-3.9382
X5.8374Y-4.0083
X5.8772Y-3.7484
X5.9673Y-3.7484
T4
X5.3772Y-3.9732
X6.0173Y-3.9732
T0
M30
