%TF.GenerationSoftware,KiCad,Pcbnew,7.0.7*%
%TF.CreationDate,2023-10-04T23:51:43-06:00*%
%TF.ProjectId,GigE_Module,47696745-5f4d-46f6-9475-6c652e6b6963,rev?*%
%TF.SameCoordinates,Original*%
%TF.FileFunction,Copper,L2,Bot*%
%TF.FilePolarity,Positive*%
%FSLAX46Y46*%
G04 Gerber Fmt 4.6, Leading zero omitted, Abs format (unit mm)*
G04 Created by KiCad (PCBNEW 7.0.7) date 2023-10-04 23:51:43*
%MOMM*%
%LPD*%
G01*
G04 APERTURE LIST*
G04 Aperture macros list*
%AMRoundRect*
0 Rectangle with rounded corners*
0 $1 Rounding radius*
0 $2 $3 $4 $5 $6 $7 $8 $9 X,Y pos of 4 corners*
0 Add a 4 corners polygon primitive as box body*
4,1,4,$2,$3,$4,$5,$6,$7,$8,$9,$2,$3,0*
0 Add four circle primitives for the rounded corners*
1,1,$1+$1,$2,$3*
1,1,$1+$1,$4,$5*
1,1,$1+$1,$6,$7*
1,1,$1+$1,$8,$9*
0 Add four rect primitives between the rounded corners*
20,1,$1+$1,$2,$3,$4,$5,0*
20,1,$1+$1,$4,$5,$6,$7,0*
20,1,$1+$1,$6,$7,$8,$9,0*
20,1,$1+$1,$8,$9,$2,$3,0*%
G04 Aperture macros list end*
%TA.AperFunction,ComponentPad*%
%ADD10R,1.500000X1.500000*%
%TD*%
%TA.AperFunction,ComponentPad*%
%ADD11C,1.500000*%
%TD*%
%TA.AperFunction,ComponentPad*%
%ADD12C,2.300000*%
%TD*%
%TA.AperFunction,ComponentPad*%
%ADD13R,1.350000X1.350000*%
%TD*%
%TA.AperFunction,ComponentPad*%
%ADD14O,1.350000X1.350000*%
%TD*%
%TA.AperFunction,SMDPad,CuDef*%
%ADD15RoundRect,0.200000X0.200000X0.275000X-0.200000X0.275000X-0.200000X-0.275000X0.200000X-0.275000X0*%
%TD*%
%TA.AperFunction,SMDPad,CuDef*%
%ADD16R,1.750000X0.450000*%
%TD*%
%TA.AperFunction,SMDPad,CuDef*%
%ADD17RoundRect,0.250000X-0.275000X0.287500X-0.275000X-0.287500X0.275000X-0.287500X0.275000X0.287500X0*%
%TD*%
%TA.AperFunction,SMDPad,CuDef*%
%ADD18RoundRect,0.250000X0.275000X-0.287500X0.275000X0.287500X-0.275000X0.287500X-0.275000X-0.287500X0*%
%TD*%
%TA.AperFunction,SMDPad,CuDef*%
%ADD19RoundRect,0.218750X-0.218750X-0.256250X0.218750X-0.256250X0.218750X0.256250X-0.218750X0.256250X0*%
%TD*%
%TA.AperFunction,SMDPad,CuDef*%
%ADD20RoundRect,0.200000X-0.200000X-0.275000X0.200000X-0.275000X0.200000X0.275000X-0.200000X0.275000X0*%
%TD*%
%TA.AperFunction,SMDPad,CuDef*%
%ADD21R,2.200000X1.300000*%
%TD*%
%TA.AperFunction,SMDPad,CuDef*%
%ADD22RoundRect,0.250000X-0.287500X-0.275000X0.287500X-0.275000X0.287500X0.275000X-0.287500X0.275000X0*%
%TD*%
%TA.AperFunction,SMDPad,CuDef*%
%ADD23RoundRect,0.250000X0.287500X0.275000X-0.287500X0.275000X-0.287500X-0.275000X0.287500X-0.275000X0*%
%TD*%
%TA.AperFunction,ViaPad*%
%ADD24C,0.800000*%
%TD*%
%TA.AperFunction,Conductor*%
%ADD25C,0.250000*%
%TD*%
%TA.AperFunction,Conductor*%
%ADD26C,0.200000*%
%TD*%
G04 APERTURE END LIST*
D10*
%TO.P,J1,1*%
%TO.N,/TPOUT+*%
X148270000Y-101810000D03*
D11*
%TO.P,J1,2*%
%TO.N,/TPOUT-*%
X147254000Y-100030000D03*
%TO.P,J1,3*%
%TO.N,/TPIN+*%
X146238000Y-101810000D03*
%TO.P,J1,4*%
%TO.N,Net-(C9-Pad1)*%
X145222000Y-100030000D03*
%TO.P,J1,5*%
%TO.N,unconnected-(J1-Pad5)*%
X144206000Y-101810000D03*
%TO.P,J1,6*%
%TO.N,/TPIN-*%
X143190000Y-100030000D03*
%TO.P,J1,7*%
%TO.N,unconnected-(J1-Pad7)*%
X142174000Y-101810000D03*
%TO.P,J1,8*%
%TO.N,unconnected-(J1-Pad8)*%
X141158000Y-100030000D03*
%TO.P,J1,9*%
%TO.N,Net-(J1-Pad9)*%
X151570000Y-95210000D03*
%TO.P,J1,10*%
%TO.N,/LEDB*%
X149280000Y-95210000D03*
%TO.P,J1,11*%
%TO.N,Net-(J1-Pad11)*%
X140140000Y-95210000D03*
%TO.P,J1,12*%
%TO.N,/LEDA*%
X137850000Y-95210000D03*
D12*
%TO.P,J1,SH*%
%TO.N,N/C*%
X152840000Y-100920000D03*
X136580000Y-100920000D03*
%TD*%
D13*
%TO.P,J3,1,Pin_1*%
%TO.N,unconnected-(J3-Pin_1-Pad1)*%
X155772000Y-86025000D03*
D14*
%TO.P,J3,2,Pin_2*%
%TO.N,unconnected-(J3-Pin_2-Pad2)*%
X155772000Y-88025000D03*
%TO.P,J3,3,Pin_3*%
%TO.N,/SCK*%
X155772000Y-90025000D03*
%TO.P,J3,4,Pin_4*%
%TO.N,/MISO*%
X155772000Y-92025000D03*
%TO.P,J3,5,Pin_5*%
%TO.N,/MOSI*%
X155772000Y-94025000D03*
%TO.P,J3,6,Pin_6*%
%TO.N,unconnected-(J3-Pin_6-Pad6)*%
X155772000Y-96025000D03*
%TO.P,J3,7,Pin_7*%
%TO.N,unconnected-(J3-Pin_7-Pad7)*%
X155772000Y-98025000D03*
%TO.P,J3,8,Pin_8*%
%TO.N,unconnected-(J3-Pin_8-Pad8)*%
X155772000Y-100025000D03*
%TO.P,J3,9,Pin_9*%
%TO.N,unconnected-(J3-Pin_9-Pad9)*%
X155772000Y-102025000D03*
%TO.P,J3,10,Pin_10*%
%TO.N,unconnected-(J3-Pin_10-Pad10)*%
X155772000Y-104025000D03*
%TD*%
D13*
%TO.P,J2,1,Pin_1*%
%TO.N,/VCC*%
X133772000Y-86025000D03*
D14*
%TO.P,J2,2,Pin_2*%
%TO.N,unconnected-(J2-Pin_2-Pad2)*%
X133772000Y-88025000D03*
%TO.P,J2,3,Pin_3*%
%TO.N,unconnected-(J2-Pin_3-Pad3)*%
X133772000Y-90025000D03*
%TO.P,J2,4,Pin_4*%
%TO.N,unconnected-(J2-Pin_4-Pad4)*%
X133772000Y-92025000D03*
%TO.P,J2,5,Pin_5*%
%TO.N,unconnected-(J2-Pin_5-Pad5)*%
X133772000Y-94025000D03*
%TO.P,J2,6,Pin_6*%
%TO.N,/CS*%
X133772000Y-96025000D03*
%TO.P,J2,7,Pin_7*%
%TO.N,/INT*%
X133772000Y-98025000D03*
%TO.P,J2,8,Pin_8*%
%TO.N,unconnected-(J2-Pin_8-Pad8)*%
X133772000Y-100025000D03*
%TO.P,J2,9,Pin_9*%
%TO.N,unconnected-(J2-Pin_9-Pad9)*%
X133772000Y-102025000D03*
%TO.P,J2,10,Pin_10*%
%TO.N,/GND*%
X133772000Y-104025000D03*
%TD*%
D15*
%TO.P,R2,1*%
%TO.N,/VCC*%
X152072000Y-91325000D03*
%TO.P,R2,2*%
%TO.N,Net-(U4-~{RESET})*%
X150422000Y-91325000D03*
%TD*%
D16*
%TO.P,U4,1,VCAP*%
%TO.N,Net-(U4-VCAP)*%
X148372000Y-84700000D03*
%TO.P,U4,2,VSS*%
%TO.N,/GND*%
X148372000Y-85350000D03*
%TO.P,U4,3,CLKOUT*%
%TO.N,unconnected-(U4-CLKOUT-Pad3)*%
X148372000Y-86000000D03*
%TO.P,U4,4,~{INT}*%
%TO.N,/INT*%
X148372000Y-86650000D03*
%TO.P,U4,5,~{WOL}*%
%TO.N,unconnected-(U4-~{WOL}-Pad5)*%
X148372000Y-87300000D03*
%TO.P,U4,6,SO*%
%TO.N,/MISO*%
X148372000Y-87950000D03*
%TO.P,U4,7,SI*%
%TO.N,/MOSI*%
X148372000Y-88600000D03*
%TO.P,U4,8,SCK*%
%TO.N,/SCK*%
X148372000Y-89250000D03*
%TO.P,U4,9,~{CS}*%
%TO.N,/CS*%
X148372000Y-89900000D03*
%TO.P,U4,10,~{RESET}*%
%TO.N,Net-(U4-~{RESET})*%
X148372000Y-90550000D03*
%TO.P,U4,11,VSSRX*%
%TO.N,/GND*%
X148372000Y-91200000D03*
%TO.P,U4,12,TPIN-*%
%TO.N,/TPIN-*%
X148372000Y-91850000D03*
%TO.P,U4,13,TPIN+*%
%TO.N,/TPIN+*%
X148372000Y-92500000D03*
%TO.P,U4,14,RBIAS*%
%TO.N,Net-(U4-RBIAS)*%
X148372000Y-93150000D03*
%TO.P,U4,15,VDDTX*%
%TO.N,/VCC*%
X141172000Y-93150000D03*
%TO.P,U4,16,TPOUT-*%
%TO.N,/TPOUT-*%
X141172000Y-92500000D03*
%TO.P,U4,17,TPOUT+*%
%TO.N,/TPOUT+*%
X141172000Y-91850000D03*
%TO.P,U4,18,VSSTX*%
%TO.N,/GND*%
X141172000Y-91200000D03*
%TO.P,U4,19,VDDRX*%
%TO.N,/VCC*%
X141172000Y-90550000D03*
%TO.P,U4,20,VDDPLL*%
X141172000Y-89900000D03*
%TO.P,U4,21,VSSPLL*%
%TO.N,/GND*%
X141172000Y-89250000D03*
%TO.P,U4,22,VSSOSC*%
X141172000Y-88600000D03*
%TO.P,U4,23,OSC1*%
%TO.N,Net-(U4-OSC1)*%
X141172000Y-87950000D03*
%TO.P,U4,24,OSC2*%
%TO.N,Net-(U4-OSC2)*%
X141172000Y-87300000D03*
%TO.P,U4,25,VDDOSC*%
%TO.N,/VCC*%
X141172000Y-86650000D03*
%TO.P,U4,26,LEDB*%
%TO.N,/LEDB*%
X141172000Y-86000000D03*
%TO.P,U4,27,LEDA*%
%TO.N,/LEDA*%
X141172000Y-85350000D03*
%TO.P,U4,28,VDD*%
%TO.N,/VCC*%
X141172000Y-84700000D03*
%TD*%
D17*
%TO.P,C7,1*%
%TO.N,/VCC*%
X145720000Y-103847500D03*
%TO.P,C7,2*%
%TO.N,/GND*%
X145720000Y-105272500D03*
%TD*%
%TO.P,C6,1*%
%TO.N,/VCC*%
X143820000Y-103847500D03*
%TO.P,C6,2*%
%TO.N,/GND*%
X143820000Y-105272500D03*
%TD*%
D15*
%TO.P,R5,1*%
%TO.N,/TPOUT-*%
X152065000Y-98680000D03*
%TO.P,R5,2*%
%TO.N,Net-(C9-Pad1)*%
X150415000Y-98680000D03*
%TD*%
D18*
%TO.P,C3,1*%
%TO.N,/GND*%
X136080000Y-86940000D03*
%TO.P,C3,2*%
%TO.N,Net-(U4-OSC2)*%
X136080000Y-85515000D03*
%TD*%
D19*
%TO.P,L1,1,1*%
%TO.N,/VCC*%
X137535000Y-98684000D03*
%TO.P,L1,2,2*%
%TO.N,Net-(C9-Pad1)*%
X139110000Y-98684000D03*
%TD*%
D17*
%TO.P,C8,1*%
%TO.N,/VCC*%
X147620000Y-103847500D03*
%TO.P,C8,2*%
%TO.N,/GND*%
X147620000Y-105272500D03*
%TD*%
D20*
%TO.P,R4,1*%
%TO.N,Net-(C9-Pad1)*%
X150425000Y-97030000D03*
%TO.P,R4,2*%
%TO.N,/TPOUT+*%
X152075000Y-97030000D03*
%TD*%
D17*
%TO.P,C2,1*%
%TO.N,/GND*%
X136080000Y-88710000D03*
%TO.P,C2,2*%
%TO.N,Net-(U4-OSC1)*%
X136080000Y-90135000D03*
%TD*%
D15*
%TO.P,R1,1*%
%TO.N,/VCC*%
X152072000Y-89800000D03*
%TO.P,R1,2*%
%TO.N,/CS*%
X150422000Y-89800000D03*
%TD*%
D21*
%TO.P,Y1,1,1*%
%TO.N,Net-(U4-OSC1)*%
X138312000Y-89825000D03*
%TO.P,Y1,2,2*%
%TO.N,Net-(U4-OSC2)*%
X138312000Y-85625000D03*
%TD*%
D22*
%TO.P,C4,1*%
%TO.N,/VCC*%
X137622000Y-91710000D03*
%TO.P,C4,2*%
%TO.N,/GND*%
X139047000Y-91710000D03*
%TD*%
D17*
%TO.P,C5,1*%
%TO.N,/VCC*%
X141920000Y-103847500D03*
%TO.P,C5,2*%
%TO.N,/GND*%
X141920000Y-105272500D03*
%TD*%
%TO.P,C1,1*%
%TO.N,Net-(U4-VCAP)*%
X150572000Y-84712500D03*
%TO.P,C1,2*%
%TO.N,/GND*%
X150572000Y-86137500D03*
%TD*%
D23*
%TO.P,C9,1*%
%TO.N,Net-(C9-Pad1)*%
X139057500Y-97030000D03*
%TO.P,C9,2*%
%TO.N,/GND*%
X137632500Y-97030000D03*
%TD*%
D20*
%TO.P,R3,1*%
%TO.N,Net-(U4-RBIAS)*%
X150422000Y-92975000D03*
%TO.P,R3,2*%
%TO.N,/GND*%
X152072000Y-92975000D03*
%TD*%
D24*
%TO.N,/GND*%
X145560000Y-92840000D03*
X138312000Y-87725000D03*
X142710000Y-88260000D03*
X139240000Y-100000000D03*
X145334503Y-91390500D03*
X143990000Y-87000000D03*
X144780000Y-89640000D03*
%TO.N,/VCC*%
X136830000Y-92900000D03*
X153882000Y-94113891D03*
%TO.N,/CS*%
X144237921Y-92840000D03*
%TO.N,/INT*%
X142646502Y-90592642D03*
%TO.N,/LEDA*%
X143000000Y-85110000D03*
X135504500Y-92900000D03*
%TO.N,/LEDB*%
X146490000Y-85110000D03*
%TO.N,/TPOUT+*%
X148100000Y-97900000D03*
%TO.N,/TPOUT-*%
X147085284Y-97900000D03*
%TO.N,/TPIN+*%
X149124718Y-97900000D03*
%TO.N,/TPIN-*%
X146497500Y-95136911D03*
%TD*%
D25*
%TO.N,Net-(U4-VCAP)*%
X150559500Y-84700000D02*
X150572000Y-84712500D01*
X148372000Y-84700000D02*
X150559500Y-84700000D01*
%TO.N,/GND*%
X148372000Y-91200000D02*
X147200000Y-91200000D01*
X152645000Y-94775000D02*
X154315000Y-96445000D01*
X148697500Y-106350000D02*
X147620000Y-105272500D01*
X149784500Y-85350000D02*
X150572000Y-86137500D01*
X138297500Y-97695000D02*
X138297500Y-99115479D01*
X152072000Y-92975000D02*
X151222000Y-92125000D01*
X147275305Y-85350000D02*
X148372000Y-85350000D01*
X141172000Y-91200000D02*
X139557000Y-91200000D01*
X136097000Y-106350000D02*
X133772000Y-104025000D01*
X143990000Y-87000000D02*
X145625305Y-87000000D01*
X141920000Y-105272500D02*
X140842500Y-106350000D01*
X140842500Y-106350000D02*
X136097000Y-106350000D01*
X144780000Y-89640000D02*
X145334503Y-90194503D01*
X139557000Y-91200000D02*
X139047000Y-91710000D01*
X141172000Y-91200000D02*
X140047000Y-91200000D01*
X141172000Y-88600000D02*
X142370000Y-88600000D01*
X149497000Y-91200000D02*
X148372000Y-91200000D01*
X136080000Y-86940000D02*
X137527000Y-86940000D01*
X139972000Y-89325000D02*
X140047000Y-89250000D01*
X151222000Y-92125000D02*
X149995000Y-92125000D01*
X152072000Y-94191720D02*
X152645000Y-94764720D01*
X149572000Y-91275000D02*
X149497000Y-91200000D01*
X137527000Y-86940000D02*
X138312000Y-87725000D01*
X138297500Y-99115479D02*
X139182021Y-100000000D01*
X148372000Y-85350000D02*
X149784500Y-85350000D01*
X147620000Y-105272500D02*
X145720000Y-105272500D01*
X147200000Y-91200000D02*
X145560000Y-92840000D01*
X137632500Y-97030000D02*
X138297500Y-97695000D01*
X152072000Y-92975000D02*
X152072000Y-94191720D01*
X154315000Y-103923427D02*
X151888427Y-106350000D01*
X149995000Y-92125000D02*
X149572000Y-91702000D01*
X154315000Y-96445000D02*
X154315000Y-103923427D01*
X137632500Y-97030000D02*
X137632500Y-97342521D01*
X145334503Y-90194503D02*
X145334503Y-91390500D01*
X141172000Y-88600000D02*
X141172000Y-89250000D01*
X136080000Y-86940000D02*
X136080000Y-88710000D01*
X145720000Y-105272500D02*
X143820000Y-105272500D01*
X140047000Y-91200000D02*
X139972000Y-91125000D01*
X139182021Y-100000000D02*
X139240000Y-100000000D01*
X140047000Y-89250000D02*
X141172000Y-89250000D01*
X143820000Y-105272500D02*
X141920000Y-105272500D01*
X152645000Y-94764720D02*
X152645000Y-94775000D01*
X151888427Y-106350000D02*
X148697500Y-106350000D01*
X139972000Y-91125000D02*
X139972000Y-89325000D01*
X142370000Y-88600000D02*
X142710000Y-88260000D01*
X145625305Y-87000000D02*
X147275305Y-85350000D01*
X149572000Y-91702000D02*
X149572000Y-91275000D01*
%TO.N,Net-(U4-OSC1)*%
X138312000Y-89710000D02*
X138312000Y-89825000D01*
X141172000Y-87950000D02*
X140072000Y-87950000D01*
X136080000Y-90135000D02*
X138002000Y-90135000D01*
X140072000Y-87950000D02*
X138312000Y-89710000D01*
X138002000Y-90135000D02*
X138312000Y-89825000D01*
%TO.N,Net-(U4-OSC2)*%
X140072000Y-87300000D02*
X138397000Y-85625000D01*
X138397000Y-85625000D02*
X138312000Y-85625000D01*
X136080000Y-85515000D02*
X138202000Y-85515000D01*
X138202000Y-85515000D02*
X138312000Y-85625000D01*
X141172000Y-87300000D02*
X140072000Y-87300000D01*
%TO.N,/VCC*%
X152072000Y-89800000D02*
X152072000Y-91325000D01*
X137622000Y-92108000D02*
X136830000Y-92900000D01*
X152072000Y-91325000D02*
X153882000Y-93135000D01*
X143435000Y-87788000D02*
X143435000Y-88762000D01*
X137535000Y-98684000D02*
X134780000Y-95929000D01*
X137535000Y-98684000D02*
X137535000Y-99462500D01*
X137622000Y-91710000D02*
X137622000Y-92108000D01*
X141920000Y-103847500D02*
X143820000Y-103847500D01*
X134780000Y-95929000D02*
X134780000Y-87033000D01*
X141122000Y-84650000D02*
X135147000Y-84650000D01*
X140072000Y-86650000D02*
X139972000Y-86550000D01*
X134780000Y-87033000D02*
X133772000Y-86025000D01*
X141172000Y-89900000D02*
X141172000Y-90550000D01*
X141172000Y-93150000D02*
X139062000Y-93150000D01*
X143435000Y-88762000D02*
X142297000Y-89900000D01*
X143820000Y-103847500D02*
X145720000Y-103847500D01*
X139972000Y-86550000D02*
X139972000Y-84775000D01*
X142297000Y-86650000D02*
X143435000Y-87788000D01*
X145720000Y-103847500D02*
X147620000Y-103847500D01*
X140047000Y-84700000D02*
X141172000Y-84700000D01*
X137535000Y-99462500D02*
X141920000Y-103847500D01*
X135147000Y-84650000D02*
X133772000Y-86025000D01*
X141172000Y-86650000D02*
X142297000Y-86650000D01*
X153882000Y-93135000D02*
X153882000Y-94113891D01*
X141172000Y-86650000D02*
X140072000Y-86650000D01*
X139062000Y-93150000D02*
X137622000Y-91710000D01*
X142297000Y-89900000D02*
X141172000Y-89900000D01*
X139972000Y-84775000D02*
X140047000Y-84700000D01*
X141172000Y-84700000D02*
X141122000Y-84650000D01*
%TO.N,/CS*%
X147172000Y-90591604D02*
X147172000Y-90000000D01*
X147272000Y-89900000D02*
X148372000Y-89900000D01*
X144270323Y-92876677D02*
X145032000Y-92115000D01*
X144237921Y-92876677D02*
X144270323Y-92876677D01*
X148372000Y-89900000D02*
X150322000Y-89900000D01*
X145032000Y-92115000D02*
X145648604Y-92115000D01*
X147172000Y-90000000D02*
X147272000Y-89900000D01*
X150322000Y-89900000D02*
X150422000Y-89800000D01*
X145648604Y-92115000D02*
X147172000Y-90591604D01*
%TO.N,/INT*%
X142646502Y-90592642D02*
X142707358Y-90592642D01*
X146650000Y-86650000D02*
X148372000Y-86650000D01*
X142707358Y-90592642D02*
X146650000Y-86650000D01*
%TO.N,/SCK*%
X150004538Y-89000000D02*
X154747000Y-89000000D01*
X149754538Y-89250000D02*
X150004538Y-89000000D01*
X154747000Y-89000000D02*
X155772000Y-90025000D01*
X148372000Y-89250000D02*
X149754538Y-89250000D01*
%TO.N,/MISO*%
X154772000Y-85025000D02*
X156772000Y-85025000D01*
X156772000Y-85025000D02*
X157222000Y-85475000D01*
X157222000Y-93989214D02*
X156186214Y-95025000D01*
X157222000Y-85475000D02*
X157222000Y-93989214D01*
X154772000Y-93025000D02*
X155772000Y-92025000D01*
X154772000Y-94439214D02*
X154772000Y-93025000D01*
X148372000Y-87950000D02*
X151847000Y-87950000D01*
X151847000Y-87950000D02*
X154772000Y-85025000D01*
X156186214Y-95025000D02*
X155357786Y-95025000D01*
X155357786Y-95025000D02*
X154772000Y-94439214D01*
%TO.N,/MOSI*%
X153832786Y-88550000D02*
X155357786Y-87025000D01*
X156186214Y-87025000D02*
X156772000Y-87610786D01*
X148372000Y-88600000D02*
X149768142Y-88600000D01*
X156772000Y-87610786D02*
X156772000Y-93025000D01*
X156772000Y-93025000D02*
X155772000Y-94025000D01*
X149818142Y-88550000D02*
X153832786Y-88550000D01*
X155357786Y-87025000D02*
X156186214Y-87025000D01*
X149768142Y-88600000D02*
X149818142Y-88550000D01*
%TO.N,/LEDA*%
X142760000Y-85350000D02*
X143000000Y-85110000D01*
X135540000Y-92900000D02*
X137850000Y-95210000D01*
X141172000Y-85350000D02*
X142760000Y-85350000D01*
X135504500Y-92900000D02*
X135540000Y-92900000D01*
%TO.N,/LEDB*%
X145600000Y-86000000D02*
X141172000Y-86000000D01*
X146490000Y-85110000D02*
X145600000Y-86000000D01*
D26*
%TO.N,/TPOUT+*%
X147200000Y-97200000D02*
X147400000Y-97200000D01*
X152075000Y-97030000D02*
X152765000Y-97720000D01*
X149500686Y-101810000D02*
X148270000Y-101810000D01*
X142137686Y-91850000D02*
X142747000Y-92459314D01*
X151840686Y-99470000D02*
X149500686Y-101810000D01*
X152765000Y-97720000D02*
X152765000Y-99165000D01*
X141172000Y-91850000D02*
X142137686Y-91850000D01*
X142747000Y-92459314D02*
X142747000Y-92747000D01*
X152765000Y-99165000D02*
X152460000Y-99470000D01*
X152460000Y-99470000D02*
X151840686Y-99470000D01*
X147400000Y-97200000D02*
X148100000Y-97900000D01*
X142747000Y-92747000D02*
X147200000Y-97200000D01*
%TO.N,/TPOUT-*%
X141172000Y-92500000D02*
X142222000Y-92500000D01*
X152065000Y-98680000D02*
X150715000Y-100030000D01*
X142347000Y-93177000D02*
X147070000Y-97900000D01*
X142222000Y-92500000D02*
X142347000Y-92625000D01*
X150715000Y-100030000D02*
X147254000Y-100030000D01*
X147070000Y-97900000D02*
X147085284Y-97900000D01*
X142347000Y-92625000D02*
X142347000Y-93177000D01*
%TO.N,/TPIN+*%
X148372000Y-92500000D02*
X147322000Y-92500000D01*
X147197000Y-92625000D02*
X147197000Y-95972282D01*
X147197000Y-95972282D02*
X149124718Y-97900000D01*
X147322000Y-92500000D02*
X147197000Y-92625000D01*
%TO.N,/TPIN-*%
X147297000Y-91850000D02*
X146497500Y-92649500D01*
X146497500Y-92649500D02*
X146497500Y-95136911D01*
X148372000Y-91850000D02*
X147297000Y-91850000D01*
D25*
%TO.N,Net-(U4-~{RESET})*%
X149647000Y-90550000D02*
X150422000Y-91325000D01*
X148372000Y-90550000D02*
X149647000Y-90550000D01*
%TO.N,Net-(U4-RBIAS)*%
X150247000Y-93150000D02*
X150422000Y-92975000D01*
X148372000Y-93150000D02*
X150247000Y-93150000D01*
%TO.N,Net-(C9-Pad1)*%
X139057500Y-98631500D02*
X139110000Y-98684000D01*
X139057500Y-97030000D02*
X139057500Y-98631500D01*
X139110000Y-98684000D02*
X143876000Y-98684000D01*
X150415000Y-98680000D02*
X146572000Y-98680000D01*
X150425000Y-98670000D02*
X150415000Y-98680000D01*
X150425000Y-97030000D02*
X150425000Y-98670000D01*
X143876000Y-98684000D02*
X145222000Y-100030000D01*
X146572000Y-98680000D02*
X145222000Y-100030000D01*
%TD*%
M02*
