%TF.GenerationSoftware,KiCad,Pcbnew,7.0.7*%
%TF.CreationDate,2023-10-04T23:53:02-06:00*%
%TF.ProjectId,FPV_4-Pin_Module,4650565f-342d-4506-996e-5f4d6f64756c,rev?*%
%TF.SameCoordinates,Original*%
%TF.FileFunction,Legend,Bot*%
%TF.FilePolarity,Positive*%
%FSLAX46Y46*%
G04 Gerber Fmt 4.6, Leading zero omitted, Abs format (unit mm)*
G04 Created by KiCad (PCBNEW 7.0.7) date 2023-10-04 23:53:02*
%MOMM*%
%LPD*%
G01*
G04 APERTURE LIST*
G04 Aperture macros list*
%AMRoundRect*
0 Rectangle with rounded corners*
0 $1 Rounding radius*
0 $2 $3 $4 $5 $6 $7 $8 $9 X,Y pos of 4 corners*
0 Add a 4 corners polygon primitive as box body*
4,1,4,$2,$3,$4,$5,$6,$7,$8,$9,$2,$3,0*
0 Add four circle primitives for the rounded corners*
1,1,$1+$1,$2,$3*
1,1,$1+$1,$4,$5*
1,1,$1+$1,$6,$7*
1,1,$1+$1,$8,$9*
0 Add four rect primitives between the rounded corners*
20,1,$1+$1,$2,$3,$4,$5,0*
20,1,$1+$1,$4,$5,$6,$7,0*
20,1,$1+$1,$6,$7,$8,$9,0*
20,1,$1+$1,$8,$9,$2,$3,0*%
G04 Aperture macros list end*
%ADD10C,0.150000*%
%ADD11R,1.350000X1.350000*%
%ADD12O,1.350000X1.350000*%
%ADD13RoundRect,0.250000X-0.350000X-0.625000X0.350000X-0.625000X0.350000X0.625000X-0.350000X0.625000X0*%
%ADD14O,1.200000X1.750000*%
G04 APERTURE END LIST*
D10*
%TO.C,EXP_ORIENTATION*%
X149320000Y-70480000D02*
X148845000Y-70955000D01*
X149320000Y-70480000D02*
X149795000Y-70955000D01*
X149320000Y-70480000D02*
X148845000Y-70005000D01*
X149320000Y-70480000D02*
X149795000Y-70005000D01*
X149320000Y-69780000D02*
X149320000Y-68680000D01*
X149320000Y-68680000D02*
X148970000Y-69080000D01*
X149320000Y-68680000D02*
X149670000Y-69080000D01*
X150020446Y-70480000D02*
G75*
G03*
X150020446Y-70480000I-700446J0D01*
G01*
%TD*%
%LPC*%
D11*
%TO.C,J2*%
X138330000Y-71280000D03*
D12*
X138330000Y-73280000D03*
X138330000Y-75280000D03*
X138330000Y-77280000D03*
X138330000Y-79280000D03*
X138330000Y-81280000D03*
X138330000Y-83280000D03*
X138330000Y-85280000D03*
X138330000Y-87280000D03*
X138330000Y-89280000D03*
%TD*%
D11*
%TO.C,J3*%
X160300000Y-71270000D03*
D12*
X160300000Y-73270000D03*
X160300000Y-75270000D03*
X160300000Y-77270000D03*
X160300000Y-79270000D03*
X160300000Y-81270000D03*
X160300000Y-83270000D03*
X160300000Y-85270000D03*
X160300000Y-87270000D03*
X160300000Y-89270000D03*
%TD*%
D13*
%TO.C,J1*%
X146300000Y-83310000D03*
D14*
X148300000Y-83310000D03*
X150300000Y-83310000D03*
X152300000Y-83310000D03*
%TD*%
%LPD*%
M02*
