M48
; DRILL file {KiCad 7.0.7} date Wed Oct  4 23:53:02 2023
; FORMAT={-:-/ absolute / inch / decimal}
; #@! TF.CreationDate,2023-10-04T23:53:02-06:00
; #@! TF.GenerationSoftware,Kicad,Pcbnew,7.0.7
; #@! TF.FileFunction,Plated,1,2,PTH
FMAT,2
INCH
; #@! TA.AperFunction,Plated,PTH,ComponentDrill
T1C0.0295
; #@! TA.AperFunction,Plated,PTH,ComponentDrill
T2C0.0315
%
G90
G05
T1
X5.7598Y-3.2799
X5.8386Y-3.2799
X5.9173Y-3.2799
X5.9961Y-3.2799
T2
X5.4461Y-2.8063
X5.4461Y-2.885
X5.4461Y-2.9638
X5.4461Y-3.0425
X5.4461Y-3.1213
X5.4461Y-3.2
X5.4461Y-3.2787
X5.4461Y-3.3575
X5.4461Y-3.4362
X5.4461Y-3.515
X6.311Y-2.8059
X6.311Y-2.8846
X6.311Y-2.9634
X6.311Y-3.0421
X6.311Y-3.1209
X6.311Y-3.1996
X6.311Y-3.2783
X6.311Y-3.3571
X6.311Y-3.4358
X6.311Y-3.5146
T0
M30
