G04 #@! TF.GenerationSoftware,KiCad,Pcbnew,7.0.7*
G04 #@! TF.CreationDate,2023-10-04T16:54:14-06:00*
G04 #@! TF.ProjectId,USB_Module,5553425f-4d6f-4647-956c-652e6b696361,rev?*
G04 #@! TF.SameCoordinates,Original*
G04 #@! TF.FileFunction,Legend,Top*
G04 #@! TF.FilePolarity,Positive*
%FSLAX46Y46*%
G04 Gerber Fmt 4.6, Leading zero omitted, Abs format (unit mm)*
G04 Created by KiCad (PCBNEW 7.0.7) date 2023-10-04 16:54:14*
%MOMM*%
%LPD*%
G01*
G04 APERTURE LIST*
%ADD10C,0.100000*%
%ADD11C,0.150000*%
%ADD12C,0.120000*%
%ADD13R,1.250000X3.000000*%
%ADD14C,3.000000*%
%ADD15R,1.350000X1.350000*%
%ADD16O,1.350000X1.350000*%
G04 APERTURE END LIST*
D10*
X131205237Y-105488895D02*
X131167142Y-105469847D01*
X131167142Y-105469847D02*
X131109999Y-105469847D01*
X131109999Y-105469847D02*
X131052856Y-105488895D01*
X131052856Y-105488895D02*
X131014761Y-105526990D01*
X131014761Y-105526990D02*
X130995714Y-105565085D01*
X130995714Y-105565085D02*
X130976666Y-105641276D01*
X130976666Y-105641276D02*
X130976666Y-105698419D01*
X130976666Y-105698419D02*
X130995714Y-105774609D01*
X130995714Y-105774609D02*
X131014761Y-105812704D01*
X131014761Y-105812704D02*
X131052856Y-105850800D01*
X131052856Y-105850800D02*
X131109999Y-105869847D01*
X131109999Y-105869847D02*
X131148095Y-105869847D01*
X131148095Y-105869847D02*
X131205237Y-105850800D01*
X131205237Y-105850800D02*
X131224285Y-105831752D01*
X131224285Y-105831752D02*
X131224285Y-105698419D01*
X131224285Y-105698419D02*
X131148095Y-105698419D01*
X131395714Y-105869847D02*
X131395714Y-105469847D01*
X131395714Y-105469847D02*
X131624285Y-105869847D01*
X131624285Y-105869847D02*
X131624285Y-105469847D01*
X131814762Y-105869847D02*
X131814762Y-105469847D01*
X131814762Y-105469847D02*
X131910000Y-105469847D01*
X131910000Y-105469847D02*
X131967143Y-105488895D01*
X131967143Y-105488895D02*
X132005238Y-105526990D01*
X132005238Y-105526990D02*
X132024285Y-105565085D01*
X132024285Y-105565085D02*
X132043333Y-105641276D01*
X132043333Y-105641276D02*
X132043333Y-105698419D01*
X132043333Y-105698419D02*
X132024285Y-105774609D01*
X132024285Y-105774609D02*
X132005238Y-105812704D01*
X132005238Y-105812704D02*
X131967143Y-105850800D01*
X131967143Y-105850800D02*
X131910000Y-105869847D01*
X131910000Y-105869847D02*
X131814762Y-105869847D01*
D11*
X140227561Y-89327819D02*
X140227561Y-90137342D01*
X140227561Y-90137342D02*
X140275180Y-90232580D01*
X140275180Y-90232580D02*
X140322799Y-90280200D01*
X140322799Y-90280200D02*
X140418037Y-90327819D01*
X140418037Y-90327819D02*
X140608513Y-90327819D01*
X140608513Y-90327819D02*
X140703751Y-90280200D01*
X140703751Y-90280200D02*
X140751370Y-90232580D01*
X140751370Y-90232580D02*
X140798989Y-90137342D01*
X140798989Y-90137342D02*
X140798989Y-89327819D01*
X141227561Y-90280200D02*
X141370418Y-90327819D01*
X141370418Y-90327819D02*
X141608513Y-90327819D01*
X141608513Y-90327819D02*
X141703751Y-90280200D01*
X141703751Y-90280200D02*
X141751370Y-90232580D01*
X141751370Y-90232580D02*
X141798989Y-90137342D01*
X141798989Y-90137342D02*
X141798989Y-90042104D01*
X141798989Y-90042104D02*
X141751370Y-89946866D01*
X141751370Y-89946866D02*
X141703751Y-89899247D01*
X141703751Y-89899247D02*
X141608513Y-89851628D01*
X141608513Y-89851628D02*
X141418037Y-89804009D01*
X141418037Y-89804009D02*
X141322799Y-89756390D01*
X141322799Y-89756390D02*
X141275180Y-89708771D01*
X141275180Y-89708771D02*
X141227561Y-89613533D01*
X141227561Y-89613533D02*
X141227561Y-89518295D01*
X141227561Y-89518295D02*
X141275180Y-89423057D01*
X141275180Y-89423057D02*
X141322799Y-89375438D01*
X141322799Y-89375438D02*
X141418037Y-89327819D01*
X141418037Y-89327819D02*
X141656132Y-89327819D01*
X141656132Y-89327819D02*
X141798989Y-89375438D01*
X142560894Y-89804009D02*
X142703751Y-89851628D01*
X142703751Y-89851628D02*
X142751370Y-89899247D01*
X142751370Y-89899247D02*
X142798989Y-89994485D01*
X142798989Y-89994485D02*
X142798989Y-90137342D01*
X142798989Y-90137342D02*
X142751370Y-90232580D01*
X142751370Y-90232580D02*
X142703751Y-90280200D01*
X142703751Y-90280200D02*
X142608513Y-90327819D01*
X142608513Y-90327819D02*
X142227561Y-90327819D01*
X142227561Y-90327819D02*
X142227561Y-89327819D01*
X142227561Y-89327819D02*
X142560894Y-89327819D01*
X142560894Y-89327819D02*
X142656132Y-89375438D01*
X142656132Y-89375438D02*
X142703751Y-89423057D01*
X142703751Y-89423057D02*
X142751370Y-89518295D01*
X142751370Y-89518295D02*
X142751370Y-89613533D01*
X142751370Y-89613533D02*
X142703751Y-89708771D01*
X142703751Y-89708771D02*
X142656132Y-89756390D01*
X142656132Y-89756390D02*
X142560894Y-89804009D01*
X142560894Y-89804009D02*
X142227561Y-89804009D01*
X143846609Y-89327819D02*
X144418037Y-89327819D01*
X144132323Y-90327819D02*
X144132323Y-89327819D01*
X144656133Y-89661152D02*
X144894228Y-90327819D01*
X145132323Y-89661152D02*
X144894228Y-90327819D01*
X144894228Y-90327819D02*
X144798990Y-90565914D01*
X144798990Y-90565914D02*
X144751371Y-90613533D01*
X144751371Y-90613533D02*
X144656133Y-90661152D01*
X145513276Y-89661152D02*
X145513276Y-90661152D01*
X145513276Y-89708771D02*
X145608514Y-89661152D01*
X145608514Y-89661152D02*
X145798990Y-89661152D01*
X145798990Y-89661152D02*
X145894228Y-89708771D01*
X145894228Y-89708771D02*
X145941847Y-89756390D01*
X145941847Y-89756390D02*
X145989466Y-89851628D01*
X145989466Y-89851628D02*
X145989466Y-90137342D01*
X145989466Y-90137342D02*
X145941847Y-90232580D01*
X145941847Y-90232580D02*
X145894228Y-90280200D01*
X145894228Y-90280200D02*
X145798990Y-90327819D01*
X145798990Y-90327819D02*
X145608514Y-90327819D01*
X145608514Y-90327819D02*
X145513276Y-90280200D01*
X146798990Y-90280200D02*
X146703752Y-90327819D01*
X146703752Y-90327819D02*
X146513276Y-90327819D01*
X146513276Y-90327819D02*
X146418038Y-90280200D01*
X146418038Y-90280200D02*
X146370419Y-90184961D01*
X146370419Y-90184961D02*
X146370419Y-89804009D01*
X146370419Y-89804009D02*
X146418038Y-89708771D01*
X146418038Y-89708771D02*
X146513276Y-89661152D01*
X146513276Y-89661152D02*
X146703752Y-89661152D01*
X146703752Y-89661152D02*
X146798990Y-89708771D01*
X146798990Y-89708771D02*
X146846609Y-89804009D01*
X146846609Y-89804009D02*
X146846609Y-89899247D01*
X146846609Y-89899247D02*
X146370419Y-89994485D01*
X147989467Y-90042104D02*
X148465657Y-90042104D01*
X147894229Y-90327819D02*
X148227562Y-89327819D01*
X148227562Y-89327819D02*
X148560895Y-90327819D01*
X141941847Y-91937819D02*
X141941847Y-90937819D01*
X141941847Y-90937819D02*
X142275180Y-91652104D01*
X142275180Y-91652104D02*
X142608513Y-90937819D01*
X142608513Y-90937819D02*
X142608513Y-91937819D01*
X143227561Y-91937819D02*
X143132323Y-91890200D01*
X143132323Y-91890200D02*
X143084704Y-91842580D01*
X143084704Y-91842580D02*
X143037085Y-91747342D01*
X143037085Y-91747342D02*
X143037085Y-91461628D01*
X143037085Y-91461628D02*
X143084704Y-91366390D01*
X143084704Y-91366390D02*
X143132323Y-91318771D01*
X143132323Y-91318771D02*
X143227561Y-91271152D01*
X143227561Y-91271152D02*
X143370418Y-91271152D01*
X143370418Y-91271152D02*
X143465656Y-91318771D01*
X143465656Y-91318771D02*
X143513275Y-91366390D01*
X143513275Y-91366390D02*
X143560894Y-91461628D01*
X143560894Y-91461628D02*
X143560894Y-91747342D01*
X143560894Y-91747342D02*
X143513275Y-91842580D01*
X143513275Y-91842580D02*
X143465656Y-91890200D01*
X143465656Y-91890200D02*
X143370418Y-91937819D01*
X143370418Y-91937819D02*
X143227561Y-91937819D01*
X144418037Y-91937819D02*
X144418037Y-90937819D01*
X144418037Y-91890200D02*
X144322799Y-91937819D01*
X144322799Y-91937819D02*
X144132323Y-91937819D01*
X144132323Y-91937819D02*
X144037085Y-91890200D01*
X144037085Y-91890200D02*
X143989466Y-91842580D01*
X143989466Y-91842580D02*
X143941847Y-91747342D01*
X143941847Y-91747342D02*
X143941847Y-91461628D01*
X143941847Y-91461628D02*
X143989466Y-91366390D01*
X143989466Y-91366390D02*
X144037085Y-91318771D01*
X144037085Y-91318771D02*
X144132323Y-91271152D01*
X144132323Y-91271152D02*
X144322799Y-91271152D01*
X144322799Y-91271152D02*
X144418037Y-91318771D01*
X145322799Y-91271152D02*
X145322799Y-91937819D01*
X144894228Y-91271152D02*
X144894228Y-91794961D01*
X144894228Y-91794961D02*
X144941847Y-91890200D01*
X144941847Y-91890200D02*
X145037085Y-91937819D01*
X145037085Y-91937819D02*
X145179942Y-91937819D01*
X145179942Y-91937819D02*
X145275180Y-91890200D01*
X145275180Y-91890200D02*
X145322799Y-91842580D01*
X145941847Y-91937819D02*
X145846609Y-91890200D01*
X145846609Y-91890200D02*
X145798990Y-91794961D01*
X145798990Y-91794961D02*
X145798990Y-90937819D01*
X146703752Y-91890200D02*
X146608514Y-91937819D01*
X146608514Y-91937819D02*
X146418038Y-91937819D01*
X146418038Y-91937819D02*
X146322800Y-91890200D01*
X146322800Y-91890200D02*
X146275181Y-91794961D01*
X146275181Y-91794961D02*
X146275181Y-91414009D01*
X146275181Y-91414009D02*
X146322800Y-91318771D01*
X146322800Y-91318771D02*
X146418038Y-91271152D01*
X146418038Y-91271152D02*
X146608514Y-91271152D01*
X146608514Y-91271152D02*
X146703752Y-91318771D01*
X146703752Y-91318771D02*
X146751371Y-91414009D01*
X146751371Y-91414009D02*
X146751371Y-91509247D01*
X146751371Y-91509247D02*
X146275181Y-91604485D01*
D10*
X130976667Y-87449847D02*
X131110000Y-87849847D01*
X131110000Y-87849847D02*
X131243333Y-87449847D01*
X131605238Y-87811752D02*
X131586190Y-87830800D01*
X131586190Y-87830800D02*
X131529048Y-87849847D01*
X131529048Y-87849847D02*
X131490952Y-87849847D01*
X131490952Y-87849847D02*
X131433809Y-87830800D01*
X131433809Y-87830800D02*
X131395714Y-87792704D01*
X131395714Y-87792704D02*
X131376667Y-87754609D01*
X131376667Y-87754609D02*
X131357619Y-87678419D01*
X131357619Y-87678419D02*
X131357619Y-87621276D01*
X131357619Y-87621276D02*
X131376667Y-87545085D01*
X131376667Y-87545085D02*
X131395714Y-87506990D01*
X131395714Y-87506990D02*
X131433809Y-87468895D01*
X131433809Y-87468895D02*
X131490952Y-87449847D01*
X131490952Y-87449847D02*
X131529048Y-87449847D01*
X131529048Y-87449847D02*
X131586190Y-87468895D01*
X131586190Y-87468895D02*
X131605238Y-87487942D01*
X132005238Y-87811752D02*
X131986190Y-87830800D01*
X131986190Y-87830800D02*
X131929048Y-87849847D01*
X131929048Y-87849847D02*
X131890952Y-87849847D01*
X131890952Y-87849847D02*
X131833809Y-87830800D01*
X131833809Y-87830800D02*
X131795714Y-87792704D01*
X131795714Y-87792704D02*
X131776667Y-87754609D01*
X131776667Y-87754609D02*
X131757619Y-87678419D01*
X131757619Y-87678419D02*
X131757619Y-87621276D01*
X131757619Y-87621276D02*
X131776667Y-87545085D01*
X131776667Y-87545085D02*
X131795714Y-87506990D01*
X131795714Y-87506990D02*
X131833809Y-87468895D01*
X131833809Y-87468895D02*
X131890952Y-87449847D01*
X131890952Y-87449847D02*
X131929048Y-87449847D01*
X131929048Y-87449847D02*
X131986190Y-87468895D01*
X131986190Y-87468895D02*
X132005238Y-87487942D01*
X156645238Y-87469847D02*
X156873809Y-87469847D01*
X156759523Y-87869847D02*
X156759523Y-87469847D01*
X156969047Y-87469847D02*
X157235714Y-87869847D01*
X157235714Y-87469847D02*
X156969047Y-87869847D01*
X156883333Y-89859847D02*
X156750000Y-89669371D01*
X156654762Y-89859847D02*
X156654762Y-89459847D01*
X156654762Y-89459847D02*
X156807143Y-89459847D01*
X156807143Y-89459847D02*
X156845238Y-89478895D01*
X156845238Y-89478895D02*
X156864285Y-89497942D01*
X156864285Y-89497942D02*
X156883333Y-89536038D01*
X156883333Y-89536038D02*
X156883333Y-89593180D01*
X156883333Y-89593180D02*
X156864285Y-89631276D01*
X156864285Y-89631276D02*
X156845238Y-89650323D01*
X156845238Y-89650323D02*
X156807143Y-89669371D01*
X156807143Y-89669371D02*
X156654762Y-89669371D01*
X157016666Y-89459847D02*
X157283333Y-89859847D01*
X157283333Y-89459847D02*
X157016666Y-89859847D01*
D11*
X149907666Y-94323819D02*
X149907666Y-95038104D01*
X149907666Y-95038104D02*
X149860047Y-95180961D01*
X149860047Y-95180961D02*
X149764809Y-95276200D01*
X149764809Y-95276200D02*
X149621952Y-95323819D01*
X149621952Y-95323819D02*
X149526714Y-95323819D01*
X150907666Y-95323819D02*
X150336238Y-95323819D01*
X150621952Y-95323819D02*
X150621952Y-94323819D01*
X150621952Y-94323819D02*
X150526714Y-94466676D01*
X150526714Y-94466676D02*
X150431476Y-94561914D01*
X150431476Y-94561914D02*
X150336238Y-94609533D01*
X132996666Y-84984819D02*
X132996666Y-85699104D01*
X132996666Y-85699104D02*
X132949047Y-85841961D01*
X132949047Y-85841961D02*
X132853809Y-85937200D01*
X132853809Y-85937200D02*
X132710952Y-85984819D01*
X132710952Y-85984819D02*
X132615714Y-85984819D01*
X133425238Y-85080057D02*
X133472857Y-85032438D01*
X133472857Y-85032438D02*
X133568095Y-84984819D01*
X133568095Y-84984819D02*
X133806190Y-84984819D01*
X133806190Y-84984819D02*
X133901428Y-85032438D01*
X133901428Y-85032438D02*
X133949047Y-85080057D01*
X133949047Y-85080057D02*
X133996666Y-85175295D01*
X133996666Y-85175295D02*
X133996666Y-85270533D01*
X133996666Y-85270533D02*
X133949047Y-85413390D01*
X133949047Y-85413390D02*
X133377619Y-85984819D01*
X133377619Y-85984819D02*
X133996666Y-85984819D01*
X154686666Y-84944819D02*
X154686666Y-85659104D01*
X154686666Y-85659104D02*
X154639047Y-85801961D01*
X154639047Y-85801961D02*
X154543809Y-85897200D01*
X154543809Y-85897200D02*
X154400952Y-85944819D01*
X154400952Y-85944819D02*
X154305714Y-85944819D01*
X155067619Y-84944819D02*
X155686666Y-84944819D01*
X155686666Y-84944819D02*
X155353333Y-85325771D01*
X155353333Y-85325771D02*
X155496190Y-85325771D01*
X155496190Y-85325771D02*
X155591428Y-85373390D01*
X155591428Y-85373390D02*
X155639047Y-85421009D01*
X155639047Y-85421009D02*
X155686666Y-85516247D01*
X155686666Y-85516247D02*
X155686666Y-85754342D01*
X155686666Y-85754342D02*
X155639047Y-85849580D01*
X155639047Y-85849580D02*
X155591428Y-85897200D01*
X155591428Y-85897200D02*
X155496190Y-85944819D01*
X155496190Y-85944819D02*
X155210476Y-85944819D01*
X155210476Y-85944819D02*
X155115238Y-85897200D01*
X155115238Y-85897200D02*
X155067619Y-85849580D01*
D12*
X136892800Y-109786000D02*
X136892800Y-110306000D01*
X136892800Y-110306000D02*
X151752800Y-110306000D01*
X137662800Y-96086000D02*
X137662800Y-98156000D01*
X137662800Y-96086000D02*
X139972800Y-96086000D01*
X137662800Y-109786000D02*
X136892800Y-109786000D01*
X137662800Y-109786000D02*
X137662800Y-101676000D01*
X139972800Y-94796000D02*
X139972800Y-96086000D01*
X141652800Y-96096000D02*
X142472800Y-96096000D01*
X144152800Y-96096000D02*
X144492800Y-96096000D01*
X146172800Y-96096000D02*
X146992800Y-96096000D01*
X148672800Y-96086000D02*
X150982800Y-96086000D01*
X150982800Y-96086000D02*
X150982800Y-98156000D01*
X150982800Y-101676000D02*
X150982800Y-109786000D01*
X151752800Y-109786000D02*
X150982800Y-109786000D01*
X151752800Y-110306000D02*
X151752800Y-109786000D01*
X132273600Y-88690200D02*
X132273600Y-106750200D01*
X132273600Y-88690200D02*
X134393600Y-88690200D01*
X132273600Y-106750200D02*
X134393600Y-106750200D01*
X133333600Y-86630200D02*
X134393600Y-86630200D01*
X134393600Y-86630200D02*
X134393600Y-87690200D01*
X134393600Y-88690200D02*
X134393600Y-106750200D01*
D11*
X144329800Y-86189200D02*
X144329800Y-85089200D01*
X144329800Y-85089200D02*
X143979800Y-85489200D01*
X144329800Y-85089200D02*
X144679800Y-85489200D01*
X144408857Y-86889200D02*
G75*
G03*
X144408857Y-86889200I-79057J0D01*
G01*
X145030246Y-86889200D02*
G75*
G03*
X145030246Y-86889200I-700446J0D01*
G01*
D12*
X154261000Y-88700600D02*
X154261000Y-106760600D01*
X154261000Y-88700600D02*
X156381000Y-88700600D01*
X154261000Y-106760600D02*
X156381000Y-106760600D01*
X155321000Y-86640600D02*
X156381000Y-86640600D01*
X156381000Y-86640600D02*
X156381000Y-87700600D01*
X156381000Y-88700600D02*
X156381000Y-106760600D01*
%LPC*%
D13*
X140822800Y-96236000D03*
X143322800Y-96236000D03*
X145322800Y-96236000D03*
X147822800Y-96236000D03*
D14*
X137752800Y-99916000D03*
X150892800Y-99916000D03*
D15*
X133333600Y-87690200D03*
D16*
X133333600Y-89690200D03*
X133333600Y-91690200D03*
X133333600Y-93690200D03*
X133333600Y-95690200D03*
X133333600Y-97690200D03*
X133333600Y-99690200D03*
X133333600Y-101690200D03*
X133333600Y-103690200D03*
X133333600Y-105690200D03*
D15*
X155321000Y-87700600D03*
D16*
X155321000Y-89700600D03*
X155321000Y-91700600D03*
X155321000Y-93700600D03*
X155321000Y-95700600D03*
X155321000Y-97700600D03*
X155321000Y-99700600D03*
X155321000Y-101700600D03*
X155321000Y-103700600D03*
X155321000Y-105700600D03*
%LPD*%
M02*
