G04 #@! TF.GenerationSoftware,KiCad,Pcbnew,7.0.7*
G04 #@! TF.CreationDate,2023-10-04T16:54:14-06:00*
G04 #@! TF.ProjectId,USB_Module,5553425f-4d6f-4647-956c-652e6b696361,rev?*
G04 #@! TF.SameCoordinates,Original*
G04 #@! TF.FileFunction,Copper,L1,Top*
G04 #@! TF.FilePolarity,Positive*
%FSLAX46Y46*%
G04 Gerber Fmt 4.6, Leading zero omitted, Abs format (unit mm)*
G04 Created by KiCad (PCBNEW 7.0.7) date 2023-10-04 16:54:14*
%MOMM*%
%LPD*%
G01*
G04 APERTURE LIST*
G04 #@! TA.AperFunction,SMDPad,CuDef*
%ADD10R,1.250000X3.000000*%
G04 #@! TD*
G04 #@! TA.AperFunction,ComponentPad*
%ADD11C,3.000000*%
G04 #@! TD*
G04 #@! TA.AperFunction,ComponentPad*
%ADD12R,1.350000X1.350000*%
G04 #@! TD*
G04 #@! TA.AperFunction,ComponentPad*
%ADD13O,1.350000X1.350000*%
G04 #@! TD*
G04 #@! TA.AperFunction,Conductor*
%ADD14C,0.250000*%
G04 #@! TD*
G04 APERTURE END LIST*
D10*
X140822800Y-96236000D03*
X143322800Y-96236000D03*
X145322800Y-96236000D03*
X147822800Y-96236000D03*
D11*
X137752800Y-99916000D03*
X150892800Y-99916000D03*
D12*
X133333600Y-87690200D03*
D13*
X133333600Y-89690200D03*
X133333600Y-91690200D03*
X133333600Y-93690200D03*
X133333600Y-95690200D03*
X133333600Y-97690200D03*
X133333600Y-99690200D03*
X133333600Y-101690200D03*
X133333600Y-103690200D03*
X133333600Y-105690200D03*
D12*
X155321000Y-87700600D03*
D13*
X155321000Y-89700600D03*
X155321000Y-91700600D03*
X155321000Y-93700600D03*
X155321000Y-95700600D03*
X155321000Y-97700600D03*
X155321000Y-99700600D03*
X155321000Y-101700600D03*
X155321000Y-103700600D03*
X155321000Y-105700600D03*
D14*
X133333600Y-87690200D02*
X133724800Y-87690200D01*
X133333600Y-87690200D02*
X140822800Y-95179400D01*
X155321000Y-87700600D02*
X150983200Y-87700600D01*
X143322800Y-95361000D02*
X143322800Y-96236000D01*
X150983200Y-87700600D02*
X143322800Y-95361000D01*
X155321000Y-89700600D02*
X151583200Y-89700600D01*
X151583200Y-89700600D02*
X145322800Y-95961000D01*
X145322800Y-95961000D02*
X145322800Y-96236000D01*
X133333600Y-105690200D02*
X137752800Y-101271000D01*
X150892800Y-98468200D02*
X147822800Y-95398200D01*
X137752800Y-101271000D02*
X137752800Y-98468200D01*
X147822800Y-95398200D02*
X147822800Y-94788200D01*
X137752800Y-98468200D02*
X150892800Y-98468200D01*
M02*
