%TF.GenerationSoftware,KiCad,Pcbnew,7.0.7*%
%TF.CreationDate,2023-10-04T16:54:40-06:00*%
%TF.ProjectId,USB_Module,5553425f-4d6f-4647-956c-652e6b696361,rev?*%
%TF.SameCoordinates,Original*%
%TF.FileFunction,Drillmap*%
%TF.FilePolarity,Positive*%
%FSLAX45Y45*%
G04 Gerber Fmt 4.5, Leading zero omitted, Abs format (unit mm)*
G04 Created by KiCad (PCBNEW 7.0.7) date 2023-10-04 16:54:40*
%MOMM*%
%LPD*%
G01*
G04 APERTURE LIST*
%ADD10C,0.150000*%
%ADD11C,0.200000*%
G04 APERTURE END LIST*
D10*
X16082764Y-9759417D02*
X16077351Y-9767824D01*
X12758048Y-9664031D02*
X12758055Y-9674030D01*
X12769873Y-9605507D02*
X12766518Y-9614926D01*
X13061277Y-9416992D02*
X13056267Y-9425644D01*
X16027440Y-9816237D02*
X16018872Y-9821392D01*
X13051925Y-9906564D02*
X13057317Y-9914984D01*
X12855936Y-9826048D02*
X12865036Y-9830192D01*
X12761490Y-9703796D02*
X12763762Y-9713533D01*
X12822337Y-9804504D02*
X12830261Y-9810602D01*
X15842916Y-9462681D02*
X15850975Y-9468598D01*
X16099374Y-9723124D02*
X16096007Y-9732539D01*
X13142980Y-10738920D02*
X13332980Y-10928920D01*
X15915897Y-9492913D02*
X15925861Y-9493746D01*
X15982302Y-9501014D02*
X15991811Y-9504105D01*
X16018872Y-9821392D02*
X16010024Y-9826048D01*
X13030677Y-9456224D02*
X13023044Y-9462681D01*
X16058363Y-9791002D02*
X16051186Y-9797964D01*
X16104470Y-9703796D02*
X16102198Y-9713533D01*
X12830082Y-9527368D02*
X12822165Y-9533476D01*
X12922985Y-9494206D02*
X12913023Y-9495062D01*
D11*
X16067980Y-9668920D02*
G75*
G03*
X16067980Y-9668920I-135000J0D01*
G01*
D10*
X16051349Y-9540026D02*
X16058517Y-9546996D01*
X16000924Y-9830192D02*
X15991603Y-9833809D01*
X15859421Y-9473948D02*
X15868215Y-9478705D01*
X12940099Y-9493746D02*
X12932980Y-9493920D01*
X16035699Y-9810602D02*
X16027440Y-9816237D01*
X12838334Y-9521722D02*
X12830082Y-9527368D01*
X15804683Y-9416992D02*
X15809693Y-9425644D01*
X13067980Y-10663920D02*
X13142980Y-10738920D01*
X13023044Y-9462681D02*
X13014985Y-9468598D01*
X12788609Y-9767824D02*
X12794493Y-9775908D01*
X13014985Y-9468598D02*
X13006539Y-9473948D01*
X12950063Y-9492913D02*
X12940099Y-9493746D01*
X15972417Y-9839419D02*
X15962615Y-9841393D01*
X12962546Y-9847049D02*
X12972251Y-9849451D01*
X12773761Y-9596296D02*
X12769873Y-9605507D01*
X12997745Y-9478705D02*
X12988645Y-9482847D01*
X13008739Y-9865529D02*
X13017061Y-9871070D01*
X13066298Y-9932836D02*
X13067980Y-10663920D01*
X12778169Y-9587321D02*
X12773761Y-9596296D01*
X13044525Y-9441815D02*
X13037849Y-9449258D01*
X15942975Y-9494206D02*
X15952936Y-9495062D01*
X15814035Y-9906564D02*
X15808643Y-9914984D01*
X16092199Y-9596296D02*
X16096087Y-9605507D01*
X12822165Y-9533476D02*
X12814611Y-9540026D01*
X15923205Y-9844277D02*
X15913262Y-9845322D01*
X12893327Y-9498472D02*
X12883657Y-9501014D01*
X16107347Y-9654049D02*
X16107912Y-9664031D01*
X13037849Y-9449258D02*
X13030677Y-9456224D01*
X16010024Y-9826048D02*
X16000924Y-9830192D01*
X12903127Y-9496485D02*
X12893327Y-9498472D01*
X12972251Y-9849451D02*
X12981767Y-9852516D01*
X15833498Y-9883805D02*
X15826492Y-9890937D01*
X15933197Y-9843920D02*
X15933197Y-9843920D01*
X12758055Y-9674030D02*
X12758632Y-9684012D01*
X12847088Y-9821392D02*
X12855936Y-9826048D01*
X15952936Y-9495062D02*
X15962833Y-9496485D01*
X12959945Y-9491399D02*
X12950063Y-9492913D01*
X13050674Y-9433932D02*
X13044525Y-9441815D01*
X16071602Y-9562108D02*
X16077476Y-9570199D01*
D11*
X13067980Y-9668920D02*
G75*
G03*
X13067980Y-9668920I-135000J0D01*
G01*
D10*
X16010223Y-9511889D02*
X16019065Y-9516557D01*
X15821435Y-9441815D02*
X15828111Y-9449258D01*
X12800829Y-9783642D02*
X12807597Y-9791002D01*
X15722980Y-10738920D02*
X15532980Y-10928920D01*
X13045966Y-9898536D02*
X13051925Y-9906564D01*
X15868215Y-9478705D02*
X15877315Y-9482847D01*
X12883870Y-9836888D02*
X12893543Y-9839419D01*
X15850975Y-9468598D02*
X15859421Y-9473948D01*
X16065276Y-9554365D02*
X16071602Y-9562108D01*
X12766586Y-9723124D02*
X12769953Y-9732539D01*
X12814774Y-9797964D02*
X12822337Y-9804504D01*
X15877315Y-9482847D02*
X15886678Y-9486353D01*
X16087791Y-9587321D02*
X16092199Y-9596296D01*
X12783196Y-9759417D02*
X12788609Y-9767824D01*
X15819994Y-9898536D02*
X15814035Y-9906564D01*
X15803845Y-9923755D02*
X15799662Y-9932836D01*
X13006539Y-9473948D02*
X12997745Y-9478705D01*
X15925861Y-9493746D02*
X15932980Y-9493920D01*
X15815286Y-9433932D02*
X15821435Y-9441815D01*
X15982090Y-9836888D02*
X15972417Y-9839419D01*
X15913262Y-9845322D02*
X15903414Y-9847049D01*
X12783081Y-9578612D02*
X12778169Y-9587321D01*
X12838520Y-9816237D02*
X12847088Y-9821392D01*
X13062115Y-9923755D02*
X13066298Y-9932836D01*
X12855737Y-9511889D02*
X12846895Y-9516557D01*
X16065131Y-9783642D02*
X16058363Y-9791002D01*
X13039468Y-9890937D02*
X13045966Y-9898536D01*
X15896260Y-9489208D02*
X15906015Y-9491399D01*
X15972633Y-9498472D02*
X15982302Y-9501014D01*
X16077351Y-9767824D02*
X16071467Y-9775908D01*
X12800684Y-9554365D02*
X12794358Y-9562108D01*
X15796501Y-9398760D02*
X15800278Y-9408017D01*
X15532980Y-8408920D02*
X15352980Y-8408920D01*
X15797980Y-10663920D02*
X15722980Y-10738920D01*
X12903345Y-9841393D02*
X12913243Y-9842804D01*
X13057317Y-9914984D02*
X13062115Y-9923755D01*
X12766518Y-9614926D02*
X12763706Y-9624521D01*
X15952717Y-9842804D02*
X15942754Y-9843647D01*
X16082878Y-9578612D02*
X16087791Y-9587321D01*
X13069459Y-9398760D02*
X13065682Y-9408017D01*
X13065682Y-9408017D02*
X13061277Y-9416992D01*
X16051186Y-9797964D02*
X16043623Y-9804504D01*
X13032462Y-9883805D02*
X13039468Y-9890937D01*
X13056267Y-9425644D02*
X13050674Y-9433932D01*
X12759778Y-9693945D02*
X12761490Y-9703796D01*
X16106213Y-9644114D02*
X16107347Y-9654049D01*
X12794358Y-9562108D02*
X12788484Y-9570199D01*
X15809693Y-9425644D02*
X15815286Y-9433932D01*
X12913023Y-9495062D02*
X12903127Y-9496485D01*
X12988645Y-9482847D02*
X12979282Y-9486353D01*
X12981767Y-9852516D02*
X12991050Y-9856230D01*
X16102198Y-9713533D02*
X16099374Y-9723124D01*
X16096007Y-9732539D02*
X16092107Y-9741746D01*
X12830261Y-9810602D02*
X12838520Y-9816237D01*
X16102254Y-9624521D02*
X16104514Y-9634261D01*
X12761446Y-9634261D02*
X12759747Y-9644114D01*
X15874910Y-9856230D02*
X15865905Y-9860574D01*
X15893709Y-9849451D02*
X15884193Y-9852516D01*
X15857221Y-9865529D02*
X15848899Y-9871070D01*
X12883657Y-9501014D02*
X12874149Y-9504105D01*
X16107328Y-9684012D02*
X16106182Y-9693945D01*
X12773853Y-9741746D02*
X12778272Y-9750715D01*
X12952698Y-9845322D02*
X12962546Y-9847049D01*
X12759747Y-9644114D02*
X12758613Y-9654049D01*
X13069459Y-9398760D02*
X13067980Y-8673920D01*
X16106182Y-9693945D02*
X16104470Y-9703796D01*
X15962615Y-9841393D02*
X15952717Y-9842804D01*
X15800278Y-9408017D02*
X15804683Y-9416992D01*
X15799662Y-9932836D02*
X15797980Y-10663920D01*
X13332980Y-8408920D02*
X15352980Y-8408920D01*
X12794493Y-9775908D02*
X12800829Y-9783642D01*
X12932980Y-9493920D02*
X12922985Y-9494206D01*
X12769953Y-9732539D02*
X12773853Y-9741746D01*
X15848899Y-9871070D02*
X15840979Y-9877172D01*
X12763706Y-9624521D02*
X12761446Y-9634261D01*
X15722980Y-8598920D02*
X15532980Y-8408920D01*
X15796501Y-9398760D02*
X15797980Y-8673920D01*
X15865905Y-9860574D02*
X15857221Y-9865529D01*
X16099442Y-9614926D02*
X16102254Y-9624521D01*
X12807443Y-9546996D02*
X12800684Y-9554365D01*
X12913243Y-9842804D02*
X12923206Y-9843647D01*
X15932980Y-9493920D02*
X15942975Y-9494206D01*
X16035878Y-9527368D02*
X16043795Y-9533476D01*
X12758613Y-9654049D02*
X12758048Y-9664031D01*
X12814611Y-9540026D02*
X12807443Y-9546996D01*
X12778272Y-9750715D02*
X12783196Y-9759417D01*
X13067980Y-8673920D02*
X13142980Y-8598920D01*
X16071467Y-9775908D02*
X16065131Y-9783642D01*
X12865036Y-9830192D02*
X12874357Y-9833809D01*
X15942754Y-9843647D02*
X15933197Y-9843920D01*
X16077476Y-9570199D02*
X16082878Y-9578612D01*
X12893543Y-9839419D02*
X12903345Y-9841393D01*
X15886678Y-9486353D02*
X15896260Y-9489208D01*
X15991811Y-9504105D02*
X16001128Y-9507734D01*
X15532980Y-10928920D02*
X13332980Y-10928920D01*
X16107912Y-9664031D02*
X16107905Y-9674030D01*
X12979282Y-9486353D02*
X12969700Y-9489208D01*
X15884193Y-9852516D02*
X15874910Y-9856230D01*
X16001128Y-9507734D02*
X16010223Y-9511889D01*
X12807597Y-9791002D02*
X12814774Y-9797964D01*
X12932763Y-9843920D02*
X12942755Y-9844277D01*
X16027626Y-9521722D02*
X16035878Y-9527368D01*
X15962833Y-9496485D02*
X15972633Y-9498472D01*
X13142980Y-8598920D02*
X13332980Y-8408920D01*
X15933197Y-9843920D02*
X15923205Y-9844277D01*
X12788484Y-9570199D02*
X12783081Y-9578612D01*
X16058517Y-9546996D02*
X16065276Y-9554365D01*
X12969700Y-9489208D02*
X12959945Y-9491399D01*
X16043795Y-9533476D02*
X16051349Y-9540026D01*
X12846895Y-9516557D02*
X12838334Y-9521722D01*
X16087688Y-9750715D02*
X16082764Y-9759417D01*
X16019065Y-9516557D02*
X16027626Y-9521722D01*
X15835283Y-9456224D02*
X15842916Y-9462681D01*
X12763762Y-9713533D02*
X12766586Y-9723124D01*
X12942755Y-9844277D02*
X12952698Y-9845322D01*
X15991603Y-9833809D02*
X15982090Y-9836888D01*
X15826492Y-9890937D02*
X15819994Y-9898536D01*
X15828111Y-9449258D02*
X15835283Y-9456224D01*
X13017061Y-9871070D02*
X13024981Y-9877172D01*
X15808643Y-9914984D02*
X15803845Y-9923755D01*
X12758632Y-9684012D02*
X12759778Y-9693945D01*
X12874149Y-9504105D02*
X12864832Y-9507734D01*
X16043623Y-9804504D02*
X16035699Y-9810602D01*
X12991050Y-9856230D02*
X13000055Y-9860574D01*
X16104514Y-9634261D02*
X16106213Y-9644114D01*
X13000055Y-9860574D02*
X13008739Y-9865529D01*
X12923206Y-9843647D02*
X12932763Y-9843920D01*
X15906015Y-9491399D02*
X15915897Y-9492913D01*
X15903414Y-9847049D02*
X15893709Y-9849451D01*
X13024981Y-9877172D02*
X13032462Y-9883805D01*
X15797980Y-8673920D02*
X15722980Y-8598920D01*
X16107905Y-9674030D02*
X16107328Y-9684012D01*
X12874357Y-9833809D02*
X12883870Y-9836888D01*
X16092107Y-9741746D02*
X16087688Y-9750715D01*
X15840979Y-9877172D02*
X15833498Y-9883805D01*
X12864832Y-9507734D02*
X12855737Y-9511889D01*
X16096087Y-9605507D02*
X16099442Y-9614926D01*
D11*
X13011325Y-11247904D02*
X13011325Y-11047904D01*
X13011325Y-11047904D02*
X13058944Y-11047904D01*
X13058944Y-11047904D02*
X13087516Y-11057428D01*
X13087516Y-11057428D02*
X13106563Y-11076475D01*
X13106563Y-11076475D02*
X13116087Y-11095523D01*
X13116087Y-11095523D02*
X13125611Y-11133618D01*
X13125611Y-11133618D02*
X13125611Y-11162190D01*
X13125611Y-11162190D02*
X13116087Y-11200285D01*
X13116087Y-11200285D02*
X13106563Y-11219332D01*
X13106563Y-11219332D02*
X13087516Y-11238380D01*
X13087516Y-11238380D02*
X13058944Y-11247904D01*
X13058944Y-11247904D02*
X13011325Y-11247904D01*
X13211325Y-11247904D02*
X13211325Y-11114570D01*
X13211325Y-11152666D02*
X13220849Y-11133618D01*
X13220849Y-11133618D02*
X13230373Y-11124094D01*
X13230373Y-11124094D02*
X13249420Y-11114570D01*
X13249420Y-11114570D02*
X13268468Y-11114570D01*
X13335135Y-11247904D02*
X13335135Y-11114570D01*
X13335135Y-11047904D02*
X13325611Y-11057428D01*
X13325611Y-11057428D02*
X13335135Y-11066951D01*
X13335135Y-11066951D02*
X13344658Y-11057428D01*
X13344658Y-11057428D02*
X13335135Y-11047904D01*
X13335135Y-11047904D02*
X13335135Y-11066951D01*
X13458944Y-11247904D02*
X13439896Y-11238380D01*
X13439896Y-11238380D02*
X13430373Y-11219332D01*
X13430373Y-11219332D02*
X13430373Y-11047904D01*
X13563706Y-11247904D02*
X13544658Y-11238380D01*
X13544658Y-11238380D02*
X13535135Y-11219332D01*
X13535135Y-11219332D02*
X13535135Y-11047904D01*
X13792277Y-11247904D02*
X13792277Y-11047904D01*
X13792277Y-11047904D02*
X13858944Y-11190761D01*
X13858944Y-11190761D02*
X13925611Y-11047904D01*
X13925611Y-11047904D02*
X13925611Y-11247904D01*
X14106563Y-11247904D02*
X14106563Y-11143142D01*
X14106563Y-11143142D02*
X14097039Y-11124094D01*
X14097039Y-11124094D02*
X14077992Y-11114570D01*
X14077992Y-11114570D02*
X14039896Y-11114570D01*
X14039896Y-11114570D02*
X14020849Y-11124094D01*
X14106563Y-11238380D02*
X14087516Y-11247904D01*
X14087516Y-11247904D02*
X14039896Y-11247904D01*
X14039896Y-11247904D02*
X14020849Y-11238380D01*
X14020849Y-11238380D02*
X14011325Y-11219332D01*
X14011325Y-11219332D02*
X14011325Y-11200285D01*
X14011325Y-11200285D02*
X14020849Y-11181237D01*
X14020849Y-11181237D02*
X14039896Y-11171713D01*
X14039896Y-11171713D02*
X14087516Y-11171713D01*
X14087516Y-11171713D02*
X14106563Y-11162190D01*
X14201801Y-11114570D02*
X14201801Y-11314570D01*
X14201801Y-11124094D02*
X14220849Y-11114570D01*
X14220849Y-11114570D02*
X14258944Y-11114570D01*
X14258944Y-11114570D02*
X14277992Y-11124094D01*
X14277992Y-11124094D02*
X14287516Y-11133618D01*
X14287516Y-11133618D02*
X14297039Y-11152666D01*
X14297039Y-11152666D02*
X14297039Y-11209808D01*
X14297039Y-11209808D02*
X14287516Y-11228856D01*
X14287516Y-11228856D02*
X14277992Y-11238380D01*
X14277992Y-11238380D02*
X14258944Y-11247904D01*
X14258944Y-11247904D02*
X14220849Y-11247904D01*
X14220849Y-11247904D02*
X14201801Y-11238380D01*
X14382754Y-11228856D02*
X14392277Y-11238380D01*
X14392277Y-11238380D02*
X14382754Y-11247904D01*
X14382754Y-11247904D02*
X14373230Y-11238380D01*
X14373230Y-11238380D02*
X14382754Y-11228856D01*
X14382754Y-11228856D02*
X14382754Y-11247904D01*
X14382754Y-11124094D02*
X14392277Y-11133618D01*
X14392277Y-11133618D02*
X14382754Y-11143142D01*
X14382754Y-11143142D02*
X14373230Y-11133618D01*
X14373230Y-11133618D02*
X14382754Y-11124094D01*
X14382754Y-11124094D02*
X14382754Y-11143142D01*
M02*
