G04 #@! TF.GenerationSoftware,KiCad,Pcbnew,7.0.7*
G04 #@! TF.CreationDate,2023-10-04T16:54:14-06:00*
G04 #@! TF.ProjectId,USB_Module,5553425f-4d6f-4647-956c-652e6b696361,rev?*
G04 #@! TF.SameCoordinates,Original*
G04 #@! TF.FileFunction,Profile,NP*
%FSLAX46Y46*%
G04 Gerber Fmt 4.6, Leading zero omitted, Abs format (unit mm)*
G04 Created by KiCad (PCBNEW 7.0.7) date 2023-10-04 16:54:14*
%MOMM*%
%LPD*%
G01*
G04 APERTURE LIST*
G04 #@! TA.AperFunction,Profile*
%ADD10C,0.150000*%
G04 #@! TD*
G04 #@! TA.AperFunction,Profile*
%ADD11C,0.200000*%
G04 #@! TD*
G04 APERTURE END LIST*
D10*
X160827642Y-97594170D02*
X160773513Y-97678237D01*
X127580483Y-96640312D02*
X127580546Y-96740299D01*
X127698731Y-96055073D02*
X127665178Y-96149262D01*
X130612774Y-94169924D02*
X130562670Y-94256444D01*
X160274399Y-98162372D02*
X160188722Y-98213915D01*
X130519253Y-99065638D02*
X130573168Y-99149836D01*
X128559360Y-98260481D02*
X128650356Y-98301917D01*
X127614903Y-97037955D02*
X127637620Y-97135327D01*
X128223367Y-98045042D02*
X128302608Y-98106019D01*
X158429161Y-94626809D02*
X158509749Y-94685983D01*
X160993739Y-97231242D02*
X160960066Y-97325388D01*
X131429800Y-107389200D02*
X133329800Y-109289200D01*
X159158974Y-94929133D02*
X159258607Y-94937456D01*
X159823025Y-95010144D02*
X159918114Y-95041053D01*
X160188722Y-98213915D02*
X160100240Y-98260481D01*
X130306772Y-94562238D02*
X130230439Y-94626809D01*
X160583631Y-97910023D02*
X160511861Y-97979639D01*
X161044697Y-97037955D02*
X161021980Y-97135327D01*
X128300818Y-95273680D02*
X128221654Y-95334757D01*
X129229854Y-94942056D02*
X129130235Y-94950616D01*
D11*
X160679800Y-96689200D02*
G75*
G03*
X160679800Y-96689200I-1350000J0D01*
G01*
D10*
X160513491Y-95400256D02*
X160585173Y-95469963D01*
X160009244Y-98301917D02*
X159916030Y-98338089D01*
X158594212Y-94739481D02*
X158682151Y-94787051D01*
X129400993Y-94937456D02*
X129329800Y-94939200D01*
X160356992Y-98106019D02*
X160274399Y-98162372D01*
X128383340Y-95217223D02*
X128300818Y-95273680D01*
X158046826Y-94169924D02*
X158096930Y-94256444D01*
X130679800Y-106639200D02*
X131429800Y-107389200D01*
X130230439Y-94626809D02*
X130149851Y-94685983D01*
X127886087Y-97678237D02*
X127944929Y-97759076D01*
X130149851Y-94685983D02*
X130065388Y-94739481D01*
X129500626Y-94929133D02*
X129400993Y-94937456D01*
X159724172Y-98394185D02*
X159626153Y-98413925D01*
X129625456Y-98470492D02*
X129722508Y-98494512D01*
X127737610Y-95962955D02*
X127698731Y-96055073D01*
X129977449Y-94787051D02*
X129886450Y-94828466D01*
X130087389Y-98655289D02*
X130170609Y-98710702D01*
X130662979Y-99328359D02*
X130679800Y-106639200D01*
X127781686Y-95873208D02*
X127737610Y-95962955D01*
X130445250Y-94418151D02*
X130378488Y-94492576D01*
X159429746Y-94942056D02*
X159529365Y-94950616D01*
X158140347Y-99065638D02*
X158086432Y-99149836D01*
X160921990Y-95962955D02*
X160960869Y-96055073D01*
X128221654Y-95334757D02*
X128146109Y-95400256D01*
X159232054Y-98442770D02*
X159132621Y-98453217D01*
X128933274Y-94984715D02*
X128836575Y-95010144D01*
X161073470Y-96540485D02*
X161079117Y-96640312D01*
X130378488Y-94492576D02*
X130306772Y-94562238D01*
X160100240Y-98260481D02*
X160009244Y-98301917D01*
X129031267Y-94964851D02*
X128933274Y-94984715D01*
X129722508Y-98494512D02*
X129817674Y-98525163D01*
X158334978Y-98838046D02*
X158264916Y-98909372D01*
X159331970Y-98439199D02*
X159331970Y-98439199D01*
X127580546Y-96740299D02*
X127586319Y-96840118D01*
X128470878Y-98213915D02*
X128559360Y-98260481D01*
X159529365Y-94950616D02*
X159628333Y-94964851D01*
X129599452Y-94913985D02*
X129500626Y-94929133D01*
X130506741Y-94339317D02*
X130445250Y-94418151D01*
X160716022Y-95621076D02*
X160774762Y-95701989D01*
D11*
X130679800Y-96689200D02*
G75*
G03*
X130679800Y-96689200I-1350000J0D01*
G01*
D10*
X160102226Y-95118894D02*
X160190648Y-95165572D01*
X158214350Y-94418151D02*
X158281112Y-94492576D01*
X128008292Y-97836422D02*
X128075969Y-97910023D01*
X157229800Y-107389200D02*
X155329800Y-109289200D01*
X130459663Y-98985357D02*
X130519253Y-99065638D01*
X158682151Y-94787051D02*
X158773150Y-94828466D01*
X128838698Y-98368878D02*
X128935428Y-98394185D01*
X158509749Y-94685983D02*
X158594212Y-94739481D01*
X160652757Y-95543649D02*
X160716022Y-95621076D01*
X127665861Y-97231242D02*
X127699534Y-97325388D01*
X128147739Y-97979639D02*
X128223367Y-98045042D01*
X158773150Y-94828466D02*
X158866779Y-94863533D01*
X160877914Y-95873208D02*
X160921990Y-95962955D01*
X127831958Y-97594170D02*
X127886087Y-97678237D01*
X158199937Y-98985357D02*
X158140347Y-99065638D01*
X158038447Y-99237548D02*
X157996621Y-99328359D01*
X130065388Y-94739481D02*
X129977449Y-94787051D01*
X159258607Y-94937456D02*
X159329800Y-94939200D01*
X158152859Y-94339317D02*
X158214350Y-94418151D01*
X159820902Y-98368878D02*
X159724172Y-98394185D01*
X159132621Y-98453217D02*
X159034144Y-98470492D01*
X127830815Y-95786124D02*
X127781686Y-95873208D01*
X128385201Y-98162372D02*
X128470878Y-98213915D01*
X130621153Y-99237548D02*
X130662979Y-99328359D01*
X128557374Y-95118894D02*
X128468952Y-95165572D01*
X160651308Y-97836422D02*
X160583631Y-97910023D01*
X130394684Y-98909372D02*
X130459663Y-98985357D01*
X158962596Y-94892084D02*
X159060148Y-94913985D01*
X159726326Y-94984715D02*
X159823025Y-95010144D01*
X160773513Y-97678237D02*
X160714671Y-97759076D01*
X128006843Y-95543649D02*
X127943578Y-95621076D01*
X157965011Y-93987596D02*
X158002783Y-94080167D01*
X155329800Y-84089200D02*
X153529800Y-84089200D01*
X157979800Y-106639200D02*
X157229800Y-107389200D01*
X129033447Y-98413925D02*
X129132433Y-98428035D01*
X130573168Y-99149836D02*
X130621153Y-99237548D01*
X127665178Y-96149262D02*
X127637058Y-96245212D01*
X159527167Y-98428035D02*
X159427537Y-98436469D01*
X160828785Y-95786124D02*
X160877914Y-95873208D01*
X130694589Y-93987596D02*
X130656817Y-94080167D01*
X130656817Y-94080167D02*
X130612774Y-94169924D01*
X160511861Y-97979639D02*
X160436233Y-98045042D01*
X130324622Y-98838046D02*
X130394684Y-98909372D01*
X130562670Y-94256444D02*
X130506741Y-94339317D01*
X127597784Y-96939445D02*
X127614903Y-97037955D01*
X161062131Y-96441144D02*
X161073470Y-96540485D01*
X127943578Y-95621076D02*
X127884838Y-95701989D01*
X158096930Y-94256444D02*
X158152859Y-94339317D01*
X129130235Y-94950616D02*
X129031267Y-94964851D01*
X129886450Y-94828466D02*
X129792821Y-94863533D01*
X129817674Y-98525163D02*
X129910501Y-98562298D01*
X161021980Y-97135327D02*
X160993739Y-97231242D01*
X160960066Y-97325388D02*
X160921071Y-97417456D01*
X128302608Y-98106019D02*
X128385201Y-98162372D01*
X161022542Y-96245212D02*
X161045136Y-96342613D01*
X127614464Y-96342613D02*
X127597469Y-96441144D01*
X158749099Y-98562298D02*
X158659051Y-98605743D01*
X158937092Y-98494512D02*
X158841926Y-98525163D01*
X158572211Y-98655289D02*
X158488991Y-98710702D01*
X128836575Y-95010144D02*
X128741486Y-95041053D01*
X161073281Y-96840118D02*
X161061816Y-96939445D01*
X127738529Y-97417456D02*
X127782718Y-97507148D01*
X129526979Y-98453217D02*
X129625456Y-98470492D01*
X127597469Y-96441144D02*
X127586130Y-96540485D01*
X130694589Y-93987596D02*
X130679800Y-86739200D01*
X161061816Y-96939445D02*
X161044697Y-97037955D01*
X159626153Y-98413925D02*
X159527167Y-98428035D01*
X158002783Y-94080167D02*
X158046826Y-94169924D01*
X157996621Y-99328359D02*
X157979800Y-106639200D01*
X133329800Y-84089200D02*
X153529800Y-84089200D01*
X127944929Y-97759076D02*
X128008292Y-97836422D01*
X129329800Y-94939200D02*
X129229854Y-94942056D01*
X127699534Y-97325388D02*
X127738529Y-97417456D01*
X158488991Y-98710702D02*
X158409788Y-98771717D01*
X127637058Y-96245212D02*
X127614464Y-96342613D01*
X157229800Y-85989200D02*
X155329800Y-84089200D01*
X157965011Y-93987596D02*
X157979800Y-86739200D01*
X158659051Y-98605743D02*
X158572211Y-98655289D01*
X160994422Y-96149262D02*
X161022542Y-96245212D01*
X128074427Y-95469963D02*
X128006843Y-95543649D01*
X129132433Y-98428035D02*
X129232063Y-98436469D01*
X159329800Y-94939200D02*
X159429746Y-94942056D01*
X160358782Y-95273680D02*
X160437946Y-95334757D01*
X127586130Y-96540485D02*
X127580483Y-96640312D01*
X128146109Y-95400256D02*
X128074427Y-95469963D01*
X127782718Y-97507148D02*
X127831958Y-97594170D01*
X130679800Y-86739200D02*
X131429800Y-85989200D01*
X160714671Y-97759076D02*
X160651308Y-97836422D01*
X128650356Y-98301917D02*
X128743570Y-98338089D01*
X159427537Y-98436469D02*
X159331970Y-98439199D01*
X160774762Y-95701989D02*
X160828785Y-95786124D01*
X128935428Y-98394185D02*
X129033447Y-98413925D01*
X158866779Y-94863533D02*
X158962596Y-94892084D01*
X159918114Y-95041053D02*
X160011282Y-95077343D01*
X155329800Y-109289200D02*
X133329800Y-109289200D01*
X161079117Y-96640312D02*
X161079054Y-96740299D01*
X129792821Y-94863533D02*
X129697004Y-94892084D01*
X158841926Y-98525163D02*
X158749099Y-98562298D01*
X160011282Y-95077343D02*
X160102226Y-95118894D01*
X128075969Y-97910023D02*
X128147739Y-97979639D01*
X129327630Y-98439199D02*
X129427546Y-98442770D01*
X160276260Y-95217223D02*
X160358782Y-95273680D01*
X159628333Y-94964851D02*
X159726326Y-94984715D01*
X131429800Y-85989200D02*
X133329800Y-84089200D01*
X159331970Y-98439199D02*
X159232054Y-98442770D01*
X127884838Y-95701989D02*
X127830815Y-95786124D01*
X160585173Y-95469963D02*
X160652757Y-95543649D01*
X129697004Y-94892084D02*
X129599452Y-94913985D01*
X160437946Y-95334757D02*
X160513491Y-95400256D01*
X128468952Y-95165572D02*
X128383340Y-95217223D01*
X160876882Y-97507148D02*
X160827642Y-97594170D01*
X160190648Y-95165572D02*
X160276260Y-95217223D01*
X158352828Y-94562238D02*
X158429161Y-94626809D01*
X127637620Y-97135327D02*
X127665861Y-97231242D01*
X129427546Y-98442770D02*
X129526979Y-98453217D01*
X159916030Y-98338089D02*
X159820902Y-98368878D01*
X158264916Y-98909372D02*
X158199937Y-98985357D01*
X158281112Y-94492576D02*
X158352828Y-94562238D01*
X130170609Y-98710702D02*
X130249812Y-98771717D01*
X158086432Y-99149836D02*
X158038447Y-99237548D01*
X127586319Y-96840118D02*
X127597784Y-96939445D01*
X128741486Y-95041053D02*
X128648318Y-95077343D01*
X160436233Y-98045042D02*
X160356992Y-98106019D01*
X129910501Y-98562298D02*
X130000549Y-98605743D01*
X161045136Y-96342613D02*
X161062131Y-96441144D01*
X130000549Y-98605743D02*
X130087389Y-98655289D01*
X129232063Y-98436469D02*
X129327630Y-98439199D01*
X159060148Y-94913985D02*
X159158974Y-94929133D01*
X159034144Y-98470492D02*
X158937092Y-98494512D01*
X130249812Y-98771717D02*
X130324622Y-98838046D01*
X157979800Y-86739200D02*
X157229800Y-85989200D01*
X161079054Y-96740299D02*
X161073281Y-96840118D01*
X128743570Y-98338089D02*
X128838698Y-98368878D01*
X160921071Y-97417456D02*
X160876882Y-97507148D01*
X158409788Y-98771717D02*
X158334978Y-98838046D01*
X128648318Y-95077343D02*
X128557374Y-95118894D01*
X160960869Y-96055073D02*
X160994422Y-96149262D01*
M02*
