%TF.GenerationSoftware,KiCad,Pcbnew,7.0.7*%
%TF.CreationDate,2023-10-04T16:54:40-06:00*%
%TF.ProjectId,USB_Module,5553425f-4d6f-4647-956c-652e6b696361,rev?*%
%TF.SameCoordinates,Original*%
%TF.FileFunction,Drillmap*%
%TF.FilePolarity,Positive*%
%FSLAX45Y45*%
G04 Gerber Fmt 4.5, Leading zero omitted, Abs format (unit mm)*
G04 Created by KiCad (PCBNEW 7.0.7) date 2023-10-04 16:54:40*
%MOMM*%
%LPD*%
G01*
G04 APERTURE LIST*
%ADD10C,0.150000*%
%ADD11C,0.200000*%
%ADD12C,0.080000*%
%ADD13C,0.230000*%
G04 APERTURE END LIST*
D10*
X16082764Y-9759417D02*
X16077351Y-9767824D01*
X12758048Y-9664031D02*
X12758055Y-9674030D01*
X12769873Y-9605507D02*
X12766518Y-9614926D01*
X13061277Y-9416992D02*
X13056267Y-9425644D01*
X16027440Y-9816237D02*
X16018872Y-9821392D01*
X13051925Y-9906564D02*
X13057317Y-9914984D01*
X12855936Y-9826048D02*
X12865036Y-9830192D01*
X12761490Y-9703796D02*
X12763762Y-9713533D01*
X12822337Y-9804504D02*
X12830261Y-9810602D01*
X15842916Y-9462681D02*
X15850975Y-9468598D01*
X16099374Y-9723124D02*
X16096007Y-9732539D01*
X13142980Y-10738920D02*
X13332980Y-10928920D01*
X15915897Y-9492913D02*
X15925861Y-9493746D01*
X15982302Y-9501014D02*
X15991811Y-9504105D01*
X16018872Y-9821392D02*
X16010024Y-9826048D01*
X13030677Y-9456224D02*
X13023044Y-9462681D01*
X16058363Y-9791002D02*
X16051186Y-9797964D01*
X16104470Y-9703796D02*
X16102198Y-9713533D01*
X12830082Y-9527368D02*
X12822165Y-9533476D01*
X12922985Y-9494206D02*
X12913023Y-9495062D01*
D11*
X16067980Y-9668920D02*
G75*
G03*
X16067980Y-9668920I-135000J0D01*
G01*
D10*
X16051349Y-9540026D02*
X16058517Y-9546996D01*
X16000924Y-9830192D02*
X15991603Y-9833809D01*
X15859421Y-9473948D02*
X15868215Y-9478705D01*
X12940099Y-9493746D02*
X12932980Y-9493920D01*
X16035699Y-9810602D02*
X16027440Y-9816237D01*
X12838334Y-9521722D02*
X12830082Y-9527368D01*
X15804683Y-9416992D02*
X15809693Y-9425644D01*
X13067980Y-10663920D02*
X13142980Y-10738920D01*
X13023044Y-9462681D02*
X13014985Y-9468598D01*
X12788609Y-9767824D02*
X12794493Y-9775908D01*
X13014985Y-9468598D02*
X13006539Y-9473948D01*
X12950063Y-9492913D02*
X12940099Y-9493746D01*
X15972417Y-9839419D02*
X15962615Y-9841393D01*
X12962546Y-9847049D02*
X12972251Y-9849451D01*
X12773761Y-9596296D02*
X12769873Y-9605507D01*
X12997745Y-9478705D02*
X12988645Y-9482847D01*
X13008739Y-9865529D02*
X13017061Y-9871070D01*
X13066298Y-9932836D02*
X13067980Y-10663920D01*
X12778169Y-9587321D02*
X12773761Y-9596296D01*
X13044525Y-9441815D02*
X13037849Y-9449258D01*
X15942975Y-9494206D02*
X15952936Y-9495062D01*
X15814035Y-9906564D02*
X15808643Y-9914984D01*
X16092199Y-9596296D02*
X16096087Y-9605507D01*
X12822165Y-9533476D02*
X12814611Y-9540026D01*
X15923205Y-9844277D02*
X15913262Y-9845322D01*
X12893327Y-9498472D02*
X12883657Y-9501014D01*
X16107347Y-9654049D02*
X16107912Y-9664031D01*
X13037849Y-9449258D02*
X13030677Y-9456224D01*
X16010024Y-9826048D02*
X16000924Y-9830192D01*
X12903127Y-9496485D02*
X12893327Y-9498472D01*
X12972251Y-9849451D02*
X12981767Y-9852516D01*
X15833498Y-9883805D02*
X15826492Y-9890937D01*
X15933197Y-9843920D02*
X15933197Y-9843920D01*
X12758055Y-9674030D02*
X12758632Y-9684012D01*
X12847088Y-9821392D02*
X12855936Y-9826048D01*
X15952936Y-9495062D02*
X15962833Y-9496485D01*
X12959945Y-9491399D02*
X12950063Y-9492913D01*
X13050674Y-9433932D02*
X13044525Y-9441815D01*
X16071602Y-9562108D02*
X16077476Y-9570199D01*
D11*
X13067980Y-9668920D02*
G75*
G03*
X13067980Y-9668920I-135000J0D01*
G01*
D10*
X16010223Y-9511889D02*
X16019065Y-9516557D01*
X15821435Y-9441815D02*
X15828111Y-9449258D01*
X12800829Y-9783642D02*
X12807597Y-9791002D01*
X15722980Y-10738920D02*
X15532980Y-10928920D01*
X13045966Y-9898536D02*
X13051925Y-9906564D01*
X15868215Y-9478705D02*
X15877315Y-9482847D01*
X12883870Y-9836888D02*
X12893543Y-9839419D01*
X15850975Y-9468598D02*
X15859421Y-9473948D01*
X16065276Y-9554365D02*
X16071602Y-9562108D01*
X12766586Y-9723124D02*
X12769953Y-9732539D01*
X12814774Y-9797964D02*
X12822337Y-9804504D01*
X15877315Y-9482847D02*
X15886678Y-9486353D01*
X16087791Y-9587321D02*
X16092199Y-9596296D01*
X12783196Y-9759417D02*
X12788609Y-9767824D01*
X15819994Y-9898536D02*
X15814035Y-9906564D01*
X15803845Y-9923755D02*
X15799662Y-9932836D01*
X13006539Y-9473948D02*
X12997745Y-9478705D01*
X15925861Y-9493746D02*
X15932980Y-9493920D01*
X15815286Y-9433932D02*
X15821435Y-9441815D01*
X15982090Y-9836888D02*
X15972417Y-9839419D01*
X15913262Y-9845322D02*
X15903414Y-9847049D01*
X12783081Y-9578612D02*
X12778169Y-9587321D01*
X12838520Y-9816237D02*
X12847088Y-9821392D01*
X13062115Y-9923755D02*
X13066298Y-9932836D01*
X12855737Y-9511889D02*
X12846895Y-9516557D01*
X16065131Y-9783642D02*
X16058363Y-9791002D01*
X13039468Y-9890937D02*
X13045966Y-9898536D01*
X15896260Y-9489208D02*
X15906015Y-9491399D01*
X15972633Y-9498472D02*
X15982302Y-9501014D01*
X16077351Y-9767824D02*
X16071467Y-9775908D01*
X12800684Y-9554365D02*
X12794358Y-9562108D01*
X15796501Y-9398760D02*
X15800278Y-9408017D01*
X15532980Y-8408920D02*
X15352980Y-8408920D01*
X15797980Y-10663920D02*
X15722980Y-10738920D01*
X12903345Y-9841393D02*
X12913243Y-9842804D01*
X13057317Y-9914984D02*
X13062115Y-9923755D01*
X12766518Y-9614926D02*
X12763706Y-9624521D01*
X15952717Y-9842804D02*
X15942754Y-9843647D01*
X16082878Y-9578612D02*
X16087791Y-9587321D01*
X13069459Y-9398760D02*
X13065682Y-9408017D01*
X13065682Y-9408017D02*
X13061277Y-9416992D01*
X16051186Y-9797964D02*
X16043623Y-9804504D01*
X13032462Y-9883805D02*
X13039468Y-9890937D01*
X13056267Y-9425644D02*
X13050674Y-9433932D01*
X12759778Y-9693945D02*
X12761490Y-9703796D01*
X16106213Y-9644114D02*
X16107347Y-9654049D01*
X12794358Y-9562108D02*
X12788484Y-9570199D01*
X15809693Y-9425644D02*
X15815286Y-9433932D01*
X12913023Y-9495062D02*
X12903127Y-9496485D01*
X12988645Y-9482847D02*
X12979282Y-9486353D01*
X12981767Y-9852516D02*
X12991050Y-9856230D01*
X16102198Y-9713533D02*
X16099374Y-9723124D01*
X16096007Y-9732539D02*
X16092107Y-9741746D01*
X12830261Y-9810602D02*
X12838520Y-9816237D01*
X16102254Y-9624521D02*
X16104514Y-9634261D01*
X12761446Y-9634261D02*
X12759747Y-9644114D01*
X15874910Y-9856230D02*
X15865905Y-9860574D01*
X15893709Y-9849451D02*
X15884193Y-9852516D01*
X15857221Y-9865529D02*
X15848899Y-9871070D01*
X12883657Y-9501014D02*
X12874149Y-9504105D01*
X16107328Y-9684012D02*
X16106182Y-9693945D01*
X12773853Y-9741746D02*
X12778272Y-9750715D01*
X12952698Y-9845322D02*
X12962546Y-9847049D01*
X12759747Y-9644114D02*
X12758613Y-9654049D01*
X13069459Y-9398760D02*
X13067980Y-8673920D01*
X16106182Y-9693945D02*
X16104470Y-9703796D01*
X15962615Y-9841393D02*
X15952717Y-9842804D01*
X15800278Y-9408017D02*
X15804683Y-9416992D01*
X15799662Y-9932836D02*
X15797980Y-10663920D01*
X13332980Y-8408920D02*
X15352980Y-8408920D01*
X12794493Y-9775908D02*
X12800829Y-9783642D01*
X12932980Y-9493920D02*
X12922985Y-9494206D01*
X12769953Y-9732539D02*
X12773853Y-9741746D01*
X15848899Y-9871070D02*
X15840979Y-9877172D01*
X12763706Y-9624521D02*
X12761446Y-9634261D01*
X15722980Y-8598920D02*
X15532980Y-8408920D01*
X15796501Y-9398760D02*
X15797980Y-8673920D01*
X15865905Y-9860574D02*
X15857221Y-9865529D01*
X16099442Y-9614926D02*
X16102254Y-9624521D01*
X12807443Y-9546996D02*
X12800684Y-9554365D01*
X12913243Y-9842804D02*
X12923206Y-9843647D01*
X15932980Y-9493920D02*
X15942975Y-9494206D01*
X16035878Y-9527368D02*
X16043795Y-9533476D01*
X12758613Y-9654049D02*
X12758048Y-9664031D01*
X12814611Y-9540026D02*
X12807443Y-9546996D01*
X12778272Y-9750715D02*
X12783196Y-9759417D01*
X13067980Y-8673920D02*
X13142980Y-8598920D01*
X16071467Y-9775908D02*
X16065131Y-9783642D01*
X12865036Y-9830192D02*
X12874357Y-9833809D01*
X15942754Y-9843647D02*
X15933197Y-9843920D01*
X16077476Y-9570199D02*
X16082878Y-9578612D01*
X12893543Y-9839419D02*
X12903345Y-9841393D01*
X15886678Y-9486353D02*
X15896260Y-9489208D01*
X15991811Y-9504105D02*
X16001128Y-9507734D01*
X15532980Y-10928920D02*
X13332980Y-10928920D01*
X16107912Y-9664031D02*
X16107905Y-9674030D01*
X12979282Y-9486353D02*
X12969700Y-9489208D01*
X15884193Y-9852516D02*
X15874910Y-9856230D01*
X16001128Y-9507734D02*
X16010223Y-9511889D01*
X12807597Y-9791002D02*
X12814774Y-9797964D01*
X12932763Y-9843920D02*
X12942755Y-9844277D01*
X16027626Y-9521722D02*
X16035878Y-9527368D01*
X15962833Y-9496485D02*
X15972633Y-9498472D01*
X13142980Y-8598920D02*
X13332980Y-8408920D01*
X15933197Y-9843920D02*
X15923205Y-9844277D01*
X12788484Y-9570199D02*
X12783081Y-9578612D01*
X16058517Y-9546996D02*
X16065276Y-9554365D01*
X12969700Y-9489208D02*
X12959945Y-9491399D01*
X16043795Y-9533476D02*
X16051349Y-9540026D01*
X12846895Y-9516557D02*
X12838334Y-9521722D01*
X16087688Y-9750715D02*
X16082764Y-9759417D01*
X16019065Y-9516557D02*
X16027626Y-9521722D01*
X15835283Y-9456224D02*
X15842916Y-9462681D01*
X12763762Y-9713533D02*
X12766586Y-9723124D01*
X12942755Y-9844277D02*
X12952698Y-9845322D01*
X15991603Y-9833809D02*
X15982090Y-9836888D01*
X15826492Y-9890937D02*
X15819994Y-9898536D01*
X15828111Y-9449258D02*
X15835283Y-9456224D01*
X13017061Y-9871070D02*
X13024981Y-9877172D01*
X15808643Y-9914984D02*
X15803845Y-9923755D01*
X12758632Y-9684012D02*
X12759778Y-9693945D01*
X12874149Y-9504105D02*
X12864832Y-9507734D01*
X16043623Y-9804504D02*
X16035699Y-9810602D01*
X12991050Y-9856230D02*
X13000055Y-9860574D01*
X16104514Y-9634261D02*
X16106213Y-9644114D01*
X13000055Y-9860574D02*
X13008739Y-9865529D01*
X12923206Y-9843647D02*
X12932763Y-9843920D01*
X15906015Y-9491399D02*
X15915897Y-9492913D01*
X15903414Y-9847049D02*
X15893709Y-9849451D01*
X13024981Y-9877172D02*
X13032462Y-9883805D01*
X15797980Y-8673920D02*
X15722980Y-8598920D01*
X16107905Y-9674030D02*
X16107328Y-9684012D01*
X12874357Y-9833809D02*
X12883870Y-9836888D01*
X16092107Y-9741746D02*
X16087688Y-9750715D01*
X15840979Y-9877172D02*
X15833498Y-9883805D01*
X12864832Y-9507734D02*
X12855737Y-9511889D01*
X16096087Y-9605507D02*
X16099442Y-9614926D01*
D11*
D12*
X13293360Y-8729020D02*
X13373360Y-8809020D01*
X13373360Y-8729020D02*
X13293360Y-8809020D01*
X13293360Y-8929020D02*
X13373360Y-9009020D01*
X13373360Y-8929020D02*
X13293360Y-9009020D01*
X13293360Y-9129020D02*
X13373360Y-9209020D01*
X13373360Y-9129020D02*
X13293360Y-9209020D01*
X13293360Y-9329020D02*
X13373360Y-9409020D01*
X13373360Y-9329020D02*
X13293360Y-9409020D01*
X13293360Y-9529020D02*
X13373360Y-9609020D01*
X13373360Y-9529020D02*
X13293360Y-9609020D01*
X13293360Y-9729020D02*
X13373360Y-9809020D01*
X13373360Y-9729020D02*
X13293360Y-9809020D01*
X13293360Y-9929020D02*
X13373360Y-10009020D01*
X13373360Y-9929020D02*
X13293360Y-10009020D01*
X13293360Y-10129020D02*
X13373360Y-10209020D01*
X13373360Y-10129020D02*
X13293360Y-10209020D01*
X13293360Y-10329020D02*
X13373360Y-10409020D01*
X13373360Y-10329020D02*
X13293360Y-10409020D01*
X13293360Y-10529020D02*
X13373360Y-10609020D01*
X13373360Y-10529020D02*
X13293360Y-10609020D01*
X15492100Y-8730060D02*
X15572100Y-8810060D01*
X15572100Y-8730060D02*
X15492100Y-8810060D01*
X15492100Y-8930060D02*
X15572100Y-9010060D01*
X15572100Y-8930060D02*
X15492100Y-9010060D01*
X15492100Y-9130060D02*
X15572100Y-9210060D01*
X15572100Y-9130060D02*
X15492100Y-9210060D01*
X15492100Y-9330060D02*
X15572100Y-9410060D01*
X15572100Y-9330060D02*
X15492100Y-9410060D01*
X15492100Y-9530060D02*
X15572100Y-9610060D01*
X15572100Y-9530060D02*
X15492100Y-9610060D01*
X15492100Y-9730060D02*
X15572100Y-9810060D01*
X15572100Y-9730060D02*
X15492100Y-9810060D01*
X15492100Y-9930060D02*
X15572100Y-10010060D01*
X15572100Y-9930060D02*
X15492100Y-10010060D01*
X15492100Y-10130060D02*
X15572100Y-10210060D01*
X15572100Y-10130060D02*
X15492100Y-10210060D01*
X15492100Y-10330060D02*
X15572100Y-10410060D01*
X15572100Y-10330060D02*
X15492100Y-10410060D01*
X15492100Y-10530060D02*
X15572100Y-10610060D01*
X15572100Y-10530060D02*
X15492100Y-10610060D01*
D13*
X13890280Y-9991600D02*
G75*
G03*
X13890280Y-9991600I-115000J0D01*
G01*
X15204280Y-9991600D02*
G75*
G03*
X15204280Y-9991600I-115000J0D01*
G01*
D11*
X13011325Y-11247904D02*
X13011325Y-11047904D01*
X13011325Y-11047904D02*
X13058944Y-11047904D01*
X13058944Y-11047904D02*
X13087516Y-11057428D01*
X13087516Y-11057428D02*
X13106563Y-11076475D01*
X13106563Y-11076475D02*
X13116087Y-11095523D01*
X13116087Y-11095523D02*
X13125611Y-11133618D01*
X13125611Y-11133618D02*
X13125611Y-11162190D01*
X13125611Y-11162190D02*
X13116087Y-11200285D01*
X13116087Y-11200285D02*
X13106563Y-11219332D01*
X13106563Y-11219332D02*
X13087516Y-11238380D01*
X13087516Y-11238380D02*
X13058944Y-11247904D01*
X13058944Y-11247904D02*
X13011325Y-11247904D01*
X13211325Y-11247904D02*
X13211325Y-11114570D01*
X13211325Y-11152666D02*
X13220849Y-11133618D01*
X13220849Y-11133618D02*
X13230373Y-11124094D01*
X13230373Y-11124094D02*
X13249420Y-11114570D01*
X13249420Y-11114570D02*
X13268468Y-11114570D01*
X13335135Y-11247904D02*
X13335135Y-11114570D01*
X13335135Y-11047904D02*
X13325611Y-11057428D01*
X13325611Y-11057428D02*
X13335135Y-11066951D01*
X13335135Y-11066951D02*
X13344658Y-11057428D01*
X13344658Y-11057428D02*
X13335135Y-11047904D01*
X13335135Y-11047904D02*
X13335135Y-11066951D01*
X13458944Y-11247904D02*
X13439896Y-11238380D01*
X13439896Y-11238380D02*
X13430373Y-11219332D01*
X13430373Y-11219332D02*
X13430373Y-11047904D01*
X13563706Y-11247904D02*
X13544658Y-11238380D01*
X13544658Y-11238380D02*
X13535135Y-11219332D01*
X13535135Y-11219332D02*
X13535135Y-11047904D01*
X13792277Y-11247904D02*
X13792277Y-11047904D01*
X13792277Y-11047904D02*
X13858944Y-11190761D01*
X13858944Y-11190761D02*
X13925611Y-11047904D01*
X13925611Y-11047904D02*
X13925611Y-11247904D01*
X14106563Y-11247904D02*
X14106563Y-11143142D01*
X14106563Y-11143142D02*
X14097039Y-11124094D01*
X14097039Y-11124094D02*
X14077992Y-11114570D01*
X14077992Y-11114570D02*
X14039896Y-11114570D01*
X14039896Y-11114570D02*
X14020849Y-11124094D01*
X14106563Y-11238380D02*
X14087516Y-11247904D01*
X14087516Y-11247904D02*
X14039896Y-11247904D01*
X14039896Y-11247904D02*
X14020849Y-11238380D01*
X14020849Y-11238380D02*
X14011325Y-11219332D01*
X14011325Y-11219332D02*
X14011325Y-11200285D01*
X14011325Y-11200285D02*
X14020849Y-11181237D01*
X14020849Y-11181237D02*
X14039896Y-11171713D01*
X14039896Y-11171713D02*
X14087516Y-11171713D01*
X14087516Y-11171713D02*
X14106563Y-11162190D01*
X14201801Y-11114570D02*
X14201801Y-11314570D01*
X14201801Y-11124094D02*
X14220849Y-11114570D01*
X14220849Y-11114570D02*
X14258944Y-11114570D01*
X14258944Y-11114570D02*
X14277992Y-11124094D01*
X14277992Y-11124094D02*
X14287516Y-11133618D01*
X14287516Y-11133618D02*
X14297039Y-11152666D01*
X14297039Y-11152666D02*
X14297039Y-11209808D01*
X14297039Y-11209808D02*
X14287516Y-11228856D01*
X14287516Y-11228856D02*
X14277992Y-11238380D01*
X14277992Y-11238380D02*
X14258944Y-11247904D01*
X14258944Y-11247904D02*
X14220849Y-11247904D01*
X14220849Y-11247904D02*
X14201801Y-11238380D01*
X14382754Y-11228856D02*
X14392277Y-11238380D01*
X14392277Y-11238380D02*
X14382754Y-11247904D01*
X14382754Y-11247904D02*
X14373230Y-11238380D01*
X14373230Y-11238380D02*
X14382754Y-11228856D01*
X14382754Y-11228856D02*
X14382754Y-11247904D01*
X14382754Y-11124094D02*
X14392277Y-11133618D01*
X14392277Y-11133618D02*
X14382754Y-11143142D01*
X14382754Y-11143142D02*
X14373230Y-11133618D01*
X14373230Y-11133618D02*
X14382754Y-11124094D01*
X14382754Y-11124094D02*
X14382754Y-11143142D01*
D12*
X12670548Y-11536420D02*
X12750548Y-11616420D01*
X12750548Y-11536420D02*
X12670548Y-11616420D01*
D11*
X13049420Y-11467904D02*
X13068468Y-11467904D01*
X13068468Y-11467904D02*
X13087516Y-11477428D01*
X13087516Y-11477428D02*
X13097039Y-11486951D01*
X13097039Y-11486951D02*
X13106563Y-11505999D01*
X13106563Y-11505999D02*
X13116087Y-11544094D01*
X13116087Y-11544094D02*
X13116087Y-11591713D01*
X13116087Y-11591713D02*
X13106563Y-11629808D01*
X13106563Y-11629808D02*
X13097039Y-11648856D01*
X13097039Y-11648856D02*
X13087516Y-11658380D01*
X13087516Y-11658380D02*
X13068468Y-11667904D01*
X13068468Y-11667904D02*
X13049420Y-11667904D01*
X13049420Y-11667904D02*
X13030373Y-11658380D01*
X13030373Y-11658380D02*
X13020849Y-11648856D01*
X13020849Y-11648856D02*
X13011325Y-11629808D01*
X13011325Y-11629808D02*
X13001801Y-11591713D01*
X13001801Y-11591713D02*
X13001801Y-11544094D01*
X13001801Y-11544094D02*
X13011325Y-11505999D01*
X13011325Y-11505999D02*
X13020849Y-11486951D01*
X13020849Y-11486951D02*
X13030373Y-11477428D01*
X13030373Y-11477428D02*
X13049420Y-11467904D01*
X13201801Y-11648856D02*
X13211325Y-11658380D01*
X13211325Y-11658380D02*
X13201801Y-11667904D01*
X13201801Y-11667904D02*
X13192277Y-11658380D01*
X13192277Y-11658380D02*
X13201801Y-11648856D01*
X13201801Y-11648856D02*
X13201801Y-11667904D01*
X13325611Y-11553618D02*
X13306563Y-11544094D01*
X13306563Y-11544094D02*
X13297039Y-11534570D01*
X13297039Y-11534570D02*
X13287516Y-11515523D01*
X13287516Y-11515523D02*
X13287516Y-11505999D01*
X13287516Y-11505999D02*
X13297039Y-11486951D01*
X13297039Y-11486951D02*
X13306563Y-11477428D01*
X13306563Y-11477428D02*
X13325611Y-11467904D01*
X13325611Y-11467904D02*
X13363706Y-11467904D01*
X13363706Y-11467904D02*
X13382754Y-11477428D01*
X13382754Y-11477428D02*
X13392277Y-11486951D01*
X13392277Y-11486951D02*
X13401801Y-11505999D01*
X13401801Y-11505999D02*
X13401801Y-11515523D01*
X13401801Y-11515523D02*
X13392277Y-11534570D01*
X13392277Y-11534570D02*
X13382754Y-11544094D01*
X13382754Y-11544094D02*
X13363706Y-11553618D01*
X13363706Y-11553618D02*
X13325611Y-11553618D01*
X13325611Y-11553618D02*
X13306563Y-11563142D01*
X13306563Y-11563142D02*
X13297039Y-11572666D01*
X13297039Y-11572666D02*
X13287516Y-11591713D01*
X13287516Y-11591713D02*
X13287516Y-11629808D01*
X13287516Y-11629808D02*
X13297039Y-11648856D01*
X13297039Y-11648856D02*
X13306563Y-11658380D01*
X13306563Y-11658380D02*
X13325611Y-11667904D01*
X13325611Y-11667904D02*
X13363706Y-11667904D01*
X13363706Y-11667904D02*
X13382754Y-11658380D01*
X13382754Y-11658380D02*
X13392277Y-11648856D01*
X13392277Y-11648856D02*
X13401801Y-11629808D01*
X13401801Y-11629808D02*
X13401801Y-11591713D01*
X13401801Y-11591713D02*
X13392277Y-11572666D01*
X13392277Y-11572666D02*
X13382754Y-11563142D01*
X13382754Y-11563142D02*
X13363706Y-11553618D01*
X13525611Y-11467904D02*
X13544658Y-11467904D01*
X13544658Y-11467904D02*
X13563706Y-11477428D01*
X13563706Y-11477428D02*
X13573230Y-11486951D01*
X13573230Y-11486951D02*
X13582754Y-11505999D01*
X13582754Y-11505999D02*
X13592277Y-11544094D01*
X13592277Y-11544094D02*
X13592277Y-11591713D01*
X13592277Y-11591713D02*
X13582754Y-11629808D01*
X13582754Y-11629808D02*
X13573230Y-11648856D01*
X13573230Y-11648856D02*
X13563706Y-11658380D01*
X13563706Y-11658380D02*
X13544658Y-11667904D01*
X13544658Y-11667904D02*
X13525611Y-11667904D01*
X13525611Y-11667904D02*
X13506563Y-11658380D01*
X13506563Y-11658380D02*
X13497039Y-11648856D01*
X13497039Y-11648856D02*
X13487516Y-11629808D01*
X13487516Y-11629808D02*
X13477992Y-11591713D01*
X13477992Y-11591713D02*
X13477992Y-11544094D01*
X13477992Y-11544094D02*
X13487516Y-11505999D01*
X13487516Y-11505999D02*
X13497039Y-11486951D01*
X13497039Y-11486951D02*
X13506563Y-11477428D01*
X13506563Y-11477428D02*
X13525611Y-11467904D01*
X13716087Y-11467904D02*
X13735135Y-11467904D01*
X13735135Y-11467904D02*
X13754182Y-11477428D01*
X13754182Y-11477428D02*
X13763706Y-11486951D01*
X13763706Y-11486951D02*
X13773230Y-11505999D01*
X13773230Y-11505999D02*
X13782754Y-11544094D01*
X13782754Y-11544094D02*
X13782754Y-11591713D01*
X13782754Y-11591713D02*
X13773230Y-11629808D01*
X13773230Y-11629808D02*
X13763706Y-11648856D01*
X13763706Y-11648856D02*
X13754182Y-11658380D01*
X13754182Y-11658380D02*
X13735135Y-11667904D01*
X13735135Y-11667904D02*
X13716087Y-11667904D01*
X13716087Y-11667904D02*
X13697039Y-11658380D01*
X13697039Y-11658380D02*
X13687516Y-11648856D01*
X13687516Y-11648856D02*
X13677992Y-11629808D01*
X13677992Y-11629808D02*
X13668468Y-11591713D01*
X13668468Y-11591713D02*
X13668468Y-11544094D01*
X13668468Y-11544094D02*
X13677992Y-11505999D01*
X13677992Y-11505999D02*
X13687516Y-11486951D01*
X13687516Y-11486951D02*
X13697039Y-11477428D01*
X13697039Y-11477428D02*
X13716087Y-11467904D01*
X13868468Y-11667904D02*
X13868468Y-11534570D01*
X13868468Y-11553618D02*
X13877992Y-11544094D01*
X13877992Y-11544094D02*
X13897039Y-11534570D01*
X13897039Y-11534570D02*
X13925611Y-11534570D01*
X13925611Y-11534570D02*
X13944658Y-11544094D01*
X13944658Y-11544094D02*
X13954182Y-11563142D01*
X13954182Y-11563142D02*
X13954182Y-11667904D01*
X13954182Y-11563142D02*
X13963706Y-11544094D01*
X13963706Y-11544094D02*
X13982754Y-11534570D01*
X13982754Y-11534570D02*
X14011325Y-11534570D01*
X14011325Y-11534570D02*
X14030373Y-11544094D01*
X14030373Y-11544094D02*
X14039897Y-11563142D01*
X14039897Y-11563142D02*
X14039897Y-11667904D01*
X14135135Y-11667904D02*
X14135135Y-11534570D01*
X14135135Y-11553618D02*
X14144658Y-11544094D01*
X14144658Y-11544094D02*
X14163706Y-11534570D01*
X14163706Y-11534570D02*
X14192278Y-11534570D01*
X14192278Y-11534570D02*
X14211325Y-11544094D01*
X14211325Y-11544094D02*
X14220849Y-11563142D01*
X14220849Y-11563142D02*
X14220849Y-11667904D01*
X14220849Y-11563142D02*
X14230373Y-11544094D01*
X14230373Y-11544094D02*
X14249420Y-11534570D01*
X14249420Y-11534570D02*
X14277992Y-11534570D01*
X14277992Y-11534570D02*
X14297039Y-11544094D01*
X14297039Y-11544094D02*
X14306563Y-11563142D01*
X14306563Y-11563142D02*
X14306563Y-11667904D01*
X14697039Y-11458380D02*
X14525611Y-11715523D01*
X14954182Y-11467904D02*
X14973230Y-11467904D01*
X14973230Y-11467904D02*
X14992278Y-11477428D01*
X14992278Y-11477428D02*
X15001801Y-11486951D01*
X15001801Y-11486951D02*
X15011325Y-11505999D01*
X15011325Y-11505999D02*
X15020849Y-11544094D01*
X15020849Y-11544094D02*
X15020849Y-11591713D01*
X15020849Y-11591713D02*
X15011325Y-11629808D01*
X15011325Y-11629808D02*
X15001801Y-11648856D01*
X15001801Y-11648856D02*
X14992278Y-11658380D01*
X14992278Y-11658380D02*
X14973230Y-11667904D01*
X14973230Y-11667904D02*
X14954182Y-11667904D01*
X14954182Y-11667904D02*
X14935135Y-11658380D01*
X14935135Y-11658380D02*
X14925611Y-11648856D01*
X14925611Y-11648856D02*
X14916087Y-11629808D01*
X14916087Y-11629808D02*
X14906563Y-11591713D01*
X14906563Y-11591713D02*
X14906563Y-11544094D01*
X14906563Y-11544094D02*
X14916087Y-11505999D01*
X14916087Y-11505999D02*
X14925611Y-11486951D01*
X14925611Y-11486951D02*
X14935135Y-11477428D01*
X14935135Y-11477428D02*
X14954182Y-11467904D01*
X15106563Y-11648856D02*
X15116087Y-11658380D01*
X15116087Y-11658380D02*
X15106563Y-11667904D01*
X15106563Y-11667904D02*
X15097040Y-11658380D01*
X15097040Y-11658380D02*
X15106563Y-11648856D01*
X15106563Y-11648856D02*
X15106563Y-11667904D01*
X15239897Y-11467904D02*
X15258944Y-11467904D01*
X15258944Y-11467904D02*
X15277992Y-11477428D01*
X15277992Y-11477428D02*
X15287516Y-11486951D01*
X15287516Y-11486951D02*
X15297040Y-11505999D01*
X15297040Y-11505999D02*
X15306563Y-11544094D01*
X15306563Y-11544094D02*
X15306563Y-11591713D01*
X15306563Y-11591713D02*
X15297040Y-11629808D01*
X15297040Y-11629808D02*
X15287516Y-11648856D01*
X15287516Y-11648856D02*
X15277992Y-11658380D01*
X15277992Y-11658380D02*
X15258944Y-11667904D01*
X15258944Y-11667904D02*
X15239897Y-11667904D01*
X15239897Y-11667904D02*
X15220849Y-11658380D01*
X15220849Y-11658380D02*
X15211325Y-11648856D01*
X15211325Y-11648856D02*
X15201801Y-11629808D01*
X15201801Y-11629808D02*
X15192278Y-11591713D01*
X15192278Y-11591713D02*
X15192278Y-11544094D01*
X15192278Y-11544094D02*
X15201801Y-11505999D01*
X15201801Y-11505999D02*
X15211325Y-11486951D01*
X15211325Y-11486951D02*
X15220849Y-11477428D01*
X15220849Y-11477428D02*
X15239897Y-11467904D01*
X15373230Y-11467904D02*
X15497040Y-11467904D01*
X15497040Y-11467904D02*
X15430373Y-11544094D01*
X15430373Y-11544094D02*
X15458944Y-11544094D01*
X15458944Y-11544094D02*
X15477992Y-11553618D01*
X15477992Y-11553618D02*
X15487516Y-11563142D01*
X15487516Y-11563142D02*
X15497040Y-11582189D01*
X15497040Y-11582189D02*
X15497040Y-11629808D01*
X15497040Y-11629808D02*
X15487516Y-11648856D01*
X15487516Y-11648856D02*
X15477992Y-11658380D01*
X15477992Y-11658380D02*
X15458944Y-11667904D01*
X15458944Y-11667904D02*
X15401801Y-11667904D01*
X15401801Y-11667904D02*
X15382754Y-11658380D01*
X15382754Y-11658380D02*
X15373230Y-11648856D01*
X15687516Y-11667904D02*
X15573230Y-11667904D01*
X15630373Y-11667904D02*
X15630373Y-11467904D01*
X15630373Y-11467904D02*
X15611325Y-11496475D01*
X15611325Y-11496475D02*
X15592278Y-11515523D01*
X15592278Y-11515523D02*
X15573230Y-11525047D01*
X15868468Y-11467904D02*
X15773230Y-11467904D01*
X15773230Y-11467904D02*
X15763706Y-11563142D01*
X15763706Y-11563142D02*
X15773230Y-11553618D01*
X15773230Y-11553618D02*
X15792278Y-11544094D01*
X15792278Y-11544094D02*
X15839897Y-11544094D01*
X15839897Y-11544094D02*
X15858944Y-11553618D01*
X15858944Y-11553618D02*
X15868468Y-11563142D01*
X15868468Y-11563142D02*
X15877992Y-11582189D01*
X15877992Y-11582189D02*
X15877992Y-11629808D01*
X15877992Y-11629808D02*
X15868468Y-11648856D01*
X15868468Y-11648856D02*
X15858944Y-11658380D01*
X15858944Y-11658380D02*
X15839897Y-11667904D01*
X15839897Y-11667904D02*
X15792278Y-11667904D01*
X15792278Y-11667904D02*
X15773230Y-11658380D01*
X15773230Y-11658380D02*
X15763706Y-11648856D01*
X15954182Y-11467904D02*
X15954182Y-11505999D01*
X16030373Y-11467904D02*
X16030373Y-11505999D01*
X16325611Y-11744094D02*
X16316087Y-11734570D01*
X16316087Y-11734570D02*
X16297040Y-11705999D01*
X16297040Y-11705999D02*
X16287516Y-11686951D01*
X16287516Y-11686951D02*
X16277992Y-11658380D01*
X16277992Y-11658380D02*
X16268468Y-11610761D01*
X16268468Y-11610761D02*
X16268468Y-11572666D01*
X16268468Y-11572666D02*
X16277992Y-11525047D01*
X16277992Y-11525047D02*
X16287516Y-11496475D01*
X16287516Y-11496475D02*
X16297040Y-11477428D01*
X16297040Y-11477428D02*
X16316087Y-11448856D01*
X16316087Y-11448856D02*
X16325611Y-11439332D01*
X16392278Y-11486951D02*
X16401802Y-11477428D01*
X16401802Y-11477428D02*
X16420849Y-11467904D01*
X16420849Y-11467904D02*
X16468468Y-11467904D01*
X16468468Y-11467904D02*
X16487516Y-11477428D01*
X16487516Y-11477428D02*
X16497040Y-11486951D01*
X16497040Y-11486951D02*
X16506563Y-11505999D01*
X16506563Y-11505999D02*
X16506563Y-11525047D01*
X16506563Y-11525047D02*
X16497040Y-11553618D01*
X16497040Y-11553618D02*
X16382754Y-11667904D01*
X16382754Y-11667904D02*
X16506563Y-11667904D01*
X16630373Y-11467904D02*
X16649421Y-11467904D01*
X16649421Y-11467904D02*
X16668468Y-11477428D01*
X16668468Y-11477428D02*
X16677992Y-11486951D01*
X16677992Y-11486951D02*
X16687516Y-11505999D01*
X16687516Y-11505999D02*
X16697040Y-11544094D01*
X16697040Y-11544094D02*
X16697040Y-11591713D01*
X16697040Y-11591713D02*
X16687516Y-11629808D01*
X16687516Y-11629808D02*
X16677992Y-11648856D01*
X16677992Y-11648856D02*
X16668468Y-11658380D01*
X16668468Y-11658380D02*
X16649421Y-11667904D01*
X16649421Y-11667904D02*
X16630373Y-11667904D01*
X16630373Y-11667904D02*
X16611325Y-11658380D01*
X16611325Y-11658380D02*
X16601802Y-11648856D01*
X16601802Y-11648856D02*
X16592278Y-11629808D01*
X16592278Y-11629808D02*
X16582754Y-11591713D01*
X16582754Y-11591713D02*
X16582754Y-11544094D01*
X16582754Y-11544094D02*
X16592278Y-11505999D01*
X16592278Y-11505999D02*
X16601802Y-11486951D01*
X16601802Y-11486951D02*
X16611325Y-11477428D01*
X16611325Y-11477428D02*
X16630373Y-11467904D01*
X16935135Y-11667904D02*
X16935135Y-11467904D01*
X17020849Y-11667904D02*
X17020849Y-11563142D01*
X17020849Y-11563142D02*
X17011326Y-11544094D01*
X17011326Y-11544094D02*
X16992278Y-11534570D01*
X16992278Y-11534570D02*
X16963706Y-11534570D01*
X16963706Y-11534570D02*
X16944659Y-11544094D01*
X16944659Y-11544094D02*
X16935135Y-11553618D01*
X17144659Y-11667904D02*
X17125611Y-11658380D01*
X17125611Y-11658380D02*
X17116087Y-11648856D01*
X17116087Y-11648856D02*
X17106564Y-11629808D01*
X17106564Y-11629808D02*
X17106564Y-11572666D01*
X17106564Y-11572666D02*
X17116087Y-11553618D01*
X17116087Y-11553618D02*
X17125611Y-11544094D01*
X17125611Y-11544094D02*
X17144659Y-11534570D01*
X17144659Y-11534570D02*
X17173230Y-11534570D01*
X17173230Y-11534570D02*
X17192278Y-11544094D01*
X17192278Y-11544094D02*
X17201802Y-11553618D01*
X17201802Y-11553618D02*
X17211326Y-11572666D01*
X17211326Y-11572666D02*
X17211326Y-11629808D01*
X17211326Y-11629808D02*
X17201802Y-11648856D01*
X17201802Y-11648856D02*
X17192278Y-11658380D01*
X17192278Y-11658380D02*
X17173230Y-11667904D01*
X17173230Y-11667904D02*
X17144659Y-11667904D01*
X17325611Y-11667904D02*
X17306564Y-11658380D01*
X17306564Y-11658380D02*
X17297040Y-11639332D01*
X17297040Y-11639332D02*
X17297040Y-11467904D01*
X17477992Y-11658380D02*
X17458945Y-11667904D01*
X17458945Y-11667904D02*
X17420849Y-11667904D01*
X17420849Y-11667904D02*
X17401802Y-11658380D01*
X17401802Y-11658380D02*
X17392278Y-11639332D01*
X17392278Y-11639332D02*
X17392278Y-11563142D01*
X17392278Y-11563142D02*
X17401802Y-11544094D01*
X17401802Y-11544094D02*
X17420849Y-11534570D01*
X17420849Y-11534570D02*
X17458945Y-11534570D01*
X17458945Y-11534570D02*
X17477992Y-11544094D01*
X17477992Y-11544094D02*
X17487516Y-11563142D01*
X17487516Y-11563142D02*
X17487516Y-11582189D01*
X17487516Y-11582189D02*
X17392278Y-11601237D01*
X17563707Y-11658380D02*
X17582754Y-11667904D01*
X17582754Y-11667904D02*
X17620849Y-11667904D01*
X17620849Y-11667904D02*
X17639897Y-11658380D01*
X17639897Y-11658380D02*
X17649421Y-11639332D01*
X17649421Y-11639332D02*
X17649421Y-11629808D01*
X17649421Y-11629808D02*
X17639897Y-11610761D01*
X17639897Y-11610761D02*
X17620849Y-11601237D01*
X17620849Y-11601237D02*
X17592278Y-11601237D01*
X17592278Y-11601237D02*
X17573230Y-11591713D01*
X17573230Y-11591713D02*
X17563707Y-11572666D01*
X17563707Y-11572666D02*
X17563707Y-11563142D01*
X17563707Y-11563142D02*
X17573230Y-11544094D01*
X17573230Y-11544094D02*
X17592278Y-11534570D01*
X17592278Y-11534570D02*
X17620849Y-11534570D01*
X17620849Y-11534570D02*
X17639897Y-11544094D01*
X17716088Y-11744094D02*
X17725611Y-11734570D01*
X17725611Y-11734570D02*
X17744659Y-11705999D01*
X17744659Y-11705999D02*
X17754183Y-11686951D01*
X17754183Y-11686951D02*
X17763707Y-11658380D01*
X17763707Y-11658380D02*
X17773230Y-11610761D01*
X17773230Y-11610761D02*
X17773230Y-11572666D01*
X17773230Y-11572666D02*
X17763707Y-11525047D01*
X17763707Y-11525047D02*
X17754183Y-11496475D01*
X17754183Y-11496475D02*
X17744659Y-11477428D01*
X17744659Y-11477428D02*
X17725611Y-11448856D01*
X17725611Y-11448856D02*
X17716088Y-11439332D01*
X12750548Y-11840420D02*
G75*
G03*
X12750548Y-11840420I-100000J0D01*
G01*
X13001801Y-11750951D02*
X13011325Y-11741428D01*
X13011325Y-11741428D02*
X13030373Y-11731904D01*
X13030373Y-11731904D02*
X13077992Y-11731904D01*
X13077992Y-11731904D02*
X13097039Y-11741428D01*
X13097039Y-11741428D02*
X13106563Y-11750951D01*
X13106563Y-11750951D02*
X13116087Y-11769999D01*
X13116087Y-11769999D02*
X13116087Y-11789047D01*
X13116087Y-11789047D02*
X13106563Y-11817618D01*
X13106563Y-11817618D02*
X12992277Y-11931904D01*
X12992277Y-11931904D02*
X13116087Y-11931904D01*
X13201801Y-11912856D02*
X13211325Y-11922380D01*
X13211325Y-11922380D02*
X13201801Y-11931904D01*
X13201801Y-11931904D02*
X13192277Y-11922380D01*
X13192277Y-11922380D02*
X13201801Y-11912856D01*
X13201801Y-11912856D02*
X13201801Y-11931904D01*
X13277992Y-11731904D02*
X13401801Y-11731904D01*
X13401801Y-11731904D02*
X13335135Y-11808094D01*
X13335135Y-11808094D02*
X13363706Y-11808094D01*
X13363706Y-11808094D02*
X13382754Y-11817618D01*
X13382754Y-11817618D02*
X13392277Y-11827142D01*
X13392277Y-11827142D02*
X13401801Y-11846189D01*
X13401801Y-11846189D02*
X13401801Y-11893808D01*
X13401801Y-11893808D02*
X13392277Y-11912856D01*
X13392277Y-11912856D02*
X13382754Y-11922380D01*
X13382754Y-11922380D02*
X13363706Y-11931904D01*
X13363706Y-11931904D02*
X13306563Y-11931904D01*
X13306563Y-11931904D02*
X13287516Y-11922380D01*
X13287516Y-11922380D02*
X13277992Y-11912856D01*
X13525611Y-11731904D02*
X13544658Y-11731904D01*
X13544658Y-11731904D02*
X13563706Y-11741428D01*
X13563706Y-11741428D02*
X13573230Y-11750951D01*
X13573230Y-11750951D02*
X13582754Y-11769999D01*
X13582754Y-11769999D02*
X13592277Y-11808094D01*
X13592277Y-11808094D02*
X13592277Y-11855713D01*
X13592277Y-11855713D02*
X13582754Y-11893808D01*
X13582754Y-11893808D02*
X13573230Y-11912856D01*
X13573230Y-11912856D02*
X13563706Y-11922380D01*
X13563706Y-11922380D02*
X13544658Y-11931904D01*
X13544658Y-11931904D02*
X13525611Y-11931904D01*
X13525611Y-11931904D02*
X13506563Y-11922380D01*
X13506563Y-11922380D02*
X13497039Y-11912856D01*
X13497039Y-11912856D02*
X13487516Y-11893808D01*
X13487516Y-11893808D02*
X13477992Y-11855713D01*
X13477992Y-11855713D02*
X13477992Y-11808094D01*
X13477992Y-11808094D02*
X13487516Y-11769999D01*
X13487516Y-11769999D02*
X13497039Y-11750951D01*
X13497039Y-11750951D02*
X13506563Y-11741428D01*
X13506563Y-11741428D02*
X13525611Y-11731904D01*
X13716087Y-11731904D02*
X13735135Y-11731904D01*
X13735135Y-11731904D02*
X13754182Y-11741428D01*
X13754182Y-11741428D02*
X13763706Y-11750951D01*
X13763706Y-11750951D02*
X13773230Y-11769999D01*
X13773230Y-11769999D02*
X13782754Y-11808094D01*
X13782754Y-11808094D02*
X13782754Y-11855713D01*
X13782754Y-11855713D02*
X13773230Y-11893808D01*
X13773230Y-11893808D02*
X13763706Y-11912856D01*
X13763706Y-11912856D02*
X13754182Y-11922380D01*
X13754182Y-11922380D02*
X13735135Y-11931904D01*
X13735135Y-11931904D02*
X13716087Y-11931904D01*
X13716087Y-11931904D02*
X13697039Y-11922380D01*
X13697039Y-11922380D02*
X13687516Y-11912856D01*
X13687516Y-11912856D02*
X13677992Y-11893808D01*
X13677992Y-11893808D02*
X13668468Y-11855713D01*
X13668468Y-11855713D02*
X13668468Y-11808094D01*
X13668468Y-11808094D02*
X13677992Y-11769999D01*
X13677992Y-11769999D02*
X13687516Y-11750951D01*
X13687516Y-11750951D02*
X13697039Y-11741428D01*
X13697039Y-11741428D02*
X13716087Y-11731904D01*
X13868468Y-11931904D02*
X13868468Y-11798570D01*
X13868468Y-11817618D02*
X13877992Y-11808094D01*
X13877992Y-11808094D02*
X13897039Y-11798570D01*
X13897039Y-11798570D02*
X13925611Y-11798570D01*
X13925611Y-11798570D02*
X13944658Y-11808094D01*
X13944658Y-11808094D02*
X13954182Y-11827142D01*
X13954182Y-11827142D02*
X13954182Y-11931904D01*
X13954182Y-11827142D02*
X13963706Y-11808094D01*
X13963706Y-11808094D02*
X13982754Y-11798570D01*
X13982754Y-11798570D02*
X14011325Y-11798570D01*
X14011325Y-11798570D02*
X14030373Y-11808094D01*
X14030373Y-11808094D02*
X14039897Y-11827142D01*
X14039897Y-11827142D02*
X14039897Y-11931904D01*
X14135135Y-11931904D02*
X14135135Y-11798570D01*
X14135135Y-11817618D02*
X14144658Y-11808094D01*
X14144658Y-11808094D02*
X14163706Y-11798570D01*
X14163706Y-11798570D02*
X14192278Y-11798570D01*
X14192278Y-11798570D02*
X14211325Y-11808094D01*
X14211325Y-11808094D02*
X14220849Y-11827142D01*
X14220849Y-11827142D02*
X14220849Y-11931904D01*
X14220849Y-11827142D02*
X14230373Y-11808094D01*
X14230373Y-11808094D02*
X14249420Y-11798570D01*
X14249420Y-11798570D02*
X14277992Y-11798570D01*
X14277992Y-11798570D02*
X14297039Y-11808094D01*
X14297039Y-11808094D02*
X14306563Y-11827142D01*
X14306563Y-11827142D02*
X14306563Y-11931904D01*
X14697039Y-11722380D02*
X14525611Y-11979523D01*
X14954182Y-11731904D02*
X14973230Y-11731904D01*
X14973230Y-11731904D02*
X14992278Y-11741428D01*
X14992278Y-11741428D02*
X15001801Y-11750951D01*
X15001801Y-11750951D02*
X15011325Y-11769999D01*
X15011325Y-11769999D02*
X15020849Y-11808094D01*
X15020849Y-11808094D02*
X15020849Y-11855713D01*
X15020849Y-11855713D02*
X15011325Y-11893808D01*
X15011325Y-11893808D02*
X15001801Y-11912856D01*
X15001801Y-11912856D02*
X14992278Y-11922380D01*
X14992278Y-11922380D02*
X14973230Y-11931904D01*
X14973230Y-11931904D02*
X14954182Y-11931904D01*
X14954182Y-11931904D02*
X14935135Y-11922380D01*
X14935135Y-11922380D02*
X14925611Y-11912856D01*
X14925611Y-11912856D02*
X14916087Y-11893808D01*
X14916087Y-11893808D02*
X14906563Y-11855713D01*
X14906563Y-11855713D02*
X14906563Y-11808094D01*
X14906563Y-11808094D02*
X14916087Y-11769999D01*
X14916087Y-11769999D02*
X14925611Y-11750951D01*
X14925611Y-11750951D02*
X14935135Y-11741428D01*
X14935135Y-11741428D02*
X14954182Y-11731904D01*
X15106563Y-11912856D02*
X15116087Y-11922380D01*
X15116087Y-11922380D02*
X15106563Y-11931904D01*
X15106563Y-11931904D02*
X15097040Y-11922380D01*
X15097040Y-11922380D02*
X15106563Y-11912856D01*
X15106563Y-11912856D02*
X15106563Y-11931904D01*
X15239897Y-11731904D02*
X15258944Y-11731904D01*
X15258944Y-11731904D02*
X15277992Y-11741428D01*
X15277992Y-11741428D02*
X15287516Y-11750951D01*
X15287516Y-11750951D02*
X15297040Y-11769999D01*
X15297040Y-11769999D02*
X15306563Y-11808094D01*
X15306563Y-11808094D02*
X15306563Y-11855713D01*
X15306563Y-11855713D02*
X15297040Y-11893808D01*
X15297040Y-11893808D02*
X15287516Y-11912856D01*
X15287516Y-11912856D02*
X15277992Y-11922380D01*
X15277992Y-11922380D02*
X15258944Y-11931904D01*
X15258944Y-11931904D02*
X15239897Y-11931904D01*
X15239897Y-11931904D02*
X15220849Y-11922380D01*
X15220849Y-11922380D02*
X15211325Y-11912856D01*
X15211325Y-11912856D02*
X15201801Y-11893808D01*
X15201801Y-11893808D02*
X15192278Y-11855713D01*
X15192278Y-11855713D02*
X15192278Y-11808094D01*
X15192278Y-11808094D02*
X15201801Y-11769999D01*
X15201801Y-11769999D02*
X15211325Y-11750951D01*
X15211325Y-11750951D02*
X15220849Y-11741428D01*
X15220849Y-11741428D02*
X15239897Y-11731904D01*
X15401801Y-11931904D02*
X15439897Y-11931904D01*
X15439897Y-11931904D02*
X15458944Y-11922380D01*
X15458944Y-11922380D02*
X15468468Y-11912856D01*
X15468468Y-11912856D02*
X15487516Y-11884285D01*
X15487516Y-11884285D02*
X15497040Y-11846189D01*
X15497040Y-11846189D02*
X15497040Y-11769999D01*
X15497040Y-11769999D02*
X15487516Y-11750951D01*
X15487516Y-11750951D02*
X15477992Y-11741428D01*
X15477992Y-11741428D02*
X15458944Y-11731904D01*
X15458944Y-11731904D02*
X15420849Y-11731904D01*
X15420849Y-11731904D02*
X15401801Y-11741428D01*
X15401801Y-11741428D02*
X15392278Y-11750951D01*
X15392278Y-11750951D02*
X15382754Y-11769999D01*
X15382754Y-11769999D02*
X15382754Y-11817618D01*
X15382754Y-11817618D02*
X15392278Y-11836666D01*
X15392278Y-11836666D02*
X15401801Y-11846189D01*
X15401801Y-11846189D02*
X15420849Y-11855713D01*
X15420849Y-11855713D02*
X15458944Y-11855713D01*
X15458944Y-11855713D02*
X15477992Y-11846189D01*
X15477992Y-11846189D02*
X15487516Y-11836666D01*
X15487516Y-11836666D02*
X15497040Y-11817618D01*
X15620849Y-11731904D02*
X15639897Y-11731904D01*
X15639897Y-11731904D02*
X15658944Y-11741428D01*
X15658944Y-11741428D02*
X15668468Y-11750951D01*
X15668468Y-11750951D02*
X15677992Y-11769999D01*
X15677992Y-11769999D02*
X15687516Y-11808094D01*
X15687516Y-11808094D02*
X15687516Y-11855713D01*
X15687516Y-11855713D02*
X15677992Y-11893808D01*
X15677992Y-11893808D02*
X15668468Y-11912856D01*
X15668468Y-11912856D02*
X15658944Y-11922380D01*
X15658944Y-11922380D02*
X15639897Y-11931904D01*
X15639897Y-11931904D02*
X15620849Y-11931904D01*
X15620849Y-11931904D02*
X15601801Y-11922380D01*
X15601801Y-11922380D02*
X15592278Y-11912856D01*
X15592278Y-11912856D02*
X15582754Y-11893808D01*
X15582754Y-11893808D02*
X15573230Y-11855713D01*
X15573230Y-11855713D02*
X15573230Y-11808094D01*
X15573230Y-11808094D02*
X15582754Y-11769999D01*
X15582754Y-11769999D02*
X15592278Y-11750951D01*
X15592278Y-11750951D02*
X15601801Y-11741428D01*
X15601801Y-11741428D02*
X15620849Y-11731904D01*
X15858944Y-11731904D02*
X15820849Y-11731904D01*
X15820849Y-11731904D02*
X15801801Y-11741428D01*
X15801801Y-11741428D02*
X15792278Y-11750951D01*
X15792278Y-11750951D02*
X15773230Y-11779523D01*
X15773230Y-11779523D02*
X15763706Y-11817618D01*
X15763706Y-11817618D02*
X15763706Y-11893808D01*
X15763706Y-11893808D02*
X15773230Y-11912856D01*
X15773230Y-11912856D02*
X15782754Y-11922380D01*
X15782754Y-11922380D02*
X15801801Y-11931904D01*
X15801801Y-11931904D02*
X15839897Y-11931904D01*
X15839897Y-11931904D02*
X15858944Y-11922380D01*
X15858944Y-11922380D02*
X15868468Y-11912856D01*
X15868468Y-11912856D02*
X15877992Y-11893808D01*
X15877992Y-11893808D02*
X15877992Y-11846189D01*
X15877992Y-11846189D02*
X15868468Y-11827142D01*
X15868468Y-11827142D02*
X15858944Y-11817618D01*
X15858944Y-11817618D02*
X15839897Y-11808094D01*
X15839897Y-11808094D02*
X15801801Y-11808094D01*
X15801801Y-11808094D02*
X15782754Y-11817618D01*
X15782754Y-11817618D02*
X15773230Y-11827142D01*
X15773230Y-11827142D02*
X15763706Y-11846189D01*
X15954182Y-11731904D02*
X15954182Y-11769999D01*
X16030373Y-11731904D02*
X16030373Y-11769999D01*
X16325611Y-12008094D02*
X16316087Y-11998570D01*
X16316087Y-11998570D02*
X16297040Y-11969999D01*
X16297040Y-11969999D02*
X16287516Y-11950951D01*
X16287516Y-11950951D02*
X16277992Y-11922380D01*
X16277992Y-11922380D02*
X16268468Y-11874761D01*
X16268468Y-11874761D02*
X16268468Y-11836666D01*
X16268468Y-11836666D02*
X16277992Y-11789047D01*
X16277992Y-11789047D02*
X16287516Y-11760475D01*
X16287516Y-11760475D02*
X16297040Y-11741428D01*
X16297040Y-11741428D02*
X16316087Y-11712856D01*
X16316087Y-11712856D02*
X16325611Y-11703332D01*
X16392278Y-11750951D02*
X16401802Y-11741428D01*
X16401802Y-11741428D02*
X16420849Y-11731904D01*
X16420849Y-11731904D02*
X16468468Y-11731904D01*
X16468468Y-11731904D02*
X16487516Y-11741428D01*
X16487516Y-11741428D02*
X16497040Y-11750951D01*
X16497040Y-11750951D02*
X16506563Y-11769999D01*
X16506563Y-11769999D02*
X16506563Y-11789047D01*
X16506563Y-11789047D02*
X16497040Y-11817618D01*
X16497040Y-11817618D02*
X16382754Y-11931904D01*
X16382754Y-11931904D02*
X16506563Y-11931904D01*
X16744659Y-11931904D02*
X16744659Y-11731904D01*
X16830373Y-11931904D02*
X16830373Y-11827142D01*
X16830373Y-11827142D02*
X16820849Y-11808094D01*
X16820849Y-11808094D02*
X16801802Y-11798570D01*
X16801802Y-11798570D02*
X16773230Y-11798570D01*
X16773230Y-11798570D02*
X16754183Y-11808094D01*
X16754183Y-11808094D02*
X16744659Y-11817618D01*
X16954183Y-11931904D02*
X16935135Y-11922380D01*
X16935135Y-11922380D02*
X16925611Y-11912856D01*
X16925611Y-11912856D02*
X16916087Y-11893808D01*
X16916087Y-11893808D02*
X16916087Y-11836666D01*
X16916087Y-11836666D02*
X16925611Y-11817618D01*
X16925611Y-11817618D02*
X16935135Y-11808094D01*
X16935135Y-11808094D02*
X16954183Y-11798570D01*
X16954183Y-11798570D02*
X16982754Y-11798570D01*
X16982754Y-11798570D02*
X17001802Y-11808094D01*
X17001802Y-11808094D02*
X17011326Y-11817618D01*
X17011326Y-11817618D02*
X17020849Y-11836666D01*
X17020849Y-11836666D02*
X17020849Y-11893808D01*
X17020849Y-11893808D02*
X17011326Y-11912856D01*
X17011326Y-11912856D02*
X17001802Y-11922380D01*
X17001802Y-11922380D02*
X16982754Y-11931904D01*
X16982754Y-11931904D02*
X16954183Y-11931904D01*
X17135135Y-11931904D02*
X17116087Y-11922380D01*
X17116087Y-11922380D02*
X17106564Y-11903332D01*
X17106564Y-11903332D02*
X17106564Y-11731904D01*
X17287516Y-11922380D02*
X17268468Y-11931904D01*
X17268468Y-11931904D02*
X17230373Y-11931904D01*
X17230373Y-11931904D02*
X17211326Y-11922380D01*
X17211326Y-11922380D02*
X17201802Y-11903332D01*
X17201802Y-11903332D02*
X17201802Y-11827142D01*
X17201802Y-11827142D02*
X17211326Y-11808094D01*
X17211326Y-11808094D02*
X17230373Y-11798570D01*
X17230373Y-11798570D02*
X17268468Y-11798570D01*
X17268468Y-11798570D02*
X17287516Y-11808094D01*
X17287516Y-11808094D02*
X17297040Y-11827142D01*
X17297040Y-11827142D02*
X17297040Y-11846189D01*
X17297040Y-11846189D02*
X17201802Y-11865237D01*
X17373230Y-11922380D02*
X17392278Y-11931904D01*
X17392278Y-11931904D02*
X17430373Y-11931904D01*
X17430373Y-11931904D02*
X17449421Y-11922380D01*
X17449421Y-11922380D02*
X17458945Y-11903332D01*
X17458945Y-11903332D02*
X17458945Y-11893808D01*
X17458945Y-11893808D02*
X17449421Y-11874761D01*
X17449421Y-11874761D02*
X17430373Y-11865237D01*
X17430373Y-11865237D02*
X17401802Y-11865237D01*
X17401802Y-11865237D02*
X17382754Y-11855713D01*
X17382754Y-11855713D02*
X17373230Y-11836666D01*
X17373230Y-11836666D02*
X17373230Y-11827142D01*
X17373230Y-11827142D02*
X17382754Y-11808094D01*
X17382754Y-11808094D02*
X17401802Y-11798570D01*
X17401802Y-11798570D02*
X17430373Y-11798570D01*
X17430373Y-11798570D02*
X17449421Y-11808094D01*
X17525611Y-12008094D02*
X17535135Y-11998570D01*
X17535135Y-11998570D02*
X17554183Y-11969999D01*
X17554183Y-11969999D02*
X17563707Y-11950951D01*
X17563707Y-11950951D02*
X17573230Y-11922380D01*
X17573230Y-11922380D02*
X17582754Y-11874761D01*
X17582754Y-11874761D02*
X17582754Y-11836666D01*
X17582754Y-11836666D02*
X17573230Y-11789047D01*
X17573230Y-11789047D02*
X17563707Y-11760475D01*
X17563707Y-11760475D02*
X17554183Y-11741428D01*
X17554183Y-11741428D02*
X17535135Y-11712856D01*
X17535135Y-11712856D02*
X17525611Y-11703332D01*
M02*
