M48
; DRILL file {KiCad 7.0.7} date Wed Oct  4 16:54:34 2023
; FORMAT={-:-/ absolute / metric / decimal}
; #@! TF.CreationDate,2023-10-04T16:54:34-06:00
; #@! TF.GenerationSoftware,Kicad,Pcbnew,7.0.7
; #@! TF.FileFunction,Plated,1,2,PTH
FMAT,2
METRIC
; #@! TA.AperFunction,Plated,PTH,ComponentDrill
T1C0.800
; #@! TA.AperFunction,Plated,PTH,ComponentDrill
T2C2.300
%
G90
G05
T1
X133.334Y-87.69
X133.334Y-89.69
X133.334Y-91.69
X133.334Y-93.69
X133.334Y-95.69
X133.334Y-97.69
X133.334Y-99.69
X133.334Y-101.69
X133.334Y-103.69
X133.334Y-105.69
X155.321Y-87.701
X155.321Y-89.701
X155.321Y-91.701
X155.321Y-93.701
X155.321Y-95.701
X155.321Y-97.701
X155.321Y-99.701
X155.321Y-101.701
X155.321Y-103.701
X155.321Y-105.701
T2
X137.753Y-99.916
X150.893Y-99.916
T0
M30
