%TF.GenerationSoftware,KiCad,Pcbnew,7.0.7*%
%TF.CreationDate,2023-10-05T13:04:32-06:00*%
%TF.ProjectId,USB_Module,5553425f-4d6f-4647-956c-652e6b696361,rev?*%
%TF.SameCoordinates,Original*%
%TF.FileFunction,Copper,L1,Top*%
%TF.FilePolarity,Positive*%
%FSLAX46Y46*%
G04 Gerber Fmt 4.6, Leading zero omitted, Abs format (unit mm)*
G04 Created by KiCad (PCBNEW 7.0.7) date 2023-10-05 13:04:32*
%MOMM*%
%LPD*%
G01*
G04 APERTURE LIST*
%TA.AperFunction,ComponentPad*%
%ADD10C,3.000000*%
%TD*%
%TA.AperFunction,ComponentPad*%
%ADD11C,1.600000*%
%TD*%
%TA.AperFunction,ComponentPad*%
%ADD12R,1.600000X1.600000*%
%TD*%
%TA.AperFunction,ComponentPad*%
%ADD13R,1.350000X1.350000*%
%TD*%
%TA.AperFunction,ComponentPad*%
%ADD14O,1.350000X1.350000*%
%TD*%
%TA.AperFunction,Conductor*%
%ADD15C,0.250000*%
%TD*%
G04 APERTURE END LIST*
D10*
%TO.P,J1,5,Shield*%
%TO.N,Net-(J1-GND)*%
X150940000Y-99820000D03*
X137800000Y-99820000D03*
D11*
%TO.P,J1,4,GND*%
X147870000Y-97110000D03*
%TO.P,J1,3,D+*%
%TO.N,Net-(J1-D+)*%
X145370000Y-97110000D03*
%TO.P,J1,2,D-*%
%TO.N,Net-(J1-D-)*%
X143370000Y-97110000D03*
D12*
%TO.P,J1,1,VBUS*%
%TO.N,Net-(J1-VBUS)*%
X140870000Y-97110000D03*
%TD*%
D13*
%TO.P,J2,1,Pin_1*%
%TO.N,Net-(J1-VBUS)*%
X133333600Y-87690200D03*
D14*
%TO.P,J2,2,Pin_2*%
%TO.N,unconnected-(J2-Pin_2-Pad2)*%
X133333600Y-89690200D03*
%TO.P,J2,3,Pin_3*%
%TO.N,unconnected-(J2-Pin_3-Pad3)*%
X133333600Y-91690200D03*
%TO.P,J2,4,Pin_4*%
%TO.N,unconnected-(J2-Pin_4-Pad4)*%
X133333600Y-93690200D03*
%TO.P,J2,5,Pin_5*%
%TO.N,unconnected-(J2-Pin_5-Pad5)*%
X133333600Y-95690200D03*
%TO.P,J2,6,Pin_6*%
%TO.N,unconnected-(J2-Pin_6-Pad6)*%
X133333600Y-97690200D03*
%TO.P,J2,7,Pin_7*%
%TO.N,unconnected-(J2-Pin_7-Pad7)*%
X133333600Y-99690200D03*
%TO.P,J2,8,Pin_8*%
%TO.N,unconnected-(J2-Pin_8-Pad8)*%
X133333600Y-101690200D03*
%TO.P,J2,9,Pin_9*%
%TO.N,unconnected-(J2-Pin_9-Pad9)*%
X133333600Y-103690200D03*
%TO.P,J2,10,Pin_10*%
%TO.N,Net-(J1-GND)*%
X133333600Y-105690200D03*
%TD*%
D13*
%TO.P,J3,1,Pin_1*%
%TO.N,Net-(J1-D-)*%
X155321000Y-87700600D03*
D14*
%TO.P,J3,2,Pin_2*%
%TO.N,Net-(J1-D+)*%
X155321000Y-89700600D03*
%TO.P,J3,3,Pin_3*%
%TO.N,unconnected-(J3-Pin_3-Pad3)*%
X155321000Y-91700600D03*
%TO.P,J3,4,Pin_4*%
%TO.N,unconnected-(J3-Pin_4-Pad4)*%
X155321000Y-93700600D03*
%TO.P,J3,5,Pin_5*%
%TO.N,unconnected-(J3-Pin_5-Pad5)*%
X155321000Y-95700600D03*
%TO.P,J3,6,Pin_6*%
%TO.N,unconnected-(J3-Pin_6-Pad6)*%
X155321000Y-97700600D03*
%TO.P,J3,7,Pin_7*%
%TO.N,unconnected-(J3-Pin_7-Pad7)*%
X155321000Y-99700600D03*
%TO.P,J3,8,Pin_8*%
%TO.N,unconnected-(J3-Pin_8-Pad8)*%
X155321000Y-101700600D03*
%TO.P,J3,9,Pin_9*%
%TO.N,unconnected-(J3-Pin_9-Pad9)*%
X155321000Y-103700600D03*
%TO.P,J3,10,Pin_10*%
%TO.N,unconnected-(J3-Pin_10-Pad10)*%
X155321000Y-105700600D03*
%TD*%
D15*
%TO.N,Net-(J1-D+)*%
X152779400Y-89700600D02*
X155321000Y-89700600D01*
X145370000Y-97110000D02*
X152779400Y-89700600D01*
%TO.N,Net-(J1-D-)*%
X152779400Y-87700600D02*
X155321000Y-87700600D01*
X143370000Y-97110000D02*
X152779400Y-87700600D01*
%TO.N,Net-(J1-VBUS)*%
X140870000Y-95226600D02*
X140870000Y-97110000D01*
X133333600Y-87690200D02*
X140870000Y-95226600D01*
%TO.N,Net-(J1-GND)*%
X148230000Y-97110000D02*
X147870000Y-97110000D01*
X150940000Y-99820000D02*
X148230000Y-97110000D01*
X137800000Y-99820000D02*
X150940000Y-99820000D01*
X137800000Y-101223800D02*
X137800000Y-99820000D01*
X133333600Y-105690200D02*
X137800000Y-101223800D01*
%TO.N,Net-(J1-VBUS)*%
X133333600Y-87690200D02*
X133724800Y-87690200D01*
%TD*%
M02*
