G04 #@! TF.GenerationSoftware,KiCad,Pcbnew,7.0.7*
G04 #@! TF.CreationDate,2023-10-04T16:42:28-06:00*
G04 #@! TF.ProjectId,Modular_Interfaces,4d6f6475-6c61-4725-9f49-6e7465726661,rev?*
G04 #@! TF.SameCoordinates,Original*
G04 #@! TF.FileFunction,Legend,Top*
G04 #@! TF.FilePolarity,Positive*
%FSLAX46Y46*%
G04 Gerber Fmt 4.6, Leading zero omitted, Abs format (unit mm)*
G04 Created by KiCad (PCBNEW 7.0.7) date 2023-10-04 16:42:28*
%MOMM*%
%LPD*%
G01*
G04 APERTURE LIST*
G04 Aperture macros list*
%AMRoundRect*
0 Rectangle with rounded corners*
0 $1 Rounding radius*
0 $2 $3 $4 $5 $6 $7 $8 $9 X,Y pos of 4 corners*
0 Add a 4 corners polygon primitive as box body*
4,1,4,$2,$3,$4,$5,$6,$7,$8,$9,$2,$3,0*
0 Add four circle primitives for the rounded corners*
1,1,$1+$1,$2,$3*
1,1,$1+$1,$4,$5*
1,1,$1+$1,$6,$7*
1,1,$1+$1,$8,$9*
0 Add four rect primitives between the rounded corners*
20,1,$1+$1,$2,$3,$4,$5,0*
20,1,$1+$1,$4,$5,$6,$7,0*
20,1,$1+$1,$6,$7,$8,$9,0*
20,1,$1+$1,$8,$9,$2,$3,0*%
G04 Aperture macros list end*
%ADD10C,0.100000*%
%ADD11C,0.150000*%
%ADD12C,0.120000*%
%ADD13R,1.350000X1.350000*%
%ADD14O,1.350000X1.350000*%
%ADD15C,3.250000*%
%ADD16R,1.500000X1.500000*%
%ADD17C,1.500000*%
%ADD18C,2.300000*%
%ADD19RoundRect,0.250000X-0.350000X-0.625000X0.350000X-0.625000X0.350000X0.625000X-0.350000X0.625000X0*%
%ADD20O,1.200000X1.750000*%
%ADD21RoundRect,0.250000X-0.287500X-0.275000X0.287500X-0.275000X0.287500X0.275000X-0.287500X0.275000X0*%
%ADD22RoundRect,0.200000X-0.200000X-0.275000X0.200000X-0.275000X0.200000X0.275000X-0.200000X0.275000X0*%
%ADD23R,1.250000X3.000000*%
%ADD24C,3.000000*%
G04 APERTURE END LIST*
D10*
X135729929Y-55022547D02*
X135729929Y-54622547D01*
X135729929Y-54622547D02*
X135863262Y-54908261D01*
X135863262Y-54908261D02*
X135996595Y-54622547D01*
X135996595Y-54622547D02*
X135996595Y-55022547D01*
X136263262Y-54622547D02*
X136339453Y-54622547D01*
X136339453Y-54622547D02*
X136377548Y-54641595D01*
X136377548Y-54641595D02*
X136415643Y-54679690D01*
X136415643Y-54679690D02*
X136434691Y-54755880D01*
X136434691Y-54755880D02*
X136434691Y-54889214D01*
X136434691Y-54889214D02*
X136415643Y-54965404D01*
X136415643Y-54965404D02*
X136377548Y-55003500D01*
X136377548Y-55003500D02*
X136339453Y-55022547D01*
X136339453Y-55022547D02*
X136263262Y-55022547D01*
X136263262Y-55022547D02*
X136225167Y-55003500D01*
X136225167Y-55003500D02*
X136187072Y-54965404D01*
X136187072Y-54965404D02*
X136168024Y-54889214D01*
X136168024Y-54889214D02*
X136168024Y-54755880D01*
X136168024Y-54755880D02*
X136187072Y-54679690D01*
X136187072Y-54679690D02*
X136225167Y-54641595D01*
X136225167Y-54641595D02*
X136263262Y-54622547D01*
X136587072Y-55003500D02*
X136644215Y-55022547D01*
X136644215Y-55022547D02*
X136739453Y-55022547D01*
X136739453Y-55022547D02*
X136777548Y-55003500D01*
X136777548Y-55003500D02*
X136796596Y-54984452D01*
X136796596Y-54984452D02*
X136815643Y-54946357D01*
X136815643Y-54946357D02*
X136815643Y-54908261D01*
X136815643Y-54908261D02*
X136796596Y-54870166D01*
X136796596Y-54870166D02*
X136777548Y-54851119D01*
X136777548Y-54851119D02*
X136739453Y-54832071D01*
X136739453Y-54832071D02*
X136663262Y-54813023D01*
X136663262Y-54813023D02*
X136625167Y-54793976D01*
X136625167Y-54793976D02*
X136606120Y-54774928D01*
X136606120Y-54774928D02*
X136587072Y-54736833D01*
X136587072Y-54736833D02*
X136587072Y-54698738D01*
X136587072Y-54698738D02*
X136606120Y-54660642D01*
X136606120Y-54660642D02*
X136625167Y-54641595D01*
X136625167Y-54641595D02*
X136663262Y-54622547D01*
X136663262Y-54622547D02*
X136758501Y-54622547D01*
X136758501Y-54622547D02*
X136815643Y-54641595D01*
X136987072Y-55022547D02*
X136987072Y-54622547D01*
X195350533Y-48941847D02*
X195217200Y-48751371D01*
X195121962Y-48941847D02*
X195121962Y-48541847D01*
X195121962Y-48541847D02*
X195274343Y-48541847D01*
X195274343Y-48541847D02*
X195312438Y-48560895D01*
X195312438Y-48560895D02*
X195331485Y-48579942D01*
X195331485Y-48579942D02*
X195350533Y-48618038D01*
X195350533Y-48618038D02*
X195350533Y-48675180D01*
X195350533Y-48675180D02*
X195331485Y-48713276D01*
X195331485Y-48713276D02*
X195312438Y-48732323D01*
X195312438Y-48732323D02*
X195274343Y-48751371D01*
X195274343Y-48751371D02*
X195121962Y-48751371D01*
X195483866Y-48541847D02*
X195750533Y-48941847D01*
X195750533Y-48541847D02*
X195483866Y-48941847D01*
D11*
X179337619Y-108026009D02*
X179004286Y-108026009D01*
X179004286Y-108549819D02*
X179004286Y-107549819D01*
X179004286Y-107549819D02*
X179480476Y-107549819D01*
X179861429Y-108549819D02*
X179861429Y-107549819D01*
X179861429Y-107549819D02*
X180242381Y-107549819D01*
X180242381Y-107549819D02*
X180337619Y-107597438D01*
X180337619Y-107597438D02*
X180385238Y-107645057D01*
X180385238Y-107645057D02*
X180432857Y-107740295D01*
X180432857Y-107740295D02*
X180432857Y-107883152D01*
X180432857Y-107883152D02*
X180385238Y-107978390D01*
X180385238Y-107978390D02*
X180337619Y-108026009D01*
X180337619Y-108026009D02*
X180242381Y-108073628D01*
X180242381Y-108073628D02*
X179861429Y-108073628D01*
X180718572Y-107549819D02*
X181051905Y-108549819D01*
X181051905Y-108549819D02*
X181385238Y-107549819D01*
X182909048Y-107883152D02*
X182909048Y-108549819D01*
X182670953Y-107502200D02*
X182432858Y-108216485D01*
X182432858Y-108216485D02*
X183051905Y-108216485D01*
X183432858Y-108168866D02*
X184194763Y-108168866D01*
X184670953Y-108549819D02*
X184670953Y-107549819D01*
X184670953Y-107549819D02*
X185051905Y-107549819D01*
X185051905Y-107549819D02*
X185147143Y-107597438D01*
X185147143Y-107597438D02*
X185194762Y-107645057D01*
X185194762Y-107645057D02*
X185242381Y-107740295D01*
X185242381Y-107740295D02*
X185242381Y-107883152D01*
X185242381Y-107883152D02*
X185194762Y-107978390D01*
X185194762Y-107978390D02*
X185147143Y-108026009D01*
X185147143Y-108026009D02*
X185051905Y-108073628D01*
X185051905Y-108073628D02*
X184670953Y-108073628D01*
X185670953Y-108549819D02*
X185670953Y-107883152D01*
X185670953Y-107549819D02*
X185623334Y-107597438D01*
X185623334Y-107597438D02*
X185670953Y-107645057D01*
X185670953Y-107645057D02*
X185718572Y-107597438D01*
X185718572Y-107597438D02*
X185670953Y-107549819D01*
X185670953Y-107549819D02*
X185670953Y-107645057D01*
X186147143Y-107883152D02*
X186147143Y-108549819D01*
X186147143Y-107978390D02*
X186194762Y-107930771D01*
X186194762Y-107930771D02*
X186290000Y-107883152D01*
X186290000Y-107883152D02*
X186432857Y-107883152D01*
X186432857Y-107883152D02*
X186528095Y-107930771D01*
X186528095Y-107930771D02*
X186575714Y-108026009D01*
X186575714Y-108026009D02*
X186575714Y-108549819D01*
X180409047Y-110159819D02*
X180409047Y-109159819D01*
X180409047Y-109159819D02*
X180742380Y-109874104D01*
X180742380Y-109874104D02*
X181075713Y-109159819D01*
X181075713Y-109159819D02*
X181075713Y-110159819D01*
X181694761Y-110159819D02*
X181599523Y-110112200D01*
X181599523Y-110112200D02*
X181551904Y-110064580D01*
X181551904Y-110064580D02*
X181504285Y-109969342D01*
X181504285Y-109969342D02*
X181504285Y-109683628D01*
X181504285Y-109683628D02*
X181551904Y-109588390D01*
X181551904Y-109588390D02*
X181599523Y-109540771D01*
X181599523Y-109540771D02*
X181694761Y-109493152D01*
X181694761Y-109493152D02*
X181837618Y-109493152D01*
X181837618Y-109493152D02*
X181932856Y-109540771D01*
X181932856Y-109540771D02*
X181980475Y-109588390D01*
X181980475Y-109588390D02*
X182028094Y-109683628D01*
X182028094Y-109683628D02*
X182028094Y-109969342D01*
X182028094Y-109969342D02*
X181980475Y-110064580D01*
X181980475Y-110064580D02*
X181932856Y-110112200D01*
X181932856Y-110112200D02*
X181837618Y-110159819D01*
X181837618Y-110159819D02*
X181694761Y-110159819D01*
X182885237Y-110159819D02*
X182885237Y-109159819D01*
X182885237Y-110112200D02*
X182789999Y-110159819D01*
X182789999Y-110159819D02*
X182599523Y-110159819D01*
X182599523Y-110159819D02*
X182504285Y-110112200D01*
X182504285Y-110112200D02*
X182456666Y-110064580D01*
X182456666Y-110064580D02*
X182409047Y-109969342D01*
X182409047Y-109969342D02*
X182409047Y-109683628D01*
X182409047Y-109683628D02*
X182456666Y-109588390D01*
X182456666Y-109588390D02*
X182504285Y-109540771D01*
X182504285Y-109540771D02*
X182599523Y-109493152D01*
X182599523Y-109493152D02*
X182789999Y-109493152D01*
X182789999Y-109493152D02*
X182885237Y-109540771D01*
X183789999Y-109493152D02*
X183789999Y-110159819D01*
X183361428Y-109493152D02*
X183361428Y-110016961D01*
X183361428Y-110016961D02*
X183409047Y-110112200D01*
X183409047Y-110112200D02*
X183504285Y-110159819D01*
X183504285Y-110159819D02*
X183647142Y-110159819D01*
X183647142Y-110159819D02*
X183742380Y-110112200D01*
X183742380Y-110112200D02*
X183789999Y-110064580D01*
X184409047Y-110159819D02*
X184313809Y-110112200D01*
X184313809Y-110112200D02*
X184266190Y-110016961D01*
X184266190Y-110016961D02*
X184266190Y-109159819D01*
X185170952Y-110112200D02*
X185075714Y-110159819D01*
X185075714Y-110159819D02*
X184885238Y-110159819D01*
X184885238Y-110159819D02*
X184790000Y-110112200D01*
X184790000Y-110112200D02*
X184742381Y-110016961D01*
X184742381Y-110016961D02*
X184742381Y-109636009D01*
X184742381Y-109636009D02*
X184790000Y-109540771D01*
X184790000Y-109540771D02*
X184885238Y-109493152D01*
X184885238Y-109493152D02*
X185075714Y-109493152D01*
X185075714Y-109493152D02*
X185170952Y-109540771D01*
X185170952Y-109540771D02*
X185218571Y-109636009D01*
X185218571Y-109636009D02*
X185218571Y-109731247D01*
X185218571Y-109731247D02*
X184742381Y-109826485D01*
D10*
X169443867Y-105671847D02*
X169577200Y-106071847D01*
X169577200Y-106071847D02*
X169710533Y-105671847D01*
X170072438Y-106033752D02*
X170053390Y-106052800D01*
X170053390Y-106052800D02*
X169996248Y-106071847D01*
X169996248Y-106071847D02*
X169958152Y-106071847D01*
X169958152Y-106071847D02*
X169901009Y-106052800D01*
X169901009Y-106052800D02*
X169862914Y-106014704D01*
X169862914Y-106014704D02*
X169843867Y-105976609D01*
X169843867Y-105976609D02*
X169824819Y-105900419D01*
X169824819Y-105900419D02*
X169824819Y-105843276D01*
X169824819Y-105843276D02*
X169843867Y-105767085D01*
X169843867Y-105767085D02*
X169862914Y-105728990D01*
X169862914Y-105728990D02*
X169901009Y-105690895D01*
X169901009Y-105690895D02*
X169958152Y-105671847D01*
X169958152Y-105671847D02*
X169996248Y-105671847D01*
X169996248Y-105671847D02*
X170053390Y-105690895D01*
X170053390Y-105690895D02*
X170072438Y-105709942D01*
X170472438Y-106033752D02*
X170453390Y-106052800D01*
X170453390Y-106052800D02*
X170396248Y-106071847D01*
X170396248Y-106071847D02*
X170358152Y-106071847D01*
X170358152Y-106071847D02*
X170301009Y-106052800D01*
X170301009Y-106052800D02*
X170262914Y-106014704D01*
X170262914Y-106014704D02*
X170243867Y-105976609D01*
X170243867Y-105976609D02*
X170224819Y-105900419D01*
X170224819Y-105900419D02*
X170224819Y-105843276D01*
X170224819Y-105843276D02*
X170243867Y-105767085D01*
X170243867Y-105767085D02*
X170262914Y-105728990D01*
X170262914Y-105728990D02*
X170301009Y-105690895D01*
X170301009Y-105690895D02*
X170358152Y-105671847D01*
X170358152Y-105671847D02*
X170396248Y-105671847D01*
X170396248Y-105671847D02*
X170453390Y-105690895D01*
X170453390Y-105690895D02*
X170472438Y-105709942D01*
X169672437Y-64570895D02*
X169634342Y-64551847D01*
X169634342Y-64551847D02*
X169577199Y-64551847D01*
X169577199Y-64551847D02*
X169520056Y-64570895D01*
X169520056Y-64570895D02*
X169481961Y-64608990D01*
X169481961Y-64608990D02*
X169462914Y-64647085D01*
X169462914Y-64647085D02*
X169443866Y-64723276D01*
X169443866Y-64723276D02*
X169443866Y-64780419D01*
X169443866Y-64780419D02*
X169462914Y-64856609D01*
X169462914Y-64856609D02*
X169481961Y-64894704D01*
X169481961Y-64894704D02*
X169520056Y-64932800D01*
X169520056Y-64932800D02*
X169577199Y-64951847D01*
X169577199Y-64951847D02*
X169615295Y-64951847D01*
X169615295Y-64951847D02*
X169672437Y-64932800D01*
X169672437Y-64932800D02*
X169691485Y-64913752D01*
X169691485Y-64913752D02*
X169691485Y-64780419D01*
X169691485Y-64780419D02*
X169615295Y-64780419D01*
X169862914Y-64951847D02*
X169862914Y-64551847D01*
X169862914Y-64551847D02*
X170091485Y-64951847D01*
X170091485Y-64951847D02*
X170091485Y-64551847D01*
X170281962Y-64951847D02*
X170281962Y-64551847D01*
X170281962Y-64551847D02*
X170377200Y-64551847D01*
X170377200Y-64551847D02*
X170434343Y-64570895D01*
X170434343Y-64570895D02*
X170472438Y-64608990D01*
X170472438Y-64608990D02*
X170491485Y-64647085D01*
X170491485Y-64647085D02*
X170510533Y-64723276D01*
X170510533Y-64723276D02*
X170510533Y-64780419D01*
X170510533Y-64780419D02*
X170491485Y-64856609D01*
X170491485Y-64856609D02*
X170472438Y-64894704D01*
X170472438Y-64894704D02*
X170434343Y-64932800D01*
X170434343Y-64932800D02*
X170377200Y-64951847D01*
X170377200Y-64951847D02*
X170281962Y-64951847D01*
D11*
X116797547Y-49480138D02*
X116702309Y-49432519D01*
X116702309Y-49432519D02*
X116559452Y-49432519D01*
X116559452Y-49432519D02*
X116416595Y-49480138D01*
X116416595Y-49480138D02*
X116321357Y-49575376D01*
X116321357Y-49575376D02*
X116273738Y-49670614D01*
X116273738Y-49670614D02*
X116226119Y-49861090D01*
X116226119Y-49861090D02*
X116226119Y-50003947D01*
X116226119Y-50003947D02*
X116273738Y-50194423D01*
X116273738Y-50194423D02*
X116321357Y-50289661D01*
X116321357Y-50289661D02*
X116416595Y-50384900D01*
X116416595Y-50384900D02*
X116559452Y-50432519D01*
X116559452Y-50432519D02*
X116654690Y-50432519D01*
X116654690Y-50432519D02*
X116797547Y-50384900D01*
X116797547Y-50384900D02*
X116845166Y-50337280D01*
X116845166Y-50337280D02*
X116845166Y-50003947D01*
X116845166Y-50003947D02*
X116654690Y-50003947D01*
X117273738Y-50432519D02*
X117273738Y-49765852D01*
X117273738Y-49432519D02*
X117226119Y-49480138D01*
X117226119Y-49480138D02*
X117273738Y-49527757D01*
X117273738Y-49527757D02*
X117321357Y-49480138D01*
X117321357Y-49480138D02*
X117273738Y-49432519D01*
X117273738Y-49432519D02*
X117273738Y-49527757D01*
X118178499Y-49765852D02*
X118178499Y-50575376D01*
X118178499Y-50575376D02*
X118130880Y-50670614D01*
X118130880Y-50670614D02*
X118083261Y-50718233D01*
X118083261Y-50718233D02*
X117988023Y-50765852D01*
X117988023Y-50765852D02*
X117845166Y-50765852D01*
X117845166Y-50765852D02*
X117749928Y-50718233D01*
X118178499Y-50384900D02*
X118083261Y-50432519D01*
X118083261Y-50432519D02*
X117892785Y-50432519D01*
X117892785Y-50432519D02*
X117797547Y-50384900D01*
X117797547Y-50384900D02*
X117749928Y-50337280D01*
X117749928Y-50337280D02*
X117702309Y-50242042D01*
X117702309Y-50242042D02*
X117702309Y-49956328D01*
X117702309Y-49956328D02*
X117749928Y-49861090D01*
X117749928Y-49861090D02*
X117797547Y-49813471D01*
X117797547Y-49813471D02*
X117892785Y-49765852D01*
X117892785Y-49765852D02*
X118083261Y-49765852D01*
X118083261Y-49765852D02*
X118178499Y-49813471D01*
X118654690Y-49908709D02*
X118988023Y-49908709D01*
X119130880Y-50432519D02*
X118654690Y-50432519D01*
X118654690Y-50432519D02*
X118654690Y-49432519D01*
X118654690Y-49432519D02*
X119130880Y-49432519D01*
X115297547Y-52042519D02*
X115297547Y-51042519D01*
X115297547Y-51042519D02*
X115630880Y-51756804D01*
X115630880Y-51756804D02*
X115964213Y-51042519D01*
X115964213Y-51042519D02*
X115964213Y-52042519D01*
X116583261Y-52042519D02*
X116488023Y-51994900D01*
X116488023Y-51994900D02*
X116440404Y-51947280D01*
X116440404Y-51947280D02*
X116392785Y-51852042D01*
X116392785Y-51852042D02*
X116392785Y-51566328D01*
X116392785Y-51566328D02*
X116440404Y-51471090D01*
X116440404Y-51471090D02*
X116488023Y-51423471D01*
X116488023Y-51423471D02*
X116583261Y-51375852D01*
X116583261Y-51375852D02*
X116726118Y-51375852D01*
X116726118Y-51375852D02*
X116821356Y-51423471D01*
X116821356Y-51423471D02*
X116868975Y-51471090D01*
X116868975Y-51471090D02*
X116916594Y-51566328D01*
X116916594Y-51566328D02*
X116916594Y-51852042D01*
X116916594Y-51852042D02*
X116868975Y-51947280D01*
X116868975Y-51947280D02*
X116821356Y-51994900D01*
X116821356Y-51994900D02*
X116726118Y-52042519D01*
X116726118Y-52042519D02*
X116583261Y-52042519D01*
X117773737Y-52042519D02*
X117773737Y-51042519D01*
X117773737Y-51994900D02*
X117678499Y-52042519D01*
X117678499Y-52042519D02*
X117488023Y-52042519D01*
X117488023Y-52042519D02*
X117392785Y-51994900D01*
X117392785Y-51994900D02*
X117345166Y-51947280D01*
X117345166Y-51947280D02*
X117297547Y-51852042D01*
X117297547Y-51852042D02*
X117297547Y-51566328D01*
X117297547Y-51566328D02*
X117345166Y-51471090D01*
X117345166Y-51471090D02*
X117392785Y-51423471D01*
X117392785Y-51423471D02*
X117488023Y-51375852D01*
X117488023Y-51375852D02*
X117678499Y-51375852D01*
X117678499Y-51375852D02*
X117773737Y-51423471D01*
X118678499Y-51375852D02*
X118678499Y-52042519D01*
X118249928Y-51375852D02*
X118249928Y-51899661D01*
X118249928Y-51899661D02*
X118297547Y-51994900D01*
X118297547Y-51994900D02*
X118392785Y-52042519D01*
X118392785Y-52042519D02*
X118535642Y-52042519D01*
X118535642Y-52042519D02*
X118630880Y-51994900D01*
X118630880Y-51994900D02*
X118678499Y-51947280D01*
X119297547Y-52042519D02*
X119202309Y-51994900D01*
X119202309Y-51994900D02*
X119154690Y-51899661D01*
X119154690Y-51899661D02*
X119154690Y-51042519D01*
X120059452Y-51994900D02*
X119964214Y-52042519D01*
X119964214Y-52042519D02*
X119773738Y-52042519D01*
X119773738Y-52042519D02*
X119678500Y-51994900D01*
X119678500Y-51994900D02*
X119630881Y-51899661D01*
X119630881Y-51899661D02*
X119630881Y-51518709D01*
X119630881Y-51518709D02*
X119678500Y-51423471D01*
X119678500Y-51423471D02*
X119773738Y-51375852D01*
X119773738Y-51375852D02*
X119964214Y-51375852D01*
X119964214Y-51375852D02*
X120059452Y-51423471D01*
X120059452Y-51423471D02*
X120107071Y-51518709D01*
X120107071Y-51518709D02*
X120107071Y-51613947D01*
X120107071Y-51613947D02*
X119630881Y-51709185D01*
D10*
X110601833Y-56954452D02*
X110582785Y-56973500D01*
X110582785Y-56973500D02*
X110525643Y-56992547D01*
X110525643Y-56992547D02*
X110487547Y-56992547D01*
X110487547Y-56992547D02*
X110430404Y-56973500D01*
X110430404Y-56973500D02*
X110392309Y-56935404D01*
X110392309Y-56935404D02*
X110373262Y-56897309D01*
X110373262Y-56897309D02*
X110354214Y-56821119D01*
X110354214Y-56821119D02*
X110354214Y-56763976D01*
X110354214Y-56763976D02*
X110373262Y-56687785D01*
X110373262Y-56687785D02*
X110392309Y-56649690D01*
X110392309Y-56649690D02*
X110430404Y-56611595D01*
X110430404Y-56611595D02*
X110487547Y-56592547D01*
X110487547Y-56592547D02*
X110525643Y-56592547D01*
X110525643Y-56592547D02*
X110582785Y-56611595D01*
X110582785Y-56611595D02*
X110601833Y-56630642D01*
X110754214Y-56973500D02*
X110811357Y-56992547D01*
X110811357Y-56992547D02*
X110906595Y-56992547D01*
X110906595Y-56992547D02*
X110944690Y-56973500D01*
X110944690Y-56973500D02*
X110963738Y-56954452D01*
X110963738Y-56954452D02*
X110982785Y-56916357D01*
X110982785Y-56916357D02*
X110982785Y-56878261D01*
X110982785Y-56878261D02*
X110963738Y-56840166D01*
X110963738Y-56840166D02*
X110944690Y-56821119D01*
X110944690Y-56821119D02*
X110906595Y-56802071D01*
X110906595Y-56802071D02*
X110830404Y-56783023D01*
X110830404Y-56783023D02*
X110792309Y-56763976D01*
X110792309Y-56763976D02*
X110773262Y-56744928D01*
X110773262Y-56744928D02*
X110754214Y-56706833D01*
X110754214Y-56706833D02*
X110754214Y-56668738D01*
X110754214Y-56668738D02*
X110773262Y-56630642D01*
X110773262Y-56630642D02*
X110792309Y-56611595D01*
X110792309Y-56611595D02*
X110830404Y-56592547D01*
X110830404Y-56592547D02*
X110925643Y-56592547D01*
X110925643Y-56592547D02*
X110982785Y-56611595D01*
X135861486Y-106127561D02*
X136051962Y-106127561D01*
X135823391Y-106241847D02*
X135956724Y-105841847D01*
X135956724Y-105841847D02*
X136090057Y-106241847D01*
X136299581Y-105841847D02*
X136337676Y-105841847D01*
X136337676Y-105841847D02*
X136375772Y-105860895D01*
X136375772Y-105860895D02*
X136394819Y-105879942D01*
X136394819Y-105879942D02*
X136413867Y-105918038D01*
X136413867Y-105918038D02*
X136432914Y-105994228D01*
X136432914Y-105994228D02*
X136432914Y-106089466D01*
X136432914Y-106089466D02*
X136413867Y-106165657D01*
X136413867Y-106165657D02*
X136394819Y-106203752D01*
X136394819Y-106203752D02*
X136375772Y-106222800D01*
X136375772Y-106222800D02*
X136337676Y-106241847D01*
X136337676Y-106241847D02*
X136299581Y-106241847D01*
X136299581Y-106241847D02*
X136261486Y-106222800D01*
X136261486Y-106222800D02*
X136242438Y-106203752D01*
X136242438Y-106203752D02*
X136223391Y-106165657D01*
X136223391Y-106165657D02*
X136204343Y-106089466D01*
X136204343Y-106089466D02*
X136204343Y-105994228D01*
X136204343Y-105994228D02*
X136223391Y-105918038D01*
X136223391Y-105918038D02*
X136242438Y-105879942D01*
X136242438Y-105879942D02*
X136261486Y-105860895D01*
X136261486Y-105860895D02*
X136299581Y-105841847D01*
X110363737Y-64611595D02*
X110325642Y-64592547D01*
X110325642Y-64592547D02*
X110268499Y-64592547D01*
X110268499Y-64592547D02*
X110211356Y-64611595D01*
X110211356Y-64611595D02*
X110173261Y-64649690D01*
X110173261Y-64649690D02*
X110154214Y-64687785D01*
X110154214Y-64687785D02*
X110135166Y-64763976D01*
X110135166Y-64763976D02*
X110135166Y-64821119D01*
X110135166Y-64821119D02*
X110154214Y-64897309D01*
X110154214Y-64897309D02*
X110173261Y-64935404D01*
X110173261Y-64935404D02*
X110211356Y-64973500D01*
X110211356Y-64973500D02*
X110268499Y-64992547D01*
X110268499Y-64992547D02*
X110306595Y-64992547D01*
X110306595Y-64992547D02*
X110363737Y-64973500D01*
X110363737Y-64973500D02*
X110382785Y-64954452D01*
X110382785Y-64954452D02*
X110382785Y-64821119D01*
X110382785Y-64821119D02*
X110306595Y-64821119D01*
X110554214Y-64992547D02*
X110554214Y-64592547D01*
X110554214Y-64592547D02*
X110782785Y-64992547D01*
X110782785Y-64992547D02*
X110782785Y-64592547D01*
X110973262Y-64992547D02*
X110973262Y-64592547D01*
X110973262Y-64592547D02*
X111068500Y-64592547D01*
X111068500Y-64592547D02*
X111125643Y-64611595D01*
X111125643Y-64611595D02*
X111163738Y-64649690D01*
X111163738Y-64649690D02*
X111182785Y-64687785D01*
X111182785Y-64687785D02*
X111201833Y-64763976D01*
X111201833Y-64763976D02*
X111201833Y-64821119D01*
X111201833Y-64821119D02*
X111182785Y-64897309D01*
X111182785Y-64897309D02*
X111163738Y-64935404D01*
X111163738Y-64935404D02*
X111125643Y-64973500D01*
X111125643Y-64973500D02*
X111068500Y-64992547D01*
X111068500Y-64992547D02*
X110973262Y-64992547D01*
X110306595Y-58992547D02*
X110306595Y-58592547D01*
X110497071Y-58992547D02*
X110497071Y-58592547D01*
X110497071Y-58592547D02*
X110725642Y-58992547D01*
X110725642Y-58992547D02*
X110725642Y-58592547D01*
X110858976Y-58592547D02*
X111087547Y-58592547D01*
X110973261Y-58992547D02*
X110973261Y-58592547D01*
X195112438Y-46551847D02*
X195341009Y-46551847D01*
X195226723Y-46951847D02*
X195226723Y-46551847D01*
X195436247Y-46551847D02*
X195702914Y-46951847D01*
X195702914Y-46551847D02*
X195436247Y-46951847D01*
X195131486Y-105977561D02*
X195321962Y-105977561D01*
X195093391Y-106091847D02*
X195226724Y-105691847D01*
X195226724Y-105691847D02*
X195360057Y-106091847D01*
X195569581Y-105691847D02*
X195607676Y-105691847D01*
X195607676Y-105691847D02*
X195645772Y-105710895D01*
X195645772Y-105710895D02*
X195664819Y-105729942D01*
X195664819Y-105729942D02*
X195683867Y-105768038D01*
X195683867Y-105768038D02*
X195702914Y-105844228D01*
X195702914Y-105844228D02*
X195702914Y-105939466D01*
X195702914Y-105939466D02*
X195683867Y-106015657D01*
X195683867Y-106015657D02*
X195664819Y-106053752D01*
X195664819Y-106053752D02*
X195645772Y-106072800D01*
X195645772Y-106072800D02*
X195607676Y-106091847D01*
X195607676Y-106091847D02*
X195569581Y-106091847D01*
X195569581Y-106091847D02*
X195531486Y-106072800D01*
X195531486Y-106072800D02*
X195512438Y-106053752D01*
X195512438Y-106053752D02*
X195493391Y-106015657D01*
X195493391Y-106015657D02*
X195474343Y-105939466D01*
X195474343Y-105939466D02*
X195474343Y-105844228D01*
X195474343Y-105844228D02*
X195493391Y-105768038D01*
X195493391Y-105768038D02*
X195512438Y-105729942D01*
X195512438Y-105729942D02*
X195531486Y-105710895D01*
X195531486Y-105710895D02*
X195569581Y-105691847D01*
X195131286Y-107976761D02*
X195321762Y-107976761D01*
X195093191Y-108091047D02*
X195226524Y-107691047D01*
X195226524Y-107691047D02*
X195359857Y-108091047D01*
X195702714Y-108091047D02*
X195474143Y-108091047D01*
X195588429Y-108091047D02*
X195588429Y-107691047D01*
X195588429Y-107691047D02*
X195550333Y-107748190D01*
X195550333Y-107748190D02*
X195512238Y-107786285D01*
X195512238Y-107786285D02*
X195474143Y-107805333D01*
X169443867Y-46531847D02*
X169577200Y-46931847D01*
X169577200Y-46931847D02*
X169710533Y-46531847D01*
X170072438Y-46893752D02*
X170053390Y-46912800D01*
X170053390Y-46912800D02*
X169996248Y-46931847D01*
X169996248Y-46931847D02*
X169958152Y-46931847D01*
X169958152Y-46931847D02*
X169901009Y-46912800D01*
X169901009Y-46912800D02*
X169862914Y-46874704D01*
X169862914Y-46874704D02*
X169843867Y-46836609D01*
X169843867Y-46836609D02*
X169824819Y-46760419D01*
X169824819Y-46760419D02*
X169824819Y-46703276D01*
X169824819Y-46703276D02*
X169843867Y-46627085D01*
X169843867Y-46627085D02*
X169862914Y-46588990D01*
X169862914Y-46588990D02*
X169901009Y-46550895D01*
X169901009Y-46550895D02*
X169958152Y-46531847D01*
X169958152Y-46531847D02*
X169996248Y-46531847D01*
X169996248Y-46531847D02*
X170053390Y-46550895D01*
X170053390Y-46550895D02*
X170072438Y-46569942D01*
X170472438Y-46893752D02*
X170453390Y-46912800D01*
X170453390Y-46912800D02*
X170396248Y-46931847D01*
X170396248Y-46931847D02*
X170358152Y-46931847D01*
X170358152Y-46931847D02*
X170301009Y-46912800D01*
X170301009Y-46912800D02*
X170262914Y-46874704D01*
X170262914Y-46874704D02*
X170243867Y-46836609D01*
X170243867Y-46836609D02*
X170224819Y-46760419D01*
X170224819Y-46760419D02*
X170224819Y-46703276D01*
X170224819Y-46703276D02*
X170243867Y-46627085D01*
X170243867Y-46627085D02*
X170262914Y-46588990D01*
X170262914Y-46588990D02*
X170301009Y-46550895D01*
X170301009Y-46550895D02*
X170358152Y-46531847D01*
X170358152Y-46531847D02*
X170396248Y-46531847D01*
X170396248Y-46531847D02*
X170453390Y-46550895D01*
X170453390Y-46550895D02*
X170472438Y-46569942D01*
D11*
X120067619Y-108176009D02*
X119734286Y-108176009D01*
X119734286Y-108699819D02*
X119734286Y-107699819D01*
X119734286Y-107699819D02*
X120210476Y-107699819D01*
X120591429Y-108699819D02*
X120591429Y-107699819D01*
X120591429Y-107699819D02*
X120972381Y-107699819D01*
X120972381Y-107699819D02*
X121067619Y-107747438D01*
X121067619Y-107747438D02*
X121115238Y-107795057D01*
X121115238Y-107795057D02*
X121162857Y-107890295D01*
X121162857Y-107890295D02*
X121162857Y-108033152D01*
X121162857Y-108033152D02*
X121115238Y-108128390D01*
X121115238Y-108128390D02*
X121067619Y-108176009D01*
X121067619Y-108176009D02*
X120972381Y-108223628D01*
X120972381Y-108223628D02*
X120591429Y-108223628D01*
X121448572Y-107699819D02*
X121781905Y-108699819D01*
X121781905Y-108699819D02*
X122115238Y-107699819D01*
X123115239Y-107699819D02*
X123734286Y-107699819D01*
X123734286Y-107699819D02*
X123400953Y-108080771D01*
X123400953Y-108080771D02*
X123543810Y-108080771D01*
X123543810Y-108080771D02*
X123639048Y-108128390D01*
X123639048Y-108128390D02*
X123686667Y-108176009D01*
X123686667Y-108176009D02*
X123734286Y-108271247D01*
X123734286Y-108271247D02*
X123734286Y-108509342D01*
X123734286Y-108509342D02*
X123686667Y-108604580D01*
X123686667Y-108604580D02*
X123639048Y-108652200D01*
X123639048Y-108652200D02*
X123543810Y-108699819D01*
X123543810Y-108699819D02*
X123258096Y-108699819D01*
X123258096Y-108699819D02*
X123162858Y-108652200D01*
X123162858Y-108652200D02*
X123115239Y-108604580D01*
X124162858Y-108318866D02*
X124924763Y-108318866D01*
X125400953Y-108699819D02*
X125400953Y-107699819D01*
X125400953Y-107699819D02*
X125781905Y-107699819D01*
X125781905Y-107699819D02*
X125877143Y-107747438D01*
X125877143Y-107747438D02*
X125924762Y-107795057D01*
X125924762Y-107795057D02*
X125972381Y-107890295D01*
X125972381Y-107890295D02*
X125972381Y-108033152D01*
X125972381Y-108033152D02*
X125924762Y-108128390D01*
X125924762Y-108128390D02*
X125877143Y-108176009D01*
X125877143Y-108176009D02*
X125781905Y-108223628D01*
X125781905Y-108223628D02*
X125400953Y-108223628D01*
X126400953Y-108699819D02*
X126400953Y-108033152D01*
X126400953Y-107699819D02*
X126353334Y-107747438D01*
X126353334Y-107747438D02*
X126400953Y-107795057D01*
X126400953Y-107795057D02*
X126448572Y-107747438D01*
X126448572Y-107747438D02*
X126400953Y-107699819D01*
X126400953Y-107699819D02*
X126400953Y-107795057D01*
X126877143Y-108033152D02*
X126877143Y-108699819D01*
X126877143Y-108128390D02*
X126924762Y-108080771D01*
X126924762Y-108080771D02*
X127020000Y-108033152D01*
X127020000Y-108033152D02*
X127162857Y-108033152D01*
X127162857Y-108033152D02*
X127258095Y-108080771D01*
X127258095Y-108080771D02*
X127305714Y-108176009D01*
X127305714Y-108176009D02*
X127305714Y-108699819D01*
X121139047Y-110309819D02*
X121139047Y-109309819D01*
X121139047Y-109309819D02*
X121472380Y-110024104D01*
X121472380Y-110024104D02*
X121805713Y-109309819D01*
X121805713Y-109309819D02*
X121805713Y-110309819D01*
X122424761Y-110309819D02*
X122329523Y-110262200D01*
X122329523Y-110262200D02*
X122281904Y-110214580D01*
X122281904Y-110214580D02*
X122234285Y-110119342D01*
X122234285Y-110119342D02*
X122234285Y-109833628D01*
X122234285Y-109833628D02*
X122281904Y-109738390D01*
X122281904Y-109738390D02*
X122329523Y-109690771D01*
X122329523Y-109690771D02*
X122424761Y-109643152D01*
X122424761Y-109643152D02*
X122567618Y-109643152D01*
X122567618Y-109643152D02*
X122662856Y-109690771D01*
X122662856Y-109690771D02*
X122710475Y-109738390D01*
X122710475Y-109738390D02*
X122758094Y-109833628D01*
X122758094Y-109833628D02*
X122758094Y-110119342D01*
X122758094Y-110119342D02*
X122710475Y-110214580D01*
X122710475Y-110214580D02*
X122662856Y-110262200D01*
X122662856Y-110262200D02*
X122567618Y-110309819D01*
X122567618Y-110309819D02*
X122424761Y-110309819D01*
X123615237Y-110309819D02*
X123615237Y-109309819D01*
X123615237Y-110262200D02*
X123519999Y-110309819D01*
X123519999Y-110309819D02*
X123329523Y-110309819D01*
X123329523Y-110309819D02*
X123234285Y-110262200D01*
X123234285Y-110262200D02*
X123186666Y-110214580D01*
X123186666Y-110214580D02*
X123139047Y-110119342D01*
X123139047Y-110119342D02*
X123139047Y-109833628D01*
X123139047Y-109833628D02*
X123186666Y-109738390D01*
X123186666Y-109738390D02*
X123234285Y-109690771D01*
X123234285Y-109690771D02*
X123329523Y-109643152D01*
X123329523Y-109643152D02*
X123519999Y-109643152D01*
X123519999Y-109643152D02*
X123615237Y-109690771D01*
X124519999Y-109643152D02*
X124519999Y-110309819D01*
X124091428Y-109643152D02*
X124091428Y-110166961D01*
X124091428Y-110166961D02*
X124139047Y-110262200D01*
X124139047Y-110262200D02*
X124234285Y-110309819D01*
X124234285Y-110309819D02*
X124377142Y-110309819D01*
X124377142Y-110309819D02*
X124472380Y-110262200D01*
X124472380Y-110262200D02*
X124519999Y-110214580D01*
X125139047Y-110309819D02*
X125043809Y-110262200D01*
X125043809Y-110262200D02*
X124996190Y-110166961D01*
X124996190Y-110166961D02*
X124996190Y-109309819D01*
X125900952Y-110262200D02*
X125805714Y-110309819D01*
X125805714Y-110309819D02*
X125615238Y-110309819D01*
X125615238Y-110309819D02*
X125520000Y-110262200D01*
X125520000Y-110262200D02*
X125472381Y-110166961D01*
X125472381Y-110166961D02*
X125472381Y-109786009D01*
X125472381Y-109786009D02*
X125520000Y-109690771D01*
X125520000Y-109690771D02*
X125615238Y-109643152D01*
X125615238Y-109643152D02*
X125805714Y-109643152D01*
X125805714Y-109643152D02*
X125900952Y-109690771D01*
X125900952Y-109690771D02*
X125948571Y-109786009D01*
X125948571Y-109786009D02*
X125948571Y-109881247D01*
X125948571Y-109881247D02*
X125472381Y-109976485D01*
X178694761Y-48409819D02*
X178694761Y-49219342D01*
X178694761Y-49219342D02*
X178742380Y-49314580D01*
X178742380Y-49314580D02*
X178789999Y-49362200D01*
X178789999Y-49362200D02*
X178885237Y-49409819D01*
X178885237Y-49409819D02*
X179075713Y-49409819D01*
X179075713Y-49409819D02*
X179170951Y-49362200D01*
X179170951Y-49362200D02*
X179218570Y-49314580D01*
X179218570Y-49314580D02*
X179266189Y-49219342D01*
X179266189Y-49219342D02*
X179266189Y-48409819D01*
X179694761Y-49362200D02*
X179837618Y-49409819D01*
X179837618Y-49409819D02*
X180075713Y-49409819D01*
X180075713Y-49409819D02*
X180170951Y-49362200D01*
X180170951Y-49362200D02*
X180218570Y-49314580D01*
X180218570Y-49314580D02*
X180266189Y-49219342D01*
X180266189Y-49219342D02*
X180266189Y-49124104D01*
X180266189Y-49124104D02*
X180218570Y-49028866D01*
X180218570Y-49028866D02*
X180170951Y-48981247D01*
X180170951Y-48981247D02*
X180075713Y-48933628D01*
X180075713Y-48933628D02*
X179885237Y-48886009D01*
X179885237Y-48886009D02*
X179789999Y-48838390D01*
X179789999Y-48838390D02*
X179742380Y-48790771D01*
X179742380Y-48790771D02*
X179694761Y-48695533D01*
X179694761Y-48695533D02*
X179694761Y-48600295D01*
X179694761Y-48600295D02*
X179742380Y-48505057D01*
X179742380Y-48505057D02*
X179789999Y-48457438D01*
X179789999Y-48457438D02*
X179885237Y-48409819D01*
X179885237Y-48409819D02*
X180123332Y-48409819D01*
X180123332Y-48409819D02*
X180266189Y-48457438D01*
X181028094Y-48886009D02*
X181170951Y-48933628D01*
X181170951Y-48933628D02*
X181218570Y-48981247D01*
X181218570Y-48981247D02*
X181266189Y-49076485D01*
X181266189Y-49076485D02*
X181266189Y-49219342D01*
X181266189Y-49219342D02*
X181218570Y-49314580D01*
X181218570Y-49314580D02*
X181170951Y-49362200D01*
X181170951Y-49362200D02*
X181075713Y-49409819D01*
X181075713Y-49409819D02*
X180694761Y-49409819D01*
X180694761Y-49409819D02*
X180694761Y-48409819D01*
X180694761Y-48409819D02*
X181028094Y-48409819D01*
X181028094Y-48409819D02*
X181123332Y-48457438D01*
X181123332Y-48457438D02*
X181170951Y-48505057D01*
X181170951Y-48505057D02*
X181218570Y-48600295D01*
X181218570Y-48600295D02*
X181218570Y-48695533D01*
X181218570Y-48695533D02*
X181170951Y-48790771D01*
X181170951Y-48790771D02*
X181123332Y-48838390D01*
X181123332Y-48838390D02*
X181028094Y-48886009D01*
X181028094Y-48886009D02*
X180694761Y-48886009D01*
X182313809Y-48409819D02*
X182885237Y-48409819D01*
X182599523Y-49409819D02*
X182599523Y-48409819D01*
X183123333Y-48743152D02*
X183361428Y-49409819D01*
X183599523Y-48743152D02*
X183361428Y-49409819D01*
X183361428Y-49409819D02*
X183266190Y-49647914D01*
X183266190Y-49647914D02*
X183218571Y-49695533D01*
X183218571Y-49695533D02*
X183123333Y-49743152D01*
X183980476Y-48743152D02*
X183980476Y-49743152D01*
X183980476Y-48790771D02*
X184075714Y-48743152D01*
X184075714Y-48743152D02*
X184266190Y-48743152D01*
X184266190Y-48743152D02*
X184361428Y-48790771D01*
X184361428Y-48790771D02*
X184409047Y-48838390D01*
X184409047Y-48838390D02*
X184456666Y-48933628D01*
X184456666Y-48933628D02*
X184456666Y-49219342D01*
X184456666Y-49219342D02*
X184409047Y-49314580D01*
X184409047Y-49314580D02*
X184361428Y-49362200D01*
X184361428Y-49362200D02*
X184266190Y-49409819D01*
X184266190Y-49409819D02*
X184075714Y-49409819D01*
X184075714Y-49409819D02*
X183980476Y-49362200D01*
X185266190Y-49362200D02*
X185170952Y-49409819D01*
X185170952Y-49409819D02*
X184980476Y-49409819D01*
X184980476Y-49409819D02*
X184885238Y-49362200D01*
X184885238Y-49362200D02*
X184837619Y-49266961D01*
X184837619Y-49266961D02*
X184837619Y-48886009D01*
X184837619Y-48886009D02*
X184885238Y-48790771D01*
X184885238Y-48790771D02*
X184980476Y-48743152D01*
X184980476Y-48743152D02*
X185170952Y-48743152D01*
X185170952Y-48743152D02*
X185266190Y-48790771D01*
X185266190Y-48790771D02*
X185313809Y-48886009D01*
X185313809Y-48886009D02*
X185313809Y-48981247D01*
X185313809Y-48981247D02*
X184837619Y-49076485D01*
X186456667Y-49124104D02*
X186932857Y-49124104D01*
X186361429Y-49409819D02*
X186694762Y-48409819D01*
X186694762Y-48409819D02*
X187028095Y-49409819D01*
X180409047Y-51019819D02*
X180409047Y-50019819D01*
X180409047Y-50019819D02*
X180742380Y-50734104D01*
X180742380Y-50734104D02*
X181075713Y-50019819D01*
X181075713Y-50019819D02*
X181075713Y-51019819D01*
X181694761Y-51019819D02*
X181599523Y-50972200D01*
X181599523Y-50972200D02*
X181551904Y-50924580D01*
X181551904Y-50924580D02*
X181504285Y-50829342D01*
X181504285Y-50829342D02*
X181504285Y-50543628D01*
X181504285Y-50543628D02*
X181551904Y-50448390D01*
X181551904Y-50448390D02*
X181599523Y-50400771D01*
X181599523Y-50400771D02*
X181694761Y-50353152D01*
X181694761Y-50353152D02*
X181837618Y-50353152D01*
X181837618Y-50353152D02*
X181932856Y-50400771D01*
X181932856Y-50400771D02*
X181980475Y-50448390D01*
X181980475Y-50448390D02*
X182028094Y-50543628D01*
X182028094Y-50543628D02*
X182028094Y-50829342D01*
X182028094Y-50829342D02*
X181980475Y-50924580D01*
X181980475Y-50924580D02*
X181932856Y-50972200D01*
X181932856Y-50972200D02*
X181837618Y-51019819D01*
X181837618Y-51019819D02*
X181694761Y-51019819D01*
X182885237Y-51019819D02*
X182885237Y-50019819D01*
X182885237Y-50972200D02*
X182789999Y-51019819D01*
X182789999Y-51019819D02*
X182599523Y-51019819D01*
X182599523Y-51019819D02*
X182504285Y-50972200D01*
X182504285Y-50972200D02*
X182456666Y-50924580D01*
X182456666Y-50924580D02*
X182409047Y-50829342D01*
X182409047Y-50829342D02*
X182409047Y-50543628D01*
X182409047Y-50543628D02*
X182456666Y-50448390D01*
X182456666Y-50448390D02*
X182504285Y-50400771D01*
X182504285Y-50400771D02*
X182599523Y-50353152D01*
X182599523Y-50353152D02*
X182789999Y-50353152D01*
X182789999Y-50353152D02*
X182885237Y-50400771D01*
X183789999Y-50353152D02*
X183789999Y-51019819D01*
X183361428Y-50353152D02*
X183361428Y-50876961D01*
X183361428Y-50876961D02*
X183409047Y-50972200D01*
X183409047Y-50972200D02*
X183504285Y-51019819D01*
X183504285Y-51019819D02*
X183647142Y-51019819D01*
X183647142Y-51019819D02*
X183742380Y-50972200D01*
X183742380Y-50972200D02*
X183789999Y-50924580D01*
X184409047Y-51019819D02*
X184313809Y-50972200D01*
X184313809Y-50972200D02*
X184266190Y-50876961D01*
X184266190Y-50876961D02*
X184266190Y-50019819D01*
X185170952Y-50972200D02*
X185075714Y-51019819D01*
X185075714Y-51019819D02*
X184885238Y-51019819D01*
X184885238Y-51019819D02*
X184790000Y-50972200D01*
X184790000Y-50972200D02*
X184742381Y-50876961D01*
X184742381Y-50876961D02*
X184742381Y-50496009D01*
X184742381Y-50496009D02*
X184790000Y-50400771D01*
X184790000Y-50400771D02*
X184885238Y-50353152D01*
X184885238Y-50353152D02*
X185075714Y-50353152D01*
X185075714Y-50353152D02*
X185170952Y-50400771D01*
X185170952Y-50400771D02*
X185218571Y-50496009D01*
X185218571Y-50496009D02*
X185218571Y-50591247D01*
X185218571Y-50591247D02*
X184742381Y-50686485D01*
D10*
X135729929Y-52982547D02*
X135729929Y-52582547D01*
X135729929Y-52582547D02*
X135863262Y-52868261D01*
X135863262Y-52868261D02*
X135996595Y-52582547D01*
X135996595Y-52582547D02*
X135996595Y-52982547D01*
X136187072Y-52982547D02*
X136187072Y-52582547D01*
X136358500Y-52963500D02*
X136415643Y-52982547D01*
X136415643Y-52982547D02*
X136510881Y-52982547D01*
X136510881Y-52982547D02*
X136548976Y-52963500D01*
X136548976Y-52963500D02*
X136568024Y-52944452D01*
X136568024Y-52944452D02*
X136587071Y-52906357D01*
X136587071Y-52906357D02*
X136587071Y-52868261D01*
X136587071Y-52868261D02*
X136568024Y-52830166D01*
X136568024Y-52830166D02*
X136548976Y-52811119D01*
X136548976Y-52811119D02*
X136510881Y-52792071D01*
X136510881Y-52792071D02*
X136434690Y-52773023D01*
X136434690Y-52773023D02*
X136396595Y-52753976D01*
X136396595Y-52753976D02*
X136377548Y-52734928D01*
X136377548Y-52734928D02*
X136358500Y-52696833D01*
X136358500Y-52696833D02*
X136358500Y-52658738D01*
X136358500Y-52658738D02*
X136377548Y-52620642D01*
X136377548Y-52620642D02*
X136396595Y-52601595D01*
X136396595Y-52601595D02*
X136434690Y-52582547D01*
X136434690Y-52582547D02*
X136529929Y-52582547D01*
X136529929Y-52582547D02*
X136587071Y-52601595D01*
X136834690Y-52582547D02*
X136910881Y-52582547D01*
X136910881Y-52582547D02*
X136948976Y-52601595D01*
X136948976Y-52601595D02*
X136987071Y-52639690D01*
X136987071Y-52639690D02*
X137006119Y-52715880D01*
X137006119Y-52715880D02*
X137006119Y-52849214D01*
X137006119Y-52849214D02*
X136987071Y-52925404D01*
X136987071Y-52925404D02*
X136948976Y-52963500D01*
X136948976Y-52963500D02*
X136910881Y-52982547D01*
X136910881Y-52982547D02*
X136834690Y-52982547D01*
X136834690Y-52982547D02*
X136796595Y-52963500D01*
X136796595Y-52963500D02*
X136758500Y-52925404D01*
X136758500Y-52925404D02*
X136739452Y-52849214D01*
X136739452Y-52849214D02*
X136739452Y-52715880D01*
X136739452Y-52715880D02*
X136758500Y-52639690D01*
X136758500Y-52639690D02*
X136796595Y-52601595D01*
X136796595Y-52601595D02*
X136834690Y-52582547D01*
X110402437Y-123860895D02*
X110364342Y-123841847D01*
X110364342Y-123841847D02*
X110307199Y-123841847D01*
X110307199Y-123841847D02*
X110250056Y-123860895D01*
X110250056Y-123860895D02*
X110211961Y-123898990D01*
X110211961Y-123898990D02*
X110192914Y-123937085D01*
X110192914Y-123937085D02*
X110173866Y-124013276D01*
X110173866Y-124013276D02*
X110173866Y-124070419D01*
X110173866Y-124070419D02*
X110192914Y-124146609D01*
X110192914Y-124146609D02*
X110211961Y-124184704D01*
X110211961Y-124184704D02*
X110250056Y-124222800D01*
X110250056Y-124222800D02*
X110307199Y-124241847D01*
X110307199Y-124241847D02*
X110345295Y-124241847D01*
X110345295Y-124241847D02*
X110402437Y-124222800D01*
X110402437Y-124222800D02*
X110421485Y-124203752D01*
X110421485Y-124203752D02*
X110421485Y-124070419D01*
X110421485Y-124070419D02*
X110345295Y-124070419D01*
X110592914Y-124241847D02*
X110592914Y-123841847D01*
X110592914Y-123841847D02*
X110821485Y-124241847D01*
X110821485Y-124241847D02*
X110821485Y-123841847D01*
X111011962Y-124241847D02*
X111011962Y-123841847D01*
X111011962Y-123841847D02*
X111107200Y-123841847D01*
X111107200Y-123841847D02*
X111164343Y-123860895D01*
X111164343Y-123860895D02*
X111202438Y-123898990D01*
X111202438Y-123898990D02*
X111221485Y-123937085D01*
X111221485Y-123937085D02*
X111240533Y-124013276D01*
X111240533Y-124013276D02*
X111240533Y-124070419D01*
X111240533Y-124070419D02*
X111221485Y-124146609D01*
X111221485Y-124146609D02*
X111202438Y-124184704D01*
X111202438Y-124184704D02*
X111164343Y-124222800D01*
X111164343Y-124222800D02*
X111107200Y-124241847D01*
X111107200Y-124241847D02*
X111011962Y-124241847D01*
X169672437Y-123710895D02*
X169634342Y-123691847D01*
X169634342Y-123691847D02*
X169577199Y-123691847D01*
X169577199Y-123691847D02*
X169520056Y-123710895D01*
X169520056Y-123710895D02*
X169481961Y-123748990D01*
X169481961Y-123748990D02*
X169462914Y-123787085D01*
X169462914Y-123787085D02*
X169443866Y-123863276D01*
X169443866Y-123863276D02*
X169443866Y-123920419D01*
X169443866Y-123920419D02*
X169462914Y-123996609D01*
X169462914Y-123996609D02*
X169481961Y-124034704D01*
X169481961Y-124034704D02*
X169520056Y-124072800D01*
X169520056Y-124072800D02*
X169577199Y-124091847D01*
X169577199Y-124091847D02*
X169615295Y-124091847D01*
X169615295Y-124091847D02*
X169672437Y-124072800D01*
X169672437Y-124072800D02*
X169691485Y-124053752D01*
X169691485Y-124053752D02*
X169691485Y-123920419D01*
X169691485Y-123920419D02*
X169615295Y-123920419D01*
X169862914Y-124091847D02*
X169862914Y-123691847D01*
X169862914Y-123691847D02*
X170091485Y-124091847D01*
X170091485Y-124091847D02*
X170091485Y-123691847D01*
X170281962Y-124091847D02*
X170281962Y-123691847D01*
X170281962Y-123691847D02*
X170377200Y-123691847D01*
X170377200Y-123691847D02*
X170434343Y-123710895D01*
X170434343Y-123710895D02*
X170472438Y-123748990D01*
X170472438Y-123748990D02*
X170491485Y-123787085D01*
X170491485Y-123787085D02*
X170510533Y-123863276D01*
X170510533Y-123863276D02*
X170510533Y-123920419D01*
X170510533Y-123920419D02*
X170491485Y-123996609D01*
X170491485Y-123996609D02*
X170472438Y-124034704D01*
X170472438Y-124034704D02*
X170434343Y-124072800D01*
X170434343Y-124072800D02*
X170377200Y-124091847D01*
X170377200Y-124091847D02*
X170281962Y-124091847D01*
X110135167Y-46582547D02*
X110268500Y-46982547D01*
X110268500Y-46982547D02*
X110401833Y-46582547D01*
X110763738Y-46944452D02*
X110744690Y-46963500D01*
X110744690Y-46963500D02*
X110687548Y-46982547D01*
X110687548Y-46982547D02*
X110649452Y-46982547D01*
X110649452Y-46982547D02*
X110592309Y-46963500D01*
X110592309Y-46963500D02*
X110554214Y-46925404D01*
X110554214Y-46925404D02*
X110535167Y-46887309D01*
X110535167Y-46887309D02*
X110516119Y-46811119D01*
X110516119Y-46811119D02*
X110516119Y-46753976D01*
X110516119Y-46753976D02*
X110535167Y-46677785D01*
X110535167Y-46677785D02*
X110554214Y-46639690D01*
X110554214Y-46639690D02*
X110592309Y-46601595D01*
X110592309Y-46601595D02*
X110649452Y-46582547D01*
X110649452Y-46582547D02*
X110687548Y-46582547D01*
X110687548Y-46582547D02*
X110744690Y-46601595D01*
X110744690Y-46601595D02*
X110763738Y-46620642D01*
X111163738Y-46944452D02*
X111144690Y-46963500D01*
X111144690Y-46963500D02*
X111087548Y-46982547D01*
X111087548Y-46982547D02*
X111049452Y-46982547D01*
X111049452Y-46982547D02*
X110992309Y-46963500D01*
X110992309Y-46963500D02*
X110954214Y-46925404D01*
X110954214Y-46925404D02*
X110935167Y-46887309D01*
X110935167Y-46887309D02*
X110916119Y-46811119D01*
X110916119Y-46811119D02*
X110916119Y-46753976D01*
X110916119Y-46753976D02*
X110935167Y-46677785D01*
X110935167Y-46677785D02*
X110954214Y-46639690D01*
X110954214Y-46639690D02*
X110992309Y-46601595D01*
X110992309Y-46601595D02*
X111049452Y-46582547D01*
X111049452Y-46582547D02*
X111087548Y-46582547D01*
X111087548Y-46582547D02*
X111144690Y-46601595D01*
X111144690Y-46601595D02*
X111163738Y-46620642D01*
X135844214Y-50973500D02*
X135901357Y-50992547D01*
X135901357Y-50992547D02*
X135996595Y-50992547D01*
X135996595Y-50992547D02*
X136034690Y-50973500D01*
X136034690Y-50973500D02*
X136053738Y-50954452D01*
X136053738Y-50954452D02*
X136072785Y-50916357D01*
X136072785Y-50916357D02*
X136072785Y-50878261D01*
X136072785Y-50878261D02*
X136053738Y-50840166D01*
X136053738Y-50840166D02*
X136034690Y-50821119D01*
X136034690Y-50821119D02*
X135996595Y-50802071D01*
X135996595Y-50802071D02*
X135920404Y-50783023D01*
X135920404Y-50783023D02*
X135882309Y-50763976D01*
X135882309Y-50763976D02*
X135863262Y-50744928D01*
X135863262Y-50744928D02*
X135844214Y-50706833D01*
X135844214Y-50706833D02*
X135844214Y-50668738D01*
X135844214Y-50668738D02*
X135863262Y-50630642D01*
X135863262Y-50630642D02*
X135882309Y-50611595D01*
X135882309Y-50611595D02*
X135920404Y-50592547D01*
X135920404Y-50592547D02*
X136015643Y-50592547D01*
X136015643Y-50592547D02*
X136072785Y-50611595D01*
X136472785Y-50954452D02*
X136453737Y-50973500D01*
X136453737Y-50973500D02*
X136396595Y-50992547D01*
X136396595Y-50992547D02*
X136358499Y-50992547D01*
X136358499Y-50992547D02*
X136301356Y-50973500D01*
X136301356Y-50973500D02*
X136263261Y-50935404D01*
X136263261Y-50935404D02*
X136244214Y-50897309D01*
X136244214Y-50897309D02*
X136225166Y-50821119D01*
X136225166Y-50821119D02*
X136225166Y-50763976D01*
X136225166Y-50763976D02*
X136244214Y-50687785D01*
X136244214Y-50687785D02*
X136263261Y-50649690D01*
X136263261Y-50649690D02*
X136301356Y-50611595D01*
X136301356Y-50611595D02*
X136358499Y-50592547D01*
X136358499Y-50592547D02*
X136396595Y-50592547D01*
X136396595Y-50592547D02*
X136453737Y-50611595D01*
X136453737Y-50611595D02*
X136472785Y-50630642D01*
X136644214Y-50992547D02*
X136644214Y-50592547D01*
X136872785Y-50992547D02*
X136701356Y-50763976D01*
X136872785Y-50592547D02*
X136644214Y-50821119D01*
X110173867Y-105821847D02*
X110307200Y-106221847D01*
X110307200Y-106221847D02*
X110440533Y-105821847D01*
X110802438Y-106183752D02*
X110783390Y-106202800D01*
X110783390Y-106202800D02*
X110726248Y-106221847D01*
X110726248Y-106221847D02*
X110688152Y-106221847D01*
X110688152Y-106221847D02*
X110631009Y-106202800D01*
X110631009Y-106202800D02*
X110592914Y-106164704D01*
X110592914Y-106164704D02*
X110573867Y-106126609D01*
X110573867Y-106126609D02*
X110554819Y-106050419D01*
X110554819Y-106050419D02*
X110554819Y-105993276D01*
X110554819Y-105993276D02*
X110573867Y-105917085D01*
X110573867Y-105917085D02*
X110592914Y-105878990D01*
X110592914Y-105878990D02*
X110631009Y-105840895D01*
X110631009Y-105840895D02*
X110688152Y-105821847D01*
X110688152Y-105821847D02*
X110726248Y-105821847D01*
X110726248Y-105821847D02*
X110783390Y-105840895D01*
X110783390Y-105840895D02*
X110802438Y-105859942D01*
X111202438Y-106183752D02*
X111183390Y-106202800D01*
X111183390Y-106202800D02*
X111126248Y-106221847D01*
X111126248Y-106221847D02*
X111088152Y-106221847D01*
X111088152Y-106221847D02*
X111031009Y-106202800D01*
X111031009Y-106202800D02*
X110992914Y-106164704D01*
X110992914Y-106164704D02*
X110973867Y-106126609D01*
X110973867Y-106126609D02*
X110954819Y-106050419D01*
X110954819Y-106050419D02*
X110954819Y-105993276D01*
X110954819Y-105993276D02*
X110973867Y-105917085D01*
X110973867Y-105917085D02*
X110992914Y-105878990D01*
X110992914Y-105878990D02*
X111031009Y-105840895D01*
X111031009Y-105840895D02*
X111088152Y-105821847D01*
X111088152Y-105821847D02*
X111126248Y-105821847D01*
X111126248Y-105821847D02*
X111183390Y-105840895D01*
X111183390Y-105840895D02*
X111202438Y-105859942D01*
D11*
X193133666Y-103156019D02*
X193133666Y-103870304D01*
X193133666Y-103870304D02*
X193086047Y-104013161D01*
X193086047Y-104013161D02*
X192990809Y-104108400D01*
X192990809Y-104108400D02*
X192847952Y-104156019D01*
X192847952Y-104156019D02*
X192752714Y-104156019D01*
X193514619Y-103156019D02*
X194133666Y-103156019D01*
X194133666Y-103156019D02*
X193800333Y-103536971D01*
X193800333Y-103536971D02*
X193943190Y-103536971D01*
X193943190Y-103536971D02*
X194038428Y-103584590D01*
X194038428Y-103584590D02*
X194086047Y-103632209D01*
X194086047Y-103632209D02*
X194133666Y-103727447D01*
X194133666Y-103727447D02*
X194133666Y-103965542D01*
X194133666Y-103965542D02*
X194086047Y-104060780D01*
X194086047Y-104060780D02*
X194038428Y-104108400D01*
X194038428Y-104108400D02*
X193943190Y-104156019D01*
X193943190Y-104156019D02*
X193657476Y-104156019D01*
X193657476Y-104156019D02*
X193562238Y-104108400D01*
X193562238Y-104108400D02*
X193514619Y-104060780D01*
X112157166Y-44132519D02*
X112157166Y-44846804D01*
X112157166Y-44846804D02*
X112109547Y-44989661D01*
X112109547Y-44989661D02*
X112014309Y-45084900D01*
X112014309Y-45084900D02*
X111871452Y-45132519D01*
X111871452Y-45132519D02*
X111776214Y-45132519D01*
X112585738Y-44227757D02*
X112633357Y-44180138D01*
X112633357Y-44180138D02*
X112728595Y-44132519D01*
X112728595Y-44132519D02*
X112966690Y-44132519D01*
X112966690Y-44132519D02*
X113061928Y-44180138D01*
X113061928Y-44180138D02*
X113109547Y-44227757D01*
X113109547Y-44227757D02*
X113157166Y-44322995D01*
X113157166Y-44322995D02*
X113157166Y-44418233D01*
X113157166Y-44418233D02*
X113109547Y-44561090D01*
X113109547Y-44561090D02*
X112538119Y-45132519D01*
X112538119Y-45132519D02*
X113157166Y-45132519D01*
X134075166Y-44132519D02*
X134075166Y-44846804D01*
X134075166Y-44846804D02*
X134027547Y-44989661D01*
X134027547Y-44989661D02*
X133932309Y-45084900D01*
X133932309Y-45084900D02*
X133789452Y-45132519D01*
X133789452Y-45132519D02*
X133694214Y-45132519D01*
X134456119Y-44132519D02*
X135075166Y-44132519D01*
X135075166Y-44132519D02*
X134741833Y-44513471D01*
X134741833Y-44513471D02*
X134884690Y-44513471D01*
X134884690Y-44513471D02*
X134979928Y-44561090D01*
X134979928Y-44561090D02*
X135027547Y-44608709D01*
X135027547Y-44608709D02*
X135075166Y-44703947D01*
X135075166Y-44703947D02*
X135075166Y-44942042D01*
X135075166Y-44942042D02*
X135027547Y-45037280D01*
X135027547Y-45037280D02*
X134979928Y-45084900D01*
X134979928Y-45084900D02*
X134884690Y-45132519D01*
X134884690Y-45132519D02*
X134598976Y-45132519D01*
X134598976Y-45132519D02*
X134503738Y-45084900D01*
X134503738Y-45084900D02*
X134456119Y-45037280D01*
X132685166Y-66857519D02*
X132685166Y-67571804D01*
X132685166Y-67571804D02*
X132637547Y-67714661D01*
X132637547Y-67714661D02*
X132542309Y-67809900D01*
X132542309Y-67809900D02*
X132399452Y-67857519D01*
X132399452Y-67857519D02*
X132304214Y-67857519D01*
X133685166Y-67857519D02*
X133113738Y-67857519D01*
X133399452Y-67857519D02*
X133399452Y-66857519D01*
X133399452Y-66857519D02*
X133304214Y-67000376D01*
X133304214Y-67000376D02*
X133208976Y-67095614D01*
X133208976Y-67095614D02*
X133113738Y-67143233D01*
X182433666Y-121636019D02*
X182433666Y-122350304D01*
X182433666Y-122350304D02*
X182386047Y-122493161D01*
X182386047Y-122493161D02*
X182290809Y-122588400D01*
X182290809Y-122588400D02*
X182147952Y-122636019D01*
X182147952Y-122636019D02*
X182052714Y-122636019D01*
X183433666Y-122636019D02*
X182862238Y-122636019D01*
X183147952Y-122636019D02*
X183147952Y-121636019D01*
X183147952Y-121636019D02*
X183052714Y-121778876D01*
X183052714Y-121778876D02*
X182957476Y-121874114D01*
X182957476Y-121874114D02*
X182862238Y-121921733D01*
X126135642Y-50012280D02*
X126088023Y-50059900D01*
X126088023Y-50059900D02*
X125945166Y-50107519D01*
X125945166Y-50107519D02*
X125849928Y-50107519D01*
X125849928Y-50107519D02*
X125707071Y-50059900D01*
X125707071Y-50059900D02*
X125611833Y-49964661D01*
X125611833Y-49964661D02*
X125564214Y-49869423D01*
X125564214Y-49869423D02*
X125516595Y-49678947D01*
X125516595Y-49678947D02*
X125516595Y-49536090D01*
X125516595Y-49536090D02*
X125564214Y-49345614D01*
X125564214Y-49345614D02*
X125611833Y-49250376D01*
X125611833Y-49250376D02*
X125707071Y-49155138D01*
X125707071Y-49155138D02*
X125849928Y-49107519D01*
X125849928Y-49107519D02*
X125945166Y-49107519D01*
X125945166Y-49107519D02*
X126088023Y-49155138D01*
X126088023Y-49155138D02*
X126135642Y-49202757D01*
X127088023Y-50107519D02*
X126516595Y-50107519D01*
X126802309Y-50107519D02*
X126802309Y-49107519D01*
X126802309Y-49107519D02*
X126707071Y-49250376D01*
X126707071Y-49250376D02*
X126611833Y-49345614D01*
X126611833Y-49345614D02*
X126516595Y-49393233D01*
X127707071Y-49107519D02*
X127802309Y-49107519D01*
X127802309Y-49107519D02*
X127897547Y-49155138D01*
X127897547Y-49155138D02*
X127945166Y-49202757D01*
X127945166Y-49202757D02*
X127992785Y-49297995D01*
X127992785Y-49297995D02*
X128040404Y-49488471D01*
X128040404Y-49488471D02*
X128040404Y-49726566D01*
X128040404Y-49726566D02*
X127992785Y-49917042D01*
X127992785Y-49917042D02*
X127945166Y-50012280D01*
X127945166Y-50012280D02*
X127897547Y-50059900D01*
X127897547Y-50059900D02*
X127802309Y-50107519D01*
X127802309Y-50107519D02*
X127707071Y-50107519D01*
X127707071Y-50107519D02*
X127611833Y-50059900D01*
X127611833Y-50059900D02*
X127564214Y-50012280D01*
X127564214Y-50012280D02*
X127516595Y-49917042D01*
X127516595Y-49917042D02*
X127468976Y-49726566D01*
X127468976Y-49726566D02*
X127468976Y-49488471D01*
X127468976Y-49488471D02*
X127516595Y-49297995D01*
X127516595Y-49297995D02*
X127564214Y-49202757D01*
X127564214Y-49202757D02*
X127611833Y-49155138D01*
X127611833Y-49155138D02*
X127707071Y-49107519D01*
X171473666Y-103156019D02*
X171473666Y-103870304D01*
X171473666Y-103870304D02*
X171426047Y-104013161D01*
X171426047Y-104013161D02*
X171330809Y-104108400D01*
X171330809Y-104108400D02*
X171187952Y-104156019D01*
X171187952Y-104156019D02*
X171092714Y-104156019D01*
X171902238Y-103251257D02*
X171949857Y-103203638D01*
X171949857Y-103203638D02*
X172045095Y-103156019D01*
X172045095Y-103156019D02*
X172283190Y-103156019D01*
X172283190Y-103156019D02*
X172378428Y-103203638D01*
X172378428Y-103203638D02*
X172426047Y-103251257D01*
X172426047Y-103251257D02*
X172473666Y-103346495D01*
X172473666Y-103346495D02*
X172473666Y-103441733D01*
X172473666Y-103441733D02*
X172426047Y-103584590D01*
X172426047Y-103584590D02*
X171854619Y-104156019D01*
X171854619Y-104156019D02*
X172473666Y-104156019D01*
X171463866Y-44066819D02*
X171463866Y-44781104D01*
X171463866Y-44781104D02*
X171416247Y-44923961D01*
X171416247Y-44923961D02*
X171321009Y-45019200D01*
X171321009Y-45019200D02*
X171178152Y-45066819D01*
X171178152Y-45066819D02*
X171082914Y-45066819D01*
X171892438Y-44162057D02*
X171940057Y-44114438D01*
X171940057Y-44114438D02*
X172035295Y-44066819D01*
X172035295Y-44066819D02*
X172273390Y-44066819D01*
X172273390Y-44066819D02*
X172368628Y-44114438D01*
X172368628Y-44114438D02*
X172416247Y-44162057D01*
X172416247Y-44162057D02*
X172463866Y-44257295D01*
X172463866Y-44257295D02*
X172463866Y-44352533D01*
X172463866Y-44352533D02*
X172416247Y-44495390D01*
X172416247Y-44495390D02*
X171844819Y-45066819D01*
X171844819Y-45066819D02*
X172463866Y-45066819D01*
X133923666Y-103396019D02*
X133923666Y-104110304D01*
X133923666Y-104110304D02*
X133876047Y-104253161D01*
X133876047Y-104253161D02*
X133780809Y-104348400D01*
X133780809Y-104348400D02*
X133637952Y-104396019D01*
X133637952Y-104396019D02*
X133542714Y-104396019D01*
X134304619Y-103396019D02*
X134923666Y-103396019D01*
X134923666Y-103396019D02*
X134590333Y-103776971D01*
X134590333Y-103776971D02*
X134733190Y-103776971D01*
X134733190Y-103776971D02*
X134828428Y-103824590D01*
X134828428Y-103824590D02*
X134876047Y-103872209D01*
X134876047Y-103872209D02*
X134923666Y-103967447D01*
X134923666Y-103967447D02*
X134923666Y-104205542D01*
X134923666Y-104205542D02*
X134876047Y-104300780D01*
X134876047Y-104300780D02*
X134828428Y-104348400D01*
X134828428Y-104348400D02*
X134733190Y-104396019D01*
X134733190Y-104396019D02*
X134447476Y-104396019D01*
X134447476Y-104396019D02*
X134352238Y-104348400D01*
X134352238Y-104348400D02*
X134304619Y-104300780D01*
X127051833Y-46537519D02*
X126718500Y-46061328D01*
X126480405Y-46537519D02*
X126480405Y-45537519D01*
X126480405Y-45537519D02*
X126861357Y-45537519D01*
X126861357Y-45537519D02*
X126956595Y-45585138D01*
X126956595Y-45585138D02*
X127004214Y-45632757D01*
X127004214Y-45632757D02*
X127051833Y-45727995D01*
X127051833Y-45727995D02*
X127051833Y-45870852D01*
X127051833Y-45870852D02*
X127004214Y-45966090D01*
X127004214Y-45966090D02*
X126956595Y-46013709D01*
X126956595Y-46013709D02*
X126861357Y-46061328D01*
X126861357Y-46061328D02*
X126480405Y-46061328D01*
X127385167Y-45537519D02*
X128051833Y-45537519D01*
X128051833Y-45537519D02*
X127623262Y-46537519D01*
X123163666Y-121806019D02*
X123163666Y-122520304D01*
X123163666Y-122520304D02*
X123116047Y-122663161D01*
X123116047Y-122663161D02*
X123020809Y-122758400D01*
X123020809Y-122758400D02*
X122877952Y-122806019D01*
X122877952Y-122806019D02*
X122782714Y-122806019D01*
X124163666Y-122806019D02*
X123592238Y-122806019D01*
X123877952Y-122806019D02*
X123877952Y-121806019D01*
X123877952Y-121806019D02*
X123782714Y-121948876D01*
X123782714Y-121948876D02*
X123687476Y-122044114D01*
X123687476Y-122044114D02*
X123592238Y-122091733D01*
X193153866Y-44026819D02*
X193153866Y-44741104D01*
X193153866Y-44741104D02*
X193106247Y-44883961D01*
X193106247Y-44883961D02*
X193011009Y-44979200D01*
X193011009Y-44979200D02*
X192868152Y-45026819D01*
X192868152Y-45026819D02*
X192772914Y-45026819D01*
X193534819Y-44026819D02*
X194153866Y-44026819D01*
X194153866Y-44026819D02*
X193820533Y-44407771D01*
X193820533Y-44407771D02*
X193963390Y-44407771D01*
X193963390Y-44407771D02*
X194058628Y-44455390D01*
X194058628Y-44455390D02*
X194106247Y-44503009D01*
X194106247Y-44503009D02*
X194153866Y-44598247D01*
X194153866Y-44598247D02*
X194153866Y-44836342D01*
X194153866Y-44836342D02*
X194106247Y-44931580D01*
X194106247Y-44931580D02*
X194058628Y-44979200D01*
X194058628Y-44979200D02*
X193963390Y-45026819D01*
X193963390Y-45026819D02*
X193677676Y-45026819D01*
X193677676Y-45026819D02*
X193582438Y-44979200D01*
X193582438Y-44979200D02*
X193534819Y-44931580D01*
X127091833Y-53367519D02*
X126758500Y-52891328D01*
X126520405Y-53367519D02*
X126520405Y-52367519D01*
X126520405Y-52367519D02*
X126901357Y-52367519D01*
X126901357Y-52367519D02*
X126996595Y-52415138D01*
X126996595Y-52415138D02*
X127044214Y-52462757D01*
X127044214Y-52462757D02*
X127091833Y-52557995D01*
X127091833Y-52557995D02*
X127091833Y-52700852D01*
X127091833Y-52700852D02*
X127044214Y-52796090D01*
X127044214Y-52796090D02*
X126996595Y-52843709D01*
X126996595Y-52843709D02*
X126901357Y-52891328D01*
X126901357Y-52891328D02*
X126520405Y-52891328D01*
X127663262Y-52796090D02*
X127568024Y-52748471D01*
X127568024Y-52748471D02*
X127520405Y-52700852D01*
X127520405Y-52700852D02*
X127472786Y-52605614D01*
X127472786Y-52605614D02*
X127472786Y-52557995D01*
X127472786Y-52557995D02*
X127520405Y-52462757D01*
X127520405Y-52462757D02*
X127568024Y-52415138D01*
X127568024Y-52415138D02*
X127663262Y-52367519D01*
X127663262Y-52367519D02*
X127853738Y-52367519D01*
X127853738Y-52367519D02*
X127948976Y-52415138D01*
X127948976Y-52415138D02*
X127996595Y-52462757D01*
X127996595Y-52462757D02*
X128044214Y-52557995D01*
X128044214Y-52557995D02*
X128044214Y-52605614D01*
X128044214Y-52605614D02*
X127996595Y-52700852D01*
X127996595Y-52700852D02*
X127948976Y-52748471D01*
X127948976Y-52748471D02*
X127853738Y-52796090D01*
X127853738Y-52796090D02*
X127663262Y-52796090D01*
X127663262Y-52796090D02*
X127568024Y-52843709D01*
X127568024Y-52843709D02*
X127520405Y-52891328D01*
X127520405Y-52891328D02*
X127472786Y-52986566D01*
X127472786Y-52986566D02*
X127472786Y-53177042D01*
X127472786Y-53177042D02*
X127520405Y-53272280D01*
X127520405Y-53272280D02*
X127568024Y-53319900D01*
X127568024Y-53319900D02*
X127663262Y-53367519D01*
X127663262Y-53367519D02*
X127853738Y-53367519D01*
X127853738Y-53367519D02*
X127948976Y-53319900D01*
X127948976Y-53319900D02*
X127996595Y-53272280D01*
X127996595Y-53272280D02*
X128044214Y-53177042D01*
X128044214Y-53177042D02*
X128044214Y-52986566D01*
X128044214Y-52986566D02*
X127996595Y-52891328D01*
X127996595Y-52891328D02*
X127948976Y-52843709D01*
X127948976Y-52843709D02*
X127853738Y-52796090D01*
X188374866Y-53405819D02*
X188374866Y-54120104D01*
X188374866Y-54120104D02*
X188327247Y-54262961D01*
X188327247Y-54262961D02*
X188232009Y-54358200D01*
X188232009Y-54358200D02*
X188089152Y-54405819D01*
X188089152Y-54405819D02*
X187993914Y-54405819D01*
X189374866Y-54405819D02*
X188803438Y-54405819D01*
X189089152Y-54405819D02*
X189089152Y-53405819D01*
X189089152Y-53405819D02*
X188993914Y-53548676D01*
X188993914Y-53548676D02*
X188898676Y-53643914D01*
X188898676Y-53643914D02*
X188803438Y-53691533D01*
X127081833Y-51787519D02*
X126748500Y-51311328D01*
X126510405Y-51787519D02*
X126510405Y-50787519D01*
X126510405Y-50787519D02*
X126891357Y-50787519D01*
X126891357Y-50787519D02*
X126986595Y-50835138D01*
X126986595Y-50835138D02*
X127034214Y-50882757D01*
X127034214Y-50882757D02*
X127081833Y-50977995D01*
X127081833Y-50977995D02*
X127081833Y-51120852D01*
X127081833Y-51120852D02*
X127034214Y-51216090D01*
X127034214Y-51216090D02*
X126986595Y-51263709D01*
X126986595Y-51263709D02*
X126891357Y-51311328D01*
X126891357Y-51311328D02*
X126510405Y-51311328D01*
X127558024Y-51787519D02*
X127748500Y-51787519D01*
X127748500Y-51787519D02*
X127843738Y-51739900D01*
X127843738Y-51739900D02*
X127891357Y-51692280D01*
X127891357Y-51692280D02*
X127986595Y-51549423D01*
X127986595Y-51549423D02*
X128034214Y-51358947D01*
X128034214Y-51358947D02*
X128034214Y-50977995D01*
X128034214Y-50977995D02*
X127986595Y-50882757D01*
X127986595Y-50882757D02*
X127938976Y-50835138D01*
X127938976Y-50835138D02*
X127843738Y-50787519D01*
X127843738Y-50787519D02*
X127653262Y-50787519D01*
X127653262Y-50787519D02*
X127558024Y-50835138D01*
X127558024Y-50835138D02*
X127510405Y-50882757D01*
X127510405Y-50882757D02*
X127462786Y-50977995D01*
X127462786Y-50977995D02*
X127462786Y-51216090D01*
X127462786Y-51216090D02*
X127510405Y-51311328D01*
X127510405Y-51311328D02*
X127558024Y-51358947D01*
X127558024Y-51358947D02*
X127653262Y-51406566D01*
X127653262Y-51406566D02*
X127843738Y-51406566D01*
X127843738Y-51406566D02*
X127938976Y-51358947D01*
X127938976Y-51358947D02*
X127986595Y-51311328D01*
X127986595Y-51311328D02*
X128034214Y-51216090D01*
X112203666Y-103386019D02*
X112203666Y-104100304D01*
X112203666Y-104100304D02*
X112156047Y-104243161D01*
X112156047Y-104243161D02*
X112060809Y-104338400D01*
X112060809Y-104338400D02*
X111917952Y-104386019D01*
X111917952Y-104386019D02*
X111822714Y-104386019D01*
X112632238Y-103481257D02*
X112679857Y-103433638D01*
X112679857Y-103433638D02*
X112775095Y-103386019D01*
X112775095Y-103386019D02*
X113013190Y-103386019D01*
X113013190Y-103386019D02*
X113108428Y-103433638D01*
X113108428Y-103433638D02*
X113156047Y-103481257D01*
X113156047Y-103481257D02*
X113203666Y-103576495D01*
X113203666Y-103576495D02*
X113203666Y-103671733D01*
X113203666Y-103671733D02*
X113156047Y-103814590D01*
X113156047Y-103814590D02*
X112584619Y-104386019D01*
X112584619Y-104386019D02*
X113203666Y-104386019D01*
X127101833Y-48137519D02*
X126768500Y-47661328D01*
X126530405Y-48137519D02*
X126530405Y-47137519D01*
X126530405Y-47137519D02*
X126911357Y-47137519D01*
X126911357Y-47137519D02*
X127006595Y-47185138D01*
X127006595Y-47185138D02*
X127054214Y-47232757D01*
X127054214Y-47232757D02*
X127101833Y-47327995D01*
X127101833Y-47327995D02*
X127101833Y-47470852D01*
X127101833Y-47470852D02*
X127054214Y-47566090D01*
X127054214Y-47566090D02*
X127006595Y-47613709D01*
X127006595Y-47613709D02*
X126911357Y-47661328D01*
X126911357Y-47661328D02*
X126530405Y-47661328D01*
X127958976Y-47137519D02*
X127768500Y-47137519D01*
X127768500Y-47137519D02*
X127673262Y-47185138D01*
X127673262Y-47185138D02*
X127625643Y-47232757D01*
X127625643Y-47232757D02*
X127530405Y-47375614D01*
X127530405Y-47375614D02*
X127482786Y-47566090D01*
X127482786Y-47566090D02*
X127482786Y-47947042D01*
X127482786Y-47947042D02*
X127530405Y-48042280D01*
X127530405Y-48042280D02*
X127578024Y-48089900D01*
X127578024Y-48089900D02*
X127673262Y-48137519D01*
X127673262Y-48137519D02*
X127863738Y-48137519D01*
X127863738Y-48137519D02*
X127958976Y-48089900D01*
X127958976Y-48089900D02*
X128006595Y-48042280D01*
X128006595Y-48042280D02*
X128054214Y-47947042D01*
X128054214Y-47947042D02*
X128054214Y-47708947D01*
X128054214Y-47708947D02*
X128006595Y-47613709D01*
X128006595Y-47613709D02*
X127958976Y-47566090D01*
X127958976Y-47566090D02*
X127863738Y-47518471D01*
X127863738Y-47518471D02*
X127673262Y-47518471D01*
X127673262Y-47518471D02*
X127578024Y-47566090D01*
X127578024Y-47566090D02*
X127530405Y-47613709D01*
X127530405Y-47613709D02*
X127482786Y-47708947D01*
D12*
X192717000Y-106901200D02*
X192717000Y-124961200D01*
X192717000Y-106901200D02*
X194837000Y-106901200D01*
X192717000Y-124961200D02*
X194837000Y-124961200D01*
X193777000Y-104841200D02*
X194837000Y-104841200D01*
X194837000Y-104841200D02*
X194837000Y-105901200D01*
X194837000Y-106901200D02*
X194837000Y-124961200D01*
D11*
X123527000Y-104561200D02*
X123527000Y-103461200D01*
X123527000Y-103461200D02*
X123177000Y-103861200D01*
X123527000Y-103461200D02*
X123877000Y-103861200D01*
X123606057Y-105261200D02*
G75*
G03*
X123606057Y-105261200I-79057J0D01*
G01*
X124227446Y-105261200D02*
G75*
G03*
X124227446Y-105261200I-700446J0D01*
G01*
D12*
X111430500Y-47777700D02*
X111430500Y-65837700D01*
X111430500Y-47777700D02*
X113550500Y-47777700D01*
X111430500Y-65837700D02*
X113550500Y-65837700D01*
X112490500Y-45717700D02*
X113550500Y-45717700D01*
X113550500Y-45717700D02*
X113550500Y-46777700D01*
X113550500Y-47777700D02*
X113550500Y-65837700D01*
X133430500Y-47777700D02*
X133430500Y-65837700D01*
X133430500Y-47777700D02*
X135550500Y-47777700D01*
X133430500Y-65837700D02*
X135550500Y-65837700D01*
X134490500Y-45717700D02*
X135550500Y-45717700D01*
X135550500Y-45717700D02*
X135550500Y-46777700D01*
X135550500Y-47777700D02*
X135550500Y-65837700D01*
X132488500Y-63762700D02*
X131988500Y-63262700D01*
X132488500Y-62762700D02*
X132488500Y-63762700D01*
X131988500Y-63262700D02*
X132488500Y-62762700D01*
X131793500Y-70672700D02*
X131793500Y-63062700D01*
X131793500Y-70672700D02*
X115063500Y-70672700D01*
X131793500Y-54702700D02*
X131793500Y-60262700D01*
X131793500Y-54702700D02*
X115063500Y-54702700D01*
X115063500Y-70672700D02*
X115063500Y-63062700D01*
X115063500Y-54702700D02*
X115063500Y-60262700D01*
X177417000Y-115831200D02*
X177417000Y-117081200D01*
X177717000Y-116131200D02*
X177717000Y-120851200D01*
X177717000Y-117441200D02*
X178327000Y-117441200D01*
X177717000Y-118741200D02*
X178327000Y-118741200D01*
X177717000Y-120851200D02*
X187837000Y-120851200D01*
X178327000Y-116741200D02*
X178327000Y-120241200D01*
X178327000Y-120241200D02*
X187227000Y-120241200D01*
X178667000Y-115831200D02*
X177417000Y-115831200D01*
X179177000Y-115931200D02*
X179177000Y-116131200D01*
X179477000Y-115931200D02*
X179177000Y-115931200D01*
X179477000Y-116031200D02*
X179177000Y-116031200D01*
X179477000Y-116131200D02*
X179477000Y-115931200D01*
X180277000Y-116131200D02*
X180277000Y-116741200D01*
X180277000Y-116741200D02*
X178327000Y-116741200D01*
X180677000Y-119741200D02*
X180877000Y-119741200D01*
X180677000Y-120241200D02*
X180677000Y-119741200D01*
X180777000Y-120241200D02*
X180777000Y-119741200D01*
X180877000Y-119741200D02*
X180877000Y-120241200D01*
X182677000Y-119741200D02*
X182877000Y-119741200D01*
X182677000Y-120241200D02*
X182677000Y-119741200D01*
X182777000Y-120241200D02*
X182777000Y-119741200D01*
X182877000Y-119741200D02*
X182877000Y-120241200D01*
X184677000Y-119741200D02*
X184877000Y-119741200D01*
X184677000Y-120241200D02*
X184677000Y-119741200D01*
X184777000Y-120241200D02*
X184777000Y-119741200D01*
X184877000Y-119741200D02*
X184877000Y-120241200D01*
X185277000Y-116741200D02*
X185277000Y-116131200D01*
X187227000Y-116741200D02*
X185277000Y-116741200D01*
X187227000Y-120241200D02*
X187227000Y-116741200D01*
X187837000Y-116131200D02*
X177717000Y-116131200D01*
X187837000Y-117441200D02*
X187227000Y-117441200D01*
X187837000Y-118741200D02*
X187227000Y-118741200D01*
X187837000Y-120851200D02*
X187837000Y-116131200D01*
X128341000Y-48867700D02*
X128341000Y-50437700D01*
X128341000Y-50437700D02*
X130651000Y-50437700D01*
X130651000Y-48867700D02*
X128341000Y-48867700D01*
X170747000Y-106911200D02*
X170747000Y-124971200D01*
X170747000Y-106911200D02*
X172867000Y-106911200D01*
X170747000Y-124971200D02*
X172867000Y-124971200D01*
X171807000Y-104851200D02*
X172867000Y-104851200D01*
X172867000Y-104851200D02*
X172867000Y-105911200D01*
X172867000Y-106911200D02*
X172867000Y-124971200D01*
X170740800Y-47772200D02*
X170740800Y-65832200D01*
X170740800Y-47772200D02*
X172860800Y-47772200D01*
X170740800Y-65832200D02*
X172860800Y-65832200D01*
X171800800Y-45712200D02*
X172860800Y-45712200D01*
X172860800Y-45712200D02*
X172860800Y-46772200D01*
X172860800Y-47772200D02*
X172860800Y-65832200D01*
X133457000Y-107061200D02*
X133457000Y-125121200D01*
X133457000Y-107061200D02*
X135577000Y-107061200D01*
X133457000Y-125121200D02*
X135577000Y-125121200D01*
X134517000Y-105001200D02*
X135577000Y-105001200D01*
X135577000Y-105001200D02*
X135577000Y-106061200D01*
X135577000Y-107061200D02*
X135577000Y-125121200D01*
X129601242Y-45560200D02*
X130075758Y-45560200D01*
X129601242Y-46605200D02*
X130075758Y-46605200D01*
X119147000Y-115981200D02*
X119147000Y-117231200D01*
X119447000Y-116281200D02*
X119447000Y-121001200D01*
X119447000Y-117591200D02*
X120057000Y-117591200D01*
X119447000Y-118891200D02*
X120057000Y-118891200D01*
X119447000Y-121001200D02*
X127567000Y-121001200D01*
X120057000Y-116891200D02*
X120057000Y-120391200D01*
X120057000Y-120391200D02*
X126957000Y-120391200D01*
X120397000Y-115981200D02*
X119147000Y-115981200D01*
X120907000Y-116081200D02*
X120907000Y-116281200D01*
X121207000Y-116081200D02*
X120907000Y-116081200D01*
X121207000Y-116181200D02*
X120907000Y-116181200D01*
X121207000Y-116281200D02*
X121207000Y-116081200D01*
X122007000Y-116281200D02*
X122007000Y-116891200D01*
X122007000Y-116891200D02*
X120057000Y-116891200D01*
X122407000Y-119891200D02*
X122607000Y-119891200D01*
X122407000Y-120391200D02*
X122407000Y-119891200D01*
X122507000Y-120391200D02*
X122507000Y-119891200D01*
X122607000Y-119891200D02*
X122607000Y-120391200D01*
X124407000Y-119891200D02*
X124607000Y-119891200D01*
X124407000Y-120391200D02*
X124407000Y-119891200D01*
X124507000Y-120391200D02*
X124507000Y-119891200D01*
X124607000Y-119891200D02*
X124607000Y-120391200D01*
X125007000Y-116891200D02*
X125007000Y-116281200D01*
X126957000Y-116891200D02*
X125007000Y-116891200D01*
X126957000Y-120391200D02*
X126957000Y-116891200D01*
X127567000Y-116281200D02*
X119447000Y-116281200D01*
X127567000Y-117591200D02*
X126957000Y-117591200D01*
X127567000Y-118891200D02*
X126957000Y-118891200D01*
X127567000Y-121001200D02*
X127567000Y-116281200D01*
X192728200Y-47782600D02*
X192728200Y-65842600D01*
X192728200Y-47782600D02*
X194848200Y-47782600D01*
X192728200Y-65842600D02*
X194848200Y-65842600D01*
X193788200Y-45722600D02*
X194848200Y-45722600D01*
X194848200Y-45722600D02*
X194848200Y-46782600D01*
X194848200Y-47782600D02*
X194848200Y-65842600D01*
D11*
X182797000Y-45271200D02*
X182797000Y-44171200D01*
X182797000Y-44171200D02*
X182447000Y-44571200D01*
X182797000Y-44171200D02*
X183147000Y-44571200D01*
X182876057Y-45971200D02*
G75*
G03*
X182876057Y-45971200I-79057J0D01*
G01*
X183497446Y-45971200D02*
G75*
G03*
X183497446Y-45971200I-700446J0D01*
G01*
D12*
X129591242Y-52390200D02*
X130065758Y-52390200D01*
X129591242Y-53435200D02*
X130065758Y-53435200D01*
X175360000Y-68868000D02*
X175360000Y-69388000D01*
X175360000Y-69388000D02*
X190220000Y-69388000D01*
X176130000Y-55168000D02*
X176130000Y-57238000D01*
X176130000Y-55168000D02*
X178440000Y-55168000D01*
X176130000Y-68868000D02*
X175360000Y-68868000D01*
X176130000Y-68868000D02*
X176130000Y-60758000D01*
X178440000Y-53878000D02*
X178440000Y-55168000D01*
X180120000Y-55178000D02*
X180940000Y-55178000D01*
X182620000Y-55178000D02*
X182960000Y-55178000D01*
X184640000Y-55178000D02*
X185460000Y-55178000D01*
X187140000Y-55168000D02*
X189450000Y-55168000D01*
X189450000Y-55168000D02*
X189450000Y-57238000D01*
X189450000Y-60758000D02*
X189450000Y-68868000D01*
X190220000Y-68868000D02*
X189450000Y-68868000D01*
X190220000Y-69388000D02*
X190220000Y-68868000D01*
X129591242Y-50810200D02*
X130065758Y-50810200D01*
X129591242Y-51855200D02*
X130065758Y-51855200D01*
D11*
X182797000Y-104411200D02*
X182797000Y-103311200D01*
X182797000Y-103311200D02*
X182447000Y-103711200D01*
X182797000Y-103311200D02*
X183147000Y-103711200D01*
X182876057Y-105111200D02*
G75*
G03*
X182876057Y-105111200I-79057J0D01*
G01*
X183497446Y-105111200D02*
G75*
G03*
X183497446Y-105111200I-700446J0D01*
G01*
D12*
X111470800Y-107062200D02*
X111470800Y-125122200D01*
X111470800Y-107062200D02*
X113590800Y-107062200D01*
X111470800Y-125122200D02*
X113590800Y-125122200D01*
X112530800Y-105002200D02*
X113590800Y-105002200D01*
X113590800Y-105002200D02*
X113590800Y-106062200D01*
X113590800Y-107062200D02*
X113590800Y-125122200D01*
X129601242Y-47160200D02*
X130075758Y-47160200D01*
X129601242Y-48205200D02*
X130075758Y-48205200D01*
%LPC*%
D13*
X193777000Y-105901200D03*
D14*
X193777000Y-107901200D03*
X193777000Y-109901200D03*
X193777000Y-111901200D03*
X193777000Y-113901200D03*
X193777000Y-115901200D03*
X193777000Y-117901200D03*
X193777000Y-119901200D03*
X193777000Y-121901200D03*
X193777000Y-123901200D03*
D13*
X112490500Y-46777700D03*
D14*
X112490500Y-48777700D03*
X112490500Y-50777700D03*
X112490500Y-52777700D03*
X112490500Y-54777700D03*
X112490500Y-56777700D03*
X112490500Y-58777700D03*
X112490500Y-60777700D03*
X112490500Y-62777700D03*
X112490500Y-64777700D03*
D13*
X134490500Y-46777700D03*
D14*
X134490500Y-48777700D03*
X134490500Y-50777700D03*
X134490500Y-52777700D03*
X134490500Y-54777700D03*
X134490500Y-56777700D03*
X134490500Y-58777700D03*
X134490500Y-60777700D03*
X134490500Y-62777700D03*
X134490500Y-64777700D03*
D15*
X129778500Y-65102700D03*
X117078500Y-65102700D03*
D16*
X126988500Y-62562700D03*
D17*
X125972500Y-60782700D03*
X124956500Y-62562700D03*
X123940500Y-60782700D03*
X122924500Y-62562700D03*
X121908500Y-60782700D03*
X120892500Y-62562700D03*
X119876500Y-60782700D03*
X130288500Y-55962700D03*
X127998500Y-55962700D03*
X118858500Y-55962700D03*
X116568500Y-55962700D03*
D18*
X131558500Y-61672700D03*
X115298500Y-61672700D03*
D19*
X179777000Y-117941200D03*
D20*
X181777000Y-117941200D03*
X183777000Y-117941200D03*
X185777000Y-117941200D03*
D21*
X129138500Y-49652700D03*
X130563500Y-49652700D03*
D13*
X171807000Y-105911200D03*
D14*
X171807000Y-107911200D03*
X171807000Y-109911200D03*
X171807000Y-111911200D03*
X171807000Y-113911200D03*
X171807000Y-115911200D03*
X171807000Y-117911200D03*
X171807000Y-119911200D03*
X171807000Y-121911200D03*
X171807000Y-123911200D03*
D13*
X171800800Y-46772200D03*
D14*
X171800800Y-48772200D03*
X171800800Y-50772200D03*
X171800800Y-52772200D03*
X171800800Y-54772200D03*
X171800800Y-56772200D03*
X171800800Y-58772200D03*
X171800800Y-60772200D03*
X171800800Y-62772200D03*
X171800800Y-64772200D03*
D13*
X134517000Y-106061200D03*
D14*
X134517000Y-108061200D03*
X134517000Y-110061200D03*
X134517000Y-112061200D03*
X134517000Y-114061200D03*
X134517000Y-116061200D03*
X134517000Y-118061200D03*
X134517000Y-120061200D03*
X134517000Y-122061200D03*
X134517000Y-124061200D03*
D22*
X129013500Y-46082700D03*
X130663500Y-46082700D03*
D19*
X121507000Y-118091200D03*
D20*
X123507000Y-118091200D03*
X125507000Y-118091200D03*
D13*
X193788200Y-46782600D03*
D14*
X193788200Y-48782600D03*
X193788200Y-50782600D03*
X193788200Y-52782600D03*
X193788200Y-54782600D03*
X193788200Y-56782600D03*
X193788200Y-58782600D03*
X193788200Y-60782600D03*
X193788200Y-62782600D03*
X193788200Y-64782600D03*
D22*
X129003500Y-52912700D03*
X130653500Y-52912700D03*
D23*
X179290000Y-55318000D03*
X181790000Y-55318000D03*
X183790000Y-55318000D03*
X186290000Y-55318000D03*
D24*
X176220000Y-58998000D03*
X189360000Y-58998000D03*
D22*
X129003500Y-51332700D03*
X130653500Y-51332700D03*
D13*
X112530800Y-106062200D03*
D14*
X112530800Y-108062200D03*
X112530800Y-110062200D03*
X112530800Y-112062200D03*
X112530800Y-114062200D03*
X112530800Y-116062200D03*
X112530800Y-118062200D03*
X112530800Y-120062200D03*
X112530800Y-122062200D03*
X112530800Y-124062200D03*
D22*
X129013500Y-47682700D03*
X130663500Y-47682700D03*
%LPD*%
M02*
