G04 #@! TF.GenerationSoftware,KiCad,Pcbnew,7.0.7*
G04 #@! TF.CreationDate,2023-10-04T16:42:28-06:00*
G04 #@! TF.ProjectId,Modular_Interfaces,4d6f6475-6c61-4725-9f49-6e7465726661,rev?*
G04 #@! TF.SameCoordinates,Original*
G04 #@! TF.FileFunction,Profile,NP*
%FSLAX46Y46*%
G04 Gerber Fmt 4.6, Leading zero omitted, Abs format (unit mm)*
G04 Created by KiCad (PCBNEW 7.0.7) date 2023-10-04 16:42:28*
%MOMM*%
%LPD*%
G01*
G04 APERTURE LIST*
G04 #@! TA.AperFunction,Profile*
%ADD10C,0.150000*%
G04 #@! TD*
G04 #@! TA.AperFunction,Profile*
%ADD11C,0.200000*%
G04 #@! TD*
G04 APERTURE END LIST*
D10*
X139913222Y-113993076D02*
X139971962Y-114073989D01*
X108524830Y-116811199D02*
X108624746Y-116814770D01*
X140239817Y-55728812D02*
X140239754Y-55828799D01*
X167024574Y-113340894D02*
X166936152Y-113387572D01*
X199240713Y-115900237D02*
X199181871Y-115981076D01*
X106783519Y-115212118D02*
X106794984Y-115311445D01*
X166166734Y-56407388D02*
X166205729Y-56499456D01*
X106934810Y-114334955D02*
X106895931Y-114427073D01*
X139780831Y-116282023D02*
X139709061Y-116351639D01*
X137140500Y-65727700D02*
X136390500Y-66477700D01*
X109367809Y-117082702D02*
X109447012Y-117143717D01*
X140259016Y-115311445D02*
X140241897Y-115409955D01*
X107999398Y-57457378D02*
X108096128Y-57482685D01*
X108488330Y-57527699D02*
X108588246Y-57531270D01*
X197725807Y-54019456D02*
X197797000Y-54021200D01*
D11*
X199147000Y-114911200D02*
G75*
G03*
X199147000Y-114911200I-1350000J0D01*
G01*
D10*
X109891789Y-112359596D02*
X109854017Y-112452167D01*
X167303775Y-54092144D02*
X167208686Y-54123053D01*
X166850540Y-113439223D02*
X166768018Y-113495680D01*
X196876988Y-116993717D02*
X196802178Y-117060046D01*
X198476444Y-57383917D02*
X198383230Y-57420089D01*
X139849957Y-113915649D02*
X139913222Y-113993076D01*
X138887026Y-54073215D02*
X138983725Y-54098644D01*
X139635146Y-113706757D02*
X139710691Y-113772256D01*
X106834820Y-115507327D02*
X106863061Y-115603242D01*
X168912450Y-53500151D02*
X168845688Y-53574576D01*
X199529331Y-55523144D02*
X199540670Y-55622485D01*
X107204043Y-113915649D02*
X107140778Y-113993076D01*
X196564130Y-112478444D02*
X196620059Y-112561317D01*
X107940770Y-116710089D02*
X108035898Y-116740878D01*
X198093353Y-57495925D02*
X197994367Y-57510035D01*
X138884872Y-57482685D02*
X138786853Y-57502425D01*
X199460939Y-56313242D02*
X199427266Y-56407388D01*
X199427266Y-56407388D02*
X199388271Y-56499456D01*
X169079974Y-53251924D02*
X169029870Y-53338444D01*
X107629652Y-54254072D02*
X107544040Y-54305723D01*
X167894746Y-57524770D02*
X167994179Y-57535217D01*
X106943418Y-56595648D02*
X106992658Y-56682670D01*
X199546254Y-55822299D02*
X199540481Y-55922118D01*
X137350059Y-112711317D02*
X137411550Y-112790151D01*
X138823353Y-116785925D02*
X138724367Y-116800035D01*
X137125711Y-53076096D02*
X137163483Y-53168667D01*
X166475492Y-56918422D02*
X166543169Y-56992023D01*
X107140778Y-113993076D02*
X107082038Y-114073989D01*
X168189708Y-116716512D02*
X168284874Y-116747163D01*
X199345114Y-54955208D02*
X199389190Y-55044955D01*
X108130474Y-113356715D02*
X108033775Y-113382144D01*
X109591884Y-117281372D02*
X109656863Y-117357357D01*
X137199983Y-112452167D02*
X137244026Y-112541924D01*
X107756560Y-116632481D02*
X107847556Y-116673917D01*
X169897000Y-45071200D02*
X171797000Y-43171200D01*
X137244026Y-112541924D02*
X137294130Y-112628444D01*
X198903433Y-116267042D02*
X198824192Y-116328019D01*
X138529170Y-116811199D02*
X138429254Y-116814770D01*
X197797000Y-113161200D02*
X197896946Y-113164056D01*
X198288102Y-116590878D02*
X198191372Y-116616185D01*
X196432211Y-112209596D02*
X196469983Y-112302167D01*
X138159796Y-113264084D02*
X138257348Y-113285985D01*
X137819751Y-57694243D02*
X137732911Y-57743789D01*
X106794669Y-114813144D02*
X106783330Y-114912485D01*
X109773474Y-53258424D02*
X109723370Y-53344944D01*
X109667441Y-53427817D02*
X109605950Y-53506651D01*
X198825982Y-113495680D02*
X198905146Y-113556757D01*
X166104820Y-56217327D02*
X166133061Y-56313242D01*
X168697639Y-112848809D02*
X168617051Y-112907983D01*
D11*
X139840500Y-55777700D02*
G75*
G03*
X139840500Y-55777700I-1350000J0D01*
G01*
D10*
X167994179Y-116675217D02*
X168092656Y-116692492D01*
X197149351Y-53869051D02*
X197240350Y-53910466D01*
X197725807Y-113159456D02*
X197797000Y-113161200D01*
X197309126Y-116747163D02*
X197216299Y-116784298D01*
X107046787Y-56766737D02*
X107105629Y-56847576D01*
X193797000Y-102311200D02*
X191997000Y-102311200D01*
X169079974Y-112391924D02*
X169029870Y-112478444D01*
X193797000Y-127511200D02*
X171797000Y-127511200D01*
X198979061Y-57061639D02*
X198903433Y-57127042D01*
X138039126Y-116897163D02*
X137946299Y-116934298D01*
X168284874Y-57607163D02*
X168377701Y-57644298D01*
X198095533Y-54046851D02*
X198193526Y-54066715D01*
X139674191Y-54488756D02*
X139745873Y-54558463D01*
X199119957Y-54625649D02*
X199183222Y-54703076D01*
X166688854Y-113556757D02*
X166613309Y-113622256D01*
X140024842Y-115966170D02*
X139970713Y-116050237D01*
X139206444Y-116673917D02*
X139113230Y-116710089D01*
X167994179Y-57535217D02*
X168092656Y-57552492D01*
X140158069Y-114427073D02*
X140191622Y-114521262D01*
X140190939Y-115603242D02*
X140157266Y-115697388D01*
X106777683Y-115012312D02*
X106777746Y-115112299D01*
X108953521Y-53952033D02*
X108857704Y-53980584D01*
X138983725Y-54098644D02*
X139078814Y-54129553D01*
X169147000Y-65721200D02*
X169897000Y-66471200D01*
X171797000Y-43171200D02*
X191997000Y-43171200D01*
X196802178Y-117060046D02*
X196732116Y-117131372D01*
X199388271Y-115639456D02*
X199344082Y-115729148D01*
X140191622Y-114521262D02*
X140219742Y-114617212D01*
X138097792Y-57583012D02*
X138002626Y-57613663D01*
X168861884Y-57991372D02*
X168926863Y-58067357D01*
X169897000Y-125611200D02*
X171797000Y-127511200D01*
X106741183Y-55728812D02*
X106741246Y-55828799D01*
X108427054Y-113314056D02*
X108327435Y-113322616D01*
X139744331Y-56998523D02*
X139672561Y-57068139D01*
X199540670Y-55622485D02*
X199546317Y-55722312D01*
X166690567Y-57127042D02*
X166769808Y-57188019D01*
X198478482Y-54159343D02*
X198569426Y-54200894D01*
X140222516Y-56027945D02*
X140205397Y-56126455D01*
X137495678Y-57926546D02*
X137425616Y-57997872D01*
X197799170Y-116661199D02*
X197799170Y-116661199D01*
X109174649Y-113159051D02*
X109083650Y-113200466D01*
X196463821Y-117550359D02*
X196447000Y-124861200D01*
X167597435Y-113172616D02*
X167498467Y-113186851D01*
X168066652Y-113135985D02*
X167967826Y-113151133D01*
X199546317Y-55722312D02*
X199546254Y-55822299D01*
X139387848Y-113537572D02*
X139473460Y-113589223D01*
X139018102Y-116740878D02*
X138921372Y-116766185D01*
X108978374Y-57613663D02*
X109071201Y-57650798D01*
X196748312Y-53574576D02*
X196820028Y-53644238D01*
X168444649Y-53869051D02*
X168353650Y-53910466D01*
X198567440Y-57342481D02*
X198476444Y-57383917D01*
X136427000Y-104361200D02*
X134527000Y-102461200D01*
X198979061Y-116201639D02*
X198903433Y-116267042D01*
X199546317Y-114862312D02*
X199546254Y-114962299D01*
X196667137Y-117207357D02*
X196607547Y-117287638D01*
X168637809Y-57792702D02*
X168717012Y-57853717D01*
X195697000Y-45071200D02*
X193797000Y-43171200D01*
X137157321Y-58416859D02*
X137140500Y-65727700D01*
X196976949Y-53767983D02*
X197061412Y-53821481D01*
X169161789Y-112209596D02*
X169147000Y-104961200D01*
X166298015Y-114008124D02*
X166248886Y-114095208D01*
X137235647Y-117609548D02*
X137193821Y-117700359D01*
X166047746Y-114962299D02*
X166053519Y-115062118D01*
X137313559Y-53427817D02*
X137375050Y-53506651D01*
X197699254Y-116664770D02*
X197599821Y-116675217D01*
X199540481Y-115062118D02*
X199529016Y-115161445D01*
X167967826Y-113151133D02*
X167868193Y-113159456D01*
X166047683Y-114862312D02*
X166047746Y-114962299D01*
X107104278Y-54709576D02*
X107045538Y-54790489D01*
X106862378Y-114521262D02*
X106834258Y-114617212D01*
X109840500Y-45827700D02*
X110590500Y-45077700D01*
X139988342Y-56682670D02*
X139934213Y-56766737D01*
X139349422Y-57302415D02*
X139260940Y-57348981D01*
X166936152Y-54247572D02*
X166850540Y-54299223D01*
X107754574Y-113490894D02*
X107666152Y-113537572D01*
X108919708Y-116866512D02*
X109014874Y-116897163D01*
X137257630Y-53344944D02*
X137313559Y-53427817D01*
X140157266Y-115697388D02*
X140118271Y-115789456D01*
X168467749Y-116827743D02*
X168554589Y-116877289D01*
X197039411Y-116877289D02*
X196956191Y-116932702D01*
X166053519Y-55922118D02*
X166064984Y-56021445D01*
X106775603Y-56126455D02*
X106798320Y-56223827D01*
X107720060Y-57348981D02*
X107811056Y-57390417D01*
X167699263Y-57518469D02*
X167794830Y-57521199D01*
X140119190Y-114334955D02*
X140158069Y-114427073D01*
X106859431Y-55143573D02*
X106825878Y-55237762D01*
X197894737Y-116658469D02*
X197799170Y-116661199D01*
X197061412Y-112961481D02*
X197149351Y-113009051D01*
X198824192Y-57188019D02*
X198741599Y-57244372D01*
X137686191Y-117082702D02*
X137606988Y-117143717D01*
X199241962Y-54783989D02*
X199295985Y-54868124D01*
X108786156Y-57558992D02*
X108883208Y-57583012D01*
X106898310Y-55051455D02*
X106859431Y-55143573D01*
X167699263Y-116658469D02*
X167794830Y-116661199D01*
X198567440Y-116482481D02*
X198476444Y-116523917D01*
X108228467Y-113336851D02*
X108130474Y-113356715D01*
X196820028Y-53644238D02*
X196896361Y-53708809D01*
X140082690Y-55051455D02*
X140121569Y-55143573D01*
X199461622Y-114371262D02*
X199489742Y-114467212D01*
X168861884Y-117131372D02*
X168926863Y-117207357D01*
X166064669Y-55523144D02*
X166053330Y-55622485D01*
X138626946Y-113314056D02*
X138726565Y-113322616D01*
X109107701Y-116934298D02*
X109197749Y-116977743D01*
X196956191Y-116932702D02*
X196876988Y-116993717D01*
X139971962Y-114073989D02*
X140025985Y-114158124D01*
X199489742Y-55327212D02*
X199512336Y-55424613D01*
X140205836Y-55431113D02*
X140222831Y-55529644D01*
X168773972Y-53644238D02*
X168697639Y-53708809D01*
X166133061Y-56313242D02*
X166166734Y-56407388D01*
X166543169Y-56992023D02*
X166614939Y-57061639D01*
X138590446Y-54030556D02*
X138690065Y-54039116D01*
X108390554Y-54030556D02*
X108290935Y-54039116D01*
X166541627Y-113691963D02*
X166474043Y-113765649D01*
X168189708Y-57576512D02*
X168284874Y-57607163D01*
X196463821Y-58410359D02*
X196447000Y-65721200D01*
X109427639Y-112998809D02*
X109347051Y-113057983D01*
X107306809Y-54488756D02*
X107235127Y-54558463D01*
X166410778Y-54703076D02*
X166352038Y-54783989D01*
X138257348Y-113285985D02*
X138356174Y-113301133D01*
X169130179Y-58410359D02*
X169147000Y-65721200D01*
X198290225Y-54092144D02*
X198385314Y-54123053D01*
X198743460Y-113439223D02*
X198825982Y-113495680D01*
X198657848Y-113387572D02*
X198743460Y-113439223D01*
X107028015Y-114158124D02*
X106978886Y-114245208D01*
X198191372Y-57476185D02*
X198093353Y-57495925D01*
X139709061Y-116351639D02*
X139633433Y-116417042D01*
X109642450Y-112790151D02*
X109575688Y-112864576D01*
X107631578Y-57302415D02*
X107720060Y-57348981D01*
X197799170Y-57521199D02*
X197699254Y-57524770D01*
X167697054Y-113164056D02*
X167597435Y-113172616D01*
X139555982Y-113645680D02*
X139635146Y-113706757D01*
X199546254Y-114962299D02*
X199540481Y-115062118D01*
X110627000Y-104361200D02*
X112527000Y-102461200D01*
X107168992Y-56924922D02*
X107236669Y-56998523D01*
X167599633Y-116650035D02*
X167699263Y-116658469D01*
X166412129Y-56841076D02*
X166475492Y-56918422D01*
X139297440Y-116632481D02*
X139206444Y-116673917D01*
X197216299Y-116784298D02*
X197126251Y-116827743D01*
X108329633Y-116800035D02*
X108429263Y-116808469D01*
X138356174Y-113301133D02*
X138455807Y-113309456D01*
X166082103Y-115259955D02*
X166104820Y-115357327D01*
X106746830Y-55628985D02*
X106741183Y-55728812D01*
X196607547Y-117287638D02*
X196553632Y-117371836D01*
X166132378Y-55231262D02*
X166104258Y-55327212D01*
X109823679Y-58416859D02*
X109840500Y-65727700D01*
X137177000Y-105111200D02*
X136427000Y-104361200D01*
X110627000Y-125761200D02*
X112527000Y-127661200D01*
X198741599Y-57244372D02*
X198655922Y-57295915D01*
X108392763Y-57524969D02*
X108488330Y-57527699D01*
X109083650Y-113200466D02*
X108990021Y-113235533D01*
X166166734Y-115547388D02*
X166205729Y-115639456D01*
X108697826Y-113301133D02*
X108598193Y-113309456D01*
X137294130Y-112628444D02*
X137350059Y-112711317D01*
X137732911Y-57743789D02*
X137649691Y-57799202D01*
X199489180Y-115357327D02*
X199460939Y-115453242D01*
X138786853Y-57502425D02*
X138687867Y-57516535D01*
X166410778Y-113843076D02*
X166352038Y-113923989D01*
X138194844Y-57558992D02*
X138097792Y-57583012D01*
X109071201Y-57650798D02*
X109161249Y-57694243D01*
X198825982Y-54355680D02*
X198905146Y-54416757D01*
X138527000Y-113311200D02*
X138626946Y-113314056D01*
X137606988Y-117143717D02*
X137532178Y-117210046D01*
X106979918Y-115879148D02*
X107029158Y-115966170D01*
X167210770Y-57420089D02*
X167305898Y-57450878D01*
X198193526Y-113206715D02*
X198290225Y-113232144D01*
X198657848Y-54247572D02*
X198743460Y-54299223D01*
X198741599Y-116384372D02*
X198655922Y-116435915D01*
X166053330Y-114762485D02*
X166047683Y-114862312D01*
X199344082Y-56589148D02*
X199294842Y-56676170D01*
X168773972Y-112784238D02*
X168697639Y-112848809D01*
X166104258Y-114467212D02*
X166081664Y-114564613D01*
X196505647Y-117459548D02*
X196463821Y-117550359D01*
X140239754Y-55828799D02*
X140233981Y-55928618D01*
X196667137Y-58067357D02*
X196607547Y-58147638D01*
X109723370Y-53344944D02*
X109667441Y-53427817D01*
X197896946Y-113164056D02*
X197996565Y-113172616D01*
X139262926Y-54207394D02*
X139351348Y-54254072D01*
X166299158Y-56676170D02*
X166353287Y-56760237D01*
X134527000Y-127661200D02*
X112527000Y-127661200D01*
X137193821Y-117700359D02*
X137177000Y-125011200D01*
X137301047Y-58154138D02*
X137247132Y-58238336D01*
X106777746Y-115112299D02*
X106783519Y-115212118D01*
X166248886Y-114095208D02*
X166204810Y-114184955D01*
X167868193Y-113159456D02*
X167797000Y-113161200D01*
X138329821Y-116825217D02*
X138231344Y-116842492D01*
X134527000Y-102461200D02*
X132727000Y-102461200D01*
X168554589Y-116877289D02*
X168637809Y-116932702D01*
X199388271Y-56499456D02*
X199344082Y-56589148D01*
X199050831Y-56992023D02*
X198979061Y-57061639D01*
X140276317Y-115012312D02*
X140276254Y-115112299D01*
X166938078Y-116435915D02*
X167026560Y-116482481D01*
X107205492Y-116208422D02*
X107273169Y-116282023D01*
X168617051Y-53767983D02*
X168532588Y-53821481D01*
X139989485Y-54874624D02*
X140038614Y-54961708D01*
X168973941Y-112561317D02*
X168912450Y-112640151D01*
X199183222Y-113843076D02*
X199241962Y-113923989D01*
X109503972Y-112934238D02*
X109427639Y-112998809D01*
X197126251Y-57687743D02*
X197039411Y-57737289D01*
X109226088Y-53827981D02*
X109138149Y-53875551D01*
X137946299Y-116934298D02*
X137856251Y-116977743D01*
X107544040Y-54305723D02*
X107461518Y-54362180D01*
X140205397Y-56126455D02*
X140182680Y-56223827D01*
X199529016Y-56021445D02*
X199511897Y-56119955D01*
X166688854Y-54416757D02*
X166613309Y-54482256D01*
X106896734Y-115697388D02*
X106935729Y-115789456D01*
X106863061Y-115603242D02*
X106896734Y-115697388D01*
X169897000Y-66471200D02*
X171797000Y-68371200D01*
X199052373Y-54551963D02*
X199119957Y-54625649D01*
X197309126Y-57607163D02*
X197216299Y-57644298D01*
X109809974Y-112541924D02*
X109759870Y-112628444D01*
X199428069Y-114277073D02*
X199461622Y-114371262D01*
X196505647Y-58319548D02*
X196463821Y-58410359D01*
X167697054Y-54024056D02*
X167597435Y-54032616D01*
X198905146Y-113556757D02*
X198980691Y-113622256D01*
X137478312Y-112864576D02*
X137550028Y-112934238D01*
X108132628Y-116766185D02*
X108230647Y-116785925D01*
X109818353Y-117609548D02*
X109860179Y-117700359D01*
X166204810Y-114184955D02*
X166165931Y-114277073D01*
X107344939Y-116351639D02*
X107420567Y-116417042D01*
X198980691Y-113622256D02*
X199052373Y-113691963D01*
X167115518Y-54159343D02*
X167024574Y-54200894D01*
X139208482Y-113449343D02*
X139299426Y-113490894D01*
X168260021Y-113085533D02*
X168164204Y-113114084D01*
X167208686Y-113263053D02*
X167115518Y-113299343D01*
X198385314Y-113263053D02*
X198478482Y-113299343D01*
X106991515Y-54874624D02*
X106942386Y-54961708D01*
X107382354Y-54423257D02*
X107306809Y-54488756D01*
X168467749Y-57687743D02*
X168554589Y-57737289D01*
X139633433Y-116417042D02*
X139554192Y-116478019D01*
X139554192Y-116478019D02*
X139471599Y-116534372D01*
X108883208Y-57583012D02*
X108978374Y-57613663D01*
X168926863Y-117207357D02*
X168986453Y-117287638D01*
X167026560Y-116482481D02*
X167117556Y-116523917D01*
X138492670Y-57527699D02*
X138492670Y-57527699D01*
X138134292Y-116866512D02*
X138039126Y-116897163D01*
X167024574Y-54200894D02*
X166936152Y-54247572D01*
X198655922Y-57295915D02*
X198567440Y-57342481D01*
X196447000Y-65721200D02*
X195697000Y-66471200D01*
X138529170Y-116811199D02*
X138529170Y-116811199D01*
X198476444Y-116523917D02*
X198383230Y-116560089D01*
X110590500Y-45077700D02*
X112490500Y-43177700D01*
X169029870Y-53338444D02*
X168973941Y-53421317D01*
X198743460Y-54299223D02*
X198825982Y-54355680D01*
X166082103Y-56119955D02*
X166104820Y-56217327D01*
X196447000Y-45821200D02*
X195697000Y-45071200D01*
X108894204Y-113264084D02*
X108796652Y-113285985D01*
X109138149Y-53875551D02*
X109047150Y-53916966D01*
X167117556Y-116523917D02*
X167210770Y-116560089D01*
X140118271Y-115789456D02*
X140074082Y-115879148D01*
X197996565Y-54032616D02*
X198095533Y-54046851D01*
X138923526Y-113356715D02*
X139020225Y-113382144D01*
X109716453Y-117437638D02*
X109770368Y-117521836D01*
X197240350Y-53910466D02*
X197333979Y-53945533D01*
X139710691Y-113772256D02*
X139782373Y-113841963D01*
X106992658Y-56682670D02*
X107046787Y-56766737D01*
X198093353Y-116635925D02*
X197994367Y-116650035D01*
X138588237Y-57524969D02*
X138492670Y-57527699D01*
D11*
X109840500Y-55777700D02*
G75*
G03*
X109840500Y-55777700I-1350000J0D01*
G01*
D10*
X167303775Y-113232144D02*
X167208686Y-113263053D01*
X107343309Y-113772256D02*
X107271627Y-113841963D01*
X136427000Y-125761200D02*
X134527000Y-127661200D01*
X166053519Y-115062118D02*
X166064984Y-115161445D01*
X137550028Y-112934238D02*
X137626361Y-112998809D01*
X106797758Y-55333712D02*
X106775164Y-55431113D01*
X168377701Y-116784298D02*
X168467749Y-116827743D01*
X137247132Y-58238336D02*
X137199147Y-58326048D01*
X107718074Y-54207394D02*
X107629652Y-54254072D01*
X106775164Y-55431113D02*
X106758169Y-55529644D01*
X139875371Y-56847576D02*
X139812008Y-56924922D01*
X139385922Y-116585915D02*
X139297440Y-116632481D01*
X168926863Y-58067357D02*
X168986453Y-58147638D01*
X199489742Y-114467212D02*
X199512336Y-114564613D01*
X107167543Y-54632149D02*
X107104278Y-54709576D01*
X137513528Y-53650738D02*
X137589861Y-53715309D01*
X166249918Y-56589148D02*
X166299158Y-56676170D01*
X139672561Y-57068139D02*
X139596933Y-57133542D01*
X108687679Y-57541717D02*
X108786156Y-57558992D01*
X169161789Y-53069596D02*
X169124017Y-53162167D01*
X139517692Y-57194519D02*
X139435099Y-57250872D01*
X139848508Y-116208422D02*
X139780831Y-116282023D01*
X140182680Y-56223827D02*
X140154439Y-56319742D01*
X198905146Y-54416757D02*
X198980691Y-54482256D01*
X197501344Y-116692492D02*
X197404292Y-116716512D01*
X134490500Y-68377700D02*
X112490500Y-68377700D01*
X140270670Y-114912485D02*
X140276317Y-115012312D01*
X166850540Y-54299223D02*
X166768018Y-54355680D01*
X199428069Y-55137073D02*
X199461622Y-55231262D01*
X108661326Y-54017633D02*
X108561693Y-54025956D01*
X168912450Y-112640151D02*
X168845688Y-112714576D01*
X140120766Y-56413888D02*
X140081771Y-56505956D01*
X140081771Y-56505956D02*
X140037582Y-56595648D01*
X137163483Y-53168667D02*
X137207526Y-53258424D01*
X196976949Y-112907983D02*
X197061412Y-112961481D01*
X138220848Y-54002485D02*
X138319674Y-54017633D01*
X199118508Y-116058422D02*
X199050831Y-116132023D01*
X168284874Y-116747163D02*
X168377701Y-116784298D01*
X197994367Y-116650035D02*
X197894737Y-116658469D01*
X197061412Y-53821481D02*
X197149351Y-53869051D01*
X107809018Y-54165843D02*
X107718074Y-54207394D01*
X168845688Y-53574576D02*
X168773972Y-53644238D01*
X109485322Y-57926546D02*
X109555384Y-57997872D01*
X198095533Y-113186851D02*
X198193526Y-113206715D01*
X138002626Y-57613663D02*
X137909799Y-57650798D01*
X197126251Y-116827743D02*
X197039411Y-116877289D01*
X196432211Y-53069596D02*
X196447000Y-45821200D01*
X107271627Y-113841963D02*
X107204043Y-113915649D01*
X140276254Y-115112299D02*
X140270481Y-115212118D01*
X196447000Y-124861200D02*
X195697000Y-125611200D01*
X197996565Y-113172616D02*
X198095533Y-113186851D01*
X197149351Y-113009051D02*
X197240350Y-113050466D01*
X139970713Y-116050237D02*
X139911871Y-116131076D01*
X196732116Y-117131372D02*
X196667137Y-117207357D01*
X137909799Y-57650798D02*
X137819751Y-57694243D01*
X138429254Y-116814770D02*
X138329821Y-116825217D01*
X108490500Y-54027700D02*
X108390554Y-54030556D01*
X139171982Y-54165843D02*
X139262926Y-54207394D01*
X109840500Y-65727700D02*
X110590500Y-66477700D01*
X166543169Y-116132023D02*
X166614939Y-116201639D01*
X109759870Y-112628444D02*
X109703941Y-112711317D01*
X109014874Y-116897163D02*
X109107701Y-116934298D01*
X196956191Y-57792702D02*
X196876988Y-57853717D01*
X169161789Y-112209596D02*
X169124017Y-112302167D01*
X108822656Y-116842492D02*
X108919708Y-116866512D01*
X168353650Y-113050466D02*
X168260021Y-113085533D01*
X196681550Y-53500151D02*
X196748312Y-53574576D01*
X169040368Y-117371836D02*
X169088353Y-117459548D01*
X168637809Y-116932702D02*
X168717012Y-116993717D01*
X166205729Y-56499456D02*
X166249918Y-56589148D01*
X197333979Y-53945533D02*
X197429796Y-53974084D01*
X196469983Y-112302167D02*
X196514026Y-112391924D01*
X197626174Y-54011133D02*
X197725807Y-54019456D01*
X169147000Y-104961200D02*
X169897000Y-104211200D01*
X109891789Y-112359596D02*
X109877000Y-105111200D01*
X106899229Y-56505956D02*
X106943418Y-56595648D01*
X107845518Y-113449343D02*
X107754574Y-113490894D01*
X198824192Y-116328019D02*
X198741599Y-116384372D01*
X108724179Y-116825217D02*
X108822656Y-116842492D01*
X196681550Y-112640151D02*
X196748312Y-112714576D01*
X139813457Y-54632149D02*
X139876722Y-54709576D01*
X199294842Y-56676170D02*
X199240713Y-56760237D01*
X166205729Y-115639456D02*
X166249918Y-115729148D01*
D11*
X109877000Y-115061200D02*
G75*
G03*
X109877000Y-115061200I-1350000J0D01*
G01*
D10*
X197039411Y-57737289D02*
X196956191Y-57792702D01*
X169088353Y-58319548D02*
X169130179Y-58410359D01*
X197404292Y-116716512D02*
X197309126Y-116747163D01*
X166248886Y-54955208D02*
X166204810Y-55044955D01*
X109817517Y-53168667D02*
X109773474Y-53258424D01*
X106741246Y-55828799D02*
X106747019Y-55928618D01*
X197240350Y-113050466D02*
X197333979Y-113085533D01*
X110590500Y-66477700D02*
X112490500Y-68377700D01*
X196432211Y-53069596D02*
X196469983Y-53162167D01*
X139876722Y-54709576D02*
X139935462Y-54790489D01*
X108035898Y-116740878D02*
X108132628Y-116766185D01*
X166613309Y-113622256D02*
X166541627Y-113691963D01*
X166769808Y-116328019D02*
X166852401Y-116384372D01*
X199295985Y-114008124D02*
X199345114Y-114095208D01*
X137375050Y-53506651D02*
X137441812Y-53581076D01*
X109555384Y-57997872D02*
X109620363Y-58073857D01*
X108624746Y-116814770D02*
X108724179Y-116825217D01*
X166081664Y-55424613D02*
X166064669Y-55523144D01*
X166852401Y-116384372D02*
X166938078Y-116435915D01*
X108760152Y-54002485D02*
X108661326Y-54017633D01*
X199181871Y-56841076D02*
X199118508Y-56918422D01*
X139078814Y-54129553D02*
X139171982Y-54165843D01*
X198655922Y-116435915D02*
X198567440Y-116482481D01*
X166614939Y-116201639D02*
X166690567Y-116267042D01*
X167402628Y-116616185D02*
X167500647Y-116635925D01*
X108327435Y-113322616D02*
X108228467Y-113336851D01*
X137856251Y-116977743D02*
X137769411Y-117027289D01*
X199050831Y-116132023D02*
X198979061Y-116201639D01*
X107545901Y-57250872D02*
X107631578Y-57302415D01*
X108290935Y-54039116D02*
X108191967Y-54053351D01*
X107235127Y-54558463D02*
X107167543Y-54632149D01*
X167305898Y-57450878D02*
X167402628Y-57476185D01*
X197333979Y-113085533D02*
X197429796Y-113114084D01*
X134490500Y-43177700D02*
X132690500Y-43177700D01*
X166474043Y-113765649D02*
X166410778Y-113843076D01*
X108096128Y-57482685D02*
X108194147Y-57502425D01*
X138690065Y-54039116D02*
X138789033Y-54053351D01*
X109284589Y-117027289D02*
X109367809Y-117082702D01*
X196553632Y-117371836D02*
X196505647Y-117459548D01*
X196896361Y-53708809D02*
X196976949Y-53767983D01*
X166047746Y-55822299D02*
X166053519Y-55922118D01*
X197527348Y-53995985D02*
X197626174Y-54011133D01*
X199511897Y-56119955D02*
X199489180Y-56217327D01*
X109262588Y-113111481D02*
X109174649Y-113159051D01*
X167500647Y-57495925D02*
X167599633Y-57510035D01*
X195697000Y-125611200D02*
X193797000Y-127511200D01*
X166081664Y-114564613D02*
X166064669Y-114663144D01*
X137397137Y-117357357D02*
X137337547Y-117437638D01*
X197501344Y-57552492D02*
X197404292Y-57576512D01*
X167400474Y-113206715D02*
X167303775Y-113232144D01*
X137570488Y-57860217D02*
X137495678Y-57926546D01*
X106895931Y-114427073D02*
X106862378Y-114521262D01*
X198478482Y-113299343D02*
X198569426Y-113340894D01*
X197797000Y-54021200D02*
X197896946Y-54024056D01*
X137532178Y-117210046D02*
X137462116Y-117281372D01*
X138123296Y-53980584D02*
X138220848Y-54002485D01*
X166132378Y-114371262D02*
X166104258Y-114467212D01*
X196432211Y-112209596D02*
X196447000Y-104961200D01*
X167794830Y-116661199D02*
X167894746Y-116664770D01*
X199119957Y-113765649D02*
X199183222Y-113843076D01*
X140038614Y-54961708D02*
X140082690Y-55051455D01*
X140074082Y-115879148D02*
X140024842Y-115966170D01*
X197527348Y-113135985D02*
X197626174Y-113151133D01*
X137411550Y-112790151D02*
X137478312Y-112864576D01*
X139745873Y-54558463D02*
X139813457Y-54632149D01*
X197599821Y-57535217D02*
X197501344Y-57552492D01*
X140037582Y-56595648D02*
X139988342Y-56682670D01*
X199512336Y-55424613D02*
X199529331Y-55523144D01*
X166690567Y-116267042D02*
X166769808Y-116328019D01*
X198383230Y-116560089D02*
X198288102Y-116590878D01*
X107666152Y-113537572D02*
X107580540Y-113589223D01*
X166064669Y-114663144D02*
X166053330Y-114762485D01*
X199460939Y-115453242D02*
X199427266Y-115547388D01*
X107420567Y-116417042D02*
X107499808Y-116478019D01*
X138319674Y-54017633D02*
X138419307Y-54025956D01*
X138726565Y-113322616D02*
X138825533Y-113336851D01*
X169088353Y-117459548D02*
X169130179Y-117550359D01*
X140233981Y-55928618D02*
X140222516Y-56027945D01*
X108527000Y-113311200D02*
X108427054Y-113314056D01*
X109047150Y-53916966D02*
X108953521Y-53952033D01*
X106758484Y-56027945D02*
X106775603Y-56126455D01*
X137337547Y-117437638D02*
X137283632Y-117521836D01*
X109310551Y-53774483D02*
X109226088Y-53827981D01*
X139435099Y-57250872D02*
X139349422Y-57302415D01*
X107499808Y-116478019D02*
X107582401Y-116534372D01*
X108990021Y-113235533D02*
X108894204Y-113264084D01*
X140025985Y-114158124D02*
X140075114Y-114245208D01*
X167500647Y-116635925D02*
X167599633Y-116650035D01*
X137140500Y-45827700D02*
X136390500Y-45077700D01*
X109161249Y-57694243D02*
X109248089Y-57743789D01*
X138231344Y-116842492D02*
X138134292Y-116866512D01*
X140219180Y-115507327D02*
X140190939Y-115603242D01*
X138490500Y-54027700D02*
X138590446Y-54030556D01*
X199461622Y-55231262D02*
X199489742Y-55327212D01*
X106783330Y-114912485D02*
X106777683Y-115012312D01*
X166249918Y-115729148D02*
X166299158Y-115816170D01*
X196564130Y-53338444D02*
X196620059Y-53421317D01*
X167305898Y-116590878D02*
X167402628Y-116616185D01*
X138624737Y-116808469D02*
X138529170Y-116811199D01*
X140222831Y-55529644D02*
X140234170Y-55628985D01*
X196820028Y-112784238D02*
X196896361Y-112848809D01*
X140234170Y-55628985D02*
X140239817Y-55728812D01*
X137589861Y-53715309D02*
X137670449Y-53774483D01*
X137162211Y-112359596D02*
X137199983Y-112452167D01*
X139113230Y-116710089D02*
X139018102Y-116740878D01*
X138981602Y-57457378D02*
X138884872Y-57482685D01*
X199295985Y-54868124D02*
X199345114Y-54955208D01*
X168164204Y-113114084D02*
X168066652Y-113135985D01*
X169124017Y-53162167D02*
X169079974Y-53251924D01*
X139519482Y-54362180D02*
X139598646Y-54423257D01*
X199294842Y-115816170D02*
X199240713Y-115900237D01*
X166204810Y-55044955D02*
X166165931Y-55137073D01*
X167208686Y-54123053D02*
X167115518Y-54159343D01*
X107938686Y-113413053D02*
X107845518Y-113449343D01*
X167117556Y-57383917D02*
X167210770Y-57420089D01*
D11*
X199147000Y-55771200D02*
G75*
G03*
X199147000Y-55771200I-1350000J0D01*
G01*
D10*
X139596933Y-57133542D02*
X139517692Y-57194519D01*
X168532588Y-53821481D02*
X168444649Y-53869051D01*
X112490500Y-43177700D02*
X132690500Y-43177700D01*
X109521822Y-117210046D02*
X109591884Y-117281372D01*
X168092656Y-57552492D02*
X168189708Y-57576512D01*
X108230647Y-116785925D02*
X108329633Y-116800035D01*
D11*
X139877000Y-115061200D02*
G75*
G03*
X139877000Y-115061200I-1350000J0D01*
G01*
D10*
X199118508Y-56918422D02*
X199050831Y-56992023D01*
X137626361Y-112998809D02*
X137706949Y-113057983D01*
X137670449Y-53774483D02*
X137754912Y-53827981D01*
X107045538Y-54790489D02*
X106991515Y-54874624D01*
X196876988Y-57853717D02*
X196802178Y-57920046D01*
X166165931Y-114277073D02*
X166132378Y-114371262D01*
X166133061Y-115453242D02*
X166166734Y-115547388D01*
X168092656Y-116692492D02*
X168189708Y-116716512D01*
X107083287Y-116050237D02*
X107142129Y-116131076D01*
X109656863Y-117357357D02*
X109716453Y-117437638D01*
X167894746Y-116664770D02*
X167994179Y-116675217D01*
X199240713Y-56760237D02*
X199181871Y-56841076D01*
X109855289Y-53076096D02*
X109840500Y-45827700D01*
X109539188Y-53581076D02*
X109467472Y-53650738D01*
X167402628Y-57476185D02*
X167500647Y-57495925D01*
X198191372Y-116616185D02*
X198093353Y-116635925D01*
X140219742Y-114617212D02*
X140242336Y-114714613D01*
X169029870Y-112478444D02*
X168973941Y-112561317D01*
X199529331Y-114663144D02*
X199540670Y-114762485D01*
X107668078Y-116585915D02*
X107756560Y-116632481D01*
X112527000Y-102461200D02*
X132727000Y-102461200D01*
X168164204Y-53974084D02*
X168066652Y-53995985D01*
X139260940Y-57348981D02*
X139169944Y-57390417D01*
X195697000Y-104211200D02*
X193797000Y-102311200D01*
X140259331Y-114813144D02*
X140270670Y-114912485D01*
X166353287Y-115900237D02*
X166412129Y-115981076D01*
X167026560Y-57342481D02*
X167117556Y-57383917D01*
X139812008Y-56924922D02*
X139744331Y-56998523D01*
X109703941Y-112711317D02*
X109642450Y-112790151D01*
X168532588Y-112961481D02*
X168444649Y-113009051D01*
X106825878Y-55237762D02*
X106797758Y-55333712D01*
X107498018Y-113645680D02*
X107418854Y-113706757D01*
X169897000Y-104211200D02*
X171797000Y-102311200D01*
X196469983Y-53162167D02*
X196514026Y-53251924D01*
X167794830Y-57521199D02*
X167894746Y-57524770D01*
X108588246Y-57531270D02*
X108687679Y-57541717D01*
X138027479Y-53952033D02*
X138123296Y-53980584D01*
X196514026Y-112391924D02*
X196564130Y-112478444D01*
X196447000Y-104961200D02*
X195697000Y-104211200D01*
X138293321Y-57541717D02*
X138194844Y-57558992D01*
X199427266Y-115547388D02*
X199388271Y-115639456D01*
X108093974Y-54073215D02*
X107997275Y-54098644D01*
X107847556Y-116673917D02*
X107940770Y-116710089D01*
X138063979Y-113235533D02*
X138159796Y-113264084D01*
X140075114Y-114245208D02*
X140119190Y-114334955D01*
X109467472Y-53650738D02*
X109391139Y-53715309D01*
X166298015Y-54868124D02*
X166248886Y-54955208D01*
X137199147Y-58326048D02*
X137157321Y-58416859D01*
X168845688Y-112714576D02*
X168773972Y-112784238D01*
X197699254Y-57524770D02*
X197599821Y-57535217D01*
X199344082Y-115729148D02*
X199294842Y-115816170D01*
X198569426Y-54200894D02*
X198657848Y-54247572D01*
X196620059Y-112561317D02*
X196681550Y-112640151D01*
X137162211Y-112359596D02*
X137177000Y-105111200D01*
X136390500Y-45077700D02*
X134490500Y-43177700D01*
X166541627Y-54551963D02*
X166474043Y-54625649D01*
X137425616Y-57997872D02*
X137360637Y-58073857D01*
X109331309Y-57799202D02*
X109410512Y-57860217D01*
X168066652Y-53995985D02*
X167967826Y-54011133D01*
X136390500Y-66477700D02*
X134490500Y-68377700D01*
X140155122Y-55237762D02*
X140183242Y-55333712D01*
X109733868Y-58238336D02*
X109781853Y-58326048D01*
X107029158Y-115966170D02*
X107083287Y-116050237D01*
X106798320Y-56223827D02*
X106826561Y-56319742D01*
X139782373Y-113841963D02*
X139849957Y-113915649D01*
X199540670Y-114762485D02*
X199546317Y-114862312D01*
X166769808Y-57188019D02*
X166852401Y-57244372D01*
X137360637Y-58073857D02*
X137301047Y-58154138D01*
X137177000Y-125011200D02*
X136427000Y-125761200D01*
X166613309Y-54482256D02*
X166541627Y-54551963D01*
X138724367Y-116800035D02*
X138624737Y-116808469D01*
X107082038Y-114073989D02*
X107028015Y-114158124D01*
X197216299Y-57644298D02*
X197126251Y-57687743D01*
X109391139Y-53715309D02*
X109310551Y-53774483D01*
X108598193Y-113309456D02*
X108527000Y-113311200D01*
X193797000Y-68371200D02*
X171797000Y-68371200D01*
X137283632Y-117521836D02*
X137235647Y-117609548D01*
X106860234Y-56413888D02*
X106899229Y-56505956D01*
X166047683Y-55722312D02*
X166047746Y-55822299D01*
X139598646Y-54423257D02*
X139674191Y-54488756D01*
X137706949Y-113057983D02*
X137791412Y-113111481D01*
X197429796Y-113114084D02*
X197527348Y-113135985D01*
X168791822Y-117060046D02*
X168861884Y-117131372D01*
X137649691Y-57799202D02*
X137570488Y-57860217D01*
X167797000Y-113161200D02*
X167697054Y-113164056D01*
X196802178Y-57920046D02*
X196732116Y-57991372D01*
X199052373Y-113691963D02*
X199119957Y-113765649D01*
X166299158Y-115816170D02*
X166353287Y-115900237D01*
X167115518Y-113299343D02*
X167024574Y-113340894D01*
X107811056Y-57390417D02*
X107904270Y-57426589D01*
X167400474Y-54066715D02*
X167303775Y-54092144D01*
X109447012Y-117143717D02*
X109521822Y-117210046D01*
X166053330Y-55622485D02*
X166047683Y-55722312D01*
X166352038Y-113923989D02*
X166298015Y-114008124D01*
X109781853Y-58326048D02*
X109823679Y-58416859D01*
X107142129Y-116131076D02*
X107205492Y-116208422D01*
X108857704Y-53980584D02*
X108760152Y-54002485D01*
X199489180Y-56217327D02*
X199460939Y-56313242D01*
X196514026Y-53251924D02*
X196564130Y-53338444D01*
X199389190Y-55044955D02*
X199428069Y-55137073D01*
X137933850Y-53916966D02*
X138027479Y-53952033D01*
X139934213Y-56766737D02*
X139875371Y-56847576D01*
X167597435Y-54032616D02*
X167498467Y-54046851D01*
X109855289Y-53076096D02*
X109817517Y-53168667D01*
X168697639Y-53708809D02*
X168617051Y-53767983D01*
X107308439Y-57068139D02*
X107384067Y-57133542D01*
X199540481Y-55922118D02*
X199529016Y-56021445D01*
X199241962Y-113923989D02*
X199295985Y-114008124D01*
D11*
X169147000Y-55771200D02*
G75*
G03*
X169147000Y-55771200I-1350000J0D01*
G01*
D10*
X196748312Y-112714576D02*
X196820028Y-112784238D01*
X166768018Y-113495680D02*
X166688854Y-113556757D01*
X198903433Y-57127042D02*
X198824192Y-57188019D01*
X169161789Y-53069596D02*
X169147000Y-45821200D01*
X107902186Y-54129553D02*
X107809018Y-54165843D01*
X197429796Y-53974084D02*
X197527348Y-53995985D01*
X166064984Y-115161445D02*
X166082103Y-115259955D01*
X137125711Y-53076096D02*
X137140500Y-45827700D01*
X106758169Y-55529644D02*
X106746830Y-55628985D01*
X199183222Y-54703076D02*
X199241962Y-54783989D01*
X167797000Y-54021200D02*
X167697054Y-54024056D01*
X106794984Y-115311445D02*
X106812103Y-115409955D01*
X109854017Y-112452167D02*
X109809974Y-112541924D01*
X138492670Y-57527699D02*
X138392754Y-57531270D01*
X169124017Y-112302167D02*
X169079974Y-112391924D01*
X138921372Y-116766185D02*
X138823353Y-116785925D01*
X107236669Y-56998523D02*
X107308439Y-57068139D01*
X137970350Y-113200466D02*
X138063979Y-113235533D01*
X198569426Y-113340894D02*
X198657848Y-113387572D01*
X107461518Y-54362180D02*
X107382354Y-54423257D01*
X109248089Y-57743789D02*
X109331309Y-57799202D01*
X137842851Y-53875551D02*
X137933850Y-53916966D01*
X107580540Y-113589223D02*
X107498018Y-113645680D01*
X166936152Y-113387572D02*
X166850540Y-113439223D01*
X166353287Y-56760237D02*
X166412129Y-56841076D01*
X138455807Y-113309456D02*
X138527000Y-113311200D01*
X139473460Y-113589223D02*
X139555982Y-113645680D01*
X138392754Y-57531270D02*
X138293321Y-57541717D01*
X109620363Y-58073857D02*
X109679953Y-58154138D01*
X167498467Y-113186851D02*
X167400474Y-113206715D01*
X107105629Y-56847576D02*
X107168992Y-56924922D01*
X137879351Y-113159051D02*
X137970350Y-113200466D01*
X168717012Y-57853717D02*
X168791822Y-57920046D01*
X107384067Y-57133542D02*
X107463308Y-57194519D01*
X139076730Y-57426589D02*
X138981602Y-57457378D01*
X108561693Y-54025956D02*
X108490500Y-54027700D01*
X106826561Y-56319742D02*
X106860234Y-56413888D01*
X107418854Y-113706757D02*
X107343309Y-113772256D01*
X198288102Y-57450878D02*
X198191372Y-57476185D01*
X166104820Y-115357327D02*
X166133061Y-115453242D01*
X108429263Y-116808469D02*
X108524830Y-116811199D01*
X167967826Y-54011133D02*
X167868193Y-54019456D01*
X199345114Y-114095208D02*
X199389190Y-114184955D01*
X197799170Y-116661199D02*
X197699254Y-116664770D01*
X108033775Y-113382144D02*
X107938686Y-113413053D01*
X139436960Y-54305723D02*
X139519482Y-54362180D01*
X107582401Y-116534372D02*
X107668078Y-116585915D01*
X107997275Y-54098644D02*
X107902186Y-54129553D01*
X166475492Y-116058422D02*
X166543169Y-116132023D01*
X169147000Y-124861200D02*
X169897000Y-125611200D01*
X169040368Y-58231836D02*
X169088353Y-58319548D01*
X167498467Y-54046851D02*
X167400474Y-54066715D01*
X106942386Y-54961708D02*
X106898310Y-55051455D01*
X169147000Y-45821200D02*
X169897000Y-45071200D01*
X138419307Y-54025956D02*
X138490500Y-54027700D01*
X140183242Y-55333712D02*
X140205836Y-55431113D01*
X167599633Y-57510035D02*
X167699263Y-57518469D01*
X166064984Y-56021445D02*
X166082103Y-56119955D01*
X166614939Y-57061639D02*
X166690567Y-57127042D01*
X166474043Y-54625649D02*
X166410778Y-54703076D01*
X139020225Y-113382144D02*
X139115314Y-113413053D01*
X197626174Y-113151133D02*
X197725807Y-113159456D01*
X109679953Y-58154138D02*
X109733868Y-58238336D01*
X196553632Y-58231836D02*
X196505647Y-58319548D01*
X106747019Y-55928618D02*
X106758484Y-56027945D01*
X168554589Y-57737289D02*
X168637809Y-57792702D01*
X106834258Y-114617212D02*
X106811664Y-114714613D01*
X139169944Y-57390417D02*
X139076730Y-57426589D01*
X168717012Y-116993717D02*
X168791822Y-117060046D01*
X197599821Y-116675217D02*
X197501344Y-116692492D01*
X199181871Y-115981076D02*
X199118508Y-116058422D01*
X166352038Y-54783989D02*
X166298015Y-54868124D01*
X139115314Y-113413053D02*
X139208482Y-113449343D01*
X198385314Y-54123053D02*
X198478482Y-54159343D01*
X168260021Y-53945533D02*
X168164204Y-53974084D01*
X168973941Y-53421317D02*
X168912450Y-53500151D01*
X198290225Y-113232144D02*
X198385314Y-113263053D01*
X139471599Y-116534372D02*
X139385922Y-116585915D01*
X107904270Y-57426589D02*
X107999398Y-57457378D01*
X196620059Y-53421317D02*
X196681550Y-53500151D01*
X137791412Y-113111481D02*
X137879351Y-113159051D01*
X199389190Y-114184955D02*
X199428069Y-114277073D01*
X196607547Y-58147638D02*
X196553632Y-58231836D01*
X197799170Y-57521199D02*
X197799170Y-57521199D01*
X168353650Y-53910466D02*
X168260021Y-53945533D01*
X139299426Y-113490894D02*
X139387848Y-113537572D01*
X138825533Y-113336851D02*
X138923526Y-113356715D01*
X166412129Y-115981076D02*
X166475492Y-116058422D01*
X109575688Y-112864576D02*
X109503972Y-112934238D01*
X107463308Y-57194519D02*
X107545901Y-57250872D01*
X106812103Y-115409955D02*
X106834820Y-115507327D01*
X109347051Y-113057983D02*
X109262588Y-113111481D01*
X166768018Y-54355680D02*
X166688854Y-54416757D01*
X197894737Y-57518469D02*
X197799170Y-57521199D01*
X196732116Y-57991372D02*
X196667137Y-58067357D01*
X109197749Y-116977743D02*
X109284589Y-117027289D01*
X140270481Y-115212118D02*
X140259016Y-115311445D01*
X193797000Y-43171200D02*
X191997000Y-43171200D01*
X138687867Y-57516535D02*
X138588237Y-57524969D01*
X108293133Y-57516535D02*
X108392763Y-57524969D01*
X197404292Y-57576512D02*
X197309126Y-57607163D01*
X166938078Y-57295915D02*
X167026560Y-57342481D01*
X167868193Y-54019456D02*
X167797000Y-54021200D01*
X168444649Y-113009051D02*
X168353650Y-113050466D01*
X140121569Y-55143573D02*
X140155122Y-55237762D01*
X139935462Y-54790489D02*
X139989485Y-54874624D01*
X195697000Y-66471200D02*
X193797000Y-68371200D01*
X109877000Y-105111200D02*
X110627000Y-104361200D01*
X106978886Y-114245208D02*
X106934810Y-114334955D01*
X137441812Y-53581076D02*
X137513528Y-53650738D01*
X109770368Y-117521836D02*
X109818353Y-117609548D01*
X168377701Y-57644298D02*
X168467749Y-57687743D01*
X108796652Y-113285985D02*
X108697826Y-113301133D01*
X109605950Y-53506651D02*
X109539188Y-53581076D01*
X108194147Y-57502425D02*
X108293133Y-57516535D01*
X107273169Y-116282023D02*
X107344939Y-116351639D01*
X168617051Y-112907983D02*
X168532588Y-112961481D01*
X166165931Y-55137073D02*
X166132378Y-55231262D01*
X106935729Y-115789456D02*
X106979918Y-115879148D01*
X168986453Y-117287638D02*
X169040368Y-117371836D01*
X198383230Y-57420089D02*
X198288102Y-57450878D01*
X140154439Y-56319742D02*
X140120766Y-56413888D01*
X139911871Y-116131076D02*
X139848508Y-116208422D01*
X106811664Y-114714613D02*
X106794669Y-114813144D01*
X198193526Y-54066715D02*
X198290225Y-54092144D01*
X139351348Y-54254072D02*
X139436960Y-54305723D01*
X109877000Y-125011200D02*
X110627000Y-125761200D01*
X197896946Y-54024056D02*
X197996565Y-54032616D01*
X137754912Y-53827981D02*
X137842851Y-53875551D01*
X168791822Y-57920046D02*
X168861884Y-57991372D01*
X169130179Y-117550359D02*
X169147000Y-124861200D01*
X197994367Y-57510035D02*
X197894737Y-57518469D01*
X137769411Y-117027289D02*
X137686191Y-117082702D01*
X137207526Y-53258424D02*
X137257630Y-53344944D01*
X199529016Y-115161445D02*
X199511897Y-115259955D01*
X140242336Y-114714613D02*
X140259331Y-114813144D01*
X196896361Y-112848809D02*
X196976949Y-112907983D01*
X198980691Y-54482256D02*
X199052373Y-54551963D01*
X166104258Y-55327212D02*
X166081664Y-55424613D01*
X109860179Y-117700359D02*
X109877000Y-125011200D01*
X167210770Y-116560089D02*
X167305898Y-116590878D01*
X109410512Y-57860217D02*
X109485322Y-57926546D01*
X108191967Y-54053351D02*
X108093974Y-54073215D01*
D11*
X169147000Y-114911200D02*
G75*
G03*
X169147000Y-114911200I-1350000J0D01*
G01*
D10*
X140241897Y-115409955D02*
X140219180Y-115507327D01*
X171797000Y-102311200D02*
X191997000Y-102311200D01*
X166852401Y-57244372D02*
X166938078Y-57295915D01*
X199512336Y-114564613D02*
X199529331Y-114663144D01*
X138789033Y-54053351D02*
X138887026Y-54073215D01*
X199511897Y-115259955D02*
X199489180Y-115357327D01*
X168986453Y-58147638D02*
X169040368Y-58231836D01*
X137462116Y-117281372D02*
X137397137Y-117357357D01*
M02*
