M48
; DRILL file {KiCad 7.0.7} date Fri Oct  6 19:00:49 2023
; FORMAT={-:-/ absolute / inch / decimal}
; #@! TF.CreationDate,2023-10-06T19:00:49-06:00
; #@! TF.GenerationSoftware,Kicad,Pcbnew,7.0.7
; #@! TF.FileFunction,Plated,1,2,PTH
FMAT,2
INCH
; #@! TA.AperFunction,Plated,PTH,ComponentDrill
T1C0.0315
; #@! TA.AperFunction,Plated,PTH,ComponentDrill
T2C0.0362
; #@! TA.AperFunction,Plated,PTH,ComponentDrill
T3C0.0374
; #@! TA.AperFunction,Plated,PTH,ComponentDrill
T4C0.0906
%
G90
G05
T1
X3.8665Y-2.6035
X3.8665Y-2.6823
X3.8665Y-2.761
X3.8665Y-2.8398
X3.8665Y-2.9185
X3.8665Y-2.9972
X3.8665Y-3.076
X3.8665Y-3.1547
X3.8665Y-3.2335
X3.8665Y-3.3122
X3.8673Y-3.7004
X3.8673Y-3.7791
X3.8673Y-3.8579
X3.8673Y-3.9366
X3.8673Y-4.0154
X3.8673Y-4.0941
X3.8673Y-4.1728
X3.8673Y-4.2516
X3.8673Y-4.3303
X3.8673Y-4.4091
X4.7323Y-2.6035
X4.7323Y-2.6823
X4.7323Y-2.761
X4.7323Y-2.8398
X4.7323Y-2.9185
X4.7323Y-2.9972
X4.7323Y-3.076
X4.7323Y-3.1547
X4.7323Y-3.2335
X4.7323Y-3.3122
X4.7327Y-3.7008
X4.7327Y-3.7795
X4.7327Y-3.8583
X4.7327Y-3.937
X4.7327Y-4.0157
X4.7327Y-4.0945
X4.7327Y-4.1732
X4.7327Y-4.252
X4.7327Y-4.3307
X4.7327Y-4.4094
X5.2067Y-2.6035
X5.2067Y-2.6823
X5.2067Y-2.761
X5.2067Y-2.8398
X5.2067Y-2.9185
X5.2067Y-2.9972
X5.2067Y-3.076
X5.2067Y-3.1547
X5.2067Y-3.2335
X5.2067Y-3.3122
X5.2076Y-3.7007
X5.2076Y-3.7795
X5.2076Y-3.8582
X5.2076Y-3.937
X5.2076Y-4.0157
X5.2076Y-4.0944
X5.2076Y-4.1732
X5.2076Y-4.2519
X5.2076Y-4.3307
X5.2076Y-4.4094
X6.0717Y-2.6031
X6.0717Y-2.6819
X6.0717Y-2.7606
X6.0717Y-2.8394
X6.0717Y-2.9181
X6.0717Y-2.9969
X6.0717Y-3.0756
X6.0717Y-3.1543
X6.0717Y-3.2331
X6.0717Y-3.3118
X6.0728Y-3.7012
X6.0728Y-3.7799
X6.0728Y-3.8587
X6.0728Y-3.9374
X6.0728Y-4.0161
X6.0728Y-4.0949
X6.0728Y-4.1736
X6.0728Y-4.2524
X6.0728Y-4.3311
X6.0728Y-4.4098
T2
X4.1638Y-4.0713
X4.2622Y-4.0713
X4.341Y-4.0713
X4.4394Y-4.0713
X5.5051Y-3.9882
X5.5052Y-4.1212
X5.6035Y-3.9882
X5.6036Y-4.1212
X5.6823Y-3.9882
X5.6824Y-4.1212
X5.7807Y-3.9882
X5.7808Y-4.1212
T3
X4.2005Y-3.0776
X4.299Y-3.0776
X4.3974Y-3.0776
X5.4931Y-3.0745
X5.5915Y-3.0745
X5.6899Y-3.0745
X5.7883Y-3.0745
T4
X4.0429Y-4.178
X4.5602Y-4.178
X5.3843Y-3.8815
X5.3843Y-4.2279
X5.9016Y-3.8815
X5.9017Y-4.2279
T0
M30
