G04 #@! TF.GenerationSoftware,KiCad,Pcbnew,7.0.7*
G04 #@! TF.CreationDate,2023-10-04T16:42:28-06:00*
G04 #@! TF.ProjectId,Modular_Interfaces,4d6f6475-6c61-4725-9f49-6e7465726661,rev?*
G04 #@! TF.SameCoordinates,Original*
G04 #@! TF.FileFunction,Soldermask,Top*
G04 #@! TF.FilePolarity,Negative*
%FSLAX46Y46*%
G04 Gerber Fmt 4.6, Leading zero omitted, Abs format (unit mm)*
G04 Created by KiCad (PCBNEW 7.0.7) date 2023-10-04 16:42:28*
%MOMM*%
%LPD*%
G01*
G04 APERTURE LIST*
G04 Aperture macros list*
%AMRoundRect*
0 Rectangle with rounded corners*
0 $1 Rounding radius*
0 $2 $3 $4 $5 $6 $7 $8 $9 X,Y pos of 4 corners*
0 Add a 4 corners polygon primitive as box body*
4,1,4,$2,$3,$4,$5,$6,$7,$8,$9,$2,$3,0*
0 Add four circle primitives for the rounded corners*
1,1,$1+$1,$2,$3*
1,1,$1+$1,$4,$5*
1,1,$1+$1,$6,$7*
1,1,$1+$1,$8,$9*
0 Add four rect primitives between the rounded corners*
20,1,$1+$1,$2,$3,$4,$5,0*
20,1,$1+$1,$4,$5,$6,$7,0*
20,1,$1+$1,$6,$7,$8,$9,0*
20,1,$1+$1,$8,$9,$2,$3,0*%
G04 Aperture macros list end*
%ADD10R,1.350000X1.350000*%
%ADD11O,1.350000X1.350000*%
%ADD12C,3.250000*%
%ADD13R,1.500000X1.500000*%
%ADD14C,1.500000*%
%ADD15C,2.300000*%
%ADD16RoundRect,0.250000X-0.350000X-0.625000X0.350000X-0.625000X0.350000X0.625000X-0.350000X0.625000X0*%
%ADD17O,1.200000X1.750000*%
%ADD18RoundRect,0.250000X-0.287500X-0.275000X0.287500X-0.275000X0.287500X0.275000X-0.287500X0.275000X0*%
%ADD19RoundRect,0.200000X-0.200000X-0.275000X0.200000X-0.275000X0.200000X0.275000X-0.200000X0.275000X0*%
%ADD20R,1.250000X3.000000*%
%ADD21C,3.000000*%
G04 APERTURE END LIST*
D10*
X193777000Y-105901200D03*
D11*
X193777000Y-107901200D03*
X193777000Y-109901200D03*
X193777000Y-111901200D03*
X193777000Y-113901200D03*
X193777000Y-115901200D03*
X193777000Y-117901200D03*
X193777000Y-119901200D03*
X193777000Y-121901200D03*
X193777000Y-123901200D03*
D10*
X112490500Y-46777700D03*
D11*
X112490500Y-48777700D03*
X112490500Y-50777700D03*
X112490500Y-52777700D03*
X112490500Y-54777700D03*
X112490500Y-56777700D03*
X112490500Y-58777700D03*
X112490500Y-60777700D03*
X112490500Y-62777700D03*
X112490500Y-64777700D03*
D10*
X134490500Y-46777700D03*
D11*
X134490500Y-48777700D03*
X134490500Y-50777700D03*
X134490500Y-52777700D03*
X134490500Y-54777700D03*
X134490500Y-56777700D03*
X134490500Y-58777700D03*
X134490500Y-60777700D03*
X134490500Y-62777700D03*
X134490500Y-64777700D03*
D12*
X129778500Y-65102700D03*
X117078500Y-65102700D03*
D13*
X126988500Y-62562700D03*
D14*
X125972500Y-60782700D03*
X124956500Y-62562700D03*
X123940500Y-60782700D03*
X122924500Y-62562700D03*
X121908500Y-60782700D03*
X120892500Y-62562700D03*
X119876500Y-60782700D03*
X130288500Y-55962700D03*
X127998500Y-55962700D03*
X118858500Y-55962700D03*
X116568500Y-55962700D03*
D15*
X131558500Y-61672700D03*
X115298500Y-61672700D03*
D16*
X179777000Y-117941200D03*
D17*
X181777000Y-117941200D03*
X183777000Y-117941200D03*
X185777000Y-117941200D03*
D18*
X129138500Y-49652700D03*
X130563500Y-49652700D03*
D10*
X171807000Y-105911200D03*
D11*
X171807000Y-107911200D03*
X171807000Y-109911200D03*
X171807000Y-111911200D03*
X171807000Y-113911200D03*
X171807000Y-115911200D03*
X171807000Y-117911200D03*
X171807000Y-119911200D03*
X171807000Y-121911200D03*
X171807000Y-123911200D03*
D10*
X171800800Y-46772200D03*
D11*
X171800800Y-48772200D03*
X171800800Y-50772200D03*
X171800800Y-52772200D03*
X171800800Y-54772200D03*
X171800800Y-56772200D03*
X171800800Y-58772200D03*
X171800800Y-60772200D03*
X171800800Y-62772200D03*
X171800800Y-64772200D03*
D10*
X134517000Y-106061200D03*
D11*
X134517000Y-108061200D03*
X134517000Y-110061200D03*
X134517000Y-112061200D03*
X134517000Y-114061200D03*
X134517000Y-116061200D03*
X134517000Y-118061200D03*
X134517000Y-120061200D03*
X134517000Y-122061200D03*
X134517000Y-124061200D03*
D19*
X129013500Y-46082700D03*
X130663500Y-46082700D03*
D16*
X121507000Y-118091200D03*
D17*
X123507000Y-118091200D03*
X125507000Y-118091200D03*
D10*
X193788200Y-46782600D03*
D11*
X193788200Y-48782600D03*
X193788200Y-50782600D03*
X193788200Y-52782600D03*
X193788200Y-54782600D03*
X193788200Y-56782600D03*
X193788200Y-58782600D03*
X193788200Y-60782600D03*
X193788200Y-62782600D03*
X193788200Y-64782600D03*
D19*
X129003500Y-52912700D03*
X130653500Y-52912700D03*
D20*
X179290000Y-55318000D03*
X181790000Y-55318000D03*
X183790000Y-55318000D03*
X186290000Y-55318000D03*
D21*
X176220000Y-58998000D03*
X189360000Y-58998000D03*
D19*
X129003500Y-51332700D03*
X130653500Y-51332700D03*
D10*
X112530800Y-106062200D03*
D11*
X112530800Y-108062200D03*
X112530800Y-110062200D03*
X112530800Y-112062200D03*
X112530800Y-114062200D03*
X112530800Y-116062200D03*
X112530800Y-118062200D03*
X112530800Y-120062200D03*
X112530800Y-122062200D03*
X112530800Y-124062200D03*
D19*
X129013500Y-47682700D03*
X130663500Y-47682700D03*
M02*
