G04 #@! TF.GenerationSoftware,KiCad,Pcbnew,7.0.7*
G04 #@! TF.CreationDate,2023-10-04T22:58:21-06:00*
G04 #@! TF.ProjectId,Modular_Interfaces,4d6f6475-6c61-4725-9f49-6e7465726661,rev?*
G04 #@! TF.SameCoordinates,Original*
G04 #@! TF.FileFunction,Soldermask,Bot*
G04 #@! TF.FilePolarity,Negative*
%FSLAX46Y46*%
G04 Gerber Fmt 4.6, Leading zero omitted, Abs format (unit mm)*
G04 Created by KiCad (PCBNEW 7.0.7) date 2023-10-04 22:58:21*
%MOMM*%
%LPD*%
G01*
G04 APERTURE LIST*
G04 Aperture macros list*
%AMRoundRect*
0 Rectangle with rounded corners*
0 $1 Rounding radius*
0 $2 $3 $4 $5 $6 $7 $8 $9 X,Y pos of 4 corners*
0 Add a 4 corners polygon primitive as box body*
4,1,4,$2,$3,$4,$5,$6,$7,$8,$9,$2,$3,0*
0 Add four circle primitives for the rounded corners*
1,1,$1+$1,$2,$3*
1,1,$1+$1,$4,$5*
1,1,$1+$1,$6,$7*
1,1,$1+$1,$8,$9*
0 Add four rect primitives between the rounded corners*
20,1,$1+$1,$2,$3,$4,$5,0*
20,1,$1+$1,$4,$5,$6,$7,0*
20,1,$1+$1,$6,$7,$8,$9,0*
20,1,$1+$1,$8,$9,$2,$3,0*%
G04 Aperture macros list end*
%ADD10R,1.350000X1.350000*%
%ADD11O,1.350000X1.350000*%
%ADD12C,2.300000*%
%ADD13C,1.500000*%
%ADD14R,1.500000X1.500000*%
%ADD15C,3.250000*%
%ADD16RoundRect,0.250000X-0.350000X-0.625000X0.350000X-0.625000X0.350000X0.625000X-0.350000X0.625000X0*%
%ADD17O,1.200000X1.750000*%
%ADD18C,3.000000*%
%ADD19RoundRect,0.218750X-0.218750X-0.256250X0.218750X-0.256250X0.218750X0.256250X-0.218750X0.256250X0*%
%ADD20R,2.200000X1.300000*%
%ADD21RoundRect,0.250000X-0.275000X0.287500X-0.275000X-0.287500X0.275000X-0.287500X0.275000X0.287500X0*%
%ADD22RoundRect,0.200000X-0.200000X-0.275000X0.200000X-0.275000X0.200000X0.275000X-0.200000X0.275000X0*%
%ADD23RoundRect,0.250000X-0.287500X-0.275000X0.287500X-0.275000X0.287500X0.275000X-0.287500X0.275000X0*%
%ADD24RoundRect,0.250000X0.287500X0.275000X-0.287500X0.275000X-0.287500X-0.275000X0.287500X-0.275000X0*%
%ADD25RoundRect,0.200000X0.200000X0.275000X-0.200000X0.275000X-0.200000X-0.275000X0.200000X-0.275000X0*%
%ADD26RoundRect,0.250000X0.275000X-0.287500X0.275000X0.287500X-0.275000X0.287500X-0.275000X-0.287500X0*%
%ADD27R,1.750000X0.450000*%
G04 APERTURE END LIST*
D10*
X183407291Y-96944118D03*
D11*
X183407291Y-98944118D03*
X183407291Y-100944118D03*
X183407291Y-102944118D03*
X183407291Y-104944118D03*
X183407291Y-106944118D03*
X183407291Y-108944118D03*
X183407291Y-110944118D03*
X183407291Y-112944118D03*
X183407291Y-114944118D03*
X126743500Y-86336780D03*
X126743500Y-84336780D03*
X126743500Y-82336780D03*
X126743500Y-80336780D03*
X126743500Y-78336780D03*
X126743500Y-76336780D03*
X126743500Y-74336780D03*
X126743500Y-72336780D03*
X126743500Y-70336780D03*
D10*
X126743500Y-68336780D03*
D11*
X148743500Y-86336780D03*
X148743500Y-84336780D03*
X148743500Y-82336780D03*
X148743500Y-80336780D03*
X148743500Y-78336780D03*
X148743500Y-76336780D03*
X148743500Y-74336780D03*
X148743500Y-72336780D03*
X148743500Y-70336780D03*
D10*
X148743500Y-68336780D03*
D12*
X129551500Y-83231780D03*
X145811500Y-83231780D03*
D13*
X130821500Y-77521780D03*
X133111500Y-77521780D03*
X142251500Y-77521780D03*
X144541500Y-77521780D03*
X134129500Y-82341780D03*
X135145500Y-84121780D03*
X136161500Y-82341780D03*
X137177500Y-84121780D03*
X138193500Y-82341780D03*
X139209500Y-84121780D03*
X140225500Y-82341780D03*
D14*
X141241500Y-84121780D03*
D15*
X131331500Y-86661780D03*
X144031500Y-86661780D03*
D16*
X169407291Y-108984118D03*
D17*
X171407291Y-108984118D03*
X173407291Y-108984118D03*
X175407291Y-108984118D03*
D10*
X161437291Y-96954118D03*
D11*
X161437291Y-98954118D03*
X161437291Y-100954118D03*
X161437291Y-102954118D03*
X161437291Y-104954118D03*
X161437291Y-106954118D03*
X161437291Y-108954118D03*
X161437291Y-110954118D03*
X161437291Y-112954118D03*
X161437291Y-114954118D03*
X161360800Y-86324480D03*
X161360800Y-84324480D03*
X161360800Y-82324480D03*
X161360800Y-80324480D03*
X161360800Y-78324480D03*
X161360800Y-76324480D03*
X161360800Y-74324480D03*
X161360800Y-72324480D03*
X161360800Y-70324480D03*
D10*
X161360800Y-68324480D03*
X148723491Y-96953118D03*
D11*
X148723491Y-98953118D03*
X148723491Y-100953118D03*
X148723491Y-102953118D03*
X148723491Y-104953118D03*
X148723491Y-106953118D03*
X148723491Y-108953118D03*
X148723491Y-110953118D03*
X148723491Y-112953118D03*
X148723491Y-114953118D03*
D16*
X135713491Y-108983118D03*
D17*
X137713491Y-108983118D03*
X139713491Y-108983118D03*
D11*
X183348200Y-86334880D03*
X183348200Y-84334880D03*
X183348200Y-82334880D03*
X183348200Y-80334880D03*
X183348200Y-78334880D03*
X183348200Y-76334880D03*
X183348200Y-74334880D03*
X183348200Y-72334880D03*
X183348200Y-70334880D03*
D10*
X183348200Y-68334880D03*
D18*
X178920000Y-80550280D03*
X165780000Y-80550280D03*
D10*
X126737291Y-96954118D03*
D11*
X126737291Y-98954118D03*
X126737291Y-100954118D03*
X126737291Y-102954118D03*
X126737291Y-104954118D03*
X126737291Y-106954118D03*
X126737291Y-108954118D03*
X126737291Y-110954118D03*
X126737291Y-112954118D03*
X126737291Y-114954118D03*
D19*
X132081500Y-80995780D03*
X130506500Y-80995780D03*
D20*
X131283500Y-67936780D03*
X131283500Y-72136780D03*
D21*
X140591500Y-87584280D03*
X140591500Y-86159280D03*
D22*
X145046500Y-79341780D03*
X143396500Y-79341780D03*
D21*
X138691500Y-87584280D03*
X138691500Y-86159280D03*
D23*
X132018500Y-74021780D03*
X130593500Y-74021780D03*
D24*
X130604000Y-79341780D03*
X132029000Y-79341780D03*
D25*
X143393500Y-73636780D03*
X145043500Y-73636780D03*
X143386500Y-80991780D03*
X145036500Y-80991780D03*
X143393500Y-72111780D03*
X145043500Y-72111780D03*
D21*
X129051500Y-72446780D03*
X129051500Y-71021780D03*
D26*
X129051500Y-67826780D03*
X129051500Y-69251780D03*
D22*
X145043500Y-75286780D03*
X143393500Y-75286780D03*
D21*
X134891500Y-87584280D03*
X134891500Y-86159280D03*
X143543500Y-68449280D03*
X143543500Y-67024280D03*
X136791500Y-87584280D03*
X136791500Y-86159280D03*
D27*
X134143500Y-67011780D03*
X134143500Y-67661780D03*
X134143500Y-68311780D03*
X134143500Y-68961780D03*
X134143500Y-69611780D03*
X134143500Y-70261780D03*
X134143500Y-70911780D03*
X134143500Y-71561780D03*
X134143500Y-72211780D03*
X134143500Y-72861780D03*
X134143500Y-73511780D03*
X134143500Y-74161780D03*
X134143500Y-74811780D03*
X134143500Y-75461780D03*
X141343500Y-75461780D03*
X141343500Y-74811780D03*
X141343500Y-74161780D03*
X141343500Y-73511780D03*
X141343500Y-72861780D03*
X141343500Y-72211780D03*
X141343500Y-71561780D03*
X141343500Y-70911780D03*
X141343500Y-70261780D03*
X141343500Y-69611780D03*
X141343500Y-68961780D03*
X141343500Y-68311780D03*
X141343500Y-67661780D03*
X141343500Y-67011780D03*
M02*
