G04 #@! TF.GenerationSoftware,KiCad,Pcbnew,7.0.7*
G04 #@! TF.CreationDate,2023-10-04T16:42:27-06:00*
G04 #@! TF.ProjectId,Modular_Interfaces,4d6f6475-6c61-4725-9f49-6e7465726661,rev?*
G04 #@! TF.SameCoordinates,Original*
G04 #@! TF.FileFunction,Paste,Bot*
G04 #@! TF.FilePolarity,Positive*
%FSLAX46Y46*%
G04 Gerber Fmt 4.6, Leading zero omitted, Abs format (unit mm)*
G04 Created by KiCad (PCBNEW 7.0.7) date 2023-10-04 16:42:27*
%MOMM*%
%LPD*%
G01*
G04 APERTURE LIST*
G04 Aperture macros list*
%AMRoundRect*
0 Rectangle with rounded corners*
0 $1 Rounding radius*
0 $2 $3 $4 $5 $6 $7 $8 $9 X,Y pos of 4 corners*
0 Add a 4 corners polygon primitive as box body*
4,1,4,$2,$3,$4,$5,$6,$7,$8,$9,$2,$3,0*
0 Add four circle primitives for the rounded corners*
1,1,$1+$1,$2,$3*
1,1,$1+$1,$4,$5*
1,1,$1+$1,$6,$7*
1,1,$1+$1,$8,$9*
0 Add four rect primitives between the rounded corners*
20,1,$1+$1,$2,$3,$4,$5,0*
20,1,$1+$1,$4,$5,$6,$7,0*
20,1,$1+$1,$6,$7,$8,$9,0*
20,1,$1+$1,$8,$9,$2,$3,0*%
G04 Aperture macros list end*
%ADD10RoundRect,0.218750X-0.218750X-0.256250X0.218750X-0.256250X0.218750X0.256250X-0.218750X0.256250X0*%
%ADD11R,2.200000X1.300000*%
%ADD12RoundRect,0.250000X-0.275000X0.287500X-0.275000X-0.287500X0.275000X-0.287500X0.275000X0.287500X0*%
%ADD13RoundRect,0.200000X-0.200000X-0.275000X0.200000X-0.275000X0.200000X0.275000X-0.200000X0.275000X0*%
%ADD14RoundRect,0.250000X-0.287500X-0.275000X0.287500X-0.275000X0.287500X0.275000X-0.287500X0.275000X0*%
%ADD15RoundRect,0.250000X0.287500X0.275000X-0.287500X0.275000X-0.287500X-0.275000X0.287500X-0.275000X0*%
%ADD16RoundRect,0.200000X0.200000X0.275000X-0.200000X0.275000X-0.200000X-0.275000X0.200000X-0.275000X0*%
%ADD17RoundRect,0.250000X0.275000X-0.287500X0.275000X0.287500X-0.275000X0.287500X-0.275000X-0.287500X0*%
%ADD18R,1.750000X0.450000*%
G04 APERTURE END LIST*
D10*
X116253500Y-59436700D03*
X117828500Y-59436700D03*
D11*
X117030500Y-50577700D03*
X117030500Y-46377700D03*
D12*
X126338500Y-64600200D03*
X126338500Y-66025200D03*
D13*
X129143500Y-57782700D03*
X130793500Y-57782700D03*
D12*
X124438500Y-64600200D03*
X124438500Y-66025200D03*
D14*
X116340500Y-52462700D03*
X117765500Y-52462700D03*
D15*
X117776000Y-57782700D03*
X116351000Y-57782700D03*
D16*
X130790500Y-52077700D03*
X129140500Y-52077700D03*
X130783500Y-59432700D03*
X129133500Y-59432700D03*
X130790500Y-50552700D03*
X129140500Y-50552700D03*
D12*
X114798500Y-49462700D03*
X114798500Y-50887700D03*
D17*
X114798500Y-47692700D03*
X114798500Y-46267700D03*
D13*
X129140500Y-53727700D03*
X130790500Y-53727700D03*
D12*
X120638500Y-64600200D03*
X120638500Y-66025200D03*
X129290500Y-45465200D03*
X129290500Y-46890200D03*
X122538500Y-64600200D03*
X122538500Y-66025200D03*
D18*
X127090500Y-45452700D03*
X127090500Y-46102700D03*
X127090500Y-46752700D03*
X127090500Y-47402700D03*
X127090500Y-48052700D03*
X127090500Y-48702700D03*
X127090500Y-49352700D03*
X127090500Y-50002700D03*
X127090500Y-50652700D03*
X127090500Y-51302700D03*
X127090500Y-51952700D03*
X127090500Y-52602700D03*
X127090500Y-53252700D03*
X127090500Y-53902700D03*
X119890500Y-53902700D03*
X119890500Y-53252700D03*
X119890500Y-52602700D03*
X119890500Y-51952700D03*
X119890500Y-51302700D03*
X119890500Y-50652700D03*
X119890500Y-50002700D03*
X119890500Y-49352700D03*
X119890500Y-48702700D03*
X119890500Y-48052700D03*
X119890500Y-47402700D03*
X119890500Y-46752700D03*
X119890500Y-46102700D03*
X119890500Y-45452700D03*
M02*
