M48
; DRILL file {KiCad 7.0.7} date Wed Oct  4 22:58:39 2023
; FORMAT={-:-/ absolute / metric / decimal}
; #@! TF.CreationDate,2023-10-04T22:58:39-06:00
; #@! TF.GenerationSoftware,Kicad,Pcbnew,7.0.7
; #@! TF.FileFunction,Plated,1,2,PTH
FMAT,2
METRIC
; #@! TA.AperFunction,Plated,PTH,ViaDrill
T1C0.400
; #@! TA.AperFunction,Plated,PTH,ComponentDrill
T2C0.750
; #@! TA.AperFunction,Plated,PTH,ComponentDrill
T3C0.800
; #@! TA.AperFunction,Plated,PTH,ComponentDrill
T4C0.890
; #@! TA.AperFunction,Plated,PTH,ComponentDrill
T5C1.570
; #@! TA.AperFunction,Plated,PTH,ComponentDrill
T6C2.300
%
G90
G05
T1
X128.476Y-75.212
X129.802Y-75.212
X131.284Y-70.037
X132.212Y-82.312
X135.618Y-72.904
X135.681Y-70.572
X135.971Y-67.422
X136.962Y-69.312
X137.209Y-75.152
X137.751Y-71.952
X138.306Y-73.702
X138.531Y-75.152
X139.462Y-67.422
X139.469Y-77.449
X140.057Y-80.212
X141.071Y-80.212
X142.096Y-80.212
X146.853Y-76.426
T2
X135.713Y-108.983
X137.713Y-108.983
X139.713Y-108.983
X169.407Y-108.984
X171.407Y-108.984
X173.407Y-108.984
X175.407Y-108.984
T3
X126.737Y-96.954
X126.737Y-98.954
X126.737Y-100.954
X126.737Y-102.954
X126.737Y-104.954
X126.737Y-106.954
X126.737Y-108.954
X126.737Y-110.954
X126.737Y-112.954
X126.737Y-114.954
X126.743Y-68.337
X126.743Y-70.337
X126.743Y-72.337
X126.743Y-74.337
X126.743Y-76.337
X126.743Y-78.337
X126.743Y-80.337
X126.743Y-82.337
X126.743Y-84.337
X126.743Y-86.337
X148.723Y-96.953
X148.723Y-98.953
X148.723Y-100.953
X148.723Y-102.953
X148.723Y-104.953
X148.723Y-106.953
X148.723Y-108.953
X148.723Y-110.953
X148.723Y-112.953
X148.723Y-114.953
X148.743Y-68.337
X148.743Y-70.337
X148.743Y-72.337
X148.743Y-74.337
X148.743Y-76.337
X148.743Y-78.337
X148.743Y-80.337
X148.743Y-82.337
X148.743Y-84.337
X148.743Y-86.337
X161.361Y-68.324
X161.361Y-70.324
X161.361Y-72.324
X161.361Y-74.324
X161.361Y-76.324
X161.361Y-78.324
X161.361Y-80.324
X161.361Y-82.324
X161.361Y-84.324
X161.361Y-86.324
X161.437Y-96.954
X161.437Y-98.954
X161.437Y-100.954
X161.437Y-102.954
X161.437Y-104.954
X161.437Y-106.954
X161.437Y-108.954
X161.437Y-110.954
X161.437Y-112.954
X161.437Y-114.954
X183.348Y-68.335
X183.348Y-70.335
X183.348Y-72.335
X183.348Y-74.335
X183.348Y-76.335
X183.348Y-78.335
X183.348Y-80.335
X183.348Y-82.335
X183.348Y-84.335
X183.348Y-86.335
X183.407Y-96.944
X183.407Y-98.944
X183.407Y-100.944
X183.407Y-102.944
X183.407Y-104.944
X183.407Y-106.944
X183.407Y-108.944
X183.407Y-110.944
X183.407Y-112.944
X183.407Y-114.944
T4
X130.821Y-77.522
X133.112Y-77.522
X134.13Y-82.342
X135.145Y-84.122
X136.161Y-82.342
X137.177Y-84.122
X138.194Y-82.342
X139.209Y-84.122
X140.225Y-82.342
X141.242Y-84.122
X142.251Y-77.522
X144.541Y-77.522
T5
X129.552Y-83.232
X145.811Y-83.232
T6
X165.78Y-80.55
X178.92Y-80.55
T0
M30
