G04 #@! TF.GenerationSoftware,KiCad,Pcbnew,7.0.7*
G04 #@! TF.CreationDate,2023-10-04T22:58:21-06:00*
G04 #@! TF.ProjectId,Modular_Interfaces,4d6f6475-6c61-4725-9f49-6e7465726661,rev?*
G04 #@! TF.SameCoordinates,Original*
G04 #@! TF.FileFunction,Copper,L1,Top*
G04 #@! TF.FilePolarity,Positive*
%FSLAX46Y46*%
G04 Gerber Fmt 4.6, Leading zero omitted, Abs format (unit mm)*
G04 Created by KiCad (PCBNEW 7.0.7) date 2023-10-04 22:58:21*
%MOMM*%
%LPD*%
G01*
G04 APERTURE LIST*
G04 Aperture macros list*
%AMRoundRect*
0 Rectangle with rounded corners*
0 $1 Rounding radius*
0 $2 $3 $4 $5 $6 $7 $8 $9 X,Y pos of 4 corners*
0 Add a 4 corners polygon primitive as box body*
4,1,4,$2,$3,$4,$5,$6,$7,$8,$9,$2,$3,0*
0 Add four circle primitives for the rounded corners*
1,1,$1+$1,$2,$3*
1,1,$1+$1,$4,$5*
1,1,$1+$1,$6,$7*
1,1,$1+$1,$8,$9*
0 Add four rect primitives between the rounded corners*
20,1,$1+$1,$2,$3,$4,$5,0*
20,1,$1+$1,$4,$5,$6,$7,0*
20,1,$1+$1,$6,$7,$8,$9,0*
20,1,$1+$1,$8,$9,$2,$3,0*%
G04 Aperture macros list end*
G04 #@! TA.AperFunction,ComponentPad*
%ADD10R,1.350000X1.350000*%
G04 #@! TD*
G04 #@! TA.AperFunction,ComponentPad*
%ADD11O,1.350000X1.350000*%
G04 #@! TD*
G04 #@! TA.AperFunction,ComponentPad*
%ADD12C,2.300000*%
G04 #@! TD*
G04 #@! TA.AperFunction,ComponentPad*
%ADD13C,1.500000*%
G04 #@! TD*
G04 #@! TA.AperFunction,ComponentPad*
%ADD14R,1.500000X1.500000*%
G04 #@! TD*
G04 #@! TA.AperFunction,ComponentPad*
%ADD15RoundRect,0.250000X-0.350000X-0.625000X0.350000X-0.625000X0.350000X0.625000X-0.350000X0.625000X0*%
G04 #@! TD*
G04 #@! TA.AperFunction,ComponentPad*
%ADD16O,1.200000X1.750000*%
G04 #@! TD*
G04 #@! TA.AperFunction,SMDPad,CuDef*
%ADD17RoundRect,0.250000X-0.287500X-0.275000X0.287500X-0.275000X0.287500X0.275000X-0.287500X0.275000X0*%
G04 #@! TD*
G04 #@! TA.AperFunction,SMDPad,CuDef*
%ADD18RoundRect,0.200000X-0.200000X-0.275000X0.200000X-0.275000X0.200000X0.275000X-0.200000X0.275000X0*%
G04 #@! TD*
G04 #@! TA.AperFunction,ComponentPad*
%ADD19C,3.000000*%
G04 #@! TD*
G04 #@! TA.AperFunction,SMDPad,CuDef*
%ADD20R,1.250000X3.000000*%
G04 #@! TD*
G04 #@! TA.AperFunction,ViaPad*
%ADD21C,0.800000*%
G04 #@! TD*
G04 #@! TA.AperFunction,Conductor*
%ADD22C,0.250000*%
G04 #@! TD*
G04 #@! TA.AperFunction,Conductor*
%ADD23C,0.200000*%
G04 #@! TD*
G04 APERTURE END LIST*
D10*
X183407291Y-96944118D03*
D11*
X183407291Y-98944118D03*
X183407291Y-100944118D03*
X183407291Y-102944118D03*
X183407291Y-104944118D03*
X183407291Y-106944118D03*
X183407291Y-108944118D03*
X183407291Y-110944118D03*
X183407291Y-112944118D03*
X183407291Y-114944118D03*
X126743500Y-86336780D03*
X126743500Y-84336780D03*
X126743500Y-82336780D03*
X126743500Y-80336780D03*
X126743500Y-78336780D03*
X126743500Y-76336780D03*
X126743500Y-74336780D03*
X126743500Y-72336780D03*
X126743500Y-70336780D03*
D10*
X126743500Y-68336780D03*
D11*
X148743500Y-86336780D03*
X148743500Y-84336780D03*
X148743500Y-82336780D03*
X148743500Y-80336780D03*
X148743500Y-78336780D03*
X148743500Y-76336780D03*
X148743500Y-74336780D03*
X148743500Y-72336780D03*
X148743500Y-70336780D03*
D10*
X148743500Y-68336780D03*
D12*
X129551500Y-83231780D03*
X145811500Y-83231780D03*
D13*
X130821500Y-77521780D03*
X133111500Y-77521780D03*
X142251500Y-77521780D03*
X144541500Y-77521780D03*
X134129500Y-82341780D03*
X135145500Y-84121780D03*
X136161500Y-82341780D03*
X137177500Y-84121780D03*
X138193500Y-82341780D03*
X139209500Y-84121780D03*
X140225500Y-82341780D03*
D14*
X141241500Y-84121780D03*
D15*
X169407291Y-108984118D03*
D16*
X171407291Y-108984118D03*
X173407291Y-108984118D03*
X175407291Y-108984118D03*
D17*
X144816500Y-71211780D03*
X143391500Y-71211780D03*
D10*
X161437291Y-96954118D03*
D11*
X161437291Y-98954118D03*
X161437291Y-100954118D03*
X161437291Y-102954118D03*
X161437291Y-104954118D03*
X161437291Y-106954118D03*
X161437291Y-108954118D03*
X161437291Y-110954118D03*
X161437291Y-112954118D03*
X161437291Y-114954118D03*
X161360800Y-86324480D03*
X161360800Y-84324480D03*
X161360800Y-82324480D03*
X161360800Y-80324480D03*
X161360800Y-78324480D03*
X161360800Y-76324480D03*
X161360800Y-74324480D03*
X161360800Y-72324480D03*
X161360800Y-70324480D03*
D10*
X161360800Y-68324480D03*
X148723491Y-96953118D03*
D11*
X148723491Y-98953118D03*
X148723491Y-100953118D03*
X148723491Y-102953118D03*
X148723491Y-104953118D03*
X148723491Y-106953118D03*
X148723491Y-108953118D03*
X148723491Y-110953118D03*
X148723491Y-112953118D03*
X148723491Y-114953118D03*
D18*
X144916500Y-67641780D03*
X143266500Y-67641780D03*
D15*
X135713491Y-108983118D03*
D16*
X137713491Y-108983118D03*
X139713491Y-108983118D03*
D11*
X183348200Y-86334880D03*
X183348200Y-84334880D03*
X183348200Y-82334880D03*
X183348200Y-80334880D03*
X183348200Y-78334880D03*
X183348200Y-76334880D03*
X183348200Y-74334880D03*
X183348200Y-72334880D03*
X183348200Y-70334880D03*
D10*
X183348200Y-68334880D03*
D18*
X144906500Y-74471780D03*
X143256500Y-74471780D03*
D19*
X178920000Y-80550280D03*
X165780000Y-80550280D03*
D20*
X175850000Y-76870280D03*
X173350000Y-76870280D03*
X171350000Y-76870280D03*
X168850000Y-76870280D03*
D18*
X144906500Y-72891780D03*
X143256500Y-72891780D03*
D10*
X126737291Y-96954118D03*
D11*
X126737291Y-98954118D03*
X126737291Y-100954118D03*
X126737291Y-102954118D03*
X126737291Y-104954118D03*
X126737291Y-106954118D03*
X126737291Y-108954118D03*
X126737291Y-110954118D03*
X126737291Y-112954118D03*
X126737291Y-114954118D03*
D18*
X144916500Y-69241780D03*
X143266500Y-69241780D03*
D21*
X137751500Y-71951780D03*
X141071500Y-80211780D03*
X135681500Y-70571780D03*
X129801500Y-75211780D03*
X132211500Y-82311780D03*
X137209421Y-75151780D03*
X146853500Y-76425671D03*
X142096218Y-80211780D03*
X138306003Y-73702280D03*
X135971500Y-67421780D03*
X135618002Y-72904422D03*
X138531500Y-75151780D03*
X131283500Y-70036780D03*
X139461500Y-67421780D03*
X139469000Y-77448691D03*
X128476000Y-75211780D03*
X136961500Y-69311780D03*
X140056784Y-80211780D03*
D22*
X183348200Y-68334880D02*
X179010400Y-68334880D01*
X133111500Y-77351780D02*
X133111500Y-77521780D01*
X146129000Y-66625676D02*
X146129000Y-77454560D01*
X144906500Y-67961780D02*
X144906500Y-69561780D01*
D23*
X141275500Y-84087780D02*
X141275500Y-80415780D01*
D22*
X161360800Y-86324480D02*
X165780000Y-81905280D01*
X136941500Y-69311780D02*
X135681500Y-70571780D01*
D23*
X142291500Y-85001780D02*
X142121500Y-85171780D01*
X141201500Y-77086855D02*
X141201500Y-79317062D01*
D22*
X179010400Y-68334880D02*
X171350000Y-75995280D01*
D23*
X143256500Y-73126780D02*
X143256500Y-72891780D01*
D22*
X131742491Y-114954118D02*
X126737291Y-114954118D01*
X128532466Y-86336780D02*
X126743500Y-86336780D01*
X145333962Y-66841780D02*
X145679000Y-67186818D01*
X169407291Y-104924118D02*
X161437291Y-96954118D01*
D23*
X139469000Y-77448691D02*
X136161500Y-80756191D01*
D22*
X135713491Y-108983118D02*
X135713491Y-105930318D01*
X129486220Y-77336780D02*
X126329286Y-77336780D01*
D23*
X139469000Y-76914280D02*
X143256500Y-73126780D01*
X142096218Y-80211780D02*
X142291500Y-80407062D01*
D22*
X144986780Y-78596780D02*
X143326500Y-78596780D01*
X129076500Y-75936780D02*
X128146500Y-75936780D01*
D23*
X144906500Y-74471780D02*
X143301500Y-76076780D01*
X140259500Y-85171780D02*
X139209500Y-84121780D01*
D22*
X173407291Y-106944118D02*
X183407291Y-96944118D01*
X175407291Y-106944118D02*
X183407291Y-98944118D01*
D23*
X142211575Y-76076780D02*
X141201500Y-77086855D01*
D22*
X175407291Y-108984118D02*
X175407291Y-106944118D01*
X169407291Y-108984118D02*
X169407291Y-104924118D01*
X134358565Y-74163859D02*
X132659141Y-74163859D01*
X137061500Y-71951780D02*
X135681500Y-70571780D01*
X125743500Y-79336780D02*
X126743500Y-80336780D01*
X146579000Y-76151171D02*
X146579000Y-66439280D01*
X145679000Y-76384280D02*
X144541500Y-77521780D01*
X144906500Y-72891780D02*
X144836500Y-72891780D01*
X173350000Y-76595280D02*
X173350000Y-76870280D01*
D23*
X136161500Y-80756191D02*
X136161500Y-82341780D01*
D22*
X125743500Y-77922566D02*
X125743500Y-79336780D01*
X141741500Y-69241780D02*
X133461500Y-77521780D01*
X165437291Y-114954118D02*
X161437291Y-114954118D01*
X175850000Y-76032480D02*
X175850000Y-75422480D01*
X138306003Y-74926283D02*
X138531500Y-75151780D01*
X142831500Y-70361780D02*
X138531500Y-74661780D01*
X143256500Y-67961780D02*
X144376500Y-66841780D01*
X144376500Y-66841780D02*
X145333962Y-66841780D01*
X161360800Y-68324480D02*
X161752000Y-68324480D01*
D23*
X141201500Y-79317062D02*
X142096218Y-80211780D01*
D22*
X143391500Y-71211780D02*
X143391500Y-71376780D01*
X132659141Y-74163859D02*
X129486220Y-77336780D01*
X161360800Y-68324480D02*
X168850000Y-75813680D01*
X138306003Y-73702280D02*
X138306003Y-74926283D01*
X173407291Y-108984118D02*
X173407291Y-106944118D01*
X137751500Y-71951780D02*
X137061500Y-71951780D01*
X146081500Y-65941780D02*
X129138500Y-65941780D01*
D23*
X140225500Y-82341780D02*
X140225500Y-80380496D01*
D22*
X143326500Y-78596780D02*
X142251500Y-77521780D01*
X139713491Y-108983118D02*
X139713491Y-105963118D01*
X165780000Y-81905280D02*
X165780000Y-79102480D01*
X129801500Y-75211780D02*
X129076500Y-75936780D01*
X138531500Y-74661780D02*
X138531500Y-75151780D01*
X130161500Y-67421780D02*
X135971500Y-67421780D01*
X139713491Y-105963118D02*
X148723491Y-96953118D01*
X127418500Y-79011780D02*
X126743500Y-78336780D01*
X146129000Y-77454560D02*
X144986780Y-78596780D01*
X137304871Y-79011780D02*
X127418500Y-79011780D01*
X132211500Y-82311780D02*
X132211500Y-82657746D01*
X144906500Y-71121780D02*
X144816500Y-71211780D01*
X138744000Y-77572651D02*
X137304871Y-79011780D01*
X178920000Y-79102480D02*
X175850000Y-76032480D01*
X144906500Y-69561780D02*
X144906500Y-71121780D01*
X128476000Y-75211780D02*
X129041500Y-74646280D01*
X171407291Y-108984118D02*
X165437291Y-114954118D01*
X183348200Y-70334880D02*
X179610400Y-70334880D01*
X135713491Y-105930318D02*
X126737291Y-96954118D01*
X131818500Y-70571780D02*
X135681500Y-70571780D01*
X133461500Y-77521780D02*
X133111500Y-77521780D01*
X143266500Y-69241780D02*
X141741500Y-69241780D01*
X126329286Y-77336780D02*
X125743500Y-77922566D01*
X137209421Y-75188457D02*
X138744000Y-76723036D01*
X144816500Y-71211780D02*
X144767173Y-71211780D01*
X132211500Y-82657746D02*
X128532466Y-86336780D01*
X145679000Y-67186818D02*
X145679000Y-76384280D01*
X146579000Y-66439280D02*
X146081500Y-65941780D01*
X135618002Y-72904422D02*
X134358565Y-74163859D01*
D23*
X141275500Y-80415780D02*
X141071500Y-80211780D01*
D22*
X127751500Y-75541780D02*
X127751500Y-69344780D01*
X129041500Y-74646280D02*
X129041500Y-68541780D01*
X128146500Y-75936780D02*
X127751500Y-75541780D01*
X137713491Y-108983118D02*
X131742491Y-114954118D01*
X171350000Y-75995280D02*
X171350000Y-76870280D01*
D23*
X139469000Y-77448691D02*
X139469000Y-76914280D01*
X141241500Y-84121780D02*
X141275500Y-84087780D01*
D22*
X129041500Y-68541780D02*
X130161500Y-67421780D01*
D23*
X143301500Y-76076780D02*
X142211575Y-76076780D01*
D22*
X146853500Y-76425671D02*
X146579000Y-76151171D01*
X139461500Y-67421780D02*
X140491500Y-66391780D01*
X131283500Y-70036780D02*
X131818500Y-70571780D01*
X179610400Y-70334880D02*
X173350000Y-76595280D01*
X145895104Y-66391780D02*
X146129000Y-66625676D01*
X143917173Y-70361780D02*
X142831500Y-70361780D01*
X138744000Y-76723036D02*
X138744000Y-77572651D01*
D23*
X140225500Y-80380496D02*
X140056784Y-80211780D01*
D22*
X136961500Y-69311780D02*
X136941500Y-69311780D01*
X144767173Y-71211780D02*
X143917173Y-70361780D01*
X129138500Y-65941780D02*
X126743500Y-68336780D01*
X144836500Y-72891780D02*
X143256500Y-74471780D01*
X143391500Y-71376780D02*
X144906500Y-72891780D01*
X140491500Y-66391780D02*
X145895104Y-66391780D01*
D23*
X142121500Y-85171780D02*
X140259500Y-85171780D01*
X142291500Y-80407062D02*
X142291500Y-85001780D01*
D22*
X165780000Y-79102480D02*
X178920000Y-79102480D01*
X127751500Y-69344780D02*
X126743500Y-68336780D01*
M02*
