%TF.GenerationSoftware,KiCad,Pcbnew,7.0.7*%
%TF.CreationDate,2023-10-04T22:58:44-06:00*%
%TF.ProjectId,Modular_Interfaces,4d6f6475-6c61-4725-9f49-6e7465726661,rev?*%
%TF.SameCoordinates,Original*%
%TF.FileFunction,Drillmap*%
%TF.FilePolarity,Positive*%
%FSLAX45Y45*%
G04 Gerber Fmt 4.5, Leading zero omitted, Abs format (unit mm)*
G04 Created by KiCad (PCBNEW 7.0.7) date 2023-10-04 22:58:44*
%MOMM*%
%LPD*%
G01*
G04 APERTURE LIST*
%ADD10C,0.150000*%
%ADD11C,0.200000*%
%ADD12C,0.325000*%
G04 APERTURE END LIST*
D10*
X15411971Y-10488499D02*
X15417845Y-10496591D01*
X12273132Y-10770312D02*
X12283124Y-10770669D01*
X15449282Y-7728789D02*
X15449275Y-7738788D01*
X15665486Y-10438381D02*
X15656644Y-10443049D01*
X18887100Y-10694316D02*
X18881216Y-10702399D01*
X12099001Y-10610404D02*
X12100147Y-10620336D01*
X15572673Y-7795967D02*
X15576573Y-7805174D01*
X12114130Y-10522687D02*
X12110242Y-10531899D01*
X15398732Y-10717394D02*
X15391555Y-10724356D01*
X15139350Y-8728678D02*
X15064350Y-8803678D01*
X12357430Y-10797462D02*
X12365350Y-10803564D01*
X15446551Y-10620336D02*
X15444839Y-10630187D01*
X12225240Y-7901646D02*
X12234913Y-7904176D01*
X12274133Y-7908678D02*
X12284125Y-7909035D01*
X18728581Y-7557174D02*
X18735700Y-7557348D01*
D11*
X18877729Y-10595412D02*
G75*
G03*
X18877729Y-10595412I-135000J0D01*
G01*
D10*
X12409828Y-10325151D02*
X12406051Y-10334409D01*
X15686377Y-7564442D02*
X15676869Y-7567533D01*
X15648083Y-10448214D02*
X15639831Y-10453860D01*
X18650728Y-10803664D02*
X18643247Y-10810296D01*
X18803644Y-7893620D02*
X18794323Y-7897237D01*
X15405645Y-10480757D02*
X15411971Y-10488499D01*
X15314003Y-7563229D02*
X15323672Y-7565772D01*
X15384164Y-10459868D02*
X15391718Y-10466417D01*
X12104131Y-10639925D02*
X12106955Y-10649516D01*
X15847245Y-7505243D02*
X15840569Y-7512686D01*
X18908933Y-7707542D02*
X18910067Y-7717476D01*
X12141053Y-10480757D02*
X12134727Y-10488499D01*
X18619442Y-10352136D02*
X18625035Y-10360424D01*
X12214726Y-10760201D02*
X12224239Y-10763280D01*
X18765335Y-7904820D02*
X18755437Y-7906231D01*
X15313787Y-7904176D02*
X15303985Y-7906150D01*
X18902094Y-7786552D02*
X18898727Y-7795967D01*
X18898727Y-7795967D02*
X18894827Y-7805174D01*
X15863997Y-7480420D02*
X15858987Y-7489072D01*
X12188265Y-7581315D02*
X12179704Y-7586480D01*
X15745475Y-7907705D02*
X15755418Y-7908750D01*
X12119642Y-7815473D02*
X12124566Y-7824175D01*
X18910625Y-7737458D02*
X18910048Y-7747440D01*
X15155655Y-10360324D02*
X15161804Y-10368207D01*
X15302984Y-10767784D02*
X15293086Y-10769195D01*
X15137871Y-7463518D02*
X15141648Y-7472775D01*
X15603549Y-7847070D02*
X15610317Y-7854430D01*
X12134727Y-10488499D02*
X12128853Y-10496591D01*
X15782000Y-10775943D02*
X15791516Y-10779008D01*
X18890511Y-7650749D02*
X18894919Y-7659723D01*
X12233696Y-10424863D02*
X12224027Y-10427406D01*
X12379837Y-10817329D02*
X12386335Y-10824928D01*
X15140647Y-10334409D02*
X15145052Y-10343384D01*
X12196305Y-10752440D02*
X12205405Y-10756584D01*
X15945700Y-6662348D02*
X16135700Y-6472348D01*
X15145052Y-10343384D02*
X15150062Y-10352036D01*
X18853372Y-10730996D02*
X18845448Y-10737094D01*
X15273566Y-10770312D02*
X15263574Y-10770669D01*
X18742729Y-10420412D02*
X18752724Y-10420697D01*
X18791839Y-10763380D02*
X18782166Y-10765910D01*
X18606250Y-10325251D02*
X18610027Y-10334509D01*
X15236629Y-10415600D02*
X15246384Y-10417790D01*
X15207275Y-7925332D02*
X15198591Y-7930287D01*
X12100116Y-10570506D02*
X12098982Y-10580440D01*
X12402647Y-7481750D02*
X12397637Y-7490402D01*
X12392044Y-7498690D02*
X12385895Y-7506573D01*
X18845627Y-10453860D02*
X18853544Y-10459968D01*
X15566482Y-7776961D02*
X15569306Y-7786552D01*
X15832793Y-10389173D02*
X15824734Y-10395090D01*
D11*
X15409350Y-7733678D02*
G75*
G03*
X15409350Y-7733678I-135000J0D01*
G01*
D10*
X15762447Y-10771814D02*
X15772295Y-10773541D01*
X18670935Y-7542133D02*
X18680035Y-7546275D01*
X18735610Y-10420237D02*
X18742729Y-10420412D01*
X18693942Y-10779008D02*
X18684659Y-10782722D01*
X12129979Y-7832582D02*
X12135863Y-7840666D01*
X18342729Y-9335412D02*
X18162729Y-9335412D01*
X15871026Y-10343484D02*
X15866016Y-10352136D01*
X18342729Y-11855412D02*
X16142729Y-11855412D01*
X18853906Y-7861392D02*
X18846343Y-7867932D01*
X15224562Y-10778908D02*
X15215279Y-10782622D01*
X15784487Y-7915944D02*
X15793770Y-7919658D01*
X18765553Y-7559913D02*
X18775353Y-7561899D01*
X15392719Y-7604784D02*
X15399887Y-7611754D01*
X18867996Y-7617793D02*
X18874322Y-7625536D01*
X15631914Y-10459968D02*
X15624360Y-10466517D01*
X15423133Y-10685809D02*
X15417720Y-10694216D01*
X15341293Y-10756584D02*
X15331972Y-10760201D01*
X15755418Y-7908750D02*
X15765266Y-7910477D01*
X15436456Y-10531899D02*
X15439811Y-10541318D01*
X15439743Y-10649516D02*
X15436376Y-10658931D01*
X12098417Y-10590423D02*
X12098424Y-10600422D01*
X12320652Y-7551111D02*
X12311070Y-7553966D01*
X15323672Y-7565772D02*
X15333181Y-7568863D01*
X15870700Y-8727348D02*
X15945700Y-8802348D01*
X16135700Y-6472348D02*
X18155700Y-6472348D01*
X18643247Y-10810296D02*
X18636241Y-10817429D01*
X18901856Y-10668237D02*
X18897437Y-10677207D01*
X15439811Y-10541318D02*
X15442623Y-10550913D01*
X15235079Y-7914209D02*
X15225563Y-7917274D01*
X15842188Y-7954365D02*
X15848686Y-7961964D01*
X15952729Y-11665412D02*
X16142729Y-11855412D01*
X12099418Y-7728789D02*
X12099425Y-7738788D01*
X12263354Y-10420597D02*
X12253393Y-10421453D01*
X15399733Y-7855760D02*
X15392556Y-7862722D01*
X18910067Y-7717476D02*
X18910632Y-7727459D01*
X15625057Y-7867932D02*
X15632981Y-7874030D01*
X18803848Y-7571162D02*
X18812943Y-7575317D01*
X15447552Y-7758702D02*
X15445840Y-7768553D01*
X15174868Y-7948563D02*
X15167862Y-7955695D01*
X18742946Y-10770412D02*
X18742946Y-10770412D01*
X12338114Y-10405097D02*
X12329014Y-10409238D01*
X18609411Y-10859328D02*
X18607729Y-11590412D01*
X15722773Y-10421553D02*
X15712876Y-10422977D01*
X15769694Y-10417890D02*
X15759812Y-10419405D01*
X18910632Y-7727459D02*
X18910625Y-7737458D01*
X15359434Y-10442949D02*
X15367995Y-10448114D01*
X15322459Y-10763280D02*
X15312786Y-10765810D01*
X12323137Y-7917274D02*
X12332420Y-7920988D01*
X18630831Y-7512686D02*
X18638003Y-7519652D01*
X15800465Y-7542133D02*
X15791365Y-7546275D01*
X18812744Y-7889476D02*
X18803644Y-7893620D01*
X15063349Y-9525312D02*
X14873349Y-9335312D01*
X18860935Y-10724456D02*
X18853372Y-10730996D01*
X18917661Y-10590523D02*
X18917655Y-10600522D01*
X18629743Y-10825028D02*
X18623784Y-10833056D01*
X15819781Y-7934498D02*
X15827701Y-7940600D01*
X18525700Y-6662348D02*
X18335700Y-6472348D01*
X15141032Y-7997594D02*
X15139350Y-8728678D01*
X18653695Y-7532026D02*
X18662141Y-7537376D01*
X15879208Y-10325251D02*
X15877729Y-9600412D01*
X15592831Y-10505104D02*
X15587918Y-10513813D01*
X15144214Y-10850147D02*
X15140031Y-10859228D01*
X15567804Y-10600522D02*
X15568381Y-10610504D01*
X15156656Y-7498690D02*
X15162805Y-7506573D01*
X18732955Y-10770769D02*
X18723011Y-10771814D01*
X18917077Y-10610504D02*
X18915931Y-10620436D01*
X15759812Y-10419405D02*
X15749848Y-10420237D01*
X15567797Y-10590523D02*
X15567804Y-10600522D01*
X12135728Y-7626866D02*
X12129854Y-7634957D01*
X12106887Y-10541318D02*
X12104075Y-10550913D01*
X12409350Y-6738678D02*
X12484350Y-6663678D01*
X15424134Y-7824175D02*
X15418721Y-7832582D01*
X15360242Y-7886149D02*
X15351394Y-7890806D01*
X15649615Y-7579985D02*
X15641054Y-7585150D01*
X12196106Y-10438281D02*
X12187264Y-10442949D01*
X12312620Y-10775843D02*
X12322136Y-10778908D01*
X15151063Y-7490402D02*
X15156656Y-7498690D01*
X15436376Y-10658931D02*
X15432476Y-10668137D01*
X15809804Y-10787066D02*
X15818488Y-10792021D01*
X18666970Y-10792021D02*
X18658648Y-10797562D01*
X15561352Y-7747440D02*
X15562498Y-7757372D01*
X12102860Y-7768553D02*
X12105132Y-7778291D01*
X12197306Y-7890806D02*
X12206406Y-7894950D01*
X15725926Y-7907075D02*
X15735483Y-7907348D01*
X15432568Y-10522687D02*
X15436456Y-10531899D01*
X12111243Y-7670265D02*
X12107888Y-7679684D01*
X18752503Y-10770139D02*
X18742946Y-10770412D01*
X18669170Y-10400440D02*
X18677964Y-10405197D01*
X18838419Y-7874030D02*
X18830160Y-7879665D01*
X15189268Y-10797462D02*
X15181348Y-10803564D01*
X18880196Y-7633627D02*
X18885599Y-7642040D01*
X12303916Y-7911807D02*
X12313621Y-7914209D01*
X12115131Y-7661053D02*
X12111243Y-7670265D01*
X15732955Y-10770139D02*
X15742512Y-10770412D01*
X18819773Y-10752540D02*
X18810674Y-10756684D01*
X12243496Y-10422877D02*
X12233696Y-10424863D01*
X18638003Y-7519652D02*
X18645636Y-7526109D01*
X15433569Y-7661053D02*
X15437457Y-7670265D01*
X18909191Y-10541418D02*
X18912003Y-10551013D01*
X15849217Y-10817429D02*
X15855715Y-10825028D01*
X15562467Y-7707542D02*
X15561333Y-7717476D01*
X15283344Y-10420597D02*
X15293306Y-10421453D01*
X12331419Y-10782622D02*
X12340424Y-10786966D01*
X18658648Y-10797562D02*
X18650728Y-10803664D01*
X15417845Y-10496591D02*
X15423248Y-10505004D01*
X18904974Y-7687949D02*
X18907234Y-7697689D01*
X15445884Y-7699019D02*
X15447583Y-7708872D01*
X15833397Y-7519652D02*
X15825764Y-7526109D01*
X15569306Y-7786552D02*
X15572673Y-7795967D01*
X15610317Y-7854430D02*
X15617494Y-7861392D01*
X15284345Y-7558964D02*
X15294306Y-7559820D01*
X12264355Y-7558964D02*
X12254393Y-7559820D01*
X15617192Y-10473488D02*
X15610433Y-10480857D01*
X15774971Y-7912879D02*
X15784487Y-7915944D01*
X18602382Y-7996264D02*
X18600700Y-8727348D01*
X12363413Y-10389073D02*
X12355354Y-10394990D01*
X12155981Y-7604784D02*
X12148813Y-7611754D01*
X15597078Y-7625536D02*
X15591204Y-7633627D01*
X15246384Y-10417790D02*
X15256266Y-10419305D01*
X15869018Y-7996264D02*
X15870700Y-8727348D01*
X18785023Y-7564442D02*
X18794531Y-7567533D01*
X18837375Y-10448214D02*
X18845627Y-10453860D01*
X18828814Y-10443049D02*
X18837375Y-10448214D01*
X12123451Y-10505004D02*
X12118538Y-10513713D01*
X18775137Y-7902846D02*
X18765335Y-7904820D01*
X15391555Y-10724356D02*
X15383992Y-10730896D01*
X12384894Y-10368207D02*
X12378218Y-10375649D01*
X12188458Y-7886149D02*
X12197306Y-7890806D01*
X18735917Y-7907348D02*
X18725925Y-7907705D01*
X15732734Y-10420697D02*
X15722773Y-10421553D01*
X15376247Y-10453760D02*
X15384164Y-10459868D01*
X18917655Y-10600522D02*
X18917077Y-10610504D01*
X12483349Y-9525312D02*
X12673349Y-9335312D01*
X12142199Y-7848400D02*
X12148967Y-7855760D01*
X15722992Y-10769295D02*
X15732955Y-10770139D01*
X15597213Y-7839336D02*
X15603549Y-7847070D01*
X15350393Y-10752440D02*
X15341293Y-10756584D01*
X18684659Y-10782722D02*
X18675654Y-10787066D01*
X12253612Y-10769195D02*
X12263575Y-10770039D01*
X15256266Y-10419305D02*
X15266230Y-10420137D01*
X15571239Y-10630287D02*
X15573511Y-10640025D01*
X12099983Y-7718806D02*
X12099418Y-7728789D01*
X18623784Y-10833056D02*
X18618392Y-10841475D01*
X15569238Y-7678354D02*
X15566426Y-7687949D01*
X12407668Y-7997594D02*
X12409350Y-8728678D01*
X15138349Y-9600312D02*
X15063349Y-9525312D01*
X12483349Y-11665312D02*
X12673349Y-11855312D01*
X18830160Y-7879665D02*
X18821592Y-7884819D01*
X12264576Y-7908405D02*
X12274133Y-7908678D01*
X12329014Y-10409238D02*
X12319651Y-10412745D01*
X15579702Y-10659031D02*
X15583602Y-10668237D01*
X12290432Y-10419305D02*
X12280468Y-10420137D01*
X15150062Y-10352036D02*
X15155655Y-10360324D01*
X15198591Y-7930287D02*
X15190269Y-7935828D01*
X18911947Y-10640025D02*
X18909123Y-10649616D01*
X15303985Y-7906150D02*
X15294087Y-7907561D01*
X15604107Y-10488599D02*
X15598233Y-10496691D01*
X15244784Y-7911807D02*
X15235079Y-7914209D01*
X12332420Y-7920988D02*
X12341425Y-7925332D01*
X18838598Y-7590796D02*
X18846515Y-7596904D01*
X15273349Y-10420312D02*
X15283344Y-10420597D01*
X15181348Y-10803564D02*
X15173867Y-10810196D01*
X12118641Y-10677107D02*
X12123565Y-10685809D01*
X15677077Y-7897237D02*
X15686590Y-7900316D01*
X18782382Y-10424963D02*
X18792052Y-10427506D01*
X18821785Y-7579985D02*
X18830346Y-7585150D01*
X18837189Y-10742729D02*
X18828621Y-10747883D01*
X15568362Y-10580540D02*
X15567797Y-10590523D01*
X18890408Y-7814143D02*
X18885484Y-7822845D01*
X15840426Y-10382716D02*
X15832793Y-10389173D01*
X15573455Y-10551013D02*
X15571195Y-10560753D01*
X18613594Y-10850247D02*
X18609411Y-10859328D01*
X15449275Y-7738788D02*
X15448698Y-7748770D01*
X18622714Y-7961964D02*
X18616755Y-7969992D01*
X12397637Y-7490402D02*
X12392044Y-7498690D01*
X18752724Y-10420697D02*
X18762686Y-10421553D01*
X15351593Y-7576647D02*
X15360435Y-7581315D01*
X15585916Y-7822845D02*
X15591329Y-7831252D01*
X14873349Y-11855312D02*
X12673349Y-11855312D01*
X15140031Y-10859228D02*
X15138349Y-11590312D01*
X15155405Y-7971322D02*
X15150013Y-7979742D01*
X12098424Y-10600422D02*
X12099001Y-10610404D01*
X15587918Y-10513813D02*
X15583510Y-10522787D01*
X15749848Y-10420237D02*
X15742729Y-10420412D01*
X15253631Y-10771714D02*
X15243783Y-10773441D01*
X14873349Y-9335312D02*
X14693349Y-9335312D01*
X15818488Y-10792021D02*
X15826810Y-10797562D01*
X18894827Y-7805174D02*
X18890408Y-7814143D01*
X18861083Y-7854430D02*
X18853906Y-7861392D01*
X15448281Y-10590423D02*
X15448274Y-10600422D01*
X15656837Y-10747883D02*
X15665685Y-10752540D01*
X12141198Y-10710034D02*
X12147966Y-10717394D01*
X15817705Y-7532026D02*
X15809259Y-7537376D01*
X15424248Y-7643370D02*
X15429161Y-7652079D01*
X15860423Y-10360424D02*
X15854274Y-10368307D01*
X18881351Y-10488599D02*
X18887225Y-10496691D01*
X12371046Y-10382616D02*
X12363413Y-10389073D01*
X18668625Y-7924002D02*
X18659941Y-7928957D01*
X12347909Y-7538706D02*
X12339115Y-7543463D01*
X15215279Y-10782622D02*
X15206274Y-10786966D01*
X12179704Y-7586480D02*
X12171452Y-7592126D01*
X15445840Y-7768553D02*
X15443568Y-7778291D01*
X18908902Y-7757372D02*
X18907190Y-7767223D01*
X15624885Y-7596904D02*
X15617331Y-7603454D01*
X12110322Y-10658931D02*
X12114222Y-10668137D01*
X12106955Y-10649516D02*
X12110322Y-10658931D01*
X15945700Y-8802348D02*
X16135700Y-8992348D01*
X18861237Y-7610424D02*
X18867996Y-7617793D01*
X18686913Y-7915944D02*
X18677630Y-7919658D01*
X12401646Y-10343384D02*
X12396636Y-10352036D01*
X18905836Y-10531999D02*
X18909191Y-10541418D01*
X18606565Y-7987183D02*
X18602382Y-7996264D01*
X15725705Y-7557634D02*
X15715743Y-7558490D01*
X18853544Y-10459968D02*
X18861098Y-10466517D01*
X15168480Y-10375649D02*
X15175652Y-10382616D01*
X12233912Y-10765810D02*
X12243714Y-10767784D01*
X12402484Y-10850147D02*
X12406667Y-10859228D01*
X15583510Y-10522787D02*
X15579622Y-10531999D01*
X12155143Y-10724356D02*
X12162706Y-10730896D01*
X18861098Y-10466517D02*
X18868266Y-10473488D01*
X15667552Y-7571162D02*
X15658457Y-7575317D01*
X15341497Y-10434126D02*
X15350592Y-10438281D01*
X15789031Y-10412845D02*
X15779449Y-10415700D01*
X15683898Y-10430597D02*
X15674581Y-10434226D01*
X18801561Y-10430597D02*
X18810877Y-10434226D01*
X12124451Y-7643370D02*
X12119539Y-7652079D01*
X12163535Y-7598234D02*
X12155981Y-7604784D01*
X15802775Y-7924002D02*
X15811459Y-7928957D01*
X15383992Y-10730896D02*
X15376068Y-10736994D01*
X15376068Y-10736994D02*
X15367809Y-10742629D01*
X12313621Y-7914209D02*
X12323137Y-7917274D01*
X15855715Y-10825028D02*
X15861674Y-10833056D01*
X15665685Y-10752540D02*
X15674785Y-10756684D01*
X15274567Y-7908678D02*
X15274567Y-7908678D01*
X15234078Y-10775843D02*
X15224562Y-10778908D01*
X15658457Y-7575317D02*
X15649615Y-7579985D01*
X18821592Y-7884819D02*
X18812744Y-7889476D01*
X18600700Y-8727348D02*
X18525700Y-8802348D01*
X15273566Y-10770312D02*
X15273566Y-10770312D01*
X18810674Y-10756684D02*
X18801352Y-10760301D01*
X12484350Y-6663678D02*
X12674350Y-6473678D01*
X15858987Y-7489072D02*
X15853394Y-7497360D01*
X18830346Y-7585150D02*
X18838598Y-7590796D01*
X15564210Y-7767223D02*
X15566482Y-7776961D01*
X18600700Y-6737348D02*
X18525700Y-6662348D01*
X12310069Y-10415600D02*
X12300314Y-10417790D01*
X12339115Y-7543463D02*
X12330015Y-7547605D01*
X15674785Y-10756684D02*
X15684106Y-10760301D01*
X15432476Y-10668137D02*
X15428057Y-10677107D01*
X18755657Y-7558490D02*
X18765553Y-7559913D01*
X15313002Y-10424863D02*
X15322672Y-10427406D01*
X12392294Y-10832956D02*
X12397686Y-10841375D01*
X18680035Y-7546275D02*
X18689398Y-7549781D01*
X15391718Y-10466417D02*
X15398886Y-10473388D01*
X12124566Y-7824175D02*
X12129979Y-7832582D01*
X18772364Y-10767884D02*
X18762466Y-10769295D01*
X15284124Y-7908405D02*
X15274567Y-7908678D01*
D11*
X12409350Y-7733678D02*
G75*
G03*
X12409350Y-7733678I-135000J0D01*
G01*
D10*
X15693407Y-10427506D02*
X15683898Y-10430597D01*
X12154980Y-10466417D02*
X12147812Y-10473388D01*
X15063349Y-11665312D02*
X14873349Y-11855312D01*
X15568381Y-10610504D02*
X15569527Y-10620436D01*
X15175652Y-10382616D02*
X15183285Y-10389073D01*
X12105076Y-7689279D02*
X12102816Y-7699019D01*
X15800799Y-10782722D02*
X15809804Y-10787066D01*
X15150013Y-7979742D02*
X15145215Y-7988513D01*
X12197107Y-7576647D02*
X12188265Y-7581315D01*
X12102816Y-7699019D02*
X12101117Y-7708872D01*
X15412837Y-7840666D02*
X15406501Y-7848400D01*
X15359241Y-10747783D02*
X15350393Y-10752440D01*
X15848686Y-7961964D02*
X15854645Y-7969992D01*
X18912003Y-10551013D02*
X18914263Y-10560753D01*
X12142054Y-7619123D02*
X12135728Y-7626866D01*
X15176653Y-7520982D02*
X15184286Y-7527439D01*
X15580992Y-7814143D02*
X15585916Y-7822845D01*
X15392556Y-7862722D02*
X15384993Y-7869262D01*
X12294068Y-7910080D02*
X12303916Y-7911807D01*
X15872179Y-7462188D02*
X15868402Y-7471445D01*
X15377069Y-7875360D02*
X15368810Y-7880995D01*
X15405500Y-10710034D02*
X15398732Y-10717394D01*
X15443568Y-7778291D02*
X15440744Y-7787882D01*
X18846515Y-7596904D02*
X18854069Y-7603454D01*
X18713164Y-10773541D02*
X18703458Y-10775943D01*
X14874350Y-8993678D02*
X12674350Y-8993678D01*
X15447716Y-10580440D02*
X15448281Y-10590423D01*
X15641054Y-7585150D02*
X15632802Y-7590796D01*
X18898807Y-7668935D02*
X18902162Y-7678354D01*
X12291433Y-7557671D02*
X12281469Y-7558504D01*
X15854274Y-10368307D02*
X15847598Y-10375749D01*
X15437377Y-7797297D02*
X15433477Y-7806504D01*
X15433477Y-7806504D02*
X15429058Y-7815473D01*
X15141648Y-7472775D02*
X15146053Y-7481750D01*
X18660724Y-10395090D02*
X18669170Y-10400440D01*
X15247385Y-7556156D02*
X15257267Y-7557671D01*
X18874880Y-10710134D02*
X18868112Y-10717494D01*
X15791516Y-10779008D02*
X15800799Y-10782722D01*
X18762466Y-10769295D02*
X18752503Y-10770139D01*
X18662141Y-7537376D02*
X18670935Y-7542133D01*
X12206202Y-7572492D02*
X12197107Y-7576647D01*
X15840569Y-7512686D02*
X15833397Y-7519652D01*
X12373832Y-7948563D02*
X12380838Y-7955695D01*
X18772582Y-10422977D02*
X18782382Y-10424963D01*
X15225563Y-7917274D02*
X15216280Y-7920988D01*
X18675654Y-10787066D02*
X18666970Y-10792021D01*
X18599221Y-7462188D02*
X18600700Y-6737348D01*
X12147812Y-10473388D02*
X12141053Y-10480757D01*
X15448274Y-10600422D02*
X15447697Y-10610404D01*
X18607729Y-11590412D02*
X18532729Y-11665412D01*
X18762686Y-10421553D02*
X18772582Y-10422977D01*
X18677964Y-10405197D02*
X18687064Y-10409338D01*
X15417720Y-10694216D02*
X15411836Y-10702299D01*
X18636241Y-10817429D02*
X18629743Y-10825028D01*
X15216280Y-7920988D02*
X15207275Y-7925332D01*
X15263574Y-10770669D02*
X15253631Y-10771714D01*
X12274350Y-7558678D02*
X12264355Y-7558964D01*
X15342498Y-7572492D02*
X15351593Y-7576647D01*
X12409350Y-8728678D02*
X12484350Y-8803678D01*
X15617346Y-10717494D02*
X15624523Y-10724456D01*
X12396636Y-10352036D02*
X12391043Y-10360324D01*
X12322136Y-10778908D02*
X12331419Y-10782622D01*
X18651619Y-7934498D02*
X18643699Y-7940600D01*
X15879208Y-10325251D02*
X15875431Y-10334509D01*
X12302915Y-10773441D02*
X12312620Y-10775843D01*
X15798394Y-10409338D02*
X15789031Y-10412845D01*
X18624155Y-7505243D02*
X18630831Y-7512686D01*
X15867066Y-10841475D02*
X15871864Y-10850247D01*
X15826810Y-10797562D02*
X15834730Y-10803664D01*
X15576573Y-7805174D02*
X15580992Y-7814143D01*
X18689398Y-7549781D02*
X18698980Y-7552636D01*
X18610027Y-10334509D02*
X18614432Y-10343484D01*
X18718617Y-7556341D02*
X18728581Y-7557174D01*
X15877729Y-9600412D02*
X15952729Y-9525412D01*
X12409828Y-10325151D02*
X12408349Y-9600312D01*
X12115223Y-7806504D02*
X12119642Y-7815473D01*
X12205201Y-10434126D02*
X12196106Y-10438281D01*
X18845448Y-10737094D02*
X18837189Y-10742729D01*
X12293067Y-10771714D02*
X12302915Y-10773441D01*
X18631184Y-10368307D02*
X18637860Y-10375749D01*
X15406646Y-7619123D02*
X15412972Y-7626866D01*
X18885484Y-7822845D02*
X18880071Y-7831252D01*
X15583602Y-10668237D02*
X15588021Y-10677207D01*
D11*
X12408349Y-10595312D02*
G75*
G03*
X12408349Y-10595312I-135000J0D01*
G01*
D10*
X18659941Y-7928957D02*
X18651619Y-7934498D01*
X15864835Y-7987183D02*
X15869018Y-7996264D01*
X18703458Y-10775943D02*
X18693942Y-10779008D01*
X15580889Y-7650749D02*
X15576481Y-7659723D01*
X12407052Y-7472775D02*
X12402647Y-7481750D01*
X12099425Y-7738788D02*
X12100002Y-7748770D01*
X18687064Y-10409338D02*
X18696427Y-10412845D01*
X12484350Y-8803678D02*
X12674350Y-8993678D01*
X18599221Y-7462188D02*
X18602998Y-7471445D01*
X15412972Y-7626866D02*
X15418846Y-7634957D01*
X12224239Y-10763280D02*
X12233912Y-10765810D01*
X15624360Y-10466517D02*
X15617192Y-10473488D01*
X15640010Y-10737094D02*
X15648269Y-10742729D01*
X18892628Y-10505104D02*
X18897541Y-10513813D01*
X15162805Y-7506573D02*
X15169481Y-7514016D01*
X12380838Y-7955695D02*
X12387336Y-7963294D01*
X12283124Y-10770669D02*
X12293067Y-10771714D01*
X15564166Y-7697689D02*
X15562467Y-7707542D01*
X15648269Y-10742729D02*
X15656837Y-10747883D01*
X12301315Y-7556156D02*
X12291433Y-7557671D01*
X18874187Y-7839336D02*
X18867851Y-7847070D01*
X15333181Y-7568863D02*
X15342498Y-7572492D01*
X18828621Y-10747883D02*
X18819773Y-10752540D01*
X15624523Y-10724456D02*
X15632086Y-10730996D01*
X15703292Y-10765910D02*
X15713094Y-10767884D01*
X12253393Y-10421453D02*
X12243496Y-10422877D01*
X15206274Y-10786966D02*
X15197590Y-10791921D01*
X18868112Y-10717494D02*
X18860935Y-10724456D01*
X12179890Y-7880995D02*
X12188458Y-7886149D01*
X12254393Y-7559820D02*
X12244497Y-7561243D01*
X12148813Y-7611754D02*
X12142054Y-7619123D01*
X15686590Y-7900316D02*
X15696263Y-7902846D01*
X18696427Y-10412845D02*
X18706009Y-10415700D01*
X14874350Y-6473678D02*
X14694350Y-6473678D01*
X15610433Y-10480857D02*
X15604107Y-10488599D01*
X12234913Y-7904176D02*
X12244715Y-7906150D01*
X15294306Y-7559820D02*
X15304203Y-7561243D01*
X12349108Y-10791921D02*
X12357430Y-10797462D01*
X18618392Y-10841475D02*
X18613594Y-10850247D01*
X18645636Y-7526109D02*
X18653695Y-7532026D01*
X15560775Y-7737458D02*
X15561352Y-7747440D01*
X18708735Y-7554826D02*
X18718617Y-7556341D01*
X18907190Y-7767223D02*
X18904918Y-7776961D01*
X12346908Y-10400340D02*
X12338114Y-10405097D01*
X15706065Y-7904820D02*
X15715963Y-7906231D01*
X18532729Y-11665412D02*
X18342729Y-11855412D01*
X15571195Y-10560753D02*
X15569496Y-10570606D01*
X15160363Y-10824928D02*
X15154404Y-10832956D01*
X18706134Y-7910477D02*
X18696429Y-7912879D01*
X15703076Y-10424963D02*
X15693407Y-10427506D01*
X15182349Y-7941930D02*
X15174868Y-7948563D01*
X12110242Y-10531899D02*
X12106887Y-10541318D01*
X18810877Y-10434226D02*
X18819972Y-10438381D01*
X18735700Y-7557348D02*
X18745695Y-7557634D01*
X15173867Y-10810196D02*
X15166861Y-10817329D01*
X15237630Y-7553966D02*
X15247385Y-7556156D01*
X15576267Y-10541418D02*
X15573455Y-10551013D01*
X18606250Y-10325251D02*
X18607729Y-9600412D01*
X15742512Y-10770412D02*
X15752504Y-10770769D01*
X18875025Y-10480857D02*
X18881351Y-10488599D01*
X15429161Y-7652079D02*
X15433569Y-7661053D01*
X15428057Y-10677107D02*
X15423133Y-10685809D01*
X18715764Y-10417890D02*
X18725647Y-10419405D01*
X15161804Y-10368207D02*
X15168480Y-10375649D01*
X15399887Y-7611754D02*
X15406646Y-7619123D01*
X18715982Y-7908750D02*
X18706134Y-7910477D01*
X15429058Y-7815473D02*
X15424134Y-7824175D01*
X18907234Y-7697689D02*
X18908933Y-7707542D01*
X15632086Y-10730996D02*
X15640010Y-10737094D01*
X18801352Y-10760301D02*
X18791839Y-10763380D01*
X12187264Y-10442949D02*
X12178703Y-10448114D01*
X15569496Y-10570606D02*
X15568362Y-10580540D01*
X18909123Y-10649616D02*
X18905756Y-10659031D01*
X12162706Y-10730896D02*
X12170630Y-10736994D01*
X15257267Y-7557671D02*
X15267231Y-7558504D01*
X15293306Y-10421453D02*
X15303202Y-10422877D01*
X15871864Y-10850247D02*
X15876047Y-10859328D01*
X15448698Y-7748770D02*
X15447552Y-7758702D01*
X12273349Y-10420312D02*
X12263354Y-10420597D01*
X12330015Y-7547605D02*
X12320652Y-7551111D01*
X12101148Y-7758702D02*
X12102860Y-7768553D01*
X15154404Y-10832956D02*
X15149012Y-10841375D01*
X12356355Y-7533356D02*
X12347909Y-7538706D01*
X15368810Y-7880995D02*
X15360242Y-7886149D01*
X12170630Y-10736994D02*
X12178889Y-10742629D01*
X12319651Y-10412745D02*
X12310069Y-10415600D01*
X15423248Y-10505004D02*
X15428160Y-10513713D01*
X15713094Y-10767884D02*
X15722992Y-10769295D01*
X15139350Y-6738678D02*
X15064350Y-6663678D01*
X12341425Y-7925332D02*
X12350109Y-7930287D01*
X15243783Y-10773441D02*
X15234078Y-10775843D01*
X15442567Y-10639925D02*
X15439743Y-10649516D01*
X15274350Y-7558678D02*
X15284345Y-7558964D01*
X18902162Y-7678354D02*
X18904974Y-7687949D01*
X12098982Y-10580440D02*
X12098417Y-10590423D01*
X15588021Y-10677207D02*
X15592945Y-10685909D01*
X18612413Y-7489072D02*
X18618006Y-7497360D01*
X15693619Y-10763380D02*
X15703292Y-10765910D01*
X15283123Y-10770039D02*
X15273566Y-10770312D01*
X15447583Y-7708872D02*
X15448717Y-7718806D01*
X18645032Y-10382716D02*
X18652665Y-10389173D01*
X15448717Y-7718806D02*
X15449282Y-7728789D01*
X15184286Y-7527439D02*
X15192345Y-7533356D01*
X15136870Y-10325151D02*
X15140647Y-10334409D01*
X15331972Y-10760201D02*
X15322459Y-10763280D01*
X15323460Y-7901646D02*
X15313787Y-7904176D01*
X18885599Y-7642040D02*
X18890511Y-7650749D01*
X15779449Y-10415700D02*
X15769694Y-10417890D01*
X15868402Y-7471445D02*
X15863997Y-7480420D01*
X15377248Y-7592126D02*
X15385165Y-7598234D01*
X18892513Y-10685909D02*
X18887100Y-10694316D01*
X15576481Y-7659723D02*
X15572593Y-7668935D01*
X15676869Y-7567533D02*
X15667552Y-7571162D01*
X12214518Y-10430497D02*
X12205201Y-10434126D01*
X15667756Y-7893620D02*
X15677077Y-7897237D01*
D11*
X18870700Y-7732348D02*
G75*
G03*
X18870700Y-7732348I-135000J0D01*
G01*
D10*
X15384993Y-7869262D02*
X15377069Y-7875360D01*
X15809259Y-7537376D02*
X15800465Y-7542133D01*
X12674350Y-6473678D02*
X14694350Y-6473678D01*
X12372831Y-10810196D02*
X12379837Y-10817329D01*
X15765266Y-7910477D02*
X15774971Y-7912879D01*
X12243714Y-10767784D02*
X12253612Y-10769195D01*
D11*
X15408349Y-10595312D02*
G75*
G03*
X15408349Y-10595312I-135000J0D01*
G01*
D10*
X18867851Y-7847070D02*
X18861083Y-7854430D01*
X15183285Y-10389073D02*
X15191344Y-10394990D01*
X15192345Y-7533356D02*
X15200791Y-7538706D01*
X12129854Y-7634957D02*
X12124451Y-7643370D01*
X18643699Y-7940600D02*
X18636218Y-7947233D01*
X15579622Y-10531999D02*
X15576267Y-10541418D01*
X15576335Y-10649616D02*
X15579702Y-10659031D01*
X15772295Y-10773541D02*
X15782000Y-10775943D01*
X12128978Y-10694216D02*
X12134862Y-10702299D01*
X12386335Y-10824928D02*
X12392294Y-10832956D01*
X15752504Y-10770769D02*
X15762447Y-10771814D01*
X18880071Y-7831252D02*
X18874187Y-7839336D01*
X12410829Y-7463518D02*
X12409350Y-6738678D01*
X12379219Y-7514016D02*
X12372047Y-7520982D01*
X15696263Y-7902846D02*
X15706065Y-7904820D01*
X18782166Y-10765910D02*
X18772364Y-10767884D01*
X15442623Y-10550913D02*
X15444883Y-10560653D01*
X15866016Y-10352136D02*
X15860423Y-10360424D01*
X18915962Y-10570606D02*
X18917096Y-10580540D01*
X12187457Y-10747783D02*
X12196305Y-10752440D01*
X12673349Y-9335312D02*
X14693349Y-9335312D01*
X15772420Y-7552636D02*
X15762665Y-7554826D01*
X15351394Y-7890806D02*
X15342294Y-7894950D01*
X18532729Y-9525412D02*
X18342729Y-9335412D01*
X15446582Y-10570506D02*
X15447716Y-10580440D01*
X15598358Y-10694316D02*
X15604242Y-10702399D01*
X15658656Y-7889476D02*
X15667756Y-7893620D01*
X15406501Y-7848400D02*
X15399733Y-7855760D01*
X12391043Y-10360324D02*
X12384894Y-10368207D01*
X15816288Y-10400440D02*
X15807494Y-10405197D01*
X12107888Y-7679684D02*
X12105076Y-7689279D01*
X12170451Y-10453760D02*
X12162534Y-10459868D01*
X15952729Y-9525412D02*
X16142729Y-9335412D01*
X18602998Y-7471445D02*
X18607403Y-7480420D01*
X15735483Y-7907348D02*
X15745475Y-7907705D01*
X12284125Y-7909035D02*
X12294068Y-7910080D01*
X15228048Y-7551111D02*
X15237630Y-7553966D01*
X18614432Y-10343484D02*
X18619442Y-10352136D01*
X18607729Y-9600412D02*
X18532729Y-9525412D01*
X15254632Y-7910080D02*
X15244784Y-7911807D01*
X18905756Y-10659031D02*
X18901856Y-10668237D01*
X12234697Y-7563229D02*
X12225027Y-7565772D01*
X12205405Y-10756584D02*
X12214726Y-10760201D01*
X15227047Y-10412745D02*
X15236629Y-10415600D01*
X15428160Y-10513713D02*
X15432568Y-10522687D01*
X12372047Y-7520982D02*
X12364414Y-7527439D01*
X15585801Y-7642040D02*
X15580889Y-7650749D01*
X15145215Y-7988513D02*
X15141032Y-7997594D01*
X15847598Y-10375749D02*
X15840426Y-10382716D01*
X18725925Y-7907705D02*
X18715982Y-7908750D01*
X18897437Y-10677207D02*
X18892513Y-10685909D01*
X18812943Y-7575317D02*
X18821785Y-7579985D01*
X18625035Y-10360424D02*
X18631184Y-10368307D01*
X15136870Y-10325151D02*
X15138349Y-9600312D01*
X15064350Y-6663678D02*
X14874350Y-6473678D01*
X15610163Y-7610424D02*
X15603404Y-7617793D01*
X15167862Y-7955695D02*
X15161364Y-7963294D01*
X12358431Y-7935828D02*
X12366351Y-7941930D01*
X15762665Y-7554826D02*
X15752783Y-7556341D01*
X15064350Y-8803678D02*
X14874350Y-8993678D01*
X15440812Y-7679684D02*
X15443624Y-7689279D01*
X12398687Y-7979742D02*
X12403485Y-7988513D01*
X12123565Y-10685809D02*
X12128978Y-10694216D01*
X12105132Y-7778291D02*
X12107956Y-7787882D01*
X15398886Y-10473388D02*
X15405645Y-10480757D01*
X18917096Y-10580540D02*
X18917661Y-10590523D01*
X15632981Y-7874030D02*
X15641240Y-7879665D01*
X15161364Y-7963294D02*
X15155405Y-7971322D01*
X15138349Y-11590312D02*
X15063349Y-11665312D01*
X15617331Y-7603454D02*
X15610163Y-7610424D01*
X15293086Y-10769195D02*
X15283123Y-10770039D01*
X12128853Y-10496591D02*
X12123451Y-10505004D01*
X18677630Y-7919658D02*
X18668625Y-7924002D01*
X12364414Y-7527439D02*
X12356355Y-7533356D01*
X12280468Y-10420137D02*
X12273349Y-10420312D01*
X18335700Y-8992348D02*
X16135700Y-8992348D01*
X15149012Y-10841375D02*
X15144214Y-10850147D01*
X12111323Y-7797297D02*
X12115223Y-7806504D01*
X15560768Y-7727459D02*
X15560775Y-7737458D01*
X15385165Y-7598234D02*
X15392719Y-7604784D01*
X15191344Y-10394990D02*
X15199790Y-10400340D01*
X18706009Y-10415700D02*
X18715764Y-10417890D01*
X15842211Y-10810296D02*
X15849217Y-10817429D01*
X15190269Y-7935828D02*
X15182349Y-7941930D01*
X15742729Y-10420412D02*
X15732734Y-10420697D01*
X18636218Y-7947233D02*
X18629212Y-7954365D01*
X18868266Y-10473488D02*
X18875025Y-10480857D01*
X15592945Y-10685909D02*
X15598358Y-10694316D01*
X15674581Y-10434226D02*
X15665486Y-10438381D01*
X12206406Y-7894950D02*
X12215727Y-7898567D01*
X15696047Y-7561899D02*
X15686377Y-7564442D01*
X12365350Y-10803564D02*
X12372831Y-10810196D01*
X15561333Y-7717476D02*
X15560768Y-7727459D01*
X15598233Y-10496691D02*
X15592831Y-10505104D01*
X12403485Y-7988513D02*
X12407668Y-7997594D01*
X12134862Y-10702299D02*
X12141198Y-10710034D01*
X12311070Y-7553966D02*
X12301315Y-7556156D01*
X18904918Y-7776961D02*
X18902094Y-7786552D01*
X18607403Y-7480420D02*
X18612413Y-7489072D01*
X18894919Y-7659723D02*
X18898807Y-7668935D01*
X15218685Y-7547605D02*
X15228048Y-7551111D01*
X15418721Y-7832582D02*
X15412837Y-7840666D01*
X15715743Y-7558490D02*
X15705847Y-7559913D01*
X12410829Y-7463518D02*
X12407052Y-7472775D01*
X15825764Y-7526109D02*
X15817705Y-7532026D01*
X12156144Y-7862722D02*
X12163707Y-7869262D01*
X18910048Y-7747440D02*
X18908902Y-7757372D01*
X18887225Y-10496691D02*
X18892628Y-10505104D01*
D11*
X15870700Y-7732348D02*
G75*
G03*
X15870700Y-7732348I-135000J0D01*
G01*
D10*
X18637860Y-10375749D02*
X18645032Y-10382716D01*
X15639831Y-10453860D02*
X15631914Y-10459968D01*
X18846343Y-7867932D02*
X18838419Y-7874030D01*
X15872179Y-7462188D02*
X15870700Y-6737348D01*
X12215519Y-7568863D02*
X12206202Y-7572492D01*
X18698980Y-7552636D02*
X18708735Y-7554826D01*
X15569527Y-10620436D02*
X15571239Y-10630287D01*
X15137871Y-7463518D02*
X15139350Y-6738678D01*
X12101117Y-7708872D02*
X12099983Y-7718806D01*
X18874322Y-7625536D02*
X18880196Y-7633627D01*
X15735700Y-7557348D02*
X15725705Y-7557634D01*
X12100147Y-10620336D02*
X12101859Y-10630187D01*
X12406051Y-10334409D02*
X12401646Y-10343384D01*
X15274567Y-7908678D02*
X15264575Y-7909035D01*
X15875431Y-10334509D02*
X15871026Y-10343484D01*
X15312786Y-10765810D02*
X15302984Y-10767784D01*
X12148967Y-7855760D02*
X12156144Y-7862722D01*
X15217684Y-10409238D02*
X15227047Y-10412745D01*
X18819972Y-10438381D02*
X18828814Y-10443049D01*
X12171452Y-7592126D02*
X12163535Y-7598234D01*
X12350109Y-7930287D02*
X12358431Y-7935828D01*
X15209585Y-7543463D02*
X15218685Y-7547605D01*
X12178703Y-10448114D02*
X12170451Y-10453760D01*
X15656644Y-10443049D02*
X15648083Y-10448214D01*
X15591329Y-7831252D02*
X15597213Y-7839336D01*
X15266230Y-10420137D02*
X15273349Y-10420312D01*
X15367995Y-10448114D02*
X15376247Y-10453760D01*
X15264575Y-7909035D02*
X15254632Y-7910080D01*
X12387336Y-7963294D02*
X12393295Y-7971322D01*
X15712876Y-10422977D02*
X15703076Y-10424963D01*
X12135863Y-7840666D02*
X12142199Y-7848400D01*
X15208584Y-10405097D02*
X15217684Y-10409238D01*
X15827701Y-7940600D02*
X15835182Y-7947233D01*
X12163707Y-7869262D02*
X12171631Y-7875360D01*
X15332973Y-7898567D02*
X15323460Y-7901646D01*
X12281469Y-7558504D02*
X12274350Y-7558678D01*
X12107956Y-7787882D02*
X12111323Y-7797297D01*
X12162534Y-10459868D02*
X12154980Y-10466417D01*
X18784810Y-7900316D02*
X18775137Y-7902846D01*
X15573511Y-10640025D02*
X15576335Y-10649616D01*
X12263575Y-10770039D02*
X12273132Y-10770312D01*
X15752783Y-7556341D02*
X15742819Y-7557174D01*
X18897541Y-10513813D02*
X18901948Y-10522787D01*
X18742946Y-10770412D02*
X18732955Y-10770769D01*
X12224027Y-10427406D02*
X12214518Y-10430497D01*
X15368996Y-7586480D02*
X15377248Y-7592126D01*
X12178889Y-10742629D02*
X12187457Y-10747783D01*
X12225027Y-7565772D02*
X12215519Y-7568863D01*
X15610578Y-10710134D02*
X15617346Y-10717494D01*
X15877729Y-11590412D02*
X15952729Y-11665412D01*
X15860037Y-7978412D02*
X15864835Y-7987183D01*
X15705847Y-7559913D02*
X15696047Y-7561899D01*
X12119539Y-7652079D02*
X12115131Y-7661053D01*
X15870700Y-6737348D02*
X15945700Y-6662348D01*
X15267231Y-7558504D02*
X15274350Y-7558678D01*
X15443624Y-7689279D02*
X15445884Y-7699019D01*
X15715963Y-7906231D02*
X15725926Y-7907075D01*
X15562498Y-7757372D02*
X15564210Y-7767223D01*
X15617494Y-7861392D02*
X15625057Y-7867932D01*
X15603404Y-7617793D02*
X15597078Y-7625536D01*
X15322672Y-10427406D02*
X15332180Y-10430497D01*
X18725647Y-10419405D02*
X18735610Y-10420237D01*
X12393295Y-7971322D02*
X12398687Y-7979742D01*
X18611363Y-7978412D02*
X18606565Y-7987183D01*
X12100002Y-7748770D02*
X12101148Y-7758702D01*
X15811459Y-7928957D02*
X15819781Y-7934498D01*
X12104075Y-10550913D02*
X12101815Y-10560653D01*
X15342294Y-7894950D02*
X15332973Y-7898567D01*
X15834730Y-10803664D02*
X15842211Y-10810296D01*
X18723011Y-10771814D02*
X18713164Y-10773541D01*
X18881216Y-10702399D02*
X18874880Y-10710134D01*
X15591204Y-7633627D02*
X15585801Y-7642040D01*
X15332180Y-10430497D02*
X15341497Y-10434126D01*
X18794531Y-7567533D02*
X18803848Y-7571162D01*
X15782002Y-7549781D02*
X15772420Y-7552636D01*
X15853394Y-7497360D02*
X15847245Y-7505243D01*
X18792052Y-10427506D02*
X18801561Y-10430597D01*
X15367809Y-10742629D02*
X15359241Y-10747783D01*
X12215727Y-7898567D02*
X12225240Y-7901646D01*
X18618006Y-7497360D02*
X18624155Y-7505243D01*
X15199790Y-10400340D02*
X15208584Y-10405097D01*
X18901948Y-10522787D02*
X18905836Y-10531999D01*
X18616755Y-7969992D02*
X18611363Y-7978412D01*
X18735917Y-7907348D02*
X18735917Y-7907348D01*
X15791365Y-7546275D02*
X15782002Y-7549781D01*
X15350592Y-10438281D02*
X15359434Y-10442949D01*
X15303202Y-10422877D02*
X15313002Y-10424863D01*
X15604242Y-10702399D02*
X15610578Y-10710134D01*
X12378218Y-10375649D02*
X12371046Y-10382616D01*
X12171631Y-7875360D02*
X12179890Y-7880995D01*
X12101859Y-10630187D02*
X12104131Y-10639925D01*
X12355354Y-10394990D02*
X12346908Y-10400340D01*
X15632802Y-7590796D02*
X15624885Y-7596904D01*
X18745474Y-7907075D02*
X18735917Y-7907348D01*
X18629212Y-7954365D02*
X18622714Y-7961964D01*
X12340424Y-10786966D02*
X12349108Y-10791921D01*
X15447697Y-10610404D02*
X15446551Y-10620336D01*
X18335700Y-6472348D02*
X18155700Y-6472348D01*
X15294087Y-7907561D02*
X15284124Y-7908405D01*
X12254613Y-7907561D02*
X12264576Y-7908405D01*
X18696429Y-7912879D02*
X18686913Y-7915944D01*
X15649808Y-7884819D02*
X15658656Y-7889476D01*
X15742819Y-7557174D02*
X15735700Y-7557348D01*
X15807494Y-10405197D02*
X15798394Y-10409338D01*
X15437457Y-7670265D02*
X15440812Y-7679684D01*
X15418846Y-7634957D02*
X15424248Y-7643370D01*
X18525700Y-8802348D02*
X18335700Y-8992348D01*
X12408349Y-9600312D02*
X12483349Y-9525312D01*
X12118538Y-10513713D02*
X12114130Y-10522687D01*
X15169481Y-7514016D02*
X15176653Y-7520982D01*
X12397686Y-10841375D02*
X12402484Y-10850147D01*
X15793770Y-7919658D02*
X15802775Y-7924002D01*
X12300314Y-10417790D02*
X12290432Y-10419305D01*
X12385895Y-7506573D02*
X12379219Y-7514016D01*
X12244715Y-7906150D02*
X12254613Y-7907561D01*
X12147966Y-10717394D02*
X12155143Y-10724356D01*
X15824734Y-10395090D02*
X15816288Y-10400440D01*
X15572593Y-7668935D02*
X15569238Y-7678354D01*
X12114222Y-10668137D02*
X12118641Y-10677107D01*
X15861674Y-10833056D02*
X15867066Y-10841475D01*
X18794323Y-7897237D02*
X18784810Y-7900316D01*
X15440744Y-7787882D02*
X15437377Y-7797297D01*
X15411836Y-10702299D02*
X15405500Y-10710034D01*
X12101815Y-10560653D02*
X12100116Y-10570506D01*
X18775353Y-7561899D02*
X18785023Y-7564442D01*
X15360435Y-7581315D02*
X15368996Y-7586480D01*
X12408349Y-11590312D02*
X12483349Y-11665312D01*
X18745695Y-7557634D02*
X18755657Y-7558490D01*
X15200791Y-7538706D02*
X15209585Y-7543463D01*
X15835182Y-7947233D02*
X15842188Y-7954365D01*
X15876047Y-10859328D02*
X15877729Y-11590412D01*
X18755437Y-7906231D02*
X18745474Y-7907075D01*
X15197590Y-10791921D02*
X15189268Y-10797462D01*
X15146053Y-7481750D02*
X15151063Y-7490402D01*
X18915931Y-10620436D02*
X18914219Y-10630287D01*
X15444883Y-10560653D02*
X15446582Y-10570506D01*
X18652665Y-10389173D02*
X18660724Y-10395090D01*
X18854069Y-7603454D02*
X18861237Y-7610424D01*
X15566426Y-7687949D02*
X15564166Y-7697689D01*
X12406667Y-10859228D02*
X12408349Y-11590312D01*
X15684106Y-10760301D02*
X15693619Y-10763380D01*
X12366351Y-7941930D02*
X12373832Y-7948563D01*
X12244497Y-7561243D02*
X12234697Y-7563229D01*
D11*
X15877729Y-10595412D02*
G75*
G03*
X15877729Y-10595412I-135000J0D01*
G01*
D10*
X15444839Y-10630187D02*
X15442567Y-10639925D01*
X16142729Y-9335412D02*
X18162729Y-9335412D01*
X15641240Y-7879665D02*
X15649808Y-7884819D01*
X18914263Y-10560753D02*
X18915962Y-10570606D01*
X15304203Y-7561243D02*
X15314003Y-7563229D01*
X18914219Y-10630287D02*
X18911947Y-10640025D01*
X15854645Y-7969992D02*
X15860037Y-7978412D01*
X15166861Y-10817329D02*
X15160363Y-10824928D01*
D11*
D12*
X12970650Y-8503678D02*
X13295650Y-8828678D01*
X13295650Y-8503678D02*
X12970650Y-8828678D01*
X14240650Y-8503678D02*
X14565650Y-8828678D01*
X14565650Y-8503678D02*
X14240650Y-8828678D01*
D11*
X12351694Y-12174396D02*
X12351694Y-11974396D01*
X12351694Y-11974396D02*
X12399313Y-11974396D01*
X12399313Y-11974396D02*
X12427885Y-11983919D01*
X12427885Y-11983919D02*
X12446932Y-12002967D01*
X12446932Y-12002967D02*
X12456456Y-12022015D01*
X12456456Y-12022015D02*
X12465980Y-12060110D01*
X12465980Y-12060110D02*
X12465980Y-12088681D01*
X12465980Y-12088681D02*
X12456456Y-12126776D01*
X12456456Y-12126776D02*
X12446932Y-12145824D01*
X12446932Y-12145824D02*
X12427885Y-12164872D01*
X12427885Y-12164872D02*
X12399313Y-12174396D01*
X12399313Y-12174396D02*
X12351694Y-12174396D01*
X12551694Y-12174396D02*
X12551694Y-12041062D01*
X12551694Y-12079157D02*
X12561218Y-12060110D01*
X12561218Y-12060110D02*
X12570742Y-12050586D01*
X12570742Y-12050586D02*
X12589789Y-12041062D01*
X12589789Y-12041062D02*
X12608837Y-12041062D01*
X12675504Y-12174396D02*
X12675504Y-12041062D01*
X12675504Y-11974396D02*
X12665980Y-11983919D01*
X12665980Y-11983919D02*
X12675504Y-11993443D01*
X12675504Y-11993443D02*
X12685027Y-11983919D01*
X12685027Y-11983919D02*
X12675504Y-11974396D01*
X12675504Y-11974396D02*
X12675504Y-11993443D01*
X12799313Y-12174396D02*
X12780266Y-12164872D01*
X12780266Y-12164872D02*
X12770742Y-12145824D01*
X12770742Y-12145824D02*
X12770742Y-11974396D01*
X12904075Y-12174396D02*
X12885027Y-12164872D01*
X12885027Y-12164872D02*
X12875504Y-12145824D01*
X12875504Y-12145824D02*
X12875504Y-11974396D01*
X13132647Y-12174396D02*
X13132647Y-11974396D01*
X13132647Y-11974396D02*
X13199313Y-12117253D01*
X13199313Y-12117253D02*
X13265980Y-11974396D01*
X13265980Y-11974396D02*
X13265980Y-12174396D01*
X13446932Y-12174396D02*
X13446932Y-12069634D01*
X13446932Y-12069634D02*
X13437408Y-12050586D01*
X13437408Y-12050586D02*
X13418361Y-12041062D01*
X13418361Y-12041062D02*
X13380266Y-12041062D01*
X13380266Y-12041062D02*
X13361218Y-12050586D01*
X13446932Y-12164872D02*
X13427885Y-12174396D01*
X13427885Y-12174396D02*
X13380266Y-12174396D01*
X13380266Y-12174396D02*
X13361218Y-12164872D01*
X13361218Y-12164872D02*
X13351694Y-12145824D01*
X13351694Y-12145824D02*
X13351694Y-12126776D01*
X13351694Y-12126776D02*
X13361218Y-12107729D01*
X13361218Y-12107729D02*
X13380266Y-12098205D01*
X13380266Y-12098205D02*
X13427885Y-12098205D01*
X13427885Y-12098205D02*
X13446932Y-12088681D01*
X13542170Y-12041062D02*
X13542170Y-12241062D01*
X13542170Y-12050586D02*
X13561218Y-12041062D01*
X13561218Y-12041062D02*
X13599313Y-12041062D01*
X13599313Y-12041062D02*
X13618361Y-12050586D01*
X13618361Y-12050586D02*
X13627885Y-12060110D01*
X13627885Y-12060110D02*
X13637408Y-12079157D01*
X13637408Y-12079157D02*
X13637408Y-12136300D01*
X13637408Y-12136300D02*
X13627885Y-12155348D01*
X13627885Y-12155348D02*
X13618361Y-12164872D01*
X13618361Y-12164872D02*
X13599313Y-12174396D01*
X13599313Y-12174396D02*
X13561218Y-12174396D01*
X13561218Y-12174396D02*
X13542170Y-12164872D01*
X13723123Y-12155348D02*
X13732647Y-12164872D01*
X13732647Y-12164872D02*
X13723123Y-12174396D01*
X13723123Y-12174396D02*
X13713599Y-12164872D01*
X13713599Y-12164872D02*
X13723123Y-12155348D01*
X13723123Y-12155348D02*
X13723123Y-12174396D01*
X13723123Y-12050586D02*
X13732647Y-12060110D01*
X13732647Y-12060110D02*
X13723123Y-12069634D01*
X13723123Y-12069634D02*
X13713599Y-12060110D01*
X13713599Y-12060110D02*
X13723123Y-12050586D01*
X13723123Y-12050586D02*
X13723123Y-12069634D01*
X11890917Y-12402912D02*
X12090917Y-12602912D01*
X12090917Y-12402912D02*
X11890917Y-12602912D01*
X12332647Y-12394396D02*
X12456456Y-12394396D01*
X12456456Y-12394396D02*
X12389789Y-12470586D01*
X12389789Y-12470586D02*
X12418361Y-12470586D01*
X12418361Y-12470586D02*
X12437408Y-12480110D01*
X12437408Y-12480110D02*
X12446932Y-12489634D01*
X12446932Y-12489634D02*
X12456456Y-12508681D01*
X12456456Y-12508681D02*
X12456456Y-12556300D01*
X12456456Y-12556300D02*
X12446932Y-12575348D01*
X12446932Y-12575348D02*
X12437408Y-12584872D01*
X12437408Y-12584872D02*
X12418361Y-12594396D01*
X12418361Y-12594396D02*
X12361218Y-12594396D01*
X12361218Y-12594396D02*
X12342170Y-12584872D01*
X12342170Y-12584872D02*
X12332647Y-12575348D01*
X12542170Y-12575348D02*
X12551694Y-12584872D01*
X12551694Y-12584872D02*
X12542170Y-12594396D01*
X12542170Y-12594396D02*
X12532647Y-12584872D01*
X12532647Y-12584872D02*
X12542170Y-12575348D01*
X12542170Y-12575348D02*
X12542170Y-12594396D01*
X12627885Y-12413443D02*
X12637408Y-12403919D01*
X12637408Y-12403919D02*
X12656456Y-12394396D01*
X12656456Y-12394396D02*
X12704075Y-12394396D01*
X12704075Y-12394396D02*
X12723123Y-12403919D01*
X12723123Y-12403919D02*
X12732647Y-12413443D01*
X12732647Y-12413443D02*
X12742170Y-12432491D01*
X12742170Y-12432491D02*
X12742170Y-12451538D01*
X12742170Y-12451538D02*
X12732647Y-12480110D01*
X12732647Y-12480110D02*
X12618361Y-12594396D01*
X12618361Y-12594396D02*
X12742170Y-12594396D01*
X12923123Y-12394396D02*
X12827885Y-12394396D01*
X12827885Y-12394396D02*
X12818361Y-12489634D01*
X12818361Y-12489634D02*
X12827885Y-12480110D01*
X12827885Y-12480110D02*
X12846932Y-12470586D01*
X12846932Y-12470586D02*
X12894551Y-12470586D01*
X12894551Y-12470586D02*
X12913599Y-12480110D01*
X12913599Y-12480110D02*
X12923123Y-12489634D01*
X12923123Y-12489634D02*
X12932647Y-12508681D01*
X12932647Y-12508681D02*
X12932647Y-12556300D01*
X12932647Y-12556300D02*
X12923123Y-12575348D01*
X12923123Y-12575348D02*
X12913599Y-12584872D01*
X12913599Y-12584872D02*
X12894551Y-12594396D01*
X12894551Y-12594396D02*
X12846932Y-12594396D01*
X12846932Y-12594396D02*
X12827885Y-12584872D01*
X12827885Y-12584872D02*
X12818361Y-12575348D01*
X13056456Y-12394396D02*
X13075504Y-12394396D01*
X13075504Y-12394396D02*
X13094551Y-12403919D01*
X13094551Y-12403919D02*
X13104075Y-12413443D01*
X13104075Y-12413443D02*
X13113599Y-12432491D01*
X13113599Y-12432491D02*
X13123123Y-12470586D01*
X13123123Y-12470586D02*
X13123123Y-12518205D01*
X13123123Y-12518205D02*
X13113599Y-12556300D01*
X13113599Y-12556300D02*
X13104075Y-12575348D01*
X13104075Y-12575348D02*
X13094551Y-12584872D01*
X13094551Y-12584872D02*
X13075504Y-12594396D01*
X13075504Y-12594396D02*
X13056456Y-12594396D01*
X13056456Y-12594396D02*
X13037408Y-12584872D01*
X13037408Y-12584872D02*
X13027885Y-12575348D01*
X13027885Y-12575348D02*
X13018361Y-12556300D01*
X13018361Y-12556300D02*
X13008837Y-12518205D01*
X13008837Y-12518205D02*
X13008837Y-12470586D01*
X13008837Y-12470586D02*
X13018361Y-12432491D01*
X13018361Y-12432491D02*
X13027885Y-12413443D01*
X13027885Y-12413443D02*
X13037408Y-12403919D01*
X13037408Y-12403919D02*
X13056456Y-12394396D01*
X13208837Y-12594396D02*
X13208837Y-12461062D01*
X13208837Y-12480110D02*
X13218361Y-12470586D01*
X13218361Y-12470586D02*
X13237408Y-12461062D01*
X13237408Y-12461062D02*
X13265980Y-12461062D01*
X13265980Y-12461062D02*
X13285028Y-12470586D01*
X13285028Y-12470586D02*
X13294551Y-12489634D01*
X13294551Y-12489634D02*
X13294551Y-12594396D01*
X13294551Y-12489634D02*
X13304075Y-12470586D01*
X13304075Y-12470586D02*
X13323123Y-12461062D01*
X13323123Y-12461062D02*
X13351694Y-12461062D01*
X13351694Y-12461062D02*
X13370742Y-12470586D01*
X13370742Y-12470586D02*
X13380266Y-12489634D01*
X13380266Y-12489634D02*
X13380266Y-12594396D01*
X13475504Y-12594396D02*
X13475504Y-12461062D01*
X13475504Y-12480110D02*
X13485028Y-12470586D01*
X13485028Y-12470586D02*
X13504075Y-12461062D01*
X13504075Y-12461062D02*
X13532647Y-12461062D01*
X13532647Y-12461062D02*
X13551694Y-12470586D01*
X13551694Y-12470586D02*
X13561218Y-12489634D01*
X13561218Y-12489634D02*
X13561218Y-12594396D01*
X13561218Y-12489634D02*
X13570742Y-12470586D01*
X13570742Y-12470586D02*
X13589789Y-12461062D01*
X13589789Y-12461062D02*
X13618361Y-12461062D01*
X13618361Y-12461062D02*
X13637409Y-12470586D01*
X13637409Y-12470586D02*
X13646932Y-12489634D01*
X13646932Y-12489634D02*
X13646932Y-12594396D01*
X14037409Y-12384872D02*
X13865980Y-12642015D01*
X14294551Y-12394396D02*
X14313599Y-12394396D01*
X14313599Y-12394396D02*
X14332647Y-12403919D01*
X14332647Y-12403919D02*
X14342171Y-12413443D01*
X14342171Y-12413443D02*
X14351694Y-12432491D01*
X14351694Y-12432491D02*
X14361218Y-12470586D01*
X14361218Y-12470586D02*
X14361218Y-12518205D01*
X14361218Y-12518205D02*
X14351694Y-12556300D01*
X14351694Y-12556300D02*
X14342171Y-12575348D01*
X14342171Y-12575348D02*
X14332647Y-12584872D01*
X14332647Y-12584872D02*
X14313599Y-12594396D01*
X14313599Y-12594396D02*
X14294551Y-12594396D01*
X14294551Y-12594396D02*
X14275504Y-12584872D01*
X14275504Y-12584872D02*
X14265980Y-12575348D01*
X14265980Y-12575348D02*
X14256456Y-12556300D01*
X14256456Y-12556300D02*
X14246932Y-12518205D01*
X14246932Y-12518205D02*
X14246932Y-12470586D01*
X14246932Y-12470586D02*
X14256456Y-12432491D01*
X14256456Y-12432491D02*
X14265980Y-12413443D01*
X14265980Y-12413443D02*
X14275504Y-12403919D01*
X14275504Y-12403919D02*
X14294551Y-12394396D01*
X14446932Y-12575348D02*
X14456456Y-12584872D01*
X14456456Y-12584872D02*
X14446932Y-12594396D01*
X14446932Y-12594396D02*
X14437409Y-12584872D01*
X14437409Y-12584872D02*
X14446932Y-12575348D01*
X14446932Y-12575348D02*
X14446932Y-12594396D01*
X14646932Y-12594396D02*
X14532647Y-12594396D01*
X14589790Y-12594396D02*
X14589790Y-12394396D01*
X14589790Y-12394396D02*
X14570742Y-12422967D01*
X14570742Y-12422967D02*
X14551694Y-12442015D01*
X14551694Y-12442015D02*
X14532647Y-12451538D01*
X14723123Y-12413443D02*
X14732647Y-12403919D01*
X14732647Y-12403919D02*
X14751694Y-12394396D01*
X14751694Y-12394396D02*
X14799313Y-12394396D01*
X14799313Y-12394396D02*
X14818361Y-12403919D01*
X14818361Y-12403919D02*
X14827885Y-12413443D01*
X14827885Y-12413443D02*
X14837409Y-12432491D01*
X14837409Y-12432491D02*
X14837409Y-12451538D01*
X14837409Y-12451538D02*
X14827885Y-12480110D01*
X14827885Y-12480110D02*
X14713599Y-12594396D01*
X14713599Y-12594396D02*
X14837409Y-12594396D01*
X14951694Y-12480110D02*
X14932647Y-12470586D01*
X14932647Y-12470586D02*
X14923123Y-12461062D01*
X14923123Y-12461062D02*
X14913599Y-12442015D01*
X14913599Y-12442015D02*
X14913599Y-12432491D01*
X14913599Y-12432491D02*
X14923123Y-12413443D01*
X14923123Y-12413443D02*
X14932647Y-12403919D01*
X14932647Y-12403919D02*
X14951694Y-12394396D01*
X14951694Y-12394396D02*
X14989790Y-12394396D01*
X14989790Y-12394396D02*
X15008837Y-12403919D01*
X15008837Y-12403919D02*
X15018361Y-12413443D01*
X15018361Y-12413443D02*
X15027885Y-12432491D01*
X15027885Y-12432491D02*
X15027885Y-12442015D01*
X15027885Y-12442015D02*
X15018361Y-12461062D01*
X15018361Y-12461062D02*
X15008837Y-12470586D01*
X15008837Y-12470586D02*
X14989790Y-12480110D01*
X14989790Y-12480110D02*
X14951694Y-12480110D01*
X14951694Y-12480110D02*
X14932647Y-12489634D01*
X14932647Y-12489634D02*
X14923123Y-12499157D01*
X14923123Y-12499157D02*
X14913599Y-12518205D01*
X14913599Y-12518205D02*
X14913599Y-12556300D01*
X14913599Y-12556300D02*
X14923123Y-12575348D01*
X14923123Y-12575348D02*
X14932647Y-12584872D01*
X14932647Y-12584872D02*
X14951694Y-12594396D01*
X14951694Y-12594396D02*
X14989790Y-12594396D01*
X14989790Y-12594396D02*
X15008837Y-12584872D01*
X15008837Y-12584872D02*
X15018361Y-12575348D01*
X15018361Y-12575348D02*
X15027885Y-12556300D01*
X15027885Y-12556300D02*
X15027885Y-12518205D01*
X15027885Y-12518205D02*
X15018361Y-12499157D01*
X15018361Y-12499157D02*
X15008837Y-12489634D01*
X15008837Y-12489634D02*
X14989790Y-12480110D01*
X15151694Y-12394396D02*
X15170742Y-12394396D01*
X15170742Y-12394396D02*
X15189790Y-12403919D01*
X15189790Y-12403919D02*
X15199313Y-12413443D01*
X15199313Y-12413443D02*
X15208837Y-12432491D01*
X15208837Y-12432491D02*
X15218361Y-12470586D01*
X15218361Y-12470586D02*
X15218361Y-12518205D01*
X15218361Y-12518205D02*
X15208837Y-12556300D01*
X15208837Y-12556300D02*
X15199313Y-12575348D01*
X15199313Y-12575348D02*
X15189790Y-12584872D01*
X15189790Y-12584872D02*
X15170742Y-12594396D01*
X15170742Y-12594396D02*
X15151694Y-12594396D01*
X15151694Y-12594396D02*
X15132647Y-12584872D01*
X15132647Y-12584872D02*
X15123123Y-12575348D01*
X15123123Y-12575348D02*
X15113599Y-12556300D01*
X15113599Y-12556300D02*
X15104075Y-12518205D01*
X15104075Y-12518205D02*
X15104075Y-12470586D01*
X15104075Y-12470586D02*
X15113599Y-12432491D01*
X15113599Y-12432491D02*
X15123123Y-12413443D01*
X15123123Y-12413443D02*
X15132647Y-12403919D01*
X15132647Y-12403919D02*
X15151694Y-12394396D01*
X15294552Y-12394396D02*
X15294552Y-12432491D01*
X15370742Y-12394396D02*
X15370742Y-12432491D01*
X15665980Y-12670586D02*
X15656456Y-12661062D01*
X15656456Y-12661062D02*
X15637409Y-12632491D01*
X15637409Y-12632491D02*
X15627885Y-12613443D01*
X15627885Y-12613443D02*
X15618361Y-12584872D01*
X15618361Y-12584872D02*
X15608837Y-12537253D01*
X15608837Y-12537253D02*
X15608837Y-12499157D01*
X15608837Y-12499157D02*
X15618361Y-12451538D01*
X15618361Y-12451538D02*
X15627885Y-12422967D01*
X15627885Y-12422967D02*
X15637409Y-12403919D01*
X15637409Y-12403919D02*
X15656456Y-12375348D01*
X15656456Y-12375348D02*
X15665980Y-12365824D01*
X15732647Y-12413443D02*
X15742171Y-12403919D01*
X15742171Y-12403919D02*
X15761218Y-12394396D01*
X15761218Y-12394396D02*
X15808837Y-12394396D01*
X15808837Y-12394396D02*
X15827885Y-12403919D01*
X15827885Y-12403919D02*
X15837409Y-12413443D01*
X15837409Y-12413443D02*
X15846933Y-12432491D01*
X15846933Y-12432491D02*
X15846933Y-12451538D01*
X15846933Y-12451538D02*
X15837409Y-12480110D01*
X15837409Y-12480110D02*
X15723123Y-12594396D01*
X15723123Y-12594396D02*
X15846933Y-12594396D01*
X16085028Y-12594396D02*
X16085028Y-12394396D01*
X16170742Y-12594396D02*
X16170742Y-12489634D01*
X16170742Y-12489634D02*
X16161218Y-12470586D01*
X16161218Y-12470586D02*
X16142171Y-12461062D01*
X16142171Y-12461062D02*
X16113599Y-12461062D01*
X16113599Y-12461062D02*
X16094552Y-12470586D01*
X16094552Y-12470586D02*
X16085028Y-12480110D01*
X16294552Y-12594396D02*
X16275504Y-12584872D01*
X16275504Y-12584872D02*
X16265980Y-12575348D01*
X16265980Y-12575348D02*
X16256456Y-12556300D01*
X16256456Y-12556300D02*
X16256456Y-12499157D01*
X16256456Y-12499157D02*
X16265980Y-12480110D01*
X16265980Y-12480110D02*
X16275504Y-12470586D01*
X16275504Y-12470586D02*
X16294552Y-12461062D01*
X16294552Y-12461062D02*
X16323123Y-12461062D01*
X16323123Y-12461062D02*
X16342171Y-12470586D01*
X16342171Y-12470586D02*
X16351695Y-12480110D01*
X16351695Y-12480110D02*
X16361218Y-12499157D01*
X16361218Y-12499157D02*
X16361218Y-12556300D01*
X16361218Y-12556300D02*
X16351695Y-12575348D01*
X16351695Y-12575348D02*
X16342171Y-12584872D01*
X16342171Y-12584872D02*
X16323123Y-12594396D01*
X16323123Y-12594396D02*
X16294552Y-12594396D01*
X16475504Y-12594396D02*
X16456456Y-12584872D01*
X16456456Y-12584872D02*
X16446933Y-12565824D01*
X16446933Y-12565824D02*
X16446933Y-12394396D01*
X16627885Y-12584872D02*
X16608837Y-12594396D01*
X16608837Y-12594396D02*
X16570742Y-12594396D01*
X16570742Y-12594396D02*
X16551695Y-12584872D01*
X16551695Y-12584872D02*
X16542171Y-12565824D01*
X16542171Y-12565824D02*
X16542171Y-12489634D01*
X16542171Y-12489634D02*
X16551695Y-12470586D01*
X16551695Y-12470586D02*
X16570742Y-12461062D01*
X16570742Y-12461062D02*
X16608837Y-12461062D01*
X16608837Y-12461062D02*
X16627885Y-12470586D01*
X16627885Y-12470586D02*
X16637409Y-12489634D01*
X16637409Y-12489634D02*
X16637409Y-12508681D01*
X16637409Y-12508681D02*
X16542171Y-12527729D01*
X16713599Y-12584872D02*
X16732647Y-12594396D01*
X16732647Y-12594396D02*
X16770742Y-12594396D01*
X16770742Y-12594396D02*
X16789790Y-12584872D01*
X16789790Y-12584872D02*
X16799314Y-12565824D01*
X16799314Y-12565824D02*
X16799314Y-12556300D01*
X16799314Y-12556300D02*
X16789790Y-12537253D01*
X16789790Y-12537253D02*
X16770742Y-12527729D01*
X16770742Y-12527729D02*
X16742171Y-12527729D01*
X16742171Y-12527729D02*
X16723123Y-12518205D01*
X16723123Y-12518205D02*
X16713599Y-12499157D01*
X16713599Y-12499157D02*
X16713599Y-12489634D01*
X16713599Y-12489634D02*
X16723123Y-12470586D01*
X16723123Y-12470586D02*
X16742171Y-12461062D01*
X16742171Y-12461062D02*
X16770742Y-12461062D01*
X16770742Y-12461062D02*
X16789790Y-12470586D01*
X16865980Y-12670586D02*
X16875504Y-12661062D01*
X16875504Y-12661062D02*
X16894552Y-12632491D01*
X16894552Y-12632491D02*
X16904076Y-12613443D01*
X16904076Y-12613443D02*
X16913599Y-12584872D01*
X16913599Y-12584872D02*
X16923123Y-12537253D01*
X16923123Y-12537253D02*
X16923123Y-12499157D01*
X16923123Y-12499157D02*
X16913599Y-12451538D01*
X16913599Y-12451538D02*
X16904076Y-12422967D01*
X16904076Y-12422967D02*
X16894552Y-12403919D01*
X16894552Y-12403919D02*
X16875504Y-12375348D01*
X16875504Y-12375348D02*
X16865980Y-12365824D01*
X17227885Y-12670586D02*
X17218361Y-12661062D01*
X17218361Y-12661062D02*
X17199314Y-12632491D01*
X17199314Y-12632491D02*
X17189790Y-12613443D01*
X17189790Y-12613443D02*
X17180266Y-12584872D01*
X17180266Y-12584872D02*
X17170742Y-12537253D01*
X17170742Y-12537253D02*
X17170742Y-12499157D01*
X17170742Y-12499157D02*
X17180266Y-12451538D01*
X17180266Y-12451538D02*
X17189790Y-12422967D01*
X17189790Y-12422967D02*
X17199314Y-12403919D01*
X17199314Y-12403919D02*
X17218361Y-12375348D01*
X17218361Y-12375348D02*
X17227885Y-12365824D01*
X17304076Y-12461062D02*
X17304076Y-12594396D01*
X17304076Y-12480110D02*
X17313599Y-12470586D01*
X17313599Y-12470586D02*
X17332647Y-12461062D01*
X17332647Y-12461062D02*
X17361219Y-12461062D01*
X17361219Y-12461062D02*
X17380266Y-12470586D01*
X17380266Y-12470586D02*
X17389790Y-12489634D01*
X17389790Y-12489634D02*
X17389790Y-12594396D01*
X17513599Y-12594396D02*
X17494552Y-12584872D01*
X17494552Y-12584872D02*
X17485028Y-12575348D01*
X17485028Y-12575348D02*
X17475504Y-12556300D01*
X17475504Y-12556300D02*
X17475504Y-12499157D01*
X17475504Y-12499157D02*
X17485028Y-12480110D01*
X17485028Y-12480110D02*
X17494552Y-12470586D01*
X17494552Y-12470586D02*
X17513599Y-12461062D01*
X17513599Y-12461062D02*
X17542171Y-12461062D01*
X17542171Y-12461062D02*
X17561219Y-12470586D01*
X17561219Y-12470586D02*
X17570742Y-12480110D01*
X17570742Y-12480110D02*
X17580266Y-12499157D01*
X17580266Y-12499157D02*
X17580266Y-12556300D01*
X17580266Y-12556300D02*
X17570742Y-12575348D01*
X17570742Y-12575348D02*
X17561219Y-12584872D01*
X17561219Y-12584872D02*
X17542171Y-12594396D01*
X17542171Y-12594396D02*
X17513599Y-12594396D01*
X17637409Y-12461062D02*
X17713599Y-12461062D01*
X17665980Y-12394396D02*
X17665980Y-12565824D01*
X17665980Y-12565824D02*
X17675504Y-12584872D01*
X17675504Y-12584872D02*
X17694552Y-12594396D01*
X17694552Y-12594396D02*
X17713599Y-12594396D01*
X17932647Y-12461062D02*
X17932647Y-12661062D01*
X17932647Y-12470586D02*
X17951695Y-12461062D01*
X17951695Y-12461062D02*
X17989790Y-12461062D01*
X17989790Y-12461062D02*
X18008838Y-12470586D01*
X18008838Y-12470586D02*
X18018361Y-12480110D01*
X18018361Y-12480110D02*
X18027885Y-12499157D01*
X18027885Y-12499157D02*
X18027885Y-12556300D01*
X18027885Y-12556300D02*
X18018361Y-12575348D01*
X18018361Y-12575348D02*
X18008838Y-12584872D01*
X18008838Y-12584872D02*
X17989790Y-12594396D01*
X17989790Y-12594396D02*
X17951695Y-12594396D01*
X17951695Y-12594396D02*
X17932647Y-12584872D01*
X18142171Y-12594396D02*
X18123123Y-12584872D01*
X18123123Y-12584872D02*
X18113600Y-12565824D01*
X18113600Y-12565824D02*
X18113600Y-12394396D01*
X18304076Y-12594396D02*
X18304076Y-12489634D01*
X18304076Y-12489634D02*
X18294552Y-12470586D01*
X18294552Y-12470586D02*
X18275504Y-12461062D01*
X18275504Y-12461062D02*
X18237409Y-12461062D01*
X18237409Y-12461062D02*
X18218361Y-12470586D01*
X18304076Y-12584872D02*
X18285028Y-12594396D01*
X18285028Y-12594396D02*
X18237409Y-12594396D01*
X18237409Y-12594396D02*
X18218361Y-12584872D01*
X18218361Y-12584872D02*
X18208838Y-12565824D01*
X18208838Y-12565824D02*
X18208838Y-12546776D01*
X18208838Y-12546776D02*
X18218361Y-12527729D01*
X18218361Y-12527729D02*
X18237409Y-12518205D01*
X18237409Y-12518205D02*
X18285028Y-12518205D01*
X18285028Y-12518205D02*
X18304076Y-12508681D01*
X18370742Y-12461062D02*
X18446933Y-12461062D01*
X18399314Y-12394396D02*
X18399314Y-12565824D01*
X18399314Y-12565824D02*
X18408838Y-12584872D01*
X18408838Y-12584872D02*
X18427885Y-12594396D01*
X18427885Y-12594396D02*
X18446933Y-12594396D01*
X18589790Y-12584872D02*
X18570742Y-12594396D01*
X18570742Y-12594396D02*
X18532647Y-12594396D01*
X18532647Y-12594396D02*
X18513600Y-12584872D01*
X18513600Y-12584872D02*
X18504076Y-12565824D01*
X18504076Y-12565824D02*
X18504076Y-12489634D01*
X18504076Y-12489634D02*
X18513600Y-12470586D01*
X18513600Y-12470586D02*
X18532647Y-12461062D01*
X18532647Y-12461062D02*
X18570742Y-12461062D01*
X18570742Y-12461062D02*
X18589790Y-12470586D01*
X18589790Y-12470586D02*
X18599314Y-12489634D01*
X18599314Y-12489634D02*
X18599314Y-12508681D01*
X18599314Y-12508681D02*
X18504076Y-12527729D01*
X18770742Y-12594396D02*
X18770742Y-12394396D01*
X18770742Y-12584872D02*
X18751695Y-12594396D01*
X18751695Y-12594396D02*
X18713600Y-12594396D01*
X18713600Y-12594396D02*
X18694552Y-12584872D01*
X18694552Y-12584872D02*
X18685028Y-12575348D01*
X18685028Y-12575348D02*
X18675504Y-12556300D01*
X18675504Y-12556300D02*
X18675504Y-12499157D01*
X18675504Y-12499157D02*
X18685028Y-12480110D01*
X18685028Y-12480110D02*
X18694552Y-12470586D01*
X18694552Y-12470586D02*
X18713600Y-12461062D01*
X18713600Y-12461062D02*
X18751695Y-12461062D01*
X18751695Y-12461062D02*
X18770742Y-12470586D01*
X18846933Y-12670586D02*
X18856457Y-12661062D01*
X18856457Y-12661062D02*
X18875504Y-12632491D01*
X18875504Y-12632491D02*
X18885028Y-12613443D01*
X18885028Y-12613443D02*
X18894552Y-12584872D01*
X18894552Y-12584872D02*
X18904076Y-12537253D01*
X18904076Y-12537253D02*
X18904076Y-12499157D01*
X18904076Y-12499157D02*
X18894552Y-12451538D01*
X18894552Y-12451538D02*
X18885028Y-12422967D01*
X18885028Y-12422967D02*
X18875504Y-12403919D01*
X18875504Y-12403919D02*
X18856457Y-12375348D01*
X18856457Y-12375348D02*
X18846933Y-12365824D01*
M02*
