M48
; DRILL file {KiCad 7.0.7} date Wed Oct  4 16:44:24 2023
; FORMAT={-:-/ absolute / metric / decimal}
; #@! TF.CreationDate,2023-10-04T16:44:24-06:00
; #@! TF.GenerationSoftware,Kicad,Pcbnew,7.0.7
; #@! TF.FileFunction,Plated,1,2,PTH
FMAT,2
METRIC
; #@! TA.AperFunction,Plated,PTH,ViaDrill
T1C0.400
; #@! TA.AperFunction,Plated,PTH,ComponentDrill
T2C0.750
; #@! TA.AperFunction,Plated,PTH,ComponentDrill
T3C0.800
; #@! TA.AperFunction,Plated,PTH,ComponentDrill
T4C0.890
; #@! TA.AperFunction,Plated,PTH,ComponentDrill
T5C1.570
; #@! TA.AperFunction,Plated,PTH,ComponentDrill
T6C2.300
%
G90
G05
T1
X114.223Y-53.653
X115.548Y-53.653
X117.03Y-48.478
X117.959Y-60.753
X121.365Y-51.345
X121.428Y-49.013
X121.718Y-45.863
X122.709Y-47.753
X122.956Y-53.593
X123.498Y-50.393
X124.053Y-52.143
X124.278Y-53.593
X125.209Y-45.863
X125.216Y-55.89
X125.804Y-58.653
X126.819Y-58.653
X127.843Y-58.653
X132.6Y-54.867
T2
X121.507Y-118.091
X123.507Y-118.091
X125.507Y-118.091
X179.777Y-117.941
X181.777Y-117.941
X183.777Y-117.941
X185.777Y-117.941
T3
X112.49Y-46.778
X112.49Y-48.778
X112.49Y-50.778
X112.49Y-52.778
X112.49Y-54.778
X112.49Y-56.778
X112.49Y-58.778
X112.49Y-60.778
X112.49Y-62.778
X112.49Y-64.778
X112.531Y-106.062
X112.531Y-108.062
X112.531Y-110.062
X112.531Y-112.062
X112.531Y-114.062
X112.531Y-116.062
X112.531Y-118.062
X112.531Y-120.062
X112.531Y-122.062
X112.531Y-124.062
X134.49Y-46.778
X134.49Y-48.778
X134.49Y-50.778
X134.49Y-52.778
X134.49Y-54.778
X134.49Y-56.778
X134.49Y-58.778
X134.49Y-60.778
X134.49Y-62.778
X134.49Y-64.778
X134.517Y-106.061
X134.517Y-108.061
X134.517Y-110.061
X134.517Y-112.061
X134.517Y-114.061
X134.517Y-116.061
X134.517Y-118.061
X134.517Y-120.061
X134.517Y-122.061
X134.517Y-124.061
X171.801Y-46.772
X171.801Y-48.772
X171.801Y-50.772
X171.801Y-52.772
X171.801Y-54.772
X171.801Y-56.772
X171.801Y-58.772
X171.801Y-60.772
X171.801Y-62.772
X171.801Y-64.772
X171.807Y-105.911
X171.807Y-107.911
X171.807Y-109.911
X171.807Y-111.911
X171.807Y-113.911
X171.807Y-115.911
X171.807Y-117.911
X171.807Y-119.911
X171.807Y-121.911
X171.807Y-123.911
X193.777Y-105.901
X193.777Y-107.901
X193.777Y-109.901
X193.777Y-111.901
X193.777Y-113.901
X193.777Y-115.901
X193.777Y-117.901
X193.777Y-119.901
X193.777Y-121.901
X193.777Y-123.901
X193.788Y-46.783
X193.788Y-48.783
X193.788Y-50.783
X193.788Y-52.783
X193.788Y-54.783
X193.788Y-56.783
X193.788Y-58.783
X193.788Y-60.783
X193.788Y-62.783
X193.788Y-64.783
T4
X116.569Y-55.963
X118.858Y-55.963
X119.876Y-60.783
X120.892Y-62.563
X121.908Y-60.783
X122.924Y-62.563
X123.941Y-60.783
X124.956Y-62.563
X125.972Y-60.783
X126.988Y-62.563
X127.998Y-55.963
X130.288Y-55.963
T5
X115.298Y-61.673
X131.558Y-61.673
T6
X176.22Y-58.998
X189.36Y-58.998
T0
M30
