G04 #@! TF.GenerationSoftware,KiCad,Pcbnew,7.0.7*
G04 #@! TF.CreationDate,2023-10-04T16:42:28-06:00*
G04 #@! TF.ProjectId,Modular_Interfaces,4d6f6475-6c61-4725-9f49-6e7465726661,rev?*
G04 #@! TF.SameCoordinates,Original*
G04 #@! TF.FileFunction,Legend,Bot*
G04 #@! TF.FilePolarity,Positive*
%FSLAX46Y46*%
G04 Gerber Fmt 4.6, Leading zero omitted, Abs format (unit mm)*
G04 Created by KiCad (PCBNEW 7.0.7) date 2023-10-04 16:42:28*
%MOMM*%
%LPD*%
G01*
G04 APERTURE LIST*
G04 Aperture macros list*
%AMRoundRect*
0 Rectangle with rounded corners*
0 $1 Rounding radius*
0 $2 $3 $4 $5 $6 $7 $8 $9 X,Y pos of 4 corners*
0 Add a 4 corners polygon primitive as box body*
4,1,4,$2,$3,$4,$5,$6,$7,$8,$9,$2,$3,0*
0 Add four circle primitives for the rounded corners*
1,1,$1+$1,$2,$3*
1,1,$1+$1,$4,$5*
1,1,$1+$1,$6,$7*
1,1,$1+$1,$8,$9*
0 Add four rect primitives between the rounded corners*
20,1,$1+$1,$2,$3,$4,$5,0*
20,1,$1+$1,$4,$5,$6,$7,0*
20,1,$1+$1,$6,$7,$8,$9,0*
20,1,$1+$1,$8,$9,$2,$3,0*%
G04 Aperture macros list end*
%ADD10C,0.150000*%
%ADD11C,0.120000*%
%ADD12R,1.350000X1.350000*%
%ADD13O,1.350000X1.350000*%
%ADD14C,3.250000*%
%ADD15R,1.500000X1.500000*%
%ADD16C,1.500000*%
%ADD17C,2.300000*%
%ADD18RoundRect,0.250000X-0.350000X-0.625000X0.350000X-0.625000X0.350000X0.625000X-0.350000X0.625000X0*%
%ADD19O,1.200000X1.750000*%
%ADD20C,3.000000*%
%ADD21RoundRect,0.218750X-0.218750X-0.256250X0.218750X-0.256250X0.218750X0.256250X-0.218750X0.256250X0*%
%ADD22R,2.200000X1.300000*%
%ADD23RoundRect,0.250000X-0.275000X0.287500X-0.275000X-0.287500X0.275000X-0.287500X0.275000X0.287500X0*%
%ADD24RoundRect,0.200000X-0.200000X-0.275000X0.200000X-0.275000X0.200000X0.275000X-0.200000X0.275000X0*%
%ADD25RoundRect,0.250000X-0.287500X-0.275000X0.287500X-0.275000X0.287500X0.275000X-0.287500X0.275000X0*%
%ADD26RoundRect,0.250000X0.287500X0.275000X-0.287500X0.275000X-0.287500X-0.275000X0.287500X-0.275000X0*%
%ADD27RoundRect,0.200000X0.200000X0.275000X-0.200000X0.275000X-0.200000X-0.275000X0.200000X-0.275000X0*%
%ADD28RoundRect,0.250000X0.275000X-0.287500X0.275000X0.287500X-0.275000X0.287500X-0.275000X-0.287500X0*%
%ADD29R,1.750000X0.450000*%
G04 APERTURE END LIST*
D10*
X114717666Y-59890519D02*
X115193856Y-59890519D01*
X115193856Y-59890519D02*
X115193856Y-58890519D01*
X113860523Y-59890519D02*
X114431951Y-59890519D01*
X114146237Y-59890519D02*
X114146237Y-58890519D01*
X114146237Y-58890519D02*
X114241475Y-59033376D01*
X114241475Y-59033376D02*
X114336713Y-59128614D01*
X114336713Y-59128614D02*
X114431951Y-59176233D01*
X117504690Y-44531328D02*
X117504690Y-45007519D01*
X117838023Y-44007519D02*
X117504690Y-44531328D01*
X117504690Y-44531328D02*
X117171357Y-44007519D01*
X116314214Y-45007519D02*
X116885642Y-45007519D01*
X116599928Y-45007519D02*
X116599928Y-44007519D01*
X116599928Y-44007519D02*
X116695166Y-44150376D01*
X116695166Y-44150376D02*
X116790404Y-44245614D01*
X116790404Y-44245614D02*
X116885642Y-44293233D01*
X126505166Y-67812280D02*
X126552785Y-67859900D01*
X126552785Y-67859900D02*
X126695642Y-67907519D01*
X126695642Y-67907519D02*
X126790880Y-67907519D01*
X126790880Y-67907519D02*
X126933737Y-67859900D01*
X126933737Y-67859900D02*
X127028975Y-67764661D01*
X127028975Y-67764661D02*
X127076594Y-67669423D01*
X127076594Y-67669423D02*
X127124213Y-67478947D01*
X127124213Y-67478947D02*
X127124213Y-67336090D01*
X127124213Y-67336090D02*
X127076594Y-67145614D01*
X127076594Y-67145614D02*
X127028975Y-67050376D01*
X127028975Y-67050376D02*
X126933737Y-66955138D01*
X126933737Y-66955138D02*
X126790880Y-66907519D01*
X126790880Y-66907519D02*
X126695642Y-66907519D01*
X126695642Y-66907519D02*
X126552785Y-66955138D01*
X126552785Y-66955138D02*
X126505166Y-67002757D01*
X125933737Y-67336090D02*
X126028975Y-67288471D01*
X126028975Y-67288471D02*
X126076594Y-67240852D01*
X126076594Y-67240852D02*
X126124213Y-67145614D01*
X126124213Y-67145614D02*
X126124213Y-67097995D01*
X126124213Y-67097995D02*
X126076594Y-67002757D01*
X126076594Y-67002757D02*
X126028975Y-66955138D01*
X126028975Y-66955138D02*
X125933737Y-66907519D01*
X125933737Y-66907519D02*
X125743261Y-66907519D01*
X125743261Y-66907519D02*
X125648023Y-66955138D01*
X125648023Y-66955138D02*
X125600404Y-67002757D01*
X125600404Y-67002757D02*
X125552785Y-67097995D01*
X125552785Y-67097995D02*
X125552785Y-67145614D01*
X125552785Y-67145614D02*
X125600404Y-67240852D01*
X125600404Y-67240852D02*
X125648023Y-67288471D01*
X125648023Y-67288471D02*
X125743261Y-67336090D01*
X125743261Y-67336090D02*
X125933737Y-67336090D01*
X125933737Y-67336090D02*
X126028975Y-67383709D01*
X126028975Y-67383709D02*
X126076594Y-67431328D01*
X126076594Y-67431328D02*
X126124213Y-67526566D01*
X126124213Y-67526566D02*
X126124213Y-67717042D01*
X126124213Y-67717042D02*
X126076594Y-67812280D01*
X126076594Y-67812280D02*
X126028975Y-67859900D01*
X126028975Y-67859900D02*
X125933737Y-67907519D01*
X125933737Y-67907519D02*
X125743261Y-67907519D01*
X125743261Y-67907519D02*
X125648023Y-67859900D01*
X125648023Y-67859900D02*
X125600404Y-67812280D01*
X125600404Y-67812280D02*
X125552785Y-67717042D01*
X125552785Y-67717042D02*
X125552785Y-67526566D01*
X125552785Y-67526566D02*
X125600404Y-67431328D01*
X125600404Y-67431328D02*
X125648023Y-67383709D01*
X125648023Y-67383709D02*
X125743261Y-67336090D01*
X132675166Y-58233519D02*
X133008499Y-57757328D01*
X133246594Y-58233519D02*
X133246594Y-57233519D01*
X133246594Y-57233519D02*
X132865642Y-57233519D01*
X132865642Y-57233519D02*
X132770404Y-57281138D01*
X132770404Y-57281138D02*
X132722785Y-57328757D01*
X132722785Y-57328757D02*
X132675166Y-57423995D01*
X132675166Y-57423995D02*
X132675166Y-57566852D01*
X132675166Y-57566852D02*
X132722785Y-57662090D01*
X132722785Y-57662090D02*
X132770404Y-57709709D01*
X132770404Y-57709709D02*
X132865642Y-57757328D01*
X132865642Y-57757328D02*
X133246594Y-57757328D01*
X131818023Y-57566852D02*
X131818023Y-58233519D01*
X132056118Y-57185900D02*
X132294213Y-57900185D01*
X132294213Y-57900185D02*
X131675166Y-57900185D01*
X124605166Y-67807280D02*
X124652785Y-67854900D01*
X124652785Y-67854900D02*
X124795642Y-67902519D01*
X124795642Y-67902519D02*
X124890880Y-67902519D01*
X124890880Y-67902519D02*
X125033737Y-67854900D01*
X125033737Y-67854900D02*
X125128975Y-67759661D01*
X125128975Y-67759661D02*
X125176594Y-67664423D01*
X125176594Y-67664423D02*
X125224213Y-67473947D01*
X125224213Y-67473947D02*
X125224213Y-67331090D01*
X125224213Y-67331090D02*
X125176594Y-67140614D01*
X125176594Y-67140614D02*
X125128975Y-67045376D01*
X125128975Y-67045376D02*
X125033737Y-66950138D01*
X125033737Y-66950138D02*
X124890880Y-66902519D01*
X124890880Y-66902519D02*
X124795642Y-66902519D01*
X124795642Y-66902519D02*
X124652785Y-66950138D01*
X124652785Y-66950138D02*
X124605166Y-66997757D01*
X124271832Y-66902519D02*
X123605166Y-66902519D01*
X123605166Y-66902519D02*
X124033737Y-67902519D01*
X117215166Y-54512280D02*
X117262785Y-54559900D01*
X117262785Y-54559900D02*
X117405642Y-54607519D01*
X117405642Y-54607519D02*
X117500880Y-54607519D01*
X117500880Y-54607519D02*
X117643737Y-54559900D01*
X117643737Y-54559900D02*
X117738975Y-54464661D01*
X117738975Y-54464661D02*
X117786594Y-54369423D01*
X117786594Y-54369423D02*
X117834213Y-54178947D01*
X117834213Y-54178947D02*
X117834213Y-54036090D01*
X117834213Y-54036090D02*
X117786594Y-53845614D01*
X117786594Y-53845614D02*
X117738975Y-53750376D01*
X117738975Y-53750376D02*
X117643737Y-53655138D01*
X117643737Y-53655138D02*
X117500880Y-53607519D01*
X117500880Y-53607519D02*
X117405642Y-53607519D01*
X117405642Y-53607519D02*
X117262785Y-53655138D01*
X117262785Y-53655138D02*
X117215166Y-53702757D01*
X116358023Y-53940852D02*
X116358023Y-54607519D01*
X116596118Y-53559900D02*
X116834213Y-54274185D01*
X116834213Y-54274185D02*
X116215166Y-54274185D01*
X114557666Y-58142280D02*
X114605285Y-58189900D01*
X114605285Y-58189900D02*
X114748142Y-58237519D01*
X114748142Y-58237519D02*
X114843380Y-58237519D01*
X114843380Y-58237519D02*
X114986237Y-58189900D01*
X114986237Y-58189900D02*
X115081475Y-58094661D01*
X115081475Y-58094661D02*
X115129094Y-57999423D01*
X115129094Y-57999423D02*
X115176713Y-57808947D01*
X115176713Y-57808947D02*
X115176713Y-57666090D01*
X115176713Y-57666090D02*
X115129094Y-57475614D01*
X115129094Y-57475614D02*
X115081475Y-57380376D01*
X115081475Y-57380376D02*
X114986237Y-57285138D01*
X114986237Y-57285138D02*
X114843380Y-57237519D01*
X114843380Y-57237519D02*
X114748142Y-57237519D01*
X114748142Y-57237519D02*
X114605285Y-57285138D01*
X114605285Y-57285138D02*
X114557666Y-57332757D01*
X114081475Y-58237519D02*
X113890999Y-58237519D01*
X113890999Y-58237519D02*
X113795761Y-58189900D01*
X113795761Y-58189900D02*
X113748142Y-58142280D01*
X113748142Y-58142280D02*
X113652904Y-57999423D01*
X113652904Y-57999423D02*
X113605285Y-57808947D01*
X113605285Y-57808947D02*
X113605285Y-57427995D01*
X113605285Y-57427995D02*
X113652904Y-57332757D01*
X113652904Y-57332757D02*
X113700523Y-57285138D01*
X113700523Y-57285138D02*
X113795761Y-57237519D01*
X113795761Y-57237519D02*
X113986237Y-57237519D01*
X113986237Y-57237519D02*
X114081475Y-57285138D01*
X114081475Y-57285138D02*
X114129094Y-57332757D01*
X114129094Y-57332757D02*
X114176713Y-57427995D01*
X114176713Y-57427995D02*
X114176713Y-57666090D01*
X114176713Y-57666090D02*
X114129094Y-57761328D01*
X114129094Y-57761328D02*
X114081475Y-57808947D01*
X114081475Y-57808947D02*
X113986237Y-57856566D01*
X113986237Y-57856566D02*
X113795761Y-57856566D01*
X113795761Y-57856566D02*
X113700523Y-57808947D01*
X113700523Y-57808947D02*
X113652904Y-57761328D01*
X113652904Y-57761328D02*
X113605285Y-57666090D01*
X132632166Y-52532519D02*
X132965499Y-52056328D01*
X133203594Y-52532519D02*
X133203594Y-51532519D01*
X133203594Y-51532519D02*
X132822642Y-51532519D01*
X132822642Y-51532519D02*
X132727404Y-51580138D01*
X132727404Y-51580138D02*
X132679785Y-51627757D01*
X132679785Y-51627757D02*
X132632166Y-51722995D01*
X132632166Y-51722995D02*
X132632166Y-51865852D01*
X132632166Y-51865852D02*
X132679785Y-51961090D01*
X132679785Y-51961090D02*
X132727404Y-52008709D01*
X132727404Y-52008709D02*
X132822642Y-52056328D01*
X132822642Y-52056328D02*
X133203594Y-52056328D01*
X132251213Y-51627757D02*
X132203594Y-51580138D01*
X132203594Y-51580138D02*
X132108356Y-51532519D01*
X132108356Y-51532519D02*
X131870261Y-51532519D01*
X131870261Y-51532519D02*
X131775023Y-51580138D01*
X131775023Y-51580138D02*
X131727404Y-51627757D01*
X131727404Y-51627757D02*
X131679785Y-51722995D01*
X131679785Y-51722995D02*
X131679785Y-51818233D01*
X131679785Y-51818233D02*
X131727404Y-51961090D01*
X131727404Y-51961090D02*
X132298832Y-52532519D01*
X132298832Y-52532519D02*
X131679785Y-52532519D01*
X132655166Y-59887519D02*
X132988499Y-59411328D01*
X133226594Y-59887519D02*
X133226594Y-58887519D01*
X133226594Y-58887519D02*
X132845642Y-58887519D01*
X132845642Y-58887519D02*
X132750404Y-58935138D01*
X132750404Y-58935138D02*
X132702785Y-58982757D01*
X132702785Y-58982757D02*
X132655166Y-59077995D01*
X132655166Y-59077995D02*
X132655166Y-59220852D01*
X132655166Y-59220852D02*
X132702785Y-59316090D01*
X132702785Y-59316090D02*
X132750404Y-59363709D01*
X132750404Y-59363709D02*
X132845642Y-59411328D01*
X132845642Y-59411328D02*
X133226594Y-59411328D01*
X131750404Y-58887519D02*
X132226594Y-58887519D01*
X132226594Y-58887519D02*
X132274213Y-59363709D01*
X132274213Y-59363709D02*
X132226594Y-59316090D01*
X132226594Y-59316090D02*
X132131356Y-59268471D01*
X132131356Y-59268471D02*
X131893261Y-59268471D01*
X131893261Y-59268471D02*
X131798023Y-59316090D01*
X131798023Y-59316090D02*
X131750404Y-59363709D01*
X131750404Y-59363709D02*
X131702785Y-59458947D01*
X131702785Y-59458947D02*
X131702785Y-59697042D01*
X131702785Y-59697042D02*
X131750404Y-59792280D01*
X131750404Y-59792280D02*
X131798023Y-59839900D01*
X131798023Y-59839900D02*
X131893261Y-59887519D01*
X131893261Y-59887519D02*
X132131356Y-59887519D01*
X132131356Y-59887519D02*
X132226594Y-59839900D01*
X132226594Y-59839900D02*
X132274213Y-59792280D01*
X132607166Y-51007519D02*
X132940499Y-50531328D01*
X133178594Y-51007519D02*
X133178594Y-50007519D01*
X133178594Y-50007519D02*
X132797642Y-50007519D01*
X132797642Y-50007519D02*
X132702404Y-50055138D01*
X132702404Y-50055138D02*
X132654785Y-50102757D01*
X132654785Y-50102757D02*
X132607166Y-50197995D01*
X132607166Y-50197995D02*
X132607166Y-50340852D01*
X132607166Y-50340852D02*
X132654785Y-50436090D01*
X132654785Y-50436090D02*
X132702404Y-50483709D01*
X132702404Y-50483709D02*
X132797642Y-50531328D01*
X132797642Y-50531328D02*
X133178594Y-50531328D01*
X131654785Y-51007519D02*
X132226213Y-51007519D01*
X131940499Y-51007519D02*
X131940499Y-50007519D01*
X131940499Y-50007519D02*
X132035737Y-50150376D01*
X132035737Y-50150376D02*
X132130975Y-50245614D01*
X132130975Y-50245614D02*
X132226213Y-50293233D01*
X114725166Y-52822280D02*
X114772785Y-52869900D01*
X114772785Y-52869900D02*
X114915642Y-52917519D01*
X114915642Y-52917519D02*
X115010880Y-52917519D01*
X115010880Y-52917519D02*
X115153737Y-52869900D01*
X115153737Y-52869900D02*
X115248975Y-52774661D01*
X115248975Y-52774661D02*
X115296594Y-52679423D01*
X115296594Y-52679423D02*
X115344213Y-52488947D01*
X115344213Y-52488947D02*
X115344213Y-52346090D01*
X115344213Y-52346090D02*
X115296594Y-52155614D01*
X115296594Y-52155614D02*
X115248975Y-52060376D01*
X115248975Y-52060376D02*
X115153737Y-51965138D01*
X115153737Y-51965138D02*
X115010880Y-51917519D01*
X115010880Y-51917519D02*
X114915642Y-51917519D01*
X114915642Y-51917519D02*
X114772785Y-51965138D01*
X114772785Y-51965138D02*
X114725166Y-52012757D01*
X114344213Y-52012757D02*
X114296594Y-51965138D01*
X114296594Y-51965138D02*
X114201356Y-51917519D01*
X114201356Y-51917519D02*
X113963261Y-51917519D01*
X113963261Y-51917519D02*
X113868023Y-51965138D01*
X113868023Y-51965138D02*
X113820404Y-52012757D01*
X113820404Y-52012757D02*
X113772785Y-52107995D01*
X113772785Y-52107995D02*
X113772785Y-52203233D01*
X113772785Y-52203233D02*
X113820404Y-52346090D01*
X113820404Y-52346090D02*
X114391832Y-52917519D01*
X114391832Y-52917519D02*
X113772785Y-52917519D01*
X114865166Y-44912280D02*
X114912785Y-44959900D01*
X114912785Y-44959900D02*
X115055642Y-45007519D01*
X115055642Y-45007519D02*
X115150880Y-45007519D01*
X115150880Y-45007519D02*
X115293737Y-44959900D01*
X115293737Y-44959900D02*
X115388975Y-44864661D01*
X115388975Y-44864661D02*
X115436594Y-44769423D01*
X115436594Y-44769423D02*
X115484213Y-44578947D01*
X115484213Y-44578947D02*
X115484213Y-44436090D01*
X115484213Y-44436090D02*
X115436594Y-44245614D01*
X115436594Y-44245614D02*
X115388975Y-44150376D01*
X115388975Y-44150376D02*
X115293737Y-44055138D01*
X115293737Y-44055138D02*
X115150880Y-44007519D01*
X115150880Y-44007519D02*
X115055642Y-44007519D01*
X115055642Y-44007519D02*
X114912785Y-44055138D01*
X114912785Y-44055138D02*
X114865166Y-44102757D01*
X114531832Y-44007519D02*
X113912785Y-44007519D01*
X113912785Y-44007519D02*
X114246118Y-44388471D01*
X114246118Y-44388471D02*
X114103261Y-44388471D01*
X114103261Y-44388471D02*
X114008023Y-44436090D01*
X114008023Y-44436090D02*
X113960404Y-44483709D01*
X113960404Y-44483709D02*
X113912785Y-44578947D01*
X113912785Y-44578947D02*
X113912785Y-44817042D01*
X113912785Y-44817042D02*
X113960404Y-44912280D01*
X113960404Y-44912280D02*
X114008023Y-44959900D01*
X114008023Y-44959900D02*
X114103261Y-45007519D01*
X114103261Y-45007519D02*
X114388975Y-45007519D01*
X114388975Y-45007519D02*
X114484213Y-44959900D01*
X114484213Y-44959900D02*
X114531832Y-44912280D01*
X132657166Y-54182519D02*
X132990499Y-53706328D01*
X133228594Y-54182519D02*
X133228594Y-53182519D01*
X133228594Y-53182519D02*
X132847642Y-53182519D01*
X132847642Y-53182519D02*
X132752404Y-53230138D01*
X132752404Y-53230138D02*
X132704785Y-53277757D01*
X132704785Y-53277757D02*
X132657166Y-53372995D01*
X132657166Y-53372995D02*
X132657166Y-53515852D01*
X132657166Y-53515852D02*
X132704785Y-53611090D01*
X132704785Y-53611090D02*
X132752404Y-53658709D01*
X132752404Y-53658709D02*
X132847642Y-53706328D01*
X132847642Y-53706328D02*
X133228594Y-53706328D01*
X132323832Y-53182519D02*
X131704785Y-53182519D01*
X131704785Y-53182519D02*
X132038118Y-53563471D01*
X132038118Y-53563471D02*
X131895261Y-53563471D01*
X131895261Y-53563471D02*
X131800023Y-53611090D01*
X131800023Y-53611090D02*
X131752404Y-53658709D01*
X131752404Y-53658709D02*
X131704785Y-53753947D01*
X131704785Y-53753947D02*
X131704785Y-53992042D01*
X131704785Y-53992042D02*
X131752404Y-54087280D01*
X131752404Y-54087280D02*
X131800023Y-54134900D01*
X131800023Y-54134900D02*
X131895261Y-54182519D01*
X131895261Y-54182519D02*
X132180975Y-54182519D01*
X132180975Y-54182519D02*
X132276213Y-54134900D01*
X132276213Y-54134900D02*
X132323832Y-54087280D01*
X120805166Y-67812280D02*
X120852785Y-67859900D01*
X120852785Y-67859900D02*
X120995642Y-67907519D01*
X120995642Y-67907519D02*
X121090880Y-67907519D01*
X121090880Y-67907519D02*
X121233737Y-67859900D01*
X121233737Y-67859900D02*
X121328975Y-67764661D01*
X121328975Y-67764661D02*
X121376594Y-67669423D01*
X121376594Y-67669423D02*
X121424213Y-67478947D01*
X121424213Y-67478947D02*
X121424213Y-67336090D01*
X121424213Y-67336090D02*
X121376594Y-67145614D01*
X121376594Y-67145614D02*
X121328975Y-67050376D01*
X121328975Y-67050376D02*
X121233737Y-66955138D01*
X121233737Y-66955138D02*
X121090880Y-66907519D01*
X121090880Y-66907519D02*
X120995642Y-66907519D01*
X120995642Y-66907519D02*
X120852785Y-66955138D01*
X120852785Y-66955138D02*
X120805166Y-67002757D01*
X119900404Y-66907519D02*
X120376594Y-66907519D01*
X120376594Y-66907519D02*
X120424213Y-67383709D01*
X120424213Y-67383709D02*
X120376594Y-67336090D01*
X120376594Y-67336090D02*
X120281356Y-67288471D01*
X120281356Y-67288471D02*
X120043261Y-67288471D01*
X120043261Y-67288471D02*
X119948023Y-67336090D01*
X119948023Y-67336090D02*
X119900404Y-67383709D01*
X119900404Y-67383709D02*
X119852785Y-67478947D01*
X119852785Y-67478947D02*
X119852785Y-67717042D01*
X119852785Y-67717042D02*
X119900404Y-67812280D01*
X119900404Y-67812280D02*
X119948023Y-67859900D01*
X119948023Y-67859900D02*
X120043261Y-67907519D01*
X120043261Y-67907519D02*
X120281356Y-67907519D01*
X120281356Y-67907519D02*
X120376594Y-67859900D01*
X120376594Y-67859900D02*
X120424213Y-67812280D01*
X131367166Y-46532280D02*
X131414785Y-46579900D01*
X131414785Y-46579900D02*
X131557642Y-46627519D01*
X131557642Y-46627519D02*
X131652880Y-46627519D01*
X131652880Y-46627519D02*
X131795737Y-46579900D01*
X131795737Y-46579900D02*
X131890975Y-46484661D01*
X131890975Y-46484661D02*
X131938594Y-46389423D01*
X131938594Y-46389423D02*
X131986213Y-46198947D01*
X131986213Y-46198947D02*
X131986213Y-46056090D01*
X131986213Y-46056090D02*
X131938594Y-45865614D01*
X131938594Y-45865614D02*
X131890975Y-45770376D01*
X131890975Y-45770376D02*
X131795737Y-45675138D01*
X131795737Y-45675138D02*
X131652880Y-45627519D01*
X131652880Y-45627519D02*
X131557642Y-45627519D01*
X131557642Y-45627519D02*
X131414785Y-45675138D01*
X131414785Y-45675138D02*
X131367166Y-45722757D01*
X130414785Y-46627519D02*
X130986213Y-46627519D01*
X130700499Y-46627519D02*
X130700499Y-45627519D01*
X130700499Y-45627519D02*
X130795737Y-45770376D01*
X130795737Y-45770376D02*
X130890975Y-45865614D01*
X130890975Y-45865614D02*
X130986213Y-45913233D01*
X122705166Y-67812280D02*
X122752785Y-67859900D01*
X122752785Y-67859900D02*
X122895642Y-67907519D01*
X122895642Y-67907519D02*
X122990880Y-67907519D01*
X122990880Y-67907519D02*
X123133737Y-67859900D01*
X123133737Y-67859900D02*
X123228975Y-67764661D01*
X123228975Y-67764661D02*
X123276594Y-67669423D01*
X123276594Y-67669423D02*
X123324213Y-67478947D01*
X123324213Y-67478947D02*
X123324213Y-67336090D01*
X123324213Y-67336090D02*
X123276594Y-67145614D01*
X123276594Y-67145614D02*
X123228975Y-67050376D01*
X123228975Y-67050376D02*
X123133737Y-66955138D01*
X123133737Y-66955138D02*
X122990880Y-66907519D01*
X122990880Y-66907519D02*
X122895642Y-66907519D01*
X122895642Y-66907519D02*
X122752785Y-66955138D01*
X122752785Y-66955138D02*
X122705166Y-67002757D01*
X121848023Y-66907519D02*
X122038499Y-66907519D01*
X122038499Y-66907519D02*
X122133737Y-66955138D01*
X122133737Y-66955138D02*
X122181356Y-67002757D01*
X122181356Y-67002757D02*
X122276594Y-67145614D01*
X122276594Y-67145614D02*
X122324213Y-67336090D01*
X122324213Y-67336090D02*
X122324213Y-67717042D01*
X122324213Y-67717042D02*
X122276594Y-67812280D01*
X122276594Y-67812280D02*
X122228975Y-67859900D01*
X122228975Y-67859900D02*
X122133737Y-67907519D01*
X122133737Y-67907519D02*
X121943261Y-67907519D01*
X121943261Y-67907519D02*
X121848023Y-67859900D01*
X121848023Y-67859900D02*
X121800404Y-67812280D01*
X121800404Y-67812280D02*
X121752785Y-67717042D01*
X121752785Y-67717042D02*
X121752785Y-67478947D01*
X121752785Y-67478947D02*
X121800404Y-67383709D01*
X121800404Y-67383709D02*
X121848023Y-67336090D01*
X121848023Y-67336090D02*
X121943261Y-67288471D01*
X121943261Y-67288471D02*
X122133737Y-67288471D01*
X122133737Y-67288471D02*
X122228975Y-67336090D01*
X122228975Y-67336090D02*
X122276594Y-67383709D01*
X122276594Y-67383709D02*
X122324213Y-67478947D01*
X124250404Y-55607519D02*
X124250404Y-56417042D01*
X124250404Y-56417042D02*
X124202785Y-56512280D01*
X124202785Y-56512280D02*
X124155166Y-56559900D01*
X124155166Y-56559900D02*
X124059928Y-56607519D01*
X124059928Y-56607519D02*
X123869452Y-56607519D01*
X123869452Y-56607519D02*
X123774214Y-56559900D01*
X123774214Y-56559900D02*
X123726595Y-56512280D01*
X123726595Y-56512280D02*
X123678976Y-56417042D01*
X123678976Y-56417042D02*
X123678976Y-55607519D01*
X122774214Y-55940852D02*
X122774214Y-56607519D01*
X123012309Y-55559900D02*
X123250404Y-56274185D01*
X123250404Y-56274185D02*
X122631357Y-56274185D01*
X123527000Y-105261200D02*
X123052000Y-105736200D01*
X123527000Y-105261200D02*
X124002000Y-105736200D01*
X123527000Y-105261200D02*
X123052000Y-104786200D01*
X123527000Y-105261200D02*
X124002000Y-104786200D01*
X123527000Y-104561200D02*
X123527000Y-103461200D01*
X123527000Y-103461200D02*
X123177000Y-103861200D01*
X123527000Y-103461200D02*
X123877000Y-103861200D01*
X124227446Y-105261200D02*
G75*
G03*
X124227446Y-105261200I-700446J0D01*
G01*
X182797000Y-45971200D02*
X182322000Y-46446200D01*
X182797000Y-45971200D02*
X183272000Y-46446200D01*
X182797000Y-45971200D02*
X182322000Y-45496200D01*
X182797000Y-45971200D02*
X183272000Y-45496200D01*
X182797000Y-45271200D02*
X182797000Y-44171200D01*
X182797000Y-44171200D02*
X182447000Y-44571200D01*
X182797000Y-44171200D02*
X183147000Y-44571200D01*
X183497446Y-45971200D02*
G75*
G03*
X183497446Y-45971200I-700446J0D01*
G01*
X182797000Y-105111200D02*
X182322000Y-105586200D01*
X182797000Y-105111200D02*
X183272000Y-105586200D01*
X182797000Y-105111200D02*
X182322000Y-104636200D01*
X182797000Y-105111200D02*
X183272000Y-104636200D01*
X182797000Y-104411200D02*
X182797000Y-103311200D01*
X182797000Y-103311200D02*
X182447000Y-103711200D01*
X182797000Y-103311200D02*
X183147000Y-103711200D01*
X183497446Y-105111200D02*
G75*
G03*
X183497446Y-105111200I-700446J0D01*
G01*
D11*
X116878221Y-58926700D02*
X117203779Y-58926700D01*
X116878221Y-59946700D02*
X117203779Y-59946700D01*
X118130500Y-51427700D02*
X115930500Y-51427700D01*
X115880500Y-49727700D02*
X115880500Y-47227700D01*
X118180500Y-49727700D02*
X118180500Y-47227700D01*
X127123500Y-63802700D02*
X127123500Y-66112700D01*
X125553500Y-63802700D02*
X127123500Y-63802700D01*
X125553500Y-66112700D02*
X125553500Y-63802700D01*
X129731242Y-57260200D02*
X130205758Y-57260200D01*
X129731242Y-58305200D02*
X130205758Y-58305200D01*
X125223500Y-63802700D02*
X125223500Y-66112700D01*
X123653500Y-63802700D02*
X125223500Y-63802700D01*
X123653500Y-66112700D02*
X123653500Y-63802700D01*
X115543000Y-51677700D02*
X117853000Y-51677700D01*
X115543000Y-53247700D02*
X115543000Y-51677700D01*
X117853000Y-53247700D02*
X115543000Y-53247700D01*
X118573500Y-58567700D02*
X116263500Y-58567700D01*
X118573500Y-56997700D02*
X118573500Y-58567700D01*
X116263500Y-56997700D02*
X118573500Y-56997700D01*
X130202758Y-52600200D02*
X129728242Y-52600200D01*
X130202758Y-51555200D02*
X129728242Y-51555200D01*
X130195758Y-59955200D02*
X129721242Y-59955200D01*
X130195758Y-58910200D02*
X129721242Y-58910200D01*
X130202758Y-51075200D02*
X129728242Y-51075200D01*
X130202758Y-50030200D02*
X129728242Y-50030200D01*
X115583500Y-48665200D02*
X115583500Y-50975200D01*
X114013500Y-48665200D02*
X115583500Y-48665200D01*
X114013500Y-50975200D02*
X114013500Y-48665200D01*
X114013500Y-48490200D02*
X114013500Y-46180200D01*
X115583500Y-48490200D02*
X114013500Y-48490200D01*
X115583500Y-46180200D02*
X115583500Y-48490200D01*
X129728242Y-53205200D02*
X130202758Y-53205200D01*
X129728242Y-54250200D02*
X130202758Y-54250200D01*
X121423500Y-63802700D02*
X121423500Y-66112700D01*
X119853500Y-63802700D02*
X121423500Y-63802700D01*
X119853500Y-66112700D02*
X119853500Y-63802700D01*
X130075500Y-44667700D02*
X130075500Y-46977700D01*
X128505500Y-44667700D02*
X130075500Y-44667700D01*
X128505500Y-46977700D02*
X128505500Y-44667700D01*
X123323500Y-63802700D02*
X123323500Y-66112700D01*
X121753500Y-63802700D02*
X123323500Y-63802700D01*
X121753500Y-66112700D02*
X121753500Y-63802700D01*
D10*
X126365500Y-55002700D02*
X126365500Y-54352700D01*
X126365500Y-55002700D02*
X120615500Y-55002700D01*
X126365500Y-44927700D02*
X127965500Y-44927700D01*
X126365500Y-44352700D02*
X126365500Y-44927700D01*
X126365500Y-44352700D02*
X120615500Y-44352700D01*
X120615500Y-55002700D02*
X120615500Y-54352700D01*
X120615500Y-44352700D02*
X120615500Y-45002700D01*
%LPC*%
D12*
X193777000Y-105901200D03*
D13*
X193777000Y-107901200D03*
X193777000Y-109901200D03*
X193777000Y-111901200D03*
X193777000Y-113901200D03*
X193777000Y-115901200D03*
X193777000Y-117901200D03*
X193777000Y-119901200D03*
X193777000Y-121901200D03*
X193777000Y-123901200D03*
D12*
X112490500Y-46777700D03*
D13*
X112490500Y-48777700D03*
X112490500Y-50777700D03*
X112490500Y-52777700D03*
X112490500Y-54777700D03*
X112490500Y-56777700D03*
X112490500Y-58777700D03*
X112490500Y-60777700D03*
X112490500Y-62777700D03*
X112490500Y-64777700D03*
D12*
X134490500Y-46777700D03*
D13*
X134490500Y-48777700D03*
X134490500Y-50777700D03*
X134490500Y-52777700D03*
X134490500Y-54777700D03*
X134490500Y-56777700D03*
X134490500Y-58777700D03*
X134490500Y-60777700D03*
X134490500Y-62777700D03*
X134490500Y-64777700D03*
D14*
X129778500Y-65102700D03*
X117078500Y-65102700D03*
D15*
X126988500Y-62562700D03*
D16*
X125972500Y-60782700D03*
X124956500Y-62562700D03*
X123940500Y-60782700D03*
X122924500Y-62562700D03*
X121908500Y-60782700D03*
X120892500Y-62562700D03*
X119876500Y-60782700D03*
X130288500Y-55962700D03*
X127998500Y-55962700D03*
X118858500Y-55962700D03*
X116568500Y-55962700D03*
D17*
X131558500Y-61672700D03*
X115298500Y-61672700D03*
D18*
X179777000Y-117941200D03*
D19*
X181777000Y-117941200D03*
X183777000Y-117941200D03*
X185777000Y-117941200D03*
D12*
X171807000Y-105911200D03*
D13*
X171807000Y-107911200D03*
X171807000Y-109911200D03*
X171807000Y-111911200D03*
X171807000Y-113911200D03*
X171807000Y-115911200D03*
X171807000Y-117911200D03*
X171807000Y-119911200D03*
X171807000Y-121911200D03*
X171807000Y-123911200D03*
D12*
X171800800Y-46772200D03*
D13*
X171800800Y-48772200D03*
X171800800Y-50772200D03*
X171800800Y-52772200D03*
X171800800Y-54772200D03*
X171800800Y-56772200D03*
X171800800Y-58772200D03*
X171800800Y-60772200D03*
X171800800Y-62772200D03*
X171800800Y-64772200D03*
D12*
X134517000Y-106061200D03*
D13*
X134517000Y-108061200D03*
X134517000Y-110061200D03*
X134517000Y-112061200D03*
X134517000Y-114061200D03*
X134517000Y-116061200D03*
X134517000Y-118061200D03*
X134517000Y-120061200D03*
X134517000Y-122061200D03*
X134517000Y-124061200D03*
D18*
X121507000Y-118091200D03*
D19*
X123507000Y-118091200D03*
X125507000Y-118091200D03*
D12*
X193788200Y-46782600D03*
D13*
X193788200Y-48782600D03*
X193788200Y-50782600D03*
X193788200Y-52782600D03*
X193788200Y-54782600D03*
X193788200Y-56782600D03*
X193788200Y-58782600D03*
X193788200Y-60782600D03*
X193788200Y-62782600D03*
X193788200Y-64782600D03*
D20*
X176220000Y-58998000D03*
X189360000Y-58998000D03*
D12*
X112530800Y-106062200D03*
D13*
X112530800Y-108062200D03*
X112530800Y-110062200D03*
X112530800Y-112062200D03*
X112530800Y-114062200D03*
X112530800Y-116062200D03*
X112530800Y-118062200D03*
X112530800Y-120062200D03*
X112530800Y-122062200D03*
X112530800Y-124062200D03*
D21*
X116253500Y-59436700D03*
X117828500Y-59436700D03*
D22*
X117030500Y-50577700D03*
X117030500Y-46377700D03*
D23*
X126338500Y-64600200D03*
X126338500Y-66025200D03*
D24*
X129143500Y-57782700D03*
X130793500Y-57782700D03*
D23*
X124438500Y-64600200D03*
X124438500Y-66025200D03*
D25*
X116340500Y-52462700D03*
X117765500Y-52462700D03*
D26*
X117776000Y-57782700D03*
X116351000Y-57782700D03*
D27*
X130790500Y-52077700D03*
X129140500Y-52077700D03*
X130783500Y-59432700D03*
X129133500Y-59432700D03*
X130790500Y-50552700D03*
X129140500Y-50552700D03*
D23*
X114798500Y-49462700D03*
X114798500Y-50887700D03*
D28*
X114798500Y-47692700D03*
X114798500Y-46267700D03*
D24*
X129140500Y-53727700D03*
X130790500Y-53727700D03*
D23*
X120638500Y-64600200D03*
X120638500Y-66025200D03*
X129290500Y-45465200D03*
X129290500Y-46890200D03*
X122538500Y-64600200D03*
X122538500Y-66025200D03*
D29*
X127090500Y-45452700D03*
X127090500Y-46102700D03*
X127090500Y-46752700D03*
X127090500Y-47402700D03*
X127090500Y-48052700D03*
X127090500Y-48702700D03*
X127090500Y-49352700D03*
X127090500Y-50002700D03*
X127090500Y-50652700D03*
X127090500Y-51302700D03*
X127090500Y-51952700D03*
X127090500Y-52602700D03*
X127090500Y-53252700D03*
X127090500Y-53902700D03*
X119890500Y-53902700D03*
X119890500Y-53252700D03*
X119890500Y-52602700D03*
X119890500Y-51952700D03*
X119890500Y-51302700D03*
X119890500Y-50652700D03*
X119890500Y-50002700D03*
X119890500Y-49352700D03*
X119890500Y-48702700D03*
X119890500Y-48052700D03*
X119890500Y-47402700D03*
X119890500Y-46752700D03*
X119890500Y-46102700D03*
X119890500Y-45452700D03*
%LPD*%
M02*
