G04 #@! TF.GenerationSoftware,KiCad,Pcbnew,7.0.7*
G04 #@! TF.CreationDate,2023-10-04T22:58:21-06:00*
G04 #@! TF.ProjectId,Modular_Interfaces,4d6f6475-6c61-4725-9f49-6e7465726661,rev?*
G04 #@! TF.SameCoordinates,Original*
G04 #@! TF.FileFunction,Paste,Bot*
G04 #@! TF.FilePolarity,Positive*
%FSLAX46Y46*%
G04 Gerber Fmt 4.6, Leading zero omitted, Abs format (unit mm)*
G04 Created by KiCad (PCBNEW 7.0.7) date 2023-10-04 22:58:21*
%MOMM*%
%LPD*%
G01*
G04 APERTURE LIST*
G04 Aperture macros list*
%AMRoundRect*
0 Rectangle with rounded corners*
0 $1 Rounding radius*
0 $2 $3 $4 $5 $6 $7 $8 $9 X,Y pos of 4 corners*
0 Add a 4 corners polygon primitive as box body*
4,1,4,$2,$3,$4,$5,$6,$7,$8,$9,$2,$3,0*
0 Add four circle primitives for the rounded corners*
1,1,$1+$1,$2,$3*
1,1,$1+$1,$4,$5*
1,1,$1+$1,$6,$7*
1,1,$1+$1,$8,$9*
0 Add four rect primitives between the rounded corners*
20,1,$1+$1,$2,$3,$4,$5,0*
20,1,$1+$1,$4,$5,$6,$7,0*
20,1,$1+$1,$6,$7,$8,$9,0*
20,1,$1+$1,$8,$9,$2,$3,0*%
G04 Aperture macros list end*
%ADD10RoundRect,0.218750X-0.218750X-0.256250X0.218750X-0.256250X0.218750X0.256250X-0.218750X0.256250X0*%
%ADD11R,2.200000X1.300000*%
%ADD12RoundRect,0.250000X-0.275000X0.287500X-0.275000X-0.287500X0.275000X-0.287500X0.275000X0.287500X0*%
%ADD13RoundRect,0.200000X-0.200000X-0.275000X0.200000X-0.275000X0.200000X0.275000X-0.200000X0.275000X0*%
%ADD14RoundRect,0.250000X-0.287500X-0.275000X0.287500X-0.275000X0.287500X0.275000X-0.287500X0.275000X0*%
%ADD15RoundRect,0.250000X0.287500X0.275000X-0.287500X0.275000X-0.287500X-0.275000X0.287500X-0.275000X0*%
%ADD16RoundRect,0.200000X0.200000X0.275000X-0.200000X0.275000X-0.200000X-0.275000X0.200000X-0.275000X0*%
%ADD17RoundRect,0.250000X0.275000X-0.287500X0.275000X0.287500X-0.275000X0.287500X-0.275000X-0.287500X0*%
%ADD18R,1.750000X0.450000*%
G04 APERTURE END LIST*
D10*
X132081500Y-80995780D03*
X130506500Y-80995780D03*
D11*
X131283500Y-67936780D03*
X131283500Y-72136780D03*
D12*
X140591500Y-87584280D03*
X140591500Y-86159280D03*
D13*
X145046500Y-79341780D03*
X143396500Y-79341780D03*
D12*
X138691500Y-87584280D03*
X138691500Y-86159280D03*
D14*
X132018500Y-74021780D03*
X130593500Y-74021780D03*
D15*
X130604000Y-79341780D03*
X132029000Y-79341780D03*
D16*
X143393500Y-73636780D03*
X145043500Y-73636780D03*
X143386500Y-80991780D03*
X145036500Y-80991780D03*
X143393500Y-72111780D03*
X145043500Y-72111780D03*
D12*
X129051500Y-72446780D03*
X129051500Y-71021780D03*
D17*
X129051500Y-67826780D03*
X129051500Y-69251780D03*
D13*
X145043500Y-75286780D03*
X143393500Y-75286780D03*
D12*
X134891500Y-87584280D03*
X134891500Y-86159280D03*
X143543500Y-68449280D03*
X143543500Y-67024280D03*
X136791500Y-87584280D03*
X136791500Y-86159280D03*
D18*
X134143500Y-67011780D03*
X134143500Y-67661780D03*
X134143500Y-68311780D03*
X134143500Y-68961780D03*
X134143500Y-69611780D03*
X134143500Y-70261780D03*
X134143500Y-70911780D03*
X134143500Y-71561780D03*
X134143500Y-72211780D03*
X134143500Y-72861780D03*
X134143500Y-73511780D03*
X134143500Y-74161780D03*
X134143500Y-74811780D03*
X134143500Y-75461780D03*
X141343500Y-75461780D03*
X141343500Y-74811780D03*
X141343500Y-74161780D03*
X141343500Y-73511780D03*
X141343500Y-72861780D03*
X141343500Y-72211780D03*
X141343500Y-71561780D03*
X141343500Y-70911780D03*
X141343500Y-70261780D03*
X141343500Y-69611780D03*
X141343500Y-68961780D03*
X141343500Y-68311780D03*
X141343500Y-67661780D03*
X141343500Y-67011780D03*
M02*
