G04 #@! TF.GenerationSoftware,KiCad,Pcbnew,7.0.7*
G04 #@! TF.CreationDate,2023-10-04T16:42:27-06:00*
G04 #@! TF.ProjectId,Modular_Interfaces,4d6f6475-6c61-4725-9f49-6e7465726661,rev?*
G04 #@! TF.SameCoordinates,Original*
G04 #@! TF.FileFunction,Copper,L1,Top*
G04 #@! TF.FilePolarity,Positive*
%FSLAX46Y46*%
G04 Gerber Fmt 4.6, Leading zero omitted, Abs format (unit mm)*
G04 Created by KiCad (PCBNEW 7.0.7) date 2023-10-04 16:42:27*
%MOMM*%
%LPD*%
G01*
G04 APERTURE LIST*
G04 Aperture macros list*
%AMRoundRect*
0 Rectangle with rounded corners*
0 $1 Rounding radius*
0 $2 $3 $4 $5 $6 $7 $8 $9 X,Y pos of 4 corners*
0 Add a 4 corners polygon primitive as box body*
4,1,4,$2,$3,$4,$5,$6,$7,$8,$9,$2,$3,0*
0 Add four circle primitives for the rounded corners*
1,1,$1+$1,$2,$3*
1,1,$1+$1,$4,$5*
1,1,$1+$1,$6,$7*
1,1,$1+$1,$8,$9*
0 Add four rect primitives between the rounded corners*
20,1,$1+$1,$2,$3,$4,$5,0*
20,1,$1+$1,$4,$5,$6,$7,0*
20,1,$1+$1,$6,$7,$8,$9,0*
20,1,$1+$1,$8,$9,$2,$3,0*%
G04 Aperture macros list end*
G04 #@! TA.AperFunction,ComponentPad*
%ADD10R,1.350000X1.350000*%
G04 #@! TD*
G04 #@! TA.AperFunction,ComponentPad*
%ADD11O,1.350000X1.350000*%
G04 #@! TD*
G04 #@! TA.AperFunction,ComponentPad*
%ADD12R,1.500000X1.500000*%
G04 #@! TD*
G04 #@! TA.AperFunction,ComponentPad*
%ADD13C,1.500000*%
G04 #@! TD*
G04 #@! TA.AperFunction,ComponentPad*
%ADD14C,2.300000*%
G04 #@! TD*
G04 #@! TA.AperFunction,ComponentPad*
%ADD15RoundRect,0.250000X-0.350000X-0.625000X0.350000X-0.625000X0.350000X0.625000X-0.350000X0.625000X0*%
G04 #@! TD*
G04 #@! TA.AperFunction,ComponentPad*
%ADD16O,1.200000X1.750000*%
G04 #@! TD*
G04 #@! TA.AperFunction,SMDPad,CuDef*
%ADD17RoundRect,0.250000X-0.287500X-0.275000X0.287500X-0.275000X0.287500X0.275000X-0.287500X0.275000X0*%
G04 #@! TD*
G04 #@! TA.AperFunction,SMDPad,CuDef*
%ADD18RoundRect,0.200000X-0.200000X-0.275000X0.200000X-0.275000X0.200000X0.275000X-0.200000X0.275000X0*%
G04 #@! TD*
G04 #@! TA.AperFunction,SMDPad,CuDef*
%ADD19R,1.250000X3.000000*%
G04 #@! TD*
G04 #@! TA.AperFunction,ComponentPad*
%ADD20C,3.000000*%
G04 #@! TD*
G04 #@! TA.AperFunction,ViaPad*
%ADD21C,0.800000*%
G04 #@! TD*
G04 #@! TA.AperFunction,Conductor*
%ADD22C,0.250000*%
G04 #@! TD*
G04 #@! TA.AperFunction,Conductor*
%ADD23C,0.200000*%
G04 #@! TD*
G04 APERTURE END LIST*
D10*
X193777000Y-105901200D03*
D11*
X193777000Y-107901200D03*
X193777000Y-109901200D03*
X193777000Y-111901200D03*
X193777000Y-113901200D03*
X193777000Y-115901200D03*
X193777000Y-117901200D03*
X193777000Y-119901200D03*
X193777000Y-121901200D03*
X193777000Y-123901200D03*
D10*
X112490500Y-46777700D03*
D11*
X112490500Y-48777700D03*
X112490500Y-50777700D03*
X112490500Y-52777700D03*
X112490500Y-54777700D03*
X112490500Y-56777700D03*
X112490500Y-58777700D03*
X112490500Y-60777700D03*
X112490500Y-62777700D03*
X112490500Y-64777700D03*
D10*
X134490500Y-46777700D03*
D11*
X134490500Y-48777700D03*
X134490500Y-50777700D03*
X134490500Y-52777700D03*
X134490500Y-54777700D03*
X134490500Y-56777700D03*
X134490500Y-58777700D03*
X134490500Y-60777700D03*
X134490500Y-62777700D03*
X134490500Y-64777700D03*
D12*
X126988500Y-62562700D03*
D13*
X125972500Y-60782700D03*
X124956500Y-62562700D03*
X123940500Y-60782700D03*
X122924500Y-62562700D03*
X121908500Y-60782700D03*
X120892500Y-62562700D03*
X119876500Y-60782700D03*
X130288500Y-55962700D03*
X127998500Y-55962700D03*
X118858500Y-55962700D03*
X116568500Y-55962700D03*
D14*
X131558500Y-61672700D03*
X115298500Y-61672700D03*
D15*
X179777000Y-117941200D03*
D16*
X181777000Y-117941200D03*
X183777000Y-117941200D03*
X185777000Y-117941200D03*
D17*
X129138500Y-49652700D03*
X130563500Y-49652700D03*
D10*
X171807000Y-105911200D03*
D11*
X171807000Y-107911200D03*
X171807000Y-109911200D03*
X171807000Y-111911200D03*
X171807000Y-113911200D03*
X171807000Y-115911200D03*
X171807000Y-117911200D03*
X171807000Y-119911200D03*
X171807000Y-121911200D03*
X171807000Y-123911200D03*
D10*
X171800800Y-46772200D03*
D11*
X171800800Y-48772200D03*
X171800800Y-50772200D03*
X171800800Y-52772200D03*
X171800800Y-54772200D03*
X171800800Y-56772200D03*
X171800800Y-58772200D03*
X171800800Y-60772200D03*
X171800800Y-62772200D03*
X171800800Y-64772200D03*
D10*
X134517000Y-106061200D03*
D11*
X134517000Y-108061200D03*
X134517000Y-110061200D03*
X134517000Y-112061200D03*
X134517000Y-114061200D03*
X134517000Y-116061200D03*
X134517000Y-118061200D03*
X134517000Y-120061200D03*
X134517000Y-122061200D03*
X134517000Y-124061200D03*
D18*
X129013500Y-46082700D03*
X130663500Y-46082700D03*
D15*
X121507000Y-118091200D03*
D16*
X123507000Y-118091200D03*
X125507000Y-118091200D03*
D10*
X193788200Y-46782600D03*
D11*
X193788200Y-48782600D03*
X193788200Y-50782600D03*
X193788200Y-52782600D03*
X193788200Y-54782600D03*
X193788200Y-56782600D03*
X193788200Y-58782600D03*
X193788200Y-60782600D03*
X193788200Y-62782600D03*
X193788200Y-64782600D03*
D18*
X129003500Y-52912700D03*
X130653500Y-52912700D03*
D19*
X179290000Y-55318000D03*
X181790000Y-55318000D03*
X183790000Y-55318000D03*
X186290000Y-55318000D03*
D20*
X176220000Y-58998000D03*
X189360000Y-58998000D03*
D18*
X129003500Y-51332700D03*
X130653500Y-51332700D03*
D10*
X112530800Y-106062200D03*
D11*
X112530800Y-108062200D03*
X112530800Y-110062200D03*
X112530800Y-112062200D03*
X112530800Y-114062200D03*
X112530800Y-116062200D03*
X112530800Y-118062200D03*
X112530800Y-120062200D03*
X112530800Y-122062200D03*
X112530800Y-124062200D03*
D18*
X129013500Y-47682700D03*
X130663500Y-47682700D03*
D21*
X123498500Y-50392700D03*
X126818500Y-58652700D03*
X121428500Y-49012700D03*
X115548500Y-53652700D03*
X117958500Y-60752700D03*
X122956421Y-53592700D03*
X132600500Y-54866591D03*
X127843218Y-58652700D03*
X124053003Y-52143200D03*
X121718500Y-45862700D03*
X121365002Y-51345342D03*
X124278500Y-53592700D03*
X117030500Y-48477700D03*
X125208500Y-45862700D03*
X125216000Y-55889611D03*
X114223000Y-53652700D03*
X122708500Y-47752700D03*
X125803784Y-58652700D03*
D22*
X193788200Y-46782600D02*
X189450400Y-46782600D01*
X118858500Y-55792700D02*
X118858500Y-55962700D01*
X131876000Y-45066596D02*
X131876000Y-55895480D01*
X130653500Y-46402700D02*
X130653500Y-48002700D01*
D23*
X127022500Y-62528700D02*
X127022500Y-58856700D01*
D22*
X171800800Y-64772200D02*
X176220000Y-60353000D01*
X122688500Y-47752700D02*
X121428500Y-49012700D01*
D23*
X128038500Y-63442700D02*
X127868500Y-63612700D01*
X126948500Y-55527775D02*
X126948500Y-57757982D01*
D22*
X189450400Y-46782600D02*
X181790000Y-54443000D01*
D23*
X129003500Y-51567700D02*
X129003500Y-51332700D01*
D22*
X117536000Y-124062200D02*
X112530800Y-124062200D01*
X114279466Y-64777700D02*
X112490500Y-64777700D01*
X131080962Y-45282700D02*
X131426000Y-45627738D01*
X179777000Y-113881200D02*
X171807000Y-105911200D01*
D23*
X125216000Y-55889611D02*
X121908500Y-59197111D01*
D22*
X121507000Y-118091200D02*
X121507000Y-115038400D01*
X115233220Y-55777700D02*
X112076286Y-55777700D01*
D23*
X125216000Y-55355200D02*
X129003500Y-51567700D01*
X127843218Y-58652700D02*
X128038500Y-58847982D01*
D22*
X130733780Y-57037700D02*
X129073500Y-57037700D01*
X114823500Y-54377700D02*
X113893500Y-54377700D01*
D23*
X130653500Y-52912700D02*
X129048500Y-54517700D01*
X126006500Y-63612700D02*
X124956500Y-62562700D01*
D22*
X183777000Y-115901200D02*
X193777000Y-105901200D01*
X185777000Y-115901200D02*
X193777000Y-107901200D01*
D23*
X127958575Y-54517700D02*
X126948500Y-55527775D01*
D22*
X185777000Y-117941200D02*
X185777000Y-115901200D01*
X179777000Y-117941200D02*
X179777000Y-113881200D01*
X120105565Y-52604779D02*
X118406141Y-52604779D01*
X122808500Y-50392700D02*
X121428500Y-49012700D01*
X111490500Y-57777700D02*
X112490500Y-58777700D01*
X132326000Y-54592091D02*
X132326000Y-44880200D01*
X131426000Y-54825200D02*
X130288500Y-55962700D01*
X130653500Y-51332700D02*
X130583500Y-51332700D01*
X183790000Y-55043000D02*
X183790000Y-55318000D01*
D23*
X121908500Y-59197111D02*
X121908500Y-60782700D01*
D22*
X111490500Y-56363486D02*
X111490500Y-57777700D01*
X127488500Y-47682700D02*
X119208500Y-55962700D01*
X175807000Y-123911200D02*
X171807000Y-123911200D01*
X186290000Y-54480200D02*
X186290000Y-53870200D01*
X124053003Y-53367203D02*
X124278500Y-53592700D01*
X128578500Y-48802700D02*
X124278500Y-53102700D01*
X129003500Y-46402700D02*
X130123500Y-45282700D01*
X130123500Y-45282700D02*
X131080962Y-45282700D01*
X171800800Y-46772200D02*
X172192000Y-46772200D01*
D23*
X126948500Y-57757982D02*
X127843218Y-58652700D01*
D22*
X129138500Y-49652700D02*
X129138500Y-49817700D01*
X118406141Y-52604779D02*
X115233220Y-55777700D01*
X171800800Y-46772200D02*
X179290000Y-54261400D01*
X124053003Y-52143200D02*
X124053003Y-53367203D01*
X183777000Y-117941200D02*
X183777000Y-115901200D01*
X123498500Y-50392700D02*
X122808500Y-50392700D01*
X131828500Y-44382700D02*
X114885500Y-44382700D01*
D23*
X125972500Y-60782700D02*
X125972500Y-58821416D01*
D22*
X129073500Y-57037700D02*
X127998500Y-55962700D01*
X125507000Y-118091200D02*
X125507000Y-115071200D01*
X176220000Y-60353000D02*
X176220000Y-57550200D01*
X115548500Y-53652700D02*
X114823500Y-54377700D01*
X124278500Y-53102700D02*
X124278500Y-53592700D01*
X115908500Y-45862700D02*
X121718500Y-45862700D01*
X125507000Y-115071200D02*
X134517000Y-106061200D01*
X113165500Y-57452700D02*
X112490500Y-56777700D01*
X131876000Y-55895480D02*
X130733780Y-57037700D01*
X123051871Y-57452700D02*
X113165500Y-57452700D01*
X117958500Y-60752700D02*
X117958500Y-61098666D01*
X130653500Y-49562700D02*
X130563500Y-49652700D01*
X124491000Y-56013571D02*
X123051871Y-57452700D01*
X189360000Y-57550200D02*
X186290000Y-54480200D01*
X130653500Y-48002700D02*
X130653500Y-49562700D01*
X114223000Y-53652700D02*
X114788500Y-53087200D01*
X181777000Y-117941200D02*
X175807000Y-123911200D01*
X193788200Y-48782600D02*
X190050400Y-48782600D01*
X121507000Y-115038400D02*
X112530800Y-106062200D01*
X117565500Y-49012700D02*
X121428500Y-49012700D01*
X119208500Y-55962700D02*
X118858500Y-55962700D01*
X129013500Y-47682700D02*
X127488500Y-47682700D01*
X112076286Y-55777700D02*
X111490500Y-56363486D01*
X122956421Y-53629377D02*
X124491000Y-55163956D01*
X130563500Y-49652700D02*
X130514173Y-49652700D01*
X117958500Y-61098666D02*
X114279466Y-64777700D01*
X131426000Y-45627738D02*
X131426000Y-54825200D01*
X132326000Y-44880200D02*
X131828500Y-44382700D01*
X121365002Y-51345342D02*
X120105565Y-52604779D01*
D23*
X127022500Y-58856700D02*
X126818500Y-58652700D01*
D22*
X113498500Y-53982700D02*
X113498500Y-47785700D01*
X114788500Y-53087200D02*
X114788500Y-46982700D01*
X113893500Y-54377700D02*
X113498500Y-53982700D01*
X123507000Y-118091200D02*
X117536000Y-124062200D01*
X181790000Y-54443000D02*
X181790000Y-55318000D01*
D23*
X125216000Y-55889611D02*
X125216000Y-55355200D01*
X126988500Y-62562700D02*
X127022500Y-62528700D01*
D22*
X114788500Y-46982700D02*
X115908500Y-45862700D01*
D23*
X129048500Y-54517700D02*
X127958575Y-54517700D01*
D22*
X132600500Y-54866591D02*
X132326000Y-54592091D01*
X125208500Y-45862700D02*
X126238500Y-44832700D01*
X117030500Y-48477700D02*
X117565500Y-49012700D01*
X190050400Y-48782600D02*
X183790000Y-55043000D01*
X131642104Y-44832700D02*
X131876000Y-45066596D01*
X129664173Y-48802700D02*
X128578500Y-48802700D01*
X124491000Y-55163956D02*
X124491000Y-56013571D01*
D23*
X125972500Y-58821416D02*
X125803784Y-58652700D01*
D22*
X122708500Y-47752700D02*
X122688500Y-47752700D01*
X130514173Y-49652700D02*
X129664173Y-48802700D01*
X114885500Y-44382700D02*
X112490500Y-46777700D01*
X130583500Y-51332700D02*
X129003500Y-52912700D01*
X129138500Y-49817700D02*
X130653500Y-51332700D01*
X126238500Y-44832700D02*
X131642104Y-44832700D01*
D23*
X127868500Y-63612700D02*
X126006500Y-63612700D01*
X128038500Y-58847982D02*
X128038500Y-63442700D01*
D22*
X176220000Y-57550200D02*
X189360000Y-57550200D01*
X113498500Y-47785700D02*
X112490500Y-46777700D01*
M02*
