M48
; DRILL file {KiCad 7.0.7} date Wed Oct  4 23:53:35 2023
; FORMAT={-:-/ absolute / inch / decimal}
; #@! TF.CreationDate,2023-10-04T23:53:35-06:00
; #@! TF.GenerationSoftware,Kicad,Pcbnew,7.0.7
; #@! TF.FileFunction,Plated,1,2,PTH
FMAT,2
INCH
; #@! TA.AperFunction,Plated,PTH,ViaDrill
T1C0.0157
; #@! TA.AperFunction,Plated,PTH,ComponentDrill
T2C0.0295
; #@! TA.AperFunction,Plated,PTH,ComponentDrill
T3C0.0315
; #@! TA.AperFunction,Plated,PTH,ComponentDrill
T4C0.0350
; #@! TA.AperFunction,Plated,PTH,ComponentDrill
T5C0.0618
; #@! TA.AperFunction,Plated,PTH,ComponentDrill
T6C0.0906
%
G90
G05
T1
X5.0581Y-2.9611
X5.1103Y-2.9611
X5.1686Y-2.7574
X5.2052Y-3.2406
X5.3393Y-2.8703
X5.3418Y-2.7784
X5.3532Y-2.6544
X5.3922Y-2.7288
X5.4019Y-2.9587
X5.4233Y-2.8327
X5.4451Y-2.9017
X5.454Y-2.9587
X5.4906Y-2.6544
X5.4909Y-3.0492
X5.514Y-3.1579
X5.554Y-3.1579
X5.5943Y-3.1579
X5.7816Y-3.0089
T2
X5.3431Y-4.2907
X5.4218Y-4.2907
X5.5005Y-4.2907
X6.6696Y-4.2907
X6.7483Y-4.2907
X6.8271Y-4.2907
X6.9058Y-4.2907
T3
X4.9897Y-3.8171
X4.9897Y-3.8958
X4.9897Y-3.9746
X4.9897Y-4.0533
X4.9897Y-4.1321
X4.9897Y-4.2108
X4.9897Y-4.2895
X4.9897Y-4.3683
X4.9897Y-4.447
X4.9897Y-4.5258
X4.9899Y-2.6904
X4.9899Y-2.7692
X4.9899Y-2.8479
X4.9899Y-2.9266
X4.9899Y-3.0054
X4.9899Y-3.0841
X4.9899Y-3.1629
X4.9899Y-3.2416
X4.9899Y-3.3203
X4.9899Y-3.3991
X5.8553Y-3.8171
X5.8553Y-3.8958
X5.8553Y-3.9745
X5.8553Y-4.0533
X5.8553Y-4.132
X5.8553Y-4.2108
X5.8553Y-4.2895
X5.8553Y-4.3682
X5.8553Y-4.447
X5.8553Y-4.5257
X5.856Y-2.6904
X5.856Y-2.7692
X5.856Y-2.8479
X5.856Y-2.9266
X5.856Y-3.0054
X5.856Y-3.0841
X5.856Y-3.1629
X5.856Y-3.2416
X5.856Y-3.3203
X5.856Y-3.3991
X6.3528Y-2.6899
X6.3528Y-2.7687
X6.3528Y-2.8474
X6.3528Y-2.9262
X6.3528Y-3.0049
X6.3528Y-3.0836
X6.3528Y-3.1624
X6.3528Y-3.2411
X6.3528Y-3.3199
X6.3528Y-3.3986
X6.3558Y-3.8171
X6.3558Y-3.8958
X6.3558Y-3.9746
X6.3558Y-4.0533
X6.3558Y-4.1321
X6.3558Y-4.2108
X6.3558Y-4.2895
X6.3558Y-4.3683
X6.3558Y-4.447
X6.3558Y-4.5258
X7.2184Y-2.6903
X7.2184Y-2.7691
X7.2184Y-2.8478
X7.2184Y-2.9266
X7.2184Y-3.0053
X7.2184Y-3.0841
X7.2184Y-3.1628
X7.2184Y-3.2415
X7.2184Y-3.3203
X7.2184Y-3.399
X7.2208Y-3.8167
X7.2208Y-3.8954
X7.2208Y-3.9742
X7.2208Y-4.0529
X7.2208Y-4.1317
X7.2208Y-4.2104
X7.2208Y-4.2891
X7.2208Y-4.3679
X7.2208Y-4.4466
X7.2208Y-4.5254
T4
X5.1505Y-3.052
X5.2406Y-3.052
X5.2807Y-3.2418
X5.3207Y-3.3119
X5.3607Y-3.2418
X5.4007Y-3.3119
X5.4407Y-3.2418
X5.4807Y-3.3119
X5.5207Y-3.2418
X5.5607Y-3.3119
X5.6005Y-3.052
X5.6906Y-3.052
T5
X5.1005Y-3.2768
X5.7406Y-3.2768
T6
X6.5268Y-3.1713
X7.0441Y-3.1713
T0
M30
