%TF.GenerationSoftware,KiCad,Pcbnew,7.0.7*%
%TF.CreationDate,2023-10-06T18:16:36-06:00*%
%TF.ProjectId,Modular_Interfaces,4d6f6475-6c61-4725-9f49-6e7465726661,rev?*%
%TF.SameCoordinates,Original*%
%TF.FileFunction,Legend,Top*%
%TF.FilePolarity,Positive*%
%FSLAX46Y46*%
G04 Gerber Fmt 4.6, Leading zero omitted, Abs format (unit mm)*
G04 Created by KiCad (PCBNEW 7.0.7) date 2023-10-06 18:16:36*
%MOMM*%
%LPD*%
G01*
G04 APERTURE LIST*
G04 Aperture macros list*
%AMRoundRect*
0 Rectangle with rounded corners*
0 $1 Rounding radius*
0 $2 $3 $4 $5 $6 $7 $8 $9 X,Y pos of 4 corners*
0 Add a 4 corners polygon primitive as box body*
4,1,4,$2,$3,$4,$5,$6,$7,$8,$9,$2,$3,0*
0 Add four circle primitives for the rounded corners*
1,1,$1+$1,$2,$3*
1,1,$1+$1,$4,$5*
1,1,$1+$1,$6,$7*
1,1,$1+$1,$8,$9*
0 Add four rect primitives between the rounded corners*
20,1,$1+$1,$2,$3,$4,$5,0*
20,1,$1+$1,$4,$5,$6,$7,0*
20,1,$1+$1,$6,$7,$8,$9,0*
20,1,$1+$1,$8,$9,$2,$3,0*%
G04 Aperture macros list end*
%ADD10C,0.100000*%
%ADD11C,0.150000*%
%ADD12C,0.120000*%
%ADD13R,1.350000X1.350000*%
%ADD14O,1.350000X1.350000*%
%ADD15RoundRect,0.250000X-0.600000X-0.725000X0.600000X-0.725000X0.600000X0.725000X-0.600000X0.725000X0*%
%ADD16O,1.700000X1.950000*%
%ADD17RoundRect,0.200000X-0.200000X-0.275000X0.200000X-0.275000X0.200000X0.275000X-0.200000X0.275000X0*%
%ADD18RoundRect,0.250000X-0.550000X1.050000X-0.550000X-1.050000X0.550000X-1.050000X0.550000X1.050000X0*%
%ADD19R,1.600000X1.600000*%
%ADD20C,1.600000*%
%ADD21C,3.000000*%
%ADD22C,3.250000*%
%ADD23R,1.500000X1.500000*%
%ADD24C,1.500000*%
%ADD25C,2.300000*%
%ADD26RoundRect,0.225000X-0.225000X-0.250000X0.225000X-0.250000X0.225000X0.250000X-0.225000X0.250000X0*%
G04 APERTURE END LIST*
D10*
X100695437Y-51229695D02*
X100657342Y-51210647D01*
X100657342Y-51210647D02*
X100600199Y-51210647D01*
X100600199Y-51210647D02*
X100543056Y-51229695D01*
X100543056Y-51229695D02*
X100504961Y-51267790D01*
X100504961Y-51267790D02*
X100485914Y-51305885D01*
X100485914Y-51305885D02*
X100466866Y-51382076D01*
X100466866Y-51382076D02*
X100466866Y-51439219D01*
X100466866Y-51439219D02*
X100485914Y-51515409D01*
X100485914Y-51515409D02*
X100504961Y-51553504D01*
X100504961Y-51553504D02*
X100543056Y-51591600D01*
X100543056Y-51591600D02*
X100600199Y-51610647D01*
X100600199Y-51610647D02*
X100638295Y-51610647D01*
X100638295Y-51610647D02*
X100695437Y-51591600D01*
X100695437Y-51591600D02*
X100714485Y-51572552D01*
X100714485Y-51572552D02*
X100714485Y-51439219D01*
X100714485Y-51439219D02*
X100638295Y-51439219D01*
X100885914Y-51610647D02*
X100885914Y-51210647D01*
X100885914Y-51210647D02*
X101114485Y-51610647D01*
X101114485Y-51610647D02*
X101114485Y-51210647D01*
X101304962Y-51610647D02*
X101304962Y-51210647D01*
X101304962Y-51210647D02*
X101400200Y-51210647D01*
X101400200Y-51210647D02*
X101457343Y-51229695D01*
X101457343Y-51229695D02*
X101495438Y-51267790D01*
X101495438Y-51267790D02*
X101514485Y-51305885D01*
X101514485Y-51305885D02*
X101533533Y-51382076D01*
X101533533Y-51382076D02*
X101533533Y-51439219D01*
X101533533Y-51439219D02*
X101514485Y-51515409D01*
X101514485Y-51515409D02*
X101495438Y-51553504D01*
X101495438Y-51553504D02*
X101457343Y-51591600D01*
X101457343Y-51591600D02*
X101400200Y-51610647D01*
X101400200Y-51610647D02*
X101304962Y-51610647D01*
X126154286Y-35495561D02*
X126344762Y-35495561D01*
X126116191Y-35609847D02*
X126249524Y-35209847D01*
X126249524Y-35209847D02*
X126382857Y-35609847D01*
X126725714Y-35609847D02*
X126497143Y-35609847D01*
X126611429Y-35609847D02*
X126611429Y-35209847D01*
X126611429Y-35209847D02*
X126573333Y-35266990D01*
X126573333Y-35266990D02*
X126535238Y-35305085D01*
X126535238Y-35305085D02*
X126497143Y-35324133D01*
X126154486Y-33496361D02*
X126344962Y-33496361D01*
X126116391Y-33610647D02*
X126249724Y-33210647D01*
X126249724Y-33210647D02*
X126383057Y-33610647D01*
X126592581Y-33210647D02*
X126630676Y-33210647D01*
X126630676Y-33210647D02*
X126668772Y-33229695D01*
X126668772Y-33229695D02*
X126687819Y-33248742D01*
X126687819Y-33248742D02*
X126706867Y-33286838D01*
X126706867Y-33286838D02*
X126725914Y-33363028D01*
X126725914Y-33363028D02*
X126725914Y-33458266D01*
X126725914Y-33458266D02*
X126706867Y-33534457D01*
X126706867Y-33534457D02*
X126687819Y-33572552D01*
X126687819Y-33572552D02*
X126668772Y-33591600D01*
X126668772Y-33591600D02*
X126630676Y-33610647D01*
X126630676Y-33610647D02*
X126592581Y-33610647D01*
X126592581Y-33610647D02*
X126554486Y-33591600D01*
X126554486Y-33591600D02*
X126535438Y-33572552D01*
X126535438Y-33572552D02*
X126516391Y-33534457D01*
X126516391Y-33534457D02*
X126497343Y-33458266D01*
X126497343Y-33458266D02*
X126497343Y-33363028D01*
X126497343Y-33363028D02*
X126516391Y-33286838D01*
X126516391Y-33286838D02*
X126535438Y-33248742D01*
X126535438Y-33248742D02*
X126554486Y-33229695D01*
X126554486Y-33229695D02*
X126592581Y-33210647D01*
D11*
X110360619Y-35544809D02*
X110027286Y-35544809D01*
X110027286Y-36068619D02*
X110027286Y-35068619D01*
X110027286Y-35068619D02*
X110503476Y-35068619D01*
X110884429Y-36068619D02*
X110884429Y-35068619D01*
X110884429Y-35068619D02*
X111265381Y-35068619D01*
X111265381Y-35068619D02*
X111360619Y-35116238D01*
X111360619Y-35116238D02*
X111408238Y-35163857D01*
X111408238Y-35163857D02*
X111455857Y-35259095D01*
X111455857Y-35259095D02*
X111455857Y-35401952D01*
X111455857Y-35401952D02*
X111408238Y-35497190D01*
X111408238Y-35497190D02*
X111360619Y-35544809D01*
X111360619Y-35544809D02*
X111265381Y-35592428D01*
X111265381Y-35592428D02*
X110884429Y-35592428D01*
X111741572Y-35068619D02*
X112074905Y-36068619D01*
X112074905Y-36068619D02*
X112408238Y-35068619D01*
X113932048Y-35401952D02*
X113932048Y-36068619D01*
X113693953Y-35021000D02*
X113455858Y-35735285D01*
X113455858Y-35735285D02*
X114074905Y-35735285D01*
X114455858Y-35687666D02*
X115217763Y-35687666D01*
X115693953Y-36068619D02*
X115693953Y-35068619D01*
X115693953Y-35068619D02*
X116074905Y-35068619D01*
X116074905Y-35068619D02*
X116170143Y-35116238D01*
X116170143Y-35116238D02*
X116217762Y-35163857D01*
X116217762Y-35163857D02*
X116265381Y-35259095D01*
X116265381Y-35259095D02*
X116265381Y-35401952D01*
X116265381Y-35401952D02*
X116217762Y-35497190D01*
X116217762Y-35497190D02*
X116170143Y-35544809D01*
X116170143Y-35544809D02*
X116074905Y-35592428D01*
X116074905Y-35592428D02*
X115693953Y-35592428D01*
X116693953Y-36068619D02*
X116693953Y-35401952D01*
X116693953Y-35068619D02*
X116646334Y-35116238D01*
X116646334Y-35116238D02*
X116693953Y-35163857D01*
X116693953Y-35163857D02*
X116741572Y-35116238D01*
X116741572Y-35116238D02*
X116693953Y-35068619D01*
X116693953Y-35068619D02*
X116693953Y-35163857D01*
X117170143Y-35401952D02*
X117170143Y-36068619D01*
X117170143Y-35497190D02*
X117217762Y-35449571D01*
X117217762Y-35449571D02*
X117313000Y-35401952D01*
X117313000Y-35401952D02*
X117455857Y-35401952D01*
X117455857Y-35401952D02*
X117551095Y-35449571D01*
X117551095Y-35449571D02*
X117598714Y-35544809D01*
X117598714Y-35544809D02*
X117598714Y-36068619D01*
X111432047Y-37678619D02*
X111432047Y-36678619D01*
X111432047Y-36678619D02*
X111765380Y-37392904D01*
X111765380Y-37392904D02*
X112098713Y-36678619D01*
X112098713Y-36678619D02*
X112098713Y-37678619D01*
X112717761Y-37678619D02*
X112622523Y-37631000D01*
X112622523Y-37631000D02*
X112574904Y-37583380D01*
X112574904Y-37583380D02*
X112527285Y-37488142D01*
X112527285Y-37488142D02*
X112527285Y-37202428D01*
X112527285Y-37202428D02*
X112574904Y-37107190D01*
X112574904Y-37107190D02*
X112622523Y-37059571D01*
X112622523Y-37059571D02*
X112717761Y-37011952D01*
X112717761Y-37011952D02*
X112860618Y-37011952D01*
X112860618Y-37011952D02*
X112955856Y-37059571D01*
X112955856Y-37059571D02*
X113003475Y-37107190D01*
X113003475Y-37107190D02*
X113051094Y-37202428D01*
X113051094Y-37202428D02*
X113051094Y-37488142D01*
X113051094Y-37488142D02*
X113003475Y-37583380D01*
X113003475Y-37583380D02*
X112955856Y-37631000D01*
X112955856Y-37631000D02*
X112860618Y-37678619D01*
X112860618Y-37678619D02*
X112717761Y-37678619D01*
X113908237Y-37678619D02*
X113908237Y-36678619D01*
X113908237Y-37631000D02*
X113812999Y-37678619D01*
X113812999Y-37678619D02*
X113622523Y-37678619D01*
X113622523Y-37678619D02*
X113527285Y-37631000D01*
X113527285Y-37631000D02*
X113479666Y-37583380D01*
X113479666Y-37583380D02*
X113432047Y-37488142D01*
X113432047Y-37488142D02*
X113432047Y-37202428D01*
X113432047Y-37202428D02*
X113479666Y-37107190D01*
X113479666Y-37107190D02*
X113527285Y-37059571D01*
X113527285Y-37059571D02*
X113622523Y-37011952D01*
X113622523Y-37011952D02*
X113812999Y-37011952D01*
X113812999Y-37011952D02*
X113908237Y-37059571D01*
X114812999Y-37011952D02*
X114812999Y-37678619D01*
X114384428Y-37011952D02*
X114384428Y-37535761D01*
X114384428Y-37535761D02*
X114432047Y-37631000D01*
X114432047Y-37631000D02*
X114527285Y-37678619D01*
X114527285Y-37678619D02*
X114670142Y-37678619D01*
X114670142Y-37678619D02*
X114765380Y-37631000D01*
X114765380Y-37631000D02*
X114812999Y-37583380D01*
X115432047Y-37678619D02*
X115336809Y-37631000D01*
X115336809Y-37631000D02*
X115289190Y-37535761D01*
X115289190Y-37535761D02*
X115289190Y-36678619D01*
X116193952Y-37631000D02*
X116098714Y-37678619D01*
X116098714Y-37678619D02*
X115908238Y-37678619D01*
X115908238Y-37678619D02*
X115813000Y-37631000D01*
X115813000Y-37631000D02*
X115765381Y-37535761D01*
X115765381Y-37535761D02*
X115765381Y-37154809D01*
X115765381Y-37154809D02*
X115813000Y-37059571D01*
X115813000Y-37059571D02*
X115908238Y-37011952D01*
X115908238Y-37011952D02*
X116098714Y-37011952D01*
X116098714Y-37011952D02*
X116193952Y-37059571D01*
X116193952Y-37059571D02*
X116241571Y-37154809D01*
X116241571Y-37154809D02*
X116241571Y-37250047D01*
X116241571Y-37250047D02*
X115765381Y-37345285D01*
D10*
X100466867Y-33190647D02*
X100600200Y-33590647D01*
X100600200Y-33590647D02*
X100733533Y-33190647D01*
X101095438Y-33552552D02*
X101076390Y-33571600D01*
X101076390Y-33571600D02*
X101019248Y-33590647D01*
X101019248Y-33590647D02*
X100981152Y-33590647D01*
X100981152Y-33590647D02*
X100924009Y-33571600D01*
X100924009Y-33571600D02*
X100885914Y-33533504D01*
X100885914Y-33533504D02*
X100866867Y-33495409D01*
X100866867Y-33495409D02*
X100847819Y-33419219D01*
X100847819Y-33419219D02*
X100847819Y-33362076D01*
X100847819Y-33362076D02*
X100866867Y-33285885D01*
X100866867Y-33285885D02*
X100885914Y-33247790D01*
X100885914Y-33247790D02*
X100924009Y-33209695D01*
X100924009Y-33209695D02*
X100981152Y-33190647D01*
X100981152Y-33190647D02*
X101019248Y-33190647D01*
X101019248Y-33190647D02*
X101076390Y-33209695D01*
X101076390Y-33209695D02*
X101095438Y-33228742D01*
X101495438Y-33552552D02*
X101476390Y-33571600D01*
X101476390Y-33571600D02*
X101419248Y-33590647D01*
X101419248Y-33590647D02*
X101381152Y-33590647D01*
X101381152Y-33590647D02*
X101324009Y-33571600D01*
X101324009Y-33571600D02*
X101285914Y-33533504D01*
X101285914Y-33533504D02*
X101266867Y-33495409D01*
X101266867Y-33495409D02*
X101247819Y-33419219D01*
X101247819Y-33419219D02*
X101247819Y-33362076D01*
X101247819Y-33362076D02*
X101266867Y-33285885D01*
X101266867Y-33285885D02*
X101285914Y-33247790D01*
X101285914Y-33247790D02*
X101324009Y-33209695D01*
X101324009Y-33209695D02*
X101381152Y-33190647D01*
X101381152Y-33190647D02*
X101419248Y-33190647D01*
X101419248Y-33190647D02*
X101476390Y-33209695D01*
X101476390Y-33209695D02*
X101495438Y-33228742D01*
X100473952Y-58999847D02*
X100607285Y-59399847D01*
X100607285Y-59399847D02*
X100740618Y-58999847D01*
X101102523Y-59361752D02*
X101083475Y-59380800D01*
X101083475Y-59380800D02*
X101026333Y-59399847D01*
X101026333Y-59399847D02*
X100988237Y-59399847D01*
X100988237Y-59399847D02*
X100931094Y-59380800D01*
X100931094Y-59380800D02*
X100892999Y-59342704D01*
X100892999Y-59342704D02*
X100873952Y-59304609D01*
X100873952Y-59304609D02*
X100854904Y-59228419D01*
X100854904Y-59228419D02*
X100854904Y-59171276D01*
X100854904Y-59171276D02*
X100873952Y-59095085D01*
X100873952Y-59095085D02*
X100892999Y-59056990D01*
X100892999Y-59056990D02*
X100931094Y-59018895D01*
X100931094Y-59018895D02*
X100988237Y-58999847D01*
X100988237Y-58999847D02*
X101026333Y-58999847D01*
X101026333Y-58999847D02*
X101083475Y-59018895D01*
X101083475Y-59018895D02*
X101102523Y-59037942D01*
X101502523Y-59361752D02*
X101483475Y-59380800D01*
X101483475Y-59380800D02*
X101426333Y-59399847D01*
X101426333Y-59399847D02*
X101388237Y-59399847D01*
X101388237Y-59399847D02*
X101331094Y-59380800D01*
X101331094Y-59380800D02*
X101292999Y-59342704D01*
X101292999Y-59342704D02*
X101273952Y-59304609D01*
X101273952Y-59304609D02*
X101254904Y-59228419D01*
X101254904Y-59228419D02*
X101254904Y-59171276D01*
X101254904Y-59171276D02*
X101273952Y-59095085D01*
X101273952Y-59095085D02*
X101292999Y-59056990D01*
X101292999Y-59056990D02*
X101331094Y-59018895D01*
X101331094Y-59018895D02*
X101388237Y-58999847D01*
X101388237Y-58999847D02*
X101426333Y-58999847D01*
X101426333Y-58999847D02*
X101483475Y-59018895D01*
X101483475Y-59018895D02*
X101502523Y-59037942D01*
D11*
X136319350Y-79043620D02*
X136890778Y-79043620D01*
X136605064Y-80043620D02*
X136605064Y-79043620D01*
X137128874Y-79376953D02*
X137366969Y-80043620D01*
X137605064Y-79376953D02*
X137366969Y-80043620D01*
X137366969Y-80043620D02*
X137271731Y-80281715D01*
X137271731Y-80281715D02*
X137224112Y-80329334D01*
X137224112Y-80329334D02*
X137128874Y-80376953D01*
X137986017Y-79376953D02*
X137986017Y-80376953D01*
X137986017Y-79424572D02*
X138081255Y-79376953D01*
X138081255Y-79376953D02*
X138271731Y-79376953D01*
X138271731Y-79376953D02*
X138366969Y-79424572D01*
X138366969Y-79424572D02*
X138414588Y-79472191D01*
X138414588Y-79472191D02*
X138462207Y-79567429D01*
X138462207Y-79567429D02*
X138462207Y-79853143D01*
X138462207Y-79853143D02*
X138414588Y-79948381D01*
X138414588Y-79948381D02*
X138366969Y-79996001D01*
X138366969Y-79996001D02*
X138271731Y-80043620D01*
X138271731Y-80043620D02*
X138081255Y-80043620D01*
X138081255Y-80043620D02*
X137986017Y-79996001D01*
X139271731Y-79996001D02*
X139176493Y-80043620D01*
X139176493Y-80043620D02*
X138986017Y-80043620D01*
X138986017Y-80043620D02*
X138890779Y-79996001D01*
X138890779Y-79996001D02*
X138843160Y-79900762D01*
X138843160Y-79900762D02*
X138843160Y-79519810D01*
X138843160Y-79519810D02*
X138890779Y-79424572D01*
X138890779Y-79424572D02*
X138986017Y-79376953D01*
X138986017Y-79376953D02*
X139176493Y-79376953D01*
X139176493Y-79376953D02*
X139271731Y-79424572D01*
X139271731Y-79424572D02*
X139319350Y-79519810D01*
X139319350Y-79519810D02*
X139319350Y-79615048D01*
X139319350Y-79615048D02*
X138843160Y-79710286D01*
X140462208Y-79757905D02*
X140938398Y-79757905D01*
X140366970Y-80043620D02*
X140700303Y-79043620D01*
X140700303Y-79043620D02*
X141033636Y-80043620D01*
X76330619Y-35544809D02*
X75997286Y-35544809D01*
X75997286Y-36068619D02*
X75997286Y-35068619D01*
X75997286Y-35068619D02*
X76473476Y-35068619D01*
X76854429Y-36068619D02*
X76854429Y-35068619D01*
X76854429Y-35068619D02*
X77235381Y-35068619D01*
X77235381Y-35068619D02*
X77330619Y-35116238D01*
X77330619Y-35116238D02*
X77378238Y-35163857D01*
X77378238Y-35163857D02*
X77425857Y-35259095D01*
X77425857Y-35259095D02*
X77425857Y-35401952D01*
X77425857Y-35401952D02*
X77378238Y-35497190D01*
X77378238Y-35497190D02*
X77330619Y-35544809D01*
X77330619Y-35544809D02*
X77235381Y-35592428D01*
X77235381Y-35592428D02*
X76854429Y-35592428D01*
X77711572Y-35068619D02*
X78044905Y-36068619D01*
X78044905Y-36068619D02*
X78378238Y-35068619D01*
X79378239Y-35068619D02*
X79997286Y-35068619D01*
X79997286Y-35068619D02*
X79663953Y-35449571D01*
X79663953Y-35449571D02*
X79806810Y-35449571D01*
X79806810Y-35449571D02*
X79902048Y-35497190D01*
X79902048Y-35497190D02*
X79949667Y-35544809D01*
X79949667Y-35544809D02*
X79997286Y-35640047D01*
X79997286Y-35640047D02*
X79997286Y-35878142D01*
X79997286Y-35878142D02*
X79949667Y-35973380D01*
X79949667Y-35973380D02*
X79902048Y-36021000D01*
X79902048Y-36021000D02*
X79806810Y-36068619D01*
X79806810Y-36068619D02*
X79521096Y-36068619D01*
X79521096Y-36068619D02*
X79425858Y-36021000D01*
X79425858Y-36021000D02*
X79378239Y-35973380D01*
X80425858Y-35687666D02*
X81187763Y-35687666D01*
X81663953Y-36068619D02*
X81663953Y-35068619D01*
X81663953Y-35068619D02*
X82044905Y-35068619D01*
X82044905Y-35068619D02*
X82140143Y-35116238D01*
X82140143Y-35116238D02*
X82187762Y-35163857D01*
X82187762Y-35163857D02*
X82235381Y-35259095D01*
X82235381Y-35259095D02*
X82235381Y-35401952D01*
X82235381Y-35401952D02*
X82187762Y-35497190D01*
X82187762Y-35497190D02*
X82140143Y-35544809D01*
X82140143Y-35544809D02*
X82044905Y-35592428D01*
X82044905Y-35592428D02*
X81663953Y-35592428D01*
X82663953Y-36068619D02*
X82663953Y-35401952D01*
X82663953Y-35068619D02*
X82616334Y-35116238D01*
X82616334Y-35116238D02*
X82663953Y-35163857D01*
X82663953Y-35163857D02*
X82711572Y-35116238D01*
X82711572Y-35116238D02*
X82663953Y-35068619D01*
X82663953Y-35068619D02*
X82663953Y-35163857D01*
X83140143Y-35401952D02*
X83140143Y-36068619D01*
X83140143Y-35497190D02*
X83187762Y-35449571D01*
X83187762Y-35449571D02*
X83283000Y-35401952D01*
X83283000Y-35401952D02*
X83425857Y-35401952D01*
X83425857Y-35401952D02*
X83521095Y-35449571D01*
X83521095Y-35449571D02*
X83568714Y-35544809D01*
X83568714Y-35544809D02*
X83568714Y-36068619D01*
X77402047Y-37678619D02*
X77402047Y-36678619D01*
X77402047Y-36678619D02*
X77735380Y-37392904D01*
X77735380Y-37392904D02*
X78068713Y-36678619D01*
X78068713Y-36678619D02*
X78068713Y-37678619D01*
X78687761Y-37678619D02*
X78592523Y-37631000D01*
X78592523Y-37631000D02*
X78544904Y-37583380D01*
X78544904Y-37583380D02*
X78497285Y-37488142D01*
X78497285Y-37488142D02*
X78497285Y-37202428D01*
X78497285Y-37202428D02*
X78544904Y-37107190D01*
X78544904Y-37107190D02*
X78592523Y-37059571D01*
X78592523Y-37059571D02*
X78687761Y-37011952D01*
X78687761Y-37011952D02*
X78830618Y-37011952D01*
X78830618Y-37011952D02*
X78925856Y-37059571D01*
X78925856Y-37059571D02*
X78973475Y-37107190D01*
X78973475Y-37107190D02*
X79021094Y-37202428D01*
X79021094Y-37202428D02*
X79021094Y-37488142D01*
X79021094Y-37488142D02*
X78973475Y-37583380D01*
X78973475Y-37583380D02*
X78925856Y-37631000D01*
X78925856Y-37631000D02*
X78830618Y-37678619D01*
X78830618Y-37678619D02*
X78687761Y-37678619D01*
X79878237Y-37678619D02*
X79878237Y-36678619D01*
X79878237Y-37631000D02*
X79782999Y-37678619D01*
X79782999Y-37678619D02*
X79592523Y-37678619D01*
X79592523Y-37678619D02*
X79497285Y-37631000D01*
X79497285Y-37631000D02*
X79449666Y-37583380D01*
X79449666Y-37583380D02*
X79402047Y-37488142D01*
X79402047Y-37488142D02*
X79402047Y-37202428D01*
X79402047Y-37202428D02*
X79449666Y-37107190D01*
X79449666Y-37107190D02*
X79497285Y-37059571D01*
X79497285Y-37059571D02*
X79592523Y-37011952D01*
X79592523Y-37011952D02*
X79782999Y-37011952D01*
X79782999Y-37011952D02*
X79878237Y-37059571D01*
X80782999Y-37011952D02*
X80782999Y-37678619D01*
X80354428Y-37011952D02*
X80354428Y-37535761D01*
X80354428Y-37535761D02*
X80402047Y-37631000D01*
X80402047Y-37631000D02*
X80497285Y-37678619D01*
X80497285Y-37678619D02*
X80640142Y-37678619D01*
X80640142Y-37678619D02*
X80735380Y-37631000D01*
X80735380Y-37631000D02*
X80782999Y-37583380D01*
X81402047Y-37678619D02*
X81306809Y-37631000D01*
X81306809Y-37631000D02*
X81259190Y-37535761D01*
X81259190Y-37535761D02*
X81259190Y-36678619D01*
X82163952Y-37631000D02*
X82068714Y-37678619D01*
X82068714Y-37678619D02*
X81878238Y-37678619D01*
X81878238Y-37678619D02*
X81783000Y-37631000D01*
X81783000Y-37631000D02*
X81735381Y-37535761D01*
X81735381Y-37535761D02*
X81735381Y-37154809D01*
X81735381Y-37154809D02*
X81783000Y-37059571D01*
X81783000Y-37059571D02*
X81878238Y-37011952D01*
X81878238Y-37011952D02*
X82068714Y-37011952D01*
X82068714Y-37011952D02*
X82163952Y-37059571D01*
X82163952Y-37059571D02*
X82211571Y-37154809D01*
X82211571Y-37154809D02*
X82211571Y-37250047D01*
X82211571Y-37250047D02*
X81735381Y-37345285D01*
D10*
X160151931Y-58969448D02*
X160380502Y-58969448D01*
X160266216Y-59369448D02*
X160266216Y-58969448D01*
X160475740Y-58969448D02*
X160742407Y-59369448D01*
X160742407Y-58969448D02*
X160475740Y-59369448D01*
X160390026Y-61359448D02*
X160256693Y-61168972D01*
X160161455Y-61359448D02*
X160161455Y-60959448D01*
X160161455Y-60959448D02*
X160313836Y-60959448D01*
X160313836Y-60959448D02*
X160351931Y-60978496D01*
X160351931Y-60978496D02*
X160370978Y-60997543D01*
X160370978Y-60997543D02*
X160390026Y-61035639D01*
X160390026Y-61035639D02*
X160390026Y-61092781D01*
X160390026Y-61092781D02*
X160370978Y-61130877D01*
X160370978Y-61130877D02*
X160351931Y-61149924D01*
X160351931Y-61149924D02*
X160313836Y-61168972D01*
X160313836Y-61168972D02*
X160161455Y-61168972D01*
X160523359Y-60959448D02*
X160790026Y-61359448D01*
X160790026Y-60959448D02*
X160523359Y-61359448D01*
X134483360Y-58949448D02*
X134616693Y-59349448D01*
X134616693Y-59349448D02*
X134750026Y-58949448D01*
X135111931Y-59311353D02*
X135092883Y-59330401D01*
X135092883Y-59330401D02*
X135035741Y-59349448D01*
X135035741Y-59349448D02*
X134997645Y-59349448D01*
X134997645Y-59349448D02*
X134940502Y-59330401D01*
X134940502Y-59330401D02*
X134902407Y-59292305D01*
X134902407Y-59292305D02*
X134883360Y-59254210D01*
X134883360Y-59254210D02*
X134864312Y-59178020D01*
X134864312Y-59178020D02*
X134864312Y-59120877D01*
X134864312Y-59120877D02*
X134883360Y-59044686D01*
X134883360Y-59044686D02*
X134902407Y-59006591D01*
X134902407Y-59006591D02*
X134940502Y-58968496D01*
X134940502Y-58968496D02*
X134997645Y-58949448D01*
X134997645Y-58949448D02*
X135035741Y-58949448D01*
X135035741Y-58949448D02*
X135092883Y-58968496D01*
X135092883Y-58968496D02*
X135111931Y-58987543D01*
X135511931Y-59311353D02*
X135492883Y-59330401D01*
X135492883Y-59330401D02*
X135435741Y-59349448D01*
X135435741Y-59349448D02*
X135397645Y-59349448D01*
X135397645Y-59349448D02*
X135340502Y-59330401D01*
X135340502Y-59330401D02*
X135302407Y-59292305D01*
X135302407Y-59292305D02*
X135283360Y-59254210D01*
X135283360Y-59254210D02*
X135264312Y-59178020D01*
X135264312Y-59178020D02*
X135264312Y-59120877D01*
X135264312Y-59120877D02*
X135283360Y-59044686D01*
X135283360Y-59044686D02*
X135302407Y-59006591D01*
X135302407Y-59006591D02*
X135340502Y-58968496D01*
X135340502Y-58968496D02*
X135397645Y-58949448D01*
X135397645Y-58949448D02*
X135435741Y-58949448D01*
X135435741Y-58949448D02*
X135492883Y-58968496D01*
X135492883Y-58968496D02*
X135511931Y-58987543D01*
D11*
X75667761Y-60828619D02*
X75667761Y-61638142D01*
X75667761Y-61638142D02*
X75715380Y-61733380D01*
X75715380Y-61733380D02*
X75762999Y-61781000D01*
X75762999Y-61781000D02*
X75858237Y-61828619D01*
X75858237Y-61828619D02*
X76048713Y-61828619D01*
X76048713Y-61828619D02*
X76143951Y-61781000D01*
X76143951Y-61781000D02*
X76191570Y-61733380D01*
X76191570Y-61733380D02*
X76239189Y-61638142D01*
X76239189Y-61638142D02*
X76239189Y-60828619D01*
X76667761Y-61781000D02*
X76810618Y-61828619D01*
X76810618Y-61828619D02*
X77048713Y-61828619D01*
X77048713Y-61828619D02*
X77143951Y-61781000D01*
X77143951Y-61781000D02*
X77191570Y-61733380D01*
X77191570Y-61733380D02*
X77239189Y-61638142D01*
X77239189Y-61638142D02*
X77239189Y-61542904D01*
X77239189Y-61542904D02*
X77191570Y-61447666D01*
X77191570Y-61447666D02*
X77143951Y-61400047D01*
X77143951Y-61400047D02*
X77048713Y-61352428D01*
X77048713Y-61352428D02*
X76858237Y-61304809D01*
X76858237Y-61304809D02*
X76762999Y-61257190D01*
X76762999Y-61257190D02*
X76715380Y-61209571D01*
X76715380Y-61209571D02*
X76667761Y-61114333D01*
X76667761Y-61114333D02*
X76667761Y-61019095D01*
X76667761Y-61019095D02*
X76715380Y-60923857D01*
X76715380Y-60923857D02*
X76762999Y-60876238D01*
X76762999Y-60876238D02*
X76858237Y-60828619D01*
X76858237Y-60828619D02*
X77096332Y-60828619D01*
X77096332Y-60828619D02*
X77239189Y-60876238D01*
X78001094Y-61304809D02*
X78143951Y-61352428D01*
X78143951Y-61352428D02*
X78191570Y-61400047D01*
X78191570Y-61400047D02*
X78239189Y-61495285D01*
X78239189Y-61495285D02*
X78239189Y-61638142D01*
X78239189Y-61638142D02*
X78191570Y-61733380D01*
X78191570Y-61733380D02*
X78143951Y-61781000D01*
X78143951Y-61781000D02*
X78048713Y-61828619D01*
X78048713Y-61828619D02*
X77667761Y-61828619D01*
X77667761Y-61828619D02*
X77667761Y-60828619D01*
X77667761Y-60828619D02*
X78001094Y-60828619D01*
X78001094Y-60828619D02*
X78096332Y-60876238D01*
X78096332Y-60876238D02*
X78143951Y-60923857D01*
X78143951Y-60923857D02*
X78191570Y-61019095D01*
X78191570Y-61019095D02*
X78191570Y-61114333D01*
X78191570Y-61114333D02*
X78143951Y-61209571D01*
X78143951Y-61209571D02*
X78096332Y-61257190D01*
X78096332Y-61257190D02*
X78001094Y-61304809D01*
X78001094Y-61304809D02*
X77667761Y-61304809D01*
X79286809Y-60828619D02*
X79858237Y-60828619D01*
X79572523Y-61828619D02*
X79572523Y-60828619D01*
X80096333Y-61161952D02*
X80334428Y-61828619D01*
X80572523Y-61161952D02*
X80334428Y-61828619D01*
X80334428Y-61828619D02*
X80239190Y-62066714D01*
X80239190Y-62066714D02*
X80191571Y-62114333D01*
X80191571Y-62114333D02*
X80096333Y-62161952D01*
X80953476Y-61161952D02*
X80953476Y-62161952D01*
X80953476Y-61209571D02*
X81048714Y-61161952D01*
X81048714Y-61161952D02*
X81239190Y-61161952D01*
X81239190Y-61161952D02*
X81334428Y-61209571D01*
X81334428Y-61209571D02*
X81382047Y-61257190D01*
X81382047Y-61257190D02*
X81429666Y-61352428D01*
X81429666Y-61352428D02*
X81429666Y-61638142D01*
X81429666Y-61638142D02*
X81382047Y-61733380D01*
X81382047Y-61733380D02*
X81334428Y-61781000D01*
X81334428Y-61781000D02*
X81239190Y-61828619D01*
X81239190Y-61828619D02*
X81048714Y-61828619D01*
X81048714Y-61828619D02*
X80953476Y-61781000D01*
X82239190Y-61781000D02*
X82143952Y-61828619D01*
X82143952Y-61828619D02*
X81953476Y-61828619D01*
X81953476Y-61828619D02*
X81858238Y-61781000D01*
X81858238Y-61781000D02*
X81810619Y-61685761D01*
X81810619Y-61685761D02*
X81810619Y-61304809D01*
X81810619Y-61304809D02*
X81858238Y-61209571D01*
X81858238Y-61209571D02*
X81953476Y-61161952D01*
X81953476Y-61161952D02*
X82143952Y-61161952D01*
X82143952Y-61161952D02*
X82239190Y-61209571D01*
X82239190Y-61209571D02*
X82286809Y-61304809D01*
X82286809Y-61304809D02*
X82286809Y-61400047D01*
X82286809Y-61400047D02*
X81810619Y-61495285D01*
X83429667Y-61542904D02*
X83905857Y-61542904D01*
X83334429Y-61828619D02*
X83667762Y-60828619D01*
X83667762Y-60828619D02*
X84001095Y-61828619D01*
X77382047Y-63438619D02*
X77382047Y-62438619D01*
X77382047Y-62438619D02*
X77715380Y-63152904D01*
X77715380Y-63152904D02*
X78048713Y-62438619D01*
X78048713Y-62438619D02*
X78048713Y-63438619D01*
X78667761Y-63438619D02*
X78572523Y-63391000D01*
X78572523Y-63391000D02*
X78524904Y-63343380D01*
X78524904Y-63343380D02*
X78477285Y-63248142D01*
X78477285Y-63248142D02*
X78477285Y-62962428D01*
X78477285Y-62962428D02*
X78524904Y-62867190D01*
X78524904Y-62867190D02*
X78572523Y-62819571D01*
X78572523Y-62819571D02*
X78667761Y-62771952D01*
X78667761Y-62771952D02*
X78810618Y-62771952D01*
X78810618Y-62771952D02*
X78905856Y-62819571D01*
X78905856Y-62819571D02*
X78953475Y-62867190D01*
X78953475Y-62867190D02*
X79001094Y-62962428D01*
X79001094Y-62962428D02*
X79001094Y-63248142D01*
X79001094Y-63248142D02*
X78953475Y-63343380D01*
X78953475Y-63343380D02*
X78905856Y-63391000D01*
X78905856Y-63391000D02*
X78810618Y-63438619D01*
X78810618Y-63438619D02*
X78667761Y-63438619D01*
X79858237Y-63438619D02*
X79858237Y-62438619D01*
X79858237Y-63391000D02*
X79762999Y-63438619D01*
X79762999Y-63438619D02*
X79572523Y-63438619D01*
X79572523Y-63438619D02*
X79477285Y-63391000D01*
X79477285Y-63391000D02*
X79429666Y-63343380D01*
X79429666Y-63343380D02*
X79382047Y-63248142D01*
X79382047Y-63248142D02*
X79382047Y-62962428D01*
X79382047Y-62962428D02*
X79429666Y-62867190D01*
X79429666Y-62867190D02*
X79477285Y-62819571D01*
X79477285Y-62819571D02*
X79572523Y-62771952D01*
X79572523Y-62771952D02*
X79762999Y-62771952D01*
X79762999Y-62771952D02*
X79858237Y-62819571D01*
X80762999Y-62771952D02*
X80762999Y-63438619D01*
X80334428Y-62771952D02*
X80334428Y-63295761D01*
X80334428Y-63295761D02*
X80382047Y-63391000D01*
X80382047Y-63391000D02*
X80477285Y-63438619D01*
X80477285Y-63438619D02*
X80620142Y-63438619D01*
X80620142Y-63438619D02*
X80715380Y-63391000D01*
X80715380Y-63391000D02*
X80762999Y-63343380D01*
X81382047Y-63438619D02*
X81286809Y-63391000D01*
X81286809Y-63391000D02*
X81239190Y-63295761D01*
X81239190Y-63295761D02*
X81239190Y-62438619D01*
X82143952Y-63391000D02*
X82048714Y-63438619D01*
X82048714Y-63438619D02*
X81858238Y-63438619D01*
X81858238Y-63438619D02*
X81763000Y-63391000D01*
X81763000Y-63391000D02*
X81715381Y-63295761D01*
X81715381Y-63295761D02*
X81715381Y-62914809D01*
X81715381Y-62914809D02*
X81763000Y-62819571D01*
X81763000Y-62819571D02*
X81858238Y-62771952D01*
X81858238Y-62771952D02*
X82048714Y-62771952D01*
X82048714Y-62771952D02*
X82143952Y-62819571D01*
X82143952Y-62819571D02*
X82191571Y-62914809D01*
X82191571Y-62914809D02*
X82191571Y-63010047D01*
X82191571Y-63010047D02*
X81715381Y-63105285D01*
D10*
X135099826Y-61328648D02*
X134966493Y-61138172D01*
X134871255Y-61328648D02*
X134871255Y-60928648D01*
X134871255Y-60928648D02*
X135023636Y-60928648D01*
X135023636Y-60928648D02*
X135061731Y-60947696D01*
X135061731Y-60947696D02*
X135080778Y-60966743D01*
X135080778Y-60966743D02*
X135099826Y-61004839D01*
X135099826Y-61004839D02*
X135099826Y-61061981D01*
X135099826Y-61061981D02*
X135080778Y-61100077D01*
X135080778Y-61100077D02*
X135061731Y-61119124D01*
X135061731Y-61119124D02*
X135023636Y-61138172D01*
X135023636Y-61138172D02*
X134871255Y-61138172D01*
X135233159Y-60928648D02*
X135499826Y-61328648D01*
X135499826Y-60928648D02*
X135233159Y-61328648D01*
X100702522Y-77028895D02*
X100664427Y-77009847D01*
X100664427Y-77009847D02*
X100607284Y-77009847D01*
X100607284Y-77009847D02*
X100550141Y-77028895D01*
X100550141Y-77028895D02*
X100512046Y-77066990D01*
X100512046Y-77066990D02*
X100492999Y-77105085D01*
X100492999Y-77105085D02*
X100473951Y-77181276D01*
X100473951Y-77181276D02*
X100473951Y-77238419D01*
X100473951Y-77238419D02*
X100492999Y-77314609D01*
X100492999Y-77314609D02*
X100512046Y-77352704D01*
X100512046Y-77352704D02*
X100550141Y-77390800D01*
X100550141Y-77390800D02*
X100607284Y-77409847D01*
X100607284Y-77409847D02*
X100645380Y-77409847D01*
X100645380Y-77409847D02*
X100702522Y-77390800D01*
X100702522Y-77390800D02*
X100721570Y-77371752D01*
X100721570Y-77371752D02*
X100721570Y-77238419D01*
X100721570Y-77238419D02*
X100645380Y-77238419D01*
X100892999Y-77409847D02*
X100892999Y-77009847D01*
X100892999Y-77009847D02*
X101121570Y-77409847D01*
X101121570Y-77409847D02*
X101121570Y-77009847D01*
X101312047Y-77409847D02*
X101312047Y-77009847D01*
X101312047Y-77009847D02*
X101407285Y-77009847D01*
X101407285Y-77009847D02*
X101464428Y-77028895D01*
X101464428Y-77028895D02*
X101502523Y-77066990D01*
X101502523Y-77066990D02*
X101521570Y-77105085D01*
X101521570Y-77105085D02*
X101540618Y-77181276D01*
X101540618Y-77181276D02*
X101540618Y-77238419D01*
X101540618Y-77238419D02*
X101521570Y-77314609D01*
X101521570Y-77314609D02*
X101502523Y-77352704D01*
X101502523Y-77352704D02*
X101464428Y-77390800D01*
X101464428Y-77390800D02*
X101407285Y-77409847D01*
X101407285Y-77409847D02*
X101312047Y-77409847D01*
D11*
X107066332Y-56362438D02*
X106971094Y-56314819D01*
X106971094Y-56314819D02*
X106828237Y-56314819D01*
X106828237Y-56314819D02*
X106685380Y-56362438D01*
X106685380Y-56362438D02*
X106590142Y-56457676D01*
X106590142Y-56457676D02*
X106542523Y-56552914D01*
X106542523Y-56552914D02*
X106494904Y-56743390D01*
X106494904Y-56743390D02*
X106494904Y-56886247D01*
X106494904Y-56886247D02*
X106542523Y-57076723D01*
X106542523Y-57076723D02*
X106590142Y-57171961D01*
X106590142Y-57171961D02*
X106685380Y-57267200D01*
X106685380Y-57267200D02*
X106828237Y-57314819D01*
X106828237Y-57314819D02*
X106923475Y-57314819D01*
X106923475Y-57314819D02*
X107066332Y-57267200D01*
X107066332Y-57267200D02*
X107113951Y-57219580D01*
X107113951Y-57219580D02*
X107113951Y-56886247D01*
X107113951Y-56886247D02*
X106923475Y-56886247D01*
X107542523Y-57314819D02*
X107542523Y-56648152D01*
X107542523Y-56314819D02*
X107494904Y-56362438D01*
X107494904Y-56362438D02*
X107542523Y-56410057D01*
X107542523Y-56410057D02*
X107590142Y-56362438D01*
X107590142Y-56362438D02*
X107542523Y-56314819D01*
X107542523Y-56314819D02*
X107542523Y-56410057D01*
X108447284Y-56648152D02*
X108447284Y-57457676D01*
X108447284Y-57457676D02*
X108399665Y-57552914D01*
X108399665Y-57552914D02*
X108352046Y-57600533D01*
X108352046Y-57600533D02*
X108256808Y-57648152D01*
X108256808Y-57648152D02*
X108113951Y-57648152D01*
X108113951Y-57648152D02*
X108018713Y-57600533D01*
X108447284Y-57267200D02*
X108352046Y-57314819D01*
X108352046Y-57314819D02*
X108161570Y-57314819D01*
X108161570Y-57314819D02*
X108066332Y-57267200D01*
X108066332Y-57267200D02*
X108018713Y-57219580D01*
X108018713Y-57219580D02*
X107971094Y-57124342D01*
X107971094Y-57124342D02*
X107971094Y-56838628D01*
X107971094Y-56838628D02*
X108018713Y-56743390D01*
X108018713Y-56743390D02*
X108066332Y-56695771D01*
X108066332Y-56695771D02*
X108161570Y-56648152D01*
X108161570Y-56648152D02*
X108352046Y-56648152D01*
X108352046Y-56648152D02*
X108447284Y-56695771D01*
X108923475Y-56791009D02*
X109256808Y-56791009D01*
X109399665Y-57314819D02*
X108923475Y-57314819D01*
X108923475Y-57314819D02*
X108923475Y-56314819D01*
X108923475Y-56314819D02*
X109399665Y-56314819D01*
X110590142Y-57314819D02*
X110590142Y-56314819D01*
X110590142Y-56314819D02*
X110923475Y-57029104D01*
X110923475Y-57029104D02*
X111256808Y-56314819D01*
X111256808Y-56314819D02*
X111256808Y-57314819D01*
X111875856Y-57314819D02*
X111780618Y-57267200D01*
X111780618Y-57267200D02*
X111732999Y-57219580D01*
X111732999Y-57219580D02*
X111685380Y-57124342D01*
X111685380Y-57124342D02*
X111685380Y-56838628D01*
X111685380Y-56838628D02*
X111732999Y-56743390D01*
X111732999Y-56743390D02*
X111780618Y-56695771D01*
X111780618Y-56695771D02*
X111875856Y-56648152D01*
X111875856Y-56648152D02*
X112018713Y-56648152D01*
X112018713Y-56648152D02*
X112113951Y-56695771D01*
X112113951Y-56695771D02*
X112161570Y-56743390D01*
X112161570Y-56743390D02*
X112209189Y-56838628D01*
X112209189Y-56838628D02*
X112209189Y-57124342D01*
X112209189Y-57124342D02*
X112161570Y-57219580D01*
X112161570Y-57219580D02*
X112113951Y-57267200D01*
X112113951Y-57267200D02*
X112018713Y-57314819D01*
X112018713Y-57314819D02*
X111875856Y-57314819D01*
X113066332Y-57314819D02*
X113066332Y-56314819D01*
X113066332Y-57267200D02*
X112971094Y-57314819D01*
X112971094Y-57314819D02*
X112780618Y-57314819D01*
X112780618Y-57314819D02*
X112685380Y-57267200D01*
X112685380Y-57267200D02*
X112637761Y-57219580D01*
X112637761Y-57219580D02*
X112590142Y-57124342D01*
X112590142Y-57124342D02*
X112590142Y-56838628D01*
X112590142Y-56838628D02*
X112637761Y-56743390D01*
X112637761Y-56743390D02*
X112685380Y-56695771D01*
X112685380Y-56695771D02*
X112780618Y-56648152D01*
X112780618Y-56648152D02*
X112971094Y-56648152D01*
X112971094Y-56648152D02*
X113066332Y-56695771D01*
X113971094Y-56648152D02*
X113971094Y-57314819D01*
X113542523Y-56648152D02*
X113542523Y-57171961D01*
X113542523Y-57171961D02*
X113590142Y-57267200D01*
X113590142Y-57267200D02*
X113685380Y-57314819D01*
X113685380Y-57314819D02*
X113828237Y-57314819D01*
X113828237Y-57314819D02*
X113923475Y-57267200D01*
X113923475Y-57267200D02*
X113971094Y-57219580D01*
X114590142Y-57314819D02*
X114494904Y-57267200D01*
X114494904Y-57267200D02*
X114447285Y-57171961D01*
X114447285Y-57171961D02*
X114447285Y-56314819D01*
X115352047Y-57267200D02*
X115256809Y-57314819D01*
X115256809Y-57314819D02*
X115066333Y-57314819D01*
X115066333Y-57314819D02*
X114971095Y-57267200D01*
X114971095Y-57267200D02*
X114923476Y-57171961D01*
X114923476Y-57171961D02*
X114923476Y-56791009D01*
X114923476Y-56791009D02*
X114971095Y-56695771D01*
X114971095Y-56695771D02*
X115066333Y-56648152D01*
X115066333Y-56648152D02*
X115256809Y-56648152D01*
X115256809Y-56648152D02*
X115352047Y-56695771D01*
X115352047Y-56695771D02*
X115399666Y-56791009D01*
X115399666Y-56791009D02*
X115399666Y-56886247D01*
X115399666Y-56886247D02*
X114923476Y-56981485D01*
D10*
X134711930Y-76988496D02*
X134673835Y-76969448D01*
X134673835Y-76969448D02*
X134616692Y-76969448D01*
X134616692Y-76969448D02*
X134559549Y-76988496D01*
X134559549Y-76988496D02*
X134521454Y-77026591D01*
X134521454Y-77026591D02*
X134502407Y-77064686D01*
X134502407Y-77064686D02*
X134483359Y-77140877D01*
X134483359Y-77140877D02*
X134483359Y-77198020D01*
X134483359Y-77198020D02*
X134502407Y-77274210D01*
X134502407Y-77274210D02*
X134521454Y-77312305D01*
X134521454Y-77312305D02*
X134559549Y-77350401D01*
X134559549Y-77350401D02*
X134616692Y-77369448D01*
X134616692Y-77369448D02*
X134654788Y-77369448D01*
X134654788Y-77369448D02*
X134711930Y-77350401D01*
X134711930Y-77350401D02*
X134730978Y-77331353D01*
X134730978Y-77331353D02*
X134730978Y-77198020D01*
X134730978Y-77198020D02*
X134654788Y-77198020D01*
X134902407Y-77369448D02*
X134902407Y-76969448D01*
X134902407Y-76969448D02*
X135130978Y-77369448D01*
X135130978Y-77369448D02*
X135130978Y-76969448D01*
X135321455Y-77369448D02*
X135321455Y-76969448D01*
X135321455Y-76969448D02*
X135416693Y-76969448D01*
X135416693Y-76969448D02*
X135473836Y-76988496D01*
X135473836Y-76988496D02*
X135511931Y-77026591D01*
X135511931Y-77026591D02*
X135530978Y-77064686D01*
X135530978Y-77064686D02*
X135550026Y-77140877D01*
X135550026Y-77140877D02*
X135550026Y-77198020D01*
X135550026Y-77198020D02*
X135530978Y-77274210D01*
X135530978Y-77274210D02*
X135511931Y-77312305D01*
X135511931Y-77312305D02*
X135473836Y-77350401D01*
X135473836Y-77350401D02*
X135416693Y-77369448D01*
X135416693Y-77369448D02*
X135321455Y-77369448D01*
X66416867Y-58950647D02*
X66550200Y-59350647D01*
X66550200Y-59350647D02*
X66683533Y-58950647D01*
X67045438Y-59312552D02*
X67026390Y-59331600D01*
X67026390Y-59331600D02*
X66969248Y-59350647D01*
X66969248Y-59350647D02*
X66931152Y-59350647D01*
X66931152Y-59350647D02*
X66874009Y-59331600D01*
X66874009Y-59331600D02*
X66835914Y-59293504D01*
X66835914Y-59293504D02*
X66816867Y-59255409D01*
X66816867Y-59255409D02*
X66797819Y-59179219D01*
X66797819Y-59179219D02*
X66797819Y-59122076D01*
X66797819Y-59122076D02*
X66816867Y-59045885D01*
X66816867Y-59045885D02*
X66835914Y-59007790D01*
X66835914Y-59007790D02*
X66874009Y-58969695D01*
X66874009Y-58969695D02*
X66931152Y-58950647D01*
X66931152Y-58950647D02*
X66969248Y-58950647D01*
X66969248Y-58950647D02*
X67026390Y-58969695D01*
X67026390Y-58969695D02*
X67045438Y-58988742D01*
X67445438Y-59312552D02*
X67426390Y-59331600D01*
X67426390Y-59331600D02*
X67369248Y-59350647D01*
X67369248Y-59350647D02*
X67331152Y-59350647D01*
X67331152Y-59350647D02*
X67274009Y-59331600D01*
X67274009Y-59331600D02*
X67235914Y-59293504D01*
X67235914Y-59293504D02*
X67216867Y-59255409D01*
X67216867Y-59255409D02*
X67197819Y-59179219D01*
X67197819Y-59179219D02*
X67197819Y-59122076D01*
X67197819Y-59122076D02*
X67216867Y-59045885D01*
X67216867Y-59045885D02*
X67235914Y-59007790D01*
X67235914Y-59007790D02*
X67274009Y-58969695D01*
X67274009Y-58969695D02*
X67331152Y-58950647D01*
X67331152Y-58950647D02*
X67369248Y-58950647D01*
X67369248Y-58950647D02*
X67426390Y-58969695D01*
X67426390Y-58969695D02*
X67445438Y-58988742D01*
X126062999Y-63390800D02*
X126120142Y-63409847D01*
X126120142Y-63409847D02*
X126215380Y-63409847D01*
X126215380Y-63409847D02*
X126253475Y-63390800D01*
X126253475Y-63390800D02*
X126272523Y-63371752D01*
X126272523Y-63371752D02*
X126291570Y-63333657D01*
X126291570Y-63333657D02*
X126291570Y-63295561D01*
X126291570Y-63295561D02*
X126272523Y-63257466D01*
X126272523Y-63257466D02*
X126253475Y-63238419D01*
X126253475Y-63238419D02*
X126215380Y-63219371D01*
X126215380Y-63219371D02*
X126139189Y-63200323D01*
X126139189Y-63200323D02*
X126101094Y-63181276D01*
X126101094Y-63181276D02*
X126082047Y-63162228D01*
X126082047Y-63162228D02*
X126062999Y-63124133D01*
X126062999Y-63124133D02*
X126062999Y-63086038D01*
X126062999Y-63086038D02*
X126082047Y-63047942D01*
X126082047Y-63047942D02*
X126101094Y-63028895D01*
X126101094Y-63028895D02*
X126139189Y-63009847D01*
X126139189Y-63009847D02*
X126234428Y-63009847D01*
X126234428Y-63009847D02*
X126291570Y-63028895D01*
X126691570Y-63371752D02*
X126672522Y-63390800D01*
X126672522Y-63390800D02*
X126615380Y-63409847D01*
X126615380Y-63409847D02*
X126577284Y-63409847D01*
X126577284Y-63409847D02*
X126520141Y-63390800D01*
X126520141Y-63390800D02*
X126482046Y-63352704D01*
X126482046Y-63352704D02*
X126462999Y-63314609D01*
X126462999Y-63314609D02*
X126443951Y-63238419D01*
X126443951Y-63238419D02*
X126443951Y-63181276D01*
X126443951Y-63181276D02*
X126462999Y-63105085D01*
X126462999Y-63105085D02*
X126482046Y-63066990D01*
X126482046Y-63066990D02*
X126520141Y-63028895D01*
X126520141Y-63028895D02*
X126577284Y-63009847D01*
X126577284Y-63009847D02*
X126615380Y-63009847D01*
X126615380Y-63009847D02*
X126672522Y-63028895D01*
X126672522Y-63028895D02*
X126691570Y-63047942D01*
X126862999Y-63409847D02*
X126862999Y-63009847D01*
X127091570Y-63409847D02*
X126920141Y-63181276D01*
X127091570Y-63009847D02*
X126862999Y-63238419D01*
X92124486Y-33496361D02*
X92314962Y-33496361D01*
X92086391Y-33610647D02*
X92219724Y-33210647D01*
X92219724Y-33210647D02*
X92353057Y-33610647D01*
X92562581Y-33210647D02*
X92600676Y-33210647D01*
X92600676Y-33210647D02*
X92638772Y-33229695D01*
X92638772Y-33229695D02*
X92657819Y-33248742D01*
X92657819Y-33248742D02*
X92676867Y-33286838D01*
X92676867Y-33286838D02*
X92695914Y-33363028D01*
X92695914Y-33363028D02*
X92695914Y-33458266D01*
X92695914Y-33458266D02*
X92676867Y-33534457D01*
X92676867Y-33534457D02*
X92657819Y-33572552D01*
X92657819Y-33572552D02*
X92638772Y-33591600D01*
X92638772Y-33591600D02*
X92600676Y-33610647D01*
X92600676Y-33610647D02*
X92562581Y-33610647D01*
X92562581Y-33610647D02*
X92524486Y-33591600D01*
X92524486Y-33591600D02*
X92505438Y-33572552D01*
X92505438Y-33572552D02*
X92486391Y-33534457D01*
X92486391Y-33534457D02*
X92467343Y-33458266D01*
X92467343Y-33458266D02*
X92467343Y-33363028D01*
X92467343Y-33363028D02*
X92486391Y-33286838D01*
X92486391Y-33286838D02*
X92505438Y-33248742D01*
X92505438Y-33248742D02*
X92524486Y-33229695D01*
X92524486Y-33229695D02*
X92562581Y-33210647D01*
X126068714Y-67439847D02*
X126068714Y-67039847D01*
X126068714Y-67039847D02*
X126202047Y-67325561D01*
X126202047Y-67325561D02*
X126335380Y-67039847D01*
X126335380Y-67039847D02*
X126335380Y-67439847D01*
X126602047Y-67039847D02*
X126678238Y-67039847D01*
X126678238Y-67039847D02*
X126716333Y-67058895D01*
X126716333Y-67058895D02*
X126754428Y-67096990D01*
X126754428Y-67096990D02*
X126773476Y-67173180D01*
X126773476Y-67173180D02*
X126773476Y-67306514D01*
X126773476Y-67306514D02*
X126754428Y-67382704D01*
X126754428Y-67382704D02*
X126716333Y-67420800D01*
X126716333Y-67420800D02*
X126678238Y-67439847D01*
X126678238Y-67439847D02*
X126602047Y-67439847D01*
X126602047Y-67439847D02*
X126563952Y-67420800D01*
X126563952Y-67420800D02*
X126525857Y-67382704D01*
X126525857Y-67382704D02*
X126506809Y-67306514D01*
X126506809Y-67306514D02*
X126506809Y-67173180D01*
X126506809Y-67173180D02*
X126525857Y-67096990D01*
X126525857Y-67096990D02*
X126563952Y-67058895D01*
X126563952Y-67058895D02*
X126602047Y-67039847D01*
X126925857Y-67420800D02*
X126983000Y-67439847D01*
X126983000Y-67439847D02*
X127078238Y-67439847D01*
X127078238Y-67439847D02*
X127116333Y-67420800D01*
X127116333Y-67420800D02*
X127135381Y-67401752D01*
X127135381Y-67401752D02*
X127154428Y-67363657D01*
X127154428Y-67363657D02*
X127154428Y-67325561D01*
X127154428Y-67325561D02*
X127135381Y-67287466D01*
X127135381Y-67287466D02*
X127116333Y-67268419D01*
X127116333Y-67268419D02*
X127078238Y-67249371D01*
X127078238Y-67249371D02*
X127002047Y-67230323D01*
X127002047Y-67230323D02*
X126963952Y-67211276D01*
X126963952Y-67211276D02*
X126944905Y-67192228D01*
X126944905Y-67192228D02*
X126925857Y-67154133D01*
X126925857Y-67154133D02*
X126925857Y-67116038D01*
X126925857Y-67116038D02*
X126944905Y-67077942D01*
X126944905Y-67077942D02*
X126963952Y-67058895D01*
X126963952Y-67058895D02*
X127002047Y-67039847D01*
X127002047Y-67039847D02*
X127097286Y-67039847D01*
X127097286Y-67039847D02*
X127154428Y-67058895D01*
X127325857Y-67439847D02*
X127325857Y-67039847D01*
X92323533Y-61360647D02*
X92190200Y-61170171D01*
X92094962Y-61360647D02*
X92094962Y-60960647D01*
X92094962Y-60960647D02*
X92247343Y-60960647D01*
X92247343Y-60960647D02*
X92285438Y-60979695D01*
X92285438Y-60979695D02*
X92304485Y-60998742D01*
X92304485Y-60998742D02*
X92323533Y-61036838D01*
X92323533Y-61036838D02*
X92323533Y-61093980D01*
X92323533Y-61093980D02*
X92304485Y-61132076D01*
X92304485Y-61132076D02*
X92285438Y-61151123D01*
X92285438Y-61151123D02*
X92247343Y-61170171D01*
X92247343Y-61170171D02*
X92094962Y-61170171D01*
X92456866Y-60960647D02*
X92723533Y-61360647D01*
X92723533Y-60960647D02*
X92456866Y-61360647D01*
X100940618Y-69371752D02*
X100921570Y-69390800D01*
X100921570Y-69390800D02*
X100864428Y-69409847D01*
X100864428Y-69409847D02*
X100826332Y-69409847D01*
X100826332Y-69409847D02*
X100769189Y-69390800D01*
X100769189Y-69390800D02*
X100731094Y-69352704D01*
X100731094Y-69352704D02*
X100712047Y-69314609D01*
X100712047Y-69314609D02*
X100692999Y-69238419D01*
X100692999Y-69238419D02*
X100692999Y-69181276D01*
X100692999Y-69181276D02*
X100712047Y-69105085D01*
X100712047Y-69105085D02*
X100731094Y-69066990D01*
X100731094Y-69066990D02*
X100769189Y-69028895D01*
X100769189Y-69028895D02*
X100826332Y-69009847D01*
X100826332Y-69009847D02*
X100864428Y-69009847D01*
X100864428Y-69009847D02*
X100921570Y-69028895D01*
X100921570Y-69028895D02*
X100940618Y-69047942D01*
X101092999Y-69390800D02*
X101150142Y-69409847D01*
X101150142Y-69409847D02*
X101245380Y-69409847D01*
X101245380Y-69409847D02*
X101283475Y-69390800D01*
X101283475Y-69390800D02*
X101302523Y-69371752D01*
X101302523Y-69371752D02*
X101321570Y-69333657D01*
X101321570Y-69333657D02*
X101321570Y-69295561D01*
X101321570Y-69295561D02*
X101302523Y-69257466D01*
X101302523Y-69257466D02*
X101283475Y-69238419D01*
X101283475Y-69238419D02*
X101245380Y-69219371D01*
X101245380Y-69219371D02*
X101169189Y-69200323D01*
X101169189Y-69200323D02*
X101131094Y-69181276D01*
X101131094Y-69181276D02*
X101112047Y-69162228D01*
X101112047Y-69162228D02*
X101092999Y-69124133D01*
X101092999Y-69124133D02*
X101092999Y-69086038D01*
X101092999Y-69086038D02*
X101112047Y-69047942D01*
X101112047Y-69047942D02*
X101131094Y-69028895D01*
X101131094Y-69028895D02*
X101169189Y-69009847D01*
X101169189Y-69009847D02*
X101264428Y-69009847D01*
X101264428Y-69009847D02*
X101321570Y-69028895D01*
X134861731Y-62918648D02*
X135090302Y-62918648D01*
X134976016Y-63318648D02*
X134976016Y-62918648D01*
X135185540Y-62918648D02*
X135452207Y-63318648D01*
X135452207Y-62918648D02*
X135185540Y-63318648D01*
X100645380Y-71409847D02*
X100645380Y-71009847D01*
X100835856Y-71409847D02*
X100835856Y-71009847D01*
X100835856Y-71009847D02*
X101064427Y-71409847D01*
X101064427Y-71409847D02*
X101064427Y-71009847D01*
X101197761Y-71009847D02*
X101426332Y-71009847D01*
X101312046Y-71409847D02*
X101312046Y-71009847D01*
X66645437Y-76989695D02*
X66607342Y-76970647D01*
X66607342Y-76970647D02*
X66550199Y-76970647D01*
X66550199Y-76970647D02*
X66493056Y-76989695D01*
X66493056Y-76989695D02*
X66454961Y-77027790D01*
X66454961Y-77027790D02*
X66435914Y-77065885D01*
X66435914Y-77065885D02*
X66416866Y-77142076D01*
X66416866Y-77142076D02*
X66416866Y-77199219D01*
X66416866Y-77199219D02*
X66435914Y-77275409D01*
X66435914Y-77275409D02*
X66454961Y-77313504D01*
X66454961Y-77313504D02*
X66493056Y-77351600D01*
X66493056Y-77351600D02*
X66550199Y-77370647D01*
X66550199Y-77370647D02*
X66588295Y-77370647D01*
X66588295Y-77370647D02*
X66645437Y-77351600D01*
X66645437Y-77351600D02*
X66664485Y-77332552D01*
X66664485Y-77332552D02*
X66664485Y-77199219D01*
X66664485Y-77199219D02*
X66588295Y-77199219D01*
X66835914Y-77370647D02*
X66835914Y-76970647D01*
X66835914Y-76970647D02*
X67064485Y-77370647D01*
X67064485Y-77370647D02*
X67064485Y-76970647D01*
X67254962Y-77370647D02*
X67254962Y-76970647D01*
X67254962Y-76970647D02*
X67350200Y-76970647D01*
X67350200Y-76970647D02*
X67407343Y-76989695D01*
X67407343Y-76989695D02*
X67445438Y-77027790D01*
X67445438Y-77027790D02*
X67464485Y-77065885D01*
X67464485Y-77065885D02*
X67483533Y-77142076D01*
X67483533Y-77142076D02*
X67483533Y-77199219D01*
X67483533Y-77199219D02*
X67464485Y-77275409D01*
X67464485Y-77275409D02*
X67445438Y-77313504D01*
X67445438Y-77313504D02*
X67407343Y-77351600D01*
X67407343Y-77351600D02*
X67350200Y-77370647D01*
X67350200Y-77370647D02*
X67254962Y-77370647D01*
D11*
X154435540Y-80033620D02*
X154435540Y-79033620D01*
X154435540Y-79033620D02*
X154768873Y-79747905D01*
X154768873Y-79747905D02*
X155102206Y-79033620D01*
X155102206Y-79033620D02*
X155102206Y-80033620D01*
X155721254Y-80033620D02*
X155626016Y-79986001D01*
X155626016Y-79986001D02*
X155578397Y-79938381D01*
X155578397Y-79938381D02*
X155530778Y-79843143D01*
X155530778Y-79843143D02*
X155530778Y-79557429D01*
X155530778Y-79557429D02*
X155578397Y-79462191D01*
X155578397Y-79462191D02*
X155626016Y-79414572D01*
X155626016Y-79414572D02*
X155721254Y-79366953D01*
X155721254Y-79366953D02*
X155864111Y-79366953D01*
X155864111Y-79366953D02*
X155959349Y-79414572D01*
X155959349Y-79414572D02*
X156006968Y-79462191D01*
X156006968Y-79462191D02*
X156054587Y-79557429D01*
X156054587Y-79557429D02*
X156054587Y-79843143D01*
X156054587Y-79843143D02*
X156006968Y-79938381D01*
X156006968Y-79938381D02*
X155959349Y-79986001D01*
X155959349Y-79986001D02*
X155864111Y-80033620D01*
X155864111Y-80033620D02*
X155721254Y-80033620D01*
X156911730Y-80033620D02*
X156911730Y-79033620D01*
X156911730Y-79986001D02*
X156816492Y-80033620D01*
X156816492Y-80033620D02*
X156626016Y-80033620D01*
X156626016Y-80033620D02*
X156530778Y-79986001D01*
X156530778Y-79986001D02*
X156483159Y-79938381D01*
X156483159Y-79938381D02*
X156435540Y-79843143D01*
X156435540Y-79843143D02*
X156435540Y-79557429D01*
X156435540Y-79557429D02*
X156483159Y-79462191D01*
X156483159Y-79462191D02*
X156530778Y-79414572D01*
X156530778Y-79414572D02*
X156626016Y-79366953D01*
X156626016Y-79366953D02*
X156816492Y-79366953D01*
X156816492Y-79366953D02*
X156911730Y-79414572D01*
X157816492Y-79366953D02*
X157816492Y-80033620D01*
X157387921Y-79366953D02*
X157387921Y-79890762D01*
X157387921Y-79890762D02*
X157435540Y-79986001D01*
X157435540Y-79986001D02*
X157530778Y-80033620D01*
X157530778Y-80033620D02*
X157673635Y-80033620D01*
X157673635Y-80033620D02*
X157768873Y-79986001D01*
X157768873Y-79986001D02*
X157816492Y-79938381D01*
X158435540Y-80033620D02*
X158340302Y-79986001D01*
X158340302Y-79986001D02*
X158292683Y-79890762D01*
X158292683Y-79890762D02*
X158292683Y-79033620D01*
X159197445Y-79986001D02*
X159102207Y-80033620D01*
X159102207Y-80033620D02*
X158911731Y-80033620D01*
X158911731Y-80033620D02*
X158816493Y-79986001D01*
X158816493Y-79986001D02*
X158768874Y-79890762D01*
X158768874Y-79890762D02*
X158768874Y-79509810D01*
X158768874Y-79509810D02*
X158816493Y-79414572D01*
X158816493Y-79414572D02*
X158911731Y-79366953D01*
X158911731Y-79366953D02*
X159102207Y-79366953D01*
X159102207Y-79366953D02*
X159197445Y-79414572D01*
X159197445Y-79414572D02*
X159245064Y-79509810D01*
X159245064Y-79509810D02*
X159245064Y-79605048D01*
X159245064Y-79605048D02*
X158768874Y-79700286D01*
D10*
X66436867Y-33190647D02*
X66570200Y-33590647D01*
X66570200Y-33590647D02*
X66703533Y-33190647D01*
X67065438Y-33552552D02*
X67046390Y-33571600D01*
X67046390Y-33571600D02*
X66989248Y-33590647D01*
X66989248Y-33590647D02*
X66951152Y-33590647D01*
X66951152Y-33590647D02*
X66894009Y-33571600D01*
X66894009Y-33571600D02*
X66855914Y-33533504D01*
X66855914Y-33533504D02*
X66836867Y-33495409D01*
X66836867Y-33495409D02*
X66817819Y-33419219D01*
X66817819Y-33419219D02*
X66817819Y-33362076D01*
X66817819Y-33362076D02*
X66836867Y-33285885D01*
X66836867Y-33285885D02*
X66855914Y-33247790D01*
X66855914Y-33247790D02*
X66894009Y-33209695D01*
X66894009Y-33209695D02*
X66951152Y-33190647D01*
X66951152Y-33190647D02*
X66989248Y-33190647D01*
X66989248Y-33190647D02*
X67046390Y-33209695D01*
X67046390Y-33209695D02*
X67065438Y-33228742D01*
X67465438Y-33552552D02*
X67446390Y-33571600D01*
X67446390Y-33571600D02*
X67389248Y-33590647D01*
X67389248Y-33590647D02*
X67351152Y-33590647D01*
X67351152Y-33590647D02*
X67294009Y-33571600D01*
X67294009Y-33571600D02*
X67255914Y-33533504D01*
X67255914Y-33533504D02*
X67236867Y-33495409D01*
X67236867Y-33495409D02*
X67217819Y-33419219D01*
X67217819Y-33419219D02*
X67217819Y-33362076D01*
X67217819Y-33362076D02*
X67236867Y-33285885D01*
X67236867Y-33285885D02*
X67255914Y-33247790D01*
X67255914Y-33247790D02*
X67294009Y-33209695D01*
X67294009Y-33209695D02*
X67351152Y-33190647D01*
X67351152Y-33190647D02*
X67389248Y-33190647D01*
X67389248Y-33190647D02*
X67446390Y-33209695D01*
X67446390Y-33209695D02*
X67465438Y-33228742D01*
X66665437Y-51229695D02*
X66627342Y-51210647D01*
X66627342Y-51210647D02*
X66570199Y-51210647D01*
X66570199Y-51210647D02*
X66513056Y-51229695D01*
X66513056Y-51229695D02*
X66474961Y-51267790D01*
X66474961Y-51267790D02*
X66455914Y-51305885D01*
X66455914Y-51305885D02*
X66436866Y-51382076D01*
X66436866Y-51382076D02*
X66436866Y-51439219D01*
X66436866Y-51439219D02*
X66455914Y-51515409D01*
X66455914Y-51515409D02*
X66474961Y-51553504D01*
X66474961Y-51553504D02*
X66513056Y-51591600D01*
X66513056Y-51591600D02*
X66570199Y-51610647D01*
X66570199Y-51610647D02*
X66608295Y-51610647D01*
X66608295Y-51610647D02*
X66665437Y-51591600D01*
X66665437Y-51591600D02*
X66684485Y-51572552D01*
X66684485Y-51572552D02*
X66684485Y-51439219D01*
X66684485Y-51439219D02*
X66608295Y-51439219D01*
X66855914Y-51610647D02*
X66855914Y-51210647D01*
X66855914Y-51210647D02*
X67084485Y-51610647D01*
X67084485Y-51610647D02*
X67084485Y-51210647D01*
X67274962Y-51610647D02*
X67274962Y-51210647D01*
X67274962Y-51210647D02*
X67370200Y-51210647D01*
X67370200Y-51210647D02*
X67427343Y-51229695D01*
X67427343Y-51229695D02*
X67465438Y-51267790D01*
X67465438Y-51267790D02*
X67484485Y-51305885D01*
X67484485Y-51305885D02*
X67503533Y-51382076D01*
X67503533Y-51382076D02*
X67503533Y-51439219D01*
X67503533Y-51439219D02*
X67484485Y-51515409D01*
X67484485Y-51515409D02*
X67465438Y-51553504D01*
X67465438Y-51553504D02*
X67427343Y-51591600D01*
X67427343Y-51591600D02*
X67370200Y-51610647D01*
X67370200Y-51610647D02*
X67274962Y-51610647D01*
X126068714Y-65399847D02*
X126068714Y-64999847D01*
X126068714Y-64999847D02*
X126202047Y-65285561D01*
X126202047Y-65285561D02*
X126335380Y-64999847D01*
X126335380Y-64999847D02*
X126335380Y-65399847D01*
X126525857Y-65399847D02*
X126525857Y-64999847D01*
X126697285Y-65380800D02*
X126754428Y-65399847D01*
X126754428Y-65399847D02*
X126849666Y-65399847D01*
X126849666Y-65399847D02*
X126887761Y-65380800D01*
X126887761Y-65380800D02*
X126906809Y-65361752D01*
X126906809Y-65361752D02*
X126925856Y-65323657D01*
X126925856Y-65323657D02*
X126925856Y-65285561D01*
X126925856Y-65285561D02*
X126906809Y-65247466D01*
X126906809Y-65247466D02*
X126887761Y-65228419D01*
X126887761Y-65228419D02*
X126849666Y-65209371D01*
X126849666Y-65209371D02*
X126773475Y-65190323D01*
X126773475Y-65190323D02*
X126735380Y-65171276D01*
X126735380Y-65171276D02*
X126716333Y-65152228D01*
X126716333Y-65152228D02*
X126697285Y-65114133D01*
X126697285Y-65114133D02*
X126697285Y-65076038D01*
X126697285Y-65076038D02*
X126716333Y-65037942D01*
X126716333Y-65037942D02*
X126735380Y-65018895D01*
X126735380Y-65018895D02*
X126773475Y-64999847D01*
X126773475Y-64999847D02*
X126868714Y-64999847D01*
X126868714Y-64999847D02*
X126925856Y-65018895D01*
X127173475Y-64999847D02*
X127249666Y-64999847D01*
X127249666Y-64999847D02*
X127287761Y-65018895D01*
X127287761Y-65018895D02*
X127325856Y-65056990D01*
X127325856Y-65056990D02*
X127344904Y-65133180D01*
X127344904Y-65133180D02*
X127344904Y-65266514D01*
X127344904Y-65266514D02*
X127325856Y-65342704D01*
X127325856Y-65342704D02*
X127287761Y-65380800D01*
X127287761Y-65380800D02*
X127249666Y-65399847D01*
X127249666Y-65399847D02*
X127173475Y-65399847D01*
X127173475Y-65399847D02*
X127135380Y-65380800D01*
X127135380Y-65380800D02*
X127097285Y-65342704D01*
X127097285Y-65342704D02*
X127078237Y-65266514D01*
X127078237Y-65266514D02*
X127078237Y-65133180D01*
X127078237Y-65133180D02*
X127097285Y-65056990D01*
X127097285Y-65056990D02*
X127135380Y-65018895D01*
X127135380Y-65018895D02*
X127173475Y-64999847D01*
X92085438Y-58970647D02*
X92314009Y-58970647D01*
X92199723Y-59370647D02*
X92199723Y-58970647D01*
X92409247Y-58970647D02*
X92675914Y-59370647D01*
X92675914Y-58970647D02*
X92409247Y-59370647D01*
D11*
X138454588Y-75498620D02*
X138454588Y-76308143D01*
X138454588Y-76308143D02*
X138502207Y-76403381D01*
X138502207Y-76403381D02*
X138549826Y-76451001D01*
X138549826Y-76451001D02*
X138645064Y-76498620D01*
X138645064Y-76498620D02*
X138835540Y-76498620D01*
X138835540Y-76498620D02*
X138930778Y-76451001D01*
X138930778Y-76451001D02*
X138978397Y-76403381D01*
X138978397Y-76403381D02*
X139026016Y-76308143D01*
X139026016Y-76308143D02*
X139026016Y-75498620D01*
X139454588Y-76451001D02*
X139597445Y-76498620D01*
X139597445Y-76498620D02*
X139835540Y-76498620D01*
X139835540Y-76498620D02*
X139930778Y-76451001D01*
X139930778Y-76451001D02*
X139978397Y-76403381D01*
X139978397Y-76403381D02*
X140026016Y-76308143D01*
X140026016Y-76308143D02*
X140026016Y-76212905D01*
X140026016Y-76212905D02*
X139978397Y-76117667D01*
X139978397Y-76117667D02*
X139930778Y-76070048D01*
X139930778Y-76070048D02*
X139835540Y-76022429D01*
X139835540Y-76022429D02*
X139645064Y-75974810D01*
X139645064Y-75974810D02*
X139549826Y-75927191D01*
X139549826Y-75927191D02*
X139502207Y-75879572D01*
X139502207Y-75879572D02*
X139454588Y-75784334D01*
X139454588Y-75784334D02*
X139454588Y-75689096D01*
X139454588Y-75689096D02*
X139502207Y-75593858D01*
X139502207Y-75593858D02*
X139549826Y-75546239D01*
X139549826Y-75546239D02*
X139645064Y-75498620D01*
X139645064Y-75498620D02*
X139883159Y-75498620D01*
X139883159Y-75498620D02*
X140026016Y-75546239D01*
X140787921Y-75974810D02*
X140930778Y-76022429D01*
X140930778Y-76022429D02*
X140978397Y-76070048D01*
X140978397Y-76070048D02*
X141026016Y-76165286D01*
X141026016Y-76165286D02*
X141026016Y-76308143D01*
X141026016Y-76308143D02*
X140978397Y-76403381D01*
X140978397Y-76403381D02*
X140930778Y-76451001D01*
X140930778Y-76451001D02*
X140835540Y-76498620D01*
X140835540Y-76498620D02*
X140454588Y-76498620D01*
X140454588Y-76498620D02*
X140454588Y-75498620D01*
X140454588Y-75498620D02*
X140787921Y-75498620D01*
X140787921Y-75498620D02*
X140883159Y-75546239D01*
X140883159Y-75546239D02*
X140930778Y-75593858D01*
X140930778Y-75593858D02*
X140978397Y-75689096D01*
X140978397Y-75689096D02*
X140978397Y-75784334D01*
X140978397Y-75784334D02*
X140930778Y-75879572D01*
X140930778Y-75879572D02*
X140883159Y-75927191D01*
X140883159Y-75927191D02*
X140787921Y-75974810D01*
X140787921Y-75974810D02*
X140454588Y-75974810D01*
X139430779Y-77203858D02*
X139478398Y-77156239D01*
X139478398Y-77156239D02*
X139573636Y-77108620D01*
X139573636Y-77108620D02*
X139811731Y-77108620D01*
X139811731Y-77108620D02*
X139906969Y-77156239D01*
X139906969Y-77156239D02*
X139954588Y-77203858D01*
X139954588Y-77203858D02*
X140002207Y-77299096D01*
X140002207Y-77299096D02*
X140002207Y-77394334D01*
X140002207Y-77394334D02*
X139954588Y-77537191D01*
X139954588Y-77537191D02*
X139383160Y-78108620D01*
X139383160Y-78108620D02*
X140002207Y-78108620D01*
X123200476Y-30674819D02*
X123200476Y-31389104D01*
X123200476Y-31389104D02*
X123152857Y-31531961D01*
X123152857Y-31531961D02*
X123057619Y-31627200D01*
X123057619Y-31627200D02*
X122914762Y-31674819D01*
X122914762Y-31674819D02*
X122819524Y-31674819D01*
X124200476Y-31674819D02*
X123629048Y-31674819D01*
X123914762Y-31674819D02*
X123914762Y-30674819D01*
X123914762Y-30674819D02*
X123819524Y-30817676D01*
X123819524Y-30817676D02*
X123724286Y-30912914D01*
X123724286Y-30912914D02*
X123629048Y-30960533D01*
X125057619Y-30674819D02*
X124867143Y-30674819D01*
X124867143Y-30674819D02*
X124771905Y-30722438D01*
X124771905Y-30722438D02*
X124724286Y-30770057D01*
X124724286Y-30770057D02*
X124629048Y-30912914D01*
X124629048Y-30912914D02*
X124581429Y-31103390D01*
X124581429Y-31103390D02*
X124581429Y-31484342D01*
X124581429Y-31484342D02*
X124629048Y-31579580D01*
X124629048Y-31579580D02*
X124676667Y-31627200D01*
X124676667Y-31627200D02*
X124771905Y-31674819D01*
X124771905Y-31674819D02*
X124962381Y-31674819D01*
X124962381Y-31674819D02*
X125057619Y-31627200D01*
X125057619Y-31627200D02*
X125105238Y-31579580D01*
X125105238Y-31579580D02*
X125152857Y-31484342D01*
X125152857Y-31484342D02*
X125152857Y-31246247D01*
X125152857Y-31246247D02*
X125105238Y-31151009D01*
X125105238Y-31151009D02*
X125057619Y-31103390D01*
X125057619Y-31103390D02*
X124962381Y-31055771D01*
X124962381Y-31055771D02*
X124771905Y-31055771D01*
X124771905Y-31055771D02*
X124676667Y-31103390D01*
X124676667Y-31103390D02*
X124629048Y-31151009D01*
X124629048Y-31151009D02*
X124581429Y-31246247D01*
X102500476Y-30674819D02*
X102500476Y-31389104D01*
X102500476Y-31389104D02*
X102452857Y-31531961D01*
X102452857Y-31531961D02*
X102357619Y-31627200D01*
X102357619Y-31627200D02*
X102214762Y-31674819D01*
X102214762Y-31674819D02*
X102119524Y-31674819D01*
X103500476Y-31674819D02*
X102929048Y-31674819D01*
X103214762Y-31674819D02*
X103214762Y-30674819D01*
X103214762Y-30674819D02*
X103119524Y-30817676D01*
X103119524Y-30817676D02*
X103024286Y-30912914D01*
X103024286Y-30912914D02*
X102929048Y-30960533D01*
X104405238Y-30674819D02*
X103929048Y-30674819D01*
X103929048Y-30674819D02*
X103881429Y-31151009D01*
X103881429Y-31151009D02*
X103929048Y-31103390D01*
X103929048Y-31103390D02*
X104024286Y-31055771D01*
X104024286Y-31055771D02*
X104262381Y-31055771D01*
X104262381Y-31055771D02*
X104357619Y-31103390D01*
X104357619Y-31103390D02*
X104405238Y-31151009D01*
X104405238Y-31151009D02*
X104452857Y-31246247D01*
X104452857Y-31246247D02*
X104452857Y-31484342D01*
X104452857Y-31484342D02*
X104405238Y-31579580D01*
X104405238Y-31579580D02*
X104357619Y-31627200D01*
X104357619Y-31627200D02*
X104262381Y-31674819D01*
X104262381Y-31674819D02*
X104024286Y-31674819D01*
X104024286Y-31674819D02*
X103929048Y-31627200D01*
X103929048Y-31627200D02*
X103881429Y-31579580D01*
X113040476Y-41294819D02*
X113040476Y-42009104D01*
X113040476Y-42009104D02*
X112992857Y-42151961D01*
X112992857Y-42151961D02*
X112897619Y-42247200D01*
X112897619Y-42247200D02*
X112754762Y-42294819D01*
X112754762Y-42294819D02*
X112659524Y-42294819D01*
X114040476Y-42294819D02*
X113469048Y-42294819D01*
X113754762Y-42294819D02*
X113754762Y-41294819D01*
X113754762Y-41294819D02*
X113659524Y-41437676D01*
X113659524Y-41437676D02*
X113564286Y-41532914D01*
X113564286Y-41532914D02*
X113469048Y-41580533D01*
X114897619Y-41628152D02*
X114897619Y-42294819D01*
X114659524Y-41247200D02*
X114421429Y-41961485D01*
X114421429Y-41961485D02*
X115040476Y-41961485D01*
X90126666Y-56444819D02*
X90126666Y-57159104D01*
X90126666Y-57159104D02*
X90079047Y-57301961D01*
X90079047Y-57301961D02*
X89983809Y-57397200D01*
X89983809Y-57397200D02*
X89840952Y-57444819D01*
X89840952Y-57444819D02*
X89745714Y-57444819D01*
X91031428Y-56444819D02*
X90840952Y-56444819D01*
X90840952Y-56444819D02*
X90745714Y-56492438D01*
X90745714Y-56492438D02*
X90698095Y-56540057D01*
X90698095Y-56540057D02*
X90602857Y-56682914D01*
X90602857Y-56682914D02*
X90555238Y-56873390D01*
X90555238Y-56873390D02*
X90555238Y-57254342D01*
X90555238Y-57254342D02*
X90602857Y-57349580D01*
X90602857Y-57349580D02*
X90650476Y-57397200D01*
X90650476Y-57397200D02*
X90745714Y-57444819D01*
X90745714Y-57444819D02*
X90936190Y-57444819D01*
X90936190Y-57444819D02*
X91031428Y-57397200D01*
X91031428Y-57397200D02*
X91079047Y-57349580D01*
X91079047Y-57349580D02*
X91126666Y-57254342D01*
X91126666Y-57254342D02*
X91126666Y-57016247D01*
X91126666Y-57016247D02*
X91079047Y-56921009D01*
X91079047Y-56921009D02*
X91031428Y-56873390D01*
X91031428Y-56873390D02*
X90936190Y-56825771D01*
X90936190Y-56825771D02*
X90745714Y-56825771D01*
X90745714Y-56825771D02*
X90650476Y-56873390D01*
X90650476Y-56873390D02*
X90602857Y-56921009D01*
X90602857Y-56921009D02*
X90555238Y-57016247D01*
X157236969Y-56443620D02*
X157236969Y-57157905D01*
X157236969Y-57157905D02*
X157189350Y-57300762D01*
X157189350Y-57300762D02*
X157094112Y-57396001D01*
X157094112Y-57396001D02*
X156951255Y-57443620D01*
X156951255Y-57443620D02*
X156856017Y-57443620D01*
X158236969Y-57443620D02*
X157665541Y-57443620D01*
X157951255Y-57443620D02*
X157951255Y-56443620D01*
X157951255Y-56443620D02*
X157856017Y-56586477D01*
X157856017Y-56586477D02*
X157760779Y-56681715D01*
X157760779Y-56681715D02*
X157665541Y-56729334D01*
X158856017Y-56443620D02*
X158951255Y-56443620D01*
X158951255Y-56443620D02*
X159046493Y-56491239D01*
X159046493Y-56491239D02*
X159094112Y-56538858D01*
X159094112Y-56538858D02*
X159141731Y-56634096D01*
X159141731Y-56634096D02*
X159189350Y-56824572D01*
X159189350Y-56824572D02*
X159189350Y-57062667D01*
X159189350Y-57062667D02*
X159141731Y-57253143D01*
X159141731Y-57253143D02*
X159094112Y-57348381D01*
X159094112Y-57348381D02*
X159046493Y-57396001D01*
X159046493Y-57396001D02*
X158951255Y-57443620D01*
X158951255Y-57443620D02*
X158856017Y-57443620D01*
X158856017Y-57443620D02*
X158760779Y-57396001D01*
X158760779Y-57396001D02*
X158713160Y-57348381D01*
X158713160Y-57348381D02*
X158665541Y-57253143D01*
X158665541Y-57253143D02*
X158617922Y-57062667D01*
X158617922Y-57062667D02*
X158617922Y-56824572D01*
X158617922Y-56824572D02*
X158665541Y-56634096D01*
X158665541Y-56634096D02*
X158713160Y-56538858D01*
X158713160Y-56538858D02*
X158760779Y-56491239D01*
X158760779Y-56491239D02*
X158856017Y-56443620D01*
X68426666Y-56484819D02*
X68426666Y-57199104D01*
X68426666Y-57199104D02*
X68379047Y-57341961D01*
X68379047Y-57341961D02*
X68283809Y-57437200D01*
X68283809Y-57437200D02*
X68140952Y-57484819D01*
X68140952Y-57484819D02*
X68045714Y-57484819D01*
X69379047Y-56484819D02*
X68902857Y-56484819D01*
X68902857Y-56484819D02*
X68855238Y-56961009D01*
X68855238Y-56961009D02*
X68902857Y-56913390D01*
X68902857Y-56913390D02*
X68998095Y-56865771D01*
X68998095Y-56865771D02*
X69236190Y-56865771D01*
X69236190Y-56865771D02*
X69331428Y-56913390D01*
X69331428Y-56913390D02*
X69379047Y-56961009D01*
X69379047Y-56961009D02*
X69426666Y-57056247D01*
X69426666Y-57056247D02*
X69426666Y-57294342D01*
X69426666Y-57294342D02*
X69379047Y-57389580D01*
X69379047Y-57389580D02*
X69331428Y-57437200D01*
X69331428Y-57437200D02*
X69236190Y-57484819D01*
X69236190Y-57484819D02*
X68998095Y-57484819D01*
X68998095Y-57484819D02*
X68902857Y-57437200D01*
X68902857Y-57437200D02*
X68855238Y-57389580D01*
X117433582Y-65784819D02*
X117100249Y-65308628D01*
X116862154Y-65784819D02*
X116862154Y-64784819D01*
X116862154Y-64784819D02*
X117243106Y-64784819D01*
X117243106Y-64784819D02*
X117338344Y-64832438D01*
X117338344Y-64832438D02*
X117385963Y-64880057D01*
X117385963Y-64880057D02*
X117433582Y-64975295D01*
X117433582Y-64975295D02*
X117433582Y-65118152D01*
X117433582Y-65118152D02*
X117385963Y-65213390D01*
X117385963Y-65213390D02*
X117338344Y-65261009D01*
X117338344Y-65261009D02*
X117243106Y-65308628D01*
X117243106Y-65308628D02*
X116862154Y-65308628D01*
X118005011Y-65213390D02*
X117909773Y-65165771D01*
X117909773Y-65165771D02*
X117862154Y-65118152D01*
X117862154Y-65118152D02*
X117814535Y-65022914D01*
X117814535Y-65022914D02*
X117814535Y-64975295D01*
X117814535Y-64975295D02*
X117862154Y-64880057D01*
X117862154Y-64880057D02*
X117909773Y-64832438D01*
X117909773Y-64832438D02*
X118005011Y-64784819D01*
X118005011Y-64784819D02*
X118195487Y-64784819D01*
X118195487Y-64784819D02*
X118290725Y-64832438D01*
X118290725Y-64832438D02*
X118338344Y-64880057D01*
X118338344Y-64880057D02*
X118385963Y-64975295D01*
X118385963Y-64975295D02*
X118385963Y-65022914D01*
X118385963Y-65022914D02*
X118338344Y-65118152D01*
X118338344Y-65118152D02*
X118290725Y-65165771D01*
X118290725Y-65165771D02*
X118195487Y-65213390D01*
X118195487Y-65213390D02*
X118005011Y-65213390D01*
X118005011Y-65213390D02*
X117909773Y-65261009D01*
X117909773Y-65261009D02*
X117862154Y-65308628D01*
X117862154Y-65308628D02*
X117814535Y-65403866D01*
X117814535Y-65403866D02*
X117814535Y-65594342D01*
X117814535Y-65594342D02*
X117862154Y-65689580D01*
X117862154Y-65689580D02*
X117909773Y-65737200D01*
X117909773Y-65737200D02*
X118005011Y-65784819D01*
X118005011Y-65784819D02*
X118195487Y-65784819D01*
X118195487Y-65784819D02*
X118290725Y-65737200D01*
X118290725Y-65737200D02*
X118338344Y-65689580D01*
X118338344Y-65689580D02*
X118385963Y-65594342D01*
X118385963Y-65594342D02*
X118385963Y-65403866D01*
X118385963Y-65403866D02*
X118338344Y-65308628D01*
X118338344Y-65308628D02*
X118290725Y-65261009D01*
X118290725Y-65261009D02*
X118195487Y-65213390D01*
X102496915Y-56554819D02*
X102496915Y-57269104D01*
X102496915Y-57269104D02*
X102449296Y-57411961D01*
X102449296Y-57411961D02*
X102354058Y-57507200D01*
X102354058Y-57507200D02*
X102211201Y-57554819D01*
X102211201Y-57554819D02*
X102115963Y-57554819D01*
X102925487Y-56650057D02*
X102973106Y-56602438D01*
X102973106Y-56602438D02*
X103068344Y-56554819D01*
X103068344Y-56554819D02*
X103306439Y-56554819D01*
X103306439Y-56554819D02*
X103401677Y-56602438D01*
X103401677Y-56602438D02*
X103449296Y-56650057D01*
X103449296Y-56650057D02*
X103496915Y-56745295D01*
X103496915Y-56745295D02*
X103496915Y-56840533D01*
X103496915Y-56840533D02*
X103449296Y-56983390D01*
X103449296Y-56983390D02*
X102877868Y-57554819D01*
X102877868Y-57554819D02*
X103496915Y-57554819D01*
X108113582Y-66289580D02*
X108065963Y-66337200D01*
X108065963Y-66337200D02*
X107923106Y-66384819D01*
X107923106Y-66384819D02*
X107827868Y-66384819D01*
X107827868Y-66384819D02*
X107685011Y-66337200D01*
X107685011Y-66337200D02*
X107589773Y-66241961D01*
X107589773Y-66241961D02*
X107542154Y-66146723D01*
X107542154Y-66146723D02*
X107494535Y-65956247D01*
X107494535Y-65956247D02*
X107494535Y-65813390D01*
X107494535Y-65813390D02*
X107542154Y-65622914D01*
X107542154Y-65622914D02*
X107589773Y-65527676D01*
X107589773Y-65527676D02*
X107685011Y-65432438D01*
X107685011Y-65432438D02*
X107827868Y-65384819D01*
X107827868Y-65384819D02*
X107923106Y-65384819D01*
X107923106Y-65384819D02*
X108065963Y-65432438D01*
X108065963Y-65432438D02*
X108113582Y-65480057D01*
X109065963Y-66384819D02*
X108494535Y-66384819D01*
X108780249Y-66384819D02*
X108780249Y-65384819D01*
X108780249Y-65384819D02*
X108685011Y-65527676D01*
X108685011Y-65527676D02*
X108589773Y-65622914D01*
X108589773Y-65622914D02*
X108494535Y-65670533D01*
X117443582Y-60554819D02*
X117110249Y-60078628D01*
X116872154Y-60554819D02*
X116872154Y-59554819D01*
X116872154Y-59554819D02*
X117253106Y-59554819D01*
X117253106Y-59554819D02*
X117348344Y-59602438D01*
X117348344Y-59602438D02*
X117395963Y-59650057D01*
X117395963Y-59650057D02*
X117443582Y-59745295D01*
X117443582Y-59745295D02*
X117443582Y-59888152D01*
X117443582Y-59888152D02*
X117395963Y-59983390D01*
X117395963Y-59983390D02*
X117348344Y-60031009D01*
X117348344Y-60031009D02*
X117253106Y-60078628D01*
X117253106Y-60078628D02*
X116872154Y-60078628D01*
X118300725Y-59554819D02*
X118110249Y-59554819D01*
X118110249Y-59554819D02*
X118015011Y-59602438D01*
X118015011Y-59602438D02*
X117967392Y-59650057D01*
X117967392Y-59650057D02*
X117872154Y-59792914D01*
X117872154Y-59792914D02*
X117824535Y-59983390D01*
X117824535Y-59983390D02*
X117824535Y-60364342D01*
X117824535Y-60364342D02*
X117872154Y-60459580D01*
X117872154Y-60459580D02*
X117919773Y-60507200D01*
X117919773Y-60507200D02*
X118015011Y-60554819D01*
X118015011Y-60554819D02*
X118205487Y-60554819D01*
X118205487Y-60554819D02*
X118300725Y-60507200D01*
X118300725Y-60507200D02*
X118348344Y-60459580D01*
X118348344Y-60459580D02*
X118395963Y-60364342D01*
X118395963Y-60364342D02*
X118395963Y-60126247D01*
X118395963Y-60126247D02*
X118348344Y-60031009D01*
X118348344Y-60031009D02*
X118300725Y-59983390D01*
X118300725Y-59983390D02*
X118205487Y-59935771D01*
X118205487Y-59935771D02*
X118015011Y-59935771D01*
X118015011Y-59935771D02*
X117919773Y-59983390D01*
X117919773Y-59983390D02*
X117872154Y-60031009D01*
X117872154Y-60031009D02*
X117824535Y-60126247D01*
X136503159Y-56483620D02*
X136503159Y-57197905D01*
X136503159Y-57197905D02*
X136455540Y-57340762D01*
X136455540Y-57340762D02*
X136360302Y-57436001D01*
X136360302Y-57436001D02*
X136217445Y-57483620D01*
X136217445Y-57483620D02*
X136122207Y-57483620D01*
X137026969Y-57483620D02*
X137217445Y-57483620D01*
X137217445Y-57483620D02*
X137312683Y-57436001D01*
X137312683Y-57436001D02*
X137360302Y-57388381D01*
X137360302Y-57388381D02*
X137455540Y-57245524D01*
X137455540Y-57245524D02*
X137503159Y-57055048D01*
X137503159Y-57055048D02*
X137503159Y-56674096D01*
X137503159Y-56674096D02*
X137455540Y-56578858D01*
X137455540Y-56578858D02*
X137407921Y-56531239D01*
X137407921Y-56531239D02*
X137312683Y-56483620D01*
X137312683Y-56483620D02*
X137122207Y-56483620D01*
X137122207Y-56483620D02*
X137026969Y-56531239D01*
X137026969Y-56531239D02*
X136979350Y-56578858D01*
X136979350Y-56578858D02*
X136931731Y-56674096D01*
X136931731Y-56674096D02*
X136931731Y-56912191D01*
X136931731Y-56912191D02*
X136979350Y-57007429D01*
X136979350Y-57007429D02*
X137026969Y-57055048D01*
X137026969Y-57055048D02*
X137122207Y-57102667D01*
X137122207Y-57102667D02*
X137312683Y-57102667D01*
X137312683Y-57102667D02*
X137407921Y-57055048D01*
X137407921Y-57055048D02*
X137455540Y-57007429D01*
X137455540Y-57007429D02*
X137503159Y-56912191D01*
X124416915Y-56544819D02*
X124416915Y-57259104D01*
X124416915Y-57259104D02*
X124369296Y-57401961D01*
X124369296Y-57401961D02*
X124274058Y-57497200D01*
X124274058Y-57497200D02*
X124131201Y-57544819D01*
X124131201Y-57544819D02*
X124035963Y-57544819D01*
X124797868Y-56544819D02*
X125416915Y-56544819D01*
X125416915Y-56544819D02*
X125083582Y-56925771D01*
X125083582Y-56925771D02*
X125226439Y-56925771D01*
X125226439Y-56925771D02*
X125321677Y-56973390D01*
X125321677Y-56973390D02*
X125369296Y-57021009D01*
X125369296Y-57021009D02*
X125416915Y-57116247D01*
X125416915Y-57116247D02*
X125416915Y-57354342D01*
X125416915Y-57354342D02*
X125369296Y-57449580D01*
X125369296Y-57449580D02*
X125321677Y-57497200D01*
X125321677Y-57497200D02*
X125226439Y-57544819D01*
X125226439Y-57544819D02*
X124940725Y-57544819D01*
X124940725Y-57544819D02*
X124845487Y-57497200D01*
X124845487Y-57497200D02*
X124797868Y-57449580D01*
X140003159Y-68923620D02*
X140003159Y-69637905D01*
X140003159Y-69637905D02*
X139955540Y-69780762D01*
X139955540Y-69780762D02*
X139860302Y-69876001D01*
X139860302Y-69876001D02*
X139717445Y-69923620D01*
X139717445Y-69923620D02*
X139622207Y-69923620D01*
X140622207Y-69352191D02*
X140526969Y-69304572D01*
X140526969Y-69304572D02*
X140479350Y-69256953D01*
X140479350Y-69256953D02*
X140431731Y-69161715D01*
X140431731Y-69161715D02*
X140431731Y-69114096D01*
X140431731Y-69114096D02*
X140479350Y-69018858D01*
X140479350Y-69018858D02*
X140526969Y-68971239D01*
X140526969Y-68971239D02*
X140622207Y-68923620D01*
X140622207Y-68923620D02*
X140812683Y-68923620D01*
X140812683Y-68923620D02*
X140907921Y-68971239D01*
X140907921Y-68971239D02*
X140955540Y-69018858D01*
X140955540Y-69018858D02*
X141003159Y-69114096D01*
X141003159Y-69114096D02*
X141003159Y-69161715D01*
X141003159Y-69161715D02*
X140955540Y-69256953D01*
X140955540Y-69256953D02*
X140907921Y-69304572D01*
X140907921Y-69304572D02*
X140812683Y-69352191D01*
X140812683Y-69352191D02*
X140622207Y-69352191D01*
X140622207Y-69352191D02*
X140526969Y-69399810D01*
X140526969Y-69399810D02*
X140479350Y-69447429D01*
X140479350Y-69447429D02*
X140431731Y-69542667D01*
X140431731Y-69542667D02*
X140431731Y-69733143D01*
X140431731Y-69733143D02*
X140479350Y-69828381D01*
X140479350Y-69828381D02*
X140526969Y-69876001D01*
X140526969Y-69876001D02*
X140622207Y-69923620D01*
X140622207Y-69923620D02*
X140812683Y-69923620D01*
X140812683Y-69923620D02*
X140907921Y-69876001D01*
X140907921Y-69876001D02*
X140955540Y-69828381D01*
X140955540Y-69828381D02*
X141003159Y-69733143D01*
X141003159Y-69733143D02*
X141003159Y-69542667D01*
X141003159Y-69542667D02*
X140955540Y-69447429D01*
X140955540Y-69447429D02*
X140907921Y-69399810D01*
X140907921Y-69399810D02*
X140812683Y-69352191D01*
X117423582Y-64204819D02*
X117090249Y-63728628D01*
X116852154Y-64204819D02*
X116852154Y-63204819D01*
X116852154Y-63204819D02*
X117233106Y-63204819D01*
X117233106Y-63204819D02*
X117328344Y-63252438D01*
X117328344Y-63252438D02*
X117375963Y-63300057D01*
X117375963Y-63300057D02*
X117423582Y-63395295D01*
X117423582Y-63395295D02*
X117423582Y-63538152D01*
X117423582Y-63538152D02*
X117375963Y-63633390D01*
X117375963Y-63633390D02*
X117328344Y-63681009D01*
X117328344Y-63681009D02*
X117233106Y-63728628D01*
X117233106Y-63728628D02*
X116852154Y-63728628D01*
X117899773Y-64204819D02*
X118090249Y-64204819D01*
X118090249Y-64204819D02*
X118185487Y-64157200D01*
X118185487Y-64157200D02*
X118233106Y-64109580D01*
X118233106Y-64109580D02*
X118328344Y-63966723D01*
X118328344Y-63966723D02*
X118375963Y-63776247D01*
X118375963Y-63776247D02*
X118375963Y-63395295D01*
X118375963Y-63395295D02*
X118328344Y-63300057D01*
X118328344Y-63300057D02*
X118280725Y-63252438D01*
X118280725Y-63252438D02*
X118185487Y-63204819D01*
X118185487Y-63204819D02*
X117995011Y-63204819D01*
X117995011Y-63204819D02*
X117899773Y-63252438D01*
X117899773Y-63252438D02*
X117852154Y-63300057D01*
X117852154Y-63300057D02*
X117804535Y-63395295D01*
X117804535Y-63395295D02*
X117804535Y-63633390D01*
X117804535Y-63633390D02*
X117852154Y-63728628D01*
X117852154Y-63728628D02*
X117899773Y-63776247D01*
X117899773Y-63776247D02*
X117995011Y-63823866D01*
X117995011Y-63823866D02*
X118185487Y-63823866D01*
X118185487Y-63823866D02*
X118280725Y-63776247D01*
X118280725Y-63776247D02*
X118328344Y-63728628D01*
X118328344Y-63728628D02*
X118375963Y-63633390D01*
X79476866Y-65805619D02*
X79476866Y-66519904D01*
X79476866Y-66519904D02*
X79429247Y-66662761D01*
X79429247Y-66662761D02*
X79334009Y-66758000D01*
X79334009Y-66758000D02*
X79191152Y-66805619D01*
X79191152Y-66805619D02*
X79095914Y-66805619D01*
X80381628Y-66138952D02*
X80381628Y-66805619D01*
X80143533Y-65758000D02*
X79905438Y-66472285D01*
X79905438Y-66472285D02*
X80524485Y-66472285D01*
X155143159Y-66483620D02*
X155143159Y-67197905D01*
X155143159Y-67197905D02*
X155095540Y-67340762D01*
X155095540Y-67340762D02*
X155000302Y-67436001D01*
X155000302Y-67436001D02*
X154857445Y-67483620D01*
X154857445Y-67483620D02*
X154762207Y-67483620D01*
X155524112Y-66483620D02*
X156190778Y-66483620D01*
X156190778Y-66483620D02*
X155762207Y-67483620D01*
X78960476Y-41374819D02*
X78960476Y-42089104D01*
X78960476Y-42089104D02*
X78912857Y-42231961D01*
X78912857Y-42231961D02*
X78817619Y-42327200D01*
X78817619Y-42327200D02*
X78674762Y-42374819D01*
X78674762Y-42374819D02*
X78579524Y-42374819D01*
X79960476Y-42374819D02*
X79389048Y-42374819D01*
X79674762Y-42374819D02*
X79674762Y-41374819D01*
X79674762Y-41374819D02*
X79579524Y-41517676D01*
X79579524Y-41517676D02*
X79484286Y-41612914D01*
X79484286Y-41612914D02*
X79389048Y-41660533D01*
X80912857Y-42374819D02*
X80341429Y-42374819D01*
X80627143Y-42374819D02*
X80627143Y-41374819D01*
X80627143Y-41374819D02*
X80531905Y-41517676D01*
X80531905Y-41517676D02*
X80436667Y-41612914D01*
X80436667Y-41612914D02*
X80341429Y-41660533D01*
X123026915Y-79274819D02*
X123026915Y-79989104D01*
X123026915Y-79989104D02*
X122979296Y-80131961D01*
X122979296Y-80131961D02*
X122884058Y-80227200D01*
X122884058Y-80227200D02*
X122741201Y-80274819D01*
X122741201Y-80274819D02*
X122645963Y-80274819D01*
X124026915Y-80274819D02*
X123455487Y-80274819D01*
X123741201Y-80274819D02*
X123741201Y-79274819D01*
X123741201Y-79274819D02*
X123645963Y-79417676D01*
X123645963Y-79417676D02*
X123550725Y-79512914D01*
X123550725Y-79512914D02*
X123455487Y-79560533D01*
X117393582Y-58954819D02*
X117060249Y-58478628D01*
X116822154Y-58954819D02*
X116822154Y-57954819D01*
X116822154Y-57954819D02*
X117203106Y-57954819D01*
X117203106Y-57954819D02*
X117298344Y-58002438D01*
X117298344Y-58002438D02*
X117345963Y-58050057D01*
X117345963Y-58050057D02*
X117393582Y-58145295D01*
X117393582Y-58145295D02*
X117393582Y-58288152D01*
X117393582Y-58288152D02*
X117345963Y-58383390D01*
X117345963Y-58383390D02*
X117298344Y-58431009D01*
X117298344Y-58431009D02*
X117203106Y-58478628D01*
X117203106Y-58478628D02*
X116822154Y-58478628D01*
X117726916Y-57954819D02*
X118393582Y-57954819D01*
X118393582Y-57954819D02*
X117965011Y-58954819D01*
X89230476Y-30764819D02*
X89230476Y-31479104D01*
X89230476Y-31479104D02*
X89182857Y-31621961D01*
X89182857Y-31621961D02*
X89087619Y-31717200D01*
X89087619Y-31717200D02*
X88944762Y-31764819D01*
X88944762Y-31764819D02*
X88849524Y-31764819D01*
X90230476Y-31764819D02*
X89659048Y-31764819D01*
X89944762Y-31764819D02*
X89944762Y-30764819D01*
X89944762Y-30764819D02*
X89849524Y-30907676D01*
X89849524Y-30907676D02*
X89754286Y-31002914D01*
X89754286Y-31002914D02*
X89659048Y-31050533D01*
X90563810Y-30764819D02*
X91182857Y-30764819D01*
X91182857Y-30764819D02*
X90849524Y-31145771D01*
X90849524Y-31145771D02*
X90992381Y-31145771D01*
X90992381Y-31145771D02*
X91087619Y-31193390D01*
X91087619Y-31193390D02*
X91135238Y-31241009D01*
X91135238Y-31241009D02*
X91182857Y-31336247D01*
X91182857Y-31336247D02*
X91182857Y-31574342D01*
X91182857Y-31574342D02*
X91135238Y-31669580D01*
X91135238Y-31669580D02*
X91087619Y-31717200D01*
X91087619Y-31717200D02*
X90992381Y-31764819D01*
X90992381Y-31764819D02*
X90706667Y-31764819D01*
X90706667Y-31764819D02*
X90611429Y-31717200D01*
X90611429Y-31717200D02*
X90563810Y-31669580D01*
X68470476Y-30754819D02*
X68470476Y-31469104D01*
X68470476Y-31469104D02*
X68422857Y-31611961D01*
X68422857Y-31611961D02*
X68327619Y-31707200D01*
X68327619Y-31707200D02*
X68184762Y-31754819D01*
X68184762Y-31754819D02*
X68089524Y-31754819D01*
X69470476Y-31754819D02*
X68899048Y-31754819D01*
X69184762Y-31754819D02*
X69184762Y-30754819D01*
X69184762Y-30754819D02*
X69089524Y-30897676D01*
X69089524Y-30897676D02*
X68994286Y-30992914D01*
X68994286Y-30992914D02*
X68899048Y-31040533D01*
X69851429Y-30850057D02*
X69899048Y-30802438D01*
X69899048Y-30802438D02*
X69994286Y-30754819D01*
X69994286Y-30754819D02*
X70232381Y-30754819D01*
X70232381Y-30754819D02*
X70327619Y-30802438D01*
X70327619Y-30802438D02*
X70375238Y-30850057D01*
X70375238Y-30850057D02*
X70422857Y-30945295D01*
X70422857Y-30945295D02*
X70422857Y-31040533D01*
X70422857Y-31040533D02*
X70375238Y-31183390D01*
X70375238Y-31183390D02*
X69803810Y-31754819D01*
X69803810Y-31754819D02*
X70422857Y-31754819D01*
X116487391Y-62439580D02*
X116439772Y-62487200D01*
X116439772Y-62487200D02*
X116296915Y-62534819D01*
X116296915Y-62534819D02*
X116201677Y-62534819D01*
X116201677Y-62534819D02*
X116058820Y-62487200D01*
X116058820Y-62487200D02*
X115963582Y-62391961D01*
X115963582Y-62391961D02*
X115915963Y-62296723D01*
X115915963Y-62296723D02*
X115868344Y-62106247D01*
X115868344Y-62106247D02*
X115868344Y-61963390D01*
X115868344Y-61963390D02*
X115915963Y-61772914D01*
X115915963Y-61772914D02*
X115963582Y-61677676D01*
X115963582Y-61677676D02*
X116058820Y-61582438D01*
X116058820Y-61582438D02*
X116201677Y-61534819D01*
X116201677Y-61534819D02*
X116296915Y-61534819D01*
X116296915Y-61534819D02*
X116439772Y-61582438D01*
X116439772Y-61582438D02*
X116487391Y-61630057D01*
X117439772Y-62534819D02*
X116868344Y-62534819D01*
X117154058Y-62534819D02*
X117154058Y-61534819D01*
X117154058Y-61534819D02*
X117058820Y-61677676D01*
X117058820Y-61677676D02*
X116963582Y-61772914D01*
X116963582Y-61772914D02*
X116868344Y-61820533D01*
X118058820Y-61534819D02*
X118154058Y-61534819D01*
X118154058Y-61534819D02*
X118249296Y-61582438D01*
X118249296Y-61582438D02*
X118296915Y-61630057D01*
X118296915Y-61630057D02*
X118344534Y-61725295D01*
X118344534Y-61725295D02*
X118392153Y-61915771D01*
X118392153Y-61915771D02*
X118392153Y-62153866D01*
X118392153Y-62153866D02*
X118344534Y-62344342D01*
X118344534Y-62344342D02*
X118296915Y-62439580D01*
X118296915Y-62439580D02*
X118249296Y-62487200D01*
X118249296Y-62487200D02*
X118154058Y-62534819D01*
X118154058Y-62534819D02*
X118058820Y-62534819D01*
X118058820Y-62534819D02*
X117963582Y-62487200D01*
X117963582Y-62487200D02*
X117915963Y-62439580D01*
X117915963Y-62439580D02*
X117868344Y-62344342D01*
X117868344Y-62344342D02*
X117820725Y-62153866D01*
X117820725Y-62153866D02*
X117820725Y-61915771D01*
X117820725Y-61915771D02*
X117868344Y-61725295D01*
X117868344Y-61725295D02*
X117915963Y-61630057D01*
X117915963Y-61630057D02*
X117963582Y-61582438D01*
X117963582Y-61582438D02*
X118058820Y-61534819D01*
D12*
%TO.C,J16*%
X125860000Y-32360000D02*
X125860000Y-33420000D01*
X124800000Y-32360000D02*
X125860000Y-32360000D01*
X125860000Y-34420000D02*
X125860000Y-52480000D01*
X123740000Y-34420000D02*
X123740000Y-52480000D01*
X123740000Y-52480000D02*
X125860000Y-52480000D01*
X123740000Y-34420000D02*
X125860000Y-34420000D01*
%TO.C,J15*%
X103890000Y-32370000D02*
X103890000Y-33430000D01*
X102830000Y-32370000D02*
X103890000Y-32370000D01*
X103890000Y-34430000D02*
X103890000Y-52490000D01*
X101770000Y-34430000D02*
X101770000Y-52490000D01*
X101770000Y-52490000D02*
X103890000Y-52490000D01*
X101770000Y-34430000D02*
X103890000Y-34430000D01*
%TO.C,J14*%
X120160000Y-42930000D02*
X107540000Y-42930000D01*
X120150000Y-45190000D02*
X119400000Y-45190000D01*
X119400000Y-48140000D02*
X113850000Y-48140000D01*
X107550000Y-45190000D02*
X108300000Y-45190000D01*
X107540000Y-48900000D02*
X120160000Y-48900000D01*
X107540000Y-42930000D02*
X107540000Y-48900000D01*
X120160000Y-48900000D02*
X120160000Y-42930000D01*
X118350000Y-43690000D02*
X120150000Y-43690000D01*
X116850000Y-43690000D02*
X116850000Y-42940000D01*
X108500000Y-42640000D02*
X107250000Y-42640000D01*
X119400000Y-45190000D02*
X119400000Y-48140000D01*
X109350000Y-43690000D02*
X109350000Y-42940000D01*
X107250000Y-42640000D02*
X107250000Y-43890000D01*
X107550000Y-42940000D02*
X107550000Y-43690000D01*
X120150000Y-42940000D02*
X118350000Y-42940000D01*
X107550000Y-43690000D02*
X109350000Y-43690000D01*
X118350000Y-42940000D02*
X118350000Y-43690000D01*
X108300000Y-45190000D02*
X108300000Y-48140000D01*
X116850000Y-42940000D02*
X110850000Y-42940000D01*
X109350000Y-42940000D02*
X107550000Y-42940000D01*
X120150000Y-43690000D02*
X120150000Y-42940000D01*
X108300000Y-48140000D02*
X113850000Y-48140000D01*
X110850000Y-43690000D02*
X116850000Y-43690000D01*
X110850000Y-42940000D02*
X110850000Y-43690000D01*
D11*
%TO.C,EXP_ORIENTATION*%
X113820000Y-31930000D02*
X113820000Y-30830000D01*
X113820000Y-30830000D02*
X113470000Y-31230000D01*
X113820000Y-30830000D02*
X114170000Y-31230000D01*
X113899057Y-32630000D02*
G75*
G03*
X113899057Y-32630000I-79057J0D01*
G01*
X114520446Y-32630000D02*
G75*
G03*
X114520446Y-32630000I-700446J0D01*
G01*
D12*
%TO.C,J6*%
X89700000Y-60200000D02*
X89700000Y-78260000D01*
X89700000Y-60200000D02*
X91820000Y-60200000D01*
X89700000Y-78260000D02*
X91820000Y-78260000D01*
X90760000Y-58140000D02*
X91820000Y-58140000D01*
X91820000Y-58140000D02*
X91820000Y-59200000D01*
X91820000Y-60200000D02*
X91820000Y-78260000D01*
%TO.C,J10*%
X157766493Y-60198801D02*
X157766493Y-78258801D01*
X157766493Y-60198801D02*
X159886493Y-60198801D01*
X157766493Y-78258801D02*
X159886493Y-78258801D01*
X158826493Y-58138801D02*
X159886493Y-58138801D01*
X159886493Y-58138801D02*
X159886493Y-59198801D01*
X159886493Y-60198801D02*
X159886493Y-78258801D01*
%TO.C,J5*%
X67720000Y-60190000D02*
X67720000Y-78250000D01*
X67720000Y-60190000D02*
X69840000Y-60190000D01*
X67720000Y-78250000D02*
X69840000Y-78250000D01*
X68780000Y-58130000D02*
X69840000Y-58130000D01*
X69840000Y-58130000D02*
X69840000Y-59190000D01*
X69840000Y-60190000D02*
X69840000Y-78250000D01*
%TO.C,R8*%
X119927991Y-64807500D02*
X120402507Y-64807500D01*
X119927991Y-65852500D02*
X120402507Y-65852500D01*
%TO.C,J2*%
X101769285Y-60195000D02*
X101769285Y-78255000D01*
X101769285Y-60195000D02*
X103889285Y-60195000D01*
X101769285Y-78255000D02*
X103889285Y-78255000D01*
X102829285Y-58135000D02*
X103889285Y-58135000D01*
X103889285Y-58135000D02*
X103889285Y-59195000D01*
X103889285Y-60195000D02*
X103889285Y-78255000D01*
%TO.C,C1*%
X109870249Y-58770000D02*
X109870249Y-59270000D01*
X110120249Y-59020000D02*
X109620249Y-59020000D01*
X109505812Y-59510000D02*
X109370249Y-59510000D01*
X109505812Y-59510000D02*
X110570249Y-60574437D01*
X107114686Y-59510000D02*
X107250249Y-59510000D01*
X107114686Y-59510000D02*
X106050249Y-60574437D01*
X110570249Y-60574437D02*
X110570249Y-64030000D01*
X106050249Y-60574437D02*
X106050249Y-64030000D01*
X110570249Y-64030000D02*
X109370249Y-64030000D01*
X106050249Y-64030000D02*
X107250249Y-64030000D01*
%TO.C,R6*%
X119937991Y-59577500D02*
X120412507Y-59577500D01*
X119937991Y-60622500D02*
X120412507Y-60622500D01*
%TO.C,J9*%
X135786493Y-60188801D02*
X135786493Y-78248801D01*
X135786493Y-60188801D02*
X137906493Y-60188801D01*
X135786493Y-78248801D02*
X137906493Y-78248801D01*
X136846493Y-58128801D02*
X137906493Y-58128801D01*
X137906493Y-58128801D02*
X137906493Y-59188801D01*
X137906493Y-60188801D02*
X137906493Y-78248801D01*
D11*
%TO.C,EXP_ORIENTATION*%
X79770000Y-57690000D02*
X79770000Y-56590000D01*
X79770000Y-56590000D02*
X79420000Y-56990000D01*
X79770000Y-56590000D02*
X80120000Y-56990000D01*
X79849057Y-58390000D02*
G75*
G03*
X79849057Y-58390000I-79057J0D01*
G01*
X80470446Y-58390000D02*
G75*
G03*
X80470446Y-58390000I-700446J0D01*
G01*
D12*
%TO.C,J3*%
X123770249Y-60200000D02*
X123770249Y-78260000D01*
X123770249Y-60200000D02*
X125890249Y-60200000D01*
X123770249Y-78260000D02*
X125890249Y-78260000D01*
X124830249Y-58140000D02*
X125890249Y-58140000D01*
X125890249Y-58140000D02*
X125890249Y-59200000D01*
X125890249Y-60200000D02*
X125890249Y-78260000D01*
%TO.C,J8*%
X140656493Y-82358801D02*
X140656493Y-82858801D01*
X140656493Y-82858801D02*
X155156493Y-82858801D01*
X141656493Y-68858801D02*
X141656493Y-70858801D01*
X141656493Y-74358801D02*
X141656493Y-82358801D01*
X141656493Y-82358801D02*
X140656493Y-82358801D01*
X143906493Y-68608801D02*
X144906493Y-68608801D01*
X154156493Y-68858801D02*
X141656493Y-68858801D01*
X154156493Y-70858801D02*
X154156493Y-68858801D01*
X154156493Y-82358801D02*
X154156493Y-74358801D01*
X155156493Y-82358801D02*
X154156493Y-82358801D01*
X155156493Y-82858801D02*
X155156493Y-82358801D01*
D11*
%TO.C,EXP_ORIENTATION*%
X147906493Y-57708801D02*
X147906493Y-56608801D01*
X147906493Y-56608801D02*
X147556493Y-57008801D01*
X147906493Y-56608801D02*
X148256493Y-57008801D01*
X147985550Y-58408801D02*
G75*
G03*
X147985550Y-58408801I-79057J0D01*
G01*
X148606939Y-58408801D02*
G75*
G03*
X148606939Y-58408801I-700446J0D01*
G01*
D12*
%TO.C,R9*%
X119930027Y-63227500D02*
X120404543Y-63227500D01*
X119930027Y-64272500D02*
X120404543Y-64272500D01*
%TO.C,J4*%
X72560200Y-81100800D02*
X72560200Y-81600800D01*
X72560200Y-81600800D02*
X87060200Y-81600800D01*
X73560200Y-67600800D02*
X73560200Y-69600800D01*
X73560200Y-73100800D02*
X73560200Y-81100800D01*
X73560200Y-81100800D02*
X72560200Y-81100800D01*
X75810200Y-67350800D02*
X76810200Y-67350800D01*
X86060200Y-67600800D02*
X73560200Y-67600800D01*
X86060200Y-69600800D02*
X86060200Y-67600800D01*
X86060200Y-81100800D02*
X86060200Y-73100800D01*
X87060200Y-81100800D02*
X86060200Y-81100800D01*
X87060200Y-81600800D02*
X87060200Y-81100800D01*
%TO.C,J7*%
X155156493Y-53998001D02*
X155156493Y-53498001D01*
X155156493Y-53498001D02*
X140656493Y-53498001D01*
X154156493Y-67498001D02*
X154156493Y-65498001D01*
X154156493Y-61998001D02*
X154156493Y-53998001D01*
X154156493Y-53998001D02*
X155156493Y-53998001D01*
X151906493Y-67748001D02*
X150906493Y-67748001D01*
X141656493Y-67498001D02*
X154156493Y-67498001D01*
X141656493Y-65498001D02*
X141656493Y-67498001D01*
X141656493Y-53998001D02*
X141656493Y-61998001D01*
X140656493Y-53998001D02*
X141656493Y-53998001D01*
X140656493Y-53498001D02*
X140656493Y-53998001D01*
%TO.C,J11*%
X74420000Y-42720000D02*
X74420000Y-43970000D01*
X74710000Y-43010000D02*
X74710000Y-48980000D01*
X74710000Y-48980000D02*
X84830000Y-48980000D01*
X74720000Y-43020000D02*
X74720000Y-43770000D01*
X74720000Y-43770000D02*
X76520000Y-43770000D01*
X74720000Y-45270000D02*
X75470000Y-45270000D01*
X75470000Y-45270000D02*
X75470000Y-48220000D01*
X75470000Y-48220000D02*
X79770000Y-48220000D01*
X75670000Y-42720000D02*
X74420000Y-42720000D01*
X76520000Y-43020000D02*
X74720000Y-43020000D01*
X76520000Y-43770000D02*
X76520000Y-43020000D01*
X78020000Y-43020000D02*
X78020000Y-43770000D01*
X78020000Y-43770000D02*
X81520000Y-43770000D01*
X81520000Y-43020000D02*
X78020000Y-43020000D01*
X81520000Y-43770000D02*
X81520000Y-43020000D01*
X83020000Y-43020000D02*
X83020000Y-43770000D01*
X83020000Y-43770000D02*
X84820000Y-43770000D01*
X84070000Y-45270000D02*
X84070000Y-48220000D01*
X84070000Y-48220000D02*
X79770000Y-48220000D01*
X84820000Y-43020000D02*
X83020000Y-43020000D01*
X84820000Y-43770000D02*
X84820000Y-43020000D01*
X84820000Y-45270000D02*
X84070000Y-45270000D01*
X84830000Y-43010000D02*
X74710000Y-43010000D01*
X84830000Y-48980000D02*
X84830000Y-43010000D01*
%TO.C,J1*%
X122832249Y-76180000D02*
X122332249Y-75680000D01*
X122832249Y-75180000D02*
X122832249Y-76180000D01*
X122332249Y-75680000D02*
X122832249Y-75180000D01*
X122137249Y-83090000D02*
X122137249Y-75480000D01*
X122137249Y-83090000D02*
X105407249Y-83090000D01*
X122137249Y-67120000D02*
X122137249Y-72680000D01*
X122137249Y-67120000D02*
X105407249Y-67120000D01*
X105407249Y-83090000D02*
X105407249Y-75480000D01*
X105407249Y-67120000D02*
X105407249Y-72680000D01*
%TO.C,R7*%
X119937991Y-57977500D02*
X120412507Y-57977500D01*
X119937991Y-59022500D02*
X120412507Y-59022500D01*
%TO.C,J13*%
X89720000Y-34430000D02*
X89720000Y-52490000D01*
X89720000Y-34430000D02*
X91840000Y-34430000D01*
X89720000Y-52490000D02*
X91840000Y-52490000D01*
X90780000Y-32370000D02*
X91840000Y-32370000D01*
X91840000Y-32370000D02*
X91840000Y-33430000D01*
X91840000Y-34430000D02*
X91840000Y-52490000D01*
D11*
%TO.C,EXP_ORIENTATION*%
X79790000Y-31930000D02*
X79790000Y-30830000D01*
X79790000Y-30830000D02*
X79440000Y-31230000D01*
X79790000Y-30830000D02*
X80140000Y-31230000D01*
X79869057Y-32630000D02*
G75*
G03*
X79869057Y-32630000I-79057J0D01*
G01*
X80490446Y-32630000D02*
G75*
G03*
X80490446Y-32630000I-700446J0D01*
G01*
D12*
%TO.C,J12*%
X67730000Y-34430000D02*
X67730000Y-52490000D01*
X67730000Y-34430000D02*
X69850000Y-34430000D01*
X67730000Y-52490000D02*
X69850000Y-52490000D01*
X68790000Y-32370000D02*
X69850000Y-32370000D01*
X69850000Y-32370000D02*
X69850000Y-33430000D01*
X69850000Y-34430000D02*
X69850000Y-52490000D01*
%TO.C,C10*%
X120049205Y-61560000D02*
X120330365Y-61560000D01*
X120049205Y-62580000D02*
X120330365Y-62580000D01*
%TD*%
%LPC*%
D13*
%TO.C,J16*%
X124800000Y-33420000D03*
D14*
X124800000Y-35420000D03*
X124800000Y-37420000D03*
X124800000Y-39420000D03*
X124800000Y-41420000D03*
X124800000Y-43420000D03*
X124800000Y-45420000D03*
X124800000Y-47420000D03*
X124800000Y-49420000D03*
X124800000Y-51420000D03*
%TD*%
D13*
%TO.C,J15*%
X102830000Y-33430000D03*
D14*
X102830000Y-35430000D03*
X102830000Y-37430000D03*
X102830000Y-39430000D03*
X102830000Y-41430000D03*
X102830000Y-43430000D03*
X102830000Y-45430000D03*
X102830000Y-47430000D03*
X102830000Y-49430000D03*
X102830000Y-51430000D03*
%TD*%
D15*
%TO.C,J14*%
X110100000Y-45390000D03*
D16*
X112600000Y-45390000D03*
X115100000Y-45390000D03*
X117600000Y-45390000D03*
%TD*%
D13*
%TO.C,J6*%
X90760000Y-59200000D03*
D14*
X90760000Y-61200000D03*
X90760000Y-63200000D03*
X90760000Y-65200000D03*
X90760000Y-67200000D03*
X90760000Y-69200000D03*
X90760000Y-71200000D03*
X90760000Y-73200000D03*
X90760000Y-75200000D03*
X90760000Y-77200000D03*
%TD*%
D13*
%TO.C,J10*%
X158826493Y-59198801D03*
D14*
X158826493Y-61198801D03*
X158826493Y-63198801D03*
X158826493Y-65198801D03*
X158826493Y-67198801D03*
X158826493Y-69198801D03*
X158826493Y-71198801D03*
X158826493Y-73198801D03*
X158826493Y-75198801D03*
X158826493Y-77198801D03*
%TD*%
D13*
%TO.C,J5*%
X68780000Y-59190000D03*
D14*
X68780000Y-61190000D03*
X68780000Y-63190000D03*
X68780000Y-65190000D03*
X68780000Y-67190000D03*
X68780000Y-69190000D03*
X68780000Y-71190000D03*
X68780000Y-73190000D03*
X68780000Y-75190000D03*
X68780000Y-77190000D03*
%TD*%
D17*
%TO.C,R8*%
X119340249Y-65330000D03*
X120990249Y-65330000D03*
%TD*%
D13*
%TO.C,J2*%
X102829285Y-59195000D03*
D14*
X102829285Y-61195000D03*
X102829285Y-63195000D03*
X102829285Y-65195000D03*
X102829285Y-67195000D03*
X102829285Y-69195000D03*
X102829285Y-71195000D03*
X102829285Y-73195000D03*
X102829285Y-75195000D03*
X102829285Y-77195000D03*
%TD*%
D18*
%TO.C,C1*%
X108310249Y-59970000D03*
X108310249Y-63570000D03*
%TD*%
D17*
%TO.C,R6*%
X119350249Y-60100000D03*
X121000249Y-60100000D03*
%TD*%
D13*
%TO.C,J9*%
X136846493Y-59188801D03*
D14*
X136846493Y-61188801D03*
X136846493Y-63188801D03*
X136846493Y-65188801D03*
X136846493Y-67188801D03*
X136846493Y-69188801D03*
X136846493Y-71188801D03*
X136846493Y-73188801D03*
X136846493Y-75188801D03*
X136846493Y-77188801D03*
%TD*%
D13*
%TO.C,J3*%
X124830249Y-59200000D03*
D14*
X124830249Y-61200000D03*
X124830249Y-63200000D03*
X124830249Y-65200000D03*
X124830249Y-67200000D03*
X124830249Y-69200000D03*
X124830249Y-71200000D03*
X124830249Y-73200000D03*
X124830249Y-75200000D03*
X124830249Y-77200000D03*
%TD*%
D19*
%TO.C,J8*%
X144406493Y-69868801D03*
D20*
X146906493Y-69868801D03*
X148906493Y-69868801D03*
X151406493Y-69868801D03*
D21*
X141336493Y-72578801D03*
X154476493Y-72578801D03*
%TD*%
D17*
%TO.C,R9*%
X119342285Y-63750000D03*
X120992285Y-63750000D03*
%TD*%
D19*
%TO.C,J4*%
X76310200Y-68610800D03*
D20*
X78810200Y-68610800D03*
X80810200Y-68610800D03*
X83310200Y-68610800D03*
D21*
X73240200Y-71320800D03*
X86380200Y-71320800D03*
%TD*%
D19*
%TO.C,J7*%
X151406493Y-66488001D03*
D20*
X148906493Y-66488001D03*
X146906493Y-66488001D03*
X144406493Y-66488001D03*
D21*
X154476493Y-63778001D03*
X141336493Y-63778001D03*
%TD*%
D15*
%TO.C,J11*%
X77270000Y-45470000D03*
D16*
X79770000Y-45470000D03*
X82270000Y-45470000D03*
%TD*%
D22*
%TO.C,J1*%
X120122249Y-77520000D03*
X107422249Y-77520000D03*
D23*
X117332249Y-74980000D03*
D24*
X116316249Y-73200000D03*
X115300249Y-74980000D03*
X114284249Y-73200000D03*
X113268249Y-74980000D03*
X112252249Y-73200000D03*
X111236249Y-74980000D03*
X110220249Y-73200000D03*
X120632249Y-68380000D03*
X118342249Y-68380000D03*
X109202249Y-68380000D03*
X106912249Y-68380000D03*
D25*
X121902249Y-74090000D03*
X105642249Y-74090000D03*
%TD*%
D17*
%TO.C,R7*%
X119350249Y-58500000D03*
X121000249Y-58500000D03*
%TD*%
D13*
%TO.C,J13*%
X90780000Y-33430000D03*
D14*
X90780000Y-35430000D03*
X90780000Y-37430000D03*
X90780000Y-39430000D03*
X90780000Y-41430000D03*
X90780000Y-43430000D03*
X90780000Y-45430000D03*
X90780000Y-47430000D03*
X90780000Y-49430000D03*
X90780000Y-51430000D03*
%TD*%
D13*
%TO.C,J12*%
X68790000Y-33430000D03*
D14*
X68790000Y-35430000D03*
X68790000Y-37430000D03*
X68790000Y-39430000D03*
X68790000Y-41430000D03*
X68790000Y-43430000D03*
X68790000Y-45430000D03*
X68790000Y-47430000D03*
X68790000Y-49430000D03*
X68790000Y-51430000D03*
%TD*%
D26*
%TO.C,C10*%
X119414785Y-62070000D03*
X120964785Y-62070000D03*
%TD*%
%LPD*%
M02*
