%TF.GenerationSoftware,KiCad,Pcbnew,7.0.7*%
%TF.CreationDate,2023-10-06T18:16:36-06:00*%
%TF.ProjectId,Modular_Interfaces,4d6f6475-6c61-4725-9f49-6e7465726661,rev?*%
%TF.SameCoordinates,Original*%
%TF.FileFunction,Soldermask,Top*%
%TF.FilePolarity,Negative*%
%FSLAX46Y46*%
G04 Gerber Fmt 4.6, Leading zero omitted, Abs format (unit mm)*
G04 Created by KiCad (PCBNEW 7.0.7) date 2023-10-06 18:16:36*
%MOMM*%
%LPD*%
G01*
G04 APERTURE LIST*
G04 Aperture macros list*
%AMRoundRect*
0 Rectangle with rounded corners*
0 $1 Rounding radius*
0 $2 $3 $4 $5 $6 $7 $8 $9 X,Y pos of 4 corners*
0 Add a 4 corners polygon primitive as box body*
4,1,4,$2,$3,$4,$5,$6,$7,$8,$9,$2,$3,0*
0 Add four circle primitives for the rounded corners*
1,1,$1+$1,$2,$3*
1,1,$1+$1,$4,$5*
1,1,$1+$1,$6,$7*
1,1,$1+$1,$8,$9*
0 Add four rect primitives between the rounded corners*
20,1,$1+$1,$2,$3,$4,$5,0*
20,1,$1+$1,$4,$5,$6,$7,0*
20,1,$1+$1,$6,$7,$8,$9,0*
20,1,$1+$1,$8,$9,$2,$3,0*%
G04 Aperture macros list end*
%ADD10R,1.350000X1.350000*%
%ADD11O,1.350000X1.350000*%
%ADD12RoundRect,0.250000X-0.600000X-0.725000X0.600000X-0.725000X0.600000X0.725000X-0.600000X0.725000X0*%
%ADD13O,1.700000X1.950000*%
%ADD14RoundRect,0.200000X-0.200000X-0.275000X0.200000X-0.275000X0.200000X0.275000X-0.200000X0.275000X0*%
%ADD15RoundRect,0.250000X-0.550000X1.050000X-0.550000X-1.050000X0.550000X-1.050000X0.550000X1.050000X0*%
%ADD16R,1.600000X1.600000*%
%ADD17C,1.600000*%
%ADD18C,3.000000*%
%ADD19C,3.250000*%
%ADD20R,1.500000X1.500000*%
%ADD21C,1.500000*%
%ADD22C,2.300000*%
%ADD23RoundRect,0.225000X-0.225000X-0.250000X0.225000X-0.250000X0.225000X0.250000X-0.225000X0.250000X0*%
G04 APERTURE END LIST*
D10*
%TO.C,J16*%
X124800000Y-33420000D03*
D11*
X124800000Y-35420000D03*
X124800000Y-37420000D03*
X124800000Y-39420000D03*
X124800000Y-41420000D03*
X124800000Y-43420000D03*
X124800000Y-45420000D03*
X124800000Y-47420000D03*
X124800000Y-49420000D03*
X124800000Y-51420000D03*
%TD*%
D10*
%TO.C,J15*%
X102830000Y-33430000D03*
D11*
X102830000Y-35430000D03*
X102830000Y-37430000D03*
X102830000Y-39430000D03*
X102830000Y-41430000D03*
X102830000Y-43430000D03*
X102830000Y-45430000D03*
X102830000Y-47430000D03*
X102830000Y-49430000D03*
X102830000Y-51430000D03*
%TD*%
D12*
%TO.C,J14*%
X110100000Y-45390000D03*
D13*
X112600000Y-45390000D03*
X115100000Y-45390000D03*
X117600000Y-45390000D03*
%TD*%
D10*
%TO.C,J6*%
X90760000Y-59200000D03*
D11*
X90760000Y-61200000D03*
X90760000Y-63200000D03*
X90760000Y-65200000D03*
X90760000Y-67200000D03*
X90760000Y-69200000D03*
X90760000Y-71200000D03*
X90760000Y-73200000D03*
X90760000Y-75200000D03*
X90760000Y-77200000D03*
%TD*%
D10*
%TO.C,J10*%
X158826493Y-59198801D03*
D11*
X158826493Y-61198801D03*
X158826493Y-63198801D03*
X158826493Y-65198801D03*
X158826493Y-67198801D03*
X158826493Y-69198801D03*
X158826493Y-71198801D03*
X158826493Y-73198801D03*
X158826493Y-75198801D03*
X158826493Y-77198801D03*
%TD*%
D10*
%TO.C,J5*%
X68780000Y-59190000D03*
D11*
X68780000Y-61190000D03*
X68780000Y-63190000D03*
X68780000Y-65190000D03*
X68780000Y-67190000D03*
X68780000Y-69190000D03*
X68780000Y-71190000D03*
X68780000Y-73190000D03*
X68780000Y-75190000D03*
X68780000Y-77190000D03*
%TD*%
D14*
%TO.C,R8*%
X119340249Y-65330000D03*
X120990249Y-65330000D03*
%TD*%
D10*
%TO.C,J2*%
X102829285Y-59195000D03*
D11*
X102829285Y-61195000D03*
X102829285Y-63195000D03*
X102829285Y-65195000D03*
X102829285Y-67195000D03*
X102829285Y-69195000D03*
X102829285Y-71195000D03*
X102829285Y-73195000D03*
X102829285Y-75195000D03*
X102829285Y-77195000D03*
%TD*%
D15*
%TO.C,C1*%
X108310249Y-59970000D03*
X108310249Y-63570000D03*
%TD*%
D14*
%TO.C,R6*%
X119350249Y-60100000D03*
X121000249Y-60100000D03*
%TD*%
D10*
%TO.C,J9*%
X136846493Y-59188801D03*
D11*
X136846493Y-61188801D03*
X136846493Y-63188801D03*
X136846493Y-65188801D03*
X136846493Y-67188801D03*
X136846493Y-69188801D03*
X136846493Y-71188801D03*
X136846493Y-73188801D03*
X136846493Y-75188801D03*
X136846493Y-77188801D03*
%TD*%
D10*
%TO.C,J3*%
X124830249Y-59200000D03*
D11*
X124830249Y-61200000D03*
X124830249Y-63200000D03*
X124830249Y-65200000D03*
X124830249Y-67200000D03*
X124830249Y-69200000D03*
X124830249Y-71200000D03*
X124830249Y-73200000D03*
X124830249Y-75200000D03*
X124830249Y-77200000D03*
%TD*%
D16*
%TO.C,J8*%
X144406493Y-69868801D03*
D17*
X146906493Y-69868801D03*
X148906493Y-69868801D03*
X151406493Y-69868801D03*
D18*
X141336493Y-72578801D03*
X154476493Y-72578801D03*
%TD*%
D14*
%TO.C,R9*%
X119342285Y-63750000D03*
X120992285Y-63750000D03*
%TD*%
D16*
%TO.C,J4*%
X76310200Y-68610800D03*
D17*
X78810200Y-68610800D03*
X80810200Y-68610800D03*
X83310200Y-68610800D03*
D18*
X73240200Y-71320800D03*
X86380200Y-71320800D03*
%TD*%
D16*
%TO.C,J7*%
X151406493Y-66488001D03*
D17*
X148906493Y-66488001D03*
X146906493Y-66488001D03*
X144406493Y-66488001D03*
D18*
X154476493Y-63778001D03*
X141336493Y-63778001D03*
%TD*%
D12*
%TO.C,J11*%
X77270000Y-45470000D03*
D13*
X79770000Y-45470000D03*
X82270000Y-45470000D03*
%TD*%
D19*
%TO.C,J1*%
X120122249Y-77520000D03*
X107422249Y-77520000D03*
D20*
X117332249Y-74980000D03*
D21*
X116316249Y-73200000D03*
X115300249Y-74980000D03*
X114284249Y-73200000D03*
X113268249Y-74980000D03*
X112252249Y-73200000D03*
X111236249Y-74980000D03*
X110220249Y-73200000D03*
X120632249Y-68380000D03*
X118342249Y-68380000D03*
X109202249Y-68380000D03*
X106912249Y-68380000D03*
D22*
X121902249Y-74090000D03*
X105642249Y-74090000D03*
%TD*%
D14*
%TO.C,R7*%
X119350249Y-58500000D03*
X121000249Y-58500000D03*
%TD*%
D10*
%TO.C,J13*%
X90780000Y-33430000D03*
D11*
X90780000Y-35430000D03*
X90780000Y-37430000D03*
X90780000Y-39430000D03*
X90780000Y-41430000D03*
X90780000Y-43430000D03*
X90780000Y-45430000D03*
X90780000Y-47430000D03*
X90780000Y-49430000D03*
X90780000Y-51430000D03*
%TD*%
D10*
%TO.C,J12*%
X68790000Y-33430000D03*
D11*
X68790000Y-35430000D03*
X68790000Y-37430000D03*
X68790000Y-39430000D03*
X68790000Y-41430000D03*
X68790000Y-43430000D03*
X68790000Y-45430000D03*
X68790000Y-47430000D03*
X68790000Y-49430000D03*
X68790000Y-51430000D03*
%TD*%
D23*
%TO.C,C10*%
X119414785Y-62070000D03*
X120964785Y-62070000D03*
%TD*%
M02*
