%TF.GenerationSoftware,KiCad,Pcbnew,7.0.7*%
%TF.CreationDate,2023-10-04T23:52:19-06:00*%
%TF.ProjectId,FPV_3-Pin_Module,4650565f-332d-4506-996e-5f4d6f64756c,rev?*%
%TF.SameCoordinates,Original*%
%TF.FileFunction,Profile,NP*%
%FSLAX46Y46*%
G04 Gerber Fmt 4.6, Leading zero omitted, Abs format (unit mm)*
G04 Created by KiCad (PCBNEW 7.0.7) date 2023-10-04 23:52:19*
%MOMM*%
%LPD*%
G01*
G04 APERTURE LIST*
%TA.AperFunction,Profile*%
%ADD10C,0.150000*%
%TD*%
%TA.AperFunction,Profile*%
%ADD11C,0.200000*%
%TD*%
G04 APERTURE END LIST*
D10*
X158068985Y-90226924D02*
X158118114Y-90314008D01*
X125799560Y-92701281D02*
X125890556Y-92742717D01*
X157956222Y-90061876D02*
X158014962Y-90142789D01*
D11*
X127920000Y-91130000D02*
G75*
G03*
X127920000Y-91130000I-1350000J0D01*
G01*
D10*
X127410809Y-93151502D02*
X127490012Y-93212517D01*
X158014962Y-90142789D02*
X158068985Y-90226924D01*
X155242983Y-88520967D02*
X155287026Y-88610724D01*
X125185129Y-92199876D02*
X125248492Y-92277222D01*
X157954871Y-92199876D02*
X157891508Y-92277222D01*
X126271467Y-89405651D02*
X126173474Y-89425515D01*
X127126650Y-89269266D02*
X127033021Y-89304333D01*
X126570000Y-89380000D02*
X126470054Y-89382856D01*
X155205211Y-88428396D02*
X155242983Y-88520967D01*
X125797574Y-89559694D02*
X125709152Y-89606372D01*
X155454550Y-88858951D02*
X155521312Y-88933376D01*
X155669361Y-89067609D02*
X155749949Y-89126783D01*
X125387939Y-92420439D02*
X125463567Y-92485842D01*
X125888518Y-89518143D02*
X125797574Y-89559694D01*
X127920000Y-81180000D02*
X128670000Y-80430000D01*
X158233939Y-91672042D02*
X158200266Y-91766188D01*
X154470000Y-80430000D02*
X152570000Y-78530000D01*
X127618688Y-88933376D02*
X127546972Y-89003038D01*
X127813368Y-93590636D02*
X127861353Y-93678348D01*
X157825373Y-89910763D02*
X157892957Y-89984449D01*
X127240749Y-93046543D02*
X127327589Y-93096089D01*
X125126287Y-92119037D02*
X125185129Y-92199876D01*
X125248492Y-92277222D02*
X125316169Y-92350823D01*
X157063225Y-89450944D02*
X157158314Y-89481853D01*
X155220000Y-101080000D02*
X154470000Y-101830000D01*
X155989299Y-93003098D02*
X155899251Y-93046543D01*
X158285336Y-90783413D02*
X158302331Y-90881944D01*
X158302016Y-91380245D02*
X158284897Y-91478755D01*
X124826330Y-90981285D02*
X124820683Y-91081112D01*
X158284897Y-91478755D02*
X158262180Y-91576127D01*
X157597192Y-92546819D02*
X157514599Y-92603172D01*
X124877258Y-90686012D02*
X124854664Y-90783413D01*
X125314627Y-89910763D02*
X125247043Y-89984449D01*
X158262180Y-91576127D02*
X158233939Y-91672042D01*
X125983770Y-92778889D02*
X126078898Y-92809678D01*
X155393059Y-88780117D02*
X155454550Y-88858951D01*
X158234622Y-90590062D02*
X158262742Y-90686012D01*
X127934789Y-88428396D02*
X127920000Y-81180000D01*
X127033021Y-89304333D02*
X126937204Y-89332884D01*
X155922351Y-89227851D02*
X156013350Y-89269266D01*
X127564822Y-93278846D02*
X127634884Y-93350172D01*
X124837984Y-91380245D02*
X124855103Y-91478755D01*
X157430848Y-89606372D02*
X157516460Y-89658023D01*
X127390051Y-89126783D02*
X127305588Y-89180281D01*
X156498807Y-89378256D02*
X156570000Y-89380000D01*
X156572170Y-92879999D02*
X156472254Y-92883570D01*
X125183778Y-90061876D02*
X125125038Y-90142789D01*
D11*
X157920000Y-91130000D02*
G75*
G03*
X157920000Y-91130000I-1350000J0D01*
G01*
D10*
X127852974Y-88610724D02*
X127802870Y-88697244D01*
X158118114Y-90314008D02*
X158162190Y-90403755D01*
X125247043Y-89984449D02*
X125183778Y-90061876D01*
X125461854Y-89775557D02*
X125386309Y-89841056D01*
X157249444Y-92742717D02*
X157156230Y-92778889D01*
X157156230Y-92778889D02*
X157061102Y-92809678D01*
X125386309Y-89841056D02*
X125314627Y-89910763D01*
X124939734Y-91766188D02*
X124978729Y-91858256D01*
X126937204Y-89332884D02*
X126839652Y-89354785D01*
X157516460Y-89658023D02*
X157598982Y-89714480D01*
X157428922Y-92654715D02*
X157340440Y-92701281D01*
X124978729Y-91858256D02*
X125022918Y-91947948D01*
X126567830Y-92879999D02*
X126667746Y-92883570D01*
X127057874Y-92965963D02*
X127150701Y-93003098D01*
X156372821Y-92894017D02*
X156274344Y-92911292D01*
X156177292Y-92935312D02*
X156082126Y-92965963D01*
X157892957Y-89984449D02*
X157956222Y-90061876D01*
X158313670Y-90981285D02*
X158319317Y-91081112D01*
X124938931Y-90495873D02*
X124905378Y-90590062D01*
X126370435Y-89391416D02*
X126271467Y-89405651D01*
X127685450Y-88858951D02*
X127618688Y-88933376D01*
X156399174Y-89369933D02*
X156498807Y-89378256D01*
X155220000Y-81180000D02*
X154470000Y-80430000D01*
X124826519Y-91280918D02*
X124837984Y-91380245D01*
X157514599Y-92603172D02*
X157428922Y-92654715D01*
X158013713Y-92119037D02*
X157954871Y-92199876D01*
X156202796Y-89332884D02*
X156300348Y-89354785D01*
X156106979Y-89304333D02*
X156202796Y-89332884D01*
X155575178Y-93278846D02*
X155505116Y-93350172D01*
X125072158Y-92034970D02*
X125126287Y-92119037D01*
X127934789Y-88428396D02*
X127897017Y-88520967D01*
X156866353Y-92854725D02*
X156767367Y-92868835D01*
X124820683Y-91081112D02*
X124820746Y-91181099D01*
X157342426Y-89559694D02*
X157430848Y-89606372D01*
X124877820Y-91576127D02*
X124906061Y-91672042D01*
X125981686Y-89481853D02*
X125888518Y-89518143D01*
X126076775Y-89450944D02*
X125981686Y-89481853D01*
X125021886Y-90314008D02*
X124977810Y-90403755D01*
X155729191Y-93151502D02*
X155649988Y-93212517D01*
X125125038Y-90142789D02*
X125071015Y-90226924D01*
X126641193Y-89378256D02*
X126570000Y-89380000D01*
X157251482Y-89518143D02*
X157342426Y-89559694D01*
X155380547Y-93506438D02*
X155326632Y-93590636D01*
X125709152Y-89606372D02*
X125623540Y-89658023D01*
X126839652Y-89354785D02*
X126740826Y-89369933D01*
X130570000Y-78530000D02*
X150770000Y-78530000D01*
X156013350Y-89269266D02*
X156106979Y-89304333D01*
X127920000Y-101080000D02*
X128670000Y-101830000D01*
X156274344Y-92911292D02*
X156177292Y-92935312D01*
X156868533Y-89405651D02*
X156966526Y-89425515D01*
X126175628Y-92834985D02*
X126273647Y-92854725D01*
X156966526Y-89425515D02*
X157063225Y-89450944D01*
X157158314Y-89481853D02*
X157251482Y-89518143D01*
X125542808Y-92546819D02*
X125625401Y-92603172D01*
X155521312Y-88933376D02*
X155593028Y-89003038D01*
X154470000Y-101830000D02*
X152570000Y-103730000D01*
X127327589Y-93096089D02*
X127410809Y-93151502D01*
X124820746Y-91181099D02*
X124826519Y-91280918D01*
X157598982Y-89714480D02*
X157678146Y-89775557D01*
X126173474Y-89425515D02*
X126076775Y-89450944D01*
X125625401Y-92603172D02*
X125711078Y-92654715D01*
X127150701Y-93003098D02*
X127240749Y-93046543D01*
X125623540Y-89658023D02*
X125541018Y-89714480D01*
X158201069Y-90495873D02*
X158234622Y-90590062D01*
X124905378Y-90590062D02*
X124877258Y-90686012D01*
X125022918Y-91947948D02*
X125072158Y-92034970D01*
X127802870Y-88697244D02*
X127746941Y-88780117D01*
X156667737Y-92877269D02*
X156572170Y-92879999D01*
X158262742Y-90686012D02*
X158285336Y-90783413D01*
X128670000Y-80430000D02*
X130570000Y-78530000D01*
X157891508Y-92277222D02*
X157823831Y-92350823D01*
X155205211Y-88428396D02*
X155220000Y-81180000D01*
X125463567Y-92485842D02*
X125542808Y-92546819D01*
X125711078Y-92654715D02*
X125799560Y-92701281D01*
X124906061Y-91672042D02*
X124939734Y-91766188D01*
X156769565Y-89391416D02*
X156868533Y-89405651D01*
X127490012Y-93212517D02*
X127564822Y-93278846D01*
X125890556Y-92742717D02*
X125983770Y-92778889D01*
X127746941Y-88780117D02*
X127685450Y-88858951D01*
X156570000Y-89380000D02*
X156669946Y-89382856D01*
X126470054Y-89382856D02*
X126370435Y-89391416D01*
X155287026Y-88610724D02*
X155337130Y-88697244D01*
X156572170Y-92879999D02*
X156572170Y-92879999D01*
X158067842Y-92034970D02*
X158013713Y-92119037D01*
X155278647Y-93678348D02*
X155236821Y-93769159D01*
X126472263Y-92877269D02*
X126567830Y-92879999D01*
X158117082Y-91947948D02*
X158067842Y-92034970D01*
X126273647Y-92854725D02*
X126372633Y-92868835D01*
X124854664Y-90783413D02*
X124837669Y-90881944D01*
X152570000Y-78530000D02*
X150770000Y-78530000D01*
X126078898Y-92809678D02*
X126175628Y-92834985D01*
X128670000Y-101830000D02*
X130570000Y-103730000D01*
X125316169Y-92350823D02*
X125387939Y-92420439D01*
X155593028Y-89003038D02*
X155669361Y-89067609D01*
X155749949Y-89126783D02*
X155834412Y-89180281D01*
X124977810Y-90403755D02*
X124938931Y-90495873D01*
X157678146Y-89775557D02*
X157753691Y-89841056D01*
X155440137Y-93426157D02*
X155380547Y-93506438D01*
X157753691Y-89841056D02*
X157825373Y-89910763D01*
X158319317Y-91081112D02*
X158319254Y-91181099D01*
X158161271Y-91858256D02*
X158117082Y-91947948D01*
X155337130Y-88697244D02*
X155393059Y-88780117D01*
X126740826Y-89369933D02*
X126641193Y-89378256D01*
X127861353Y-93678348D02*
X127903179Y-93769159D01*
X127634884Y-93350172D02*
X127699863Y-93426157D01*
X126372633Y-92868835D02*
X126472263Y-92877269D01*
X155812411Y-93096089D02*
X155729191Y-93151502D01*
X156767367Y-92868835D02*
X156667737Y-92877269D01*
X158162190Y-90403755D02*
X158201069Y-90495873D01*
X127305588Y-89180281D02*
X127217649Y-89227851D01*
X127903179Y-93769159D02*
X127920000Y-101080000D01*
X152570000Y-103730000D02*
X130570000Y-103730000D01*
X157823831Y-92350823D02*
X157752061Y-92420439D01*
X127470639Y-89067609D02*
X127390051Y-89126783D01*
X127217649Y-89227851D02*
X127126650Y-89269266D01*
X124837669Y-90881944D02*
X124826330Y-90981285D01*
X127897017Y-88520967D02*
X127852974Y-88610724D01*
X125541018Y-89714480D02*
X125461854Y-89775557D01*
X156964372Y-92834985D02*
X156866353Y-92854725D01*
X156669946Y-89382856D02*
X156769565Y-89391416D01*
X157752061Y-92420439D02*
X157676433Y-92485842D01*
X155505116Y-93350172D02*
X155440137Y-93426157D01*
X125071015Y-90226924D02*
X125021886Y-90314008D01*
X126962708Y-92935312D02*
X127057874Y-92965963D01*
X158313481Y-91280918D02*
X158302016Y-91380245D01*
X126667746Y-92883570D02*
X126767179Y-92894017D01*
X127546972Y-89003038D02*
X127470639Y-89067609D01*
X124855103Y-91478755D02*
X124877820Y-91576127D01*
X156082126Y-92965963D02*
X155989299Y-93003098D01*
X158200266Y-91766188D02*
X158161271Y-91858256D01*
X155236821Y-93769159D02*
X155220000Y-101080000D01*
X157340440Y-92701281D02*
X157249444Y-92742717D01*
X155899251Y-93046543D02*
X155812411Y-93096089D01*
X126865656Y-92911292D02*
X126962708Y-92935312D01*
X155834412Y-89180281D02*
X155922351Y-89227851D01*
X158302331Y-90881944D02*
X158313670Y-90981285D01*
X127759453Y-93506438D02*
X127813368Y-93590636D01*
X155326632Y-93590636D02*
X155278647Y-93678348D01*
X157676433Y-92485842D02*
X157597192Y-92546819D01*
X158319254Y-91181099D02*
X158313481Y-91280918D01*
X155649988Y-93212517D02*
X155575178Y-93278846D01*
X127699863Y-93426157D02*
X127759453Y-93506438D01*
X156300348Y-89354785D02*
X156399174Y-89369933D01*
X126767179Y-92894017D02*
X126865656Y-92911292D01*
X157061102Y-92809678D02*
X156964372Y-92834985D01*
X156472254Y-92883570D02*
X156372821Y-92894017D01*
M02*
