M48
; DRILL file {KiCad 7.0.7} date Wed Oct  4 23:52:19 2023
; FORMAT={-:-/ absolute / inch / decimal}
; #@! TF.CreationDate,2023-10-04T23:52:19-06:00
; #@! TF.GenerationSoftware,Kicad,Pcbnew,7.0.7
; #@! TF.FileFunction,Plated,1,2,PTH
FMAT,2
INCH
; #@! TA.AperFunction,Plated,PTH,ComponentDrill
T1C0.0295
; #@! TA.AperFunction,Plated,PTH,ComponentDrill
T2C0.0315
%
G90
G05
T1
X5.4941Y-3.7071
X5.5728Y-3.7071
X5.6516Y-3.7071
T2
X5.1407Y-3.2335
X5.1407Y-3.3122
X5.1407Y-3.391
X5.1407Y-3.4697
X5.1407Y-3.5485
X5.1407Y-3.6272
X5.1407Y-3.7059
X5.1407Y-3.7847
X5.1407Y-3.8634
X5.1407Y-3.9422
X6.0063Y-3.2335
X6.0063Y-3.3122
X6.0063Y-3.3909
X6.0063Y-3.4697
X6.0063Y-3.5484
X6.0063Y-3.6272
X6.0063Y-3.7059
X6.0063Y-3.7846
X6.0063Y-3.8634
X6.0063Y-3.9421
T0
M30
