%TF.GenerationSoftware,KiCad,Pcbnew,7.0.7*%
%TF.CreationDate,2023-10-04T23:52:19-06:00*%
%TF.ProjectId,FPV_3-Pin_Module,4650565f-332d-4506-996e-5f4d6f64756c,rev?*%
%TF.SameCoordinates,Original*%
%TF.FileFunction,Legend,Top*%
%TF.FilePolarity,Positive*%
%FSLAX46Y46*%
G04 Gerber Fmt 4.6, Leading zero omitted, Abs format (unit mm)*
G04 Created by KiCad (PCBNEW 7.0.7) date 2023-10-04 23:52:19*
%MOMM*%
%LPD*%
G01*
G04 APERTURE LIST*
G04 Aperture macros list*
%AMRoundRect*
0 Rectangle with rounded corners*
0 $1 Rounding radius*
0 $2 $3 $4 $5 $6 $7 $8 $9 X,Y pos of 4 corners*
0 Add a 4 corners polygon primitive as box body*
4,1,4,$2,$3,$4,$5,$6,$7,$8,$9,$2,$3,0*
0 Add four circle primitives for the rounded corners*
1,1,$1+$1,$2,$3*
1,1,$1+$1,$4,$5*
1,1,$1+$1,$6,$7*
1,1,$1+$1,$8,$9*
0 Add four rect primitives between the rounded corners*
20,1,$1+$1,$2,$3,$4,$5,0*
20,1,$1+$1,$4,$5,$6,$7,0*
20,1,$1+$1,$6,$7,$8,$9,0*
20,1,$1+$1,$8,$9,$2,$3,0*%
G04 Aperture macros list end*
%ADD10C,0.100000*%
%ADD11C,0.150000*%
%ADD12C,0.120000*%
%ADD13RoundRect,0.250000X-0.350000X-0.625000X0.350000X-0.625000X0.350000X0.625000X-0.350000X0.625000X0*%
%ADD14O,1.200000X1.750000*%
%ADD15R,1.350000X1.350000*%
%ADD16O,1.350000X1.350000*%
G04 APERTURE END LIST*
D10*
X153904486Y-82196361D02*
X154094962Y-82196361D01*
X153866391Y-82310647D02*
X153999724Y-81910647D01*
X153999724Y-81910647D02*
X154133057Y-82310647D01*
X154342581Y-81910647D02*
X154380676Y-81910647D01*
X154380676Y-81910647D02*
X154418772Y-81929695D01*
X154418772Y-81929695D02*
X154437819Y-81948742D01*
X154437819Y-81948742D02*
X154456867Y-81986838D01*
X154456867Y-81986838D02*
X154475914Y-82063028D01*
X154475914Y-82063028D02*
X154475914Y-82158266D01*
X154475914Y-82158266D02*
X154456867Y-82234457D01*
X154456867Y-82234457D02*
X154437819Y-82272552D01*
X154437819Y-82272552D02*
X154418772Y-82291600D01*
X154418772Y-82291600D02*
X154380676Y-82310647D01*
X154380676Y-82310647D02*
X154342581Y-82310647D01*
X154342581Y-82310647D02*
X154304486Y-82291600D01*
X154304486Y-82291600D02*
X154285438Y-82272552D01*
X154285438Y-82272552D02*
X154266391Y-82234457D01*
X154266391Y-82234457D02*
X154247343Y-82158266D01*
X154247343Y-82158266D02*
X154247343Y-82063028D01*
X154247343Y-82063028D02*
X154266391Y-81986838D01*
X154266391Y-81986838D02*
X154285438Y-81948742D01*
X154285438Y-81948742D02*
X154304486Y-81929695D01*
X154304486Y-81929695D02*
X154342581Y-81910647D01*
X128445437Y-99929695D02*
X128407342Y-99910647D01*
X128407342Y-99910647D02*
X128350199Y-99910647D01*
X128350199Y-99910647D02*
X128293056Y-99929695D01*
X128293056Y-99929695D02*
X128254961Y-99967790D01*
X128254961Y-99967790D02*
X128235914Y-100005885D01*
X128235914Y-100005885D02*
X128216866Y-100082076D01*
X128216866Y-100082076D02*
X128216866Y-100139219D01*
X128216866Y-100139219D02*
X128235914Y-100215409D01*
X128235914Y-100215409D02*
X128254961Y-100253504D01*
X128254961Y-100253504D02*
X128293056Y-100291600D01*
X128293056Y-100291600D02*
X128350199Y-100310647D01*
X128350199Y-100310647D02*
X128388295Y-100310647D01*
X128388295Y-100310647D02*
X128445437Y-100291600D01*
X128445437Y-100291600D02*
X128464485Y-100272552D01*
X128464485Y-100272552D02*
X128464485Y-100139219D01*
X128464485Y-100139219D02*
X128388295Y-100139219D01*
X128635914Y-100310647D02*
X128635914Y-99910647D01*
X128635914Y-99910647D02*
X128864485Y-100310647D01*
X128864485Y-100310647D02*
X128864485Y-99910647D01*
X129054962Y-100310647D02*
X129054962Y-99910647D01*
X129054962Y-99910647D02*
X129150200Y-99910647D01*
X129150200Y-99910647D02*
X129207343Y-99929695D01*
X129207343Y-99929695D02*
X129245438Y-99967790D01*
X129245438Y-99967790D02*
X129264485Y-100005885D01*
X129264485Y-100005885D02*
X129283533Y-100082076D01*
X129283533Y-100082076D02*
X129283533Y-100139219D01*
X129283533Y-100139219D02*
X129264485Y-100215409D01*
X129264485Y-100215409D02*
X129245438Y-100253504D01*
X129245438Y-100253504D02*
X129207343Y-100291600D01*
X129207343Y-100291600D02*
X129150200Y-100310647D01*
X129150200Y-100310647D02*
X129054962Y-100310647D01*
X128216867Y-81890647D02*
X128350200Y-82290647D01*
X128350200Y-82290647D02*
X128483533Y-81890647D01*
X128845438Y-82252552D02*
X128826390Y-82271600D01*
X128826390Y-82271600D02*
X128769248Y-82290647D01*
X128769248Y-82290647D02*
X128731152Y-82290647D01*
X128731152Y-82290647D02*
X128674009Y-82271600D01*
X128674009Y-82271600D02*
X128635914Y-82233504D01*
X128635914Y-82233504D02*
X128616867Y-82195409D01*
X128616867Y-82195409D02*
X128597819Y-82119219D01*
X128597819Y-82119219D02*
X128597819Y-82062076D01*
X128597819Y-82062076D02*
X128616867Y-81985885D01*
X128616867Y-81985885D02*
X128635914Y-81947790D01*
X128635914Y-81947790D02*
X128674009Y-81909695D01*
X128674009Y-81909695D02*
X128731152Y-81890647D01*
X128731152Y-81890647D02*
X128769248Y-81890647D01*
X128769248Y-81890647D02*
X128826390Y-81909695D01*
X128826390Y-81909695D02*
X128845438Y-81928742D01*
X129245438Y-82252552D02*
X129226390Y-82271600D01*
X129226390Y-82271600D02*
X129169248Y-82290647D01*
X129169248Y-82290647D02*
X129131152Y-82290647D01*
X129131152Y-82290647D02*
X129074009Y-82271600D01*
X129074009Y-82271600D02*
X129035914Y-82233504D01*
X129035914Y-82233504D02*
X129016867Y-82195409D01*
X129016867Y-82195409D02*
X128997819Y-82119219D01*
X128997819Y-82119219D02*
X128997819Y-82062076D01*
X128997819Y-82062076D02*
X129016867Y-81985885D01*
X129016867Y-81985885D02*
X129035914Y-81947790D01*
X129035914Y-81947790D02*
X129074009Y-81909695D01*
X129074009Y-81909695D02*
X129131152Y-81890647D01*
X129131152Y-81890647D02*
X129169248Y-81890647D01*
X129169248Y-81890647D02*
X129226390Y-81909695D01*
X129226390Y-81909695D02*
X129245438Y-81928742D01*
D11*
X138110619Y-84244809D02*
X137777286Y-84244809D01*
X137777286Y-84768619D02*
X137777286Y-83768619D01*
X137777286Y-83768619D02*
X138253476Y-83768619D01*
X138634429Y-84768619D02*
X138634429Y-83768619D01*
X138634429Y-83768619D02*
X139015381Y-83768619D01*
X139015381Y-83768619D02*
X139110619Y-83816238D01*
X139110619Y-83816238D02*
X139158238Y-83863857D01*
X139158238Y-83863857D02*
X139205857Y-83959095D01*
X139205857Y-83959095D02*
X139205857Y-84101952D01*
X139205857Y-84101952D02*
X139158238Y-84197190D01*
X139158238Y-84197190D02*
X139110619Y-84244809D01*
X139110619Y-84244809D02*
X139015381Y-84292428D01*
X139015381Y-84292428D02*
X138634429Y-84292428D01*
X139491572Y-83768619D02*
X139824905Y-84768619D01*
X139824905Y-84768619D02*
X140158238Y-83768619D01*
X141158239Y-83768619D02*
X141777286Y-83768619D01*
X141777286Y-83768619D02*
X141443953Y-84149571D01*
X141443953Y-84149571D02*
X141586810Y-84149571D01*
X141586810Y-84149571D02*
X141682048Y-84197190D01*
X141682048Y-84197190D02*
X141729667Y-84244809D01*
X141729667Y-84244809D02*
X141777286Y-84340047D01*
X141777286Y-84340047D02*
X141777286Y-84578142D01*
X141777286Y-84578142D02*
X141729667Y-84673380D01*
X141729667Y-84673380D02*
X141682048Y-84721000D01*
X141682048Y-84721000D02*
X141586810Y-84768619D01*
X141586810Y-84768619D02*
X141301096Y-84768619D01*
X141301096Y-84768619D02*
X141205858Y-84721000D01*
X141205858Y-84721000D02*
X141158239Y-84673380D01*
X142205858Y-84387666D02*
X142967763Y-84387666D01*
X143443953Y-84768619D02*
X143443953Y-83768619D01*
X143443953Y-83768619D02*
X143824905Y-83768619D01*
X143824905Y-83768619D02*
X143920143Y-83816238D01*
X143920143Y-83816238D02*
X143967762Y-83863857D01*
X143967762Y-83863857D02*
X144015381Y-83959095D01*
X144015381Y-83959095D02*
X144015381Y-84101952D01*
X144015381Y-84101952D02*
X143967762Y-84197190D01*
X143967762Y-84197190D02*
X143920143Y-84244809D01*
X143920143Y-84244809D02*
X143824905Y-84292428D01*
X143824905Y-84292428D02*
X143443953Y-84292428D01*
X144443953Y-84768619D02*
X144443953Y-84101952D01*
X144443953Y-83768619D02*
X144396334Y-83816238D01*
X144396334Y-83816238D02*
X144443953Y-83863857D01*
X144443953Y-83863857D02*
X144491572Y-83816238D01*
X144491572Y-83816238D02*
X144443953Y-83768619D01*
X144443953Y-83768619D02*
X144443953Y-83863857D01*
X144920143Y-84101952D02*
X144920143Y-84768619D01*
X144920143Y-84197190D02*
X144967762Y-84149571D01*
X144967762Y-84149571D02*
X145063000Y-84101952D01*
X145063000Y-84101952D02*
X145205857Y-84101952D01*
X145205857Y-84101952D02*
X145301095Y-84149571D01*
X145301095Y-84149571D02*
X145348714Y-84244809D01*
X145348714Y-84244809D02*
X145348714Y-84768619D01*
X139182047Y-86378619D02*
X139182047Y-85378619D01*
X139182047Y-85378619D02*
X139515380Y-86092904D01*
X139515380Y-86092904D02*
X139848713Y-85378619D01*
X139848713Y-85378619D02*
X139848713Y-86378619D01*
X140467761Y-86378619D02*
X140372523Y-86331000D01*
X140372523Y-86331000D02*
X140324904Y-86283380D01*
X140324904Y-86283380D02*
X140277285Y-86188142D01*
X140277285Y-86188142D02*
X140277285Y-85902428D01*
X140277285Y-85902428D02*
X140324904Y-85807190D01*
X140324904Y-85807190D02*
X140372523Y-85759571D01*
X140372523Y-85759571D02*
X140467761Y-85711952D01*
X140467761Y-85711952D02*
X140610618Y-85711952D01*
X140610618Y-85711952D02*
X140705856Y-85759571D01*
X140705856Y-85759571D02*
X140753475Y-85807190D01*
X140753475Y-85807190D02*
X140801094Y-85902428D01*
X140801094Y-85902428D02*
X140801094Y-86188142D01*
X140801094Y-86188142D02*
X140753475Y-86283380D01*
X140753475Y-86283380D02*
X140705856Y-86331000D01*
X140705856Y-86331000D02*
X140610618Y-86378619D01*
X140610618Y-86378619D02*
X140467761Y-86378619D01*
X141658237Y-86378619D02*
X141658237Y-85378619D01*
X141658237Y-86331000D02*
X141562999Y-86378619D01*
X141562999Y-86378619D02*
X141372523Y-86378619D01*
X141372523Y-86378619D02*
X141277285Y-86331000D01*
X141277285Y-86331000D02*
X141229666Y-86283380D01*
X141229666Y-86283380D02*
X141182047Y-86188142D01*
X141182047Y-86188142D02*
X141182047Y-85902428D01*
X141182047Y-85902428D02*
X141229666Y-85807190D01*
X141229666Y-85807190D02*
X141277285Y-85759571D01*
X141277285Y-85759571D02*
X141372523Y-85711952D01*
X141372523Y-85711952D02*
X141562999Y-85711952D01*
X141562999Y-85711952D02*
X141658237Y-85759571D01*
X142562999Y-85711952D02*
X142562999Y-86378619D01*
X142134428Y-85711952D02*
X142134428Y-86235761D01*
X142134428Y-86235761D02*
X142182047Y-86331000D01*
X142182047Y-86331000D02*
X142277285Y-86378619D01*
X142277285Y-86378619D02*
X142420142Y-86378619D01*
X142420142Y-86378619D02*
X142515380Y-86331000D01*
X142515380Y-86331000D02*
X142562999Y-86283380D01*
X143182047Y-86378619D02*
X143086809Y-86331000D01*
X143086809Y-86331000D02*
X143039190Y-86235761D01*
X143039190Y-86235761D02*
X143039190Y-85378619D01*
X143943952Y-86331000D02*
X143848714Y-86378619D01*
X143848714Y-86378619D02*
X143658238Y-86378619D01*
X143658238Y-86378619D02*
X143563000Y-86331000D01*
X143563000Y-86331000D02*
X143515381Y-86235761D01*
X143515381Y-86235761D02*
X143515381Y-85854809D01*
X143515381Y-85854809D02*
X143563000Y-85759571D01*
X143563000Y-85759571D02*
X143658238Y-85711952D01*
X143658238Y-85711952D02*
X143848714Y-85711952D01*
X143848714Y-85711952D02*
X143943952Y-85759571D01*
X143943952Y-85759571D02*
X143991571Y-85854809D01*
X143991571Y-85854809D02*
X143991571Y-85950047D01*
X143991571Y-85950047D02*
X143515381Y-86045285D01*
X141206666Y-97874819D02*
X141206666Y-98589104D01*
X141206666Y-98589104D02*
X141159047Y-98731961D01*
X141159047Y-98731961D02*
X141063809Y-98827200D01*
X141063809Y-98827200D02*
X140920952Y-98874819D01*
X140920952Y-98874819D02*
X140825714Y-98874819D01*
X142206666Y-98874819D02*
X141635238Y-98874819D01*
X141920952Y-98874819D02*
X141920952Y-97874819D01*
X141920952Y-97874819D02*
X141825714Y-98017676D01*
X141825714Y-98017676D02*
X141730476Y-98112914D01*
X141730476Y-98112914D02*
X141635238Y-98160533D01*
X130246666Y-79454819D02*
X130246666Y-80169104D01*
X130246666Y-80169104D02*
X130199047Y-80311961D01*
X130199047Y-80311961D02*
X130103809Y-80407200D01*
X130103809Y-80407200D02*
X129960952Y-80454819D01*
X129960952Y-80454819D02*
X129865714Y-80454819D01*
X130675238Y-79550057D02*
X130722857Y-79502438D01*
X130722857Y-79502438D02*
X130818095Y-79454819D01*
X130818095Y-79454819D02*
X131056190Y-79454819D01*
X131056190Y-79454819D02*
X131151428Y-79502438D01*
X131151428Y-79502438D02*
X131199047Y-79550057D01*
X131199047Y-79550057D02*
X131246666Y-79645295D01*
X131246666Y-79645295D02*
X131246666Y-79740533D01*
X131246666Y-79740533D02*
X131199047Y-79883390D01*
X131199047Y-79883390D02*
X130627619Y-80454819D01*
X130627619Y-80454819D02*
X131246666Y-80454819D01*
X151966666Y-79464819D02*
X151966666Y-80179104D01*
X151966666Y-80179104D02*
X151919047Y-80321961D01*
X151919047Y-80321961D02*
X151823809Y-80417200D01*
X151823809Y-80417200D02*
X151680952Y-80464819D01*
X151680952Y-80464819D02*
X151585714Y-80464819D01*
X152347619Y-79464819D02*
X152966666Y-79464819D01*
X152966666Y-79464819D02*
X152633333Y-79845771D01*
X152633333Y-79845771D02*
X152776190Y-79845771D01*
X152776190Y-79845771D02*
X152871428Y-79893390D01*
X152871428Y-79893390D02*
X152919047Y-79941009D01*
X152919047Y-79941009D02*
X152966666Y-80036247D01*
X152966666Y-80036247D02*
X152966666Y-80274342D01*
X152966666Y-80274342D02*
X152919047Y-80369580D01*
X152919047Y-80369580D02*
X152871428Y-80417200D01*
X152871428Y-80417200D02*
X152776190Y-80464819D01*
X152776190Y-80464819D02*
X152490476Y-80464819D01*
X152490476Y-80464819D02*
X152395238Y-80417200D01*
X152395238Y-80417200D02*
X152347619Y-80369580D01*
D12*
%TO.C,J1*%
X137190000Y-92050000D02*
X137190000Y-93300000D01*
X137490000Y-92350000D02*
X137490000Y-97070000D01*
X137490000Y-93660000D02*
X138100000Y-93660000D01*
X137490000Y-94960000D02*
X138100000Y-94960000D01*
X137490000Y-97070000D02*
X145610000Y-97070000D01*
X138100000Y-92960000D02*
X138100000Y-96460000D01*
X138100000Y-96460000D02*
X145000000Y-96460000D01*
X138440000Y-92050000D02*
X137190000Y-92050000D01*
X138950000Y-92150000D02*
X138950000Y-92350000D01*
X139250000Y-92150000D02*
X138950000Y-92150000D01*
X139250000Y-92250000D02*
X138950000Y-92250000D01*
X139250000Y-92350000D02*
X139250000Y-92150000D01*
X140050000Y-92350000D02*
X140050000Y-92960000D01*
X140050000Y-92960000D02*
X138100000Y-92960000D01*
X140450000Y-95960000D02*
X140650000Y-95960000D01*
X140450000Y-96460000D02*
X140450000Y-95960000D01*
X140550000Y-96460000D02*
X140550000Y-95960000D01*
X140650000Y-95960000D02*
X140650000Y-96460000D01*
X142450000Y-95960000D02*
X142650000Y-95960000D01*
X142450000Y-96460000D02*
X142450000Y-95960000D01*
X142550000Y-96460000D02*
X142550000Y-95960000D01*
X142650000Y-95960000D02*
X142650000Y-96460000D01*
X143050000Y-92960000D02*
X143050000Y-92350000D01*
X145000000Y-92960000D02*
X143050000Y-92960000D01*
X145000000Y-96460000D02*
X145000000Y-92960000D01*
X145610000Y-92350000D02*
X137490000Y-92350000D01*
X145610000Y-93660000D02*
X145000000Y-93660000D01*
X145610000Y-94960000D02*
X145000000Y-94960000D01*
X145610000Y-97070000D02*
X145610000Y-92350000D01*
%TO.C,J2*%
X129513800Y-83131000D02*
X129513800Y-101191000D01*
X129513800Y-83131000D02*
X131633800Y-83131000D01*
X129513800Y-101191000D02*
X131633800Y-101191000D01*
X130573800Y-81071000D02*
X131633800Y-81071000D01*
X131633800Y-81071000D02*
X131633800Y-82131000D01*
X131633800Y-83131000D02*
X131633800Y-101191000D01*
D11*
%TO.C,EXP_ORIENTATION*%
X141570000Y-80630000D02*
X141570000Y-79530000D01*
X141570000Y-79530000D02*
X141220000Y-79930000D01*
X141570000Y-79530000D02*
X141920000Y-79930000D01*
X141649057Y-81330000D02*
G75*
G03*
X141649057Y-81330000I-79057J0D01*
G01*
X142270446Y-81330000D02*
G75*
G03*
X142270446Y-81330000I-700446J0D01*
G01*
D12*
%TO.C,J3*%
X151500000Y-83130000D02*
X151500000Y-101190000D01*
X151500000Y-83130000D02*
X153620000Y-83130000D01*
X151500000Y-101190000D02*
X153620000Y-101190000D01*
X152560000Y-81070000D02*
X153620000Y-81070000D01*
X153620000Y-81070000D02*
X153620000Y-82130000D01*
X153620000Y-83130000D02*
X153620000Y-101190000D01*
%TD*%
%LPC*%
D13*
%TO.C,J1*%
X139550000Y-94160000D03*
D14*
X141550000Y-94160000D03*
X143550000Y-94160000D03*
%TD*%
D15*
%TO.C,J2*%
X130573800Y-82131000D03*
D16*
X130573800Y-84131000D03*
X130573800Y-86131000D03*
X130573800Y-88131000D03*
X130573800Y-90131000D03*
X130573800Y-92131000D03*
X130573800Y-94131000D03*
X130573800Y-96131000D03*
X130573800Y-98131000D03*
X130573800Y-100131000D03*
%TD*%
D15*
%TO.C,J3*%
X152560000Y-82130000D03*
D16*
X152560000Y-84130000D03*
X152560000Y-86130000D03*
X152560000Y-88130000D03*
X152560000Y-90130000D03*
X152560000Y-92130000D03*
X152560000Y-94130000D03*
X152560000Y-96130000D03*
X152560000Y-98130000D03*
X152560000Y-100130000D03*
%TD*%
%LPD*%
M02*
