%TF.GenerationSoftware,KiCad,Pcbnew,7.0.7*%
%TF.CreationDate,2023-10-06T19:00:49-06:00*%
%TF.ProjectId,Modular_Interfaces_No_GigE,4d6f6475-6c61-4725-9f49-6e7465726661,rev?*%
%TF.SameCoordinates,Original*%
%TF.FileFunction,Profile,NP*%
%FSLAX46Y46*%
G04 Gerber Fmt 4.6, Leading zero omitted, Abs format (unit mm)*
G04 Created by KiCad (PCBNEW 7.0.7) date 2023-10-06 19:00:49*
%MOMM*%
%LPD*%
G01*
G04 APERTURE LIST*
%TA.AperFunction,Profile*%
%ADD10C,0.150000*%
%TD*%
%TA.AperFunction,Profile*%
%ADD11C,0.200000*%
%TD*%
G04 APERTURE END LIST*
D10*
X125850266Y-103626188D02*
X125811271Y-103718256D01*
X129553553Y-105547348D02*
X129595379Y-105638159D01*
X159977097Y-103347755D02*
X159954380Y-103445127D01*
X157526612Y-101049281D02*
X157614551Y-101096851D01*
X128414333Y-73371132D02*
X128314700Y-73379455D01*
X159760042Y-103903970D02*
X159705913Y-103988037D01*
X157194819Y-72934575D02*
X157266535Y-73004237D01*
X159104355Y-73607571D02*
X159189967Y-73659222D01*
X125877446Y-75673241D02*
X125843773Y-75767387D01*
D11*
X95570000Y-102990000D02*
G75*
G03*
X95570000Y-102990000I-1350000J0D01*
G01*
D10*
X159892466Y-103635188D02*
X159853471Y-103727256D01*
X95547017Y-100380967D02*
X95502974Y-100470724D01*
X159908129Y-74591261D02*
X159936249Y-74687211D01*
X129545174Y-100479724D02*
X129495070Y-100566244D01*
X159497338Y-76352022D02*
X159425568Y-76421638D01*
X159791621Y-74315207D02*
X159835697Y-74404954D01*
X123083644Y-77427356D02*
X123024054Y-77507637D01*
X125952016Y-103240245D02*
X125934897Y-103338755D01*
X127675970Y-104647889D02*
X127771098Y-104678678D01*
X92621317Y-74404954D02*
X92582438Y-74497072D01*
X93917154Y-76855924D02*
X94016140Y-76870034D01*
X95584789Y-100288396D02*
X95547017Y-100380967D01*
X159987177Y-74982484D02*
X159992824Y-75082311D01*
X128979095Y-73181480D02*
X128891156Y-73229050D01*
X129420448Y-72781316D02*
X129358957Y-72860150D01*
X94384333Y-73371132D02*
X94284700Y-73379455D01*
X95140012Y-105072517D02*
X95214822Y-105138846D01*
X126858636Y-76201075D02*
X126921999Y-76278421D01*
X98213507Y-62531199D02*
X118413507Y-62531199D01*
X127947154Y-76855924D02*
X128046140Y-76870034D01*
X157128057Y-72860150D02*
X157194819Y-72934575D01*
X159368633Y-104354842D02*
X159289392Y-104415819D01*
X93105361Y-73776756D02*
X93029816Y-73842255D01*
X159015933Y-73560893D02*
X159104355Y-73607571D01*
D11*
X129593507Y-75131199D02*
G75*
G03*
X129593507Y-75131199I-1350000J0D01*
G01*
D10*
X93443067Y-76702480D02*
X93534063Y-76743916D01*
X95546686Y-77770358D02*
X95563507Y-85081199D01*
X124985933Y-73560893D02*
X125074355Y-73607571D01*
X126528171Y-74784612D02*
X126511176Y-74883143D01*
X159992761Y-75182298D02*
X159986988Y-75282117D01*
X94683021Y-101164333D02*
X94587204Y-101192884D01*
X123090137Y-105286157D02*
X123030547Y-105366438D01*
X126877329Y-104068876D02*
X126940692Y-104146222D01*
X123732126Y-104825963D02*
X123639299Y-104863098D01*
X157197316Y-105219172D02*
X157132337Y-105295157D01*
X126494253Y-75182298D02*
X126500026Y-75282117D01*
X122886821Y-105629159D02*
X122870000Y-112940000D01*
X126551327Y-75577326D02*
X126579568Y-75673241D01*
X128143561Y-73384055D02*
X128043942Y-73392615D01*
D11*
X125570000Y-102990000D02*
G75*
G03*
X125570000Y-102990000I-1350000J0D01*
G01*
D10*
X92487669Y-102741944D02*
X92476330Y-102841285D01*
X125963670Y-102841285D02*
X125969317Y-102941112D01*
X92505103Y-103338755D02*
X92527820Y-103436127D01*
X94955588Y-101040281D02*
X94867649Y-101087851D01*
X95054316Y-77152701D02*
X95133519Y-77213716D01*
X129182212Y-105081517D02*
X129257022Y-105147846D01*
X94509163Y-76912491D02*
X94606215Y-76936511D01*
X125080848Y-101466372D02*
X125166460Y-101518023D01*
X159648422Y-101930876D02*
X159707162Y-102011789D01*
X157442149Y-100995783D02*
X157526612Y-101049281D01*
X159272489Y-73715679D02*
X159351653Y-73776756D01*
X157681499Y-104872098D02*
X157591451Y-104915543D01*
X127315740Y-101527023D02*
X127233218Y-101583480D01*
X125760589Y-75949147D02*
X125711349Y-76036169D01*
X159647071Y-104068876D02*
X159583708Y-104146222D01*
X94016140Y-76870034D02*
X94115770Y-76878468D01*
X128062635Y-101260416D02*
X127963667Y-101274651D01*
X98220000Y-90390000D02*
X118420000Y-90390000D01*
X158848430Y-104647889D02*
X158753302Y-104678678D01*
X157018832Y-105459636D02*
X156970847Y-105547348D01*
X160005870Y-102850285D02*
X160011517Y-102950112D01*
X129570524Y-72522166D02*
X129526481Y-72611923D01*
X123225178Y-105138846D02*
X123155116Y-105210172D01*
X127233218Y-101583480D02*
X127154054Y-101644557D01*
X157572758Y-77047742D02*
X157485918Y-77097288D01*
X122892983Y-100380967D02*
X122937026Y-100470724D01*
X125402061Y-104280439D02*
X125326433Y-104345842D01*
X124512040Y-73406850D02*
X124610033Y-73426714D01*
X126511491Y-75381444D02*
X126528610Y-75479954D01*
X122922154Y-77679547D02*
X122880328Y-77770358D01*
X123656857Y-73270465D02*
X123750486Y-73305532D01*
X126598261Y-103541042D02*
X126631934Y-103635188D01*
X92470026Y-75282117D02*
X92481491Y-75381444D01*
X157146750Y-100727951D02*
X157213512Y-100802376D01*
X129626989Y-100297396D02*
X129612200Y-93049000D01*
X157705550Y-101138266D02*
X157799179Y-101173333D01*
X159121122Y-104523715D02*
X159032640Y-104570281D01*
X127673886Y-101350853D02*
X127580718Y-101387143D01*
X158343453Y-73384055D02*
X158443072Y-73392615D01*
X125883939Y-103532042D02*
X125850266Y-103626188D01*
D11*
X159612200Y-102999000D02*
G75*
G03*
X159612200Y-102999000I-1350000J0D01*
G01*
D10*
X128909849Y-101096851D02*
X128818850Y-101138266D01*
X129327084Y-105219172D02*
X129392063Y-105295157D01*
X95402960Y-77507637D02*
X95456875Y-77591835D01*
X95563507Y-85081199D02*
X96313507Y-85831199D01*
X94800701Y-104863098D02*
X94890749Y-104906543D01*
X125403691Y-101701056D02*
X125475373Y-101770763D01*
X159425568Y-76421638D02*
X159349940Y-76487041D01*
X126939243Y-101853449D02*
X126875978Y-101930876D01*
X129292195Y-72934575D02*
X129220479Y-73004237D01*
X159874576Y-74497072D02*
X159908129Y-74591261D01*
X92827285Y-74063075D02*
X92768545Y-74143988D01*
X123484412Y-101040281D02*
X123572351Y-101087851D01*
X123148623Y-77351371D02*
X123083644Y-77427356D01*
X156897411Y-100297396D02*
X156935183Y-100389967D01*
X94707874Y-104825963D02*
X94800701Y-104863098D01*
X123098057Y-72860150D02*
X123164819Y-72934575D01*
X95335450Y-100718951D02*
X95268688Y-100793376D01*
X93816981Y-73426714D02*
X93720282Y-73452143D01*
X94794208Y-77004297D02*
X94884256Y-77047742D01*
X125767082Y-103807948D02*
X125717842Y-103894970D01*
X125844576Y-74497072D02*
X125878129Y-74591261D01*
X123663350Y-101129266D02*
X123756979Y-101164333D01*
X92833778Y-101921876D02*
X92775038Y-102002789D01*
X125957177Y-74982484D02*
X125962824Y-75082311D01*
X125473831Y-104210823D02*
X125402061Y-104280439D01*
X125805697Y-74404954D02*
X125844576Y-74497072D01*
X125906249Y-74687211D02*
X125928843Y-74784612D01*
X127473067Y-76702480D02*
X127564063Y-76743916D01*
X94213507Y-73381199D02*
X94113561Y-73384055D01*
X123218685Y-77280045D02*
X123148623Y-77351371D01*
X124319946Y-101242856D02*
X124419565Y-101251416D01*
X125078922Y-104514715D02*
X124990440Y-104561281D01*
X124213507Y-73381199D02*
X124313453Y-73384055D01*
X159761185Y-102095924D02*
X159810314Y-102183008D01*
X92583241Y-75767387D02*
X92622236Y-75859455D01*
X128459379Y-104763017D02*
X128557856Y-104780292D01*
X93728898Y-104669678D02*
X93825628Y-104694985D01*
X154243507Y-87731199D02*
X132243507Y-87731199D01*
X124713225Y-101310944D02*
X124808314Y-101341853D01*
X94211337Y-76881198D02*
X94311253Y-76884769D01*
X94020435Y-101251416D02*
X93921467Y-101265651D01*
X128241337Y-76881198D02*
X128341253Y-76884769D01*
X93722405Y-76810877D02*
X93819135Y-76836184D01*
X127235008Y-104415819D02*
X127317601Y-104472172D01*
X94949095Y-73181480D02*
X94861156Y-73229050D01*
X93825628Y-104694985D02*
X93923647Y-104714725D01*
X125934897Y-103338755D02*
X125912180Y-103436127D01*
X126550765Y-74687211D02*
X126528171Y-74784612D01*
X159809282Y-103816948D02*
X159760042Y-103903970D01*
X123319361Y-100927609D02*
X123399949Y-100986783D01*
X124417367Y-104728835D02*
X124317737Y-104737269D01*
X129019789Y-104965089D02*
X129103009Y-105020502D01*
X122848718Y-72429595D02*
X122863507Y-65181199D01*
X158560733Y-101274651D02*
X158658726Y-101294515D01*
X129144146Y-73068808D02*
X129063558Y-73127982D01*
X94515656Y-104771292D02*
X94612708Y-104795312D01*
X157072747Y-105375438D02*
X157018832Y-105459636D01*
X127849135Y-76836184D02*
X127947154Y-76855924D01*
X126518530Y-102850285D02*
X126512883Y-102950112D01*
X130343507Y-85831199D02*
X132243507Y-87731199D01*
X122870000Y-93040000D02*
X122120000Y-92290000D01*
X129608296Y-72429595D02*
X129593507Y-65181199D01*
X157342188Y-105081517D02*
X157267378Y-105147846D01*
X124042681Y-73371132D02*
X124142314Y-73379455D01*
X125884622Y-102450062D02*
X125912742Y-102546012D01*
X158362146Y-101251856D02*
X158461765Y-101260416D01*
X95504860Y-77679547D02*
X95546686Y-77770358D01*
X159351653Y-73776756D02*
X159427198Y-73842255D01*
X126817238Y-102011789D02*
X126763215Y-102095924D01*
X92964627Y-101770763D02*
X92897043Y-101844449D01*
X128539163Y-76912491D02*
X128636215Y-76936511D01*
X123846303Y-73334083D02*
X123943855Y-73355984D01*
X124516353Y-104714725D02*
X124417367Y-104728835D01*
X157054054Y-77507637D02*
X157000139Y-77591835D01*
X126613241Y-75767387D02*
X126652236Y-75859455D01*
X126529869Y-102750944D02*
X126518530Y-102850285D01*
X123572351Y-101087851D02*
X123663350Y-101129266D01*
X158145761Y-76884769D02*
X158046328Y-76895216D01*
X158753302Y-104678678D02*
X158656572Y-104703985D01*
X125074355Y-73607571D02*
X125159967Y-73659222D01*
X127078509Y-101710056D02*
X127006827Y-101779763D01*
X123852796Y-101192884D02*
X123950348Y-101214785D01*
X156162200Y-113699000D02*
X154262200Y-115599000D01*
X95033558Y-73127982D02*
X94949095Y-73181480D01*
X92527820Y-103436127D02*
X92556061Y-103532042D01*
X92520765Y-74687211D02*
X92498171Y-74784612D01*
X92722158Y-103894970D02*
X92776287Y-103979037D01*
X125928843Y-74784612D02*
X125945838Y-74883143D01*
X94861156Y-73229050D02*
X94770157Y-73270465D01*
X125962824Y-75082311D02*
X125962761Y-75182298D01*
X124215677Y-76881198D02*
X124215677Y-76881198D01*
X129576686Y-77770358D02*
X129593507Y-85081199D01*
X123164819Y-72934575D02*
X123236535Y-73004237D01*
X95563507Y-65181199D02*
X96313507Y-64431199D01*
X94770157Y-73270465D02*
X94676528Y-73305532D01*
X130362200Y-92299000D02*
X132262200Y-90399000D01*
X93359152Y-101466372D02*
X93273540Y-101518023D01*
X127491760Y-104570281D02*
X127582756Y-104611717D01*
X126569458Y-102555012D02*
X126546864Y-102652413D01*
X95578296Y-72429595D02*
X95540524Y-72522166D01*
X126512946Y-103050099D02*
X126518719Y-103149918D01*
X159445891Y-101710056D02*
X159517573Y-101779763D01*
X126547303Y-103347755D02*
X126570020Y-103445127D01*
X93921467Y-101265651D02*
X93823474Y-101285515D01*
X92828636Y-76201075D02*
X92891999Y-76278421D01*
X125768114Y-102174008D02*
X125812190Y-102263755D01*
X94284700Y-73379455D02*
X94213507Y-73381199D01*
X94390826Y-101229933D02*
X94291193Y-101238256D01*
X127061446Y-76421638D02*
X127137074Y-76487041D01*
X154262200Y-115599000D02*
X132262200Y-115599000D01*
X92498610Y-75479954D02*
X92521327Y-75577326D01*
X120220000Y-90390000D02*
X118420000Y-90390000D01*
X126511176Y-74883143D02*
X126499837Y-74982484D01*
X93107074Y-76487041D02*
X93186315Y-76548018D01*
X128260030Y-104748999D02*
X128359946Y-104752570D01*
X124220000Y-101240000D02*
X124319946Y-101242856D01*
X126512883Y-102950112D02*
X126512946Y-103050099D01*
X92769794Y-76120236D02*
X92828636Y-76201075D01*
X123549251Y-104906543D02*
X123462411Y-104956089D01*
X122863507Y-65181199D02*
X122113507Y-64431199D01*
X127137074Y-76487041D02*
X127216315Y-76548018D01*
X92628729Y-103718256D02*
X92672918Y-103807948D01*
X124801821Y-73483052D02*
X124894989Y-73519342D01*
X159954380Y-103445127D02*
X159926139Y-103541042D01*
X158245677Y-76881198D02*
X158145761Y-76884769D01*
X157850799Y-76936511D02*
X157755633Y-76967162D01*
X92665393Y-74315207D02*
X92621317Y-74404954D01*
D11*
X95563507Y-75131199D02*
G75*
G03*
X95563507Y-75131199I-1350000J0D01*
G01*
D10*
X128046140Y-76870034D02*
X128145770Y-76878468D01*
X94971096Y-77097288D02*
X95054316Y-77152701D01*
X95208329Y-77280045D02*
X95278391Y-77351371D01*
X126857285Y-74063075D02*
X126798545Y-74143988D01*
X92890550Y-73985648D02*
X92827285Y-74063075D01*
X159349940Y-76487041D02*
X159270699Y-76548018D01*
X126670929Y-103727256D02*
X126715118Y-103816948D01*
X125248982Y-101574480D02*
X125328146Y-101635557D01*
X156979226Y-100479724D02*
X157029330Y-100566244D01*
X157799179Y-101173333D02*
X157894996Y-101201884D01*
X159189967Y-73659222D02*
X159272489Y-73715679D01*
X122970139Y-77591835D02*
X122922154Y-77679547D01*
X126799794Y-76120236D02*
X126858636Y-76201075D01*
X128043942Y-73392615D02*
X127944974Y-73406850D01*
X126499837Y-74982484D02*
X126494190Y-75082311D01*
X95190479Y-73004237D02*
X95114146Y-73068808D01*
X125657220Y-76120236D02*
X125598378Y-76201075D01*
X127655193Y-73483052D02*
X127562025Y-73519342D01*
X129495070Y-100566244D02*
X129439141Y-100649117D01*
X128636215Y-76936511D02*
X128731381Y-76967162D01*
X122120000Y-113690000D02*
X120220000Y-115590000D01*
X128824208Y-77004297D02*
X128914256Y-77047742D01*
X159853471Y-103727256D02*
X159809282Y-103816948D01*
X123632806Y-77004297D02*
X123542758Y-77047742D01*
X158924989Y-73519342D02*
X159015933Y-73560893D01*
X125541508Y-104137222D02*
X125473831Y-104210823D01*
X95396941Y-100640117D02*
X95335450Y-100718951D01*
X124222170Y-104739999D02*
X124122254Y-104743570D01*
X95262195Y-72934575D02*
X95190479Y-73004237D01*
X93036309Y-101701056D02*
X92964627Y-101770763D01*
X120213507Y-87731199D02*
X98213507Y-87731199D01*
X157894996Y-101201884D02*
X157992548Y-101223785D01*
X156143507Y-85831199D02*
X154243507Y-87731199D01*
X157662806Y-77004297D02*
X157572758Y-77047742D01*
X127401352Y-101475372D02*
X127315740Y-101527023D01*
X158091374Y-101238933D02*
X158191007Y-101247256D01*
X92476330Y-102841285D02*
X92470683Y-102941112D01*
X125718985Y-102086924D02*
X125768114Y-102174008D01*
X94884256Y-77047742D02*
X94971096Y-77097288D01*
X125658469Y-74143988D02*
X125712492Y-74228123D01*
X125598378Y-76201075D02*
X125535015Y-76278421D01*
X92588931Y-102355873D02*
X92555378Y-102450062D01*
X158359937Y-104746269D02*
X158264370Y-104748999D01*
X157780486Y-73305532D02*
X157876303Y-73334083D01*
X123725633Y-76967162D02*
X123632806Y-77004297D01*
X128891156Y-73229050D02*
X128800157Y-73270465D01*
X94113561Y-73384055D02*
X94013942Y-73392615D01*
X129103009Y-105020502D02*
X129182212Y-105081517D01*
X95570000Y-112940000D02*
X96320000Y-113690000D01*
X127944974Y-73406850D02*
X127846981Y-73426714D01*
X157774326Y-104834963D02*
X157681499Y-104872098D01*
X92666425Y-75949147D02*
X92715665Y-76036169D01*
X129589217Y-100389967D02*
X129545174Y-100479724D01*
X122987130Y-100557244D02*
X123043059Y-100640117D01*
X129476377Y-72698443D02*
X129420448Y-72781316D01*
X94013942Y-73392615D02*
X93914974Y-73406850D01*
X122976632Y-105450636D02*
X122928647Y-105538348D01*
X129082251Y-100995783D02*
X128997788Y-101049281D01*
X122863507Y-85081199D02*
X122113507Y-85831199D01*
X159289392Y-104415819D02*
X159206799Y-104472172D01*
X123030547Y-105366438D02*
X122976632Y-105450636D01*
X157267378Y-105147846D02*
X157197316Y-105219172D01*
X124049174Y-101229933D02*
X124148807Y-101238256D01*
X128750074Y-104834963D02*
X128842901Y-104872098D01*
X127298908Y-76604371D02*
X127384585Y-76655914D01*
X129257022Y-105147846D02*
X129327084Y-105219172D01*
X94612708Y-104795312D02*
X94707874Y-104825963D01*
X126530184Y-103249245D02*
X126547303Y-103347755D01*
X159835697Y-74404954D02*
X159874576Y-74497072D01*
X125395568Y-76421638D02*
X125319940Y-76487041D01*
X158191007Y-101247256D02*
X158262200Y-101249000D01*
X92521327Y-75577326D02*
X92549568Y-75673241D01*
X159688469Y-74143988D02*
X159742492Y-74228123D01*
X127489774Y-101428694D02*
X127401352Y-101475372D01*
X92464190Y-75082311D02*
X92464253Y-75182298D01*
X92672918Y-103807948D02*
X92722158Y-103894970D01*
X124616526Y-101285515D02*
X124713225Y-101310944D01*
X127846981Y-73426714D02*
X127750282Y-73452143D01*
X123379191Y-105011502D02*
X123299988Y-105072517D01*
X123820799Y-76936511D02*
X123725633Y-76967162D01*
X126570020Y-103445127D02*
X126598261Y-103541042D01*
X95114146Y-73068808D02*
X95033558Y-73127982D01*
X159926139Y-103541042D02*
X159892466Y-103635188D01*
X125242489Y-73715679D02*
X125321653Y-73776756D01*
X94867649Y-101087851D02*
X94776650Y-101129266D01*
X125599729Y-74063075D02*
X125658469Y-74143988D01*
X123542758Y-77047742D02*
X123455918Y-77097288D01*
X122848718Y-72429595D02*
X122886490Y-72522166D01*
X158459567Y-104737835D02*
X158359937Y-104746269D01*
X157132337Y-105295157D02*
X157072747Y-105375438D01*
X129392063Y-105295157D02*
X129451653Y-105375438D01*
X125536464Y-73985648D02*
X125599729Y-74063075D01*
X125717842Y-103894970D02*
X125663713Y-103979037D01*
X95446377Y-72698443D02*
X95390448Y-72781316D01*
X92469837Y-74982484D02*
X92464190Y-75082311D01*
X125475373Y-101770763D02*
X125542957Y-101844449D01*
X124115761Y-76884769D02*
X124016328Y-76895216D01*
X127155767Y-104354842D02*
X127235008Y-104415819D01*
X129239172Y-100872038D02*
X129162839Y-100936609D01*
X159994531Y-102750944D02*
X160005870Y-102850285D01*
X154243507Y-62531199D02*
X152443507Y-62531199D01*
X156878718Y-72429595D02*
X156893507Y-65181199D01*
X94311253Y-76884769D02*
X94410686Y-76895216D01*
X123036566Y-72781316D02*
X123098057Y-72860150D01*
X159270699Y-76548018D02*
X159188106Y-76604371D01*
X159206799Y-104472172D02*
X159121122Y-104523715D01*
X93532025Y-73519342D02*
X93441081Y-73560893D01*
X158922951Y-76743916D02*
X158829737Y-76780088D01*
X125712492Y-74228123D02*
X125761621Y-74315207D01*
X158637879Y-76836184D02*
X158539860Y-76855924D01*
X159907446Y-75673241D02*
X159873773Y-75767387D01*
X126518719Y-103149918D02*
X126530184Y-103249245D01*
X95214822Y-105138846D02*
X95284884Y-105210172D01*
X159370346Y-101644557D02*
X159445891Y-101710056D01*
X95284884Y-105210172D02*
X95349863Y-105286157D01*
X94483159Y-73355984D02*
X94384333Y-73371132D01*
X157213512Y-100802376D02*
X157285228Y-100872038D01*
X124808314Y-101341853D02*
X124901482Y-101378143D01*
X157402698Y-77152701D02*
X157323495Y-77213716D01*
X126744522Y-74228123D02*
X126695393Y-74315207D01*
X123043059Y-100640117D02*
X123104550Y-100718951D01*
X129593507Y-85081199D02*
X130343507Y-85831199D01*
X92627810Y-102263755D02*
X92588931Y-102355873D01*
X124799737Y-76780088D02*
X124704609Y-76810877D01*
X122930533Y-72611923D02*
X122980637Y-72698443D01*
X127752405Y-76810877D02*
X127849135Y-76836184D01*
X157085259Y-100649117D02*
X157146750Y-100727951D01*
X156916490Y-72522166D02*
X156960533Y-72611923D01*
X158443072Y-73392615D02*
X158542040Y-73406850D01*
X92549568Y-75673241D02*
X92583241Y-75767387D01*
X95349863Y-105286157D02*
X95409453Y-105366438D01*
X125843773Y-75767387D02*
X125804778Y-75859455D01*
X128513159Y-73355984D02*
X128414333Y-73371132D01*
X125912180Y-103436127D02*
X125883939Y-103532042D01*
X157266535Y-73004237D02*
X157342868Y-73068808D01*
X128243507Y-73381199D02*
X128143561Y-73384055D01*
X123477919Y-73181480D02*
X123565858Y-73229050D01*
X125956988Y-75282117D02*
X125945523Y-75381444D01*
X124317737Y-104737269D02*
X124222170Y-104739999D01*
X126652236Y-75859455D02*
X126696425Y-75949147D01*
X126494190Y-75082311D02*
X126494253Y-75182298D01*
X124142314Y-73379455D02*
X124213507Y-73381199D01*
X129308391Y-77351371D02*
X129373370Y-77427356D01*
X129612200Y-112949000D02*
X130362200Y-113699000D01*
X124419565Y-101251416D02*
X124518533Y-101265651D01*
X124413072Y-73392615D02*
X124512040Y-73406850D01*
X120220000Y-115590000D02*
X98220000Y-115590000D01*
X125804778Y-75859455D02*
X125760589Y-75949147D01*
X129626989Y-100297396D02*
X129589217Y-100389967D01*
X94220000Y-101240000D02*
X94120054Y-101242856D01*
X160005681Y-103149918D02*
X159994216Y-103249245D01*
X126546864Y-102652413D02*
X126529869Y-102750944D01*
X92555378Y-102450062D02*
X92527258Y-102546012D01*
X124122254Y-104743570D02*
X124022821Y-104754017D01*
D11*
X129612200Y-102999000D02*
G75*
G03*
X129612200Y-102999000I-1350000J0D01*
G01*
D10*
X128932949Y-104915543D02*
X129019789Y-104965089D01*
X125945523Y-75381444D02*
X125928404Y-75479954D01*
X159977536Y-102652413D02*
X159994531Y-102750944D01*
X93184525Y-73715679D02*
X93105361Y-73776756D01*
X125158106Y-76604371D02*
X125072429Y-76655914D01*
X124899444Y-104602717D02*
X124806230Y-104638889D01*
X93625193Y-73483052D02*
X93532025Y-73519342D01*
X123243028Y-100863038D02*
X123319361Y-100927609D01*
X156960533Y-72611923D02*
X157010637Y-72698443D01*
X158558553Y-104723725D02*
X158459567Y-104737835D01*
X125397198Y-73842255D02*
X125468880Y-73911962D01*
X125326433Y-104345842D02*
X125247192Y-104406819D01*
X126696425Y-75949147D02*
X126745665Y-76036169D01*
X157178623Y-77351371D02*
X157113644Y-77427356D01*
X157010637Y-72698443D02*
X157066566Y-72781316D01*
X159123048Y-101475372D02*
X159208660Y-101527023D01*
X157323495Y-77213716D02*
X157248685Y-77280045D01*
X158755425Y-101319944D02*
X158850514Y-101350853D01*
X123312868Y-73068808D02*
X123393456Y-73127982D01*
X159742492Y-74228123D02*
X159791621Y-74315207D01*
X160011517Y-102950112D02*
X160011454Y-103050099D01*
X126695393Y-74315207D02*
X126651317Y-74404954D01*
X93631686Y-101341853D02*
X93538518Y-101378143D01*
X123756979Y-101164333D02*
X123852796Y-101192884D01*
X157421391Y-105020502D02*
X157342188Y-105081517D01*
X92498171Y-74784612D02*
X92481176Y-74883143D01*
X126670010Y-102272755D02*
X126631131Y-102364873D01*
X95456875Y-77591835D02*
X95504860Y-77679547D01*
X122855211Y-100288396D02*
X122870000Y-93040000D01*
X159516031Y-104219823D02*
X159444261Y-104289439D01*
X120213507Y-62531199D02*
X118413507Y-62531199D01*
X123393456Y-73127982D02*
X123477919Y-73181480D01*
X158734609Y-76810877D02*
X158637879Y-76836184D01*
X93273540Y-101518023D02*
X93191018Y-101574480D01*
X128145770Y-76878468D02*
X128241337Y-76881198D01*
X157361561Y-100936609D02*
X157442149Y-100995783D01*
X93352659Y-73607571D02*
X93267047Y-73659222D01*
X125761621Y-74315207D02*
X125805697Y-74404954D01*
X159741349Y-76036169D02*
X159687220Y-76120236D01*
X154262200Y-90399000D02*
X152462200Y-90399000D01*
X159854390Y-102272755D02*
X159893269Y-102364873D01*
X93354585Y-76655914D02*
X93443067Y-76702480D01*
X158341244Y-76878468D02*
X158245677Y-76881198D01*
X128341253Y-76884769D02*
X128440686Y-76895216D01*
X93275401Y-104463172D02*
X93361078Y-104514715D01*
X127865674Y-101294515D02*
X127768975Y-101319944D01*
X124313453Y-73384055D02*
X124413072Y-73392615D01*
X158941644Y-104611717D02*
X158848430Y-104647889D01*
X159291182Y-101583480D02*
X159370346Y-101644557D01*
X94580711Y-73334083D02*
X94483159Y-73355984D01*
X92897043Y-101844449D02*
X92833778Y-101921876D01*
X124711102Y-104669678D02*
X124614372Y-104694985D01*
X156897411Y-100297396D02*
X156912200Y-93049000D01*
X94776650Y-101129266D02*
X94683021Y-101164333D01*
X95463368Y-105450636D02*
X95511353Y-105538348D01*
X94606215Y-76936511D02*
X94701381Y-76967162D01*
X126500026Y-75282117D02*
X126511491Y-75381444D01*
X123750486Y-73305532D02*
X123846303Y-73334083D01*
X128610711Y-73334083D02*
X128513159Y-73355984D01*
X157248685Y-77280045D02*
X157178623Y-77351371D01*
X93819135Y-76836184D02*
X93917154Y-76855924D01*
X125878129Y-74591261D02*
X125906249Y-74687211D01*
X94122263Y-104737269D02*
X94217830Y-104739999D01*
X159102429Y-76655914D02*
X159013947Y-76702480D01*
X125963481Y-103140918D02*
X125952016Y-103240245D01*
X122928647Y-105538348D02*
X122886821Y-105629159D01*
X95133519Y-77213716D02*
X95208329Y-77280045D01*
X128842901Y-104872098D02*
X128932949Y-104915543D01*
X127580718Y-101387143D02*
X127489774Y-101428694D01*
X123171312Y-100793376D02*
X123243028Y-100863038D01*
X132262200Y-90399000D02*
X152462200Y-90399000D01*
X127963667Y-101274651D02*
X127865674Y-101294515D01*
X93538518Y-101378143D02*
X93447574Y-101419694D01*
X156912200Y-112949000D02*
X156162200Y-113699000D01*
X93447574Y-101419694D02*
X93359152Y-101466372D01*
X122120000Y-92290000D02*
X120220000Y-90390000D01*
X159444261Y-104289439D02*
X159368633Y-104354842D01*
X156952154Y-77679547D02*
X156910328Y-77770358D01*
X126715118Y-103816948D02*
X126764358Y-103903970D01*
X125247192Y-104406819D02*
X125164599Y-104463172D01*
X158640033Y-73426714D02*
X158736732Y-73452143D01*
X128531852Y-101223785D02*
X128433026Y-101238933D01*
X128314700Y-73379455D02*
X128243507Y-73381199D01*
X157966544Y-104780292D02*
X157869492Y-104804312D01*
X95390448Y-72781316D02*
X95328957Y-72860150D01*
X92470683Y-102941112D02*
X92470746Y-103041099D01*
X127006827Y-101779763D02*
X126939243Y-101853449D01*
X92464253Y-75182298D02*
X92470026Y-75282117D01*
X94317746Y-104743570D02*
X94417179Y-104754017D01*
X156970847Y-105547348D02*
X156929021Y-105638159D01*
X158829737Y-76780088D02*
X158734609Y-76810877D01*
X124992426Y-101419694D02*
X125080848Y-101466372D01*
X95578296Y-72429595D02*
X95563507Y-65181199D01*
X127216315Y-76548018D02*
X127298908Y-76604371D01*
X127154054Y-101644557D02*
X127078509Y-101710056D01*
X96320000Y-92290000D02*
X98220000Y-90390000D01*
X124610033Y-73426714D02*
X124706732Y-73452143D01*
X156893507Y-85081199D02*
X156143507Y-85831199D01*
X128654908Y-104804312D02*
X128750074Y-104834963D01*
X159498880Y-73911962D02*
X159566464Y-73985648D01*
X124607879Y-76836184D02*
X124509860Y-76855924D01*
X129505568Y-105459636D02*
X129553553Y-105547348D01*
X94890749Y-104906543D02*
X94977589Y-104956089D01*
X127297047Y-73659222D02*
X127214525Y-73715679D01*
X123917851Y-76912491D02*
X123820799Y-76936511D01*
X156143507Y-64431199D02*
X154243507Y-62531199D01*
X128433026Y-101238933D02*
X128333393Y-101247256D01*
X127317601Y-104472172D02*
X127403278Y-104523715D01*
X127867828Y-104703985D02*
X127965847Y-104723725D01*
X157992548Y-101223785D02*
X158091374Y-101238933D01*
X127403278Y-104523715D02*
X127491760Y-104570281D01*
X123293495Y-77213716D02*
X123218685Y-77280045D01*
X92768545Y-74143988D02*
X92714522Y-74228123D01*
X122870000Y-112940000D02*
X122120000Y-113690000D01*
X158658726Y-101294515D02*
X158755425Y-101319944D01*
X128164463Y-104746269D02*
X128260030Y-104748999D01*
X94701381Y-76967162D02*
X94794208Y-77004297D01*
X123104550Y-100718951D02*
X123171312Y-100793376D01*
X158539860Y-76855924D02*
X158440874Y-76870034D01*
X93111854Y-101635557D02*
X93036309Y-101701056D01*
X94410686Y-76895216D02*
X94509163Y-76912491D01*
X156929021Y-105638159D02*
X156912200Y-112949000D01*
X95328957Y-72860150D02*
X95262195Y-72934575D01*
X157423456Y-73127982D02*
X157507919Y-73181480D01*
X125535015Y-76278421D02*
X125467338Y-76352022D01*
X158736732Y-73452143D02*
X158831821Y-73483052D01*
X128064833Y-104737835D02*
X128164463Y-104746269D01*
X94291193Y-101238256D02*
X94220000Y-101240000D01*
X92958134Y-73911962D02*
X92890550Y-73985648D01*
X157113644Y-77427356D02*
X157054054Y-77507637D01*
X125159967Y-73659222D02*
X125242489Y-73715679D01*
X158264370Y-104748999D02*
X158264370Y-104748999D01*
X130362200Y-113699000D02*
X132262200Y-115599000D01*
X156893507Y-65181199D02*
X156143507Y-64431199D01*
X159893269Y-102364873D02*
X159926822Y-102459062D01*
X125604871Y-104059876D02*
X125541508Y-104137222D01*
X129373370Y-77427356D02*
X129432960Y-77507637D01*
X127384585Y-76655914D02*
X127473067Y-76702480D01*
X125166460Y-101518023D02*
X125248982Y-101574480D01*
X92898492Y-104137222D02*
X92966169Y-104210823D01*
X126988134Y-73911962D02*
X126920550Y-73985648D01*
X93186315Y-76548018D02*
X93268908Y-76604371D01*
X126989676Y-76352022D02*
X127061446Y-76421638D01*
X93113567Y-104345842D02*
X93192808Y-104406819D01*
X123943855Y-73355984D02*
X124042681Y-73371132D01*
X125812190Y-102263755D02*
X125851069Y-102355873D01*
X122855211Y-100288396D02*
X122892983Y-100380967D01*
X157947851Y-76912491D02*
X157850799Y-76936511D01*
X128818850Y-101138266D02*
X128725221Y-101173333D01*
X92891999Y-76278421D02*
X92959676Y-76352022D01*
X127657277Y-76780088D02*
X127752405Y-76810877D01*
X128725221Y-101173333D02*
X128629404Y-101201884D01*
D11*
X159593507Y-75131199D02*
G75*
G03*
X159593507Y-75131199I-1350000J0D01*
G01*
D10*
X125606222Y-101921876D02*
X125664962Y-102002789D01*
X159034626Y-101428694D02*
X159123048Y-101475372D01*
X129439141Y-100649117D02*
X129377650Y-100727951D01*
X122937026Y-100470724D02*
X122987130Y-100557244D01*
X157485918Y-77097288D02*
X157402698Y-77152701D01*
X158172314Y-73379455D02*
X158243507Y-73381199D01*
X157869492Y-104804312D02*
X157774326Y-104834963D01*
X125072429Y-76655914D02*
X124983947Y-76702480D01*
X129595379Y-105638159D02*
X129612200Y-112949000D01*
X127771098Y-104678678D02*
X127867828Y-104703985D01*
X123827292Y-104795312D02*
X123732126Y-104825963D01*
X92504664Y-102643413D02*
X92487669Y-102741944D01*
X122980637Y-72698443D02*
X123036566Y-72781316D01*
X125468880Y-73911962D02*
X125536464Y-73985648D01*
X92589734Y-103626188D02*
X92628729Y-103718256D01*
X93037939Y-104280439D02*
X93113567Y-104345842D01*
X129451653Y-105375438D02*
X129505568Y-105459636D01*
X92835129Y-104059876D02*
X92898492Y-104137222D01*
X128557856Y-104780292D02*
X128654908Y-104804312D01*
X159585157Y-101853449D02*
X159648422Y-101930876D01*
X128440686Y-76895216D02*
X128539163Y-76912491D01*
X126764358Y-103903970D02*
X126818487Y-103988037D01*
X159687220Y-76120236D02*
X159628378Y-76201075D01*
X159629729Y-74063075D02*
X159688469Y-74143988D01*
X129084316Y-77152701D02*
X129163519Y-77213716D01*
X159975838Y-74883143D02*
X159987177Y-74982484D01*
X125542957Y-101844449D02*
X125606222Y-101921876D01*
X158245677Y-76881198D02*
X158245677Y-76881198D01*
X159958843Y-74784612D02*
X159975838Y-74883143D01*
X92487984Y-103240245D02*
X92505103Y-103338755D01*
X159873773Y-75767387D02*
X159834778Y-75859455D01*
X92481491Y-75381444D02*
X92498610Y-75479954D01*
X158262200Y-101249000D02*
X158362146Y-101251856D01*
X124704609Y-76810877D02*
X124607879Y-76836184D01*
X127471081Y-73560893D02*
X127382659Y-73607571D01*
X93191018Y-101574480D02*
X93111854Y-101635557D01*
X157504611Y-104965089D02*
X157421391Y-105020502D01*
X93267047Y-73659222D02*
X93184525Y-73715679D01*
X159188106Y-76604371D02*
X159102429Y-76655914D01*
X159935687Y-75577326D02*
X159907446Y-75673241D01*
X124222170Y-104739999D02*
X124222170Y-104739999D01*
X95496481Y-72611923D02*
X95446377Y-72698443D01*
X157755633Y-76967162D02*
X157662806Y-77004297D01*
X128162254Y-101251856D02*
X128062635Y-101260416D01*
X129593507Y-65181199D02*
X130343507Y-64431199D01*
X92476519Y-103140918D02*
X92487984Y-103240245D01*
X129238329Y-77280045D02*
X129308391Y-77351371D01*
X158440874Y-76870034D02*
X158341244Y-76878468D01*
X159834778Y-75859455D02*
X159790589Y-75949147D01*
X157595858Y-73229050D02*
X157686857Y-73270465D01*
X126597578Y-102459062D02*
X126569458Y-102555012D01*
X158850514Y-101350853D02*
X158943682Y-101387143D01*
X93449560Y-104561281D02*
X93540556Y-104602717D01*
X94217830Y-104739999D02*
X94317746Y-104743570D01*
X159926822Y-102459062D02*
X159954942Y-102555012D01*
X159992824Y-75082311D02*
X159992761Y-75182298D01*
X128914256Y-77047742D02*
X129001096Y-77097288D01*
X159954942Y-102555012D02*
X159977536Y-102652413D01*
X93534063Y-76743916D02*
X93627277Y-76780088D01*
X156162200Y-92299000D02*
X154262200Y-90399000D01*
X122113507Y-85831199D02*
X120213507Y-87731199D01*
X158046328Y-76895216D02*
X157947851Y-76912491D01*
X157029330Y-100566244D02*
X157085259Y-100649117D01*
X158461765Y-101260416D02*
X158560733Y-101274651D01*
X93031446Y-76421638D02*
X93107074Y-76487041D01*
X126920550Y-73985648D02*
X126857285Y-74063075D01*
X123950348Y-101214785D02*
X124049174Y-101229933D01*
X95540524Y-72522166D02*
X95496481Y-72611923D01*
X159975523Y-75381444D02*
X159958404Y-75479954D01*
X123399949Y-100986783D02*
X123484412Y-101040281D01*
X123372698Y-77152701D02*
X123293495Y-77213716D01*
X92548885Y-74591261D02*
X92520765Y-74687211D01*
X124148807Y-101238256D02*
X124220000Y-101240000D01*
X129377650Y-100727951D02*
X129310888Y-100802376D01*
X156878718Y-72429595D02*
X156916490Y-72522166D01*
X93192808Y-104406819D02*
X93275401Y-104463172D01*
X125467338Y-76352022D02*
X125395568Y-76421638D01*
X125851069Y-102355873D02*
X125884622Y-102450062D01*
X122113507Y-64431199D02*
X120213507Y-62531199D01*
X158164454Y-104752570D02*
X158065021Y-104763017D01*
X92714522Y-74228123D02*
X92665393Y-74315207D01*
X92481176Y-74883143D02*
X92469837Y-74982484D01*
X126921999Y-76278421D02*
X126989676Y-76352022D01*
X159013947Y-76702480D02*
X158922951Y-76743916D01*
X94022633Y-104728835D02*
X94122263Y-104737269D01*
X95409453Y-105366438D02*
X95463368Y-105450636D01*
X125664962Y-102002789D02*
X125718985Y-102086924D01*
X93540556Y-104602717D02*
X93633770Y-104638889D01*
X159986988Y-75282117D02*
X159975523Y-75381444D01*
X95120639Y-100927609D02*
X95040051Y-100986783D01*
X125240699Y-76548018D02*
X125158106Y-76604371D01*
X124894989Y-73519342D02*
X124985933Y-73560893D01*
X129220479Y-73004237D02*
X129144146Y-73068808D01*
X92470746Y-103041099D02*
X92476519Y-103140918D01*
D11*
X125563507Y-75131199D02*
G75*
G03*
X125563507Y-75131199I-1350000J0D01*
G01*
D10*
X125969254Y-103041099D02*
X125963481Y-103140918D01*
X129526481Y-72611923D02*
X129476377Y-72698443D01*
X127564063Y-76743916D02*
X127657277Y-76780088D01*
X95060809Y-105011502D02*
X95140012Y-105072517D01*
X127750282Y-73452143D02*
X127655193Y-73483052D01*
X129063558Y-73127982D02*
X128979095Y-73181480D01*
X128731381Y-76967162D02*
X128824208Y-77004297D01*
X158243507Y-73381199D02*
X158343453Y-73384055D01*
X123455918Y-77097288D02*
X123372698Y-77152701D01*
X94676528Y-73305532D02*
X94580711Y-73334083D01*
X95452870Y-100557244D02*
X95396941Y-100640117D01*
X122886490Y-72522166D02*
X122930533Y-72611923D01*
X95553179Y-105629159D02*
X95570000Y-112940000D01*
X157285228Y-100872038D02*
X157361561Y-100936609D01*
X129432960Y-77507637D02*
X129486875Y-77591835D01*
X159936249Y-74687211D02*
X159958843Y-74784612D01*
X158065021Y-104763017D02*
X157966544Y-104780292D01*
X129310888Y-100802376D02*
X129239172Y-100872038D01*
X124215677Y-76881198D02*
X124115761Y-76884769D01*
X158943682Y-101387143D02*
X159034626Y-101428694D01*
X124983947Y-76702480D02*
X124892951Y-76743916D01*
X94120054Y-101242856D02*
X94020435Y-101251416D01*
X156935183Y-100389967D02*
X156979226Y-100479724D01*
X125935336Y-102643413D02*
X125952331Y-102741944D01*
X129534860Y-77679547D02*
X129576686Y-77770358D01*
X92556061Y-103532042D02*
X92589734Y-103626188D01*
X128997788Y-101049281D02*
X128909849Y-101096851D01*
X129358957Y-72860150D02*
X129292195Y-72934575D01*
X158831821Y-73483052D02*
X158924989Y-73519342D01*
X125319940Y-76487041D02*
X125240699Y-76548018D01*
X157507919Y-73181480D02*
X157595858Y-73229050D01*
X124806230Y-104638889D02*
X124711102Y-104669678D01*
X127008369Y-104219823D02*
X127080139Y-104289439D01*
X124022821Y-104754017D02*
X123924344Y-104771292D01*
X125945838Y-74883143D02*
X125957177Y-74982484D01*
X92527258Y-102546012D02*
X92504664Y-102643413D01*
X128262200Y-101249000D02*
X128162254Y-101251856D01*
X127059816Y-73842255D02*
X126988134Y-73911962D01*
X159958404Y-75479954D02*
X159935687Y-75577326D01*
X128333393Y-101247256D02*
X128262200Y-101249000D01*
X129162839Y-100936609D02*
X129082251Y-100995783D01*
X124518533Y-101265651D02*
X124616526Y-101285515D01*
X125905687Y-75577326D02*
X125877446Y-75673241D01*
X125321653Y-73776756D02*
X125397198Y-73842255D01*
X160011454Y-103050099D02*
X160005681Y-103149918D01*
X129608296Y-72429595D02*
X129570524Y-72522166D01*
X122880328Y-77770358D02*
X122863507Y-85081199D01*
X125928404Y-75479954D02*
X125905687Y-75577326D01*
X157686857Y-73270465D02*
X157780486Y-73305532D01*
X93633770Y-104638889D02*
X93728898Y-104669678D01*
X158264370Y-104748999D02*
X158164454Y-104752570D01*
X129486875Y-77591835D02*
X129534860Y-77679547D01*
X159517573Y-101779763D02*
X159585157Y-101853449D01*
X125952331Y-102741944D02*
X125963670Y-102841285D01*
X92775038Y-102002789D02*
X92721015Y-102086924D01*
X92966169Y-104210823D02*
X93037939Y-104280439D01*
X93720282Y-73452143D02*
X93625193Y-73483052D01*
X125912742Y-102546012D02*
X125935336Y-102643413D01*
X159705913Y-103988037D02*
X159647071Y-104068876D01*
X157973855Y-73355984D02*
X158072681Y-73371132D01*
X124901482Y-101378143D02*
X124992426Y-101419694D01*
X128629404Y-101201884D02*
X128531852Y-101223785D01*
X127965847Y-104723725D02*
X128064833Y-104737835D01*
X123024054Y-77507637D02*
X122970139Y-77591835D01*
X125811271Y-103718256D02*
X125767082Y-103807948D01*
X123565858Y-73229050D02*
X123656857Y-73270465D01*
X123155116Y-105210172D02*
X123090137Y-105286157D01*
X92582438Y-74497072D02*
X92548885Y-74591261D01*
X95584789Y-100288396D02*
X95570000Y-93040000D01*
X92721015Y-102086924D02*
X92671886Y-102174008D01*
X94587204Y-101192884D02*
X94489652Y-101214785D01*
X125969317Y-102941112D02*
X125969254Y-103041099D01*
X123299988Y-105072517D02*
X123225178Y-105138846D01*
X125328146Y-101635557D02*
X125403691Y-101701056D01*
X93268908Y-76604371D02*
X93354585Y-76655914D01*
X124509860Y-76855924D02*
X124410874Y-76870034D01*
X94977589Y-104956089D02*
X95060809Y-105011502D01*
X124706732Y-73452143D02*
X124801821Y-73483052D01*
X95511353Y-105538348D02*
X95553179Y-105629159D01*
X158542040Y-73406850D02*
X158640033Y-73426714D01*
X127080139Y-104289439D02*
X127155767Y-104354842D01*
X95570000Y-93040000D02*
X96320000Y-92290000D01*
X129163519Y-77213716D02*
X129238329Y-77280045D01*
X123924344Y-104771292D02*
X123827292Y-104795312D01*
X129612200Y-93049000D02*
X130362200Y-92299000D01*
X92671886Y-102174008D02*
X92627810Y-102263755D01*
X156912200Y-93049000D02*
X156162200Y-92299000D01*
X123462411Y-104956089D02*
X123379191Y-105011502D01*
X126745665Y-76036169D02*
X126799794Y-76120236D01*
X93361078Y-104514715D02*
X93449560Y-104561281D01*
X93726775Y-101310944D02*
X93631686Y-101341853D01*
X95196972Y-100863038D02*
X95120639Y-100927609D01*
X126818487Y-103988037D02*
X126877329Y-104068876D01*
X159427198Y-73842255D02*
X159498880Y-73911962D01*
X95040051Y-100986783D02*
X94955588Y-101040281D01*
X96313507Y-64431199D02*
X98213507Y-62531199D01*
X92776287Y-103979037D02*
X92835129Y-104059876D01*
X158656572Y-104703985D02*
X158558553Y-104723725D01*
X157876303Y-73334083D02*
X157973855Y-73355984D01*
X126612438Y-74497072D02*
X126578885Y-74591261D01*
X93441081Y-73560893D02*
X93352659Y-73607571D01*
X159790589Y-75949147D02*
X159741349Y-76036169D01*
X95343370Y-77427356D02*
X95402960Y-77507637D01*
X159810314Y-102183008D02*
X159854390Y-102272755D01*
X93923647Y-104714725D02*
X94022633Y-104728835D01*
X127214525Y-73715679D02*
X127135361Y-73776756D01*
X126763215Y-102095924D02*
X126714086Y-102183008D01*
X126798545Y-74143988D02*
X126744522Y-74228123D01*
X94489652Y-101214785D02*
X94390826Y-101229933D01*
X157614551Y-101096851D02*
X157705550Y-101138266D01*
X95268688Y-100793376D02*
X95196972Y-100863038D01*
X126579568Y-75673241D02*
X126613241Y-75767387D01*
X128706528Y-73305532D02*
X128610711Y-73334083D01*
X96320000Y-113690000D02*
X98220000Y-115590000D01*
X124892951Y-76743916D02*
X124799737Y-76780088D01*
X127768975Y-101319944D02*
X127673886Y-101350853D01*
X92715665Y-76036169D02*
X92769794Y-76120236D01*
X157000139Y-77591835D02*
X156952154Y-77679547D01*
X95278391Y-77351371D02*
X95343370Y-77427356D01*
X157066566Y-72781316D02*
X157128057Y-72860150D01*
X93029816Y-73842255D02*
X92958134Y-73911962D01*
X130343507Y-64431199D02*
X132243507Y-62531199D01*
X129001096Y-77097288D02*
X129084316Y-77152701D01*
X159628378Y-76201075D02*
X159565015Y-76278421D01*
X126578885Y-74591261D02*
X126550765Y-74687211D01*
X132243507Y-62531199D02*
X152443507Y-62531199D01*
X159565015Y-76278421D02*
X159497338Y-76352022D01*
X123639299Y-104863098D02*
X123549251Y-104906543D01*
X93823474Y-101285515D02*
X93726775Y-101310944D01*
X94417179Y-104754017D02*
X94515656Y-104771292D01*
X95502974Y-100470724D02*
X95452870Y-100557244D01*
X126875978Y-101930876D02*
X126817238Y-102011789D01*
X126528610Y-75479954D02*
X126551327Y-75577326D01*
X159566464Y-73985648D02*
X159629729Y-74063075D01*
X127562025Y-73519342D02*
X127471081Y-73560893D01*
X157591451Y-104915543D02*
X157504611Y-104965089D01*
X94115770Y-76878468D02*
X94211337Y-76881198D01*
X92622236Y-75859455D02*
X92666425Y-75949147D01*
X124016328Y-76895216D02*
X123917851Y-76912491D01*
X96313507Y-85831199D02*
X98213507Y-87731199D01*
X127582756Y-104611717D02*
X127675970Y-104647889D01*
X157342868Y-73068808D02*
X157423456Y-73127982D01*
X124614372Y-104694985D02*
X124516353Y-104714725D01*
X125962761Y-75182298D02*
X125956988Y-75282117D01*
X126631131Y-102364873D02*
X126597578Y-102459062D01*
X125711349Y-76036169D02*
X125657220Y-76120236D01*
X124990440Y-104561281D02*
X124899444Y-104602717D01*
X124311244Y-76878468D02*
X124215677Y-76881198D01*
X124410874Y-76870034D02*
X124311244Y-76878468D01*
X159994216Y-103249245D02*
X159977097Y-103347755D01*
X158072681Y-73371132D02*
X158172314Y-73379455D01*
X159208660Y-101527023D02*
X159291182Y-101583480D01*
X128359946Y-104752570D02*
X128459379Y-104763017D01*
X92959676Y-76352022D02*
X93031446Y-76421638D01*
X127135361Y-73776756D02*
X127059816Y-73842255D01*
X126714086Y-102183008D02*
X126670010Y-102272755D01*
X125663713Y-103979037D02*
X125604871Y-104059876D01*
X126940692Y-104146222D02*
X127008369Y-104219823D01*
X126651317Y-74404954D02*
X126612438Y-74497072D01*
X93914974Y-73406850D02*
X93816981Y-73426714D01*
X127382659Y-73607571D02*
X127297047Y-73659222D01*
X159583708Y-104146222D02*
X159516031Y-104219823D01*
X159032640Y-104570281D02*
X158941644Y-104611717D01*
X159707162Y-102011789D02*
X159761185Y-102095924D01*
X126631934Y-103635188D02*
X126670929Y-103727256D01*
X93627277Y-76780088D02*
X93722405Y-76810877D01*
X128800157Y-73270465D02*
X128706528Y-73305532D01*
X125164599Y-104463172D02*
X125078922Y-104514715D01*
X123236535Y-73004237D02*
X123312868Y-73068808D01*
X156910328Y-77770358D02*
X156893507Y-85081199D01*
M02*
