%TF.GenerationSoftware,KiCad,Pcbnew,7.0.7*%
%TF.CreationDate,2023-10-06T19:00:49-06:00*%
%TF.ProjectId,Modular_Interfaces_No_GigE,4d6f6475-6c61-4725-9f49-6e7465726661,rev?*%
%TF.SameCoordinates,Original*%
%TF.FileFunction,Copper,L2,Bot*%
%TF.FilePolarity,Positive*%
%FSLAX46Y46*%
G04 Gerber Fmt 4.6, Leading zero omitted, Abs format (unit mm)*
G04 Created by KiCad (PCBNEW 7.0.7) date 2023-10-06 19:00:49*
%MOMM*%
%LPD*%
G01*
G04 APERTURE LIST*
G04 Aperture macros list*
%AMRoundRect*
0 Rectangle with rounded corners*
0 $1 Rounding radius*
0 $2 $3 $4 $5 $6 $7 $8 $9 X,Y pos of 4 corners*
0 Add a 4 corners polygon primitive as box body*
4,1,4,$2,$3,$4,$5,$6,$7,$8,$9,$2,$3,0*
0 Add four circle primitives for the rounded corners*
1,1,$1+$1,$2,$3*
1,1,$1+$1,$4,$5*
1,1,$1+$1,$6,$7*
1,1,$1+$1,$8,$9*
0 Add four rect primitives between the rounded corners*
20,1,$1+$1,$2,$3,$4,$5,0*
20,1,$1+$1,$4,$5,$6,$7,0*
20,1,$1+$1,$6,$7,$8,$9,0*
20,1,$1+$1,$8,$9,$2,$3,0*%
G04 Aperture macros list end*
%TA.AperFunction,ComponentPad*%
%ADD10RoundRect,0.250000X-0.600000X-0.725000X0.600000X-0.725000X0.600000X0.725000X-0.600000X0.725000X0*%
%TD*%
%TA.AperFunction,ComponentPad*%
%ADD11O,1.700000X1.950000*%
%TD*%
%TA.AperFunction,ComponentPad*%
%ADD12R,1.350000X1.350000*%
%TD*%
%TA.AperFunction,ComponentPad*%
%ADD13O,1.350000X1.350000*%
%TD*%
%TA.AperFunction,ComponentPad*%
%ADD14R,1.600000X1.600000*%
%TD*%
%TA.AperFunction,ComponentPad*%
%ADD15C,1.600000*%
%TD*%
%TA.AperFunction,ComponentPad*%
%ADD16C,3.000000*%
%TD*%
G04 APERTURE END LIST*
D10*
%TO.P,J11,1,Pin_1*%
%TO.N,Net-(J11-Pin_1)*%
X139523507Y-78091199D03*
D11*
%TO.P,J11,2,Pin_2*%
%TO.N,Net-(J11-Pin_2)*%
X142023507Y-78091199D03*
%TO.P,J11,3,Pin_3*%
%TO.N,Net-(J11-Pin_3)*%
X144523507Y-78091199D03*
%TO.P,J11,4,Pin_4*%
%TO.N,Net-(J11-Pin_4)*%
X147023507Y-78091199D03*
%TD*%
D12*
%TO.P,J13,1,Pin_1*%
%TO.N,Net-(J11-Pin_3)*%
X154220000Y-66120000D03*
D13*
%TO.P,J13,2,Pin_2*%
%TO.N,Net-(J11-Pin_4)*%
X154220000Y-68120000D03*
%TO.P,J13,3,Pin_3*%
%TO.N,unconnected-(J13-Pin_3-Pad3)*%
X154220000Y-70120000D03*
%TO.P,J13,4,Pin_4*%
%TO.N,unconnected-(J13-Pin_4-Pad4)*%
X154220000Y-72120000D03*
%TO.P,J13,5,Pin_5*%
%TO.N,unconnected-(J13-Pin_5-Pad5)*%
X154220000Y-74120000D03*
%TO.P,J13,6,Pin_6*%
%TO.N,unconnected-(J13-Pin_6-Pad6)*%
X154220000Y-76120000D03*
%TO.P,J13,7,Pin_7*%
%TO.N,unconnected-(J13-Pin_7-Pad7)*%
X154220000Y-78120000D03*
%TO.P,J13,8,Pin_8*%
%TO.N,unconnected-(J13-Pin_8-Pad8)*%
X154220000Y-80120000D03*
%TO.P,J13,9,Pin_9*%
%TO.N,unconnected-(J13-Pin_9-Pad9)*%
X154220000Y-82120000D03*
%TO.P,J13,10,Pin_10*%
%TO.N,unconnected-(J13-Pin_10-Pad10)*%
X154220000Y-84120000D03*
%TD*%
%TO.P,J12,10,Pin_10*%
%TO.N,Net-(J11-Pin_2)*%
X132250000Y-84130000D03*
%TO.P,J12,9,Pin_9*%
%TO.N,unconnected-(J12-Pin_9-Pad9)*%
X132250000Y-82130000D03*
%TO.P,J12,8,Pin_8*%
%TO.N,unconnected-(J12-Pin_8-Pad8)*%
X132250000Y-80130000D03*
%TO.P,J12,7,Pin_7*%
%TO.N,unconnected-(J12-Pin_7-Pad7)*%
X132250000Y-78130000D03*
%TO.P,J12,6,Pin_6*%
%TO.N,unconnected-(J12-Pin_6-Pad6)*%
X132250000Y-76130000D03*
%TO.P,J12,5,Pin_5*%
%TO.N,unconnected-(J12-Pin_5-Pad5)*%
X132250000Y-74130000D03*
%TO.P,J12,4,Pin_4*%
%TO.N,unconnected-(J12-Pin_4-Pad4)*%
X132250000Y-72130000D03*
%TO.P,J12,3,Pin_3*%
%TO.N,unconnected-(J12-Pin_3-Pad3)*%
X132250000Y-70130000D03*
%TO.P,J12,2,Pin_2*%
%TO.N,unconnected-(J12-Pin_2-Pad2)*%
X132250000Y-68130000D03*
D12*
%TO.P,J12,1,Pin_1*%
%TO.N,Net-(J11-Pin_1)*%
X132250000Y-66130000D03*
%TD*%
%TO.P,J10,1,Pin_1*%
%TO.N,Net-(J10-Pin_1)*%
X120200000Y-66130000D03*
D13*
%TO.P,J10,2,Pin_2*%
%TO.N,unconnected-(J10-Pin_2-Pad2)*%
X120200000Y-68130000D03*
%TO.P,J10,3,Pin_3*%
%TO.N,unconnected-(J10-Pin_3-Pad3)*%
X120200000Y-70130000D03*
%TO.P,J10,4,Pin_4*%
%TO.N,unconnected-(J10-Pin_4-Pad4)*%
X120200000Y-72130000D03*
%TO.P,J10,5,Pin_5*%
%TO.N,unconnected-(J10-Pin_5-Pad5)*%
X120200000Y-74130000D03*
%TO.P,J10,6,Pin_6*%
%TO.N,unconnected-(J10-Pin_6-Pad6)*%
X120200000Y-76130000D03*
%TO.P,J10,7,Pin_7*%
%TO.N,unconnected-(J10-Pin_7-Pad7)*%
X120200000Y-78130000D03*
%TO.P,J10,8,Pin_8*%
%TO.N,unconnected-(J10-Pin_8-Pad8)*%
X120200000Y-80130000D03*
%TO.P,J10,9,Pin_9*%
%TO.N,unconnected-(J10-Pin_9-Pad9)*%
X120200000Y-82130000D03*
%TO.P,J10,10,Pin_10*%
%TO.N,unconnected-(J10-Pin_10-Pad10)*%
X120200000Y-84130000D03*
%TD*%
D12*
%TO.P,J9,1,Pin_1*%
%TO.N,Net-(J8-Pin_1)*%
X98210000Y-66130000D03*
D13*
%TO.P,J9,2,Pin_2*%
%TO.N,unconnected-(J9-Pin_2-Pad2)*%
X98210000Y-68130000D03*
%TO.P,J9,3,Pin_3*%
%TO.N,unconnected-(J9-Pin_3-Pad3)*%
X98210000Y-70130000D03*
%TO.P,J9,4,Pin_4*%
%TO.N,unconnected-(J9-Pin_4-Pad4)*%
X98210000Y-72130000D03*
%TO.P,J9,5,Pin_5*%
%TO.N,unconnected-(J9-Pin_5-Pad5)*%
X98210000Y-74130000D03*
%TO.P,J9,6,Pin_6*%
%TO.N,unconnected-(J9-Pin_6-Pad6)*%
X98210000Y-76130000D03*
%TO.P,J9,7,Pin_7*%
%TO.N,unconnected-(J9-Pin_7-Pad7)*%
X98210000Y-78130000D03*
%TO.P,J9,8,Pin_8*%
%TO.N,unconnected-(J9-Pin_8-Pad8)*%
X98210000Y-80130000D03*
%TO.P,J9,9,Pin_9*%
%TO.N,unconnected-(J9-Pin_9-Pad9)*%
X98210000Y-82130000D03*
%TO.P,J9,10,Pin_10*%
%TO.N,Net-(J8-Pin_2)*%
X98210000Y-84130000D03*
%TD*%
D10*
%TO.P,J8,1,Pin_1*%
%TO.N,Net-(J8-Pin_1)*%
X106693507Y-78171199D03*
D11*
%TO.P,J8,2,Pin_2*%
%TO.N,Net-(J8-Pin_2)*%
X109193507Y-78171199D03*
%TO.P,J8,3,Pin_3*%
%TO.N,Net-(J10-Pin_1)*%
X111693507Y-78171199D03*
%TD*%
D13*
%TO.P,J7,10,Pin_10*%
%TO.N,unconnected-(J7-Pin_10-Pad10)*%
X154250000Y-112010000D03*
%TO.P,J7,9,Pin_9*%
%TO.N,unconnected-(J7-Pin_9-Pad9)*%
X154250000Y-110010000D03*
%TO.P,J7,8,Pin_8*%
%TO.N,unconnected-(J7-Pin_8-Pad8)*%
X154250000Y-108010000D03*
%TO.P,J7,7,Pin_7*%
%TO.N,unconnected-(J7-Pin_7-Pad7)*%
X154250000Y-106010000D03*
%TO.P,J7,6,Pin_6*%
%TO.N,unconnected-(J7-Pin_6-Pad6)*%
X154250000Y-104010000D03*
%TO.P,J7,5,Pin_5*%
%TO.N,unconnected-(J7-Pin_5-Pad5)*%
X154250000Y-102010000D03*
%TO.P,J7,4,Pin_4*%
%TO.N,unconnected-(J7-Pin_4-Pad4)*%
X154250000Y-100010000D03*
%TO.P,J7,3,Pin_3*%
%TO.N,unconnected-(J7-Pin_3-Pad3)*%
X154250000Y-98010000D03*
%TO.P,J7,2,Pin_2*%
%TO.N,Net-(J5-D+)*%
X154250000Y-96010000D03*
D12*
%TO.P,J7,1,Pin_1*%
%TO.N,Net-(J5-D-)*%
X154250000Y-94010000D03*
%TD*%
%TO.P,J6,1,Pin_1*%
%TO.N,Net-(J4-VBUS)*%
X132272200Y-93999000D03*
D13*
%TO.P,J6,2,Pin_2*%
%TO.N,Net-(J4-D+)*%
X132272200Y-95999000D03*
%TO.P,J6,3,Pin_3*%
%TO.N,Net-(J4-D-)*%
X132272200Y-97999000D03*
%TO.P,J6,4,Pin_4*%
%TO.N,unconnected-(J6-Pin_4-Pad4)*%
X132272200Y-99999000D03*
%TO.P,J6,5,Pin_5*%
%TO.N,unconnected-(J6-Pin_5-Pad5)*%
X132272200Y-101999000D03*
%TO.P,J6,6,Pin_6*%
%TO.N,unconnected-(J6-Pin_6-Pad6)*%
X132272200Y-103999000D03*
%TO.P,J6,7,Pin_7*%
%TO.N,unconnected-(J6-Pin_7-Pad7)*%
X132272200Y-105999000D03*
%TO.P,J6,8,Pin_8*%
%TO.N,unconnected-(J6-Pin_8-Pad8)*%
X132272200Y-107999000D03*
%TO.P,J6,9,Pin_9*%
%TO.N,unconnected-(J6-Pin_9-Pad9)*%
X132272200Y-109999000D03*
%TO.P,J6,10,Pin_10*%
%TO.N,Net-(J4-GND)*%
X132272200Y-111999000D03*
%TD*%
D14*
%TO.P,J5,1,VBUS*%
%TO.N,Net-(J4-VBUS)*%
X146830000Y-101300000D03*
D15*
%TO.P,J5,2,D-*%
%TO.N,Net-(J5-D-)*%
X144330000Y-101300000D03*
%TO.P,J5,3,D+*%
%TO.N,Net-(J5-D+)*%
X142330000Y-101300000D03*
%TO.P,J5,4,GND*%
%TO.N,Net-(J4-GND)*%
X139830000Y-101300000D03*
D16*
%TO.P,J5,5,Shield*%
X149900000Y-98590000D03*
X136760000Y-98590000D03*
%TD*%
D14*
%TO.P,J4,1,VBUS*%
%TO.N,Net-(J4-VBUS)*%
X139832200Y-104679000D03*
D15*
%TO.P,J4,2,D-*%
%TO.N,Net-(J4-D-)*%
X142332200Y-104679000D03*
%TO.P,J4,3,D+*%
%TO.N,Net-(J4-D+)*%
X144332200Y-104679000D03*
%TO.P,J4,4,GND*%
%TO.N,Net-(J4-GND)*%
X146832200Y-104679000D03*
D16*
%TO.P,J4,5,Shield*%
X136762200Y-107389000D03*
X149902200Y-107389000D03*
%TD*%
D12*
%TO.P,J3,1,Pin_1*%
%TO.N,Net-(J1-D-)*%
X120210000Y-94000000D03*
D13*
%TO.P,J3,2,Pin_2*%
%TO.N,Net-(J1-D+)*%
X120210000Y-96000000D03*
%TO.P,J3,3,Pin_3*%
%TO.N,unconnected-(J3-Pin_3-Pad3)*%
X120210000Y-98000000D03*
%TO.P,J3,4,Pin_4*%
%TO.N,unconnected-(J3-Pin_4-Pad4)*%
X120210000Y-100000000D03*
%TO.P,J3,5,Pin_5*%
%TO.N,unconnected-(J3-Pin_5-Pad5)*%
X120210000Y-102000000D03*
%TO.P,J3,6,Pin_6*%
%TO.N,unconnected-(J3-Pin_6-Pad6)*%
X120210000Y-104000000D03*
%TO.P,J3,7,Pin_7*%
%TO.N,unconnected-(J3-Pin_7-Pad7)*%
X120210000Y-106000000D03*
%TO.P,J3,8,Pin_8*%
%TO.N,unconnected-(J3-Pin_8-Pad8)*%
X120210000Y-108000000D03*
%TO.P,J3,9,Pin_9*%
%TO.N,unconnected-(J3-Pin_9-Pad9)*%
X120210000Y-110000000D03*
%TO.P,J3,10,Pin_10*%
%TO.N,unconnected-(J3-Pin_10-Pad10)*%
X120210000Y-112000000D03*
%TD*%
D12*
%TO.P,J2,1,Pin_1*%
%TO.N,Net-(J1-VBUS)*%
X98230000Y-93990000D03*
D13*
%TO.P,J2,2,Pin_2*%
%TO.N,unconnected-(J2-Pin_2-Pad2)*%
X98230000Y-95990000D03*
%TO.P,J2,3,Pin_3*%
%TO.N,unconnected-(J2-Pin_3-Pad3)*%
X98230000Y-97990000D03*
%TO.P,J2,4,Pin_4*%
%TO.N,unconnected-(J2-Pin_4-Pad4)*%
X98230000Y-99990000D03*
%TO.P,J2,5,Pin_5*%
%TO.N,unconnected-(J2-Pin_5-Pad5)*%
X98230000Y-101990000D03*
%TO.P,J2,6,Pin_6*%
%TO.N,unconnected-(J2-Pin_6-Pad6)*%
X98230000Y-103990000D03*
%TO.P,J2,7,Pin_7*%
%TO.N,unconnected-(J2-Pin_7-Pad7)*%
X98230000Y-105990000D03*
%TO.P,J2,8,Pin_8*%
%TO.N,unconnected-(J2-Pin_8-Pad8)*%
X98230000Y-107990000D03*
%TO.P,J2,9,Pin_9*%
%TO.N,unconnected-(J2-Pin_9-Pad9)*%
X98230000Y-109990000D03*
%TO.P,J2,10,Pin_10*%
%TO.N,Net-(J1-GND)*%
X98230000Y-111990000D03*
%TD*%
D14*
%TO.P,J1,1,VBUS*%
%TO.N,Net-(J1-VBUS)*%
X105760200Y-103410800D03*
D15*
%TO.P,J1,2,D-*%
%TO.N,Net-(J1-D-)*%
X108260200Y-103410800D03*
%TO.P,J1,3,D+*%
%TO.N,Net-(J1-D+)*%
X110260200Y-103410800D03*
%TO.P,J1,4,GND*%
%TO.N,Net-(J1-GND)*%
X112760200Y-103410800D03*
D16*
%TO.P,J1,5,Shield*%
X102690200Y-106120800D03*
X115830200Y-106120800D03*
%TD*%
M02*
