%TF.GenerationSoftware,KiCad,Pcbnew,7.0.7*%
%TF.CreationDate,2023-10-06T19:00:49-06:00*%
%TF.ProjectId,Modular_Interfaces_No_GigE,4d6f6475-6c61-4725-9f49-6e7465726661,rev?*%
%TF.SameCoordinates,Original*%
%TF.FileFunction,Soldermask,Bot*%
%TF.FilePolarity,Negative*%
%FSLAX46Y46*%
G04 Gerber Fmt 4.6, Leading zero omitted, Abs format (unit mm)*
G04 Created by KiCad (PCBNEW 7.0.7) date 2023-10-06 19:00:49*
%MOMM*%
%LPD*%
G01*
G04 APERTURE LIST*
G04 Aperture macros list*
%AMRoundRect*
0 Rectangle with rounded corners*
0 $1 Rounding radius*
0 $2 $3 $4 $5 $6 $7 $8 $9 X,Y pos of 4 corners*
0 Add a 4 corners polygon primitive as box body*
4,1,4,$2,$3,$4,$5,$6,$7,$8,$9,$2,$3,0*
0 Add four circle primitives for the rounded corners*
1,1,$1+$1,$2,$3*
1,1,$1+$1,$4,$5*
1,1,$1+$1,$6,$7*
1,1,$1+$1,$8,$9*
0 Add four rect primitives between the rounded corners*
20,1,$1+$1,$2,$3,$4,$5,0*
20,1,$1+$1,$4,$5,$6,$7,0*
20,1,$1+$1,$6,$7,$8,$9,0*
20,1,$1+$1,$8,$9,$2,$3,0*%
G04 Aperture macros list end*
%ADD10RoundRect,0.250000X-0.600000X-0.725000X0.600000X-0.725000X0.600000X0.725000X-0.600000X0.725000X0*%
%ADD11O,1.700000X1.950000*%
%ADD12R,1.350000X1.350000*%
%ADD13O,1.350000X1.350000*%
%ADD14R,1.600000X1.600000*%
%ADD15C,1.600000*%
%ADD16C,3.000000*%
G04 APERTURE END LIST*
D10*
%TO.C,J11*%
X139523507Y-78091199D03*
D11*
X142023507Y-78091199D03*
X144523507Y-78091199D03*
X147023507Y-78091199D03*
%TD*%
D12*
%TO.C,J13*%
X154220000Y-66120000D03*
D13*
X154220000Y-68120000D03*
X154220000Y-70120000D03*
X154220000Y-72120000D03*
X154220000Y-74120000D03*
X154220000Y-76120000D03*
X154220000Y-78120000D03*
X154220000Y-80120000D03*
X154220000Y-82120000D03*
X154220000Y-84120000D03*
%TD*%
%TO.C,J12*%
X132250000Y-84130000D03*
X132250000Y-82130000D03*
X132250000Y-80130000D03*
X132250000Y-78130000D03*
X132250000Y-76130000D03*
X132250000Y-74130000D03*
X132250000Y-72130000D03*
X132250000Y-70130000D03*
X132250000Y-68130000D03*
D12*
X132250000Y-66130000D03*
%TD*%
%TO.C,J10*%
X120200000Y-66130000D03*
D13*
X120200000Y-68130000D03*
X120200000Y-70130000D03*
X120200000Y-72130000D03*
X120200000Y-74130000D03*
X120200000Y-76130000D03*
X120200000Y-78130000D03*
X120200000Y-80130000D03*
X120200000Y-82130000D03*
X120200000Y-84130000D03*
%TD*%
D12*
%TO.C,J9*%
X98210000Y-66130000D03*
D13*
X98210000Y-68130000D03*
X98210000Y-70130000D03*
X98210000Y-72130000D03*
X98210000Y-74130000D03*
X98210000Y-76130000D03*
X98210000Y-78130000D03*
X98210000Y-80130000D03*
X98210000Y-82130000D03*
X98210000Y-84130000D03*
%TD*%
D10*
%TO.C,J8*%
X106693507Y-78171199D03*
D11*
X109193507Y-78171199D03*
X111693507Y-78171199D03*
%TD*%
D13*
%TO.C,J7*%
X154250000Y-112010000D03*
X154250000Y-110010000D03*
X154250000Y-108010000D03*
X154250000Y-106010000D03*
X154250000Y-104010000D03*
X154250000Y-102010000D03*
X154250000Y-100010000D03*
X154250000Y-98010000D03*
X154250000Y-96010000D03*
D12*
X154250000Y-94010000D03*
%TD*%
%TO.C,J6*%
X132272200Y-93999000D03*
D13*
X132272200Y-95999000D03*
X132272200Y-97999000D03*
X132272200Y-99999000D03*
X132272200Y-101999000D03*
X132272200Y-103999000D03*
X132272200Y-105999000D03*
X132272200Y-107999000D03*
X132272200Y-109999000D03*
X132272200Y-111999000D03*
%TD*%
D14*
%TO.C,J5*%
X146830000Y-101300000D03*
D15*
X144330000Y-101300000D03*
X142330000Y-101300000D03*
X139830000Y-101300000D03*
D16*
X149900000Y-98590000D03*
X136760000Y-98590000D03*
%TD*%
D14*
%TO.C,J4*%
X139832200Y-104679000D03*
D15*
X142332200Y-104679000D03*
X144332200Y-104679000D03*
X146832200Y-104679000D03*
D16*
X136762200Y-107389000D03*
X149902200Y-107389000D03*
%TD*%
D12*
%TO.C,J3*%
X120210000Y-94000000D03*
D13*
X120210000Y-96000000D03*
X120210000Y-98000000D03*
X120210000Y-100000000D03*
X120210000Y-102000000D03*
X120210000Y-104000000D03*
X120210000Y-106000000D03*
X120210000Y-108000000D03*
X120210000Y-110000000D03*
X120210000Y-112000000D03*
%TD*%
D12*
%TO.C,J2*%
X98230000Y-93990000D03*
D13*
X98230000Y-95990000D03*
X98230000Y-97990000D03*
X98230000Y-99990000D03*
X98230000Y-101990000D03*
X98230000Y-103990000D03*
X98230000Y-105990000D03*
X98230000Y-107990000D03*
X98230000Y-109990000D03*
X98230000Y-111990000D03*
%TD*%
D14*
%TO.C,J1*%
X105760200Y-103410800D03*
D15*
X108260200Y-103410800D03*
X110260200Y-103410800D03*
X112760200Y-103410800D03*
D16*
X102690200Y-106120800D03*
X115830200Y-106120800D03*
%TD*%
M02*
