%TF.GenerationSoftware,KiCad,Pcbnew,7.0.7*%
%TF.CreationDate,2023-10-05T19:12:10-06:00*%
%TF.ProjectId,GigE_Module,47696745-5f4d-46f6-9475-6c652e6b6963,rev?*%
%TF.SameCoordinates,Original*%
%TF.FileFunction,Legend,Bot*%
%TF.FilePolarity,Positive*%
%FSLAX46Y46*%
G04 Gerber Fmt 4.6, Leading zero omitted, Abs format (unit mm)*
G04 Created by KiCad (PCBNEW 7.0.7) date 2023-10-05 19:12:10*
%MOMM*%
%LPD*%
G01*
G04 APERTURE LIST*
G04 Aperture macros list*
%AMRoundRect*
0 Rectangle with rounded corners*
0 $1 Rounding radius*
0 $2 $3 $4 $5 $6 $7 $8 $9 X,Y pos of 4 corners*
0 Add a 4 corners polygon primitive as box body*
4,1,4,$2,$3,$4,$5,$6,$7,$8,$9,$2,$3,0*
0 Add four circle primitives for the rounded corners*
1,1,$1+$1,$2,$3*
1,1,$1+$1,$4,$5*
1,1,$1+$1,$6,$7*
1,1,$1+$1,$8,$9*
0 Add four rect primitives between the rounded corners*
20,1,$1+$1,$2,$3,$4,$5,0*
20,1,$1+$1,$4,$5,$6,$7,0*
20,1,$1+$1,$6,$7,$8,$9,0*
20,1,$1+$1,$8,$9,$2,$3,0*%
G04 Aperture macros list end*
%ADD10C,0.150000*%
%ADD11C,0.120000*%
%ADD12C,3.250000*%
%ADD13R,1.500000X1.500000*%
%ADD14C,1.500000*%
%ADD15C,2.300000*%
%ADD16R,1.350000X1.350000*%
%ADD17O,1.350000X1.350000*%
%ADD18RoundRect,0.200000X0.200000X0.275000X-0.200000X0.275000X-0.200000X-0.275000X0.200000X-0.275000X0*%
%ADD19R,1.750000X0.450000*%
%ADD20RoundRect,0.225000X-0.250000X0.225000X-0.250000X-0.225000X0.250000X-0.225000X0.250000X0.225000X0*%
%ADD21RoundRect,0.225000X0.250000X-0.225000X0.250000X0.225000X-0.250000X0.225000X-0.250000X-0.225000X0*%
%ADD22RoundRect,0.100000X0.217500X0.100000X-0.217500X0.100000X-0.217500X-0.100000X0.217500X-0.100000X0*%
%ADD23RoundRect,0.200000X-0.200000X-0.275000X0.200000X-0.275000X0.200000X0.275000X-0.200000X0.275000X0*%
%ADD24R,1.500000X0.800000*%
%ADD25RoundRect,0.225000X-0.225000X-0.250000X0.225000X-0.250000X0.225000X0.250000X-0.225000X0.250000X0*%
%ADD26RoundRect,0.225000X0.225000X0.250000X-0.225000X0.250000X-0.225000X-0.250000X0.225000X-0.250000X0*%
G04 APERTURE END LIST*
D10*
X153913666Y-91779819D02*
X154246999Y-91303628D01*
X154485094Y-91779819D02*
X154485094Y-90779819D01*
X154485094Y-90779819D02*
X154104142Y-90779819D01*
X154104142Y-90779819D02*
X154008904Y-90827438D01*
X154008904Y-90827438D02*
X153961285Y-90875057D01*
X153961285Y-90875057D02*
X153913666Y-90970295D01*
X153913666Y-90970295D02*
X153913666Y-91113152D01*
X153913666Y-91113152D02*
X153961285Y-91208390D01*
X153961285Y-91208390D02*
X154008904Y-91256009D01*
X154008904Y-91256009D02*
X154104142Y-91303628D01*
X154104142Y-91303628D02*
X154485094Y-91303628D01*
X153532713Y-90875057D02*
X153485094Y-90827438D01*
X153485094Y-90827438D02*
X153389856Y-90779819D01*
X153389856Y-90779819D02*
X153151761Y-90779819D01*
X153151761Y-90779819D02*
X153056523Y-90827438D01*
X153056523Y-90827438D02*
X153008904Y-90875057D01*
X153008904Y-90875057D02*
X152961285Y-90970295D01*
X152961285Y-90970295D02*
X152961285Y-91065533D01*
X152961285Y-91065533D02*
X153008904Y-91208390D01*
X153008904Y-91208390D02*
X153580332Y-91779819D01*
X153580332Y-91779819D02*
X152961285Y-91779819D01*
X145531904Y-94854819D02*
X145531904Y-95664342D01*
X145531904Y-95664342D02*
X145484285Y-95759580D01*
X145484285Y-95759580D02*
X145436666Y-95807200D01*
X145436666Y-95807200D02*
X145341428Y-95854819D01*
X145341428Y-95854819D02*
X145150952Y-95854819D01*
X145150952Y-95854819D02*
X145055714Y-95807200D01*
X145055714Y-95807200D02*
X145008095Y-95759580D01*
X145008095Y-95759580D02*
X144960476Y-95664342D01*
X144960476Y-95664342D02*
X144960476Y-94854819D01*
X143960476Y-95854819D02*
X144531904Y-95854819D01*
X144246190Y-95854819D02*
X144246190Y-94854819D01*
X144246190Y-94854819D02*
X144341428Y-94997676D01*
X144341428Y-94997676D02*
X144436666Y-95092914D01*
X144436666Y-95092914D02*
X144531904Y-95140533D01*
X145886666Y-107179580D02*
X145934285Y-107227200D01*
X145934285Y-107227200D02*
X146077142Y-107274819D01*
X146077142Y-107274819D02*
X146172380Y-107274819D01*
X146172380Y-107274819D02*
X146315237Y-107227200D01*
X146315237Y-107227200D02*
X146410475Y-107131961D01*
X146410475Y-107131961D02*
X146458094Y-107036723D01*
X146458094Y-107036723D02*
X146505713Y-106846247D01*
X146505713Y-106846247D02*
X146505713Y-106703390D01*
X146505713Y-106703390D02*
X146458094Y-106512914D01*
X146458094Y-106512914D02*
X146410475Y-106417676D01*
X146410475Y-106417676D02*
X146315237Y-106322438D01*
X146315237Y-106322438D02*
X146172380Y-106274819D01*
X146172380Y-106274819D02*
X146077142Y-106274819D01*
X146077142Y-106274819D02*
X145934285Y-106322438D01*
X145934285Y-106322438D02*
X145886666Y-106370057D01*
X145553332Y-106274819D02*
X144886666Y-106274819D01*
X144886666Y-106274819D02*
X145315237Y-107274819D01*
X143986666Y-107179580D02*
X144034285Y-107227200D01*
X144034285Y-107227200D02*
X144177142Y-107274819D01*
X144177142Y-107274819D02*
X144272380Y-107274819D01*
X144272380Y-107274819D02*
X144415237Y-107227200D01*
X144415237Y-107227200D02*
X144510475Y-107131961D01*
X144510475Y-107131961D02*
X144558094Y-107036723D01*
X144558094Y-107036723D02*
X144605713Y-106846247D01*
X144605713Y-106846247D02*
X144605713Y-106703390D01*
X144605713Y-106703390D02*
X144558094Y-106512914D01*
X144558094Y-106512914D02*
X144510475Y-106417676D01*
X144510475Y-106417676D02*
X144415237Y-106322438D01*
X144415237Y-106322438D02*
X144272380Y-106274819D01*
X144272380Y-106274819D02*
X144177142Y-106274819D01*
X144177142Y-106274819D02*
X144034285Y-106322438D01*
X144034285Y-106322438D02*
X143986666Y-106370057D01*
X143129523Y-106274819D02*
X143319999Y-106274819D01*
X143319999Y-106274819D02*
X143415237Y-106322438D01*
X143415237Y-106322438D02*
X143462856Y-106370057D01*
X143462856Y-106370057D02*
X143558094Y-106512914D01*
X143558094Y-106512914D02*
X143605713Y-106703390D01*
X143605713Y-106703390D02*
X143605713Y-107084342D01*
X143605713Y-107084342D02*
X143558094Y-107179580D01*
X143558094Y-107179580D02*
X143510475Y-107227200D01*
X143510475Y-107227200D02*
X143415237Y-107274819D01*
X143415237Y-107274819D02*
X143224761Y-107274819D01*
X143224761Y-107274819D02*
X143129523Y-107227200D01*
X143129523Y-107227200D02*
X143081904Y-107179580D01*
X143081904Y-107179580D02*
X143034285Y-107084342D01*
X143034285Y-107084342D02*
X143034285Y-106846247D01*
X143034285Y-106846247D02*
X143081904Y-106751009D01*
X143081904Y-106751009D02*
X143129523Y-106703390D01*
X143129523Y-106703390D02*
X143224761Y-106655771D01*
X143224761Y-106655771D02*
X143415237Y-106655771D01*
X143415237Y-106655771D02*
X143510475Y-106703390D01*
X143510475Y-106703390D02*
X143558094Y-106751009D01*
X143558094Y-106751009D02*
X143605713Y-106846247D01*
X153936666Y-99134819D02*
X154269999Y-98658628D01*
X154508094Y-99134819D02*
X154508094Y-98134819D01*
X154508094Y-98134819D02*
X154127142Y-98134819D01*
X154127142Y-98134819D02*
X154031904Y-98182438D01*
X154031904Y-98182438D02*
X153984285Y-98230057D01*
X153984285Y-98230057D02*
X153936666Y-98325295D01*
X153936666Y-98325295D02*
X153936666Y-98468152D01*
X153936666Y-98468152D02*
X153984285Y-98563390D01*
X153984285Y-98563390D02*
X154031904Y-98611009D01*
X154031904Y-98611009D02*
X154127142Y-98658628D01*
X154127142Y-98658628D02*
X154508094Y-98658628D01*
X153031904Y-98134819D02*
X153508094Y-98134819D01*
X153508094Y-98134819D02*
X153555713Y-98611009D01*
X153555713Y-98611009D02*
X153508094Y-98563390D01*
X153508094Y-98563390D02*
X153412856Y-98515771D01*
X153412856Y-98515771D02*
X153174761Y-98515771D01*
X153174761Y-98515771D02*
X153079523Y-98563390D01*
X153079523Y-98563390D02*
X153031904Y-98611009D01*
X153031904Y-98611009D02*
X152984285Y-98706247D01*
X152984285Y-98706247D02*
X152984285Y-98944342D01*
X152984285Y-98944342D02*
X153031904Y-99039580D01*
X153031904Y-99039580D02*
X153079523Y-99087200D01*
X153079523Y-99087200D02*
X153174761Y-99134819D01*
X153174761Y-99134819D02*
X153412856Y-99134819D01*
X153412856Y-99134819D02*
X153508094Y-99087200D01*
X153508094Y-99087200D02*
X153555713Y-99039580D01*
X136246666Y-84159580D02*
X136294285Y-84207200D01*
X136294285Y-84207200D02*
X136437142Y-84254819D01*
X136437142Y-84254819D02*
X136532380Y-84254819D01*
X136532380Y-84254819D02*
X136675237Y-84207200D01*
X136675237Y-84207200D02*
X136770475Y-84111961D01*
X136770475Y-84111961D02*
X136818094Y-84016723D01*
X136818094Y-84016723D02*
X136865713Y-83826247D01*
X136865713Y-83826247D02*
X136865713Y-83683390D01*
X136865713Y-83683390D02*
X136818094Y-83492914D01*
X136818094Y-83492914D02*
X136770475Y-83397676D01*
X136770475Y-83397676D02*
X136675237Y-83302438D01*
X136675237Y-83302438D02*
X136532380Y-83254819D01*
X136532380Y-83254819D02*
X136437142Y-83254819D01*
X136437142Y-83254819D02*
X136294285Y-83302438D01*
X136294285Y-83302438D02*
X136246666Y-83350057D01*
X135913332Y-83254819D02*
X135294285Y-83254819D01*
X135294285Y-83254819D02*
X135627618Y-83635771D01*
X135627618Y-83635771D02*
X135484761Y-83635771D01*
X135484761Y-83635771D02*
X135389523Y-83683390D01*
X135389523Y-83683390D02*
X135341904Y-83731009D01*
X135341904Y-83731009D02*
X135294285Y-83826247D01*
X135294285Y-83826247D02*
X135294285Y-84064342D01*
X135294285Y-84064342D02*
X135341904Y-84159580D01*
X135341904Y-84159580D02*
X135389523Y-84207200D01*
X135389523Y-84207200D02*
X135484761Y-84254819D01*
X135484761Y-84254819D02*
X135770475Y-84254819D01*
X135770475Y-84254819D02*
X135865713Y-84207200D01*
X135865713Y-84207200D02*
X135913332Y-84159580D01*
X137649166Y-99514819D02*
X138125356Y-99514819D01*
X138125356Y-99514819D02*
X138125356Y-98514819D01*
X136792023Y-99514819D02*
X137363451Y-99514819D01*
X137077737Y-99514819D02*
X137077737Y-98514819D01*
X137077737Y-98514819D02*
X137172975Y-98657676D01*
X137172975Y-98657676D02*
X137268213Y-98752914D01*
X137268213Y-98752914D02*
X137363451Y-98800533D01*
X147786666Y-107179580D02*
X147834285Y-107227200D01*
X147834285Y-107227200D02*
X147977142Y-107274819D01*
X147977142Y-107274819D02*
X148072380Y-107274819D01*
X148072380Y-107274819D02*
X148215237Y-107227200D01*
X148215237Y-107227200D02*
X148310475Y-107131961D01*
X148310475Y-107131961D02*
X148358094Y-107036723D01*
X148358094Y-107036723D02*
X148405713Y-106846247D01*
X148405713Y-106846247D02*
X148405713Y-106703390D01*
X148405713Y-106703390D02*
X148358094Y-106512914D01*
X148358094Y-106512914D02*
X148310475Y-106417676D01*
X148310475Y-106417676D02*
X148215237Y-106322438D01*
X148215237Y-106322438D02*
X148072380Y-106274819D01*
X148072380Y-106274819D02*
X147977142Y-106274819D01*
X147977142Y-106274819D02*
X147834285Y-106322438D01*
X147834285Y-106322438D02*
X147786666Y-106370057D01*
X147215237Y-106703390D02*
X147310475Y-106655771D01*
X147310475Y-106655771D02*
X147358094Y-106608152D01*
X147358094Y-106608152D02*
X147405713Y-106512914D01*
X147405713Y-106512914D02*
X147405713Y-106465295D01*
X147405713Y-106465295D02*
X147358094Y-106370057D01*
X147358094Y-106370057D02*
X147310475Y-106322438D01*
X147310475Y-106322438D02*
X147215237Y-106274819D01*
X147215237Y-106274819D02*
X147024761Y-106274819D01*
X147024761Y-106274819D02*
X146929523Y-106322438D01*
X146929523Y-106322438D02*
X146881904Y-106370057D01*
X146881904Y-106370057D02*
X146834285Y-106465295D01*
X146834285Y-106465295D02*
X146834285Y-106512914D01*
X146834285Y-106512914D02*
X146881904Y-106608152D01*
X146881904Y-106608152D02*
X146929523Y-106655771D01*
X146929523Y-106655771D02*
X147024761Y-106703390D01*
X147024761Y-106703390D02*
X147215237Y-106703390D01*
X147215237Y-106703390D02*
X147310475Y-106751009D01*
X147310475Y-106751009D02*
X147358094Y-106798628D01*
X147358094Y-106798628D02*
X147405713Y-106893866D01*
X147405713Y-106893866D02*
X147405713Y-107084342D01*
X147405713Y-107084342D02*
X147358094Y-107179580D01*
X147358094Y-107179580D02*
X147310475Y-107227200D01*
X147310475Y-107227200D02*
X147215237Y-107274819D01*
X147215237Y-107274819D02*
X147024761Y-107274819D01*
X147024761Y-107274819D02*
X146929523Y-107227200D01*
X146929523Y-107227200D02*
X146881904Y-107179580D01*
X146881904Y-107179580D02*
X146834285Y-107084342D01*
X146834285Y-107084342D02*
X146834285Y-106893866D01*
X146834285Y-106893866D02*
X146881904Y-106798628D01*
X146881904Y-106798628D02*
X146929523Y-106751009D01*
X146929523Y-106751009D02*
X147024761Y-106703390D01*
X153956666Y-97480819D02*
X154289999Y-97004628D01*
X154528094Y-97480819D02*
X154528094Y-96480819D01*
X154528094Y-96480819D02*
X154147142Y-96480819D01*
X154147142Y-96480819D02*
X154051904Y-96528438D01*
X154051904Y-96528438D02*
X154004285Y-96576057D01*
X154004285Y-96576057D02*
X153956666Y-96671295D01*
X153956666Y-96671295D02*
X153956666Y-96814152D01*
X153956666Y-96814152D02*
X154004285Y-96909390D01*
X154004285Y-96909390D02*
X154051904Y-96957009D01*
X154051904Y-96957009D02*
X154147142Y-97004628D01*
X154147142Y-97004628D02*
X154528094Y-97004628D01*
X153099523Y-96814152D02*
X153099523Y-97480819D01*
X153337618Y-96433200D02*
X153575713Y-97147485D01*
X153575713Y-97147485D02*
X152956666Y-97147485D01*
X138026666Y-90079580D02*
X138074285Y-90127200D01*
X138074285Y-90127200D02*
X138217142Y-90174819D01*
X138217142Y-90174819D02*
X138312380Y-90174819D01*
X138312380Y-90174819D02*
X138455237Y-90127200D01*
X138455237Y-90127200D02*
X138550475Y-90031961D01*
X138550475Y-90031961D02*
X138598094Y-89936723D01*
X138598094Y-89936723D02*
X138645713Y-89746247D01*
X138645713Y-89746247D02*
X138645713Y-89603390D01*
X138645713Y-89603390D02*
X138598094Y-89412914D01*
X138598094Y-89412914D02*
X138550475Y-89317676D01*
X138550475Y-89317676D02*
X138455237Y-89222438D01*
X138455237Y-89222438D02*
X138312380Y-89174819D01*
X138312380Y-89174819D02*
X138217142Y-89174819D01*
X138217142Y-89174819D02*
X138074285Y-89222438D01*
X138074285Y-89222438D02*
X138026666Y-89270057D01*
X137645713Y-89270057D02*
X137598094Y-89222438D01*
X137598094Y-89222438D02*
X137502856Y-89174819D01*
X137502856Y-89174819D02*
X137264761Y-89174819D01*
X137264761Y-89174819D02*
X137169523Y-89222438D01*
X137169523Y-89222438D02*
X137121904Y-89270057D01*
X137121904Y-89270057D02*
X137074285Y-89365295D01*
X137074285Y-89365295D02*
X137074285Y-89460533D01*
X137074285Y-89460533D02*
X137121904Y-89603390D01*
X137121904Y-89603390D02*
X137693332Y-90174819D01*
X137693332Y-90174819D02*
X137074285Y-90174819D01*
X153888666Y-90254819D02*
X154221999Y-89778628D01*
X154460094Y-90254819D02*
X154460094Y-89254819D01*
X154460094Y-89254819D02*
X154079142Y-89254819D01*
X154079142Y-89254819D02*
X153983904Y-89302438D01*
X153983904Y-89302438D02*
X153936285Y-89350057D01*
X153936285Y-89350057D02*
X153888666Y-89445295D01*
X153888666Y-89445295D02*
X153888666Y-89588152D01*
X153888666Y-89588152D02*
X153936285Y-89683390D01*
X153936285Y-89683390D02*
X153983904Y-89731009D01*
X153983904Y-89731009D02*
X154079142Y-89778628D01*
X154079142Y-89778628D02*
X154460094Y-89778628D01*
X152936285Y-90254819D02*
X153507713Y-90254819D01*
X153221999Y-90254819D02*
X153221999Y-89254819D01*
X153221999Y-89254819D02*
X153317237Y-89397676D01*
X153317237Y-89397676D02*
X153412475Y-89492914D01*
X153412475Y-89492914D02*
X153507713Y-89540533D01*
X138786190Y-83778628D02*
X138786190Y-84254819D01*
X139119523Y-83254819D02*
X138786190Y-83778628D01*
X138786190Y-83778628D02*
X138452857Y-83254819D01*
X137595714Y-84254819D02*
X138167142Y-84254819D01*
X137881428Y-84254819D02*
X137881428Y-83254819D01*
X137881428Y-83254819D02*
X137976666Y-83397676D01*
X137976666Y-83397676D02*
X138071904Y-83492914D01*
X138071904Y-83492914D02*
X138167142Y-83540533D01*
X138501166Y-93579580D02*
X138548785Y-93627200D01*
X138548785Y-93627200D02*
X138691642Y-93674819D01*
X138691642Y-93674819D02*
X138786880Y-93674819D01*
X138786880Y-93674819D02*
X138929737Y-93627200D01*
X138929737Y-93627200D02*
X139024975Y-93531961D01*
X139024975Y-93531961D02*
X139072594Y-93436723D01*
X139072594Y-93436723D02*
X139120213Y-93246247D01*
X139120213Y-93246247D02*
X139120213Y-93103390D01*
X139120213Y-93103390D02*
X139072594Y-92912914D01*
X139072594Y-92912914D02*
X139024975Y-92817676D01*
X139024975Y-92817676D02*
X138929737Y-92722438D01*
X138929737Y-92722438D02*
X138786880Y-92674819D01*
X138786880Y-92674819D02*
X138691642Y-92674819D01*
X138691642Y-92674819D02*
X138548785Y-92722438D01*
X138548785Y-92722438D02*
X138501166Y-92770057D01*
X137644023Y-93008152D02*
X137644023Y-93674819D01*
X137882118Y-92627200D02*
X138120213Y-93341485D01*
X138120213Y-93341485D02*
X137501166Y-93341485D01*
X142086666Y-107179580D02*
X142134285Y-107227200D01*
X142134285Y-107227200D02*
X142277142Y-107274819D01*
X142277142Y-107274819D02*
X142372380Y-107274819D01*
X142372380Y-107274819D02*
X142515237Y-107227200D01*
X142515237Y-107227200D02*
X142610475Y-107131961D01*
X142610475Y-107131961D02*
X142658094Y-107036723D01*
X142658094Y-107036723D02*
X142705713Y-106846247D01*
X142705713Y-106846247D02*
X142705713Y-106703390D01*
X142705713Y-106703390D02*
X142658094Y-106512914D01*
X142658094Y-106512914D02*
X142610475Y-106417676D01*
X142610475Y-106417676D02*
X142515237Y-106322438D01*
X142515237Y-106322438D02*
X142372380Y-106274819D01*
X142372380Y-106274819D02*
X142277142Y-106274819D01*
X142277142Y-106274819D02*
X142134285Y-106322438D01*
X142134285Y-106322438D02*
X142086666Y-106370057D01*
X141181904Y-106274819D02*
X141658094Y-106274819D01*
X141658094Y-106274819D02*
X141705713Y-106751009D01*
X141705713Y-106751009D02*
X141658094Y-106703390D01*
X141658094Y-106703390D02*
X141562856Y-106655771D01*
X141562856Y-106655771D02*
X141324761Y-106655771D01*
X141324761Y-106655771D02*
X141229523Y-106703390D01*
X141229523Y-106703390D02*
X141181904Y-106751009D01*
X141181904Y-106751009D02*
X141134285Y-106846247D01*
X141134285Y-106846247D02*
X141134285Y-107084342D01*
X141134285Y-107084342D02*
X141181904Y-107179580D01*
X141181904Y-107179580D02*
X141229523Y-107227200D01*
X141229523Y-107227200D02*
X141324761Y-107274819D01*
X141324761Y-107274819D02*
X141562856Y-107274819D01*
X141562856Y-107274819D02*
X141658094Y-107227200D01*
X141658094Y-107227200D02*
X141705713Y-107179580D01*
X136046666Y-97389580D02*
X136094285Y-97437200D01*
X136094285Y-97437200D02*
X136237142Y-97484819D01*
X136237142Y-97484819D02*
X136332380Y-97484819D01*
X136332380Y-97484819D02*
X136475237Y-97437200D01*
X136475237Y-97437200D02*
X136570475Y-97341961D01*
X136570475Y-97341961D02*
X136618094Y-97246723D01*
X136618094Y-97246723D02*
X136665713Y-97056247D01*
X136665713Y-97056247D02*
X136665713Y-96913390D01*
X136665713Y-96913390D02*
X136618094Y-96722914D01*
X136618094Y-96722914D02*
X136570475Y-96627676D01*
X136570475Y-96627676D02*
X136475237Y-96532438D01*
X136475237Y-96532438D02*
X136332380Y-96484819D01*
X136332380Y-96484819D02*
X136237142Y-96484819D01*
X136237142Y-96484819D02*
X136094285Y-96532438D01*
X136094285Y-96532438D02*
X136046666Y-96580057D01*
X135570475Y-97484819D02*
X135379999Y-97484819D01*
X135379999Y-97484819D02*
X135284761Y-97437200D01*
X135284761Y-97437200D02*
X135237142Y-97389580D01*
X135237142Y-97389580D02*
X135141904Y-97246723D01*
X135141904Y-97246723D02*
X135094285Y-97056247D01*
X135094285Y-97056247D02*
X135094285Y-96675295D01*
X135094285Y-96675295D02*
X135141904Y-96580057D01*
X135141904Y-96580057D02*
X135189523Y-96532438D01*
X135189523Y-96532438D02*
X135284761Y-96484819D01*
X135284761Y-96484819D02*
X135475237Y-96484819D01*
X135475237Y-96484819D02*
X135570475Y-96532438D01*
X135570475Y-96532438D02*
X135618094Y-96580057D01*
X135618094Y-96580057D02*
X135665713Y-96675295D01*
X135665713Y-96675295D02*
X135665713Y-96913390D01*
X135665713Y-96913390D02*
X135618094Y-97008628D01*
X135618094Y-97008628D02*
X135570475Y-97056247D01*
X135570475Y-97056247D02*
X135475237Y-97103866D01*
X135475237Y-97103866D02*
X135284761Y-97103866D01*
X135284761Y-97103866D02*
X135189523Y-97056247D01*
X135189523Y-97056247D02*
X135141904Y-97008628D01*
X135141904Y-97008628D02*
X135094285Y-96913390D01*
X153938666Y-93429819D02*
X154271999Y-92953628D01*
X154510094Y-93429819D02*
X154510094Y-92429819D01*
X154510094Y-92429819D02*
X154129142Y-92429819D01*
X154129142Y-92429819D02*
X154033904Y-92477438D01*
X154033904Y-92477438D02*
X153986285Y-92525057D01*
X153986285Y-92525057D02*
X153938666Y-92620295D01*
X153938666Y-92620295D02*
X153938666Y-92763152D01*
X153938666Y-92763152D02*
X153986285Y-92858390D01*
X153986285Y-92858390D02*
X154033904Y-92906009D01*
X154033904Y-92906009D02*
X154129142Y-92953628D01*
X154129142Y-92953628D02*
X154510094Y-92953628D01*
X153605332Y-92429819D02*
X152986285Y-92429819D01*
X152986285Y-92429819D02*
X153319618Y-92810771D01*
X153319618Y-92810771D02*
X153176761Y-92810771D01*
X153176761Y-92810771D02*
X153081523Y-92858390D01*
X153081523Y-92858390D02*
X153033904Y-92906009D01*
X153033904Y-92906009D02*
X152986285Y-93001247D01*
X152986285Y-93001247D02*
X152986285Y-93239342D01*
X152986285Y-93239342D02*
X153033904Y-93334580D01*
X153033904Y-93334580D02*
X153081523Y-93382200D01*
X153081523Y-93382200D02*
X153176761Y-93429819D01*
X153176761Y-93429819D02*
X153462475Y-93429819D01*
X153462475Y-93429819D02*
X153557713Y-93382200D01*
X153557713Y-93382200D02*
X153605332Y-93334580D01*
D11*
%TO.C,R2*%
X151484258Y-91847500D02*
X151009742Y-91847500D01*
X151484258Y-90802500D02*
X151009742Y-90802500D01*
D10*
%TO.C,U1*%
X147647000Y-94250000D02*
X147647000Y-93600000D01*
X147647000Y-94250000D02*
X141897000Y-94250000D01*
X147647000Y-84175000D02*
X149247000Y-84175000D01*
X147647000Y-83600000D02*
X147647000Y-84175000D01*
X147647000Y-83600000D02*
X141897000Y-83600000D01*
X141897000Y-94250000D02*
X141897000Y-93600000D01*
X141897000Y-83600000D02*
X141897000Y-84250000D01*
D11*
%TO.C,C7*%
X146230000Y-104419420D02*
X146230000Y-104700580D01*
X145210000Y-104419420D02*
X145210000Y-104700580D01*
%TO.C,C6*%
X144330000Y-104419420D02*
X144330000Y-104700580D01*
X143310000Y-104419420D02*
X143310000Y-104700580D01*
%TO.C,R5*%
X151477258Y-99202500D02*
X151002742Y-99202500D01*
X151477258Y-98157500D02*
X151002742Y-98157500D01*
%TO.C,C3*%
X135570000Y-86368080D02*
X135570000Y-86086920D01*
X136590000Y-86368080D02*
X136590000Y-86086920D01*
%TO.C,C8*%
X148130000Y-104419420D02*
X148130000Y-104700580D01*
X147110000Y-104419420D02*
X147110000Y-104700580D01*
%TO.C,R4*%
X151012742Y-96507500D02*
X151487258Y-96507500D01*
X151012742Y-97552500D02*
X151487258Y-97552500D01*
%TO.C,C2*%
X136590000Y-89281920D02*
X136590000Y-89563080D01*
X135570000Y-89281920D02*
X135570000Y-89563080D01*
%TO.C,R1*%
X151484258Y-90322500D02*
X151009742Y-90322500D01*
X151484258Y-89277500D02*
X151009742Y-89277500D01*
%TO.C,Y1*%
X139060000Y-87560000D02*
X137560000Y-87560000D01*
X137510000Y-86360000D02*
X137510000Y-86060000D01*
X139110000Y-86360000D02*
X139110000Y-86060000D01*
%TO.C,C4*%
X138193920Y-91200000D02*
X138475080Y-91200000D01*
X138193920Y-92220000D02*
X138475080Y-92220000D01*
%TO.C,C5*%
X142430000Y-104419420D02*
X142430000Y-104700580D01*
X141410000Y-104419420D02*
X141410000Y-104700580D01*
%TO.C,C9*%
X138485580Y-97540000D02*
X138204420Y-97540000D01*
X138485580Y-96520000D02*
X138204420Y-96520000D01*
%TO.C,R3*%
X151009742Y-92452500D02*
X151484258Y-92452500D01*
X151009742Y-93497500D02*
X151484258Y-93497500D01*
%TD*%
%LPC*%
D12*
%TO.C,J1*%
X151060000Y-104350000D03*
X138360000Y-104350000D03*
D13*
X148270000Y-101810000D03*
D14*
X147254000Y-100030000D03*
X146238000Y-101810000D03*
X145222000Y-100030000D03*
X144206000Y-101810000D03*
X143190000Y-100030000D03*
X142174000Y-101810000D03*
X141158000Y-100030000D03*
X151570000Y-95210000D03*
X149280000Y-95210000D03*
X140140000Y-95210000D03*
X137850000Y-95210000D03*
D15*
X152840000Y-100920000D03*
X136580000Y-100920000D03*
%TD*%
D16*
%TO.C,J3*%
X155772000Y-86025000D03*
D17*
X155772000Y-88025000D03*
X155772000Y-90025000D03*
X155772000Y-92025000D03*
X155772000Y-94025000D03*
X155772000Y-96025000D03*
X155772000Y-98025000D03*
X155772000Y-100025000D03*
X155772000Y-102025000D03*
X155772000Y-104025000D03*
%TD*%
D16*
%TO.C,J2*%
X133772000Y-86025000D03*
D17*
X133772000Y-88025000D03*
X133772000Y-90025000D03*
X133772000Y-92025000D03*
X133772000Y-94025000D03*
X133772000Y-96025000D03*
X133772000Y-98025000D03*
X133772000Y-100025000D03*
X133772000Y-102025000D03*
X133772000Y-104025000D03*
%TD*%
D18*
%TO.C,R2*%
X152072000Y-91325000D03*
X150422000Y-91325000D03*
%TD*%
D19*
%TO.C,U1*%
X148372000Y-84700000D03*
X148372000Y-85350000D03*
X148372000Y-86000000D03*
X148372000Y-86650000D03*
X148372000Y-87300000D03*
X148372000Y-87950000D03*
X148372000Y-88600000D03*
X148372000Y-89250000D03*
X148372000Y-89900000D03*
X148372000Y-90550000D03*
X148372000Y-91200000D03*
X148372000Y-91850000D03*
X148372000Y-92500000D03*
X148372000Y-93150000D03*
X141172000Y-93150000D03*
X141172000Y-92500000D03*
X141172000Y-91850000D03*
X141172000Y-91200000D03*
X141172000Y-90550000D03*
X141172000Y-89900000D03*
X141172000Y-89250000D03*
X141172000Y-88600000D03*
X141172000Y-87950000D03*
X141172000Y-87300000D03*
X141172000Y-86650000D03*
X141172000Y-86000000D03*
X141172000Y-85350000D03*
X141172000Y-84700000D03*
%TD*%
D20*
%TO.C,C7*%
X145720000Y-103785000D03*
X145720000Y-105335000D03*
%TD*%
%TO.C,C6*%
X143820000Y-103785000D03*
X143820000Y-105335000D03*
%TD*%
D18*
%TO.C,R5*%
X152065000Y-98680000D03*
X150415000Y-98680000D03*
%TD*%
D21*
%TO.C,C3*%
X136080000Y-87002500D03*
X136080000Y-85452500D03*
%TD*%
D22*
%TO.C,L1*%
X139837500Y-99060000D03*
X139022500Y-99060000D03*
%TD*%
D20*
%TO.C,C8*%
X147620000Y-103785000D03*
X147620000Y-105335000D03*
%TD*%
D23*
%TO.C,R4*%
X150425000Y-97030000D03*
X152075000Y-97030000D03*
%TD*%
D20*
%TO.C,C2*%
X136080000Y-88647500D03*
X136080000Y-90197500D03*
%TD*%
D18*
%TO.C,R1*%
X152072000Y-89800000D03*
X150422000Y-89800000D03*
%TD*%
D24*
%TO.C,Y1*%
X138310000Y-86960000D03*
X138310000Y-85460000D03*
%TD*%
D25*
%TO.C,C4*%
X137559500Y-91710000D03*
X139109500Y-91710000D03*
%TD*%
D20*
%TO.C,C5*%
X141920000Y-103785000D03*
X141920000Y-105335000D03*
%TD*%
D26*
%TO.C,C9*%
X139120000Y-97030000D03*
X137570000Y-97030000D03*
%TD*%
D23*
%TO.C,R3*%
X150422000Y-92975000D03*
X152072000Y-92975000D03*
%TD*%
%LPD*%
M02*
