%TF.GenerationSoftware,KiCad,Pcbnew,7.0.7*%
%TF.CreationDate,2023-10-04T16:56:19-06:00*%
%TF.ProjectId,GigE_Module,47696745-5f4d-46f6-9475-6c652e6b6963,rev?*%
%TF.SameCoordinates,Original*%
%TF.FileFunction,Drillmap*%
%TF.FilePolarity,Positive*%
%FSLAX45Y45*%
G04 Gerber Fmt 4.5, Leading zero omitted, Abs format (unit mm)*
G04 Created by KiCad (PCBNEW 7.0.7) date 2023-10-04 16:56:19*
%MOMM*%
%LPD*%
G01*
G04 APERTURE LIST*
%ADD10C,0.150000*%
%ADD11C,0.200000*%
%ADD12C,0.325000*%
G04 APERTURE END LIST*
D10*
X12996918Y-9678902D02*
X13006766Y-9680629D01*
X13041965Y-9312285D02*
X13032865Y-9316427D01*
X16007053Y-9330065D02*
X16016853Y-9332052D01*
X13101537Y-9748564D02*
X13106335Y-9757335D01*
X12986975Y-9677857D02*
X12996918Y-9678902D01*
X12810806Y-9556704D02*
X12814173Y-9566119D01*
X16054443Y-9345469D02*
X16063285Y-9350137D01*
X12967426Y-9677227D02*
X12976983Y-9677500D01*
X15844498Y-9241597D02*
X15848903Y-9250572D01*
X16152125Y-9507610D02*
X16151548Y-9517592D01*
X15986974Y-9677227D02*
X15977417Y-9677500D01*
X15928413Y-9686096D02*
X15919130Y-9689810D01*
X12827416Y-9592997D02*
X12832829Y-9601404D01*
X16079919Y-9644182D02*
X16071660Y-9649817D01*
X13113679Y-9232340D02*
X13112200Y-8507500D01*
X16151567Y-9487629D02*
X16152132Y-9497611D01*
X12947565Y-9674973D02*
X12957463Y-9676384D01*
X16126984Y-9592997D02*
X16121571Y-9601404D01*
X16140227Y-9566119D02*
X16136327Y-9575326D01*
X15840721Y-9232340D02*
X15844498Y-9241597D01*
X12858831Y-9373606D02*
X12851663Y-9380576D01*
X16102737Y-9380576D02*
X16109496Y-9387945D01*
X12851817Y-9624582D02*
X12858994Y-9631544D01*
X12814173Y-9566119D02*
X12818073Y-9575326D01*
X12927877Y-9334594D02*
X12918369Y-9337685D01*
X16121696Y-9403779D02*
X16127098Y-9412192D01*
X16026310Y-9670468D02*
X16016637Y-9672999D01*
X16095406Y-9631544D02*
X16087843Y-9638084D01*
X13023502Y-9319933D02*
X13013920Y-9322788D01*
X15957482Y-9678902D02*
X15947634Y-9680629D01*
X12803967Y-9477694D02*
X12802833Y-9487629D01*
X13074897Y-9289804D02*
X13067264Y-9296261D01*
X16150402Y-9527525D02*
X16148690Y-9537376D01*
X13096145Y-9740144D02*
X13101537Y-9748564D01*
X13100487Y-9259224D02*
X13094894Y-9267512D01*
X12947347Y-9330065D02*
X12937547Y-9332052D01*
X12928090Y-9670468D02*
X12937763Y-9672999D01*
X13025987Y-9686096D02*
X13035270Y-9689810D01*
X16088015Y-9367056D02*
X16095569Y-9373606D01*
X16006835Y-9674973D02*
X15996937Y-9676384D01*
X15940480Y-9322788D02*
X15950235Y-9324979D01*
X15870712Y-9724517D02*
X15864214Y-9732116D01*
X16127098Y-9412192D02*
X16132011Y-9420901D01*
X16136419Y-9429876D02*
X16140307Y-9439087D01*
X12807926Y-9458101D02*
X12805666Y-9467841D01*
X13090186Y-9732116D02*
X13096145Y-9740144D01*
X12818073Y-9575326D02*
X12822492Y-9584295D01*
X15848903Y-9250572D02*
X15853913Y-9259224D01*
X13105497Y-9250572D02*
X13100487Y-9259224D01*
X12900156Y-9659628D02*
X12909256Y-9663772D01*
X16080098Y-9360948D02*
X16088015Y-9367056D01*
X15967425Y-9677857D02*
X15957482Y-9678902D01*
X12874481Y-9644182D02*
X12882740Y-9649817D01*
X15842200Y-10497500D02*
X15767200Y-10572500D01*
X15895195Y-9302178D02*
X15903641Y-9307528D01*
X16115822Y-9395688D02*
X16121696Y-9403779D01*
X16115687Y-9609488D02*
X16109351Y-9617222D01*
X12937547Y-9332052D02*
X12927877Y-9334594D01*
X12984319Y-9327326D02*
X12977200Y-9327500D01*
X16146474Y-9458101D02*
X16148734Y-9467841D01*
X15872331Y-9282838D02*
X15879503Y-9289804D01*
X16109496Y-9387945D02*
X16115822Y-9395688D01*
X12957243Y-9328642D02*
X12947347Y-9330065D01*
X15853913Y-9259224D02*
X15859506Y-9267512D01*
X15910125Y-9694154D02*
X15901441Y-9699109D01*
X12805710Y-9537376D02*
X12807982Y-9547113D01*
X13187200Y-10572500D02*
X13377200Y-10762500D01*
X13052959Y-9699109D02*
X13061281Y-9704650D01*
X16140307Y-9439087D02*
X16143662Y-9448506D01*
X15852863Y-9748564D02*
X15848065Y-9757335D01*
X13076682Y-9717385D02*
X13083688Y-9724517D01*
X12899957Y-9345469D02*
X12891115Y-9350137D01*
X13377200Y-8242500D02*
X15397200Y-8242500D01*
X15977417Y-9677500D02*
X15977417Y-9677500D01*
X16132011Y-9420901D02*
X16136419Y-9429876D01*
X16045348Y-9341314D02*
X16054443Y-9345469D01*
X15879503Y-9289804D02*
X15887136Y-9296261D01*
X13013920Y-9322788D02*
X13004165Y-9324979D01*
X12891115Y-9350137D02*
X12882554Y-9355302D01*
X16016637Y-9672999D02*
X16006835Y-9674973D01*
X12858994Y-9631544D02*
X12866557Y-9638084D01*
X13032865Y-9316427D02*
X13023502Y-9319933D01*
X12802833Y-9487629D02*
X12802268Y-9497611D01*
X15842200Y-8507500D02*
X15767200Y-8432500D01*
X15877718Y-9717385D02*
X15870712Y-9724517D01*
X12967205Y-9327786D02*
X12957243Y-9328642D01*
X16148690Y-9537376D02*
X16146418Y-9547113D01*
X16148734Y-9467841D02*
X16150433Y-9477694D01*
X12838713Y-9609488D02*
X12845049Y-9617222D01*
X16109351Y-9617222D02*
X16102583Y-9624582D01*
X13110518Y-9766416D02*
X13112200Y-10497500D01*
X16136327Y-9575326D02*
X16131908Y-9584295D01*
X12807982Y-9547113D02*
X12810806Y-9556704D01*
X15919130Y-9689810D02*
X15910125Y-9694154D01*
X15864214Y-9732116D02*
X15858255Y-9740144D01*
X15977200Y-9327500D02*
X15987195Y-9327786D01*
X13016471Y-9683031D02*
X13025987Y-9686096D01*
X15930898Y-9319933D02*
X15940480Y-9322788D01*
X15996937Y-9676384D02*
X15986974Y-9677227D01*
X16095569Y-9373606D02*
X16102737Y-9380576D01*
X12805666Y-9467841D02*
X12803967Y-9477694D01*
X16121571Y-9601404D02*
X16115687Y-9609488D01*
X13004165Y-9324979D02*
X12994283Y-9326493D01*
X16063092Y-9654972D02*
X16054244Y-9659628D01*
X15767200Y-10572500D02*
X15577200Y-10762500D01*
X15960117Y-9326493D02*
X15970081Y-9327326D01*
X12866385Y-9367056D02*
X12858831Y-9373606D01*
X15840721Y-9232340D02*
X15842200Y-8507500D01*
X15885199Y-9710752D02*
X15877718Y-9717385D01*
X16146418Y-9547113D02*
X16143594Y-9556704D01*
X13044275Y-9694154D02*
X13052959Y-9699109D01*
X15901441Y-9699109D02*
X15893119Y-9704650D01*
X15997156Y-9328642D02*
X16007053Y-9330065D01*
X12909052Y-9341314D02*
X12899957Y-9345469D01*
X15893119Y-9704650D02*
X15885199Y-9710752D01*
X15912435Y-9312285D02*
X15921535Y-9316427D01*
X15977417Y-9677500D02*
X15967425Y-9677857D01*
X12803998Y-9527525D02*
X12805710Y-9537376D01*
X15767200Y-8432500D02*
X15577200Y-8242500D01*
X12802852Y-9517592D02*
X12803998Y-9527525D01*
X16102583Y-9624582D02*
X16095406Y-9631544D01*
X16036031Y-9337685D02*
X16045348Y-9341314D01*
X16035823Y-9667389D02*
X16026310Y-9670468D01*
X12810738Y-9448506D02*
X12807926Y-9458101D01*
X15887136Y-9296261D02*
X15895195Y-9302178D01*
X15970081Y-9327326D02*
X15977200Y-9327500D01*
X15921535Y-9316427D02*
X15930898Y-9319933D01*
X16131908Y-9584295D02*
X16126984Y-9592997D01*
X12814093Y-9439087D02*
X12810738Y-9448506D01*
X12845049Y-9617222D02*
X12851817Y-9624582D01*
X13082069Y-9282838D02*
X13074897Y-9289804D01*
X13113679Y-9232340D02*
X13109902Y-9241597D01*
X12957463Y-9676384D02*
X12967426Y-9677227D01*
X13059205Y-9302178D02*
X13050759Y-9307528D01*
X15577200Y-10762500D02*
X13377200Y-10762500D01*
X16063285Y-9350137D02*
X16071846Y-9355302D01*
X12891308Y-9654972D02*
X12900156Y-9659628D01*
X16071660Y-9649817D02*
X16063092Y-9654972D01*
X16151548Y-9517592D02*
X16150402Y-9527525D01*
D11*
X13112200Y-9502500D02*
G75*
G03*
X13112200Y-9502500I-135000J0D01*
G01*
D10*
X12832829Y-9601404D02*
X12838713Y-9609488D01*
X12822492Y-9584295D02*
X12827416Y-9592997D01*
X13109902Y-9241597D02*
X13105497Y-9250572D01*
X13050759Y-9307528D02*
X13041965Y-9312285D01*
X13067264Y-9296261D02*
X13059205Y-9302178D01*
X16054244Y-9659628D02*
X16045144Y-9663772D01*
X15865655Y-9275395D02*
X15872331Y-9282838D01*
X13112200Y-10497500D02*
X13187200Y-10572500D01*
X13187200Y-8432500D02*
X13377200Y-8242500D01*
X16071846Y-9355302D02*
X16080098Y-9360948D01*
X12937763Y-9672999D02*
X12947565Y-9674973D01*
X12994283Y-9326493D02*
X12984319Y-9327326D01*
X12802275Y-9507610D02*
X12802852Y-9517592D01*
X16143662Y-9448506D02*
X16146474Y-9458101D01*
X15903641Y-9307528D02*
X15912435Y-9312285D01*
X12882740Y-9649817D02*
X12891308Y-9654972D01*
X12909256Y-9663772D02*
X12918577Y-9667389D01*
X16087843Y-9638084D02*
X16079919Y-9644182D01*
X12976983Y-9677500D02*
X12986975Y-9677857D01*
X13006766Y-9680629D02*
X13016471Y-9683031D01*
X15859506Y-9267512D02*
X15865655Y-9275395D01*
X16016853Y-9332052D02*
X16026522Y-9334594D01*
X12827301Y-9412192D02*
X12822389Y-9420901D01*
X15947634Y-9680629D02*
X15937929Y-9683031D01*
X12918369Y-9337685D02*
X12909052Y-9341314D01*
X16045144Y-9663772D02*
X16035823Y-9667389D01*
X13112200Y-8507500D02*
X13187200Y-8432500D01*
X12851663Y-9380576D02*
X12844904Y-9387945D01*
X15937929Y-9683031D02*
X15928413Y-9686096D01*
X12874302Y-9360948D02*
X12866385Y-9367056D01*
X13061281Y-9704650D02*
X13069201Y-9710752D01*
X12918577Y-9667389D02*
X12928090Y-9670468D01*
X15577200Y-8242500D02*
X15397200Y-8242500D01*
X15858255Y-9740144D02*
X15852863Y-9748564D01*
X13094894Y-9267512D02*
X13088745Y-9275395D01*
X12977200Y-9327500D02*
X12967205Y-9327786D01*
X12882554Y-9355302D02*
X12874302Y-9360948D01*
X16150433Y-9477694D02*
X16151567Y-9487629D01*
X13106335Y-9757335D02*
X13110518Y-9766416D01*
X13035270Y-9689810D02*
X13044275Y-9694154D01*
X12802268Y-9497611D02*
X12802275Y-9507610D01*
X16026522Y-9334594D02*
X16036031Y-9337685D01*
X13088745Y-9275395D02*
X13082069Y-9282838D01*
X15950235Y-9324979D02*
X15960117Y-9326493D01*
X16143594Y-9556704D02*
X16140227Y-9566119D01*
X15843882Y-9766416D02*
X15842200Y-10497500D01*
X12832704Y-9403779D02*
X12827301Y-9412192D01*
X12866557Y-9638084D02*
X12874481Y-9644182D01*
X12844904Y-9387945D02*
X12838578Y-9395688D01*
X16152132Y-9497611D02*
X16152125Y-9507610D01*
D11*
X16112200Y-9502500D02*
G75*
G03*
X16112200Y-9502500I-135000J0D01*
G01*
D10*
X12838578Y-9395688D02*
X12832704Y-9403779D01*
X15987195Y-9327786D02*
X15997156Y-9328642D01*
X12817981Y-9429876D02*
X12814093Y-9439087D01*
X12822389Y-9420901D02*
X12817981Y-9429876D01*
X15848065Y-9757335D02*
X15843882Y-9766416D01*
X13069201Y-9710752D02*
X13076682Y-9717385D01*
X13083688Y-9724517D02*
X13090186Y-9732116D01*
D11*
D12*
X13673500Y-10272500D02*
X13998500Y-10597500D01*
X13998500Y-10272500D02*
X13673500Y-10597500D01*
X14943500Y-10272500D02*
X15268500Y-10597500D01*
X15268500Y-10272500D02*
X14943500Y-10597500D01*
D11*
X13055545Y-11081484D02*
X13055545Y-10881484D01*
X13055545Y-10881484D02*
X13103164Y-10881484D01*
X13103164Y-10881484D02*
X13131736Y-10891008D01*
X13131736Y-10891008D02*
X13150783Y-10910055D01*
X13150783Y-10910055D02*
X13160307Y-10929103D01*
X13160307Y-10929103D02*
X13169831Y-10967198D01*
X13169831Y-10967198D02*
X13169831Y-10995770D01*
X13169831Y-10995770D02*
X13160307Y-11033865D01*
X13160307Y-11033865D02*
X13150783Y-11052912D01*
X13150783Y-11052912D02*
X13131736Y-11071960D01*
X13131736Y-11071960D02*
X13103164Y-11081484D01*
X13103164Y-11081484D02*
X13055545Y-11081484D01*
X13255545Y-11081484D02*
X13255545Y-10948150D01*
X13255545Y-10986246D02*
X13265069Y-10967198D01*
X13265069Y-10967198D02*
X13274593Y-10957674D01*
X13274593Y-10957674D02*
X13293640Y-10948150D01*
X13293640Y-10948150D02*
X13312688Y-10948150D01*
X13379355Y-11081484D02*
X13379355Y-10948150D01*
X13379355Y-10881484D02*
X13369831Y-10891008D01*
X13369831Y-10891008D02*
X13379355Y-10900531D01*
X13379355Y-10900531D02*
X13388878Y-10891008D01*
X13388878Y-10891008D02*
X13379355Y-10881484D01*
X13379355Y-10881484D02*
X13379355Y-10900531D01*
X13503164Y-11081484D02*
X13484116Y-11071960D01*
X13484116Y-11071960D02*
X13474593Y-11052912D01*
X13474593Y-11052912D02*
X13474593Y-10881484D01*
X13607926Y-11081484D02*
X13588878Y-11071960D01*
X13588878Y-11071960D02*
X13579355Y-11052912D01*
X13579355Y-11052912D02*
X13579355Y-10881484D01*
X13836497Y-11081484D02*
X13836497Y-10881484D01*
X13836497Y-10881484D02*
X13903164Y-11024341D01*
X13903164Y-11024341D02*
X13969831Y-10881484D01*
X13969831Y-10881484D02*
X13969831Y-11081484D01*
X14150783Y-11081484D02*
X14150783Y-10976722D01*
X14150783Y-10976722D02*
X14141259Y-10957674D01*
X14141259Y-10957674D02*
X14122212Y-10948150D01*
X14122212Y-10948150D02*
X14084116Y-10948150D01*
X14084116Y-10948150D02*
X14065069Y-10957674D01*
X14150783Y-11071960D02*
X14131736Y-11081484D01*
X14131736Y-11081484D02*
X14084116Y-11081484D01*
X14084116Y-11081484D02*
X14065069Y-11071960D01*
X14065069Y-11071960D02*
X14055545Y-11052912D01*
X14055545Y-11052912D02*
X14055545Y-11033865D01*
X14055545Y-11033865D02*
X14065069Y-11014817D01*
X14065069Y-11014817D02*
X14084116Y-11005293D01*
X14084116Y-11005293D02*
X14131736Y-11005293D01*
X14131736Y-11005293D02*
X14150783Y-10995770D01*
X14246021Y-10948150D02*
X14246021Y-11148150D01*
X14246021Y-10957674D02*
X14265069Y-10948150D01*
X14265069Y-10948150D02*
X14303164Y-10948150D01*
X14303164Y-10948150D02*
X14322212Y-10957674D01*
X14322212Y-10957674D02*
X14331736Y-10967198D01*
X14331736Y-10967198D02*
X14341259Y-10986246D01*
X14341259Y-10986246D02*
X14341259Y-11043389D01*
X14341259Y-11043389D02*
X14331736Y-11062436D01*
X14331736Y-11062436D02*
X14322212Y-11071960D01*
X14322212Y-11071960D02*
X14303164Y-11081484D01*
X14303164Y-11081484D02*
X14265069Y-11081484D01*
X14265069Y-11081484D02*
X14246021Y-11071960D01*
X14426974Y-11062436D02*
X14436497Y-11071960D01*
X14436497Y-11071960D02*
X14426974Y-11081484D01*
X14426974Y-11081484D02*
X14417450Y-11071960D01*
X14417450Y-11071960D02*
X14426974Y-11062436D01*
X14426974Y-11062436D02*
X14426974Y-11081484D01*
X14426974Y-10957674D02*
X14436497Y-10967198D01*
X14436497Y-10967198D02*
X14426974Y-10976722D01*
X14426974Y-10976722D02*
X14417450Y-10967198D01*
X14417450Y-10967198D02*
X14426974Y-10957674D01*
X14426974Y-10957674D02*
X14426974Y-10976722D01*
X12594768Y-11310000D02*
X12794768Y-11510000D01*
X12794768Y-11310000D02*
X12594768Y-11510000D01*
X13036497Y-11301484D02*
X13160307Y-11301484D01*
X13160307Y-11301484D02*
X13093640Y-11377674D01*
X13093640Y-11377674D02*
X13122212Y-11377674D01*
X13122212Y-11377674D02*
X13141259Y-11387198D01*
X13141259Y-11387198D02*
X13150783Y-11396722D01*
X13150783Y-11396722D02*
X13160307Y-11415769D01*
X13160307Y-11415769D02*
X13160307Y-11463388D01*
X13160307Y-11463388D02*
X13150783Y-11482436D01*
X13150783Y-11482436D02*
X13141259Y-11491960D01*
X13141259Y-11491960D02*
X13122212Y-11501484D01*
X13122212Y-11501484D02*
X13065069Y-11501484D01*
X13065069Y-11501484D02*
X13046021Y-11491960D01*
X13046021Y-11491960D02*
X13036497Y-11482436D01*
X13246021Y-11482436D02*
X13255545Y-11491960D01*
X13255545Y-11491960D02*
X13246021Y-11501484D01*
X13246021Y-11501484D02*
X13236497Y-11491960D01*
X13236497Y-11491960D02*
X13246021Y-11482436D01*
X13246021Y-11482436D02*
X13246021Y-11501484D01*
X13331736Y-11320531D02*
X13341259Y-11311008D01*
X13341259Y-11311008D02*
X13360307Y-11301484D01*
X13360307Y-11301484D02*
X13407926Y-11301484D01*
X13407926Y-11301484D02*
X13426974Y-11311008D01*
X13426974Y-11311008D02*
X13436497Y-11320531D01*
X13436497Y-11320531D02*
X13446021Y-11339579D01*
X13446021Y-11339579D02*
X13446021Y-11358627D01*
X13446021Y-11358627D02*
X13436497Y-11387198D01*
X13436497Y-11387198D02*
X13322212Y-11501484D01*
X13322212Y-11501484D02*
X13446021Y-11501484D01*
X13626974Y-11301484D02*
X13531736Y-11301484D01*
X13531736Y-11301484D02*
X13522212Y-11396722D01*
X13522212Y-11396722D02*
X13531736Y-11387198D01*
X13531736Y-11387198D02*
X13550783Y-11377674D01*
X13550783Y-11377674D02*
X13598402Y-11377674D01*
X13598402Y-11377674D02*
X13617450Y-11387198D01*
X13617450Y-11387198D02*
X13626974Y-11396722D01*
X13626974Y-11396722D02*
X13636497Y-11415769D01*
X13636497Y-11415769D02*
X13636497Y-11463388D01*
X13636497Y-11463388D02*
X13626974Y-11482436D01*
X13626974Y-11482436D02*
X13617450Y-11491960D01*
X13617450Y-11491960D02*
X13598402Y-11501484D01*
X13598402Y-11501484D02*
X13550783Y-11501484D01*
X13550783Y-11501484D02*
X13531736Y-11491960D01*
X13531736Y-11491960D02*
X13522212Y-11482436D01*
X13760307Y-11301484D02*
X13779355Y-11301484D01*
X13779355Y-11301484D02*
X13798402Y-11311008D01*
X13798402Y-11311008D02*
X13807926Y-11320531D01*
X13807926Y-11320531D02*
X13817450Y-11339579D01*
X13817450Y-11339579D02*
X13826974Y-11377674D01*
X13826974Y-11377674D02*
X13826974Y-11425293D01*
X13826974Y-11425293D02*
X13817450Y-11463388D01*
X13817450Y-11463388D02*
X13807926Y-11482436D01*
X13807926Y-11482436D02*
X13798402Y-11491960D01*
X13798402Y-11491960D02*
X13779355Y-11501484D01*
X13779355Y-11501484D02*
X13760307Y-11501484D01*
X13760307Y-11501484D02*
X13741259Y-11491960D01*
X13741259Y-11491960D02*
X13731736Y-11482436D01*
X13731736Y-11482436D02*
X13722212Y-11463388D01*
X13722212Y-11463388D02*
X13712688Y-11425293D01*
X13712688Y-11425293D02*
X13712688Y-11377674D01*
X13712688Y-11377674D02*
X13722212Y-11339579D01*
X13722212Y-11339579D02*
X13731736Y-11320531D01*
X13731736Y-11320531D02*
X13741259Y-11311008D01*
X13741259Y-11311008D02*
X13760307Y-11301484D01*
X13912688Y-11501484D02*
X13912688Y-11368150D01*
X13912688Y-11387198D02*
X13922212Y-11377674D01*
X13922212Y-11377674D02*
X13941259Y-11368150D01*
X13941259Y-11368150D02*
X13969831Y-11368150D01*
X13969831Y-11368150D02*
X13988878Y-11377674D01*
X13988878Y-11377674D02*
X13998402Y-11396722D01*
X13998402Y-11396722D02*
X13998402Y-11501484D01*
X13998402Y-11396722D02*
X14007926Y-11377674D01*
X14007926Y-11377674D02*
X14026974Y-11368150D01*
X14026974Y-11368150D02*
X14055545Y-11368150D01*
X14055545Y-11368150D02*
X14074593Y-11377674D01*
X14074593Y-11377674D02*
X14084117Y-11396722D01*
X14084117Y-11396722D02*
X14084117Y-11501484D01*
X14179355Y-11501484D02*
X14179355Y-11368150D01*
X14179355Y-11387198D02*
X14188878Y-11377674D01*
X14188878Y-11377674D02*
X14207926Y-11368150D01*
X14207926Y-11368150D02*
X14236498Y-11368150D01*
X14236498Y-11368150D02*
X14255545Y-11377674D01*
X14255545Y-11377674D02*
X14265069Y-11396722D01*
X14265069Y-11396722D02*
X14265069Y-11501484D01*
X14265069Y-11396722D02*
X14274593Y-11377674D01*
X14274593Y-11377674D02*
X14293640Y-11368150D01*
X14293640Y-11368150D02*
X14322212Y-11368150D01*
X14322212Y-11368150D02*
X14341259Y-11377674D01*
X14341259Y-11377674D02*
X14350783Y-11396722D01*
X14350783Y-11396722D02*
X14350783Y-11501484D01*
X14741259Y-11291960D02*
X14569831Y-11549103D01*
X14998402Y-11301484D02*
X15017450Y-11301484D01*
X15017450Y-11301484D02*
X15036498Y-11311008D01*
X15036498Y-11311008D02*
X15046021Y-11320531D01*
X15046021Y-11320531D02*
X15055545Y-11339579D01*
X15055545Y-11339579D02*
X15065069Y-11377674D01*
X15065069Y-11377674D02*
X15065069Y-11425293D01*
X15065069Y-11425293D02*
X15055545Y-11463388D01*
X15055545Y-11463388D02*
X15046021Y-11482436D01*
X15046021Y-11482436D02*
X15036498Y-11491960D01*
X15036498Y-11491960D02*
X15017450Y-11501484D01*
X15017450Y-11501484D02*
X14998402Y-11501484D01*
X14998402Y-11501484D02*
X14979355Y-11491960D01*
X14979355Y-11491960D02*
X14969831Y-11482436D01*
X14969831Y-11482436D02*
X14960307Y-11463388D01*
X14960307Y-11463388D02*
X14950783Y-11425293D01*
X14950783Y-11425293D02*
X14950783Y-11377674D01*
X14950783Y-11377674D02*
X14960307Y-11339579D01*
X14960307Y-11339579D02*
X14969831Y-11320531D01*
X14969831Y-11320531D02*
X14979355Y-11311008D01*
X14979355Y-11311008D02*
X14998402Y-11301484D01*
X15150783Y-11482436D02*
X15160307Y-11491960D01*
X15160307Y-11491960D02*
X15150783Y-11501484D01*
X15150783Y-11501484D02*
X15141260Y-11491960D01*
X15141260Y-11491960D02*
X15150783Y-11482436D01*
X15150783Y-11482436D02*
X15150783Y-11501484D01*
X15350783Y-11501484D02*
X15236498Y-11501484D01*
X15293640Y-11501484D02*
X15293640Y-11301484D01*
X15293640Y-11301484D02*
X15274593Y-11330055D01*
X15274593Y-11330055D02*
X15255545Y-11349103D01*
X15255545Y-11349103D02*
X15236498Y-11358627D01*
X15426974Y-11320531D02*
X15436498Y-11311008D01*
X15436498Y-11311008D02*
X15455545Y-11301484D01*
X15455545Y-11301484D02*
X15503164Y-11301484D01*
X15503164Y-11301484D02*
X15522212Y-11311008D01*
X15522212Y-11311008D02*
X15531736Y-11320531D01*
X15531736Y-11320531D02*
X15541260Y-11339579D01*
X15541260Y-11339579D02*
X15541260Y-11358627D01*
X15541260Y-11358627D02*
X15531736Y-11387198D01*
X15531736Y-11387198D02*
X15417450Y-11501484D01*
X15417450Y-11501484D02*
X15541260Y-11501484D01*
X15655545Y-11387198D02*
X15636498Y-11377674D01*
X15636498Y-11377674D02*
X15626974Y-11368150D01*
X15626974Y-11368150D02*
X15617450Y-11349103D01*
X15617450Y-11349103D02*
X15617450Y-11339579D01*
X15617450Y-11339579D02*
X15626974Y-11320531D01*
X15626974Y-11320531D02*
X15636498Y-11311008D01*
X15636498Y-11311008D02*
X15655545Y-11301484D01*
X15655545Y-11301484D02*
X15693641Y-11301484D01*
X15693641Y-11301484D02*
X15712688Y-11311008D01*
X15712688Y-11311008D02*
X15722212Y-11320531D01*
X15722212Y-11320531D02*
X15731736Y-11339579D01*
X15731736Y-11339579D02*
X15731736Y-11349103D01*
X15731736Y-11349103D02*
X15722212Y-11368150D01*
X15722212Y-11368150D02*
X15712688Y-11377674D01*
X15712688Y-11377674D02*
X15693641Y-11387198D01*
X15693641Y-11387198D02*
X15655545Y-11387198D01*
X15655545Y-11387198D02*
X15636498Y-11396722D01*
X15636498Y-11396722D02*
X15626974Y-11406246D01*
X15626974Y-11406246D02*
X15617450Y-11425293D01*
X15617450Y-11425293D02*
X15617450Y-11463388D01*
X15617450Y-11463388D02*
X15626974Y-11482436D01*
X15626974Y-11482436D02*
X15636498Y-11491960D01*
X15636498Y-11491960D02*
X15655545Y-11501484D01*
X15655545Y-11501484D02*
X15693641Y-11501484D01*
X15693641Y-11501484D02*
X15712688Y-11491960D01*
X15712688Y-11491960D02*
X15722212Y-11482436D01*
X15722212Y-11482436D02*
X15731736Y-11463388D01*
X15731736Y-11463388D02*
X15731736Y-11425293D01*
X15731736Y-11425293D02*
X15722212Y-11406246D01*
X15722212Y-11406246D02*
X15712688Y-11396722D01*
X15712688Y-11396722D02*
X15693641Y-11387198D01*
X15855545Y-11301484D02*
X15874593Y-11301484D01*
X15874593Y-11301484D02*
X15893641Y-11311008D01*
X15893641Y-11311008D02*
X15903164Y-11320531D01*
X15903164Y-11320531D02*
X15912688Y-11339579D01*
X15912688Y-11339579D02*
X15922212Y-11377674D01*
X15922212Y-11377674D02*
X15922212Y-11425293D01*
X15922212Y-11425293D02*
X15912688Y-11463388D01*
X15912688Y-11463388D02*
X15903164Y-11482436D01*
X15903164Y-11482436D02*
X15893641Y-11491960D01*
X15893641Y-11491960D02*
X15874593Y-11501484D01*
X15874593Y-11501484D02*
X15855545Y-11501484D01*
X15855545Y-11501484D02*
X15836498Y-11491960D01*
X15836498Y-11491960D02*
X15826974Y-11482436D01*
X15826974Y-11482436D02*
X15817450Y-11463388D01*
X15817450Y-11463388D02*
X15807926Y-11425293D01*
X15807926Y-11425293D02*
X15807926Y-11377674D01*
X15807926Y-11377674D02*
X15817450Y-11339579D01*
X15817450Y-11339579D02*
X15826974Y-11320531D01*
X15826974Y-11320531D02*
X15836498Y-11311008D01*
X15836498Y-11311008D02*
X15855545Y-11301484D01*
X15998402Y-11301484D02*
X15998402Y-11339579D01*
X16074593Y-11301484D02*
X16074593Y-11339579D01*
X16369831Y-11577674D02*
X16360307Y-11568150D01*
X16360307Y-11568150D02*
X16341260Y-11539579D01*
X16341260Y-11539579D02*
X16331736Y-11520531D01*
X16331736Y-11520531D02*
X16322212Y-11491960D01*
X16322212Y-11491960D02*
X16312688Y-11444341D01*
X16312688Y-11444341D02*
X16312688Y-11406246D01*
X16312688Y-11406246D02*
X16322212Y-11358627D01*
X16322212Y-11358627D02*
X16331736Y-11330055D01*
X16331736Y-11330055D02*
X16341260Y-11311008D01*
X16341260Y-11311008D02*
X16360307Y-11282436D01*
X16360307Y-11282436D02*
X16369831Y-11272912D01*
X16436498Y-11320531D02*
X16446022Y-11311008D01*
X16446022Y-11311008D02*
X16465069Y-11301484D01*
X16465069Y-11301484D02*
X16512688Y-11301484D01*
X16512688Y-11301484D02*
X16531736Y-11311008D01*
X16531736Y-11311008D02*
X16541260Y-11320531D01*
X16541260Y-11320531D02*
X16550783Y-11339579D01*
X16550783Y-11339579D02*
X16550783Y-11358627D01*
X16550783Y-11358627D02*
X16541260Y-11387198D01*
X16541260Y-11387198D02*
X16426974Y-11501484D01*
X16426974Y-11501484D02*
X16550783Y-11501484D01*
X16788879Y-11501484D02*
X16788879Y-11301484D01*
X16874593Y-11501484D02*
X16874593Y-11396722D01*
X16874593Y-11396722D02*
X16865069Y-11377674D01*
X16865069Y-11377674D02*
X16846022Y-11368150D01*
X16846022Y-11368150D02*
X16817450Y-11368150D01*
X16817450Y-11368150D02*
X16798403Y-11377674D01*
X16798403Y-11377674D02*
X16788879Y-11387198D01*
X16998403Y-11501484D02*
X16979355Y-11491960D01*
X16979355Y-11491960D02*
X16969831Y-11482436D01*
X16969831Y-11482436D02*
X16960307Y-11463388D01*
X16960307Y-11463388D02*
X16960307Y-11406246D01*
X16960307Y-11406246D02*
X16969831Y-11387198D01*
X16969831Y-11387198D02*
X16979355Y-11377674D01*
X16979355Y-11377674D02*
X16998403Y-11368150D01*
X16998403Y-11368150D02*
X17026974Y-11368150D01*
X17026974Y-11368150D02*
X17046022Y-11377674D01*
X17046022Y-11377674D02*
X17055546Y-11387198D01*
X17055546Y-11387198D02*
X17065069Y-11406246D01*
X17065069Y-11406246D02*
X17065069Y-11463388D01*
X17065069Y-11463388D02*
X17055546Y-11482436D01*
X17055546Y-11482436D02*
X17046022Y-11491960D01*
X17046022Y-11491960D02*
X17026974Y-11501484D01*
X17026974Y-11501484D02*
X16998403Y-11501484D01*
X17179355Y-11501484D02*
X17160307Y-11491960D01*
X17160307Y-11491960D02*
X17150784Y-11472912D01*
X17150784Y-11472912D02*
X17150784Y-11301484D01*
X17331736Y-11491960D02*
X17312688Y-11501484D01*
X17312688Y-11501484D02*
X17274593Y-11501484D01*
X17274593Y-11501484D02*
X17255546Y-11491960D01*
X17255546Y-11491960D02*
X17246022Y-11472912D01*
X17246022Y-11472912D02*
X17246022Y-11396722D01*
X17246022Y-11396722D02*
X17255546Y-11377674D01*
X17255546Y-11377674D02*
X17274593Y-11368150D01*
X17274593Y-11368150D02*
X17312688Y-11368150D01*
X17312688Y-11368150D02*
X17331736Y-11377674D01*
X17331736Y-11377674D02*
X17341260Y-11396722D01*
X17341260Y-11396722D02*
X17341260Y-11415769D01*
X17341260Y-11415769D02*
X17246022Y-11434817D01*
X17417450Y-11491960D02*
X17436498Y-11501484D01*
X17436498Y-11501484D02*
X17474593Y-11501484D01*
X17474593Y-11501484D02*
X17493641Y-11491960D01*
X17493641Y-11491960D02*
X17503165Y-11472912D01*
X17503165Y-11472912D02*
X17503165Y-11463388D01*
X17503165Y-11463388D02*
X17493641Y-11444341D01*
X17493641Y-11444341D02*
X17474593Y-11434817D01*
X17474593Y-11434817D02*
X17446022Y-11434817D01*
X17446022Y-11434817D02*
X17426974Y-11425293D01*
X17426974Y-11425293D02*
X17417450Y-11406246D01*
X17417450Y-11406246D02*
X17417450Y-11396722D01*
X17417450Y-11396722D02*
X17426974Y-11377674D01*
X17426974Y-11377674D02*
X17446022Y-11368150D01*
X17446022Y-11368150D02*
X17474593Y-11368150D01*
X17474593Y-11368150D02*
X17493641Y-11377674D01*
X17569831Y-11577674D02*
X17579355Y-11568150D01*
X17579355Y-11568150D02*
X17598403Y-11539579D01*
X17598403Y-11539579D02*
X17607927Y-11520531D01*
X17607927Y-11520531D02*
X17617450Y-11491960D01*
X17617450Y-11491960D02*
X17626974Y-11444341D01*
X17626974Y-11444341D02*
X17626974Y-11406246D01*
X17626974Y-11406246D02*
X17617450Y-11358627D01*
X17617450Y-11358627D02*
X17607927Y-11330055D01*
X17607927Y-11330055D02*
X17598403Y-11311008D01*
X17598403Y-11311008D02*
X17579355Y-11282436D01*
X17579355Y-11282436D02*
X17569831Y-11272912D01*
X17931736Y-11577674D02*
X17922212Y-11568150D01*
X17922212Y-11568150D02*
X17903165Y-11539579D01*
X17903165Y-11539579D02*
X17893641Y-11520531D01*
X17893641Y-11520531D02*
X17884117Y-11491960D01*
X17884117Y-11491960D02*
X17874593Y-11444341D01*
X17874593Y-11444341D02*
X17874593Y-11406246D01*
X17874593Y-11406246D02*
X17884117Y-11358627D01*
X17884117Y-11358627D02*
X17893641Y-11330055D01*
X17893641Y-11330055D02*
X17903165Y-11311008D01*
X17903165Y-11311008D02*
X17922212Y-11282436D01*
X17922212Y-11282436D02*
X17931736Y-11272912D01*
X18007927Y-11368150D02*
X18007927Y-11501484D01*
X18007927Y-11387198D02*
X18017450Y-11377674D01*
X18017450Y-11377674D02*
X18036498Y-11368150D01*
X18036498Y-11368150D02*
X18065069Y-11368150D01*
X18065069Y-11368150D02*
X18084117Y-11377674D01*
X18084117Y-11377674D02*
X18093641Y-11396722D01*
X18093641Y-11396722D02*
X18093641Y-11501484D01*
X18217450Y-11501484D02*
X18198403Y-11491960D01*
X18198403Y-11491960D02*
X18188879Y-11482436D01*
X18188879Y-11482436D02*
X18179355Y-11463388D01*
X18179355Y-11463388D02*
X18179355Y-11406246D01*
X18179355Y-11406246D02*
X18188879Y-11387198D01*
X18188879Y-11387198D02*
X18198403Y-11377674D01*
X18198403Y-11377674D02*
X18217450Y-11368150D01*
X18217450Y-11368150D02*
X18246022Y-11368150D01*
X18246022Y-11368150D02*
X18265069Y-11377674D01*
X18265069Y-11377674D02*
X18274593Y-11387198D01*
X18274593Y-11387198D02*
X18284117Y-11406246D01*
X18284117Y-11406246D02*
X18284117Y-11463388D01*
X18284117Y-11463388D02*
X18274593Y-11482436D01*
X18274593Y-11482436D02*
X18265069Y-11491960D01*
X18265069Y-11491960D02*
X18246022Y-11501484D01*
X18246022Y-11501484D02*
X18217450Y-11501484D01*
X18341260Y-11368150D02*
X18417450Y-11368150D01*
X18369831Y-11301484D02*
X18369831Y-11472912D01*
X18369831Y-11472912D02*
X18379355Y-11491960D01*
X18379355Y-11491960D02*
X18398403Y-11501484D01*
X18398403Y-11501484D02*
X18417450Y-11501484D01*
X18636498Y-11368150D02*
X18636498Y-11568150D01*
X18636498Y-11377674D02*
X18655546Y-11368150D01*
X18655546Y-11368150D02*
X18693641Y-11368150D01*
X18693641Y-11368150D02*
X18712689Y-11377674D01*
X18712689Y-11377674D02*
X18722212Y-11387198D01*
X18722212Y-11387198D02*
X18731736Y-11406246D01*
X18731736Y-11406246D02*
X18731736Y-11463388D01*
X18731736Y-11463388D02*
X18722212Y-11482436D01*
X18722212Y-11482436D02*
X18712689Y-11491960D01*
X18712689Y-11491960D02*
X18693641Y-11501484D01*
X18693641Y-11501484D02*
X18655546Y-11501484D01*
X18655546Y-11501484D02*
X18636498Y-11491960D01*
X18846022Y-11501484D02*
X18826974Y-11491960D01*
X18826974Y-11491960D02*
X18817450Y-11472912D01*
X18817450Y-11472912D02*
X18817450Y-11301484D01*
X19007927Y-11501484D02*
X19007927Y-11396722D01*
X19007927Y-11396722D02*
X18998403Y-11377674D01*
X18998403Y-11377674D02*
X18979355Y-11368150D01*
X18979355Y-11368150D02*
X18941260Y-11368150D01*
X18941260Y-11368150D02*
X18922212Y-11377674D01*
X19007927Y-11491960D02*
X18988879Y-11501484D01*
X18988879Y-11501484D02*
X18941260Y-11501484D01*
X18941260Y-11501484D02*
X18922212Y-11491960D01*
X18922212Y-11491960D02*
X18912689Y-11472912D01*
X18912689Y-11472912D02*
X18912689Y-11453865D01*
X18912689Y-11453865D02*
X18922212Y-11434817D01*
X18922212Y-11434817D02*
X18941260Y-11425293D01*
X18941260Y-11425293D02*
X18988879Y-11425293D01*
X18988879Y-11425293D02*
X19007927Y-11415769D01*
X19074593Y-11368150D02*
X19150784Y-11368150D01*
X19103165Y-11301484D02*
X19103165Y-11472912D01*
X19103165Y-11472912D02*
X19112689Y-11491960D01*
X19112689Y-11491960D02*
X19131736Y-11501484D01*
X19131736Y-11501484D02*
X19150784Y-11501484D01*
X19293641Y-11491960D02*
X19274593Y-11501484D01*
X19274593Y-11501484D02*
X19236498Y-11501484D01*
X19236498Y-11501484D02*
X19217450Y-11491960D01*
X19217450Y-11491960D02*
X19207927Y-11472912D01*
X19207927Y-11472912D02*
X19207927Y-11396722D01*
X19207927Y-11396722D02*
X19217450Y-11377674D01*
X19217450Y-11377674D02*
X19236498Y-11368150D01*
X19236498Y-11368150D02*
X19274593Y-11368150D01*
X19274593Y-11368150D02*
X19293641Y-11377674D01*
X19293641Y-11377674D02*
X19303165Y-11396722D01*
X19303165Y-11396722D02*
X19303165Y-11415769D01*
X19303165Y-11415769D02*
X19207927Y-11434817D01*
X19474593Y-11501484D02*
X19474593Y-11301484D01*
X19474593Y-11491960D02*
X19455546Y-11501484D01*
X19455546Y-11501484D02*
X19417450Y-11501484D01*
X19417450Y-11501484D02*
X19398403Y-11491960D01*
X19398403Y-11491960D02*
X19388879Y-11482436D01*
X19388879Y-11482436D02*
X19379355Y-11463388D01*
X19379355Y-11463388D02*
X19379355Y-11406246D01*
X19379355Y-11406246D02*
X19388879Y-11387198D01*
X19388879Y-11387198D02*
X19398403Y-11377674D01*
X19398403Y-11377674D02*
X19417450Y-11368150D01*
X19417450Y-11368150D02*
X19455546Y-11368150D01*
X19455546Y-11368150D02*
X19474593Y-11377674D01*
X19550784Y-11577674D02*
X19560308Y-11568150D01*
X19560308Y-11568150D02*
X19579355Y-11539579D01*
X19579355Y-11539579D02*
X19588879Y-11520531D01*
X19588879Y-11520531D02*
X19598403Y-11491960D01*
X19598403Y-11491960D02*
X19607927Y-11444341D01*
X19607927Y-11444341D02*
X19607927Y-11406246D01*
X19607927Y-11406246D02*
X19598403Y-11358627D01*
X19598403Y-11358627D02*
X19588879Y-11330055D01*
X19588879Y-11330055D02*
X19579355Y-11311008D01*
X19579355Y-11311008D02*
X19560308Y-11282436D01*
X19560308Y-11282436D02*
X19550784Y-11272912D01*
M02*
