G04 #@! TF.GenerationSoftware,KiCad,Pcbnew,7.0.7*
G04 #@! TF.CreationDate,2023-10-04T16:56:08-06:00*
G04 #@! TF.ProjectId,GigE_Module,47696745-5f4d-46f6-9475-6c652e6b6963,rev?*
G04 #@! TF.SameCoordinates,Original*
G04 #@! TF.FileFunction,Profile,NP*
%FSLAX46Y46*%
G04 Gerber Fmt 4.6, Leading zero omitted, Abs format (unit mm)*
G04 Created by KiCad (PCBNEW 7.0.7) date 2023-10-04 16:56:08*
%MOMM*%
%LPD*%
G01*
G04 APERTURE LIST*
G04 #@! TA.AperFunction,Profile*
%ADD10C,0.150000*%
G04 #@! TD*
G04 #@! TA.AperFunction,Profile*
%ADD11C,0.200000*%
G04 #@! TD*
G04 APERTURE END LIST*
D10*
X129969179Y-96789017D02*
X130067656Y-96806292D01*
X130419649Y-93122851D02*
X130328650Y-93164266D01*
X160070533Y-93300651D02*
X160168526Y-93320515D01*
X131015368Y-97485636D02*
X131063353Y-97573348D01*
X129869746Y-96778570D02*
X129969179Y-96789017D01*
X128108061Y-95567042D02*
X128141734Y-95661188D01*
X160544426Y-93454694D02*
X160632848Y-93501372D01*
X129674263Y-96772269D02*
X129769830Y-96774999D01*
X158444983Y-92415967D02*
X158489026Y-92505724D01*
X161521254Y-95076099D02*
X161515481Y-95175918D01*
X159869737Y-96772269D02*
X159774170Y-96774999D01*
X159284126Y-96860963D02*
X159191299Y-96898098D01*
X128274158Y-95929970D02*
X128328287Y-96014037D01*
X160799192Y-96441819D02*
X160716599Y-96498172D01*
X131136789Y-92323396D02*
X131122000Y-85075000D01*
X161515670Y-94876285D02*
X161521317Y-94976112D01*
X129475647Y-96749725D02*
X129574633Y-96763835D01*
X161269842Y-95929970D02*
X161215713Y-96014037D01*
X161402266Y-95661188D02*
X161363271Y-95753256D01*
X158407211Y-92323396D02*
X158444983Y-92415967D01*
X128588309Y-93736056D02*
X128516627Y-93805763D01*
X161027373Y-93805763D02*
X161094957Y-93879449D01*
X128518169Y-96245823D02*
X128589939Y-96315439D01*
X128141734Y-95661188D02*
X128180729Y-95753256D01*
X129278775Y-93345944D02*
X129183686Y-93376853D01*
X161216962Y-94037789D02*
X161270985Y-94121924D01*
X160263102Y-96704678D02*
X160166372Y-96729985D01*
X160954061Y-96315439D02*
X160878433Y-96380842D01*
X130235021Y-93199333D02*
X130139204Y-93227884D01*
X159574821Y-96789017D02*
X159476344Y-96806292D01*
X128039669Y-94776944D02*
X128028330Y-94876285D01*
X130748972Y-92898038D02*
X130672639Y-92962609D01*
X161504016Y-95275245D02*
X161486897Y-95373755D01*
X130961453Y-97401438D02*
X131015368Y-97485636D01*
X131004870Y-92592244D02*
X130948941Y-92675117D01*
X129473467Y-93300651D02*
X129375474Y-93320515D01*
X129280898Y-96704678D02*
X129377628Y-96729985D01*
X130259874Y-96860963D02*
X130352701Y-96898098D01*
X160880146Y-93670557D02*
X160955691Y-93736056D01*
X160068353Y-96749725D02*
X159969367Y-96763835D01*
X159404796Y-93227884D02*
X159502348Y-93249785D01*
X158707116Y-97245172D02*
X158642137Y-97321157D01*
X161270985Y-94121924D02*
X161320114Y-94209008D01*
X161364190Y-94298755D02*
X161403069Y-94390873D01*
X128079258Y-94581012D02*
X128056664Y-94678413D01*
X130901863Y-97321157D02*
X130961453Y-97401438D01*
X128180729Y-95753256D02*
X128224918Y-95842948D01*
X158489026Y-92505724D02*
X158539130Y-92592244D01*
X131054974Y-92505724D02*
X131004870Y-92592244D01*
X129001560Y-96596281D02*
X129092556Y-96637717D01*
X160800982Y-93609480D02*
X160880146Y-93670557D01*
X159674254Y-96778570D02*
X159574821Y-96789017D01*
X128744808Y-96441819D02*
X128827401Y-96498172D01*
X158422000Y-104975000D02*
X157672000Y-105725000D01*
X158951949Y-93021783D02*
X159036412Y-93075281D01*
X161158222Y-93956876D02*
X161216962Y-94037789D01*
X161156871Y-96094876D02*
X161093508Y-96172222D01*
X129375474Y-93320515D02*
X129278775Y-93345944D01*
X129843193Y-93273256D02*
X129772000Y-93275000D01*
X161464742Y-94581012D02*
X161487336Y-94678413D01*
X158723312Y-92828376D02*
X158795028Y-92898038D01*
X161094957Y-93879449D02*
X161158222Y-93956876D01*
X129572435Y-93286416D02*
X129473467Y-93300651D01*
X158539130Y-92592244D02*
X158595059Y-92675117D01*
X159101251Y-96941543D02*
X159014411Y-96991089D01*
X128057103Y-95373755D02*
X128079820Y-95471127D01*
X131872000Y-105725000D02*
X133772000Y-107625000D01*
X130529589Y-96991089D02*
X130612809Y-97046502D01*
X161403069Y-94390873D02*
X161436622Y-94485062D01*
X158528632Y-97485636D02*
X158480647Y-97573348D01*
X130766822Y-97173846D02*
X130836884Y-97245172D01*
X128999574Y-93454694D02*
X128911152Y-93501372D01*
X133772000Y-82425000D02*
X153972000Y-82425000D01*
X159774170Y-96774999D02*
X159774170Y-96774999D01*
X161320114Y-94209008D02*
X161364190Y-94298755D01*
X160453482Y-93413143D02*
X160544426Y-93454694D01*
X158795028Y-92898038D02*
X158871361Y-92962609D01*
X130139204Y-93227884D02*
X130041652Y-93249785D01*
X128911152Y-93501372D02*
X128825540Y-93553023D01*
X160166372Y-96729985D02*
X160068353Y-96749725D01*
X128589939Y-96315439D02*
X128665567Y-96380842D01*
X130328650Y-93164266D02*
X130235021Y-93199333D01*
X128028330Y-94876285D02*
X128022683Y-94976112D01*
X158422000Y-85075000D02*
X157672000Y-84325000D01*
X158777178Y-97173846D02*
X158707116Y-97245172D01*
X129672054Y-93277856D02*
X129572435Y-93286416D01*
X161486897Y-95373755D02*
X161464180Y-95471127D01*
X161487336Y-94678413D02*
X161504331Y-94776944D01*
X128387129Y-96094876D02*
X128450492Y-96172222D01*
X161093508Y-96172222D02*
X161025831Y-96245823D01*
X131105179Y-97664159D02*
X131122000Y-104975000D01*
X161363271Y-95753256D02*
X161319082Y-95842948D01*
X128079820Y-95471127D02*
X128108061Y-95567042D01*
X159191299Y-96898098D02*
X159101251Y-96941543D01*
X158642137Y-97321157D02*
X158582547Y-97401438D01*
X159772000Y-93275000D02*
X159871946Y-93277856D01*
X130164708Y-96830312D02*
X130259874Y-96860963D01*
X159308979Y-93199333D02*
X159404796Y-93227884D01*
X159969367Y-96763835D02*
X159869737Y-96772269D01*
X160955691Y-93736056D02*
X161027373Y-93805763D01*
X128056664Y-94678413D02*
X128039669Y-94776944D01*
X161215713Y-96014037D02*
X161156871Y-96094876D01*
X130041652Y-93249785D02*
X129942826Y-93264933D01*
X160630922Y-96549715D02*
X160542440Y-96596281D01*
X157672000Y-105725000D02*
X155772000Y-107625000D01*
X159601174Y-93264933D02*
X159700807Y-93273256D01*
X128663854Y-93670557D02*
X128588309Y-93736056D01*
X158407211Y-92323396D02*
X158422000Y-85075000D01*
X158851988Y-97107517D02*
X158777178Y-97173846D01*
X161464180Y-95471127D02*
X161435939Y-95567042D01*
X130442749Y-96941543D02*
X130529589Y-96991089D01*
X159014411Y-96991089D02*
X158931191Y-97046502D01*
X159971565Y-93286416D02*
X160070533Y-93300651D01*
X129090518Y-93413143D02*
X128999574Y-93454694D01*
X158931191Y-97046502D02*
X158851988Y-97107517D01*
X159124351Y-93122851D02*
X159215350Y-93164266D01*
X159774170Y-96774999D02*
X159674254Y-96778570D01*
X128039984Y-95275245D02*
X128057103Y-95373755D01*
X157672000Y-84325000D02*
X155772000Y-82425000D01*
X128028519Y-95175918D02*
X128039984Y-95275245D01*
X161025831Y-96245823D02*
X160954061Y-96315439D01*
X160360314Y-93376853D02*
X160453482Y-93413143D01*
X160358230Y-96673889D02*
X160263102Y-96704678D01*
X128107378Y-94485062D02*
X128079258Y-94581012D01*
X158871361Y-92962609D02*
X158951949Y-93021783D01*
X159700807Y-93273256D02*
X159772000Y-93275000D01*
X159215350Y-93164266D02*
X159308979Y-93199333D01*
X161319082Y-95842948D02*
X161269842Y-95929970D01*
X128140931Y-94390873D02*
X128107378Y-94485062D01*
X128450492Y-96172222D02*
X128518169Y-96245823D01*
X130820688Y-92828376D02*
X130748972Y-92898038D01*
X131136789Y-92323396D02*
X131099017Y-92415967D01*
X129574633Y-96763835D02*
X129674263Y-96772269D01*
X130592051Y-93021783D02*
X130507588Y-93075281D01*
X155772000Y-107625000D02*
X133772000Y-107625000D01*
X160632848Y-93501372D02*
X160718460Y-93553023D01*
X128913078Y-96549715D02*
X129001560Y-96596281D01*
X160716599Y-96498172D02*
X160630922Y-96549715D01*
X161515481Y-95175918D02*
X161504016Y-95275245D01*
D11*
X131122000Y-95025000D02*
G75*
G03*
X131122000Y-95025000I-1350000J0D01*
G01*
D10*
X128328287Y-96014037D02*
X128387129Y-96094876D01*
X128224918Y-95842948D02*
X128274158Y-95929970D01*
X131099017Y-92415967D02*
X131054974Y-92505724D01*
X130507588Y-93075281D02*
X130419649Y-93122851D01*
X130672639Y-92962609D02*
X130592051Y-93021783D01*
X160542440Y-96596281D02*
X160451444Y-96637717D01*
X158656550Y-92753951D02*
X158723312Y-92828376D01*
X131122000Y-104975000D02*
X131872000Y-105725000D01*
X131872000Y-84325000D02*
X133772000Y-82425000D01*
X160718460Y-93553023D02*
X160800982Y-93609480D01*
X129377628Y-96729985D02*
X129475647Y-96749725D01*
X129942826Y-93264933D02*
X129843193Y-93273256D01*
X128022746Y-95076099D02*
X128028519Y-95175918D01*
X161436622Y-94485062D02*
X161464742Y-94581012D01*
X159036412Y-93075281D02*
X159124351Y-93122851D01*
X128827401Y-96498172D02*
X128913078Y-96549715D01*
X129092556Y-96637717D02*
X129185770Y-96673889D01*
X160878433Y-96380842D02*
X160799192Y-96441819D01*
X129769830Y-96774999D02*
X129869746Y-96778570D01*
X130067656Y-96806292D02*
X130164708Y-96830312D01*
X158595059Y-92675117D02*
X158656550Y-92753951D01*
X160168526Y-93320515D02*
X160265225Y-93345944D01*
X128273015Y-94121924D02*
X128223886Y-94209008D01*
X159476344Y-96806292D02*
X159379292Y-96830312D01*
X129183686Y-93376853D02*
X129090518Y-93413143D01*
X160451444Y-96637717D02*
X160358230Y-96673889D01*
X131122000Y-85075000D02*
X131872000Y-84325000D01*
X128516627Y-93805763D02*
X128449043Y-93879449D01*
X159379292Y-96830312D02*
X159284126Y-96860963D01*
X128743018Y-93609480D02*
X128663854Y-93670557D01*
X130612809Y-97046502D02*
X130692012Y-97107517D01*
X129185770Y-96673889D02*
X129280898Y-96704678D01*
X155772000Y-82425000D02*
X153972000Y-82425000D01*
X158582547Y-97401438D02*
X158528632Y-97485636D01*
X130948941Y-92675117D02*
X130887450Y-92753951D01*
X129772000Y-93275000D02*
X129672054Y-93277856D01*
X128825540Y-93553023D02*
X128743018Y-93609480D01*
X161504331Y-94776944D02*
X161515670Y-94876285D01*
X131063353Y-97573348D02*
X131105179Y-97664159D01*
X130352701Y-96898098D02*
X130442749Y-96941543D01*
X128022683Y-94976112D02*
X128022746Y-95076099D01*
X160265225Y-93345944D02*
X160360314Y-93376853D01*
X130887450Y-92753951D02*
X130820688Y-92828376D01*
X159502348Y-93249785D02*
X159601174Y-93264933D01*
X161435939Y-95567042D02*
X161402266Y-95661188D01*
X158438821Y-97664159D02*
X158422000Y-104975000D01*
X128327038Y-94037789D02*
X128273015Y-94121924D01*
X128665567Y-96380842D02*
X128744808Y-96441819D01*
X128449043Y-93879449D02*
X128385778Y-93956876D01*
X161521317Y-94976112D02*
X161521254Y-95076099D01*
D11*
X161122000Y-95025000D02*
G75*
G03*
X161122000Y-95025000I-1350000J0D01*
G01*
D10*
X128385778Y-93956876D02*
X128327038Y-94037789D01*
X159871946Y-93277856D02*
X159971565Y-93286416D01*
X128179810Y-94298755D02*
X128140931Y-94390873D01*
X128223886Y-94209008D02*
X128179810Y-94298755D01*
X158480647Y-97573348D02*
X158438821Y-97664159D01*
X130692012Y-97107517D02*
X130766822Y-97173846D01*
X130836884Y-97245172D02*
X130901863Y-97321157D01*
M02*
