G04 #@! TF.GenerationSoftware,KiCad,Pcbnew,7.0.7*
G04 #@! TF.CreationDate,2023-10-04T16:56:07-06:00*
G04 #@! TF.ProjectId,GigE_Module,47696745-5f4d-46f6-9475-6c652e6b6963,rev?*
G04 #@! TF.SameCoordinates,Original*
G04 #@! TF.FileFunction,Copper,L1,Top*
G04 #@! TF.FilePolarity,Positive*
%FSLAX46Y46*%
G04 Gerber Fmt 4.6, Leading zero omitted, Abs format (unit mm)*
G04 Created by KiCad (PCBNEW 7.0.7) date 2023-10-04 16:56:07*
%MOMM*%
%LPD*%
G01*
G04 APERTURE LIST*
G04 Aperture macros list*
%AMRoundRect*
0 Rectangle with rounded corners*
0 $1 Rounding radius*
0 $2 $3 $4 $5 $6 $7 $8 $9 X,Y pos of 4 corners*
0 Add a 4 corners polygon primitive as box body*
4,1,4,$2,$3,$4,$5,$6,$7,$8,$9,$2,$3,0*
0 Add four circle primitives for the rounded corners*
1,1,$1+$1,$2,$3*
1,1,$1+$1,$4,$5*
1,1,$1+$1,$6,$7*
1,1,$1+$1,$8,$9*
0 Add four rect primitives between the rounded corners*
20,1,$1+$1,$2,$3,$4,$5,0*
20,1,$1+$1,$4,$5,$6,$7,0*
20,1,$1+$1,$6,$7,$8,$9,0*
20,1,$1+$1,$8,$9,$2,$3,0*%
G04 Aperture macros list end*
G04 #@! TA.AperFunction,ComponentPad*
%ADD10R,1.500000X1.500000*%
G04 #@! TD*
G04 #@! TA.AperFunction,ComponentPad*
%ADD11C,1.500000*%
G04 #@! TD*
G04 #@! TA.AperFunction,ComponentPad*
%ADD12C,2.300000*%
G04 #@! TD*
G04 #@! TA.AperFunction,SMDPad,CuDef*
%ADD13RoundRect,0.200000X-0.200000X-0.275000X0.200000X-0.275000X0.200000X0.275000X-0.200000X0.275000X0*%
G04 #@! TD*
G04 #@! TA.AperFunction,ComponentPad*
%ADD14R,1.350000X1.350000*%
G04 #@! TD*
G04 #@! TA.AperFunction,ComponentPad*
%ADD15O,1.350000X1.350000*%
G04 #@! TD*
G04 #@! TA.AperFunction,SMDPad,CuDef*
%ADD16RoundRect,0.250000X-0.287500X-0.275000X0.287500X-0.275000X0.287500X0.275000X-0.287500X0.275000X0*%
G04 #@! TD*
G04 #@! TA.AperFunction,ViaPad*
%ADD17C,0.800000*%
G04 #@! TD*
G04 #@! TA.AperFunction,Conductor*
%ADD18C,0.250000*%
G04 #@! TD*
G04 #@! TA.AperFunction,Conductor*
%ADD19C,0.200000*%
G04 #@! TD*
G04 APERTURE END LIST*
D10*
X148270000Y-101810000D03*
D11*
X147254000Y-100030000D03*
X146238000Y-101810000D03*
X145222000Y-100030000D03*
X144206000Y-101810000D03*
X143190000Y-100030000D03*
X142174000Y-101810000D03*
X141158000Y-100030000D03*
X151570000Y-95210000D03*
X149280000Y-95210000D03*
X140140000Y-95210000D03*
X137850000Y-95210000D03*
D12*
X152840000Y-100920000D03*
X136580000Y-100920000D03*
D13*
X150295000Y-85330000D03*
X151945000Y-85330000D03*
X150295000Y-86930000D03*
X151945000Y-86930000D03*
X150285000Y-90580000D03*
X151935000Y-90580000D03*
D14*
X155772000Y-86025000D03*
D15*
X155772000Y-88025000D03*
X155772000Y-90025000D03*
X155772000Y-92025000D03*
X155772000Y-94025000D03*
X155772000Y-96025000D03*
X155772000Y-98025000D03*
X155772000Y-100025000D03*
X155772000Y-102025000D03*
X155772000Y-104025000D03*
D14*
X133772000Y-86025000D03*
D15*
X133772000Y-88025000D03*
X133772000Y-90025000D03*
X133772000Y-92025000D03*
X133772000Y-94025000D03*
X133772000Y-96025000D03*
X133772000Y-98025000D03*
X133772000Y-100025000D03*
X133772000Y-102025000D03*
X133772000Y-104025000D03*
D16*
X150420000Y-88900000D03*
X151845000Y-88900000D03*
D13*
X150285000Y-92160000D03*
X151935000Y-92160000D03*
D17*
X145560000Y-92840000D03*
X138312000Y-87725000D03*
X142710000Y-88260000D03*
X139240000Y-100000000D03*
X145334503Y-91390500D03*
X143990000Y-87000000D03*
X144780000Y-89640000D03*
X136830000Y-92900000D03*
X153882000Y-94113891D03*
X144237921Y-92840000D03*
X142646502Y-90592642D03*
X143000000Y-85110000D03*
X135504500Y-92900000D03*
X146490000Y-85110000D03*
X148100000Y-97900000D03*
X147085284Y-97900000D03*
X149124718Y-97900000D03*
X146497500Y-95136911D03*
D18*
X151795673Y-88900000D02*
X150945673Y-88050000D01*
X145334503Y-92614503D02*
X145560000Y-92840000D01*
X139240000Y-100000000D02*
X139240000Y-100345966D01*
X143970000Y-87000000D02*
X142710000Y-88260000D01*
X139240000Y-100345966D02*
X135560966Y-104025000D01*
X151845000Y-88900000D02*
X151795673Y-88900000D01*
X151935000Y-88810000D02*
X151845000Y-88900000D01*
X144780000Y-89640000D02*
X144090000Y-89640000D01*
X145334503Y-91390500D02*
X145334503Y-92614503D01*
X151935000Y-87250000D02*
X151935000Y-88810000D01*
X135560966Y-104025000D02*
X133772000Y-104025000D01*
X143990000Y-87000000D02*
X143970000Y-87000000D01*
X150945673Y-88050000D02*
X149860000Y-88050000D01*
X151935000Y-85650000D02*
X151935000Y-87250000D01*
X138312000Y-87725000D02*
X138847000Y-88260000D01*
X149860000Y-88050000D02*
X145560000Y-92350000D01*
X138847000Y-88260000D02*
X142710000Y-88260000D01*
X144090000Y-89640000D02*
X142710000Y-88260000D01*
X145560000Y-92350000D02*
X145560000Y-92840000D01*
X136830000Y-92900000D02*
X136105000Y-93625000D01*
X136105000Y-93625000D02*
X135175000Y-93625000D01*
X134780000Y-93230000D02*
X134780000Y-87033000D01*
X136167000Y-83630000D02*
X133772000Y-86025000D01*
X153607500Y-93839391D02*
X153607500Y-84127500D01*
X134780000Y-87033000D02*
X133772000Y-86025000D01*
X135175000Y-93625000D02*
X134780000Y-93230000D01*
X153882000Y-94113891D02*
X153607500Y-93839391D01*
X153110000Y-83630000D02*
X136167000Y-83630000D01*
X153607500Y-84127500D02*
X153110000Y-83630000D01*
X150420000Y-89065000D02*
X151935000Y-90580000D01*
X151865000Y-90580000D02*
X150285000Y-92160000D01*
X151935000Y-90580000D02*
X151865000Y-90580000D01*
X150420000Y-88900000D02*
X150420000Y-89065000D01*
X152362462Y-84530000D02*
X152707500Y-84875038D01*
X152707500Y-94072500D02*
X151570000Y-95210000D01*
X151405000Y-84530000D02*
X152362462Y-84530000D01*
X150285000Y-85650000D02*
X151405000Y-84530000D01*
X152707500Y-84875038D02*
X152707500Y-94072500D01*
X144333371Y-96700000D02*
X134447000Y-96700000D01*
X145772500Y-95260871D02*
X144333371Y-96700000D01*
X134447000Y-96700000D02*
X133772000Y-96025000D01*
X145772500Y-94411256D02*
X145772500Y-95260871D01*
X144237921Y-92876677D02*
X145772500Y-94411256D01*
X142646502Y-90592642D02*
X141387065Y-91852079D01*
X141387065Y-91852079D02*
X139687641Y-91852079D01*
X133357786Y-95025000D02*
X132772000Y-95610786D01*
X136514720Y-95025000D02*
X133357786Y-95025000D01*
X139687641Y-91852079D02*
X136514720Y-95025000D01*
X132772000Y-95610786D02*
X132772000Y-97025000D01*
X132772000Y-97025000D02*
X133772000Y-98025000D01*
X140490000Y-95210000D02*
X140140000Y-95210000D01*
X150295000Y-86930000D02*
X148770000Y-86930000D01*
X148770000Y-86930000D02*
X140490000Y-95210000D01*
X140140000Y-95040000D02*
X140140000Y-95210000D01*
X137190000Y-85110000D02*
X143000000Y-85110000D01*
X135504500Y-92900000D02*
X136070000Y-92334500D01*
X136070000Y-92334500D02*
X136070000Y-86230000D01*
X136070000Y-86230000D02*
X137190000Y-85110000D01*
X152015280Y-96285000D02*
X150355000Y-96285000D01*
X150355000Y-96285000D02*
X149280000Y-95210000D01*
X146490000Y-85110000D02*
X147520000Y-84080000D01*
X153157500Y-95142780D02*
X152015280Y-96285000D01*
X147520000Y-84080000D02*
X152923604Y-84080000D01*
X153157500Y-84313896D02*
X153157500Y-95142780D01*
X152923604Y-84080000D02*
X153157500Y-84313896D01*
D19*
X148270000Y-101810000D02*
X148304000Y-101776000D01*
X148304000Y-98104000D02*
X148100000Y-97900000D01*
X148304000Y-101776000D02*
X148304000Y-98104000D01*
X147254000Y-100030000D02*
X147254000Y-98068716D01*
X147254000Y-98068716D02*
X147085284Y-97900000D01*
X149124718Y-97900000D02*
X149320000Y-98095282D01*
X148230000Y-94775075D02*
X148230000Y-97005282D01*
X147288000Y-102860000D02*
X146238000Y-101810000D01*
X150330000Y-93765000D02*
X149240075Y-93765000D01*
X148230000Y-97005282D02*
X149124718Y-97900000D01*
X149150000Y-102860000D02*
X147288000Y-102860000D01*
X149240075Y-93765000D02*
X148230000Y-94775075D01*
X149320000Y-98095282D02*
X149320000Y-102690000D01*
X151935000Y-92160000D02*
X150330000Y-93765000D01*
X149320000Y-102690000D02*
X149150000Y-102860000D01*
X146497500Y-95136911D02*
X143190000Y-98444411D01*
X146497500Y-95136911D02*
X146497500Y-94602500D01*
X143190000Y-98444411D02*
X143190000Y-100030000D01*
X146497500Y-94602500D02*
X150285000Y-90815000D01*
X150285000Y-90815000D02*
X150285000Y-90580000D01*
M02*
