M48
; DRILL file {KiCad 7.0.7} date Wed Oct  4 16:56:17 2023
; FORMAT={-:-/ absolute / metric / decimal}
; #@! TF.CreationDate,2023-10-04T16:56:17-06:00
; #@! TF.GenerationSoftware,Kicad,Pcbnew,7.0.7
; #@! TF.FileFunction,Plated,1,2,PTH
FMAT,2
METRIC
; #@! TA.AperFunction,Plated,PTH,ViaDrill
T1C0.400
; #@! TA.AperFunction,Plated,PTH,ComponentDrill
T2C0.800
; #@! TA.AperFunction,Plated,PTH,ComponentDrill
T3C0.890
; #@! TA.AperFunction,Plated,PTH,ComponentDrill
T4C1.570
%
G90
G05
T1
X135.505Y-92.9
X136.83Y-92.9
X138.312Y-87.725
X139.24Y-100.0
X142.647Y-90.593
X142.71Y-88.26
X143.0Y-85.11
X143.99Y-87.0
X144.238Y-92.84
X144.78Y-89.64
X145.335Y-91.391
X145.56Y-92.84
X146.49Y-85.11
X146.498Y-95.137
X147.085Y-97.9
X148.1Y-97.9
X149.125Y-97.9
X153.882Y-94.114
T2
X133.772Y-86.025
X133.772Y-88.025
X133.772Y-90.025
X133.772Y-92.025
X133.772Y-94.025
X133.772Y-96.025
X133.772Y-98.025
X133.772Y-100.025
X133.772Y-102.025
X133.772Y-104.025
X155.772Y-86.025
X155.772Y-88.025
X155.772Y-90.025
X155.772Y-92.025
X155.772Y-94.025
X155.772Y-96.025
X155.772Y-98.025
X155.772Y-100.025
X155.772Y-102.025
X155.772Y-104.025
T3
X137.85Y-95.21
X140.14Y-95.21
X141.158Y-100.03
X142.174Y-101.81
X143.19Y-100.03
X144.206Y-101.81
X145.222Y-100.03
X146.238Y-101.81
X147.254Y-100.03
X148.27Y-101.81
X149.28Y-95.21
X151.57Y-95.21
T4
X136.58Y-100.92
X152.84Y-100.92
T0
M30
